<svg width="260" height="180" viewBox="0 0 260 180" fill="none" xmlns="http://www.w3.org/2000/svg">
<g filter="url(#filter0_d_9_6563)">
<path d="M5 5V59.4688H14.7351V14.7073H66.3854V5H5Z" stroke="white" stroke-width="2"/>
<path d="M254 173.594V119.125H244.265V163.886H192.615V173.594H254Z" stroke="white" stroke-width="2"/>
</g>
<g filter="url(#filter1_d_9_6563)">
<path d="M52.4513 81.2899L51.4657 81.1206L51.3047 82.0579L52.2328 82.2657L52.4513 81.2899ZM53.7773 73.5679L54.0156 72.5967L52.9733 72.3409L52.7917 73.3986L53.7773 73.5679ZM64.6193 74.5819L64.6486 75.5814L64.6625 75.581L64.6763 75.5802L64.6193 74.5819ZM67.0373 74.3479L67.1838 75.3371L68.0373 75.2106V74.3479H67.0373ZM67.0373 72.0079H68.0373V71.0877L67.1203 71.0113L67.0373 72.0079ZM62.8253 71.6569L62.7298 72.6524L62.7422 72.6534L62.8253 71.6569ZM58.0673 70.7209L57.7395 71.6656L57.7395 71.6656L58.0673 70.7209ZM54.9863 68.9269L54.2673 69.6219L54.279 69.6341L54.2912 69.6459L54.9863 68.9269ZM53.3483 66.1579L52.3867 66.4326L52.3907 66.4464L52.395 66.4601L53.3483 66.1579ZM53.5043 57.3439L54.4584 57.6432L54.46 57.638L53.5043 57.3439ZM55.4933 54.1069L56.1563 54.8555L56.1622 54.8502L56.168 54.8449L55.4933 54.1069ZM59.0033 52.3519L58.7771 51.3778L58.7732 51.3787L59.0033 52.3519ZM75.5393 53.0149L76.5273 53.1693L76.6707 52.2513L75.7658 52.0409L75.5393 53.0149ZM74.3693 60.5029L74.2106 61.4902L75.2022 61.6496L75.3573 60.6573L74.3693 60.5029ZM62.9423 60.0349L62.8156 59.0429L61.9423 59.1544V60.0349H62.9423ZM62.9423 62.3359H61.9423V63.2472L62.8496 63.3316L62.9423 62.3359ZM66.2963 62.6479L66.397 61.6529L66.3889 61.6522L66.2963 62.6479ZM71.4443 63.7009L71.1068 64.6422L71.1147 64.6451L71.1227 64.6478L71.4443 63.7009ZM74.7593 65.5729L74.0753 66.3024L74.0809 66.3077L74.0866 66.3128L74.7593 65.5729ZM76.5533 68.3419L75.6 68.6441L75.6033 68.6546L75.6069 68.665L76.5533 68.3419ZM76.3193 76.9999L75.3859 76.6409L75.3859 76.6409L76.3193 76.9999ZM74.4473 80.0809L75.1385 80.8035L75.1414 80.8007L74.4473 80.0809ZM72.2243 81.4459L72.5571 82.3889L72.5693 82.3846L72.5814 82.3799L72.2243 81.4459ZM69.4163 82.1479L69.5722 83.1356L69.5722 83.1356L69.4163 82.1479ZM66.4133 82.4209L66.3876 81.4212L66.3741 81.4215L66.3607 81.4223L66.4133 82.4209ZM57.8723 82.1869L57.9827 81.193L57.8723 82.1869ZM53.4368 81.4591L54.7628 73.7371L52.7917 73.3986L51.4657 81.1206L53.4368 81.4591ZM53.5389 74.539C56.4568 75.2553 59.1256 75.6209 61.5383 75.6209V73.6209C59.3229 73.6209 56.8177 73.2845 54.0156 72.5967L53.5389 74.539ZM61.5383 75.6209C62.7151 75.6209 63.7523 75.6078 64.6486 75.5814L64.5899 73.5823C63.7182 73.6079 62.7014 73.6209 61.5383 73.6209V75.6209ZM64.6763 75.5802C65.6083 75.527 66.4452 75.4465 67.1838 75.3371L66.8907 73.3587C66.2253 73.4572 65.4502 73.5328 64.5622 73.5835L64.6763 75.5802ZM68.0373 74.3479V72.0079H66.0373V74.3479H68.0373ZM67.1203 71.0113L62.9083 70.6603L62.7422 72.6534L66.9542 73.0044L67.1203 71.0113ZM62.9207 70.6614C61.0721 70.4842 59.5701 70.1838 58.395 69.7761L57.7395 71.6656C59.1124 72.142 60.7824 72.4656 62.7298 72.6523L62.9207 70.6614ZM58.395 69.7761C57.2259 69.3705 56.3345 68.8394 55.6813 68.2079L54.2912 69.6459C55.198 70.5224 56.3606 71.1872 57.7395 71.6656L58.395 69.7761ZM55.7052 68.2319C55.062 67.5664 54.5943 66.7791 54.3015 65.8556L52.395 66.4601C52.7782 67.6687 53.4025 68.7273 54.2673 69.6219L55.7052 68.2319ZM54.3098 65.8832C54.0293 64.9015 53.8803 63.7237 53.8803 62.3359H51.8803C51.8803 63.8601 52.0432 65.2302 52.3867 66.4326L54.3098 65.8832ZM53.8803 62.3359C53.8803 60.3948 54.0829 58.84 54.4584 57.6432L52.5501 57.0445C52.0936 58.4998 51.8803 60.273 51.8803 62.3359H53.8803ZM54.46 57.638C54.831 56.4323 55.4049 55.521 56.1563 54.8555L54.8302 53.3583C53.7616 54.3048 53.0095 55.5514 52.5485 57.0498L54.46 57.638ZM56.168 54.8449C56.9301 54.1481 57.9373 53.6314 59.2333 53.3251L58.7732 51.3787C57.2092 51.7484 55.8764 52.4016 54.8185 53.3688L56.168 54.8449ZM59.2294 53.326C60.5887 53.0104 62.2761 52.8449 64.3073 52.8449V50.8449C62.1784 50.8449 60.3298 51.0173 58.7771 51.3778L59.2294 53.326ZM64.3073 52.8449C68.3797 52.8449 72.046 53.2292 75.3127 53.9889L75.7658 52.0409C72.3245 51.2406 68.5028 50.8449 64.3073 50.8449V52.8449ZM74.5512 52.8605L73.3812 60.3485L75.3573 60.6573L76.5273 53.1693L74.5512 52.8605ZM74.5279 59.5155C71.5941 59.044 69.2073 58.8009 67.3883 58.8009V60.8009C69.0532 60.8009 71.3204 61.0257 74.2106 61.4902L74.5279 59.5155ZM67.3883 58.8009C65.6197 58.8009 64.0928 58.8799 62.8156 59.0429L63.0689 61.0268C64.2357 60.8779 65.6728 60.8009 67.3883 60.8009V58.8009ZM61.9423 60.0349V62.3359H63.9423V60.0349H61.9423ZM62.8496 63.3316L66.2036 63.6436L66.3889 61.6522L63.0349 61.3402L62.8496 63.3316ZM66.1955 63.6428C68.1989 63.8457 69.8293 64.1842 71.1068 64.6422L71.7817 62.7595C70.3032 62.2295 68.5016 61.8661 66.397 61.653L66.1955 63.6428ZM71.1227 64.6478C72.4017 65.0821 73.3717 65.6428 74.0753 66.3024L75.4432 64.8433C74.4828 63.9429 73.2428 63.2556 71.7658 62.754L71.1227 64.6478ZM74.0866 66.3128C74.8191 66.9788 75.3173 67.7526 75.6 68.6441L77.5065 68.0396C77.1132 66.7992 76.4154 65.727 75.4319 64.8329L74.0866 66.3128ZM75.6069 68.665C75.9285 69.6067 76.0993 70.7161 76.0993 72.0079H78.0993C78.0993 70.5436 77.906 69.209 77.4996 68.0187L75.6069 68.665ZM76.0993 72.0079C76.0993 73.9029 75.849 75.4368 75.3859 76.6409L77.2526 77.3589C77.8295 75.8589 78.0993 74.0649 78.0993 72.0079H76.0993ZM75.3859 76.6409C74.8973 77.9112 74.3407 78.7944 73.7531 79.361L75.1414 80.8007C76.0098 79.9633 76.7012 78.7925 77.2526 77.3589L75.3859 76.6409ZM73.756 79.3582C73.2671 79.826 72.6445 80.2146 71.8671 80.5118L72.5814 82.3799C73.572 82.0012 74.4315 81.4798 75.1385 80.8035L73.756 79.3582ZM71.8914 80.5029C71.0686 80.7933 70.1921 81.013 69.2603 81.1601L69.5722 83.1356C70.6164 82.9708 71.6119 82.7224 72.5571 82.3889L71.8914 80.5029ZM69.2603 81.1601C68.316 81.3092 67.3586 81.3963 66.3876 81.4212L66.4389 83.4205C67.4959 83.3934 68.5405 83.2985 69.5722 83.1356L69.2603 81.1601ZM66.3607 81.4223C65.3864 81.4735 64.5073 81.4989 63.7223 81.4989V83.4989C64.5492 83.4989 65.4641 83.4722 66.4658 83.4195L66.3607 81.4223ZM63.7223 81.4989C61.7284 81.4989 59.8153 81.3966 57.9827 81.193L57.7618 83.1808C59.6732 83.3931 61.6601 83.4989 63.7223 83.4989V81.4989ZM57.9827 81.193C56.145 80.9888 54.3742 80.6956 52.6697 80.314L52.2328 82.2657C54.0123 82.6641 55.8555 82.9689 57.7618 83.1808L57.9827 81.193ZM79.9222 52.5469V51.5469H78.9222V52.5469H79.9222ZM89.2822 52.5469H90.2822V51.5469H89.2822V52.5469ZM89.2822 74.5039H88.2822V75.5039H89.2822V74.5039ZM95.0152 74.0359L94.4385 73.2189L94.4267 73.2272L94.4152 73.2359L95.0152 74.0359ZM95.6782 52.5469V51.5469H94.6782V52.5469H95.6782ZM105.038 52.5469H106.038V51.5469H105.038V52.5469ZM104.531 75.2839L103.55 75.0906L103.549 75.0978L103.547 75.105L104.531 75.2839ZM102.659 79.4959L101.9 78.8451L101.899 78.8466L102.659 79.4959ZM98.8372 81.7969L98.5625 80.8354L98.5625 80.8354L98.8372 81.7969ZM82.2622 79.4959L81.5015 80.1452L81.5107 80.1557L82.2622 79.4959ZM80.3902 75.3229L79.4058 75.4992L79.4074 75.5077L79.409 75.5161L80.3902 75.3229ZM79.9222 53.5469H89.2822V51.5469H79.9222V53.5469ZM88.2822 52.5469V74.5039H90.2822V52.5469H88.2822ZM89.2822 75.5039H92.5972V73.5039H89.2822V75.5039ZM92.5972 75.5039C93.2329 75.5039 93.8018 75.4629 94.2887 75.3687C94.7633 75.2768 95.2359 75.1203 95.6152 74.8359L94.4152 73.2359C94.3784 73.2634 94.24 73.341 93.9087 73.4051C93.5895 73.4669 93.1575 73.5039 92.5972 73.5039V75.5039ZM95.5919 74.8528C96.4663 74.2356 96.6782 73.0925 96.6782 72.0079H94.6782C94.6782 73.0033 94.4481 73.2121 94.4385 73.2189L95.5919 74.8528ZM96.6782 72.0079V52.5469H94.6782V72.0079H96.6782ZM95.6782 53.5469H105.038V51.5469H95.6782V53.5469ZM104.038 52.5469V68.9659H106.038V52.5469H104.038ZM104.038 68.9659C104.038 71.422 103.871 73.4588 103.55 75.0906L105.512 75.4771C105.867 73.6769 106.038 71.5017 106.038 68.9659H104.038ZM103.547 75.105C103.26 76.6836 102.698 77.9137 101.9 78.8451L103.418 80.1467C104.492 78.8941 105.178 77.3161 105.515 75.4628L103.547 75.105ZM101.899 78.8466C101.142 79.7335 100.052 80.4096 98.5625 80.8354L99.1119 82.7584C100.898 82.2481 102.357 81.3903 103.42 80.1451L101.899 78.8466ZM98.5625 80.8354C97.0476 81.2682 95.0306 81.4989 92.4802 81.4989V83.4989C95.1297 83.4989 97.3507 83.2616 99.1119 82.7584L98.5625 80.8354ZM92.4802 81.4989C89.9297 81.4989 87.9127 81.2682 86.3979 80.8354L85.8485 82.7584C87.6096 83.2616 89.8306 83.4989 92.4802 83.4989V81.4989ZM86.3979 80.8354C84.907 80.4094 83.7995 79.7311 83.0136 78.8361L81.5107 80.1557C82.5969 81.3927 84.0634 82.2484 85.8485 82.7584L86.3979 80.8354ZM83.0227 78.8466C82.2486 77.9397 81.6843 76.7184 81.3713 75.1296L79.409 75.5161C79.7721 77.3594 80.4558 78.92 81.5016 80.1451L83.0227 78.8466ZM81.3745 75.1466C81.0762 73.481 80.9222 71.4247 80.9222 68.9659H78.9222C78.9222 71.499 79.0802 73.6808 79.4058 75.4992L81.3745 75.1466ZM80.9222 68.9659V52.5469H78.9222V68.9659H80.9222ZM108.998 81.7969H107.998V82.7969H108.998V81.7969ZM108.998 52.5469V51.5469H107.998V52.5469H108.998ZM130.175 54.1849L129.501 54.9234L129.501 54.9234L130.175 54.1849ZM130.838 63.8179L131.667 64.377L131.673 64.3682L130.838 63.8179ZM127.757 66.0409L127.488 65.0779L126.757 65.2824V66.0409H127.757ZM127.757 66.3139H126.757V67.1562L127.587 67.2993L127.757 66.3139ZM131.54 79.6909L130.787 79.0333L130.786 79.0344L131.54 79.6909ZM118.358 70.1359V69.1359H117.358V70.1359H118.358ZM118.358 74.9329H117.358V75.9329H118.358V74.9329ZM118.358 58.9429V57.9429H117.358V58.9429H118.358ZM118.358 63.3109H117.358V64.3109H118.358V63.3109ZM125.807 80.7969H108.998V82.7969H125.807V80.7969ZM109.998 81.7969V52.5469H107.998V81.7969H109.998ZM108.998 53.5469H124.169V51.5469H108.998V53.5469ZM124.169 53.5469C126.896 53.5469 128.584 54.0861 129.501 54.9234L130.849 53.4464C129.374 52.0997 127.059 51.5469 124.169 51.5469V53.5469ZM129.501 54.9234C130.434 55.7754 130.969 57.059 130.969 58.9429H132.969C132.969 56.6667 132.308 54.7784 130.849 53.4464L129.501 54.9234ZM130.969 58.9429C130.969 60.9508 130.606 62.3528 130.003 63.2676L131.673 64.3682C132.578 62.995 132.969 61.147 132.969 58.9429H130.969ZM130.009 63.2587C129.388 64.1798 128.559 64.7778 127.488 65.0779L128.027 67.0038C129.555 66.5759 130.78 65.692 131.667 64.377L130.009 63.2587ZM126.757 66.0409V66.3139H128.757V66.0409H126.757ZM127.587 67.2993C129.271 67.5896 130.432 68.2853 131.192 69.3227C131.967 70.3808 132.412 71.9148 132.412 74.0359H134.412C134.412 71.6589 133.915 69.657 132.805 68.141C131.68 66.6044 130.013 65.6881 127.927 65.3284L127.587 67.2993ZM132.412 74.0359C132.412 76.1926 131.841 77.8252 130.787 79.0333L132.294 80.3484C133.735 78.6965 134.412 76.5591 134.412 74.0359H132.412ZM130.786 79.0344C129.82 80.1439 128.237 80.7969 125.807 80.7969V82.7969C128.577 82.7969 130.816 82.0458 132.295 80.3474L130.786 79.0344ZM122.024 69.1359H118.358V71.1359H122.024V69.1359ZM117.358 70.1359V74.9329H119.358V70.1359H117.358ZM118.358 75.9329H121.946V73.9329H118.358V75.9329ZM121.946 75.9329C122.82 75.9329 123.639 75.6577 124.21 74.9636C124.75 74.3069 124.935 73.4327 124.935 72.5149H122.935C122.935 73.209 122.788 73.5438 122.666 73.6931C122.574 73.805 122.398 73.9329 121.946 73.9329V75.9329ZM124.935 72.5149C124.935 71.6143 124.759 70.7537 124.237 70.1044C123.682 69.4132 122.88 69.1359 122.024 69.1359V71.1359C122.442 71.1359 122.596 71.2551 122.678 71.3569C122.793 71.5005 122.935 71.8294 122.935 72.5149H124.935ZM121.322 57.9429H118.358V59.9429H121.322V57.9429ZM117.358 58.9429V63.3109H119.358V58.9429H117.358ZM118.358 64.3109H121.244V62.3109H118.358V64.3109ZM121.244 64.3109C122.054 64.3109 122.824 64.0549 123.362 63.3996C123.87 62.782 124.038 61.9664 124.038 61.1269H122.038C122.038 61.7433 121.908 62.0198 121.817 62.1301C121.757 62.2028 121.63 62.3109 121.244 62.3109V64.3109ZM124.038 61.1269C124.038 60.2951 123.879 59.4869 123.396 58.8711C122.876 58.2093 122.121 57.9429 121.322 57.9429V59.9429C121.667 59.9429 121.771 60.0405 121.823 60.1067C121.911 60.2188 122.038 60.5026 122.038 61.1269H124.038ZM145.852 67.6009V66.6009H144.889L144.852 67.5624L145.852 67.6009ZM145.306 81.7969V82.7969H146.268L146.305 81.8353L145.306 81.7969ZM135.517 81.7969L134.519 81.7357L134.453 82.7969H135.517V81.7969ZM137.311 52.5469V51.5469H136.37L136.313 52.4857L137.311 52.5469ZM149.518 52.5469L150.489 52.3103L150.303 51.5469H149.518V52.5469ZM153.145 67.4449L152.173 67.6814L152.359 68.4449H153.145V67.4449ZM153.496 67.4449V68.4449H154.281L154.467 67.6814L153.496 67.4449ZM157.123 52.5469V51.5469H156.337L156.151 52.3103L157.123 52.5469ZM169.369 52.5469L170.367 52.487L170.31 51.5469H169.369V52.5469ZM171.124 81.7969V82.7969H172.185L172.122 81.737L171.124 81.7969ZM161.335 81.7969L160.335 81.8353L160.372 82.7969H161.335V81.7969ZM160.789 67.6009L161.788 67.5624L161.751 66.6009H160.789V67.6009ZM160.477 67.6009V66.6009H159.698L159.507 67.3558L160.477 67.6009ZM156.889 81.7969V82.7969H157.667L157.858 82.0419L156.889 81.7969ZM149.752 81.7969L148.783 82.0444L148.975 82.7969H149.752V81.7969ZM146.125 67.6009L147.094 67.3533L146.901 66.6009H146.125V67.6009ZM144.852 67.5624L144.306 81.7584L146.305 81.8353L146.851 67.6393L144.852 67.5624ZM145.306 80.7969H135.517V82.7969H145.306V80.7969ZM136.515 81.8581L138.309 52.6081L136.313 52.4857L134.519 81.7357L136.515 81.8581ZM137.311 53.5469H149.518V51.5469H137.311V53.5469ZM148.546 52.7834L152.173 67.6814L154.116 67.2083L150.489 52.3103L148.546 52.7834ZM153.145 68.4449H153.496V66.4449H153.145V68.4449ZM154.467 67.6814L158.094 52.7834L156.151 52.3103L152.524 67.2083L154.467 67.6814ZM157.123 53.5469H169.369V51.5469H157.123V53.5469ZM168.37 52.6068L170.125 81.8568L172.122 81.737L170.367 52.487L168.37 52.6068ZM171.124 80.7969H161.335V82.7969H171.124V80.7969ZM162.334 81.7584L161.788 67.5624L159.789 67.6393L160.335 81.8353L162.334 81.7584ZM160.789 66.6009H160.477V68.6009H160.789V66.6009ZM159.507 67.3558L155.919 81.5518L157.858 82.0419L161.446 67.8459L159.507 67.3558ZM156.889 80.7969H149.752V82.7969H156.889V80.7969ZM150.721 81.5493L147.094 67.3533L145.156 67.8484L148.783 82.0444L150.721 81.5493ZM146.125 66.6009H145.852V68.6009H146.125V66.6009ZM183.98 81.7969V82.7969H184.98V81.7969H183.98ZM174.62 81.7969H173.62V82.7969H174.62V81.7969ZM174.62 52.5469V51.5469H173.62V52.5469H174.62ZM183.98 52.5469H184.98V51.5469H183.98V52.5469ZM183.98 80.7969H174.62V82.7969H183.98V80.7969ZM175.62 81.7969V52.5469H173.62V81.7969H175.62ZM174.62 53.5469H183.98V51.5469H174.62V53.5469ZM182.98 52.5469V81.7969H184.98V52.5469H182.98ZM209.5 52.5469H210.5V51.5469H209.5V52.5469ZM209.5 60.0349V61.0349H210.5V60.0349H209.5ZM202.714 60.0349V59.0349H201.714V60.0349H202.714ZM202.714 81.7969V82.7969H203.714V81.7969H202.714ZM193.354 81.7969H192.354V82.7969H193.354V81.7969ZM193.354 60.0349H194.354V59.0349H193.354V60.0349ZM186.568 60.0349H185.568V61.0349H186.568V60.0349ZM186.568 52.5469V51.5469H185.568V52.5469H186.568ZM208.5 52.5469V60.0349H210.5V52.5469H208.5ZM209.5 59.0349H202.714V61.0349H209.5V59.0349ZM201.714 60.0349V81.7969H203.714V60.0349H201.714ZM202.714 80.7969H193.354V82.7969H202.714V80.7969ZM194.354 81.7969V60.0349H192.354V81.7969H194.354ZM193.354 59.0349H186.568V61.0349H193.354V59.0349ZM187.568 60.0349V52.5469H185.568V60.0349H187.568ZM186.568 53.5469H209.5V51.5469H186.568V53.5469ZM59.9655 121.047L59.5119 120.156L58.6128 120.613L59.0782 121.508L59.9655 121.047ZM65.0355 130.797V131.797H66.6826L65.9227 130.336L65.0355 130.797ZM54.7395 130.797L53.824 131.199L54.0866 131.797H54.7395V130.797ZM50.9175 122.1L51.833 121.698L51.5703 121.1H50.9175V122.1ZM48.8895 122.1V121.1H47.8895V122.1H48.8895ZM48.8895 130.797V131.797H49.8895V130.797H48.8895ZM39.5295 130.797H38.5295V131.797H39.5295V130.797ZM39.5295 101.547V100.547H38.5295V101.547H39.5295ZM48.8895 109.035V108.035H47.8895V109.035H48.8895ZM48.8895 114.885H47.8895V115.885H48.8895V114.885ZM53.4915 114.534L53.0811 113.622L53.0722 113.626L53.0634 113.63L53.4915 114.534ZM53.4915 109.386L53.0634 110.29L53.0722 110.294L53.0811 110.298L53.4915 109.386ZM59.0782 121.508L64.1482 131.258L65.9227 130.336L60.8527 120.586L59.0782 121.508ZM65.0355 129.797H54.7395V131.797H65.0355V129.797ZM55.655 130.395L51.833 121.698L50.002 122.502L53.824 131.199L55.655 130.395ZM50.9175 121.1H48.8895V123.1H50.9175V121.1ZM47.8895 122.1V130.797H49.8895V122.1H47.8895ZM48.8895 129.797H39.5295V131.797H48.8895V129.797ZM40.5295 130.797V101.547H38.5295V130.797H40.5295ZM39.5295 102.547H54.2715V100.547H39.5295V102.547ZM54.2715 102.547C57.4664 102.547 59.68 103.36 61.1041 104.811C62.5316 106.267 63.3335 108.534 63.3335 111.804H65.3335C65.3335 108.236 64.4583 105.375 62.5318 103.411C60.6019 101.443 57.7845 100.547 54.2715 100.547V102.547ZM63.3335 111.804C63.3335 116.292 61.951 118.914 59.5119 120.156L60.419 121.938C63.8039 120.215 65.3335 116.676 65.3335 111.804H63.3335ZM51.0345 108.035H48.8895V110.035H51.0345V108.035ZM47.8895 109.035V114.885H49.8895V109.035H47.8895ZM48.8895 115.885H51.0345V113.885H48.8895V115.885ZM51.0345 115.885C52.1992 115.885 53.2112 115.773 53.9195 115.438L53.0634 113.63C52.7837 113.763 52.1577 113.885 51.0345 113.885V115.885ZM53.9018 115.446C54.938 114.979 55.2715 113.952 55.2715 112.935H53.2715C53.2715 113.256 53.2198 113.434 53.1777 113.52C53.1457 113.586 53.1189 113.605 53.0811 113.622L53.9018 115.446ZM55.2715 112.935V110.985H53.2715V112.935H55.2715ZM55.2715 110.985C55.2715 109.967 54.938 108.94 53.9018 108.474L53.0811 110.298C53.1189 110.315 53.1457 110.334 53.1777 110.4C53.2198 110.486 53.2715 110.663 53.2715 110.985H55.2715ZM53.9195 108.482C53.2112 108.147 52.1992 108.035 51.0345 108.035V110.035C52.1577 110.035 52.7837 110.157 53.0634 110.29L53.9195 108.482ZM87.0424 112.974H88.0424V111.974H87.0424V112.974ZM87.0424 119.76V120.76H88.0424V119.76H87.0424ZM77.6824 119.76V118.76H76.6824V119.76H77.6824ZM77.6824 123.309H76.6824V124.309H77.6824V123.309ZM89.1484 123.309H90.1484V122.309H89.1484V123.309ZM89.1484 130.797V131.797H90.1484V130.797H89.1484ZM68.3224 130.797H67.3224V131.797H68.3224V130.797ZM68.3224 101.547V100.547H67.3224V101.547H68.3224ZM88.9144 101.547L89.9024 101.701L90.0828 100.547H88.9144V101.547ZM87.7444 109.035V110.035H88.6003L88.7324 109.189L87.7444 109.035ZM77.6824 109.035V108.035H76.6824V109.035H77.6824ZM77.6824 112.974H76.6824V113.974H77.6824V112.974ZM86.0424 112.974V119.76H88.0424V112.974H86.0424ZM87.0424 118.76H77.6824V120.76H87.0424V118.76ZM76.6824 119.76V123.309H78.6824V119.76H76.6824ZM77.6824 124.309H89.1484V122.309H77.6824V124.309ZM88.1484 123.309V130.797H90.1484V123.309H88.1484ZM89.1484 129.797H68.3224V131.797H89.1484V129.797ZM69.3224 130.797V101.547H67.3224V130.797H69.3224ZM68.3224 102.547H88.9144V100.547H68.3224V102.547ZM87.9264 101.392L86.7564 108.88L88.7324 109.189L89.9024 101.701L87.9264 101.392ZM87.7444 108.035H77.6824V110.035H87.7444V108.035ZM76.6824 109.035V112.974H78.6824V109.035H76.6824ZM77.6824 113.974H87.0424V111.974H77.6824V113.974ZM108.794 131.499H107.794V132.333L108.615 132.483L108.794 131.499ZM108.794 129.705H109.794V128.393L108.53 128.741L108.794 129.705ZM104.816 130.797V131.797H104.951L105.081 131.761L104.816 130.797ZM98.4594 129.861L98.0955 130.792L98.1042 130.796L98.113 130.799L98.4594 129.861ZM94.4424 127.053L93.6583 127.674L93.6655 127.683L93.6728 127.691L94.4424 127.053ZM92.3364 122.49L91.3615 122.713L91.3622 122.716L92.3364 122.49ZM92.4144 109.308L93.386 109.544L93.3868 109.541L92.4144 109.308ZM94.7154 104.511L95.4757 105.16L95.4757 105.16L94.7154 104.511ZM98.9664 101.742L98.646 100.795L98.646 100.795L98.9664 101.742ZM111.992 101.742L112.313 100.795L112.313 100.795L111.992 101.742ZM116.282 104.55L115.523 105.201L115.53 105.208L116.282 104.55ZM118.622 109.347L117.65 109.58L117.651 109.583L118.622 109.347ZM118.7 121.593L119.667 121.851L119.668 121.847L118.7 121.593ZM116.828 125.805L115.996 125.25L115.404 126.139L116.33 126.672L116.828 125.805ZM120.221 127.755L121.131 128.17L121.509 127.342L120.72 126.888L120.221 127.755ZM117.764 133.137L117.585 134.121L118.351 134.26L118.674 133.552L117.764 133.137ZM101.774 123.504H100.774V124.504H101.774V123.504ZM108.443 123.075L108.907 123.961L108.915 123.957L108.922 123.953L108.443 123.075ZM109.301 108.84H110.301V107.84H109.301V108.84ZM102.632 109.308L103.08 110.202L103.096 110.194L103.111 110.186L102.632 109.308ZM109.794 131.499V129.705H107.794V131.499H109.794ZM108.53 128.741L104.552 129.833L105.081 131.761L109.059 130.669L108.53 128.741ZM104.816 129.797C102.341 129.797 100.349 129.493 98.8057 128.923L98.113 130.799C99.9495 131.477 102.195 131.797 104.816 131.797V129.797ZM98.8232 128.929C97.297 128.333 96.1047 127.49 95.2119 126.414L93.6728 127.691C94.808 129.06 96.2937 130.089 98.0955 130.792L98.8232 128.929ZM95.2264 126.432C94.3435 125.317 93.6983 123.936 93.3105 122.264L91.3622 122.716C91.8064 124.631 92.5652 126.293 93.6583 127.674L95.2264 126.432ZM93.3112 122.267C92.9157 120.537 92.7124 118.521 92.7124 116.211H90.7124C90.7124 118.633 90.9251 120.803 91.3615 122.713L93.3112 122.267ZM92.7124 116.211C92.7124 113.587 92.9421 111.369 93.386 109.544L91.4427 109.072C90.9506 111.095 90.7124 113.479 90.7124 116.211H92.7124ZM93.3868 109.541C93.826 107.711 94.5325 106.265 95.4757 105.16L93.955 103.861C92.7662 105.253 91.9388 107.005 91.442 109.075L93.3868 109.541ZM95.4757 105.16C96.4092 104.067 97.6657 103.237 99.2868 102.689L98.646 100.795C96.731 101.442 95.1535 102.458 93.955 103.861L95.4757 105.16ZM99.2868 102.689C100.921 102.137 102.976 101.845 105.479 101.845V99.8449C102.835 99.8449 100.548 100.151 98.646 100.795L99.2868 102.689ZM105.479 101.845C107.983 101.845 110.038 102.137 111.672 102.689L112.313 100.795C110.411 100.151 108.124 99.8449 105.479 99.8449V101.845ZM111.672 102.689C113.289 103.236 114.561 104.078 115.523 105.201L117.042 103.899C115.82 102.474 114.231 101.444 112.313 100.795L111.672 102.689ZM115.53 105.208C116.495 106.312 117.212 107.755 117.65 109.58L119.595 109.114C119.097 107.039 118.254 105.284 117.035 103.891L115.53 105.208ZM117.651 109.583C118.095 111.409 118.324 113.613 118.324 116.211H120.324C120.324 113.504 120.086 111.133 119.594 109.111L117.651 109.583ZM118.324 116.211C118.324 118.145 118.123 119.852 117.733 121.339L119.668 121.847C120.11 120.162 120.324 118.28 120.324 116.211H118.324ZM117.734 121.335C117.344 122.798 116.763 124.1 115.996 125.25L117.66 126.36C118.558 125.014 119.225 123.508 119.667 121.851L117.734 121.335ZM116.33 126.672L119.723 128.622L120.72 126.888L117.327 124.938L116.33 126.672ZM119.312 127.34L116.855 132.722L118.674 133.552L121.131 128.17L119.312 127.34ZM117.944 132.153L108.974 130.515L108.615 132.483L117.585 134.121L117.944 132.153ZM100.774 111.336V123.504H102.774V111.336H100.774ZM101.774 124.504H105.674V122.504H101.774V124.504ZM105.674 124.504C106.995 124.504 108.131 124.367 108.907 123.961L107.979 122.189C107.664 122.354 106.954 122.504 105.674 122.504V124.504ZM108.922 123.953C109.985 123.373 110.301 122.194 110.301 121.008H108.301C108.301 121.954 108.045 122.153 107.965 122.197L108.922 123.953ZM110.301 121.008V108.84H108.301V121.008H110.301ZM109.301 107.84H105.362V109.84H109.301V107.84ZM105.362 107.84C104.074 107.84 102.954 107.994 102.154 108.43L103.111 110.186C103.455 109.998 104.155 109.84 105.362 109.84V107.84ZM102.185 108.413C101.087 108.963 100.774 110.16 100.774 111.336H102.774C102.774 110.379 103.034 110.225 103.08 110.202L102.185 108.413ZM121.893 101.547V100.547H120.893V101.547H121.893ZM131.253 101.547H132.253V100.547H131.253V101.547ZM131.253 123.504H130.253V124.504H131.253V123.504ZM136.986 123.036L136.409 122.219L136.397 122.227L136.386 122.236L136.986 123.036ZM137.649 101.547V100.547H136.649V101.547H137.649ZM147.009 101.547H148.009V100.547H147.009V101.547ZM146.502 124.284L145.521 124.091L145.519 124.098L145.518 124.105L146.502 124.284ZM144.63 128.496L143.871 127.845L143.869 127.847L144.63 128.496ZM140.808 130.797L140.533 129.835L140.533 129.835L140.808 130.797ZM124.233 128.496L123.472 129.145L123.481 129.156L124.233 128.496ZM122.361 124.323L121.377 124.499L121.378 124.508L121.38 124.516L122.361 124.323ZM121.893 102.547H131.253V100.547H121.893V102.547ZM130.253 101.547V123.504H132.253V101.547H130.253ZM131.253 124.504H134.568V122.504H131.253V124.504ZM134.568 124.504C135.204 124.504 135.773 124.463 136.259 124.369C136.734 124.277 137.207 124.12 137.586 123.836L136.386 122.236C136.349 122.263 136.211 122.341 135.879 122.405C135.56 122.467 135.128 122.504 134.568 122.504V124.504ZM137.563 123.853C138.437 123.236 138.649 122.092 138.649 121.008H136.649C136.649 122.003 136.419 122.212 136.409 122.219L137.563 123.853ZM138.649 121.008V101.547H136.649V121.008H138.649ZM137.649 102.547H147.009V100.547H137.649V102.547ZM146.009 101.547V117.966H148.009V101.547H146.009ZM146.009 117.966C146.009 120.422 145.842 122.459 145.521 124.091L147.483 124.477C147.838 122.677 148.009 120.502 148.009 117.966H146.009ZM145.518 124.105C145.231 125.684 144.669 126.914 143.871 127.845L145.389 129.147C146.463 127.894 147.149 126.316 147.486 124.463L145.518 124.105ZM143.869 127.847C143.112 128.733 142.023 129.41 140.533 129.835L141.083 131.758C142.869 131.248 144.328 130.39 145.39 129.145L143.869 127.847ZM140.533 129.835C139.018 130.268 137.001 130.499 134.451 130.499V132.499C137.1 132.499 139.321 132.262 141.083 131.758L140.533 129.835ZM134.451 130.499C131.9 130.499 129.883 130.268 128.369 129.835L127.819 131.758C129.58 132.262 131.801 132.499 134.451 132.499V130.499ZM128.369 129.835C126.878 129.409 125.77 128.731 124.984 127.836L123.481 129.156C124.568 130.393 126.034 131.248 127.819 131.758L128.369 129.835ZM124.993 127.847C124.219 126.94 123.655 125.718 123.342 124.13L121.38 124.516C121.743 126.359 122.426 127.92 123.472 129.145L124.993 127.847ZM123.345 124.147C123.047 122.481 122.893 120.425 122.893 117.966H120.893C120.893 120.499 121.051 122.681 121.377 124.499L123.345 124.147ZM122.893 117.966V101.547H120.893V117.966H122.893ZM169.689 112.974H170.689V111.974H169.689V112.974ZM169.689 119.76V120.76H170.689V119.76H169.689ZM160.329 119.76V118.76H159.329V119.76H160.329ZM160.329 123.309H159.329V124.309H160.329V123.309ZM171.795 123.309H172.795V122.309H171.795V123.309ZM171.795 130.797V131.797H172.795V130.797H171.795ZM150.969 130.797H149.969V131.797H150.969V130.797ZM150.969 101.547V100.547H149.969V101.547H150.969ZM171.561 101.547L172.549 101.701L172.729 100.547H171.561V101.547ZM170.391 109.035V110.035H171.247L171.379 109.189L170.391 109.035ZM160.329 109.035V108.035H159.329V109.035H160.329ZM160.329 112.974H159.329V113.974H160.329V112.974ZM168.689 112.974V119.76H170.689V112.974H168.689ZM169.689 118.76H160.329V120.76H169.689V118.76ZM159.329 119.76V123.309H161.329V119.76H159.329ZM160.329 124.309H171.795V122.309H160.329V124.309ZM170.795 123.309V130.797H172.795V123.309H170.795ZM171.795 129.797H150.969V131.797H171.795V129.797ZM151.969 130.797V101.547H149.969V130.797H151.969ZM150.969 102.547H171.561V100.547H150.969V102.547ZM170.573 101.392L169.403 108.88L171.379 109.189L172.549 101.701L170.573 101.392ZM170.391 108.035H160.329V110.035H170.391V108.035ZM159.329 109.035V112.974H161.329V109.035H159.329ZM160.329 113.974H169.689V111.974H160.329V113.974ZM174.593 130.29L173.607 130.121L173.446 131.058L174.374 131.266L174.593 130.29ZM175.919 122.568L176.157 121.597L175.115 121.341L174.933 122.399L175.919 122.568ZM186.761 123.582L186.79 124.581L186.804 124.581L186.818 124.58L186.761 123.582ZM189.179 123.348L189.325 124.337L190.179 124.211V123.348H189.179ZM189.179 121.008H190.179V120.088L189.262 120.011L189.179 121.008ZM184.967 120.657L184.871 121.652L184.884 121.653L184.967 120.657ZM180.209 119.721L179.881 120.666L179.881 120.666L180.209 119.721ZM177.128 117.927L176.409 118.622L176.421 118.634L176.433 118.646L177.128 117.927ZM175.49 115.158L174.528 115.433L174.532 115.446L174.537 115.46L175.49 115.158ZM175.646 106.344L176.6 106.643L176.602 106.638L175.646 106.344ZM177.635 103.107L178.298 103.855L178.304 103.85L178.31 103.845L177.635 103.107ZM181.145 101.352L180.919 100.378L180.915 100.379L181.145 101.352ZM197.681 102.015L198.669 102.169L198.812 101.251L197.907 101.041L197.681 102.015ZM196.511 109.503L196.352 110.49L197.344 110.65L197.499 109.657L196.511 109.503ZM185.084 109.035L184.957 108.043L184.084 108.154V109.035H185.084ZM185.084 111.336H184.084V112.247L184.991 112.332L185.084 111.336ZM188.438 111.648L188.539 110.653L188.53 110.652L188.438 111.648ZM193.586 112.701L193.248 113.642L193.256 113.645L193.264 113.648L193.586 112.701ZM196.901 114.573L196.217 115.302L196.223 115.308L196.228 115.313L196.901 114.573ZM198.695 117.342L197.742 117.644L197.745 117.655L197.749 117.665L198.695 117.342ZM198.461 126L197.528 125.641L197.528 125.641L198.461 126ZM196.589 129.081L197.28 129.804L197.283 129.801L196.589 129.081ZM194.366 130.446L194.699 131.389L194.711 131.385L194.723 131.38L194.366 130.446ZM191.558 131.148L191.714 132.136L191.714 132.136L191.558 131.148ZM188.555 131.421L188.529 130.421L188.516 130.422L188.502 130.422L188.555 131.421ZM180.014 131.187L180.124 130.193L180.014 131.187ZM175.578 130.459L176.904 122.737L174.933 122.399L173.607 130.121L175.578 130.459ZM175.68 123.539C178.598 124.255 181.267 124.621 183.68 124.621V122.621C181.464 122.621 178.959 122.284 176.157 121.597L175.68 123.539ZM183.68 124.621C184.857 124.621 185.894 124.608 186.79 124.581L186.731 122.582C185.86 122.608 184.843 122.621 183.68 122.621V124.621ZM186.818 124.58C187.75 124.527 188.587 124.447 189.325 124.337L189.032 122.359C188.367 122.457 187.592 122.533 186.704 122.584L186.818 124.58ZM190.179 123.348V121.008H188.179V123.348H190.179ZM189.262 120.011L185.05 119.66L184.884 121.653L189.096 122.004L189.262 120.011ZM185.062 119.661C183.214 119.484 181.712 119.184 180.537 118.776L179.881 120.666C181.254 121.142 182.924 121.466 184.871 121.652L185.062 119.661ZM180.537 118.776C179.367 118.37 178.476 117.839 177.823 117.208L176.433 118.646C177.34 119.522 178.502 120.187 179.881 120.666L180.537 118.776ZM177.847 117.232C177.204 116.566 176.736 115.779 176.443 114.856L174.537 115.46C174.92 116.669 175.544 117.727 176.409 118.622L177.847 117.232ZM176.451 114.883C176.171 113.902 176.022 112.724 176.022 111.336H174.022C174.022 112.86 174.185 114.23 174.528 115.433L176.451 114.883ZM176.022 111.336C176.022 109.395 176.225 107.84 176.6 106.643L174.692 106.045C174.235 107.5 174.022 109.273 174.022 111.336H176.022ZM176.602 106.638C176.973 105.432 177.547 104.521 178.298 103.855L176.972 102.358C175.903 103.305 175.151 104.551 174.69 106.05L176.602 106.638ZM178.31 103.845C179.072 103.148 180.079 102.631 181.375 102.325L180.915 100.379C179.351 100.748 178.018 101.402 176.96 102.369L178.31 103.845ZM181.371 102.326C182.73 102.01 184.418 101.845 186.449 101.845V99.8449C184.32 99.8449 182.471 100.017 180.919 100.378L181.371 102.326ZM186.449 101.845C190.521 101.845 194.188 102.229 197.454 102.989L197.907 101.041C194.466 100.241 190.644 99.8449 186.449 99.8449V101.845ZM196.693 101.86L195.523 109.348L197.499 109.657L198.669 102.169L196.693 101.86ZM196.67 108.516C193.736 108.044 191.349 107.801 189.53 107.801V109.801C191.195 109.801 193.462 110.026 196.352 110.49L196.67 108.516ZM189.53 107.801C187.761 107.801 186.234 107.88 184.957 108.043L185.21 110.027C186.377 109.878 187.814 109.801 189.53 109.801V107.801ZM184.084 109.035V111.336H186.084V109.035H184.084ZM184.991 112.332L188.345 112.644L188.53 110.652L185.176 110.34L184.991 112.332ZM188.337 112.643C190.34 112.846 191.971 113.184 193.248 113.642L193.923 111.76C192.445 111.23 190.643 110.866 188.539 110.653L188.337 112.643ZM193.264 113.648C194.543 114.082 195.513 114.643 196.217 115.302L197.585 113.843C196.624 112.943 195.384 112.256 193.907 111.754L193.264 113.648ZM196.228 115.313C196.961 115.979 197.459 116.753 197.742 117.644L199.648 117.04C199.255 115.799 198.557 114.727 197.574 113.833L196.228 115.313ZM197.749 117.665C198.07 118.607 198.241 119.716 198.241 121.008H200.241C200.241 119.544 200.048 118.209 199.641 117.019L197.749 117.665ZM198.241 121.008C198.241 122.903 197.991 124.437 197.528 125.641L199.394 126.359C199.971 124.859 200.241 123.065 200.241 121.008H198.241ZM197.528 125.641C197.039 126.911 196.482 127.794 195.895 128.361L197.283 129.801C198.151 128.963 198.843 127.793 199.394 126.359L197.528 125.641ZM195.898 128.358C195.409 128.826 194.786 129.215 194.009 129.512L194.723 131.38C195.714 131.001 196.573 130.48 197.28 129.804L195.898 128.358ZM194.033 129.503C193.21 129.793 192.334 130.013 191.402 130.16L191.714 132.136C192.758 131.971 193.754 131.722 194.699 131.389L194.033 129.503ZM191.402 130.16C190.458 130.309 189.5 130.396 188.529 130.421L188.58 132.421C189.638 132.393 190.682 132.299 191.714 132.136L191.402 130.16ZM188.502 130.422C187.528 130.474 186.649 130.499 185.864 130.499V132.499C186.691 132.499 187.606 132.472 188.607 132.419L188.502 130.422ZM185.864 130.499C183.87 130.499 181.957 130.397 180.124 130.193L179.903 132.181C181.815 132.393 183.802 132.499 185.864 132.499V130.499ZM180.124 130.193C178.287 129.989 176.516 129.696 174.811 129.314L174.374 131.266C176.154 131.664 177.997 131.969 179.903 132.181L180.124 130.193ZM223.592 101.547H224.592V100.547H223.592V101.547ZM223.592 109.035V110.035H224.592V109.035H223.592ZM216.806 109.035V108.035H215.806V109.035H216.806ZM216.806 130.797V131.797H217.806V130.797H216.806ZM207.446 130.797H206.446V131.797H207.446V130.797ZM207.446 109.035H208.446V108.035H207.446V109.035ZM200.66 109.035H199.66V110.035H200.66V109.035ZM200.66 101.547V100.547H199.66V101.547H200.66ZM222.592 101.547V109.035H224.592V101.547H222.592ZM223.592 108.035H216.806V110.035H223.592V108.035ZM215.806 109.035V130.797H217.806V109.035H215.806ZM216.806 129.797H207.446V131.797H216.806V129.797ZM208.446 130.797V109.035H206.446V130.797H208.446ZM207.446 108.035H200.66V110.035H207.446V108.035ZM201.66 109.035V101.547H199.66V109.035H201.66ZM200.66 102.547H223.592V100.547H200.66V102.547Z" fill="white"/>
<path d="M6 6V60.4688H15.7351V15.7073H67.3854V6H6Z" stroke="white" stroke-width="2"/>
<path d="M255 174.594V120.125H245.265V164.886H193.615V174.594H255Z" stroke="white" stroke-width="2"/>
</g>
<defs>
<filter id="filter0_d_9_6563" x="0" y="0" width="259" height="178.594" filterUnits="userSpaceOnUse" color-interpolation-filters="sRGB">
<feFlood flood-opacity="0" result="BackgroundImageFix"/>
<feColorMatrix in="SourceAlpha" type="matrix" values="0 0 0 0 0 0 0 0 0 0 0 0 0 0 0 0 0 0 127 0" result="hardAlpha"/>
<feOffset/>
<feGaussianBlur stdDeviation="2"/>
<feComposite in2="hardAlpha" operator="out"/>
<feColorMatrix type="matrix" values="0 0 0 0 0.701961 0 0 0 0 0.466667 0 0 0 0 1 0 0 0 1 0"/>
<feBlend mode="normal" in2="BackgroundImageFix" result="effect1_dropShadow_9_6563"/>
<feBlend mode="normal" in="SourceGraphic" in2="effect1_dropShadow_9_6563" result="shape"/>
</filter>
<filter id="filter1_d_9_6563" x="1" y="1" width="259" height="178.594" filterUnits="userSpaceOnUse" color-interpolation-filters="sRGB">
<feFlood flood-opacity="0" result="BackgroundImageFix"/>
<feColorMatrix in="SourceAlpha" type="matrix" values="0 0 0 0 0 0 0 0 0 0 0 0 0 0 0 0 0 0 127 0" result="hardAlpha"/>
<feOffset/>
<feGaussianBlur stdDeviation="2"/>
<feComposite in2="hardAlpha" operator="out"/>
<feColorMatrix type="matrix" values="0 0 0 0 0.701961 0 0 0 0 0.466667 0 0 0 0 1 0 0 0 1 0"/>
<feBlend mode="normal" in2="BackgroundImageFix" result="effect1_dropShadow_9_6563"/>
<feBlend mode="normal" in="SourceGraphic" in2="effect1_dropShadow_9_6563" result="shape"/>
</filter>
</defs>
</svg>
