<svg width="98" height="153" viewBox="0 0 98 153" fill="none" xmlns="http://www.w3.org/2000/svg">
<g opacity="0.2">
<path d="M46.2413 152.974C69.6843 152.974 88.6886 150.491 88.6886 147.427C88.6886 144.364 69.6843 141.881 46.2413 141.881C22.7983 141.881 3.79401 144.364 3.79401 147.427C3.79401 150.491 22.7983 152.974 46.2413 152.974Z" fill="#371A45"/>
</g>
<path d="M67.188 68.5484H35.042C30.098 68.5484 26.0901 72.5563 26.0901 77.5003V108.835C26.0901 113.779 30.098 117.787 35.042 117.787H67.188C72.1319 117.787 76.1398 113.779 76.1398 108.835V77.5003C76.1398 72.5563 72.1319 68.5484 67.188 68.5484Z" fill="white"/>
<path d="M67.1875 118.683H35.0419C29.6119 118.683 25.194 114.265 25.194 108.835V77.5009C25.194 72.0704 29.6119 67.6525 35.0419 67.6525H67.1875C72.618 67.6525 77.0354 72.0704 77.0354 77.5009V108.835C77.0354 114.265 72.618 118.683 67.1875 118.683ZM35.0419 69.4457C30.6 69.4457 26.9862 73.059 26.9862 77.5019V108.836C26.9862 113.278 30.5995 116.892 35.0419 116.892H67.1875C71.6299 116.892 75.2437 113.279 75.2437 108.836V77.5009C75.2437 73.0585 71.6304 69.4447 67.1875 69.4447L35.0419 69.4457Z" fill="#371A45"/>
<path d="M82.2285 100.59C82.2285 100.59 84.4369 107.479 77.177 108.957C75.869 109.226 74.6188 109.116 73.5011 108.708C68.6833 106.931 66.353 99.5035 72.6821 92.0707C73.0159 91.6766 73.3744 91.2844 73.7574 90.8903C73.7746 90.8754 73.7907 90.8593 73.8056 90.8421C73.8056 90.8421 73.4683 90.2866 72.3945 89.5023C71.72 89.0119 70.7526 88.4294 69.3973 87.8402L66.7957 79.8769L66.7909 79.8634L66.3299 78.4518L63.5163 69.8545C63.5163 69.8545 66.0943 70.7304 69.3896 72.2225C70.4784 72.7153 71.6477 73.2775 72.8281 73.8981C73.1528 74.0681 73.4799 74.245 73.807 74.4242C73.807 74.4242 74.5215 74.8096 75.6416 75.5043C81.368 79.0695 97.6448 90.7766 82.2285 100.59Z" fill="white"/>
<g opacity="0.2">
<path d="M72.8267 73.8971C71.3572 75.6758 69.117 77.2324 66.3285 78.4508L63.5149 69.8535C63.5149 69.8535 66.0929 70.7294 69.3882 72.2214C70.477 72.7143 71.6444 73.2765 72.8267 73.8971Z" fill="#371A45"/>
</g>
<path d="M44.4337 68.5474L35.8855 77.9068C33.3273 76.6297 31.3178 75.0461 30.0676 73.2654C34.4288 70.6069 39.3454 68.9922 44.4337 68.5474Z" fill="#D8D8D8"/>
<path d="M68.9893 77.0846C64.7627 79.6293 58.5796 81.2331 51.6892 81.2331C44.2833 81.2331 37.6931 79.3807 33.4728 76.5002C33.5961 76.2381 33.719 75.9779 33.8471 75.7158C33.8471 75.7158 31.4903 62.1678 43.2822 57.5621C46.0489 56.9984 48.8657 56.7176 51.6892 56.7243C54.7557 56.7243 57.6815 57.0427 60.3583 57.6204C70.4992 62.2733 68.3422 75.7158 68.3422 75.7158C68.5639 76.173 68.7811 76.6298 68.9893 77.0846Z" fill="#D8D8D8"/>
<g opacity="0.2">
<path d="M68.6193 81.3598L69.3959 87.8378C72.9129 89.365 73.8061 90.8397 73.8061 90.8397C73.7897 90.8566 73.7729 90.8734 73.7579 90.8879C74.7012 90.1098 75.9669 89.22 77.2956 88.7199C77.2956 88.7199 74.7904 87.4191 74.0287 86.4127C71.5798 83.1934 71.5287 82.0319 70.5917 80.7065C70.2886 80.2825 68.2753 80.6477 68.6193 81.3598Z" fill="#371A45"/>
</g>
<g opacity="0.2">
<path d="M77.1775 108.958C84.3516 107.496 82.279 100.751 82.2309 100.591C82.2309 100.591 80.985 107.267 74.4993 105.436C70.3522 104.263 70.7029 98.4172 71.4945 94.3572C71.4248 94.1966 71.367 94.0311 71.3215 93.862H71.3191C65.5923 102.376 70.6808 110.283 77.1775 108.958Z" fill="#371A45"/>
</g>
<path d="M75.778 109.999C73.0035 109.999 70.4727 108.494 69.0659 105.901C67.1822 102.432 67.1711 96.6991 72.5906 90.8214C72.1184 90.382 71.2238 89.6916 69.6754 88.9545C69.5676 88.9049 69.4708 88.8343 69.3906 88.7469C69.3103 88.6596 69.2482 88.5571 69.2078 88.4456C69.1675 88.334 69.1497 88.2155 69.1555 88.097C69.1612 87.9786 69.1905 87.8624 69.2415 87.7553C69.2926 87.6482 69.3644 87.5523 69.4527 87.4731C69.5411 87.394 69.6443 87.3332 69.7564 87.2943C69.8685 87.2553 69.9872 87.239 70.1056 87.2463C70.224 87.2536 70.3398 87.2843 70.4462 87.3367C73.5667 88.8225 74.4801 90.2245 74.5741 90.3796L74.9349 90.9761L74.4459 91.4723C69.1363 96.8682 68.9989 102.023 70.6399 105.048C71.9455 107.457 74.3818 108.617 76.9964 108.083C78.9081 107.693 80.2465 106.865 80.9754 105.62C82.2039 103.522 81.383 100.892 81.3748 100.866L81.1638 100.208L81.7467 99.8369C85.8702 97.2117 87.9019 94.2709 87.7863 91.096C87.4871 82.9029 73.5223 75.2914 73.3812 75.2153C68.4333 72.485 63.2774 70.7241 63.2258 70.7068C63.0029 70.6289 62.8197 70.4661 62.7161 70.2538C62.6125 70.0415 62.597 69.7969 62.6728 69.5732C62.7486 69.3495 62.9097 69.1648 63.121 69.0593C63.3322 68.9537 63.5767 68.9358 63.8011 69.0095C64.0174 69.0827 69.1546 70.8359 74.2392 73.6418C74.8429 73.9665 89.2383 81.8122 89.577 91.0286C89.7129 94.7344 87.5849 98.0851 83.2494 100.996C83.4782 102.124 83.7312 104.464 82.5219 106.526C81.5251 108.228 79.7864 109.343 77.3544 109.839C76.8356 109.945 76.3075 109.999 75.778 109.999Z" fill="#371A45"/>
<path d="M82.3634 101.304C81.0626 101.789 79.6823 102.115 78.2861 102.091C78.7833 101.744 79.479 101.286 79.9839 100.946C80.5322 100.582 81.0973 100.209 81.6542 99.8759L82.3634 101.304Z" fill="#371A45"/>
<path d="M87.0746 96.887C86.9863 96.8868 86.8989 96.8692 86.8174 96.8352C86.7359 96.8012 86.6619 96.7514 86.5997 96.6888C86.5374 96.6261 86.4881 96.5518 86.4546 96.4701C86.4211 96.3884 86.4041 96.3009 86.4045 96.2125C86.4083 94.6338 84.9765 92.9398 82.757 91.8982C80.0884 90.6456 76.0367 90.3108 72.6676 93.1248C72.6002 93.1836 72.5217 93.2282 72.4368 93.2562C72.3519 93.2842 72.2622 93.295 72.1731 93.2879C72.0839 93.2808 71.9971 93.256 71.9177 93.2149C71.8382 93.1739 71.7678 93.1174 71.7105 93.0487C71.6532 92.9801 71.6101 92.9007 71.5839 92.8152C71.5576 92.7298 71.5487 92.6399 71.5576 92.5509C71.5665 92.462 71.5931 92.3757 71.6358 92.2971C71.6785 92.2185 71.7364 92.1493 71.8062 92.0934C75.6604 88.8746 80.2855 89.2543 83.3279 90.6818C86.0186 91.9445 87.7535 94.1168 87.7482 96.2159C87.7473 96.394 87.6759 96.5646 87.5498 96.6903C87.4236 96.8161 87.2528 96.8868 87.0746 96.887Z" fill="#371A45"/>
<path d="M73.1051 90.211C74.4411 89.5365 75.8334 88.9348 77.2965 88.6385C76.0815 89.4093 75.0418 90.4167 74.086 91.4689L73.1061 90.211H73.1051Z" fill="#371A45"/>
<path d="M50.4144 117.332C50.2757 119.57 50.1861 121.806 50.1278 123.985C50.1143 124.536 50.1008 125.085 50.0897 125.627C49.9037 135.188 50.2646 143.344 49.5501 145.405C48.5731 148.21 46.0375 148.454 46.0375 148.454H37.3655C37.3655 148.454 31.3718 148.754 29.7781 147.289C28.1843 145.823 28.3419 143.742 29.5044 142.302C30.4993 141.066 32.2823 140.546 32.2823 140.546C32.2823 140.546 31.0779 131.626 29.845 119.751C29.7968 119.269 29.7443 118.784 29.6952 118.293C29.3189 114.623 28.947 110.708 28.6088 106.707L50.4144 117.332Z" fill="white"/>
<g opacity="0.2">
<path d="M50.4145 117.333C50.2757 119.571 50.1861 121.806 50.1278 123.986C50.1143 124.537 50.1008 125.085 50.0898 125.627C40.2514 126.206 33.6429 122.737 29.846 119.75C29.7979 119.268 29.7453 118.782 29.6962 118.291C29.3199 114.622 28.948 110.707 28.6098 106.706L50.4145 117.333Z" fill="#371A45"/>
</g>
<g opacity="0.2">
<path d="M29.778 147.289C31.3679 148.751 37.3636 148.453 37.3636 148.453H46.0355C46.0355 148.453 48.5726 148.208 49.5491 145.404C49.6715 145.052 49.763 144.524 49.8305 143.838C48.7195 144.699 47.5936 144.807 47.5936 144.807H37.7885C37.7885 144.807 31.0138 145.145 29.2129 143.489C29.1185 143.403 29.0286 143.313 28.9436 143.217C28.3491 144.539 28.5008 146.114 29.778 147.289Z" fill="#371A45"/>
</g>
<path d="M35.9713 149.383C33.9271 149.383 30.5166 149.186 29.1725 147.949C27.3856 146.306 27.2319 143.695 28.8068 141.741C29.5391 140.833 30.599 140.262 31.3019 139.959C30.8683 136.652 29.026 122.256 27.7156 106.784C27.6956 106.547 27.7705 106.312 27.9238 106.13C28.0771 105.948 28.2963 105.835 28.5332 105.815C28.77 105.795 29.0051 105.87 29.1867 106.023C29.3683 106.177 29.4815 106.396 29.5015 106.633C30.984 124.139 33.15 140.266 33.1717 140.427C33.2004 140.64 33.1519 140.855 33.0349 141.035C32.9179 141.215 32.7403 141.347 32.5343 141.407C32.5213 141.411 31.0042 141.87 30.202 142.865C29.3734 143.893 29.1089 145.456 30.3851 146.63C31.2913 147.463 34.9851 147.674 37.3193 147.56C37.3338 147.56 37.3487 147.56 37.3636 147.56H45.9807C46.2394 147.521 47.982 147.185 48.7032 145.112C49.1286 143.889 49.1291 139.606 49.13 134.648C49.13 129.673 49.13 123.481 49.5207 117.277C49.5356 117.04 49.6441 116.818 49.8224 116.661C50.0007 116.504 50.2341 116.424 50.4713 116.439C50.7085 116.454 50.9301 116.562 51.0873 116.741C51.2445 116.919 51.3245 117.152 51.3096 117.389C50.9242 123.537 50.9242 129.698 50.9242 134.648C50.9242 140.395 50.9242 144.192 50.3981 145.7C49.2461 149.011 46.2505 149.335 46.1237 149.348C46.0953 149.35 46.0664 149.352 46.038 149.352H37.3853C37.1194 149.364 36.6121 149.383 35.9713 149.383Z" fill="#371A45"/>
<path d="M41.6851 132.209C38.1455 132.209 34.0562 131.764 30.5441 130.212C30.3342 130.112 30.1717 129.934 30.091 129.715C30.0103 129.497 30.0177 129.256 30.1116 129.043C30.2055 128.83 30.3786 128.662 30.5942 128.575C30.8098 128.487 31.051 128.487 31.2667 128.574C38.8205 131.911 49.7404 129.672 49.8503 129.648C49.9654 129.624 50.0842 129.623 50.1999 129.644C50.3156 129.666 50.4259 129.71 50.5244 129.775C50.623 129.839 50.7079 129.922 50.7743 130.019C50.8408 130.117 50.8874 130.226 50.9116 130.341C50.9358 130.456 50.9371 130.575 50.9154 130.691C50.8936 130.806 50.8494 130.917 50.785 131.015C50.7207 131.114 50.6376 131.199 50.5404 131.265C50.4433 131.331 50.334 131.378 50.2188 131.402C49.9543 131.455 46.2837 132.209 41.6851 132.209Z" fill="#371A45"/>
<path d="M32.0737 139.677C34.4291 139.286 36.7431 139.479 39.0517 139.862C39.1639 139.882 39.2643 139.943 39.3326 140.035C39.401 140.126 39.4322 140.239 39.42 140.352C39.4077 140.466 39.3529 140.57 39.2667 140.644C39.1804 140.719 39.0692 140.757 38.9554 140.753C36.7999 140.68 34.5341 140.79 32.4943 141.419C31.2706 141.756 30.8298 139.939 32.0742 139.677H32.0737Z" fill="#371A45"/>
<path d="M51.775 117.333C51.9142 119.57 52.0038 121.806 52.064 123.985C52.077 124.537 52.0905 125.085 52.1021 125.627C52.2881 135.188 51.9272 143.345 52.6417 145.405C53.6182 148.21 56.1543 148.454 56.1543 148.454H64.8263C64.8263 148.454 70.8186 148.755 72.4113 147.289C74.0041 145.824 73.8475 143.743 72.6845 142.303C71.6901 141.066 69.9071 140.546 69.9071 140.546C69.9071 140.546 71.1115 131.626 72.3444 119.752C72.3925 119.27 72.4451 118.784 72.4942 118.293C72.8705 114.624 73.2424 110.709 73.5806 106.708L51.775 117.333Z" fill="white"/>
<g opacity="0.2">
<path d="M51.775 117.333C51.9142 119.571 52.0038 121.806 52.064 123.986C52.077 124.537 52.0905 125.085 52.1021 125.627C61.9404 126.206 68.5485 122.737 72.3458 119.75C72.394 119.268 72.4465 118.782 72.4956 118.291C72.8719 114.622 73.2438 110.707 73.582 106.706L51.775 117.333Z" fill="#371A45"/>
</g>
<g opacity="0.2">
<path d="M72.4118 147.289C70.822 148.751 64.8268 148.453 64.8268 148.453H56.1548C56.1548 148.453 53.6178 148.208 52.6412 145.404C52.5184 145.052 52.4273 144.524 52.3599 143.838C53.4708 144.699 54.5963 144.807 54.5963 144.807H64.4014C64.4014 144.807 71.1766 145.145 72.977 143.489C73.0714 143.403 73.1613 143.313 73.2463 143.217C73.8408 144.539 73.689 146.114 72.4118 147.289Z" fill="#371A45"/>
</g>
<path d="M66.2186 149.383C65.5774 149.383 65.0705 149.364 64.8041 149.351H56.1538C56.1254 149.351 56.0965 149.351 56.0681 149.347C55.9414 149.335 52.9452 149.01 51.7938 145.699C51.2691 144.191 51.2686 140.394 51.2677 134.647C51.2677 129.697 51.2677 123.536 50.8823 117.389C50.8674 117.151 50.9473 116.918 51.1045 116.74C51.2617 116.561 51.4833 116.453 51.7205 116.438C51.9578 116.423 52.1912 116.503 52.3694 116.66C52.5477 116.818 52.6562 117.039 52.6711 117.276C53.0599 123.48 53.0608 129.672 53.0618 134.647C53.0618 139.606 53.0618 143.888 53.4882 145.111C54.206 147.173 55.9332 147.516 56.2131 147.559H64.8282C64.8431 147.559 64.8581 147.559 64.8725 147.559C67.2063 147.673 70.9005 147.462 71.8067 146.629C73.083 145.455 72.8185 143.892 71.9898 142.864C71.1876 141.869 69.6705 141.41 69.6551 141.406C69.45 141.345 69.2733 141.213 69.1569 141.033C69.0405 140.853 68.992 140.638 69.0201 140.426C69.0418 140.265 71.2079 124.138 72.6903 106.632C72.7103 106.395 72.8236 106.176 73.0052 106.023C73.1868 105.869 73.4218 105.794 73.6587 105.814C73.8955 105.834 74.1147 105.948 74.268 106.129C74.4213 106.311 74.4962 106.546 74.4762 106.783C73.1658 122.255 71.323 136.653 70.8899 139.958C71.5928 140.261 72.6527 140.831 73.385 141.74C74.9599 143.694 74.8063 146.305 73.0194 147.949C71.6733 149.186 68.2628 149.383 66.2186 149.383Z" fill="#371A45"/>
<path d="M60.5048 132.209C55.9053 132.209 52.2356 131.457 51.9701 131.401C51.8549 131.377 51.7457 131.331 51.6485 131.264C51.5514 131.198 51.4682 131.113 51.4039 131.014C51.3396 130.916 51.2953 130.805 51.2736 130.69C51.2519 130.574 51.2531 130.455 51.2773 130.34C51.3015 130.225 51.3482 130.116 51.4146 130.018C51.481 129.921 51.566 129.838 51.6645 129.774C51.7631 129.709 51.8733 129.665 51.989 129.643C52.1047 129.622 52.2235 129.623 52.3387 129.647C52.448 129.67 63.3795 131.905 70.9217 128.573C71.0302 128.52 71.1484 128.488 71.2693 128.481C71.3902 128.474 71.5113 128.492 71.6251 128.533C71.739 128.575 71.8434 128.638 71.9319 128.721C72.0204 128.804 72.0912 128.903 72.1401 129.014C72.1889 129.125 72.2148 129.245 72.2162 129.366C72.2176 129.487 72.1945 129.607 72.1481 129.719C72.1018 129.831 72.0333 129.932 71.9467 130.017C71.8601 130.101 71.7573 130.168 71.6444 130.211C68.1337 131.761 64.0439 132.209 60.5048 132.209Z" fill="#371A45"/>
<path d="M69.696 141.418C67.6557 140.789 65.3904 140.679 63.2349 140.752C62.6809 140.772 62.5932 139.959 63.1386 139.861C65.4473 139.478 67.7607 139.283 70.1166 139.676C71.3582 139.936 70.9236 141.752 69.6965 141.418H69.696Z" fill="#371A45"/>
<path d="M66.2186 149.383C65.5774 149.383 65.0705 149.364 64.8041 149.351H56.1538C56.1254 149.351 56.0965 149.351 56.0681 149.347C55.9414 149.335 52.9452 149.01 51.7938 145.699C51.2691 144.191 51.2686 140.394 51.2677 134.647C51.2677 129.697 51.2677 123.536 50.8823 117.389C50.8674 117.151 50.9473 116.918 51.1045 116.74C51.2617 116.561 51.4833 116.453 51.7205 116.438C51.9578 116.423 52.1912 116.503 52.3694 116.66C52.5477 116.818 52.6562 117.039 52.6711 117.276C53.0599 123.48 53.0608 129.672 53.0618 134.647C53.0618 139.606 53.0618 143.888 53.4887 145.111C54.206 147.173 55.9337 147.516 56.2136 147.559H64.8282C64.8431 147.559 64.8581 147.559 64.8725 147.559C67.2067 147.673 70.9005 147.462 71.8067 146.629C73.083 145.455 72.8185 143.892 71.9898 142.864C71.1876 141.869 69.6705 141.41 69.6551 141.406C69.45 141.345 69.2733 141.213 69.1569 141.033C69.0405 140.853 68.992 140.638 69.0201 140.426C69.0418 140.265 71.2079 124.138 72.6903 106.632C72.7103 106.395 72.8236 106.176 73.0052 106.023C73.1868 105.869 73.4218 105.794 73.6587 105.814C73.8955 105.834 74.1147 105.948 74.268 106.129C74.4213 106.311 74.4962 106.546 74.4762 106.783C73.1658 122.255 71.323 136.653 70.8899 139.958C71.5928 140.261 72.6527 140.831 73.385 141.74C74.9599 143.694 74.8063 146.305 73.0198 147.949C71.6733 149.186 68.2628 149.383 66.2186 149.383Z" fill="#371A45"/>
<path d="M68.3433 75.7154C73.98 87.3783 76.5161 98.0515 74.7957 106.349C74.1819 109.309 73.1576 111.745 71.8467 113.747C69.0163 118.063 64.834 120.36 60.4768 121.53C57.2923 122.385 54.0128 122.638 51.0971 122.638C48.8525 122.638 46.3921 122.488 43.9249 122.028C43.2331 121.899 42.5408 121.746 41.8533 121.565C37.9687 120.543 34.2147 118.635 31.4209 115.213C29.5902 112.968 28.1699 110.072 27.3976 106.348C25.6772 98.051 28.2128 87.3778 33.85 75.715" fill="white"/>
<path d="M75.3246 100.59C75.3449 102.613 75.1719 104.537 74.7947 106.349C74.7099 106.764 74.616 107.168 74.5129 107.561C73.8899 109.983 72.976 112.026 71.8448 113.748C69.0153 118.063 64.833 120.359 60.4749 121.53C57.2894 122.386 54.0099 122.638 51.0957 122.638C48.8511 122.638 46.3892 122.488 43.923 122.029C43.2307 121.899 42.5384 121.747 41.8514 121.566C37.9649 120.544 34.2123 118.635 31.4171 115.212C29.779 113.203 28.4691 110.67 27.6558 107.488C27.5595 107.117 27.4742 106.738 27.3938 106.348C27.0175 104.536 26.845 102.612 26.8638 100.589C26.9269 93.3445 29.4379 84.8301 33.8467 75.7149C33.8467 75.7149 30.5706 56.8669 51.0942 56.0763C71.6179 55.2857 68.3418 75.7149 68.3418 75.7149C72.7524 84.8311 75.2615 93.3455 75.3246 100.59Z" fill="white"/>
<g opacity="0.2">
<path d="M68.9893 77.0846C64.7627 79.6293 58.5796 81.2331 51.6892 81.2331C44.2833 81.2331 37.6931 79.3807 33.4728 76.5002C33.5961 76.2381 33.719 75.9779 33.8471 75.7158C33.8471 75.7158 31.4903 62.1678 43.2822 57.5621C46.0489 56.9984 48.8657 56.7176 51.6892 56.7243C54.7557 56.7243 57.6815 57.0427 60.3583 57.6204C70.4992 62.2733 68.3422 75.7158 68.3422 75.7158C68.5639 76.173 68.7811 76.6298 68.9893 77.0846Z" fill="#371A45"/>
</g>
<g opacity="0.2">
<path d="M74.7956 106.349C74.1819 109.309 73.1605 111.745 71.8457 113.748C69.0163 118.062 64.834 120.359 60.4758 121.53C57.2903 122.386 54.0109 122.638 51.0966 122.638C48.852 122.638 46.3902 122.488 43.924 122.029C43.2316 121.899 42.5393 121.747 41.8523 121.565C37.9658 120.544 34.2133 118.635 31.418 115.212C29.5873 112.968 28.1675 110.071 27.3947 106.348C26.9197 104.058 26.7684 101.588 26.9197 98.9644C26.9883 100.197 27.1471 101.422 27.3947 102.632C28.1656 106.357 29.5878 109.251 31.418 111.496C34.2123 114.919 37.9658 116.828 41.8523 117.849C42.5398 118.031 43.2321 118.183 43.924 118.313C46.3902 118.772 48.852 118.922 51.0966 118.922C54.0109 118.922 57.2903 118.669 60.4758 117.814C64.8349 116.645 69.0172 114.346 71.8457 110.032C73.1605 108.03 74.1819 105.593 74.7956 102.634C75.0435 101.424 75.2023 100.199 75.2707 98.9663C75.421 101.589 75.2707 104.06 74.7956 106.349Z" fill="#371A45"/>
</g>
<path d="M31.0702 115.497C29.3469 114.094 28.248 112.084 27.4781 110.035C25.1203 103.898 25.6088 97.0484 27.2854 90.8123C27.3444 90.5845 27.4908 90.389 27.6927 90.2681C27.8947 90.1473 28.1361 90.1108 28.3648 90.1664C28.5935 90.2221 28.7911 90.3656 28.9149 90.5657C29.0388 90.7659 29.0788 91.0068 29.0265 91.2363C28.8155 92.2519 28.6132 93.267 28.4421 94.2854C27.8033 98.3184 27.5658 102.471 28.4132 106.477C28.9803 109.512 30.3533 112.207 31.7659 114.932C31.9943 115.361 31.4489 115.813 31.0717 115.499L31.0702 115.497Z" fill="#371A45"/>
<path d="M60.591 121.963C55.5805 123.87 49.2211 123.96 44.028 122.727C43.2538 122.512 42.4864 122.265 41.7362 121.999C41.6807 121.979 41.6295 121.949 41.5857 121.909C41.5419 121.87 41.5063 121.822 41.4809 121.769C41.4556 121.716 41.4409 121.658 41.4379 121.599C41.4348 121.541 41.4434 121.482 41.4631 121.426C41.499 121.326 41.5689 121.242 41.6604 121.189C41.752 121.135 41.8594 121.115 41.9641 121.132C42.7431 121.199 43.501 121.325 44.2636 121.41C48.0827 121.806 51.9378 121.837 55.7675 121.595C57.2995 121.488 58.8243 121.317 60.3607 121.097C60.8791 121.023 61.0834 121.768 60.591 121.964V121.963Z" fill="#371A45"/>
<path d="M71.0055 80.5394C75.5198 89.7798 78.7236 102.035 73.9044 111.733C73.1774 113.124 72.2601 114.428 71.1197 115.497C70.7396 115.845 70.1523 115.38 70.4255 114.93C77.1327 104.483 73.9034 91.8249 70.1778 80.8833C70.0083 80.3702 70.7473 80.0378 71.0055 80.5394Z" fill="#371A45"/>
<g opacity="0.2">
<path d="M65.3558 100.59V95.2306C65.3535 94.4621 65.0472 93.7257 64.5038 93.1823C63.9604 92.6389 63.224 92.3326 62.4555 92.3303H39.5538C38.7853 92.3326 38.0489 92.6389 37.5055 93.1823C36.9621 93.7257 36.6558 94.4621 36.6535 95.2306V100.59H26.8643L27.6554 107.489C30.4444 107.113 33.5586 106.709 36.6535 106.344V109.841C36.6558 110.609 36.9621 111.346 37.5055 111.889C38.0489 112.433 38.7853 112.739 39.5538 112.741H62.4555C63.224 112.739 63.9604 112.433 64.5038 111.889C65.0472 111.346 65.3535 110.609 65.3558 109.841V106.297C68.5355 106.697 71.7268 107.148 74.5134 107.561C74.6165 107.167 74.7106 106.763 74.7957 106.349C75.1719 104.537 75.3449 102.613 75.3256 100.59H65.3558Z" fill="#371A45"/>
</g>
<path d="M63.8497 98.1998C63.8497 98.1998 71.5157 97.6154 74.7426 99.9385C78.1714 102.408 74.7166 105.264 74.7166 105.264C74.7166 105.264 68.5427 103.915 63.3578 104.108L63.8497 98.1998Z" fill="white"/>
<g opacity="0.2">
<path d="M74.7176 105.265C74.7176 105.265 68.5412 103.916 63.3578 104.109L63.5438 101.864C67.1474 101.754 71.1862 102.368 73.2814 102.745C74.3953 102.946 75.5245 102.385 75.9875 101.352C75.9923 101.342 75.9967 101.332 76.001 101.322C77.0156 103.363 74.7176 105.265 74.7176 105.265Z" fill="#371A45"/>
</g>
<path d="M38.98 98.1998C38.98 98.1998 31.314 97.6154 28.0871 99.9385C24.6578 102.408 28.1126 105.264 28.1126 105.264C28.1126 105.264 34.287 103.915 39.4719 104.108L38.98 98.1998Z" fill="white"/>
<path d="M74.9517 106.233L74.5259 106.14C74.4652 106.127 68.3967 104.819 63.3906 105.004L62.3788 105.042L63.0206 97.3645L63.7818 97.3062C64.1084 97.2816 71.8139 96.7252 75.2663 99.2116C76.4799 100.086 77.1154 101.122 77.1544 102.295C77.2228 104.332 75.367 105.89 75.288 105.956L74.9517 106.233ZM64.4139 103.193C68.5899 103.193 73.0059 104.004 74.4382 104.291C74.8448 103.858 75.3906 103.097 75.3627 102.348C75.341 101.763 74.9561 101.197 74.219 100.666C72.0447 99.1003 67.1475 98.9534 64.6798 99.0507L64.3349 103.194L64.4139 103.193Z" fill="#371944"/>
<path d="M27.8751 106.232L27.5378 105.955C27.4588 105.889 25.6035 104.331 25.6714 102.293C25.7105 101.122 26.3459 100.085 27.5595 99.2101C31.0119 96.7241 38.7174 97.2796 39.0441 97.3047L39.8058 97.363L40.4446 105.04L39.4329 105.002C34.4253 104.818 28.3583 106.125 28.2976 106.138L27.8751 106.232ZM36.9257 99.028C34.3044 99.028 30.4612 99.3315 28.6079 100.666C27.8707 101.196 27.4858 101.763 27.4641 102.348C27.4362 103.096 27.9816 103.854 28.3891 104.291C29.8215 104.002 34.2379 103.193 38.413 103.193H38.4939L38.1489 99.0501C37.7881 99.0366 37.3747 99.028 36.9257 99.028Z" fill="#371944"/>
<path d="M64.345 95.9157V106.832C64.345 108.858 62.7493 110.515 60.8006 110.515H41.4443C39.4936 110.515 37.9003 108.858 37.9003 106.832V95.9157C37.9003 93.8922 39.4936 92.2349 41.4443 92.2349H60.8006C62.3572 92.2349 63.6912 93.2948 64.1619 94.7512C64.283 95.1275 64.3448 95.5204 64.345 95.9157Z" fill="white"/>
<g opacity="0.2">
<path d="M64.345 95.9157V106.832C64.345 108.858 62.7493 110.515 60.8006 110.515H41.4443C39.4936 110.515 37.9003 108.858 37.9003 106.832V103.158C41.24 105.078 47.8557 107.96 54.4961 105.582C57.7399 104.419 61.4587 100.434 61.4587 100.434C61.4587 100.434 61.6032 104.615 62.1996 104.549C63.8603 104.366 63.8483 95.9056 64.1619 94.7517C64.283 95.1279 64.3448 95.5206 64.345 95.9157Z" fill="#371A45"/>
</g>
<path d="M60.9325 111.41H41.3113C40.1691 111.408 39.0741 110.954 38.2664 110.147C37.4588 109.339 37.0045 108.244 37.0032 107.102V95.647C37.0045 94.5049 37.4588 93.4098 38.2664 92.6022C39.0741 91.7946 40.1691 91.3403 41.3113 91.339H60.9325C62.0747 91.3403 63.1697 91.7946 63.9774 92.6022C64.785 93.4098 65.2393 94.5049 65.2406 95.647V107.102C65.2393 108.244 64.785 109.339 63.9774 110.147C63.1697 110.954 62.0747 111.408 60.9325 111.41ZM41.3113 93.1312C40.6442 93.132 40.0047 93.3973 39.533 93.8689C39.0613 94.3405 38.7959 94.98 38.795 95.647V107.102C38.7959 107.769 39.0613 108.408 39.533 108.88C40.0047 109.352 40.6442 109.617 41.3113 109.618H60.9325C61.5996 109.617 62.2391 109.352 62.7108 108.88C63.1825 108.408 63.448 107.769 63.4489 107.102V95.647C63.448 94.98 63.1825 94.3405 62.7108 93.8689C62.2391 93.3973 61.5996 93.132 60.9325 93.1312H41.3113Z" fill="#371944"/>
<path d="M57.9793 104.549C59.6676 104.549 61.0362 103.127 61.0362 101.374C61.0362 99.621 59.6676 98.1998 57.9793 98.1998C56.291 98.1998 54.9224 99.621 54.9224 101.374C54.9224 103.127 56.291 104.549 57.9793 104.549Z" fill="#22A7F0"/>
<path d="M61.0367 101.376C61.0373 101.587 61.0171 101.798 60.9764 102.006C60.6941 100.552 59.4588 99.4582 57.9788 99.4582C56.4988 99.4582 55.2635 100.552 54.9831 102.006C54.9427 101.798 54.9225 101.587 54.9229 101.376C54.9229 99.6225 56.2907 98.1998 57.9788 98.1998C59.667 98.1998 61.0367 99.622 61.0367 101.376Z" fill="white"/>
<path d="M61.0357 101.376C61.0357 103.13 59.6665 104.55 57.9793 104.55C56.2921 104.55 54.9229 103.13 54.9229 101.376C54.9228 101.089 54.9601 100.803 55.0337 100.525C55.3931 101.864 56.5754 102.848 57.9793 102.848C59.3832 102.848 60.5655 101.864 60.9249 100.525C60.9985 100.803 61.0358 101.089 61.0357 101.376Z" fill="#1C7AEA"/>
<path d="M57.9793 105.221C55.923 105.221 54.2503 103.495 54.2503 101.374C54.2503 99.253 55.923 97.5277 57.9793 97.5277C60.0355 97.5277 61.7082 99.2535 61.7082 101.374C61.7082 103.495 60.0335 105.221 57.9793 105.221ZM57.9793 98.8719C56.6645 98.8719 55.5945 99.9944 55.5945 101.374C55.5945 102.754 56.6645 103.877 57.9793 103.877C59.294 103.877 60.364 102.754 60.364 101.374C60.364 99.9944 59.294 98.8704 57.9793 98.8704V98.8719Z" fill="#371944"/>
<path d="M48.3048 111.41C48.0671 111.41 47.8392 111.315 47.6711 111.147C47.5031 110.979 47.4087 110.751 47.4087 110.514V104.925C47.4087 103.823 46.9057 102.772 46.0631 102.113L45.5717 101.728C44.2978 100.732 43.5376 99.1524 43.5376 97.5033V92.2351C43.5376 91.9974 43.632 91.7695 43.8001 91.6015C43.9681 91.4334 44.196 91.339 44.4337 91.339C44.6714 91.339 44.8993 91.4334 45.0673 91.6015C45.2354 91.7695 45.3298 91.9974 45.3298 92.2351V97.5067C45.3298 98.609 45.8328 99.6602 46.6754 100.319L47.1668 100.704C48.4406 101.701 49.2009 103.279 49.2009 104.928V110.517C49.2001 110.754 49.1054 110.981 48.9374 111.148C48.7694 111.316 48.5419 111.41 48.3048 111.41Z" fill="#371944"/>
<path d="M51.3086 91.318C51.7765 94.0733 51.4161 95.7715 50.771 96.9384C50.3475 97.7092 49.7963 98.2512 49.2813 98.7104C47.2762 100.498 40.9702 100.975 40.9702 100.975C40.9702 100.975 28.7823 106.193 21.2507 102.537C16.231 100.097 14.9876 93.0457 17.1898 87.5322C17.3598 87.1087 17.5593 86.665 17.7901 86.1996C17.7904 86.1974 17.7904 86.1951 17.7901 86.1929C21.0117 79.6966 30.0725 69.8313 44.4323 68.5474L32.331 81.7962L30.4396 86.9705C35.4597 86.9189 38.9766 86.7869 39.9869 86.3254C40.9972 85.8638 40.6971 82.3493 41.676 81.0027C42.2248 80.2458 44.3484 80.2839 45.0229 81.7509C45.8159 83.4853 44.691 85.5035 45.7485 86.2849C46.5347 86.8674 49.3618 85.9135 51.0148 87.4229C51.947 88.2737 51.6989 90.2205 51.3086 91.318Z" fill="white"/>
<g opacity="0.2">
<path d="M44.4337 68.5474L35.8855 77.9068C33.3273 76.6297 31.3178 75.0461 30.0676 73.2654C34.4288 70.6069 39.3454 68.9922 44.4337 68.5474Z" fill="#371A45"/>
</g>
<g opacity="0.2">
<path d="M50.771 96.9386C50.3475 97.7095 49.7963 98.2515 49.2813 98.7106C47.2762 100.498 40.9702 100.975 40.9702 100.975C40.9702 100.975 28.7823 106.194 21.2507 102.537C16.231 100.097 14.9876 93.0459 17.1898 87.5324C17.3598 87.109 17.5593 86.6653 17.7901 86.1999C17.7048 86.5313 14.5622 98.9703 23.4268 101.376C31.3863 103.537 37.71 98.4726 40.2678 98.2014C42.3862 97.9759 47.1148 100.111 50.771 96.9386Z" fill="#371A45"/>
</g>
<path d="M44.5131 69.4412C35.7448 70.1807 27.4583 74.7026 21.9256 81.5246C20.1208 83.7639 18.4958 86.2301 17.6334 88.983C16.4719 92.9089 16.8958 97.758 20.0047 100.625C23.2052 103.378 28.2175 103.171 32.1763 102.548C35.0679 102.053 37.898 101.249 40.618 100.15C40.7091 100.112 40.8052 100.089 40.9032 100.08C42.2573 99.9643 43.603 99.7657 44.9328 99.4852C46.1401 99.2144 47.5252 98.8589 48.5046 98.1844C50.7165 96.5425 50.873 94.0589 50.4255 91.4675C50.3999 91.3163 50.4135 91.161 50.465 91.0165C50.7271 90.2399 50.8808 89.2792 50.6534 88.5017C50.5772 88.2969 50.5247 88.1755 50.3595 88.0416C49.9986 87.7255 49.4923 87.5477 48.9016 87.4634C47.3016 87.2028 44.9135 88.0151 44.4331 85.7213C44.1157 84.2196 45.204 81.6123 43.0037 81.4138C42.7527 81.4017 42.5065 81.4567 42.3967 81.5357C42.3261 81.6387 42.2674 81.7494 42.2218 81.8657C41.6321 83.311 41.8846 85.1943 40.987 86.6141C40.5785 87.25 39.5875 87.395 38.9501 87.4923C37.4768 87.6918 36.0782 87.7332 34.6623 87.7867C33.2049 87.8214 31.7533 87.8725 30.3032 87.8556C29.725 87.8267 29.3463 87.1811 29.5969 86.6618L31.9094 81.6441C32.1464 81.1502 32.8908 81.4258 32.7511 81.9524L31.2792 87.2775L30.4284 86.073C31.8256 86.0581 33.2184 86.0379 34.6054 85.995C36.2863 85.8986 38.0414 85.9511 39.6024 85.5132C39.6212 85.506 39.5985 85.5132 39.5899 85.5204C39.5812 85.5277 39.5186 85.5754 39.5388 85.5551C39.7117 85.2661 39.7797 84.8411 39.8592 84.4398C40.1169 83.1342 40.1333 81.7038 40.9436 80.4815C41.4148 79.8157 42.3726 79.5826 43.0765 79.623C45.2237 79.7155 46.3044 81.4649 46.222 83.4575C46.2514 84.1402 46.0365 84.9543 46.2417 85.5262C46.2504 85.5436 46.2962 85.5715 46.2465 85.5421C46.3549 85.5942 46.7495 85.6019 46.9379 85.6052C48.521 85.571 50.6037 85.6052 51.7985 86.947C52.8796 88.2646 52.6301 90.1267 52.1502 91.6202L52.1897 91.1692C52.5646 93.3343 52.5968 95.9711 51.219 97.9141C50.7549 98.567 50.1954 99.1464 49.5592 99.6331C48.8544 100.139 48.1419 100.414 47.4341 100.665C45.3427 101.349 43.2167 101.665 41.0362 101.869L41.3214 101.799C38.4703 102.954 35.5027 103.798 32.4702 104.314C27.9338 105.028 22.4974 105.151 18.8085 101.958C15.1364 98.5925 14.5688 93.0251 15.9178 88.465C18.7377 80.0552 27.1692 72.7173 35.3618 69.7009C38.2462 68.6029 41.2876 67.9448 44.3537 67.6547C44.4716 67.6428 44.5907 67.6545 44.7041 67.6889C44.8176 67.7234 44.923 67.78 45.0144 67.8555C45.1058 67.931 45.1813 68.0239 45.2365 68.1288C45.2917 68.2337 45.3256 68.3485 45.3362 68.4666C45.3467 68.5847 45.3337 68.7036 45.298 68.8167C45.2622 68.9297 45.2044 69.0345 45.1278 69.125C45.0513 69.2155 44.9575 69.2899 44.852 69.344C44.7465 69.398 44.6313 69.4305 44.5131 69.4397V69.4412Z" fill="#371A45"/>
<path d="M22.1694 89.0422C22.1694 89.0422 24.2892 87.356 30.4405 86.9706L22.1694 89.0422Z" fill="white"/>
<path d="M21.89 88.6905C23.1199 87.7751 24.5812 87.2895 26.0332 86.8809C27.4154 86.4955 28.9586 86.2474 30.3841 86.0759C31.6237 85.9622 31.7697 87.7833 30.5229 87.8638C28.445 87.897 26.2881 88.0618 24.2902 88.6413C23.6398 88.8341 22.9793 89.0672 22.4021 89.4189C21.9314 89.6998 21.466 89.0383 21.8895 88.6905H21.89Z" fill="#371A45"/>
<path d="M23.2225 103.945C23.115 103.945 23.009 103.919 22.9135 103.87C22.818 103.82 22.7358 103.749 22.6738 103.661C20.6132 100.75 20.0919 97.7783 21.1244 94.8274C22.8313 89.9485 28.1101 86.9456 30.2536 86.3246C30.3407 86.2912 30.4339 86.2762 30.5271 86.2807C30.6204 86.2851 30.7117 86.3089 30.7953 86.3504C30.8789 86.392 30.9529 86.4505 31.0127 86.5221C31.0726 86.5938 31.1169 86.6771 31.1428 86.7668C31.1688 86.8565 31.1759 86.9505 31.1636 87.0431C31.1513 87.1356 31.1199 87.2246 31.0715 87.3044C31.0231 87.3842 30.9586 87.4531 30.8821 87.5067C30.8057 87.5603 30.7189 87.5974 30.6274 87.6157C28.4719 88.242 23.8435 91.1255 22.3929 95.2716C21.5127 97.7879 21.9762 100.349 23.7703 102.884C23.8415 102.984 23.8837 103.102 23.8923 103.225C23.9009 103.348 23.8755 103.471 23.819 103.58C23.7624 103.69 23.6769 103.782 23.5717 103.846C23.4665 103.91 23.3457 103.944 23.2225 103.944V103.945Z" fill="#371A45"/>
<path d="M86.4556 28.4017C86.4556 28.4017 94.6116 31.4937 95.4499 33.0036C97.0041 35.8027 96.7155 52.2563 92.4147 56.5455C90.7314 58.2255 78.3637 59.7951 78.3637 59.7951L86.4556 28.4017Z" fill="white"/>
<g opacity="0.2">
<path d="M78.3656 59.7949C78.3656 59.7949 90.7333 58.2248 92.4156 56.5449C94.098 54.8649 95.1617 51.3417 95.7442 47.4947C95.6079 47.6181 91.2396 51.3879 82.5257 43.7248L82.5098 43.7113L78.3656 59.7949Z" fill="#371A45"/>
</g>
<path d="M51.0981 45.574V45.7142L51.0085 45.6453L51.0981 45.574Z" fill="#D8D8D8"/>
<path d="M51.0085 45.6453L50.9194 45.7142V45.574L51.0085 45.6453Z" fill="#D8D8D8"/>
<path d="M24.071 59.7951C24.071 59.7951 11.7033 58.225 10.021 56.545C8.3386 54.8651 7.27484 51.3418 6.69237 47.4949C5.78085 41.491 6.04294 34.7129 6.99059 33.0059C7.8284 31.496 15.9844 28.4021 15.9844 28.4021L19.9292 43.7134L24.071 59.7951Z" fill="white"/>
<g opacity="0.2">
<path d="M24.0709 59.7949C24.0709 59.7949 11.7033 58.2248 10.0209 56.5449C8.33855 54.8649 7.27479 51.3417 6.69232 47.4947C6.82915 47.6181 11.1969 51.3879 19.9113 43.7248C19.9156 43.7205 19.9224 43.7157 19.9267 43.7113L24.0709 59.7949Z" fill="#371A45"/>
</g>
<path d="M77.1684 60.8502L85.8375 27.2088L86.7731 27.5634C89.3173 28.527 95.3333 30.9469 96.2332 32.5686C97.9556 35.6712 97.7368 52.5025 93.0497 57.1801C91.2411 58.9843 80.5943 60.4152 78.4784 60.684L77.1684 60.8502ZM87.0718 29.6008L79.5647 58.7319C85.1307 57.961 90.9347 56.7605 91.7835 55.9116C95.7539 51.9499 96.0588 35.9463 94.6665 33.4387C94.2483 32.7502 90.5724 30.9884 87.0718 29.6008Z" fill="#371A45"/>
<path d="M25.2691 60.8502L23.9592 60.684C21.8432 60.4152 11.1965 58.9843 9.38836 57.1801C4.70069 52.5025 4.48196 35.6712 6.2043 32.5686C7.10474 30.9469 13.1202 28.5284 15.6645 27.5634L16.6001 27.2088L25.2691 60.8502ZM15.3662 29.6013C11.8647 30.9859 8.18777 32.7507 7.77007 33.4401C6.37919 35.9453 6.68367 51.9499 10.654 55.9116C11.5043 56.7605 17.3068 57.961 22.8728 58.7319L15.3662 29.6013Z" fill="#371A45"/>
<path d="M51.2156 76.5286C72.1008 76.5286 89.0316 59.5977 89.0316 38.7125C89.0316 17.8273 72.1008 0.896536 51.2156 0.896536C30.3304 0.896536 13.3996 17.8273 13.3996 38.7125C13.3996 59.5977 30.3304 76.5286 51.2156 76.5286Z" fill="white"/>
<g opacity="0.2">
<path d="M89.0326 38.7115C89.0326 59.5969 72.1021 76.5275 51.2166 76.5275C30.3312 76.5275 13.3972 59.5969 13.3972 38.7115C13.3957 36.5438 13.5808 34.38 13.9503 32.2441C17.0182 50.0472 32.5353 63.5904 51.2156 63.5904C69.896 63.5904 85.4106 50.0472 88.4786 32.2441C88.8484 34.38 89.0338 36.5438 89.0326 38.7115Z" fill="#371A45"/>
</g>
<path d="M51.2171 77.4246C29.8711 77.4246 12.505 60.0585 12.505 38.7125C12.505 17.3665 29.8696 0.00041008 51.2171 0.00041008C72.5646 0.00041008 89.9292 17.3665 89.9292 38.7125C89.9292 60.0585 72.5598 77.4246 51.2171 77.4246ZM51.2171 1.79262C30.8592 1.79262 14.2967 18.3546 14.2967 38.7125C14.2967 59.0704 30.8592 75.6329 51.2171 75.6329C71.575 75.6329 88.137 59.0704 88.137 38.7125C88.137 18.3546 71.5736 1.79262 51.2171 1.79262Z" fill="#371A45"/>
<path d="M51.2171 77.4246C29.8711 77.4246 12.505 60.0585 12.505 38.7125C12.505 17.3665 29.8696 0.00041008 51.2171 0.00041008C72.5646 0.00041008 89.9292 17.3665 89.9292 38.7125C89.9292 60.0585 72.5598 77.4246 51.2171 77.4246ZM51.2171 1.79262C30.8592 1.79262 14.2967 18.3546 14.2967 38.7125C14.2967 59.0704 30.8592 75.6329 51.2171 75.6329C71.575 75.6329 88.137 59.0704 88.137 38.7125C88.137 18.3546 71.5736 1.79262 51.2171 1.79262Z" fill="#371A45"/>
<path d="M51.2171 77.4246C29.8711 77.4246 12.505 60.0585 12.505 38.7125C12.505 17.3665 29.8696 0.00041008 51.2171 0.00041008C72.5646 0.00041008 89.9292 17.3665 89.9292 38.7125C89.9292 60.0585 72.5598 77.4246 51.2171 77.4246ZM51.2171 1.79262C30.8592 1.79262 14.2967 18.3546 14.2967 38.7125C14.2967 59.0704 30.8592 75.6329 51.2171 75.6329C71.575 75.6329 88.137 59.0704 88.137 38.7125C88.137 18.3546 71.5736 1.79262 51.2171 1.79262Z" fill="#371A45"/>
<path d="M51.2171 77.4243C33.5778 77.4243 18.1808 65.5244 13.7528 48.4811C13.7455 48.4604 13.7393 48.4397 13.734 48.418C12.5535 43.8366 12.22 39.078 12.7497 34.3767C14.9273 14.7809 31.4643 0.00102615 51.2171 0.00102615C70.9699 0.00102615 87.5121 14.7853 89.6883 34.3902C90.2119 39.0868 89.8786 43.8395 88.7045 48.4171C88.6987 48.4392 88.6925 48.4614 88.6852 48.4826C84.25 65.5259 68.8501 77.4243 51.2171 77.4243ZM15.4746 47.983C19.6815 64.2636 34.3776 75.6321 51.2171 75.6321C68.0566 75.6321 82.7536 64.2622 86.9648 47.9815C86.9706 47.957 86.9778 47.9334 86.986 47.9088C88.0935 43.5607 88.4059 39.0483 87.9081 34.5891C85.8293 15.8919 70.0545 1.79275 51.2171 1.79275C32.3796 1.79275 16.6097 15.8871 14.5308 34.5771C14.375 35.9499 14.2971 37.3305 14.2976 38.7122C14.2951 41.8141 14.6835 44.904 15.4539 47.9088C15.4587 47.9334 15.4659 47.9579 15.4722 47.983H15.4746Z" fill="#371A45"/>
<path d="M87.7145 29.6913C87.5393 29.6913 87.368 29.6399 87.2217 29.5436C87.0754 29.4473 86.9605 29.3102 86.8911 29.1493C80.9171 15.2766 66.9119 6.31319 51.2157 6.31319C35.529 6.31319 21.5282 15.2689 15.5464 29.1296C15.4552 29.3354 15.2898 29.4993 15.0832 29.5888C14.8766 29.6782 14.6439 29.6866 14.4314 29.6123C14.2189 29.538 14.0421 29.3864 13.9363 29.1877C13.8305 28.989 13.8033 28.7577 13.8602 28.5399C18.4193 11.7361 33.7807 0 51.2171 0C68.6636 0 84.0284 11.7447 88.5802 28.5611C88.616 28.6939 88.6207 28.8332 88.5941 28.9681C88.5674 29.1031 88.5101 29.2301 88.4266 29.3393C88.3431 29.4486 88.2355 29.5372 88.1123 29.5984C87.9891 29.6595 87.8535 29.6915 87.7159 29.6918L87.7145 29.6913ZM51.2171 4.5205C59.3625 4.5205 67.212 6.83302 73.9169 11.21C76.7335 13.0433 79.3083 15.2238 81.5805 17.7C74.8241 7.95941 63.566 1.79269 51.2171 1.79269C38.9164 1.79269 27.6983 7.91702 20.9322 17.5906C28.4489 9.40956 39.3751 4.5205 51.2171 4.5205Z" fill="#371A45"/>
<path d="M89.0292 38.7135C89.0314 41.9116 88.6291 45.0972 87.832 48.1944C87.8311 48.1944 87.8302 48.1947 87.8296 48.1954C87.829 48.196 87.8286 48.1969 87.8286 48.1977C81.2683 60.8718 67.3358 71.7773 51.2137 71.7773C35.0916 71.7773 21.161 60.8718 14.6021 48.1977C14.6021 48.1969 14.6018 48.196 14.6011 48.1954C14.6005 48.1947 14.5996 48.1944 14.5988 48.1944C13.7989 45.0976 13.3958 41.9119 13.3991 38.7135C13.3989 37.2988 13.4794 35.8852 13.64 34.4797C18.7415 20.3636 33.6337 10.15 51.2185 10.15C68.8033 10.15 83.7013 20.3704 88.797 34.4893C88.9531 35.8919 89.0306 37.3022 89.0292 38.7135Z" fill="#371A45"/>
<g opacity="0.35">
<path d="M89.0307 38.7145C89.0336 41.9125 88.6318 45.0981 87.8349 48.1953C87.834 48.1953 87.8332 48.1957 87.8325 48.1963C87.8319 48.1969 87.8315 48.1978 87.8315 48.1987C81.2717 60.8728 67.3392 71.7777 51.2166 71.7777C35.094 71.7777 21.163 60.8728 14.6021 48.1987C14.6021 48.1978 14.6018 48.1969 14.6011 48.1963C14.6005 48.1957 14.5997 48.1953 14.5988 48.1953C14.1273 46.3692 13.7934 44.5103 13.6 42.6342C22.0793 52.1594 34.407 59.0897 48.1318 59.0897C65.6173 59.0897 80.8443 47.8427 88.7262 34.3077C88.7503 34.3698 88.7744 34.4286 88.7956 34.4907C88.9524 35.8932 89.0308 37.3033 89.0307 38.7145Z" fill="#111A28"/>
</g>
<path d="M51.2137 72.259C43.5414 72.259 35.8768 69.7967 29.052 65.1384C22.8578 60.9117 17.5814 54.9859 14.1912 48.4492C14.1653 48.4076 14.1459 48.3623 14.1338 48.3148C13.3235 45.1787 12.9143 41.9525 12.9159 38.7135C12.915 37.2808 12.9954 35.8492 13.1568 34.4257C13.1607 34.3884 13.1693 34.3519 13.1823 34.3168C15.7526 27.2043 20.698 21.0853 27.4785 16.6202C34.3857 12.0732 42.5928 9.66962 51.2122 9.66962C59.8317 9.66962 68.0421 12.0746 74.9503 16.6241C81.7337 21.0916 86.6772 27.213 89.246 34.3274C89.2591 34.3628 89.2677 34.3997 89.2715 34.4372C89.7898 39.0842 89.46 43.7866 88.2984 48.3157C88.2859 48.3631 88.2666 48.4084 88.241 48.4501C84.8508 54.9864 79.5734 60.9127 73.3783 65.1393C66.5515 69.7967 58.8864 72.259 51.2137 72.259ZM15.0487 48.0146C21.0666 59.6095 34.5736 71.2955 51.2137 71.2955C67.8537 71.2955 81.3642 59.6095 87.382 48.0146C88.497 43.6361 88.8154 39.0927 88.322 34.6015C83.1164 20.2629 68.2122 10.6337 51.2137 10.6337C34.2152 10.6337 19.3168 20.2591 14.1088 34.5919C13.6099 39.0867 13.9283 43.6347 15.0487 48.0161V48.0146Z" fill="#371A45"/>
<g opacity="0.5">
<path d="M82.5999 37.8598C83.1741 34.2786 81.5359 31.0382 78.9407 30.622C76.3456 30.2059 73.7762 32.7716 73.202 36.3528C72.6278 39.9339 74.266 43.1744 76.8612 43.5905C79.4563 44.0067 82.0257 41.4409 82.5999 37.8598Z" fill="white"/>
</g>
<g opacity="0.5">
<path d="M74.7187 50.2725C75.2015 48.6743 74.4812 47.0428 73.1098 46.6285C71.7383 46.2142 70.2352 47.174 69.7524 48.7723C69.2696 50.3705 69.9899 52.002 71.3614 52.4163C72.7328 52.8306 74.2359 51.8708 74.7187 50.2725Z" fill="white"/>
</g>
<g opacity="0.5">
<path d="M22.2412 50.0496C22.2412 50.0496 15.9217 31.2604 25.96 23.5182C35.9983 15.7761 50.6611 15.5102 50.3379 16.4573C50.3379 16.4573 34.1859 20.7158 28.0948 33.6765C23.3965 43.6709 22.2412 50.0496 22.2412 50.0496Z" fill="white"/>
</g>
<path d="M20.3468 148.418C31.0692 148.418 39.7614 139.726 39.7614 129.004C39.7614 118.281 31.0692 109.589 20.3468 109.589C9.62446 109.589 0.932251 118.281 0.932251 129.004C0.932251 139.726 9.62446 148.418 20.3468 148.418Z" fill="#FFD62C"/>
<path d="M39.7605 129.004C39.7605 139.725 31.0702 148.417 20.3449 148.417C12.8552 148.417 6.35607 144.177 3.11902 137.963C6.60177 143.162 12.5295 146.582 19.2585 146.582C29.9814 146.582 38.6741 137.89 38.6741 127.167C38.6793 124.053 37.931 120.985 36.4931 118.223C38.6296 121.412 39.7672 125.166 39.7605 129.004Z" fill="#FFB42E"/>
<g opacity="0.7">
<path d="M38.8422 123.091C36.1785 116.876 30.363 112.331 23.4071 111.469V111.479C23.4379 112.207 22.0042 112.86 20.2072 112.938C18.4101 113.016 16.9267 112.486 16.8954 111.758V111.752C8.13916 113.631 1.57497 121.416 1.57497 130.734C1.57255 132.731 1.87955 134.717 2.48504 136.62C1.45781 134.213 0.929885 131.622 0.933243 129.005C0.933243 118.282 9.62592 109.589 20.3488 109.589C29.0073 109.589 36.3437 115.261 38.8422 123.091Z" fill="white"/>
</g>
<path d="M20.3468 149.35C9.12772 149.35 0 140.223 0 129.004C0 117.784 9.12772 108.657 20.3468 108.657C31.5659 108.657 40.6936 117.784 40.6936 129.004C40.6936 140.223 31.5659 149.35 20.3468 149.35ZM20.3468 110.522C10.1558 110.522 1.86495 118.813 1.86495 129.004C1.86495 139.195 10.1558 147.485 20.3468 147.485C30.5378 147.485 38.8287 139.195 38.8287 129.004C38.8287 118.813 30.5378 110.522 20.3468 110.522Z" fill="#371A45"/>
<path d="M20.3468 143.597C28.4066 143.597 34.9403 137.063 34.9403 129.004C34.9403 120.944 28.4066 114.41 20.3468 114.41C12.2871 114.41 5.75336 120.944 5.75336 129.004C5.75336 137.063 12.2871 143.597 20.3468 143.597Z" fill="#FF9C43"/>
<path d="M20.3468 143.597C28.4066 143.597 34.9403 137.063 34.9403 129.004C34.9403 120.944 28.4066 114.41 20.3468 114.41C12.2871 114.41 5.75336 120.944 5.75336 129.004C5.75336 137.063 12.2871 143.597 20.3468 143.597Z" fill="#FF9C43"/>
<path d="M34.9408 129.005C34.9408 137.063 28.4065 143.597 20.3473 143.597C13.7513 143.597 8.18055 139.223 6.37292 133.218C8.56211 138.51 13.7759 142.234 19.8626 142.234C27.9237 142.234 34.4561 135.7 34.4561 127.641C34.4581 126.214 34.2502 124.795 33.839 123.429C34.5699 125.197 34.9443 127.092 34.9408 129.005Z" fill="#FF7A45"/>
<path d="M5.75338 129.004C5.75338 120.945 12.2877 114.411 20.3468 114.411C26.9428 114.411 32.5136 118.785 34.3212 124.791C32.132 119.498 26.9183 115.774 20.8315 115.774C12.7704 115.774 6.23805 122.308 6.23805 130.368C6.23601 131.794 6.44395 133.213 6.8552 134.579C6.12426 132.811 5.74982 130.916 5.75338 129.004Z" fill="#FF7A45"/>
<path d="M24.6231 131.929C24.6231 133.683 23.2712 135.035 21.4544 135.457V137.57H19.0875V135.415C17.2495 134.929 15.8114 133.472 15.6669 133.324L17.3565 131.634C17.4832 131.781 18.7931 133.155 20.3141 133.155C21.4549 133.155 22.193 132.585 22.193 131.95C22.193 130.049 15.94 129.69 15.94 126.056C15.94 124.303 17.2707 122.951 19.0875 122.55V120.437H21.4535V122.592C23.2914 123.078 24.7295 124.514 24.8741 124.663L23.2052 126.353C23.0573 126.184 21.7266 124.875 20.2269 124.875C19.086 124.875 18.348 125.405 18.348 126.037C18.348 127.937 24.6231 128.296 24.6231 131.929Z" fill="#FFD62C"/>
</svg>
