<svg width="103" height="128" viewBox="0 0 103 128" fill="none" xmlns="http://www.w3.org/2000/svg">
<path d="M59.4713 54.2809L60.602 58.3296L61.1765 60.3916L71.0999 95.9541C71.0999 95.9541 73.4864 95.1399 76.5984 93.7906C77.2075 93.5267 77.8439 93.243 78.4961 92.9401C83.3555 90.6881 89.0627 87.4191 90.4524 84.0078C92.5288 78.9079 86.3511 59.8548 80.5829 53.4895C77.94 50.572 70.2143 51.6573 64.8783 52.8526C64.2817 52.9873 63.7148 53.1219 63.1892 53.2516C60.9714 53.8019 59.4713 54.2809 59.4713 54.2809Z" fill="white"/>
<g opacity="0.35">
<path d="M60.602 58.3296L61.1765 60.3916L69.0558 88.6288L71.0999 95.9541L71.2439 95.9039L71.3369 95.8711L71.4235 95.8397C71.4468 95.8325 71.4684 95.8235 71.4931 95.8159C71.502 95.8123 71.5128 95.8096 71.5218 95.8056C71.5667 95.7903 71.6116 95.7732 71.6618 95.7544C71.6735 95.7514 71.6849 95.7475 71.6959 95.7427C71.7363 95.7279 71.779 95.7122 71.8252 95.6978C71.8876 95.6758 71.9513 95.6529 72.0187 95.6269C72.0662 95.6081 72.1183 95.5906 72.1695 95.5713L72.3306 95.5111C72.3998 95.486 72.4725 95.4577 72.547 95.4312C72.6973 95.3738 72.8567 95.3141 73.0246 95.249C73.1731 95.1938 73.3289 95.1332 73.4909 95.0694C73.6781 94.9958 73.8743 94.9204 74.0767 94.8396C74.8258 94.5416 75.68 94.1906 76.5984 93.7924C76.7779 93.7152 76.9575 93.6353 77.1419 93.555C77.2699 93.4989 77.4005 93.4401 77.5311 93.3813C77.8453 93.2403 78.1712 93.0931 78.4961 92.9419C83.3573 90.6899 89.0627 87.4209 90.4506 84.0096C92.1616 79.8101 88.2767 66.1491 83.6279 57.9018C86.624 65.448 88.5137 73.9835 87.2237 77.1484C86.5863 78.7135 80.9469 75.8395 80.1946 73.3506C78.2551 66.9319 74.5044 59.0877 67.0207 56.1777C66.8267 56.1005 63.5487 57.6792 60.602 58.3296Z" fill="#371A45"/>
</g>
<path d="M70.581 96.938L58.5391 53.7781L59.2397 53.5537C59.4143 53.4976 63.5797 52.1744 68.3354 51.3992C74.9179 50.3251 79.2287 50.8556 81.1494 52.9751C87.1676 59.6182 93.3421 78.9357 91.1589 84.2955C88.5304 90.7492 72.0456 96.4376 71.3454 96.6764L70.581 96.938ZM60.4068 54.7903L71.6143 94.959C74.8873 93.7624 87.6735 88.8061 89.7454 83.7192C90.627 81.5543 89.8374 75.9539 87.7336 69.4567C85.5791 62.7948 82.6211 56.8721 80.0182 53.9999C77.0073 50.677 65.4528 53.2732 60.4068 54.7912V54.7903Z" fill="#371A45"/>
<path d="M86.936 69.2215L80.2296 72.0013C79.9385 72.1217 79.6956 72.3352 79.539 72.6085C79.3824 72.8818 79.3209 73.1993 79.3642 73.5113C79.6932 75.8619 80.7346 81.2509 83.4546 82.2483C85.7124 83.0764 88.5653 81.9525 89.7947 79.9497C91.1696 77.709 89.6861 72.5754 88.8284 70.0748C88.7653 69.8908 88.6652 69.7216 88.5343 69.5778C88.4033 69.4339 88.2442 69.3185 88.0669 69.2385C87.8896 69.1585 87.6977 69.1158 87.5032 69.1129C87.3087 69.1099 87.1156 69.1469 86.936 69.2215Z" fill="white"/>
<g opacity="0.35">
<path d="M79.3651 73.5122C79.6923 75.8619 80.735 81.2514 83.4551 82.2478C85.7133 83.0764 88.5658 81.9525 89.7956 79.9488C90.6399 78.5703 90.4043 76.0976 89.898 73.8174C89.9514 75.0226 89.7602 76.0783 89.3486 76.8651C86.9912 81.3735 83.0973 78.2566 83.0973 78.2566C83.0973 78.2566 82.9654 79.3684 82.6256 79.5412C81.2045 80.2621 79.972 75.4759 79.3916 72.9843C79.3487 73.1569 79.3397 73.3362 79.3651 73.5122Z" fill="#371A45"/>
</g>
<path d="M85.0531 83.2851C84.4187 83.2888 83.7888 83.1805 83.1921 82.9651C80.1879 81.8636 79.0307 76.6362 78.6084 73.6172C78.5417 73.1377 78.6361 72.6497 78.8767 72.2296C79.1173 71.8095 79.4905 71.4812 79.9379 71.2962L86.6438 68.5164C86.9198 68.4017 87.2163 68.3449 87.5151 68.3493C87.8139 68.3538 88.1086 68.4195 88.381 68.5423C88.6534 68.6651 88.8978 68.8425 89.0989 69.0635C89.3001 69.2845 89.4538 69.5443 89.5506 69.827C90.7527 73.3331 91.8847 78.0043 90.4452 80.3492C89.3275 82.1702 87.1528 83.2851 85.0531 83.2851ZM87.4827 69.8755C87.3955 69.8757 87.3092 69.8931 87.2287 69.9267L80.5223 72.7069C80.387 72.762 80.2739 72.8606 80.2008 72.987C80.1277 73.1134 80.0987 73.2606 80.1183 73.4053C80.7467 77.8984 82.0933 80.9363 83.7159 81.5297C85.5787 82.2128 88.064 81.3052 89.1421 79.548C89.995 78.1565 89.6085 74.7061 88.1048 70.3199C88.0605 70.1895 87.9765 70.0761 87.8647 69.9957C87.7529 69.9152 87.6187 69.8716 87.4809 69.871L87.4827 69.8755Z" fill="#371A45"/>
<path d="M87.0873 82.7591C86.9528 82.7316 86.8205 82.6946 86.6914 82.6482C86.5761 82.6074 86.4629 82.5638 86.3557 82.5135C86.141 82.4191 85.9331 82.3099 85.7335 82.1868C85.3426 81.9495 84.9797 81.6689 84.6518 81.3501C84.014 80.7332 83.4874 80.0108 83.0952 79.2149C82.9039 78.828 82.7358 78.4301 82.592 78.0232C82.4358 77.6192 82.3276 77.2206 82.2091 76.814C82.0906 76.4073 81.9964 75.997 81.9178 75.5805C81.8801 75.3713 81.8451 75.1622 81.8204 74.9494C81.7917 74.7299 81.7799 74.5086 81.7849 74.2873C81.7863 74.2355 81.8076 74.1863 81.8443 74.1498C81.8811 74.1133 81.9306 74.0924 81.9824 74.0915C82.0342 74.0906 82.0843 74.1097 82.1224 74.1448C82.1605 74.18 82.1835 74.2284 82.1867 74.2802V74.3022C82.2035 74.4947 82.2335 74.686 82.2764 74.8744C82.3182 75.0706 82.3707 75.2658 82.4255 75.4606C82.5377 75.8498 82.6705 76.2345 82.8164 76.6147C82.9623 76.9949 83.1136 77.3809 83.2927 77.7368C83.46 78.0973 83.6486 78.4476 83.8573 78.7858C84.2626 79.4459 84.7789 80.031 85.3834 80.5152C85.674 80.7488 85.9903 80.9485 86.326 81.1104C86.4875 81.1902 86.6545 81.2584 86.8256 81.3147C86.9096 81.3443 86.9926 81.3667 87.0752 81.3874C87.1431 81.4047 87.2121 81.4176 87.2817 81.426C87.4584 81.4351 87.6245 81.5129 87.7447 81.6428C87.8648 81.7727 87.9295 81.9444 87.9248 82.1212C87.9201 82.2981 87.8465 82.4662 87.7196 82.5895C87.5927 82.7129 87.4227 82.7818 87.2457 82.7815C87.2078 82.7803 87.1699 82.7761 87.1326 82.7689L87.0873 82.7591Z" fill="#371A45"/>
<path d="M69.8507 56.0229C70.6613 55.627 71.4724 55.2571 72.2942 54.8958C73.1161 54.5345 73.9433 54.1893 74.7832 53.8634C75.623 53.5376 76.4709 53.2283 77.3416 52.9612C78.2124 52.6942 79.098 52.4495 80.0433 52.3045C80.2436 52.2738 80.4479 52.3239 80.6112 52.4439C80.7746 52.5638 80.8836 52.7437 80.9143 52.9439C80.945 53.1442 80.8949 53.3485 80.775 53.5119C80.6551 53.6752 80.4752 53.7842 80.2749 53.815C80.2574 53.8176 80.2404 53.8194 80.2233 53.8212H80.2157C79.3929 53.8886 78.541 54.0578 77.6962 54.2548C76.8515 54.4519 76.0049 54.6961 75.1638 54.9551C74.3226 55.214 73.4855 55.4982 72.6529 55.7962C71.8202 56.0943 70.9894 56.4067 70.1747 56.7388H70.1707C70.0764 56.7757 69.9716 56.7748 69.8779 56.7365C69.7843 56.6981 69.709 56.6251 69.6678 56.5326C69.6265 56.4402 69.6225 56.3354 69.6564 56.2401C69.6904 56.1448 69.7598 56.0662 69.8502 56.0206L69.8507 56.0229Z" fill="#371A45"/>
<path d="M31.4038 58.409C32.2481 60.3095 33.4582 62.1929 33.8429 63.1952L31.8603 66.6895L29.6129 70.6475C28.4812 70.778 27.3927 70.875 26.3474 70.9384C7.63009 72.0951 2.12934 63.0547 1.5144 58.7295C0.296653 50.1693 5.17573 44.7386 7.43034 42.5289C7.79794 42.1724 8.1842 41.8358 8.5875 41.5203C16.0313 35.6555 35.514 30.1669 41.1472 37.9824C44.321 42.3812 42.1306 49.918 32.2697 52.893C29.8526 53.6215 30.3432 56.0269 31.4038 58.409Z" fill="white"/>
<g opacity="0.35">
<path d="M32.7042 60.9747C33.1979 61.8778 33.6387 62.6619 33.8429 63.1952L29.6129 70.6462C8.26253 73.1194 2.16346 63.2953 1.51441 58.7295C1.3213 57.4001 1.27389 56.0537 1.37302 54.714C1.39771 54.973 1.85644 58.3731 1.91973 58.6348C3.10965 63.5516 14.4384 69.6942 17.702 68.0496C18.5046 67.6456 19.115 67.1608 19.4862 67.0343C20.1626 66.804 20.5065 67.7708 21.5563 67.7049C22.5178 67.6447 22.6152 66.0243 23.3558 66.2313C23.951 66.3973 24.6822 67.8471 25.5552 67.7973L32.7042 60.9747Z" fill="#371A45"/>
</g>
<path d="M23.104 71.8083C16.6732 71.8083 11.4054 70.525 7.39039 67.9728C3.06655 65.2245 1.12973 61.4522 0.757626 58.8381C-0.140089 52.5303 1.92466 46.8603 6.8962 41.9849C11.576 37.3948 24.0381 32.6581 33.092 33.431C37.1317 33.7757 40.0493 35.1573 41.7657 37.5362C43.3129 39.6822 43.6823 42.4409 42.7801 45.1058C41.4816 48.9386 37.7305 52.0433 32.4878 53.6242C26.8618 55.3209 20.304 58.1428 19.5199 59.7435C19.4835 59.818 19.475 59.8696 19.4799 59.8862C19.5159 59.9798 19.533 60.0795 19.5305 60.1797C19.5279 60.2799 19.5056 60.3786 19.4648 60.4702C19.4241 60.5618 19.3657 60.6445 19.293 60.7135C19.2203 60.7826 19.1347 60.8366 19.0412 60.8726C18.9476 60.9085 18.8478 60.9257 18.7476 60.9231C18.6474 60.9205 18.5487 60.8982 18.4571 60.8575C18.3655 60.8167 18.2828 60.7583 18.2138 60.6856C18.1448 60.6129 18.0908 60.5274 18.0548 60.4338C17.9399 60.1349 17.8631 59.6555 18.1491 59.0715C19.6936 55.9192 31.5434 52.3144 32.047 52.1627C36.8112 50.7264 40.196 47.9753 41.3339 44.6161C42.0763 42.4247 41.7827 40.1697 40.5259 38.4295C39.0829 36.4276 36.5374 35.2574 32.9604 34.9522C24.4447 34.2246 12.3211 38.8011 7.96403 43.0765C3.36055 47.5915 1.44393 52.8225 2.26938 58.6218C2.96735 63.5296 9.56241 72.2001 29.5258 69.8881C29.6254 69.8766 29.7263 69.8848 29.8227 69.9122C29.9191 69.9397 30.0092 69.9859 30.0877 70.0481C30.1663 70.1104 30.2318 70.1875 30.2806 70.2751C30.3293 70.3627 30.3604 70.4591 30.3719 70.5587C30.3834 70.6583 30.3752 70.7591 30.3477 70.8556C30.3203 70.952 30.2741 71.042 30.2118 71.1206C30.1496 71.1992 30.0724 71.2647 29.9848 71.3135C29.8972 71.3622 29.8009 71.3932 29.7013 71.4048C27.5118 71.6657 25.309 71.8004 23.104 71.8083Z" fill="#371A45"/>
<path d="M101.142 35.739C100.881 37.1188 100.326 38.6153 99.4573 40.1827C93.1069 51.6353 70.8256 60.7256 70.8256 60.7256C70.8256 60.7256 72.0905 64.6944 74.829 71.7535C74.8927 71.9187 74.9578 72.0839 75.0233 72.2527C75.869 74.4202 76.8488 76.8665 77.9678 79.5663C79.278 82.7272 80.7808 86.2386 82.4865 90.0584C86.5814 99.2411 90.1058 111.351 90.1058 111.351C90.1058 111.351 99.8909 114.675 99.7504 120.72C99.743 121.052 99.7062 121.384 99.6405 121.71C98.4905 127.521 76.0754 126.305 74.1947 123.553C71.9433 120.258 71.0357 117.406 68.8152 112.395C67.1706 108.686 65.4303 104.855 61.6011 101.747C57.271 98.5642 50.1517 98.5283 45.55 98.9529C38.9343 99.5647 37.8418 103.653 37.01 106.616C35.6222 111.547 36.4544 121.704 31.7472 124.602C29.1739 126.186 7.96807 128.638 6.73416 121.359C6.48414 119.878 6.74717 118.641 7.29747 117.614C9.10592 114.232 14.0241 113.12 14.0241 113.12C14.0241 113.12 13.5303 105.151 14.0173 100.768C15.214 89.9349 28.6864 84.9683 28.6864 84.9683C28.6864 84.9683 28.6415 83.9189 28.1307 80.5246C27.5023 76.331 26.8412 73.0961 26.3483 70.9384C25.8766 68.8804 25.5556 67.7964 25.5556 67.7964L24.3105 64.1499L23.6076 62.0892L31.4047 58.4085L60.9059 44.476C61.8646 43.8804 62.9293 43.1743 64.0766 42.3983C72.8078 36.4733 86.3646 26.3094 95.3112 27.5747C99.8694 28.2202 101.961 31.4138 101.142 35.739Z" fill="white"/>
<g opacity="0.35">
<path d="M101.142 35.739C100.881 37.1188 100.326 38.6153 99.4573 40.1827C93.1069 51.6353 70.8256 60.7256 70.8256 60.7256C70.8256 60.7256 72.0905 64.6944 74.8289 71.7535L73.4025 72.4062C71.7574 67.3202 66.2733 70.0878 65.9101 68.0316C65.727 66.9943 68.9669 65.9803 67.9448 64.0233C66.9228 62.0663 61.9526 63.2881 62.037 61.7086C62.1034 60.4966 64.7956 60.6843 66.6494 60.1941C68.5032 59.704 65.652 57.0593 65.4545 56.1952C65.1435 54.8446 68.1315 56.0085 71.7161 55.7356C86.4225 54.6211 97.2817 41.2241 101.142 35.739Z" fill="#371A45"/>
</g>
<g opacity="0.35">
<path d="M99.7504 120.718C99.743 121.051 99.7062 121.382 99.6404 121.709C98.4905 127.52 76.0754 126.303 74.1947 123.551C71.9433 120.257 71.0357 117.405 68.8152 112.394C67.1706 108.684 65.4303 104.853 61.6011 101.746C57.271 98.5629 50.1517 98.527 45.55 98.9516C38.9343 99.5634 37.8418 103.652 37.01 106.614C35.6222 111.545 36.4543 121.702 31.7472 124.6C29.1739 126.185 7.96807 128.636 6.73416 121.358C6.48414 119.876 6.74717 118.639 7.29747 117.612C7.53268 118.998 8.60814 120.521 11.7142 121.508C18.6949 123.723 30.4522 124.136 32.0345 119.065C33.6167 113.994 32.5816 109.339 32.64 105.011C32.6848 101.571 32.2688 97.1032 34.4937 95.7441C35.6608 95.0304 37.0926 96.6418 38.9101 96.4147C40.7275 96.1875 40.7504 92.0482 42.0323 91.9898C43.6136 91.9158 43.3712 94.7005 46.6789 95.8118C49.6651 96.815 57.3235 96.6526 60.0396 93.9657C62.6331 91.4 61.7784 95.9622 62.4634 97.2828C63.7821 99.8291 69.0221 95.5951 69.769 97.5296C70.1119 98.4197 68.8264 101.7 69.4485 105.54C70.2232 110.343 73.2108 118.557 79.1524 121.619C83.3716 123.796 95.2901 124.267 99.7504 120.718Z" fill="#371A45"/>
</g>
<path d="M19.5338 127.081C15.8531 127.081 12.1424 126.656 9.54535 125.479C7.46938 124.536 6.26869 123.194 5.98008 121.484C5.09448 116.257 10.0198 113.455 13.2251 112.537C13.1196 110.551 12.8449 104.41 13.257 100.682C14.367 90.6446 25.2612 85.5514 27.8771 84.4674C27.8165 83.8574 27.6792 82.672 27.374 80.6378C26.1683 72.5983 24.8352 68.0617 24.8218 68.0164C24.7641 67.8223 24.786 67.6132 24.8825 67.4352C24.979 67.2572 25.1423 67.1249 25.3364 67.0673C25.5305 67.0096 25.7395 67.0315 25.9175 67.128C26.0955 67.2245 26.2279 67.3878 26.2855 67.5819C26.3411 67.7686 27.6603 72.2536 28.8839 80.4111C29.3929 83.8054 29.4459 84.8894 29.4477 84.9338L29.4728 85.4913L28.9495 85.6847C28.8193 85.7328 15.9057 90.6222 14.7745 100.85C14.3028 105.114 14.7799 112.993 14.7849 113.072L14.8244 113.72L14.191 113.864C13.8791 113.935 6.54474 115.676 7.48555 121.229C7.68529 122.408 8.59018 123.37 10.1755 124.089C16.3725 126.897 29.7188 124.953 31.3459 123.951C34.2962 122.134 34.8708 116.836 35.378 112.162C35.6118 110.007 35.8322 107.976 36.2757 106.407L36.2968 106.331C37.1344 103.351 38.3997 98.847 45.4818 98.1922C49.6539 97.8066 57.3549 97.6751 62.0554 101.131L62.0837 101.154C66.1193 104.426 67.9228 108.495 69.5145 112.084C70.0904 113.383 70.5855 114.556 71.0227 115.589C72.2862 118.579 73.1992 120.739 74.8254 123.121C75.7567 124.484 86.2483 125.993 93.8161 124.447C96.8445 123.826 98.6476 122.802 98.8935 121.561C100.069 115.624 89.9613 112.106 89.8612 112.072L89.4855 111.944L89.3742 111.562C89.3392 111.442 85.817 99.3982 81.7885 90.3686C73.7584 72.3671 70.1348 61.068 70.0989 60.9558L69.8852 60.2825L70.5379 60.0159C70.7583 59.9262 92.6432 50.8947 98.789 39.8093C100.629 36.4904 101.052 33.4754 99.9784 31.3205C99.1669 29.6907 97.5165 28.6565 95.2048 28.3297C87.449 27.2341 75.7873 35.2664 67.2715 41.132C65.0829 42.6398 63.0155 44.0635 61.3094 45.1237C61.1374 45.2306 60.9301 45.2647 60.7329 45.2187C60.5358 45.1726 60.365 45.0502 60.2581 44.8782C60.1513 44.7063 60.1172 44.4989 60.1632 44.3018C60.2093 44.1046 60.3317 43.9338 60.5037 43.827C62.1793 42.7856 64.2323 41.3717 66.4057 39.8748C75.1284 33.8668 87.0751 25.6375 95.4185 26.818C98.2499 27.2184 100.299 28.5398 101.343 30.6396C102.645 33.2582 102.214 36.7777 100.123 40.5499C94.2573 51.1281 75.592 59.5217 71.7704 61.1524C72.6587 63.8092 76.2864 74.2873 83.1809 89.7446C86.8494 97.9682 90.0955 108.642 90.7266 110.76C92.7316 111.514 101.69 115.275 100.388 121.855C100.004 123.793 97.8953 125.167 94.1195 125.94C87.4621 127.303 75.2756 126.489 73.5618 123.979C71.8481 121.47 70.9113 119.253 69.6119 116.181C69.1774 115.153 68.6845 113.988 68.1141 112.701C66.5942 109.273 64.872 105.388 61.1321 102.349C56.8365 99.2021 49.5704 99.3448 45.6178 99.7102C39.5811 100.269 38.5707 103.858 37.7628 106.742L37.7412 106.818C37.3346 108.265 37.1205 110.236 36.8942 112.324C36.3489 117.347 35.7312 123.04 32.1444 125.248C30.8154 126.07 25.2105 127.081 19.5338 127.081Z" fill="#371A45"/>
<g opacity="0.35">
<path d="M64.0757 41.7254C62.8364 52.2287 56.1619 60.6362 47.2579 64.3743C46.7668 64.5799 46.2683 64.7722 45.7623 64.9511C43.1834 65.8551 40.4819 66.3609 37.7506 66.4512C36.2633 66.5032 34.7743 66.4332 33.2984 66.242C32.8145 66.1765 32.3347 66.1029 31.8621 66.0176C31.8486 66.0176 31.8369 66.0122 31.8235 66.0104C29.2113 65.5309 26.6814 64.6788 24.3114 63.4802C21.4817 62.0471 18.9106 60.1526 16.7037 57.8744C12.2079 53.2397 9.35674 47.258 8.58746 40.847C16.0313 34.9823 35.514 29.4936 41.1471 37.3091C44.321 41.7079 42.1306 49.2447 32.2696 52.2197C29.8539 52.9473 30.3445 55.3527 31.4051 57.7348L60.9063 43.8023C61.8637 43.2076 62.9284 42.5033 64.0757 41.7254Z" fill="#371A45"/>
</g>
<path d="M13.7974 53.3926C17.4729 57.0903 22.0382 59.7799 27.0539 61.2027C28.1084 61.5018 29.178 61.7446 30.2583 61.9298C30.7889 62.0223 31.328 62.0986 31.8742 62.1655C34.8506 62.5153 37.8621 62.428 40.8132 61.9065C42.4108 61.6233 43.983 61.212 45.5145 60.6766C46.0684 60.4815 46.6153 60.2721 47.1551 60.0482C57.03 55.9385 64.4581 46.7621 65.7939 35.3804C67.7653 18.6173 55.7727 3.43205 39.0119 1.46022C35.8695 1.08794 32.6883 1.20681 29.5824 1.81257C29.2278 1.87901 28.8736 1.95576 28.5217 2.0397C27.5791 2.25784 26.653 2.51938 25.7433 2.8243C21.5661 4.23016 17.7404 6.51847 14.5259 9.53382C14.0187 10.0096 13.5273 10.5034 13.0518 11.015C8.63569 15.7675 5.84778 21.8028 5.09225 28.2462C3.95574 37.889 7.44246 47.008 13.7974 53.3926Z" fill="white"/>
<path d="M35.4633 62.4581C34.2599 62.458 33.0577 62.3875 31.8625 62.2472C31.2642 62.1736 30.735 62.0959 30.2466 62.0106C29.1636 61.8247 28.0911 61.5815 27.0337 61.2821C22.0067 59.8503 17.4306 57.1536 13.7426 53.4496C7.09503 46.7706 3.91263 37.5811 5.01188 28.2368C5.76886 21.7765 8.56352 15.7251 12.9908 10.9598C13.4576 10.4571 13.9549 9.95843 14.4684 9.47861C17.6916 6.45547 21.5273 4.16107 25.7154 2.75113C26.623 2.44725 27.5602 2.18243 28.5015 1.96473C28.8763 1.87496 29.2241 1.80045 29.5653 1.73716C32.6793 1.12872 35.8691 1.00878 39.02 1.38167C55.8001 3.35664 67.8461 18.6129 65.8729 35.3916C64.582 46.3886 57.4214 55.8649 47.1852 60.1236C46.6466 60.3481 46.0922 60.5586 45.5401 60.752C42.7062 61.7414 39.7416 62.3065 36.7425 62.429C36.3158 62.4484 35.8894 62.4581 35.4633 62.4581ZM13.8548 53.3356C17.5232 57.0203 22.0752 59.7027 27.0759 61.1264C28.1276 61.4245 29.1944 61.6667 30.2718 61.8517C30.7601 61.9366 31.2866 62.0133 31.8818 62.0865C36.4704 62.6316 41.1229 62.1238 45.4858 60.6017C46.0348 60.4082 46.5855 60.1977 47.1223 59.9733C57.3047 55.7365 64.4276 46.3096 65.7113 35.3709C67.6742 18.6806 55.6915 3.50431 39.0003 1.54056C35.8655 1.16939 32.6921 1.28857 29.594 1.89381C29.2551 1.9571 28.9095 2.03071 28.5369 2.11824C27.6002 2.33504 26.6684 2.59852 25.7653 2.90105C21.5993 4.30356 17.7838 6.58569 14.5775 9.59261C14.0667 10.072 13.572 10.568 13.1075 11.068C8.70313 15.8081 5.92264 21.8275 5.16898 28.2539C4.07512 37.5488 7.24091 46.6902 13.8535 53.3338L13.8548 53.3356Z" fill="#371A45"/>
<g opacity="0.35">
<path d="M65.7912 35.3817C64.4567 46.7621 57.0286 55.9394 47.1524 60.0496C46.6138 60.2737 46.0672 60.4832 45.5127 60.678C41.137 62.2006 36.4728 62.7101 31.8715 62.1682C31.3279 62.0995 30.7893 62.0241 30.2583 61.933C29.178 61.7462 28.1083 61.5029 27.0535 61.204C22.0375 59.7816 17.4722 57.092 13.7969 53.3939C11.8142 51.4025 10.1138 49.1488 8.74323 46.6956C13.1404 50.9098 18.6983 53.7115 24.7015 54.7401C25.2307 54.8325 25.7693 54.9075 26.3146 54.9753C30.9152 55.5222 35.5799 55.013 39.9541 53.4864C40.5089 53.2904 41.0559 53.0809 41.5951 52.858C51.47 48.7496 58.8981 39.5718 60.2343 28.1901C60.9945 21.8086 59.7136 15.3503 56.5753 9.7421C63.2534 16.1424 66.9555 25.4876 65.7912 35.3817Z" fill="#371A45"/>
</g>
<path d="M35.4633 62.9995C34.2388 62.9993 33.0154 62.9275 31.7993 62.7844C31.1888 62.7095 30.6511 62.6309 30.1515 62.5439C29.0501 62.3547 27.9595 62.1073 26.8843 61.8028C21.7677 60.3459 17.1102 57.6014 13.3566 53.8315C6.59188 47.0349 3.35338 37.683 4.47238 28.174C5.24352 21.6001 8.08818 15.4426 12.594 10.594C13.0693 10.0823 13.5757 9.57421 14.0986 9.08405C17.3786 6.00748 21.2822 3.67278 25.5444 2.23853C26.4682 1.92882 27.4225 1.65951 28.3799 1.43777C28.7605 1.348 29.1169 1.27035 29.467 1.20526C32.6343 0.587563 35.8784 0.466419 39.0829 0.846176C56.1596 2.85526 68.4184 18.3817 66.4102 35.4567C65.0968 46.6471 57.8097 56.2913 47.393 60.6259C46.8436 60.853 46.2812 61.0685 45.7201 61.2664C42.8348 62.2731 39.8165 62.8478 36.7632 62.9721C36.3314 62.99 35.8981 62.9992 35.4633 62.9995ZM14.2382 52.954C17.8413 56.5728 22.3121 59.2073 27.2236 60.6057C28.2575 60.8988 29.3064 61.1366 30.3656 61.318C30.8463 61.402 31.3639 61.4774 31.9501 61.5496C34.8645 61.8917 37.8132 61.8061 40.7028 61.2956C42.2675 61.0177 43.8073 60.6148 45.3076 60.0909C45.8463 59.901 46.388 59.6936 46.9159 59.475C56.9164 55.3137 63.9132 46.0542 65.1745 35.3099C67.1046 18.9158 55.3324 4.00882 38.9374 2.07964C35.859 1.7144 32.7425 1.83086 29.7 2.42481C29.3647 2.4872 29.0267 2.55946 28.664 2.64609C27.7407 2.8602 26.8237 3.11874 25.9385 3.41588C21.8465 4.79373 18.0987 7.03542 14.9492 9.98895C14.4473 10.4598 13.9617 10.9473 13.5056 11.4383C9.1787 16.0937 6.44732 22.0064 5.70763 28.3189C4.63352 37.4491 7.74275 46.4281 14.2382 52.954Z" fill="#371A45"/>
<path d="M35.4633 63.1799C34.2318 63.1797 33.0013 63.1075 31.7782 62.9636C31.1637 62.8881 30.6233 62.8092 30.121 62.7216C29.0132 62.5314 27.9163 62.2825 26.8349 61.9761C21.6887 60.5106 17.0041 57.7503 13.2287 53.9586C6.42491 47.1229 3.168 37.7171 4.29329 28.1529C5.0683 21.5397 7.92968 15.3453 12.4625 10.4679C12.941 9.95261 13.45 9.4418 13.976 8.94896C17.2747 5.85568 21.2002 3.50818 25.4861 2.06573C26.4157 1.75422 27.3753 1.48222 28.3386 1.25779C28.7206 1.16802 29.0801 1.08991 29.4329 1.02393C32.618 0.40329 35.8803 0.282145 39.1026 0.664847C56.2786 2.68471 68.6083 18.3022 66.5884 35.476C65.2674 46.7311 57.938 56.4309 47.4613 60.7915C46.9087 61.02 46.3431 61.2368 45.7794 61.4356C42.8772 62.4491 39.841 63.0278 36.7695 63.153C36.3359 63.1706 35.9005 63.1796 35.4633 63.1799ZM14.367 52.8266C17.9482 56.4235 22.3918 59.0421 27.2734 60.4325C28.3007 60.7233 29.3426 60.9596 30.3948 61.1403C30.8728 61.2233 31.3877 61.2987 31.9707 61.3706C33.5414 61.5555 35.1242 61.6156 36.7044 61.5501C39.6173 61.4318 42.4966 60.883 45.2488 59.9216C45.7839 59.7331 46.3225 59.5271 46.8472 59.3099C56.7876 55.1736 63.7422 45.9694 64.9959 35.2902C66.912 18.9966 55.2108 4.17761 38.9172 2.26009C35.8575 1.89755 32.76 2.01324 29.7359 2.60301C29.4024 2.6654 29.0684 2.73767 28.7071 2.82295C27.7883 3.03616 26.8784 3.29291 25.9973 3.58601C21.9299 4.95523 18.2046 7.1835 15.0744 10.1196C14.5748 10.5877 14.0923 11.0721 13.6381 11.56C9.33729 16.1874 6.62256 22.0646 5.88763 28.3391C4.8198 37.4142 7.91018 46.3383 14.3665 52.8257L14.367 52.8266Z" fill="#371A45"/>
<path d="M19.9884 58.1891C40.6992 65.1266 61.5383 49.6841 56.665 28.6094C53.3493 14.2697 36.7492 6.4448 23.1803 10.5114C13.3054 13.4708 4.95666 20.6803 5.36063 37.2633C5.36063 37.2633 6.67264 44.5766 9.98386 48.7272C13.2951 52.8778 17.215 56.3577 17.215 56.3577L19.9884 58.1891Z" fill="#371A45"/>
<path d="M56.6637 28.6076C61.5374 49.6841 40.6979 65.1262 19.988 58.19L19.4265 57.817C39.3167 55.6176 54.8113 38.7549 50.2805 17.3529C53.3534 20.3791 55.6399 24.1827 56.6637 28.6076Z" fill="#220F2D"/>
<path d="M35.4633 63.1799C34.2318 63.1797 33.0013 63.1075 31.7782 62.9636C31.1637 62.8881 30.6233 62.8091 30.121 62.7216C29.0132 62.5314 27.9163 62.2825 26.8349 61.9761C21.6887 60.5106 17.0041 57.7503 13.2287 53.9586C6.42491 47.1229 3.168 37.7171 4.29329 28.1524C4.93852 22.6303 7.04327 17.3798 10.391 12.9411L10.4413 12.8747L10.5041 12.8199C13.5505 10.1663 17.395 8.13158 21.9316 6.77199C30.011 4.34816 39.4025 5.55649 47.051 9.99883C54.0797 14.0834 58.8847 20.3674 60.58 27.7031C62.4203 35.6735 61.1927 43.3103 57.0246 49.7869C52.6676 56.5588 45.3314 61.424 36.8969 63.1355L36.7713 63.1507C36.3372 63.1705 35.9005 63.1799 35.4633 63.1799ZM14.367 52.8266C17.9482 56.4235 22.3918 59.0421 27.2734 60.4324C28.3007 60.7233 29.3426 60.9596 30.3948 61.1403C30.8728 61.2233 31.3877 61.2987 31.9707 61.3706C33.5197 61.5521 35.0805 61.6121 36.6388 61.5501C44.6254 59.9131 51.5602 55.311 55.6735 48.9188C59.6019 42.8143 60.7573 35.6017 59.0148 28.0631C57.4232 21.1673 52.8861 15.2442 46.2466 11.3867C38.9752 7.1625 30.0581 6.01253 22.3939 8.30933C18.1091 9.59351 14.4859 11.4994 11.6213 13.9753C8.47479 18.1725 6.49644 23.1284 5.88763 28.3387C4.8198 37.4137 7.91018 46.3379 14.3665 52.8252L14.367 52.8266Z" fill="#371A45"/>
<path d="M30.1578 60.6663C26.6131 60.6606 23.0926 60.0809 19.7331 58.9499L19.633 58.9162L16.6836 56.9529C16.5215 56.8093 12.6735 53.3813 9.35777 49.2245C5.95947 44.9644 4.62726 37.709 4.57205 37.4025L4.55993 37.2799C4.20713 22.7693 10.3951 13.5035 22.9501 9.74074C30.1623 7.57904 38.5425 8.65495 45.3678 12.6188C51.6424 16.2635 55.9321 21.8774 57.4461 28.4267C59.6325 37.8823 56.8904 46.9349 49.9233 53.2633C44.5886 58.1092 37.5249 60.6663 30.1578 60.6663ZM20.3427 57.4615C30.5474 60.8432 41.4596 58.7833 48.8451 52.0752C55.3697 46.1503 57.9349 37.6606 55.8832 28.7876C54.4697 22.675 50.4493 17.4256 44.5621 14.0062C38.1134 10.261 30.2063 9.24071 23.411 11.2772C11.651 14.8012 5.84994 23.5153 6.16325 37.1762C6.29476 37.8648 7.62114 44.4733 10.6128 48.2235C13.661 52.0451 17.2841 55.3348 17.7083 55.7159L20.3427 57.4615Z" fill="#371A45"/>
<path d="M69.4319 32.65C68.6828 34.5801 67.3923 36.0833 65.6557 36.8064C61.5975 38.495 56.6426 35.2699 54.5877 29.604C54.4185 29.1372 54.2735 28.6677 54.1541 28.2C52.8161 22.9816 54.4917 17.8314 58.2149 16.2824C62.2731 14.5933 67.2298 17.8166 69.2847 23.4843C70.4607 26.7273 70.4319 30.0681 69.4319 32.65Z" fill="white"/>
<g opacity="0.35">
<path d="M69.4319 32.65C68.6828 34.5801 67.3923 36.0833 65.6557 36.8064C61.5976 38.495 56.6426 35.2699 54.5878 29.604C54.4186 29.1372 54.2736 28.6677 54.1542 28.2C55.1192 29.0389 57.1256 30.175 58.9767 27.3548L63.6448 27.2179C63.6448 27.2179 67.2393 29.279 69.4319 32.65Z" fill="#371A45"/>
</g>
<path d="M63.3966 38.0605C62.3772 38.0605 61.3318 37.832 60.2959 37.376C57.4654 36.1313 55.1098 33.3982 53.8323 29.8765C51.6369 23.8214 53.4642 17.3906 57.9057 15.5418C59.6805 14.8029 61.6406 14.8618 63.5748 15.7123C66.4053 16.9566 68.7609 19.6901 70.0383 23.2114C72.2337 29.2669 70.4064 35.6977 65.9649 37.5466C65.1514 37.8867 64.2783 38.0614 63.3966 38.0605ZM60.4754 16.6352C59.8057 16.6338 59.1425 16.7656 58.5242 17.023C54.8624 18.5491 53.4351 24.0701 55.3427 29.3298C56.4545 32.395 58.548 34.8539 60.9431 35.9073C62.4661 36.5766 63.9895 36.6309 65.3495 36.0653C69.0113 34.5392 70.4387 29.0183 68.531 23.7586C67.4183 20.6933 65.3231 18.2345 62.9293 17.181C62.1025 16.8174 61.2753 16.6352 60.4754 16.6352Z" fill="#371A45"/>
<path d="M66.8898 34.9167C70.3423 33.9941 72.1387 29.4945 70.9021 24.8665C69.6655 20.2385 65.8642 17.2347 62.4116 18.1572C58.9591 19.0797 57.1627 23.5793 58.3993 28.2073C59.6359 32.8353 63.4372 35.8392 66.8898 34.9167Z" fill="white"/>
<path d="M65.6449 35.1582C65.4005 35.158 65.1563 35.1412 64.9142 35.1079C61.2169 34.6034 58.0857 30.35 57.934 25.6258C57.8492 22.9803 58.7038 20.6484 60.2797 19.2278C61.4396 18.1824 62.8615 17.7394 64.3908 17.9486C68.088 18.4531 71.2193 22.7064 71.371 27.4307C71.4558 30.0758 70.6012 32.4081 69.0253 33.8282C68.0526 34.7053 66.8941 35.1582 65.6449 35.1582ZM63.6623 18.0662C62.4531 18.0662 61.3336 18.5038 60.3924 19.3526C58.8537 20.74 58.0188 23.0242 58.1032 25.6204C58.2527 30.2661 61.3188 34.4477 64.9384 34.9414C66.4196 35.1425 67.7927 34.717 68.9148 33.7039C70.4535 32.3165 71.2884 30.0318 71.204 27.4361C71.0545 22.7899 67.9884 18.6084 64.3688 18.1146C64.1347 18.0826 63.8986 18.0664 63.6623 18.0662Z" fill="#371A45"/>
<g opacity="0.35">
<path d="M60.1585 32.0656C59.2383 30.7042 58.6889 29.0852 58.5045 27.4446C60.8637 30.3729 64.3997 30.6342 66.6611 27.9289C68.1226 26.1811 68.7142 23.5952 68.4273 21.0565C68.5773 21.2405 68.7218 21.4384 68.8614 21.6445C71.2026 25.1132 71.1506 30.258 68.7483 33.1352C66.346 36.0124 62.4984 35.5326 60.1585 32.0656Z" fill="#371A45"/>
</g>
<path d="M65.9964 35.8131C65.2387 35.8131 64.459 35.643 63.6825 35.3032C61.3969 34.304 59.3923 31.921 58.3209 28.9294C56.4949 23.8317 57.8002 18.6744 61.2923 17.1882C62.6093 16.6276 64.0752 16.6684 65.5327 17.3058C67.8183 18.3049 69.8224 20.6879 70.8943 23.6796C72.7198 28.7772 71.415 33.9346 67.9228 35.4208C67.3138 35.6805 66.6584 35.814 65.9964 35.8131ZM63.2179 18.4041C62.7722 18.4026 62.3307 18.4914 61.9203 18.6654C59.2545 19.8001 58.3173 24.1621 59.8313 28.3894C60.7564 30.973 62.4347 33.0086 64.3248 33.8345C65.3675 34.2901 66.394 34.3283 67.294 33.9458C69.9598 32.8107 70.897 28.4487 69.383 24.2218C68.4574 21.6382 66.7796 19.6026 64.8895 18.7767C64.3217 18.5271 63.7584 18.4041 63.2179 18.4041Z" fill="#371A45"/>
<g opacity="0.5">
<path d="M32.2208 14.2329C32.2208 14.2329 19.7712 18.8463 14.9801 28.2449C14.9748 28.2548 14.9698 28.2646 14.9649 28.2745C13.9608 30.2559 13.5026 32.4688 13.6372 34.686C13.8113 37.6175 14.3612 39.6117 14.9124 41.3488C16.592 46.631 18.3686 48.7918 18.3686 48.7918C14.477 46.9564 11.7766 44.3261 10.334 39.9403C10.1931 39.5076 10.0635 39.057 9.94531 38.5884C9.91748 38.4806 9.89279 38.3733 9.869 38.2652C9.869 38.2652 9.869 38.262 9.869 38.2584C9.65042 37.0367 9.50533 35.803 9.43451 34.5639C9.18359 30.175 9.80481 24.1504 14.1143 20.0734C22.1699 12.4536 32.4802 13.543 32.2208 14.2329Z" fill="white"/>
</g>
<g opacity="0.5">
<path d="M48.4097 28.0646C50.3101 26.8487 50.7022 24.0678 49.2854 21.8533C47.8686 19.6388 45.1795 18.8292 43.279 20.0451C41.3786 21.2609 40.9865 24.0418 42.4033 26.2563C43.8201 28.4708 46.5092 29.2804 48.4097 28.0646Z" fill="white"/>
</g>
<g opacity="0.5">
<path d="M51.7002 32.8863C52.4397 32.3197 52.5039 31.1618 51.8437 30.3002C51.1835 29.4385 50.0488 29.1993 49.3093 29.7659C48.5698 30.3325 48.5056 31.4903 49.1658 32.352C49.826 33.2137 50.9607 33.4529 51.7002 32.8863Z" fill="white"/>
</g>
<path d="M28.6398 83.1473C30.8738 83.1473 32.6849 81.3363 32.6849 79.1022C32.6849 76.8682 30.8738 75.0571 28.6398 75.0571C26.4057 75.0571 24.5947 76.8682 24.5947 79.1022C24.5947 81.3363 26.4057 83.1473 28.6398 83.1473Z" fill="white"/>
<g opacity="0.35">
<path d="M24.6795 79.9223C24.7796 80.4498 24.9837 80.9522 25.2799 81.4C25.5761 81.8478 25.9586 82.2322 26.4049 82.5308C26.8512 82.8293 27.3525 83.036 27.8795 83.1388C28.4065 83.2416 28.9487 83.2385 29.4745 83.1296C30.0003 83.0207 30.4991 82.8082 30.942 82.5046C31.3848 82.2009 31.7628 81.8121 32.0538 81.3609C32.3449 80.9097 32.5432 80.405 32.6372 79.8764C32.7312 79.3477 32.719 78.8056 32.6013 78.2817C32.4815 77.6951 32.2315 77.1429 31.8697 76.6658C31.6892 77.4103 31.301 78.0883 30.7503 78.6208C30.1996 79.1533 29.509 79.5186 28.7589 79.6741C28.0088 79.8296 27.2299 79.7689 26.5129 79.4991C25.7959 79.2294 25.1702 78.7616 24.7086 78.1502C24.5663 78.7313 24.5564 79.3369 24.6795 79.9223Z" fill="#371A45"/>
</g>
<path d="M28.6389 83.9113C27.5335 83.9096 26.4623 83.5277 25.6051 82.8297C24.748 82.1317 24.1569 81.1602 23.9312 80.0781C23.7304 79.1064 23.8353 78.0964 24.2314 77.1866C24.6276 76.2769 25.2956 75.5121 26.1437 74.9972C26.9919 74.4823 27.9786 74.2426 28.9685 74.3109C29.9584 74.3792 30.9028 74.7522 31.6722 75.3787C32.4417 76.0052 32.9983 76.8545 33.2657 77.81C33.5332 78.7654 33.4983 79.7803 33.166 80.7152C32.8336 81.6501 32.22 82.4592 31.4095 83.0315C30.5989 83.6037 29.6311 83.9111 28.6389 83.9113ZM25.4259 79.7684C25.5802 80.5119 25.9875 81.179 26.5784 81.6559C27.1693 82.1329 27.9073 82.3902 28.6667 82.384C29.4261 82.3778 30.1598 82.1085 30.7429 81.6221C31.326 81.1356 31.7224 80.462 31.8645 79.716C32.0066 78.97 31.8857 78.1979 31.5224 77.5311C31.1591 76.8642 30.5758 76.344 29.8719 76.059C29.168 75.774 28.3871 75.7419 27.6622 75.9681C26.9373 76.1944 26.3132 76.6649 25.8963 77.2996C25.4186 78.0277 25.2494 78.9156 25.4259 79.7684Z" fill="#371A45"/>
<path d="M33.6876 89.2132L54.1218 87.6229C56.5407 87.4357 58.3676 85.3018 58.1795 82.8803L57.3334 72.0062C57.1682 69.8858 55.5115 68.2237 53.4768 67.9692C53.1828 67.9319 52.8858 67.925 52.5903 67.9486L32.1588 69.5384C29.735 69.7261 27.9104 71.8599 28.1016 74.2811L28.7699 82.8937L28.945 85.1555C29.1326 87.5771 31.2687 89.4004 33.6876 89.2132Z" fill="white"/>
<path d="M74.1386 69.1425C74.1386 69.1425 76.8506 69.0878 77.6689 72.2172C78.1909 74.2124 77.0674 76.4854 77.0674 76.4854C77.0674 76.4854 69.5953 80.6907 56.7849 80.7545C56.7849 80.7545 52.7227 77.1802 56.4649 73.5413C56.4649 73.5413 68.1414 72.5592 74.1386 69.1425Z" fill="white"/>
<path d="M33.6876 89.2132L54.1218 87.6229C56.5407 87.4357 58.3676 85.3018 58.1795 82.8803L57.3334 72.0062C57.1682 69.8858 55.5115 68.2237 53.4768 67.9692C53.1828 67.9319 52.8858 67.925 52.5903 67.9486L32.1588 69.5384C29.735 69.7261 27.9104 71.8599 28.1016 74.2811L28.7699 82.8937L28.945 85.1555C29.1326 87.5771 31.2687 89.4004 33.6876 89.2132Z" fill="white"/>
<path d="M74.1386 69.1425C74.1386 69.1425 76.8506 69.0878 77.6689 72.2172C78.1909 74.2124 77.0674 76.4854 77.0674 76.4854C77.0674 76.4854 69.5953 80.6907 56.7849 80.7545C56.7849 80.7545 52.7227 77.1802 56.4649 73.5413C56.4649 73.5413 68.1414 72.5592 74.1386 69.1425Z" fill="white"/>
<g opacity="0.35">
<path d="M59.7631 85.6138C59.9503 88.0349 58.1239 90.1684 55.7045 90.3573L35.2707 91.9467C32.8514 92.1343 30.7162 90.3115 30.5272 87.8882L30.3535 85.6273L29.6847 77.0137C29.4935 74.5926 31.3203 72.4591 33.7415 72.272L54.1735 70.6826C54.4686 70.6585 54.7653 70.6651 55.0591 70.7023C57.0937 70.9577 58.7509 72.6194 58.9147 74.7393L59.027 76.1757C61.8265 75.8705 69.9818 74.7999 75.0224 72.2504C75.8681 74.4179 76.1024 75.0517 77.2218 77.7516C74.7751 79.8518 70.6793 82.8403 59.5957 83.466L59.7631 85.6138Z" fill="#371A45"/>
</g>
<path d="M33.6876 89.2132L54.1218 87.6229C56.5407 87.4357 58.3676 85.3018 58.1795 82.8803L57.3334 72.0062C57.1682 69.8858 55.5115 68.2237 53.4768 67.9692C53.1828 67.9319 52.8858 67.925 52.5903 67.9486L32.1588 69.5384C29.735 69.7261 27.9104 71.8599 28.1016 74.2811L28.7699 82.8937L28.945 85.1555C29.1326 87.5771 31.2687 89.4004 33.6876 89.2132Z" fill="white"/>
<g opacity="0.35">
<path d="M33.6876 89.2132L54.1218 87.6229C56.5407 87.4357 58.3676 85.3018 58.1795 82.8802L57.3334 72.0062C57.1682 69.8858 55.5115 68.2237 53.4768 67.9692C52.3762 68.8301 51.6778 69.3809 51.6778 69.3809C51.3636 78.187 52.2492 84.6281 38.6358 84.7839C33.9425 84.8377 30.7081 83.7066 28.7699 82.8937L28.945 85.1555C29.1326 87.5771 31.2687 89.4004 33.6876 89.2132Z" fill="#371A45"/>
</g>
<path d="M33.342 89.9906C32.0395 89.9881 30.7857 89.4954 29.83 88.6104C28.8742 87.7255 28.2867 86.5132 28.1842 85.2148L27.3385 74.3389C27.2335 72.9708 27.6754 71.6168 28.5673 70.574C29.4593 69.5313 30.7285 68.8849 32.0964 68.7767L52.5306 67.1869C53.8984 67.0837 55.2514 67.5263 56.2938 68.4179C57.3362 69.3095 57.9832 70.5775 58.0933 71.9447L58.9394 82.8206C59.0444 84.1888 58.6024 85.5427 57.7105 86.5855C56.8186 87.6283 55.5495 88.2748 54.1815 88.3832L33.7482 89.9731C33.6113 89.9852 33.4758 89.9906 33.342 89.9906ZM52.9346 68.6982C52.8399 68.6982 52.7448 68.7013 52.6491 68.7089L32.2158 70.2988C31.2511 70.3749 30.356 70.8306 29.7269 71.5659C29.0978 72.3012 28.7861 73.256 28.8602 74.2209L29.7058 85.0967C29.7844 86.0605 30.2409 86.9542 30.9757 87.5829C31.7105 88.2116 32.664 88.5243 33.6284 88.4528L54.0613 86.863C55.026 86.7869 55.9212 86.3312 56.5503 85.5959C57.1795 84.8606 57.4913 83.9058 57.4174 82.9409L56.5704 72.065C56.4981 71.1497 56.0839 70.2952 55.4103 69.6713C54.7366 69.0475 53.8528 68.7 52.9346 68.6982Z" fill="#371A45"/>
<path d="M32.8608 89.1966C33.135 89.2312 33.4122 89.2367 33.6876 89.2132L54.1218 87.6229C54.9666 87.5551 55.7741 87.246 56.4482 86.7323C57.1223 86.2186 57.6346 85.5221 57.9241 84.7255C58.1407 84.1361 58.2268 83.5066 58.1763 82.8807L57.8024 78.0496L57.679 76.4553L57.3329 72.0062C57.1449 69.5824 55.0087 67.7609 52.5899 67.9486L48.1744 68.2933C50.2392 68.5177 51.9291 70.1919 52.097 72.333L52.5557 78.2067L52.944 83.2102C53.1316 85.6286 51.3052 87.7652 48.8868 87.9528L32.8608 89.1966Z" fill="white"/>
<g opacity="0.35">
<path d="M32.8608 89.1966C33.135 89.2312 33.4122 89.2368 33.6876 89.2132L54.1218 87.6229C56.5407 87.4357 58.3675 85.3018 58.1763 82.8807L57.679 76.4553C57.2535 77.6309 56.4384 79.0959 54.9724 79.3572C54.168 79.5026 53.3251 78.981 52.5557 78.2072L52.944 83.2106C53.1316 85.6291 51.3052 87.7656 48.8868 87.9532L32.8608 89.1966Z" fill="#371A45"/>
</g>
<path d="M33.3505 89.9906C33.1555 89.9907 32.9606 89.979 32.767 89.9556L32.7993 88.4367L48.8262 87.1911C49.7898 87.1129 50.6833 86.6567 51.3117 85.922C51.94 85.1874 52.2522 84.2339 52.18 83.2699L51.334 72.3936C51.2669 71.5461 50.9064 70.7484 50.3144 70.1382C49.7224 69.5279 48.9361 69.1433 48.091 69.0505L48.1147 67.5307L52.5284 67.1864C53.8966 67.0835 55.2499 67.5267 56.2923 68.4188C57.3348 69.311 57.9815 70.5797 58.091 71.9474L58.9371 82.8219C59.0409 84.1899 58.5985 85.5433 57.7068 86.5859C56.8152 87.6285 55.5468 88.2754 54.1793 88.3851L33.7446 89.974C33.6153 89.9848 33.4829 89.9906 33.3505 89.9906ZM51.1513 68.8252C52.1429 69.7128 52.7539 70.9487 52.8569 72.2756L53.703 83.1509C53.7571 83.8286 53.6761 84.5103 53.4648 85.1564C53.2534 85.8026 52.9159 86.4003 52.4718 86.915C52.4498 86.9411 52.4269 86.9662 52.4054 86.9914L54.0621 86.863C55.0257 86.7844 55.9191 86.3279 56.5474 85.5931C57.1757 84.8584 57.4879 83.905 57.416 82.9409L56.5703 72.065C56.492 71.101 56.0357 70.2071 55.3008 69.5783C54.566 68.9495 53.6123 68.6368 52.6478 68.7085L51.1513 68.8252Z" fill="#371A45"/>
<path d="M44.4701 78.4873C44.5037 78.8913 45.34 82.0867 45.34 82.0867L47.6291 81.8955C49.206 81.7635 50.3479 80.0242 50.1795 78.0097C50.0112 75.9952 48.5964 74.47 47.0196 74.602L44.7304 74.7932C44.7304 74.7932 44.4153 77.8329 44.4701 78.4873Z" fill="#22A7F0"/>
<g opacity="0.35">
<path d="M44.4701 78.4873C44.5037 78.8913 45.34 82.0867 45.34 82.0867L47.6291 81.8955C49.206 81.7635 50.3479 80.0242 50.1795 78.0097C50.0112 75.9952 48.5964 74.47 47.0196 74.602L44.7304 74.7932C44.7304 74.7932 44.4153 77.8329 44.4701 78.4873Z" fill="#371A45"/>
</g>
<path d="M44.9082 82.6971L44.7861 82.2317C44.5872 81.4686 43.9332 78.955 43.8996 78.5349C43.8421 77.8463 44.128 75.0508 44.1608 74.7344L44.2097 74.2622L46.9729 74.0315C47.9155 73.9525 48.8294 74.3363 49.5484 75.1119C50.2321 75.8489 50.6589 76.8624 50.7509 77.9621C50.9453 80.2877 49.5668 82.308 47.6781 82.466L44.9082 82.6971ZM45.0428 78.4388C45.0657 78.661 45.4145 80.0807 45.7749 81.4762L47.5847 81.325C48.8442 81.2195 49.754 79.754 49.6122 78.0577C49.5413 77.2103 49.2212 76.4419 48.7113 75.8902C48.2364 75.3785 47.6525 75.1236 47.0708 75.172L45.2547 75.3238C45.1393 76.4863 45.0087 78.0546 45.0406 78.4388H45.0428Z" fill="#371A45"/>
<path d="M45.3445 82.0831C46.9213 81.9512 48.0631 80.2116 47.8946 78.1975C47.7262 76.1835 46.3114 74.6576 44.7346 74.7895C43.1578 74.9213 42.016 76.6609 42.1845 78.675C42.3529 80.6891 43.7677 82.2149 45.3445 82.0831Z" fill="#22A7F0"/>
<g opacity="0.35">
<path d="M47.8903 78.2018C48.0595 80.215 46.9172 81.9556 45.3408 82.0876C43.7644 82.2196 42.3474 80.693 42.1804 78.6763C42.1573 78.4101 42.1582 78.1424 42.1831 77.8764C42.7047 79.2257 43.8313 80.1243 45.0558 80.0201C46.4176 79.9061 47.4567 78.5932 47.6026 76.937C47.758 77.3428 47.8548 77.7687 47.8903 78.2018Z" fill="#371A45"/>
</g>
<path d="M47.8903 78.2018C47.9023 78.3372 47.907 78.4731 47.9047 78.6089C47.4599 77.0572 46.2439 75.9845 44.9099 76.0953C43.4408 76.2197 42.347 77.7386 42.3461 79.5758C42.2614 79.2827 42.2059 78.982 42.1804 78.6781C42.0112 76.6654 43.1536 74.9247 44.7299 74.7927C46.3063 74.6608 47.7211 76.1869 47.8903 78.2018Z" fill="white"/>
<path d="M45.1528 82.667C43.3601 82.667 41.7958 80.9551 41.6095 78.7265C41.5197 77.6255 41.7706 76.5563 42.3223 75.716C42.9027 74.8318 43.7411 74.3012 44.6828 74.2227C46.5739 74.0642 48.267 75.8282 48.4609 78.1533C48.5529 79.2548 48.2997 80.3236 47.7481 81.1638C47.1682 82.0485 46.3297 82.5786 45.3875 82.6572C45.309 82.6639 45.2304 82.667 45.1528 82.667ZM42.7505 78.6309C42.8923 80.3271 44.0347 81.6176 45.2924 81.5162C45.8759 81.4672 46.4082 81.1194 46.7911 80.5359C47.2027 79.9075 47.3908 79.0964 47.3199 78.2489C47.178 76.5532 46.0339 75.2587 44.778 75.3637C44.1945 75.4126 43.6626 75.7605 43.2793 76.3444C42.8677 76.9728 42.6796 77.7839 42.7505 78.6309Z" fill="#371A45"/>
<path d="M40.0331 89.2127C39.8914 89.2127 39.7547 89.1601 39.6496 89.065C39.5444 88.97 39.4783 88.8393 39.464 88.6984L38.7907 82.0795C38.772 81.8939 38.7075 81.7158 38.603 81.5612C38.4985 81.4066 38.3572 81.2804 38.1919 81.1939L36.1604 80.1265C35.8198 79.9494 35.5298 79.6885 35.3178 79.3685C35.1058 79.0484 34.9787 78.6797 34.9485 78.297L34.224 69.3858C34.2179 69.3109 34.2266 69.2355 34.2496 69.164C34.2727 69.0924 34.3096 69.0261 34.3582 68.9688C34.4069 68.9115 34.4664 68.8644 34.5333 68.8301C34.6001 68.7958 34.6731 68.775 34.748 68.7689C34.823 68.7628 34.8983 68.7715 34.9699 68.7945C35.0414 68.8175 35.1078 68.8544 35.165 68.9031C35.2223 68.9518 35.2695 69.0112 35.3038 69.0781C35.3381 69.145 35.3589 69.218 35.365 69.2929L36.0894 78.2041C36.1045 78.394 36.1676 78.5771 36.2727 78.7361C36.3778 78.895 36.5216 79.0247 36.6905 79.113L38.722 80.1799C39.0549 80.3543 39.3394 80.6086 39.5498 80.92C39.7602 81.2314 39.89 81.5902 39.9276 81.9641L40.6009 88.5825C40.6163 88.7337 40.5711 88.8848 40.4752 89.0027C40.3792 89.1205 40.2404 89.1954 40.0892 89.2109C40.0717 89.2118 40.0524 89.2127 40.0331 89.2127Z" fill="#371A45"/>
<path d="M74.1386 69.1425C74.1386 69.1425 76.8506 69.0878 77.6689 72.2172C78.1909 74.2124 77.0674 76.4854 77.0674 76.4854C77.0674 76.4854 69.5953 80.6907 56.7849 80.7545C56.7849 80.7545 52.7227 77.1802 56.4649 73.5413C56.4649 73.5413 68.1414 72.5592 74.1386 69.1425Z" fill="white"/>
<g opacity="0.35">
<path d="M77.0679 76.4863C77.0679 76.4863 69.5967 80.6907 56.7849 80.7554C56.7849 80.7554 54.1367 78.4249 55.0855 75.611C55.0905 75.6263 55.0959 75.6411 55.1008 75.6559C55.635 77.1605 57.1077 78.1336 58.7029 78.0721C70.3157 77.6232 77.0302 73.8452 77.0302 73.8452C77.2946 73.2725 77.4934 72.6717 77.6227 72.0543C77.6388 72.1077 77.655 72.1624 77.6676 72.2176C78.19 74.2119 77.0679 76.4863 77.0679 76.4863Z" fill="#371A45"/>
</g>
<path d="M57.8316 81.5027C57.335 81.5034 56.8455 81.3853 56.4038 81.1583C55.9621 80.9313 55.581 80.602 55.2925 80.1979C53.8014 78.1085 53.7215 75.9041 55.0725 73.992C55.3284 73.6301 55.6585 73.3268 56.0408 73.1024C56.423 72.8779 56.8487 72.7374 57.2894 72.6903C59.7308 72.4268 68.0853 71.3689 73.0991 68.8324C73.9241 68.4149 74.8689 68.3705 75.6917 68.7112C76.6379 69.1021 77.8772 69.9945 78.4073 72.0224C78.7596 73.369 78.4741 74.7851 78.173 75.7367C78.0407 76.1476 77.8246 76.5265 77.5383 76.8495C77.2521 77.1725 76.9019 77.4327 76.5099 77.6134C74.1597 78.7046 67.6428 81.268 57.9071 81.5L57.8316 81.5027ZM74.5413 70.012C74.2794 70.0133 74.0216 70.0762 73.7885 70.1956C68.6873 72.7765 60.6657 73.8623 57.4537 74.2092C57.2285 74.2327 57.011 74.304 56.8155 74.4181C56.62 74.5323 56.451 74.6868 56.3199 74.8713C55.3459 76.2515 55.4186 77.744 56.5353 79.3105C56.6869 79.5217 56.8878 79.6926 57.1205 79.8084C57.3533 79.9242 57.6108 79.9813 57.8707 79.9748C67.3196 79.7504 73.6036 77.2817 75.8667 76.2296C76.0671 76.1382 76.2463 76.0064 76.3931 75.8423C76.5399 75.6782 76.6511 75.4854 76.7196 75.2762C76.9597 74.5172 77.1922 73.4035 76.9323 72.4093C76.6338 71.2688 76.0207 70.4994 75.11 70.1228C74.9295 70.0491 74.7362 70.0118 74.5413 70.0129V70.012Z" fill="#371A45"/>
<path d="M18.7676 60.16C17.9004 57.9031 27.9243 54.2032 32.2674 52.8934C42.1302 49.9189 44.3197 42.3839 41.1467 37.9828C35.1891 29.7203 13.7525 36.3288 7.43081 42.5298C5.17665 44.7408 0.293981 50.1716 1.51353 58.7308" fill="white"/>
<g opacity="0.35">
<path d="M32.2683 52.8939C28.2125 54.1143 19.2093 57.4206 18.7339 59.6909C10.6922 55.8218 25.1436 51.4948 29.3207 50.3623C37.5545 48.1284 41.8721 44.2063 42.3555 40.764C43.2169 45.0708 40.2652 50.4817 32.2683 52.8939Z" fill="#371A45"/>
</g>
<g opacity="0.35">
<path d="M19.773 60.1479L18.7155 59.8656C18.7149 59.8076 18.7211 59.7497 18.7339 59.6932C19.0703 59.8665 19.4174 60.0184 19.773 60.1479Z" fill="#371A45"/>
</g>
<path d="M18.7676 60.9235C18.6132 60.9236 18.4624 60.8768 18.3351 60.7894C18.2079 60.7019 18.1101 60.578 18.0548 60.4338C17.9399 60.1349 17.8631 59.6555 18.1491 59.0715C19.6936 55.9192 31.5434 52.3144 32.047 52.1627C36.8112 50.7264 40.196 47.9753 41.3339 44.6161C42.0763 42.4247 41.7827 40.1697 40.5259 38.4295C39.0829 36.4276 36.5374 35.2574 32.9604 34.9522C24.4447 34.2246 12.3211 38.8011 7.96403 43.0765C3.36055 47.5915 1.44393 52.8225 2.26938 58.6218C2.28349 58.721 2.27792 58.8221 2.25298 58.9192C2.22803 59.0163 2.18421 59.1076 2.124 59.1877C2.0638 59.2679 1.98839 59.3354 1.90208 59.3865C1.81578 59.4375 1.72027 59.471 1.621 59.4851C1.52174 59.4993 1.42067 59.4937 1.32356 59.4687C1.22645 59.4438 1.1352 59.4 1.05503 59.3398C0.97486 59.2796 0.907333 59.2041 0.856304 59.1178C0.805275 59.0315 0.771743 58.936 0.757626 58.8368C-0.140089 52.529 1.92466 46.859 6.8962 41.9835C11.576 37.3935 24.0381 32.6567 33.092 33.4296C37.1317 33.7744 40.0493 35.1559 41.7657 37.5349C43.3129 39.6809 43.6823 42.4396 42.7801 45.1044C41.4816 48.9372 37.7305 52.042 32.4878 53.6228C26.8618 55.3195 20.304 58.1415 19.5199 59.7421C19.4835 59.8166 19.475 59.8682 19.4799 59.8848C19.5244 60.0005 19.5401 60.1252 19.5257 60.2482C19.5112 60.3713 19.467 60.4889 19.3969 60.5911C19.3267 60.6932 19.2328 60.7767 19.1231 60.8344C19.0135 60.8921 18.8915 60.9222 18.7676 60.9222V60.9235Z" fill="#371A45"/>
<path d="M88.0353 52.0963C87.9122 52.0962 87.7915 52.0622 87.6865 51.998C79.4078 46.9641 76.3304 34.5823 76.2038 34.0563C76.1662 33.8843 76.1973 33.7045 76.2906 33.5552C76.3839 33.406 76.532 33.2992 76.703 33.2578C76.8741 33.2164 77.0546 33.2436 77.2058 33.3336C77.3571 33.4236 77.4671 33.5693 77.5123 33.7394C77.5423 33.8628 80.5892 46.1067 88.3858 50.8476C88.5115 50.9239 88.6087 51.0392 88.6626 51.176C88.7165 51.3128 88.7242 51.4634 88.6845 51.605C88.6448 51.7465 88.5598 51.8712 88.4426 51.9599C88.3253 52.0486 88.1823 52.0965 88.0353 52.0963Z" fill="#371A45"/>
<path d="M20.9122 58.2407H20.9073C16.5534 58.2102 12.6389 55.982 10.1728 52.1281C7.80692 48.4314 7.30016 44.0133 8.84513 40.5974C8.88161 40.5169 8.93361 40.4443 8.99814 40.3839C9.06268 40.3234 9.13849 40.2763 9.22124 40.2451C9.304 40.214 9.39208 40.1994 9.48046 40.2023C9.56884 40.2052 9.65578 40.2254 9.73633 40.2619C9.81688 40.2984 9.88945 40.3504 9.94991 40.4149C10.0104 40.4795 10.0575 40.5553 10.0887 40.638C10.1198 40.7208 10.1344 40.8089 10.1315 40.8973C10.1286 40.9856 10.1083 41.0726 10.0719 41.1531C8.71092 44.1578 9.18401 48.0853 11.3067 51.4023C13.5227 54.8653 17.0256 56.8667 20.9167 56.8941C21.0953 56.8947 21.2663 56.9662 21.3921 57.0929C21.518 57.2196 21.5883 57.3911 21.5877 57.5697C21.5871 57.7482 21.5156 57.9192 21.389 58.0451C21.2623 58.1709 21.0908 58.2413 20.9122 58.2407Z" fill="#371A45"/>
<path d="M37.3781 106.021C37.2277 106.021 37.0817 105.971 36.9634 105.878C36.845 105.785 36.7611 105.655 36.725 105.509C35.3062 99.7856 20.8247 97.2002 15.3652 96.6849C15.2772 96.6766 15.1917 96.6511 15.1135 96.6098C15.0353 96.5685 14.966 96.5122 14.9096 96.4441C14.8532 96.376 14.8107 96.2975 14.7847 96.213C14.7586 96.1285 14.7494 96.0397 14.7577 95.9517C14.766 95.8636 14.7915 95.7781 14.8328 95.6999C14.8741 95.6217 14.9304 95.5525 14.9985 95.496C15.0666 95.4396 15.1451 95.3972 15.2296 95.3711C15.3141 95.345 15.4029 95.3359 15.4909 95.3441C16.3312 95.4231 36.0935 97.364 38.0325 105.184C38.0571 105.283 38.0588 105.386 38.0374 105.486C38.0161 105.586 37.9722 105.68 37.9092 105.761C37.8461 105.841 37.7656 105.906 37.6737 105.951C37.5817 105.996 37.4808 106.019 37.3785 106.019L37.3781 106.021Z" fill="#371A45"/>
<path d="M67.2083 107.637C66.772 107.637 66.3675 107.619 66.0004 107.583C65.8227 107.565 65.6594 107.477 65.5464 107.339C65.4334 107.201 65.3799 107.023 65.3978 106.845C65.4156 106.668 65.5034 106.504 65.6416 106.391C65.7799 106.278 65.9574 106.225 66.135 106.243C71.3579 106.764 84.3357 103.319 85.4193 98.9202C85.4405 98.8343 85.4783 98.7535 85.5307 98.6823C85.5831 98.611 85.649 98.5508 85.7247 98.5051C85.8004 98.4594 85.8843 98.429 85.9717 98.4157C86.0592 98.4024 86.1483 98.4064 86.2342 98.4276C86.32 98.4487 86.4009 98.4866 86.4721 98.539C86.5433 98.5914 86.6035 98.6573 86.6493 98.733C86.695 98.8086 86.7254 98.8926 86.7387 98.98C86.752 99.0674 86.748 99.1566 86.7268 99.2425C85.9068 102.57 80.7081 104.733 77.6819 105.727C74.0865 106.906 70.0069 107.637 67.2083 107.637Z" fill="#371A45"/>
<path d="M13.8306 112.38C13.9841 112.339 14.0892 112.315 14.2126 112.291C14.336 112.266 14.4487 112.246 14.5672 112.226C14.8019 112.189 15.0362 112.159 15.2688 112.141C15.7314 112.1 16.1958 112.082 16.6602 112.089C17.5782 112.108 18.4935 112.196 19.3982 112.353C20.296 112.512 21.1829 112.712 22.0407 113.01C22.257 113.074 22.468 113.159 22.6785 113.244C22.889 113.329 23.0995 113.411 23.3069 113.502C23.7213 113.69 24.1258 113.898 24.5188 114.127C24.0587 114.117 23.6126 114.075 23.1722 114.031C22.7234 114.003 22.2884 113.948 21.8504 113.909L20.5442 113.791C20.3274 113.775 20.1124 113.746 19.896 113.732L19.2479 113.692C18.3856 113.647 17.5265 113.626 16.6768 113.653C16.2522 113.663 15.8289 113.687 15.4124 113.721C15.2028 113.736 14.9972 113.761 14.7921 113.781L14.49 113.82C14.3953 113.832 14.2826 113.85 14.2207 113.86L14.161 113.87C13.9697 113.898 13.775 113.853 13.616 113.743C13.457 113.633 13.3457 113.467 13.3045 113.278C13.2633 113.089 13.2953 112.892 13.394 112.725C13.4928 112.559 13.6509 112.437 13.8365 112.383L13.8306 112.38Z" fill="#371A45"/>
<path d="M79.4023 115.989C79.7165 114.981 80.3656 114.09 81.1295 113.337C81.8966 112.574 82.8294 111.99 83.8142 111.526C84.3173 111.326 84.8223 111.109 85.3497 110.979C85.6118 110.91 85.8726 110.82 86.1401 110.778L86.9418 110.641C87.2111 110.587 87.4804 110.576 87.7497 110.559C88.0191 110.542 88.2884 110.524 88.5577 110.514C89.0963 110.514 89.6305 110.554 90.1641 110.589C90.3554 110.608 90.5323 110.699 90.6597 110.843C90.787 110.987 90.8553 111.174 90.8509 111.366C90.8465 111.558 90.7698 111.741 90.6361 111.879C90.5024 112.017 90.3215 112.1 90.1296 112.11H90.0488C89.5586 112.118 89.0703 112.1 88.5842 112.098C88.3421 112.114 88.1 112.127 87.8579 112.136C87.6162 112.139 87.3749 112.158 87.1357 112.193L86.4175 112.279C86.2979 112.292 86.1792 112.313 86.0625 112.343L85.7097 112.415C85.2299 112.486 84.7819 112.657 84.3137 112.779C83.3997 113.102 82.5261 113.529 81.7104 114.052C80.8591 114.594 80.083 115.245 79.4023 115.989Z" fill="#371A45"/>
</svg>
