<svg width="383" height="73" viewBox="0 0 383 73" fill="none" xmlns="http://www.w3.org/2000/svg">
<g filter="url(#filter0_d_102_2)">
<path d="M19.4 53V54H20.4V53H19.4ZM5.48 53H4.48V54H5.48V53ZM5.48 9.5V8.5H4.48V9.5H5.48ZM19.4 9.5H20.4V8.5H19.4V9.5ZM19.4 52H5.48V54H19.4V52ZM6.48 53V9.5H4.48V53H6.48ZM5.48 10.5H19.4V8.5H5.48V10.5ZM18.4 9.5V53H20.4V9.5H18.4ZM76.9451 53V54H77.9451V53H76.9451ZM69.9851 53L69.278 53.7071L69.5708 54H69.9851V53ZM66.0411 49.056L66.7482 48.3489L66.0029 47.6036L65.2978 48.387L66.0411 49.056ZM63.5471 51.144L63.008 50.3017L63.0001 50.3068L62.9924 50.312L63.5471 51.144ZM57.2251 53.696L57.4277 54.6753L57.2251 53.696ZM48.6411 53.406L48.9002 52.4402L48.8919 52.4379L48.8836 52.4359L48.6411 53.406ZM44.6971 51.492L45.3318 50.7193L44.6971 51.492ZM42.2031 47.954L43.1332 47.5868L42.2031 47.954ZM63.0251 30.032V31.032H64.0251V30.032H63.0251ZM63.0251 27.538H64.0251V26.5892L63.0776 26.5394L63.0251 27.538ZM60.9951 27.422L60.9285 28.4198L60.9327 28.4201L60.9951 27.422ZM45.8571 29.278L44.871 29.4443L45.0658 30.5996L46.1762 30.2257L45.8571 29.278ZM44.1751 19.302L43.8804 18.3464L43.0433 18.6045L43.189 19.4683L44.1751 19.302ZM55.3691 43.894H54.3691V44.894H55.3691V43.894ZM62.2131 43.198L62.8131 43.998L62.8551 43.9665L62.8935 43.9308L62.2131 43.198ZM63.0251 38.094H64.0251V37.094H63.0251V38.094ZM56.5291 38.616L56.1187 37.7041L56.5291 38.616ZM60.2411 18.156C65.7255 18.156 69.6618 19.1043 72.2025 20.851C74.6757 22.5514 75.9451 25.0903 75.9451 28.64H77.9451C77.9451 24.5337 76.4304 21.3306 73.3356 19.203C70.3083 17.1217 65.8926 16.156 60.2411 16.156V18.156ZM75.9451 28.64V53H77.9451V28.64H75.9451ZM76.9451 52H69.9851V54H76.9451V52ZM70.6922 52.2929L66.7482 48.3489L65.334 49.7631L69.278 53.7071L70.6922 52.2929ZM65.2978 48.387C64.6676 49.0872 63.9068 49.7265 63.008 50.3017L64.0861 51.9863C65.1206 51.3242 66.0225 50.5714 66.7844 49.725L65.2978 48.387ZM62.9924 50.312C62.1262 50.8894 61.1846 51.3789 60.1654 51.7792L60.8967 53.6408C62.0429 53.1905 63.112 52.6359 64.1018 51.9761L62.9924 50.312ZM60.1654 51.7792C59.1348 52.1841 58.0873 52.4964 57.0225 52.7167L57.4277 54.6753C58.6055 54.4316 59.762 54.0865 60.8967 53.6408L60.1654 51.7792ZM57.0225 52.7167C55.9614 52.9363 54.9468 53.044 53.9771 53.044V55.044C55.0953 55.044 56.246 54.9197 57.4277 54.6753L57.0225 52.7167ZM53.9771 53.044C52.0756 53.044 50.3861 52.8388 48.9002 52.4402L48.3819 54.3718C50.0667 54.8239 51.9345 55.044 53.9771 55.044V53.044ZM48.8836 52.4359C47.4608 52.0802 46.2851 51.5024 45.3318 50.7193L44.0623 52.2647C45.2743 53.2603 46.728 53.9585 48.3985 54.3761L48.8836 52.4359ZM45.3318 50.7193C44.3965 49.951 43.6589 48.9186 43.1332 47.5868L41.2729 48.3212C41.9072 49.9281 42.8323 51.2543 44.0623 52.2647L45.3318 50.7193ZM43.1332 47.5868C42.6123 46.2672 42.3331 44.6019 42.3331 42.56H40.3331C40.3331 44.7715 40.6338 46.7021 41.2729 48.3212L43.1332 47.5868ZM42.3331 42.56C42.3331 38.6779 43.7735 35.8786 46.6124 33.9976C49.5236 32.0687 54.0171 31.032 60.2411 31.032V29.032C53.8596 29.032 48.8992 30.0833 45.5077 32.3304C42.044 34.6254 40.3331 38.09 40.3331 42.56H42.3331ZM60.2411 31.032H63.0251V29.032H60.2411V31.032ZM64.0251 30.032V27.538H62.0251V30.032H64.0251ZM63.0776 26.5394C62.3456 26.5009 61.6723 26.4624 61.0574 26.4239L60.9327 28.4201C61.5552 28.459 62.2351 28.4978 62.9725 28.5366L63.0776 26.5394ZM61.0616 26.4242C60.4628 26.3843 59.899 26.364 59.3711 26.364V28.364C59.8484 28.364 60.3674 28.3824 60.9285 28.4198L61.0616 26.4242ZM59.3711 26.364C54.0738 26.364 49.4561 27.0109 45.5379 28.3303L46.1762 30.2257C49.8367 28.9931 54.2283 28.364 59.3711 28.364V26.364ZM46.8431 29.1117L45.1611 19.1357L43.189 19.4683L44.871 29.4443L46.8431 29.1117ZM44.4697 20.2576C48.9939 18.8627 54.2464 18.156 60.2411 18.156V16.156C54.0944 16.156 48.6362 16.88 43.8804 18.3464L44.4697 20.2576ZM54.3691 41.052V43.894H56.3691V41.052H54.3691ZM55.3691 44.894H58.2691V42.894H55.3691V44.894ZM58.2691 44.894C59.3066 44.894 60.2012 44.8346 60.9368 44.7048C61.6517 44.5786 62.3178 44.3695 62.8131 43.998L61.6131 42.398C61.4897 42.4905 61.1891 42.6294 60.5893 42.7352C60.0103 42.8374 59.2422 42.894 58.2691 42.894V44.894ZM62.8935 43.9308C63.6246 43.252 64.0251 42.3927 64.0251 41.4H62.0251C62.0251 41.7993 61.8842 42.1387 61.5326 42.4652L62.8935 43.9308ZM64.0251 41.4V38.094H62.0251V41.4H64.0251ZM63.0251 37.094H60.1831V39.094H63.0251V37.094ZM60.1831 37.094C58.489 37.094 57.0934 37.2654 56.1187 37.7041L56.9394 39.5279C57.5113 39.2706 58.5518 39.094 60.1831 39.094V37.094ZM56.1187 37.7041C54.8182 38.2893 54.3691 39.6082 54.3691 41.052H56.3691C56.3691 39.9438 56.6932 39.6387 56.9394 39.5279L56.1187 37.7041ZM102.679 53H101.679V54H102.679V53ZM102.679 28.64H103.679V27.64H102.679V28.64ZM99.8949 28.698L99.8284 27.7002L99.8237 27.7005L99.8949 28.698ZM98.4449 29.104L98.8587 30.0144L98.8919 29.9993L98.9238 29.9819L98.4449 29.104ZM97.4589 30.032L98.3368 30.5109L97.4589 30.032ZM97.1109 53V54H98.1109V53H97.1109ZM83.1909 53H82.1909V54H83.1909V53ZM83.1909 18.2V17.2H82.1909V18.2H83.1909ZM90.1509 18.2L90.8645 17.4994L90.5705 17.2H90.1509V18.2ZM93.2829 21.39L92.5694 22.0906L93.2764 22.8107L93.99 22.0971L93.2829 21.39ZM114.395 19.998L113.723 20.7386L114.295 21.2577L114.942 20.8352L114.395 19.998ZM132.955 19.302L132.383 20.122L132.391 20.1281L132.4 20.134L132.955 19.302ZM136.087 53V54H137.087V53H136.087ZM122.167 53H121.167V54H122.167V53ZM122.167 28.64H123.167V27.64H122.167V28.64ZM119.557 28.698L119.486 27.7005V27.7005L119.557 28.698ZM118.107 29.046L118.478 29.9745L118.5 29.9659L118.521 29.9564L118.107 29.046ZM117.063 29.858L116.282 29.2333L116.262 29.2583L116.244 29.2845L117.063 29.858ZM116.599 31.424L115.601 31.3653L115.599 31.3946V31.424H116.599ZM116.599 53V54H117.599V53H116.599ZM103.679 53V28.64H101.679V53H103.679ZM102.679 27.64H101.693V29.64H102.679V27.64ZM101.693 27.64C101.053 27.64 100.432 27.66 99.8284 27.7002L99.9615 29.6958C100.518 29.6587 101.095 29.64 101.693 29.64V27.64ZM99.8237 27.7005C99.1567 27.7482 98.5315 27.9177 97.9661 28.2261L98.9238 29.9819C99.209 29.8263 99.5505 29.7252 99.9662 29.6955L99.8237 27.7005ZM98.0311 28.1936C97.4007 28.4802 96.9128 28.945 96.581 29.5531L98.3368 30.5109C98.4691 30.2683 98.6385 30.1145 98.8587 30.0144L98.0311 28.1936ZM96.581 29.5531C96.2348 30.1879 96.1109 30.979 96.1109 31.83H98.1109C98.1109 31.1343 98.2191 30.7268 98.3368 30.5109L96.581 29.5531ZM96.1109 31.83V53H98.1109V31.83H96.1109ZM97.1109 52H83.1909V54H97.1109V52ZM84.1909 53V18.2H82.1909V53H84.1909ZM83.1909 19.2H90.1509V17.2H83.1909V19.2ZM89.4374 18.9006L92.5694 22.0906L93.9965 20.6894L90.8645 17.4994L89.4374 18.9006ZM93.99 22.0971C96.5963 19.4909 100.039 18.156 104.419 18.156V16.156C99.5963 16.156 95.6149 17.6438 92.5758 20.6829L93.99 22.0971ZM104.419 18.156C108.878 18.156 111.904 19.0878 113.723 20.7386L115.067 19.2574C112.71 17.1189 109.085 16.156 104.419 16.156V18.156ZM114.942 20.8352C117.669 19.0533 120.764 18.156 124.255 18.156V16.156C120.4 16.156 116.921 17.1534 113.848 19.1608L114.942 20.8352ZM124.255 18.156C127.897 18.156 130.566 18.8537 132.383 20.122L133.527 18.482C131.245 16.8889 128.114 16.156 124.255 16.156V18.156ZM132.4 20.134C134.21 21.3402 135.087 22.9804 135.087 25.16H137.087C137.087 22.3129 135.876 20.0478 133.51 18.4699L132.4 20.134ZM135.087 25.16V53H137.087V25.16H135.087ZM136.087 52H122.167V54H136.087V52ZM123.167 53V28.64H121.167V53H123.167ZM122.167 27.64H121.181V29.64H122.167V27.64ZM121.181 27.64C120.616 27.64 120.051 27.6602 119.486 27.7005L119.628 29.6955C120.146 29.6585 120.663 29.64 121.181 29.64V27.64ZM119.486 27.7005C118.845 27.7463 118.243 27.8859 117.693 28.1356L118.521 29.9564C118.822 29.8194 119.186 29.727 119.628 29.6955L119.486 27.7005ZM117.736 28.1175C117.161 28.3475 116.679 28.7373 116.282 29.2333L117.844 30.4827C118.066 30.2054 118.28 30.0538 118.478 29.9745L117.736 28.1175ZM116.244 29.2845C115.833 29.8715 115.646 30.593 115.601 31.3653L117.597 31.4827C117.629 30.9404 117.752 30.6178 117.882 30.4315L116.244 29.2845ZM115.599 31.424V53H117.599V31.424H115.599ZM116.599 52H102.679V54H116.599V52ZM157.964 53L156.972 53.124L157.081 54H157.964V53ZM156.572 41.864V40.864H155.439L155.58 41.988L156.572 41.864ZM165.156 41.226L165.802 41.9894L165.834 41.9625L165.863 41.9331L165.156 41.226ZM165.678 20.636H166.678V19.636H165.678V20.636ZM159.936 20.636H158.936V21.636H159.936V20.636ZM159.936 9.5V8.5H158.936V9.5H159.936ZM179.598 9.5H180.598V8.5H179.598V9.5ZM176.814 50.1L176.093 49.4074L176.086 49.4151L176.814 50.1ZM168.81 52H157.964V54H168.81V52ZM158.957 52.876L157.565 41.74L155.58 41.988L156.972 53.124L158.957 52.876ZM156.572 42.864H162.372V40.864H156.572V42.864ZM162.372 42.864C163.753 42.864 165.006 42.6628 165.802 41.9894L164.51 40.4626C164.301 40.6398 163.698 40.864 162.372 40.864V42.864ZM165.863 41.9331C166.444 41.3522 166.678 40.588 166.678 39.776H164.678C164.678 40.2013 164.564 40.4038 164.449 40.5189L165.863 41.9331ZM166.678 39.776V20.636H164.678V39.776H166.678ZM165.678 19.636H159.936V21.636H165.678V19.636ZM160.936 20.636V9.5H158.936V20.636H160.936ZM159.936 10.5H179.598V8.5H159.936V10.5ZM178.598 9.5V41.516H180.598V9.5H178.598ZM178.598 41.516C178.598 45.1546 177.707 47.7256 176.093 49.4075L177.536 50.7925C179.633 48.6077 180.598 45.4561 180.598 41.516H178.598ZM176.086 49.4151C174.513 51.0878 172.147 52 168.81 52V54C172.511 54 175.481 52.9789 177.543 50.7849L176.086 49.4151ZM184.845 18.2V17.2H183.845V18.2H184.845ZM198.765 18.2H199.765V17.2H198.765V18.2ZM198.765 43.894H197.765V44.894H198.765V43.894ZM204.565 43.372L204.154 42.4601L204.145 42.4641L204.136 42.4683L204.565 43.372ZM205.725 18.2V17.2H204.725V18.2H205.725ZM219.645 18.2H220.645V17.2H219.645V18.2ZM219.645 53V54H220.645V53H219.645ZM212.685 53L211.988 53.7173L212.279 54H212.685V53ZM208.625 49.056L209.321 48.3387L208.549 47.5885L207.858 48.4141L208.625 49.056ZM187.687 51.434L187.002 52.1631L187.01 52.1705L187.687 51.434ZM184.845 19.2H198.765V17.2H184.845V19.2ZM197.765 18.2V43.894H199.765V18.2H197.765ZM198.765 44.894H200.911V42.894H198.765V44.894ZM200.911 44.894C202.633 44.894 204.044 44.7253 204.993 44.2757L204.136 42.4683C203.616 42.7147 202.591 42.894 200.911 42.894V44.894ZM204.975 44.2839C206.275 43.6987 206.725 42.3798 206.725 40.936H204.725C204.725 42.0442 204.4 42.3493 204.154 42.4601L204.975 44.2839ZM206.725 40.936V18.2H204.725V40.936H206.725ZM205.725 19.2H219.645V17.2H205.725V19.2ZM218.645 18.2V53H220.645V18.2H218.645ZM219.645 52H212.685V54H219.645V52ZM213.381 52.2827L209.321 48.3387L207.928 49.7733L211.988 53.7173L213.381 52.2827ZM207.858 48.4141C205.3 51.4696 201.642 53.044 196.735 53.044V55.044C202.112 55.044 206.381 53.2931 209.391 49.6979L207.858 48.4141ZM196.735 53.044C192.703 53.044 189.989 52.1906 188.363 50.6975L187.01 52.1705C189.174 54.1574 192.491 55.044 196.735 55.044V53.044ZM188.371 50.7049C186.77 49.202 185.845 46.5804 185.845 42.56H183.845C183.845 46.8143 184.814 50.1087 187.002 52.1631L188.371 50.7049ZM185.845 42.56V18.2H183.845V42.56H185.845ZM246.093 53H245.093V54H246.093V53ZM246.093 28.64H247.093V27.64H246.093V28.64ZM243.309 28.698L243.242 27.7002L243.238 27.7005L243.309 28.698ZM241.859 29.104L242.273 30.0144L242.306 29.9993L242.338 29.9819L241.859 29.104ZM240.873 30.032L241.751 30.5109L240.873 30.032ZM240.525 53V54H241.525V53H240.525ZM226.605 53H225.605V54H226.605V53ZM226.605 18.2V17.2H225.605V18.2H226.605ZM233.565 18.2L234.279 17.4994L233.985 17.2H233.565V18.2ZM236.697 21.39L235.983 22.0906L236.69 22.8107L237.404 22.0971L236.697 21.39ZM257.809 19.998L257.137 20.7386L257.709 21.2577L258.356 20.8352L257.809 19.998ZM276.369 19.302L275.797 20.122L275.805 20.1281L275.814 20.134L276.369 19.302ZM279.501 53V54H280.501V53H279.501ZM265.581 53H264.581V54H265.581V53ZM265.581 28.64H266.581V27.64H265.581V28.64ZM262.971 28.698L262.9 27.7005V27.7005L262.971 28.698ZM261.521 29.046L261.892 29.9745L261.914 29.9659L261.935 29.9564L261.521 29.046ZM260.477 29.858L259.696 29.2333L259.676 29.2583L259.658 29.2845L260.477 29.858ZM260.013 31.424L259.015 31.3653L259.013 31.3946V31.424H260.013ZM260.013 53V54H261.013V53H260.013ZM247.093 53V28.64H245.093V53H247.093ZM246.093 27.64H245.107V29.64H246.093V27.64ZM245.107 27.64C244.468 27.64 243.846 27.66 243.242 27.7002L243.376 29.6958C243.932 29.6587 244.509 29.64 245.107 29.64V27.64ZM243.238 27.7005C242.571 27.7482 241.946 27.9177 241.38 28.2261L242.338 29.9819C242.623 29.8263 242.965 29.7252 243.38 29.6955L243.238 27.7005ZM241.445 28.1936C240.815 28.4802 240.327 28.945 239.995 29.5531L241.751 30.5109C241.883 30.2683 242.053 30.1145 242.273 30.0144L241.445 28.1936ZM239.995 29.5531C239.649 30.1879 239.525 30.979 239.525 31.83H241.525C241.525 31.1343 241.633 30.7268 241.751 30.5109L239.995 29.5531ZM239.525 31.83V53H241.525V31.83H239.525ZM240.525 52H226.605V54H240.525V52ZM227.605 53V18.2H225.605V53H227.605ZM226.605 19.2H233.565V17.2H226.605V19.2ZM232.851 18.9006L235.983 22.0906L237.411 20.6894L234.279 17.4994L232.851 18.9006ZM237.404 22.0971C240.01 19.4909 243.453 18.156 247.833 18.156V16.156C243.01 16.156 239.029 17.6438 235.99 20.6829L237.404 22.0971ZM247.833 18.156C252.292 18.156 255.318 19.0878 257.137 20.7386L258.481 19.2574C256.124 17.1189 252.499 16.156 247.833 16.156V18.156ZM258.356 20.8352C261.083 19.0533 264.178 18.156 267.669 18.156V16.156C263.814 16.156 260.335 17.1534 257.262 19.1608L258.356 20.8352ZM267.669 18.156C271.312 18.156 273.98 18.8537 275.797 20.122L276.941 18.482C274.659 16.8889 271.528 16.156 267.669 16.156V18.156ZM275.814 20.134C277.624 21.3402 278.501 22.9804 278.501 25.16H280.501C280.501 22.3129 279.29 20.0478 276.924 18.4699L275.814 20.134ZM278.501 25.16V53H280.501V25.16H278.501ZM279.501 52H265.581V54H279.501V52ZM266.581 53V28.64H264.581V53H266.581ZM265.581 27.64H264.595V29.64H265.581V27.64ZM264.595 27.64C264.03 27.64 263.465 27.6602 262.9 27.7005L263.042 29.6955C263.56 29.6585 264.078 29.64 264.595 29.64V27.64ZM262.9 27.7005C262.259 27.7463 261.657 27.8859 261.107 28.1356L261.935 29.9564C262.236 29.8194 262.601 29.727 263.042 29.6955L262.9 27.7005ZM261.15 28.1175C260.575 28.3475 260.093 28.7373 259.696 29.2333L261.258 30.4827C261.48 30.2054 261.694 30.0538 261.892 29.9745L261.15 28.1175ZM259.658 29.2845C259.247 29.8715 259.06 30.593 259.015 31.3653L261.011 31.4827C261.043 30.9404 261.166 30.6178 261.296 30.4315L259.658 29.2845ZM259.013 31.424V53H261.013V31.424H259.013ZM260.013 52H246.093V54H260.013V52ZM286.078 51.26H285.078V51.9839L285.765 52.21L286.078 51.26ZM286.078 7.76L286.003 6.7628L285.078 6.83219V7.76H286.078ZM299.998 6.716H300.998V5.63819L299.923 5.7188L299.998 6.716ZM299.998 18.258H298.998V19.7791L300.394 19.1761L299.998 18.258ZM313.976 18.664L313.507 19.5473L313.976 18.664ZM318.558 22.724L317.731 23.2873L317.739 23.2982L317.746 23.3088L318.558 22.724ZM321.11 28.582L320.134 28.8007L320.136 28.8087L320.138 28.8166L321.11 28.582ZM317.398 49.752L318.086 50.4775L318.091 50.4728L317.398 49.752ZM299.998 29.916L298.999 29.8661L298.998 29.891V29.916H299.998ZM299.998 43.894H298.998V44.894H299.998V43.894ZM305.798 43.372L305.387 42.4601L305.378 42.4641L305.37 42.4683L305.798 43.372ZM306.958 27.306H307.958V26.306H306.958V27.306ZM300.752 28.176L301.392 28.9442L301.41 28.9291L301.427 28.9132L300.752 28.176ZM287.078 51.26V7.76H285.078V51.26H287.078ZM286.152 8.7572L300.072 7.7132L299.923 5.7188L286.003 6.7628L286.152 8.7572ZM298.998 6.716V18.258H300.998V6.716H298.998ZM300.394 19.1761C301.918 18.5178 304.084 18.156 306.958 18.156V16.156C303.954 16.156 301.48 16.5288 299.601 17.3399L300.394 19.1761ZM306.958 18.156C309.625 18.156 311.793 18.638 313.507 19.5473L314.444 17.7807C312.369 16.6793 309.858 16.156 306.958 16.156V18.156ZM313.507 19.5473C315.264 20.4799 316.667 21.7258 317.731 23.2873L319.384 22.1607C318.129 20.3196 316.476 18.8588 314.444 17.7807L313.507 19.5473ZM317.746 23.3088C318.857 24.8493 319.657 26.6739 320.134 28.8007L322.085 28.3633C321.557 26.0047 320.656 23.9241 319.369 22.1392L317.746 23.3088ZM320.138 28.8166C320.659 30.9783 320.922 33.2386 320.922 35.6H322.922C322.922 33.0894 322.643 30.671 322.082 28.3474L320.138 28.8166ZM320.922 35.6C320.922 42.0121 319.438 46.4029 316.705 49.0312L318.091 50.4728C321.389 47.3011 322.922 42.2572 322.922 35.6H320.922ZM316.709 49.0265C313.95 51.644 309.682 53.044 303.71 53.044V55.044C309.956 55.044 314.813 53.5827 318.086 50.4775L316.709 49.0265ZM303.71 53.044C297.703 53.044 291.932 52.132 286.39 50.31L285.765 52.21C291.514 54.1 297.497 55.044 303.71 55.044V53.044ZM298.998 29.916V43.894H300.998V29.916H298.998ZM299.998 44.894H302.144V42.894H299.998V44.894ZM302.144 44.894C303.866 44.894 305.277 44.7253 306.226 44.2757L305.37 42.4683C304.849 42.7147 303.824 42.894 302.144 42.894V44.894ZM306.208 44.2839C307.508 43.6987 307.958 42.3798 307.958 40.936H305.958C305.958 42.0442 305.633 42.3493 305.387 42.4601L306.208 44.2839ZM307.958 40.936V27.306H305.958V40.936H307.958ZM306.958 26.306H304.812V28.306H306.958V26.306ZM304.812 26.306C303.787 26.306 302.928 26.3451 302.252 26.4297L302.5 28.4143C303.06 28.3442 303.826 28.306 304.812 28.306V26.306ZM302.252 26.4297C301.425 26.5331 300.691 26.8747 300.076 27.4388L301.427 28.9132C301.74 28.6266 302.089 28.4656 302.5 28.4143L302.252 26.4297ZM300.111 27.4078C299.376 28.0206 299.047 28.8972 298.999 29.8661L300.996 29.9659C301.025 29.3881 301.199 29.1048 301.392 28.9442L300.111 27.4078ZM360.658 53V54H361.658V53H360.658ZM353.698 53L352.991 53.7071L353.284 54H353.698V53ZM349.754 49.056L350.461 48.3489L349.716 47.6036L349.011 48.387L349.754 49.056ZM347.26 51.144L346.721 50.3017L346.713 50.3068L346.705 50.312L347.26 51.144ZM340.938 53.696L341.141 54.6753L340.938 53.696ZM332.354 53.406L332.613 52.4402L332.605 52.4379L332.596 52.4359L332.354 53.406ZM328.41 51.492L329.045 50.7193L328.41 51.492ZM325.916 47.954L326.846 47.5868L325.916 47.954ZM346.738 30.032V31.032H347.738V30.032H346.738ZM346.738 27.538H347.738V26.5892L346.791 26.5394L346.738 27.538ZM344.708 27.422L344.641 28.4198L344.646 28.4201L344.708 27.422ZM329.57 29.278L328.584 29.4443L328.779 30.5996L329.889 30.2257L329.57 29.278ZM327.888 19.302L327.593 18.3464L326.756 18.6045L326.902 19.4683L327.888 19.302ZM339.082 43.894H338.082V44.894H339.082V43.894ZM345.926 43.198L346.526 43.998L346.568 43.9665L346.606 43.9308L345.926 43.198ZM346.738 38.094H347.738V37.094H346.738V38.094ZM340.242 38.616L339.832 37.7041H339.832L340.242 38.616ZM343.954 18.156C349.438 18.156 353.375 19.1043 355.915 20.851C358.389 22.5514 359.658 25.0903 359.658 28.64H361.658C361.658 24.5337 360.143 21.3306 357.048 19.203C354.021 17.1217 349.605 16.156 343.954 16.156V18.156ZM359.658 28.64V53H361.658V28.64H359.658ZM360.658 52H353.698V54H360.658V52ZM354.405 52.2929L350.461 48.3489L349.047 49.7631L352.991 53.7071L354.405 52.2929ZM349.011 48.387C348.38 49.0872 347.62 49.7265 346.721 50.3017L347.799 51.9863C348.834 51.3242 349.735 50.5714 350.497 49.725L349.011 48.387ZM346.705 50.312C345.839 50.8894 344.897 51.3789 343.878 51.7792L344.61 53.6408C345.756 53.1905 346.825 52.6359 347.815 51.9761L346.705 50.312ZM343.878 51.7792C342.848 52.1841 341.8 52.4964 340.735 52.7167L341.141 54.6753C342.318 54.4316 343.475 54.0865 344.61 53.6408L343.878 51.7792ZM340.735 52.7167C339.674 52.9363 338.66 53.044 337.69 53.044V55.044C338.808 55.044 339.959 54.9197 341.141 54.6753L340.735 52.7167ZM337.69 53.044C335.788 53.044 334.099 52.8388 332.613 52.4402L332.095 54.3718C333.78 54.8239 335.647 55.044 337.69 55.044V53.044ZM332.596 52.4359C331.174 52.0802 329.998 51.5024 329.045 50.7193L327.775 52.2647C328.987 53.2603 330.441 53.9585 332.111 54.3761L332.596 52.4359ZM329.045 50.7193C328.109 49.951 327.372 48.9186 326.846 47.5868L324.986 48.3212C325.62 49.9281 326.545 51.2543 327.775 52.2647L329.045 50.7193ZM326.846 47.5868C326.325 46.2672 326.046 44.6019 326.046 42.56H324.046C324.046 44.7715 324.347 46.7021 324.986 48.3212L326.846 47.5868ZM326.046 42.56C326.046 38.6779 327.486 35.8786 330.325 33.9976C333.237 32.0687 337.73 31.032 343.954 31.032V29.032C337.573 29.032 332.612 30.0833 329.221 32.3304C325.757 34.6254 324.046 38.09 324.046 42.56H326.046ZM343.954 31.032H346.738V29.032H343.954V31.032ZM347.738 30.032V27.538H345.738V30.032H347.738ZM346.791 26.5394C346.059 26.5009 345.385 26.4624 344.77 26.4239L344.646 28.4201C345.268 28.459 345.948 28.4978 346.685 28.5366L346.791 26.5394ZM344.774 26.4242C344.176 26.3843 343.612 26.364 343.084 26.364V28.364C343.561 28.364 344.08 28.3824 344.641 28.4198L344.774 26.4242ZM343.084 26.364C337.787 26.364 333.169 27.0109 329.251 28.3303L329.889 30.2257C333.55 28.9931 337.941 28.364 343.084 28.364V26.364ZM330.556 29.1117L328.874 19.1357L326.902 19.4683L328.584 29.4443L330.556 29.1117ZM328.183 20.2576C332.707 18.8627 337.959 18.156 343.954 18.156V16.156C337.807 16.156 332.349 16.88 327.593 18.3464L328.183 20.2576ZM338.082 41.052V43.894H340.082V41.052H338.082ZM339.082 44.894H341.982V42.894H339.082V44.894ZM341.982 44.894C343.02 44.894 343.914 44.8346 344.65 44.7048C345.365 44.5786 346.031 44.3695 346.526 43.998L345.326 42.398C345.203 42.4905 344.902 42.6294 344.302 42.7352C343.723 42.8374 342.955 42.894 341.982 42.894V44.894ZM346.606 43.9308C347.337 43.252 347.738 42.3927 347.738 41.4H345.738C345.738 41.7993 345.597 42.1387 345.246 42.4652L346.606 43.9308ZM347.738 41.4V38.094H345.738V41.4H347.738ZM346.738 37.094H343.896V39.094H346.738V37.094ZM343.896 37.094C342.202 37.094 340.806 37.2654 339.832 37.7041L340.652 39.5279C341.224 39.2706 342.265 39.094 343.896 39.094V37.094ZM339.832 37.7041C338.531 38.2893 338.082 39.6082 338.082 41.052H340.082C340.082 39.9438 340.406 39.6387 340.652 39.5279L339.832 37.7041ZM367.194 29.8L366.194 29.8143L366.194 29.8362L366.196 29.858L367.194 29.8ZM366.904 9.5V8.5H365.889L365.904 9.51428L366.904 9.5ZM377.808 9.5L378.808 9.51428L378.822 8.5H377.808V9.5ZM377.518 29.8L378.516 29.858L378.517 29.8362L378.518 29.8143L377.518 29.8ZM376.938 39.776V40.776H377.881L377.936 39.834L376.938 39.776ZM367.774 39.776L366.776 39.834L366.83 40.776H367.774V39.776ZM376.184 44.184L375.477 44.8911L375.483 44.8978L375.49 44.9043L376.184 44.184ZM376.184 52.072L375.49 51.3517L375.483 51.3582L375.477 51.3649L376.184 52.072ZM368.47 52.014L367.763 52.7211L368.47 52.014ZM368.47 44.184L367.776 43.4637L368.47 44.184ZM368.194 29.7857L367.904 9.48571L365.904 9.51428L366.194 29.8143L368.194 29.7857ZM366.904 10.5H377.808V8.5H366.904V10.5ZM376.808 9.48571L376.518 29.7857L378.518 29.8143L378.808 9.51428L376.808 9.48571ZM376.52 29.742L375.94 39.718L377.936 39.834L378.516 29.858L376.52 29.742ZM376.938 38.776H367.774V40.776H376.938V38.776ZM368.772 39.718L368.192 29.742L366.196 29.858L366.776 39.834L368.772 39.718ZM372.356 43.676C373.663 43.676 374.676 44.0907 375.477 44.8911L376.891 43.4769C375.681 42.2666 374.142 41.676 372.356 41.676V43.676ZM375.49 44.9043C376.314 45.6976 376.75 46.7398 376.75 48.128H378.75C378.75 46.2682 378.142 44.6811 376.877 43.4637L375.49 44.9043ZM376.75 48.128C376.75 49.5162 376.314 50.5584 375.49 51.3517L376.877 52.7923C378.142 51.5749 378.75 49.9878 378.75 48.128H376.75ZM375.477 51.3649C374.676 52.1653 373.663 52.58 372.356 52.58V54.58C374.142 54.58 375.681 53.9894 376.891 52.7791L375.477 51.3649ZM372.356 52.58C371.06 52.58 370.024 52.1537 369.177 51.3069L367.763 52.7211C369.004 53.9623 370.558 54.58 372.356 54.58V52.58ZM369.177 51.3069C368.33 50.4601 367.904 49.4235 367.904 48.128H365.904C365.904 49.9258 366.521 51.4799 367.763 52.7211L369.177 51.3069ZM367.904 48.128C367.904 46.7398 368.34 45.6976 369.163 44.9043L367.776 43.4637C366.512 44.6811 365.904 46.2682 365.904 48.128H367.904ZM369.163 44.9043C370.008 44.0913 371.049 43.676 372.356 43.676V41.676C370.57 41.676 369.02 42.2661 367.776 43.4637L369.163 44.9043Z" fill="#CEB7FF"/>
</g>
<defs>
<filter id="filter0_d_102_2" x="0.47998" y="1.716" width="382.328" height="57.328" filterUnits="userSpaceOnUse" color-interpolation-filters="sRGB">
<feFlood flood-opacity="0" result="BackgroundImageFix"/>
<feColorMatrix in="SourceAlpha" type="matrix" values="0 0 0 0 0 0 0 0 0 0 0 0 0 0 0 0 0 0 127 0" result="hardAlpha"/>
<feOffset/>
<feGaussianBlur stdDeviation="2.5"/>
<feComposite in2="hardAlpha" operator="out"/>
<feColorMatrix type="matrix" values="0 0 0 0 0.701961 0 0 0 0 0.466667 0 0 0 0 1 0 0 0 1 0"/>
<feBlend mode="normal" in2="BackgroundImageFix" result="effect1_dropShadow_102_2"/>
<feBlend mode="normal" in="SourceGraphic" in2="effect1_dropShadow_102_2" result="shape"/>
</filter>
</defs>
</svg>
