<svg width="45" height="45" viewBox="0 0 45 45" fill="none" xmlns="http://www.w3.org/2000/svg">
<path fill-rule="evenodd" clip-rule="evenodd" d="M0 4.5C0 3.30653 0.464988 2.16193 1.29267 1.31802C2.12036 0.474106 3.24294 0 4.41346 0L39.7212 0C40.8917 0 42.0143 0.474106 42.8419 1.31802C43.6696 2.16193 44.1346 3.30653 44.1346 4.5V40.5C44.1346 41.6935 43.6696 42.8381 42.8419 43.682C42.0143 44.5259 40.8917 45 39.7212 45H4.41346C3.24294 45 2.12036 44.5259 1.29267 43.682C0.464988 42.8381 0 41.6935 0 40.5L0 4.5ZM14.7115 15H11.7692V12H14.7115V15ZM11.7692 33V18H14.7115V33H11.7692ZM25.0096 21C23.8391 21 22.7165 21.4741 21.8888 22.318C21.0611 23.1619 20.5962 24.3065 20.5962 25.5V33H17.6538V18H20.5962V19.5C21.689 18.6643 22.9885 18.1554 24.349 18.0303C25.7096 17.9052 27.0774 18.1689 28.2992 18.7918C29.5211 19.4147 30.5486 20.3722 31.2668 21.557C31.985 22.7418 32.3654 24.1072 32.3654 25.5V33H29.4231V25.5C29.4231 24.3065 28.9581 23.1619 28.1304 22.318C27.3027 21.4741 26.1801 21 25.0096 21Z" fill="#CEB7FF"/>
</svg>
