<svg width="390" height="132" viewBox="0 0 390 132" fill="none" xmlns="http://www.w3.org/2000/svg">
<g filter="url(#filter0_d_21_3747)">
<path d="M6.84156 89.246L5.85599 89.0768L5.69504 90.0141L6.62309 90.2218L6.84156 89.246ZM8.81356 77.762L9.05194 76.7908L8.00963 76.535L7.82799 77.5928L8.81356 77.762ZM24.9376 79.27L24.967 80.2696L24.9808 80.2692L24.9946 80.2684L24.9376 79.27ZM28.5336 78.922L28.6801 79.9112L29.5336 79.7848V78.922H28.5336ZM28.5336 75.442H29.5336V74.5219L28.6166 74.4455L28.5336 75.442ZM22.2696 74.92L22.1741 75.9155L22.1865 75.9165L22.2696 74.92ZM15.1936 73.528L14.8658 74.4728L14.8658 74.4728L15.1936 73.528ZM10.6116 70.86L9.89257 71.555L9.90435 71.5672L9.91654 71.579L10.6116 70.86ZM8.17556 66.742L7.21404 67.0167L7.21799 67.0305L7.22233 67.0442L8.17556 66.742ZM8.40756 53.634L9.36172 53.9333L9.36334 53.9281L8.40756 53.634ZM11.3656 48.82L12.0286 49.5686L12.0345 49.5634L12.0403 49.558L11.3656 48.82ZM16.5856 46.21L16.3594 45.2359L16.3555 45.2368L16.5856 46.21ZM41.1776 47.196L42.1656 47.3504L42.309 46.4324L41.4041 46.222L41.1776 47.196ZM39.4376 58.332L39.2789 59.3193L40.2705 59.4787L40.4256 58.4864L39.4376 58.332ZM22.4436 57.636L22.3169 56.644L21.4436 56.7555V57.636H22.4436ZM22.4436 61.058H21.4436V61.9693L22.3509 62.0537L22.4436 61.058ZM27.4316 61.522L27.5323 60.5271L27.5242 60.5263L27.4316 61.522ZM35.0876 63.088L34.7501 64.0293L34.758 64.0322L34.766 64.0349L35.0876 63.088ZM40.0176 65.872L39.3336 66.6015L39.3392 66.6068L39.3449 66.6119L40.0176 65.872ZM42.6856 69.99L41.7323 70.2922L41.7357 70.3027L41.7392 70.3131L42.6856 69.99ZM42.3376 82.866L41.4042 82.507L41.4042 82.507L42.3376 82.866ZM39.5536 87.448L40.2448 88.1706L40.2477 88.1678L39.5536 87.448ZM36.2476 89.478L36.5804 90.421L36.5926 90.4167L36.6047 90.4121L36.2476 89.478ZM32.0716 90.522L32.2275 91.5098L32.2275 91.5098L32.0716 90.522ZM27.6056 90.928L27.5799 89.9283L27.5665 89.9287L27.553 89.9294L27.6056 90.928ZM14.9036 90.58L15.014 89.5861L15.014 89.5861L14.9036 90.58ZM7.82714 89.4152L9.79914 77.9312L7.82799 77.5928L5.85599 89.0768L7.82714 89.4152ZM8.57518 78.7332C12.8865 79.7914 16.8156 80.328 20.3556 80.328V78.328C17.0129 78.328 13.2473 77.8206 9.05194 76.7908L8.57518 78.7332ZM20.3556 80.328C22.1024 80.328 23.64 80.3086 24.967 80.2696L24.9082 78.2704C23.6058 78.3087 22.0887 78.328 20.3556 78.328V80.328ZM24.9946 80.2684C26.37 80.1898 27.5995 80.0713 28.6801 79.9112L28.387 77.9328C27.3796 78.082 26.2118 78.1956 24.8805 78.2716L24.9946 80.2684ZM29.5336 78.922V75.442H27.5336V78.922H29.5336ZM28.6166 74.4455L22.3526 73.9235L22.1865 75.9165L28.4505 76.4385L28.6166 74.4455ZM22.365 73.9246C19.5917 73.6586 17.317 73.2062 15.5213 72.5832L14.8658 74.4728C16.8594 75.1644 19.3021 75.64 22.1741 75.9154L22.365 73.9246ZM15.5213 72.5832C13.7315 71.9623 12.3398 71.1398 11.3066 70.141L9.91654 71.579C11.2033 72.8228 12.8663 73.779 14.8658 74.4728L15.5213 72.5832ZM11.3306 70.165C10.32 69.1195 9.58625 67.8825 9.12879 66.4398L7.22233 67.0442C7.7702 68.7721 8.6605 70.2805 9.89257 71.555L11.3306 70.165ZM9.13709 66.4673C8.70462 64.9536 8.47956 63.1552 8.47956 61.058H6.47956C6.47956 63.2915 6.71851 65.2824 7.21404 67.0167L9.13709 66.4673ZM8.47956 61.058C8.47956 58.1415 8.78359 55.7761 9.36171 53.9333L7.45342 53.3347C6.7942 55.4359 6.47956 58.0198 6.47956 61.058H8.47956ZM9.36334 53.9281C9.93698 52.0638 10.8339 50.6267 12.0286 49.5686L10.7025 48.0714C9.19056 49.4106 8.11548 51.1829 7.45178 53.3399L9.36334 53.9281ZM12.0403 49.558C13.2458 48.4559 14.823 47.6542 16.8156 47.1832L16.3555 45.2368C14.0948 45.7712 12.192 46.7094 10.6908 48.082L12.0403 49.558ZM16.8117 47.1841C18.8804 46.7039 21.4291 46.456 24.4736 46.456V44.456C21.3313 44.456 18.6214 44.7108 16.3594 45.2359L16.8117 47.1841ZM24.4736 46.456C30.56 46.456 36.0504 47.0303 40.9511 48.17L41.4041 46.222C36.3288 45.0417 30.6831 44.456 24.4736 44.456V46.456ZM40.1896 47.0416L38.4496 58.1776L40.4256 58.4864L42.1656 47.3504L40.1896 47.0416ZM39.5962 57.3447C35.2437 56.6452 31.7233 56.288 29.0556 56.288V58.288C31.5691 58.288 34.9701 58.6268 39.2789 59.3193L39.5962 57.3447ZM29.0556 56.288C26.4384 56.288 24.1895 56.405 22.3169 56.644L22.5702 58.6279C24.3323 58.403 26.4914 58.288 29.0556 58.288V56.288ZM21.4436 57.636V61.058H23.4436V57.636H21.4436ZM22.3509 62.0537L27.3389 62.5177L27.5242 60.5263L22.5362 60.0623L22.3509 62.0537ZM27.3308 62.5169C30.3349 62.8211 32.8013 63.3307 34.7501 64.0293L35.425 62.1467C33.2752 61.376 30.6376 60.8415 27.5323 60.5271L27.3308 62.5169ZM34.766 64.0349C36.7163 64.6973 38.2247 65.5619 39.3336 66.6015L40.7015 65.1425C39.3357 63.8621 37.5575 62.8707 35.4091 62.1411L34.766 64.0349ZM39.3449 66.6119C40.4954 67.6579 41.285 68.8814 41.7323 70.2922L43.6388 69.6878C43.0808 67.928 42.0917 66.4061 40.6902 65.1321L39.3449 66.6119ZM41.7392 70.3131C42.2381 71.7742 42.4976 73.4789 42.4976 75.442H44.4976C44.4976 73.3064 44.2157 71.3765 43.6319 69.6669L41.7392 70.3131ZM42.4976 75.442C42.4976 78.2997 42.1206 80.6443 41.4042 82.507L43.2709 83.225C44.1011 81.0664 44.4976 78.4617 44.4976 75.442H42.4976ZM41.4042 82.507C40.6623 84.436 39.8017 85.8195 38.8594 86.7282L40.2477 88.1678C41.4708 86.9885 42.4662 85.3173 43.2709 83.225L41.4042 82.507ZM38.8623 86.7254C38.082 87.4717 37.0985 88.082 35.8904 88.5439L36.6047 90.4121C38.0259 89.8686 39.2464 89.1256 40.2448 88.1706L38.8623 86.7254ZM35.9147 88.535C34.6612 88.9774 33.3287 89.3111 31.9156 89.5342L32.2275 91.5098C33.7531 91.2689 35.2046 90.9066 36.5804 90.421L35.9147 88.535ZM31.9156 89.5342C30.49 89.7593 29.0449 89.8908 27.5799 89.9283L27.6312 91.9277C29.1822 91.8879 30.7145 91.7487 32.2275 91.5098L31.9156 89.5342ZM27.553 89.9294C26.0974 90.006 24.7813 90.044 23.6036 90.044V92.044C24.8232 92.044 26.175 92.0047 27.6581 91.9266L27.553 89.9294ZM23.6036 90.044C20.6217 90.044 17.7587 89.8911 15.014 89.5861L14.7931 91.5739C17.6165 91.8876 20.5535 92.044 23.6036 92.044V90.044ZM15.014 89.5861C12.2643 89.2806 9.61315 88.8418 7.06003 88.2702L6.62309 90.2218C9.25131 90.8102 11.9748 91.2607 14.7931 91.5739L15.014 89.5861ZM62.6598 90V91H63.6598V90H62.6598ZM48.7398 90H47.7398V91H48.7398V90ZM48.7398 46.5V45.5H47.7398V46.5H48.7398ZM62.6598 46.5H63.6598V45.5H62.6598V46.5ZM62.6598 89H48.7398V91H62.6598V89ZM49.7398 90V46.5H47.7398V90H49.7398ZM48.7398 47.5H62.6598V45.5H48.7398V47.5ZM61.6598 46.5V90H63.6598V46.5H61.6598ZM91.9122 75.326H92.9122V74.326H91.9122V75.326ZM88.3742 75.326H87.3742V76.326H88.3742V75.326ZM88.3742 64.654V63.654H87.3742V64.654H88.3742ZM105.136 64.654H106.136V63.654H105.136V64.654ZM105.136 87.912L105.492 88.8467L106.136 88.6016V87.912H105.136ZM77.9342 89.594L77.5891 90.5326L77.5935 90.5342L77.9342 89.594ZM71.6702 85.302L70.8892 85.9267L70.8955 85.9344L71.6702 85.302ZM68.4222 78.168L67.4421 78.3667L67.4437 78.3744L67.4453 78.3821L68.4222 78.168ZM68.6542 57.868L69.6227 58.1167L69.6235 58.1136L68.6542 57.868ZM72.3082 50.792L73.0382 51.4755L73.0453 51.4677L72.3082 50.792ZM79.0942 46.732L78.8056 45.7745L78.8056 45.7745L79.0942 46.732ZM92.8402 45.63L92.7468 46.6256L92.7632 46.6272L92.7797 46.6282L92.8402 45.63ZM96.6682 46.036L96.5184 47.0247L96.5331 47.0269L96.5478 47.0287L96.6682 46.036ZM100.264 46.616L100.062 47.5953L100.081 47.5992L100.1 47.6024L100.264 46.616ZM103.048 47.254L104.03 47.446L104.198 46.5833L103.364 46.3053L103.048 47.254ZM100.96 57.926L100.799 58.9129L101.755 59.0691L101.942 58.118L100.96 57.926ZM95.5662 57.23L95.4532 58.2236L95.4644 58.2249L95.4756 58.2259L95.5662 57.23ZM82.5162 80.14H81.5162V81.14H82.5162V80.14ZM90.7522 79.618L91.1802 80.5217L91.1899 80.5172L91.1994 80.5124L90.7522 79.618ZM92.9122 77.182V75.326H90.9122V77.182H92.9122ZM91.9122 74.326H88.3742V76.326H91.9122V74.326ZM89.3742 75.326V64.654H87.3742V75.326H89.3742ZM88.3742 65.654H105.136V63.654H88.3742V65.654ZM104.136 64.654V87.912H106.136V64.654H104.136ZM104.781 86.9773C99.4044 89.0218 93.8216 90.044 88.0262 90.044V92.044C94.0627 92.044 99.8866 90.9782 105.492 88.8467L104.781 86.9773ZM88.0262 90.044C84.0365 90.044 80.7975 89.5678 78.2748 88.6538L77.5935 90.5342C80.4068 91.5535 83.8958 92.044 88.0262 92.044V90.044ZM78.2792 88.6554C75.7931 87.7414 73.8626 86.4064 72.4448 84.6696L70.8955 85.9344C72.571 87.9869 74.8166 89.5133 77.5891 90.5326L78.2792 88.6554ZM72.451 84.6773C71.0152 82.8825 69.9902 80.6515 69.399 77.9539L67.4453 78.3821C68.0914 81.3298 69.2318 83.8549 70.8893 85.9267L72.451 84.6773ZM69.4022 77.9693C68.8387 75.1894 68.5522 71.9332 68.5522 68.192H66.5522C66.5522 72.0295 66.8456 75.424 67.4421 78.3667L69.4022 77.9693ZM68.5522 68.192C68.5522 64.2266 68.9149 60.8735 69.6227 58.1167L67.6856 57.6193C66.9241 60.5851 66.5522 64.1147 66.5522 68.192H68.5522ZM69.6235 58.1136C70.325 55.3445 71.4735 53.1467 73.0382 51.4754L71.5781 50.1086C69.7401 52.0719 68.4526 54.5915 67.6848 57.6224L69.6235 58.1136ZM73.0453 51.4677C74.6058 49.7654 76.7024 48.4972 79.3827 47.6895L78.8056 45.7745C75.8405 46.6681 73.4132 48.1066 71.571 50.1163L73.0453 51.4677ZM79.3827 47.6895C82.0818 46.876 85.4767 46.456 89.5922 46.456V44.456C85.3556 44.456 81.7518 44.8866 78.8056 45.7745L79.3827 47.6895ZM89.5922 46.456C90.4806 46.456 91.5308 46.5116 92.7468 46.6256L92.9335 44.6344C91.6748 44.5164 90.5597 44.456 89.5922 44.456V46.456ZM92.7797 46.6282C94.0255 46.7037 95.2717 46.8358 96.5184 47.0247L96.818 45.0473C95.5126 44.8495 94.2068 44.711 92.9007 44.6318L92.7797 46.6282ZM96.5478 47.0287C97.7995 47.1805 98.9705 47.3695 100.062 47.5953L100.467 45.6367C99.3151 45.3985 98.0888 45.2009 96.7885 45.0433L96.5478 47.0287ZM100.1 47.6024C101.235 47.7916 102.106 47.994 102.732 48.2027L103.364 46.3053C102.598 46.05 101.613 45.8271 100.429 45.6296L100.1 47.6024ZM102.067 47.062L99.9788 57.734L101.942 58.118L104.03 47.446L102.067 47.062ZM101.121 56.9391C99.206 56.6264 97.3843 56.3912 95.6567 56.2341L95.4756 58.2259C97.1506 58.3782 98.925 58.607 100.799 58.9129L101.121 56.9391ZM95.6791 56.2364C93.9462 56.0395 92.3228 55.94 90.8102 55.94V57.94C92.2362 57.94 93.7834 58.0339 95.4532 58.2236L95.6791 56.2364ZM90.8102 55.94C87.7518 55.94 85.4436 56.1662 84.021 56.6997L84.7233 58.5723C85.7754 58.1778 87.7591 57.94 90.8102 57.94V55.94ZM84.021 56.6997C83.2433 56.9913 82.5941 57.4564 82.1481 58.1253C81.7049 58.7901 81.5162 59.5757 81.5162 60.42H83.5162C83.5162 59.8723 83.6368 59.4979 83.8122 59.2347C83.9849 58.9756 84.2637 58.7447 84.7233 58.5723L84.021 56.6997ZM81.5162 60.42V80.14H83.5162V60.42H81.5162ZM82.5162 81.14H87.0982V79.14H82.5162V81.14ZM87.0982 81.14C88.8202 81.14 90.2312 80.9713 91.1802 80.5217L90.3241 78.7143C89.8038 78.9607 88.7788 79.14 87.0982 79.14V81.14ZM91.1994 80.5124C92.4507 79.8868 92.9122 78.6123 92.9122 77.182H90.9122C90.9122 78.2264 90.6003 78.5759 90.3049 78.7236L91.1994 80.5124ZM150.012 90V91H151.012V90H150.012ZM136.904 90L136.08 90.5668L136.378 91H136.904V90ZM126.29 74.572L127.114 74.0052L127.109 73.9979L127.104 73.9908L126.29 74.572ZM125.826 73.354L124.848 73.5635L124.848 73.5635L125.826 73.354ZM125.594 71.208L126.593 71.1646L126.552 70.208H125.594V71.208ZM125.304 71.208V70.208H124.304V71.208H125.304ZM125.304 90V91H126.304V90H125.304ZM111.384 90H110.384V91H111.384V90ZM111.384 46.5V45.5H110.384V46.5H111.384ZM124.492 46.5L125.316 45.9332L125.018 45.5H124.492V46.5ZM135.106 61.928L134.282 62.4948L134.287 62.5021L134.293 62.5092L135.106 61.928ZM135.802 65.292L134.803 65.3354L134.845 66.292H135.802V65.292ZM136.092 65.292V66.292H137.092V65.292H136.092ZM136.092 46.5V45.5H135.092V46.5H136.092ZM150.012 46.5H151.012V45.5H150.012V46.5ZM150.012 89H136.904V91H150.012V89ZM137.728 89.4332L127.114 74.0052L125.466 75.1388L136.08 90.5668L137.728 89.4332ZM127.104 73.9908C127.026 73.8816 126.908 73.6293 126.804 73.1445L124.848 73.5635C124.977 74.1613 125.168 74.7211 125.477 75.1532L127.104 73.9908ZM126.804 73.1445C126.705 72.6804 126.631 72.0273 126.593 71.1646L124.595 71.2514C124.635 72.1674 124.716 72.9449 124.848 73.5635L126.804 73.1445ZM125.594 70.208H125.304V72.208H125.594V70.208ZM124.304 71.208V90H126.304V71.208H124.304ZM125.304 89H111.384V91H125.304V89ZM112.384 90V46.5H110.384V90H112.384ZM111.384 47.5H124.492V45.5H111.384V47.5ZM123.668 47.0668L134.282 62.4948L135.93 61.3612L125.316 45.9332L123.668 47.0668ZM134.293 62.5092C134.371 62.6184 134.489 62.8706 134.592 63.3555L136.548 62.9365C136.42 62.3387 136.229 61.7789 135.92 61.3468L134.293 62.5092ZM134.592 63.3555C134.692 63.8196 134.766 64.4727 134.803 65.3354L136.801 65.2486C136.762 64.3326 136.681 63.5551 136.548 62.9365L134.592 63.3555ZM135.802 66.292H136.092V64.292H135.802V66.292ZM137.092 65.292V46.5H135.092V65.292H137.092ZM136.092 47.5H150.012V45.5H136.092V47.5ZM149.012 46.5V90H151.012V46.5H149.012ZM188.289 90V91H189.289V90H188.289ZM174.369 90H173.369V91H174.369V90ZM174.369 46.5V45.5H173.369V46.5H174.369ZM188.289 46.5H189.289V45.5H188.289V46.5ZM188.289 89H174.369V91H188.289V89ZM175.369 90V46.5H173.369V90H175.369ZM174.369 47.5H188.289V45.5H174.369V47.5ZM187.289 46.5V90H189.289V46.5H187.289ZM233.897 90V91H234.897V90H233.897ZM220.789 90L219.965 90.5668L220.263 91H220.789V90ZM210.175 74.572L210.999 74.0052L210.994 73.9979L210.989 73.9908L210.175 74.572ZM209.711 73.354L208.733 73.5635L208.733 73.5635L209.711 73.354ZM209.479 71.208L210.478 71.1646L210.437 70.208H209.479V71.208ZM209.189 71.208V70.208H208.189V71.208H209.189ZM209.189 90V91H210.189V90H209.189ZM195.269 90H194.269V91H195.269V90ZM195.269 46.5V45.5H194.269V46.5H195.269ZM208.377 46.5L209.201 45.9332L208.903 45.5H208.377V46.5ZM218.991 61.928L218.167 62.4948L218.172 62.5021L218.177 62.5092L218.991 61.928ZM219.687 65.292L218.688 65.3354L218.73 66.292H219.687V65.292ZM219.977 65.292V66.292H220.977V65.292H219.977ZM219.977 46.5V45.5H218.977V46.5H219.977ZM233.897 46.5H234.897V45.5H233.897V46.5ZM233.897 89H220.789V91H233.897V89ZM221.613 89.4332L210.999 74.0052L209.351 75.1388L219.965 90.5668L221.613 89.4332ZM210.989 73.9908C210.911 73.8816 210.793 73.6293 210.689 73.1445L208.733 73.5635C208.861 74.1613 209.053 74.7211 209.361 75.1532L210.989 73.9908ZM210.689 73.1445C210.589 72.6804 210.516 72.0273 210.478 71.1646L208.48 71.2514C208.52 72.1674 208.601 72.9449 208.733 73.5635L210.689 73.1445ZM209.479 70.208H209.189V72.208H209.479V70.208ZM208.189 71.208V90H210.189V71.208H208.189ZM209.189 89H195.269V91H209.189V89ZM196.269 90V46.5H194.269V90H196.269ZM195.269 47.5H208.377V45.5H195.269V47.5ZM207.553 47.0668L218.167 62.4948L219.815 61.3612L209.201 45.9332L207.553 47.0668ZM218.177 62.5092C218.255 62.6184 218.373 62.8706 218.477 63.3555L220.433 62.9365C220.305 62.3387 220.113 61.7789 219.805 61.3468L218.177 62.5092ZM218.477 63.3555C218.577 63.8196 218.65 64.4727 218.688 65.3354L220.686 65.2486C220.646 64.3326 220.565 63.5551 220.433 62.9365L218.477 63.3555ZM219.687 66.292H219.977V64.292H219.687V66.292ZM220.977 65.292V46.5H218.977V65.292H220.977ZM219.977 47.5H233.897V45.5H219.977V47.5ZM232.897 46.5V90H234.897V46.5H232.897ZM258.253 90L257.287 89.7423L256.952 91H258.253V90ZM269.853 46.5V45.5H269.085L268.887 46.2423L269.853 46.5ZM280.757 46.5L281.724 46.7577L282.059 45.5H280.757V46.5ZM269.157 90V91H269.926L270.124 90.2577L269.157 90ZM259.22 90.2577L270.82 46.7577L268.887 46.2423L257.287 89.7423L259.22 90.2577ZM269.853 47.5H280.757V45.5H269.853V47.5ZM279.791 46.2423L268.191 89.7423L270.124 90.2577L281.724 46.7577L279.791 46.2423ZM269.157 89H258.253V91H269.157V89ZM304.051 46.5V45.5H303.051V46.5H304.051ZM317.971 46.5H318.971V45.5H317.971V46.5ZM317.971 79.154H316.971V80.154H317.971V79.154ZM326.497 78.458L325.921 77.641L325.909 77.6493L325.897 77.658L326.497 78.458ZM327.483 46.5V45.5H326.483V46.5H327.483ZM341.403 46.5H342.403V45.5H341.403V46.5ZM340.649 80.314L339.668 80.1207L339.667 80.1279L339.665 80.1351L340.649 80.314ZM337.865 86.578L337.106 85.9272L337.105 85.9287L337.865 86.578ZM332.181 90L331.907 89.0385L331.907 89.0385L332.181 90ZM307.531 86.578L306.771 87.2273L306.78 87.2378L307.531 86.578ZM304.747 80.372L303.763 80.5483L303.764 80.5568L303.766 80.5653L304.747 80.372ZM304.051 47.5H317.971V45.5H304.051V47.5ZM316.971 46.5V79.154H318.971V46.5H316.971ZM317.971 80.154H322.901V78.154H317.971V80.154ZM322.901 80.154C323.828 80.154 324.641 80.094 325.324 79.9618C325.995 79.8319 326.617 79.6184 327.097 79.258L325.897 77.658C325.759 77.7616 325.472 77.8961 324.944 77.9982C324.429 78.098 323.753 78.154 322.901 78.154V80.154ZM327.074 79.275C328.164 78.5057 328.483 77.0332 328.483 75.442H326.483C326.483 76.9441 326.145 77.4823 325.921 77.641L327.074 79.275ZM328.483 75.442V46.5H326.483V75.442H328.483ZM327.483 47.5H341.403V45.5H327.483V47.5ZM340.403 46.5V70.918H342.403V46.5H340.403ZM340.403 70.918C340.403 74.5901 340.154 77.653 339.668 80.1207L341.63 80.5073C342.15 77.871 342.403 74.6699 342.403 70.918H340.403ZM339.665 80.1351C339.226 82.5497 338.36 84.4638 337.106 85.9272L338.624 87.2288C340.154 85.4442 341.144 83.1823 341.633 80.4929L339.665 80.1351ZM337.105 85.9287C335.904 87.3349 334.195 88.3848 331.907 89.0385L332.456 90.9615C335.04 90.2232 337.12 88.9917 338.626 87.2273L337.105 85.9287ZM331.907 89.0385C329.594 89.6993 326.544 90.044 322.727 90.044V92.044C326.643 92.044 329.897 91.6927 332.456 90.9615L331.907 89.0385ZM322.727 90.044C318.91 90.044 315.861 89.6993 313.548 89.0385L312.999 90.9615C315.558 91.6927 318.811 92.044 322.727 92.044V90.044ZM313.548 89.0385C311.259 88.3845 309.525 87.3326 308.283 85.9182L306.78 87.2378C308.322 88.9941 310.415 90.2235 312.999 90.9615L313.548 89.0385ZM308.292 85.9287C307.074 84.5025 306.206 82.6035 305.728 80.1787L303.766 80.5653C304.294 83.2445 305.281 85.4828 306.771 87.2273L308.292 85.9287ZM305.732 80.1957C305.281 77.6815 305.051 74.5929 305.051 70.918H303.051C303.051 74.6671 303.285 77.8812 303.763 80.5483L305.732 80.1957ZM305.051 70.918V46.5H303.051V70.918H305.051ZM361.213 79.502V78.502H360.213V79.502H361.213ZM361.213 90V91H362.213V90H361.213ZM347.293 90H346.293V91H347.293V90ZM347.293 46.5V45.5H346.293V46.5H347.293ZM383.485 69.178L382.509 68.9572L382.509 68.9572L383.485 69.178ZM381.107 74.572L380.297 73.985L380.294 73.9888L381.107 74.572ZM376.815 78.168L376.367 77.2735L376.359 77.2776L376.815 78.168ZM361.213 57.636V56.636H360.213V57.636H361.213ZM361.213 68.366H360.213V69.366H361.213V68.366ZM368.057 67.844L367.646 66.9321L367.637 66.9361L367.628 66.9403L368.057 67.844ZM368.057 58.158L367.628 59.0617L367.637 59.0659L367.646 59.0699L368.057 58.158ZM370.261 78.502H361.213V80.502H370.261V78.502ZM360.213 79.502V90H362.213V79.502H360.213ZM361.213 89H347.293V91H361.213V89ZM348.293 90V46.5H346.293V90H348.293ZM347.293 47.5H369.217V45.5H347.293V47.5ZM369.217 47.5C374.031 47.5 377.464 48.789 379.708 51.1981C381.964 53.6205 383.181 57.3478 383.181 62.566H385.181C385.181 57.0735 383.903 52.7678 381.171 49.8349C378.427 46.8886 374.378 45.5 369.217 45.5V47.5ZM383.181 62.566C383.181 64.8593 382.955 66.9885 382.509 68.9572L384.46 69.3988C384.942 67.2688 385.181 64.9901 385.181 62.566H383.181ZM382.509 68.9572C382.072 70.8878 381.331 72.5584 380.297 73.985L381.916 75.159C383.124 73.4922 383.969 71.5669 384.46 69.3988L382.509 68.9572ZM380.294 73.9888C379.313 75.3556 378.011 76.4515 376.367 77.2736L377.262 79.0624C379.175 78.1058 380.735 76.8044 381.919 75.1552L380.294 73.9888ZM376.359 77.2776C374.8 78.0744 372.784 78.502 370.261 78.502V80.502C372.996 80.502 375.349 80.0403 377.27 79.0584L376.359 77.2776ZM364.403 56.636H361.213V58.636H364.403V56.636ZM360.213 57.636V68.366H362.213V57.636H360.213ZM361.213 69.366H364.403V67.366H361.213V69.366ZM364.403 69.366C366.125 69.366 367.536 69.1973 368.485 68.7477L367.628 66.9403C367.108 67.1867 366.083 67.366 364.403 67.366V69.366ZM368.467 68.7559C369.767 68.1707 370.217 66.8518 370.217 65.408H368.217C368.217 66.5162 367.892 66.8213 367.646 66.9321L368.467 68.7559ZM370.217 65.408V60.536H368.217V65.408H370.217ZM370.217 60.536C370.217 59.1131 369.756 57.8264 368.467 57.2461L367.646 59.0699C367.903 59.1856 368.217 59.4842 368.217 60.536H370.217ZM368.485 57.2543C367.536 56.8047 366.125 56.636 364.403 56.636V58.636C366.083 58.636 367.108 58.8153 367.628 59.0617L368.485 57.2543Z" fill="#CEB7FF"/>
</g>
<g filter="url(#filter1_d_21_3747)">
<path d="M6.84156 89.246L5.85599 89.0768L5.69504 90.0141L6.62309 90.2218L6.84156 89.246ZM8.81356 77.762L9.05194 76.7908L8.00963 76.535L7.82799 77.5928L8.81356 77.762ZM24.9376 79.27L24.967 80.2696L24.9808 80.2692L24.9946 80.2684L24.9376 79.27ZM28.5336 78.922L28.6801 79.9112L29.5336 79.7848V78.922H28.5336ZM28.5336 75.442H29.5336V74.5219L28.6166 74.4455L28.5336 75.442ZM22.2696 74.92L22.1741 75.9155L22.1865 75.9165L22.2696 74.92ZM15.1936 73.528L14.8658 74.4728L14.8658 74.4728L15.1936 73.528ZM10.6116 70.86L9.89257 71.555L9.90435 71.5672L9.91654 71.579L10.6116 70.86ZM8.17556 66.742L7.21404 67.0167L7.21799 67.0305L7.22233 67.0442L8.17556 66.742ZM8.40756 53.634L9.36172 53.9333L9.36334 53.9281L8.40756 53.634ZM11.3656 48.82L12.0286 49.5686L12.0345 49.5634L12.0403 49.558L11.3656 48.82ZM16.5856 46.21L16.3594 45.2359L16.3555 45.2368L16.5856 46.21ZM41.1776 47.196L42.1656 47.3504L42.309 46.4324L41.4041 46.222L41.1776 47.196ZM39.4376 58.332L39.2789 59.3193L40.2705 59.4787L40.4256 58.4864L39.4376 58.332ZM22.4436 57.636L22.3169 56.644L21.4436 56.7555V57.636H22.4436ZM22.4436 61.058H21.4436V61.9693L22.3509 62.0537L22.4436 61.058ZM27.4316 61.522L27.5323 60.5271L27.5242 60.5263L27.4316 61.522ZM35.0876 63.088L34.7501 64.0293L34.758 64.0322L34.766 64.0349L35.0876 63.088ZM40.0176 65.872L39.3336 66.6015L39.3392 66.6068L39.3449 66.6119L40.0176 65.872ZM42.6856 69.99L41.7323 70.2922L41.7357 70.3027L41.7392 70.3131L42.6856 69.99ZM42.3376 82.866L41.4042 82.507L41.4042 82.507L42.3376 82.866ZM39.5536 87.448L40.2448 88.1706L40.2477 88.1678L39.5536 87.448ZM36.2476 89.478L36.5804 90.421L36.5926 90.4167L36.6047 90.4121L36.2476 89.478ZM32.0716 90.522L32.2275 91.5098L32.2275 91.5098L32.0716 90.522ZM27.6056 90.928L27.5799 89.9283L27.5665 89.9287L27.553 89.9294L27.6056 90.928ZM14.9036 90.58L15.014 89.5861L15.014 89.5861L14.9036 90.58ZM7.82714 89.4152L9.79914 77.9312L7.82799 77.5928L5.85599 89.0768L7.82714 89.4152ZM8.57518 78.7332C12.8865 79.7914 16.8156 80.328 20.3556 80.328V78.328C17.0129 78.328 13.2473 77.8206 9.05194 76.7908L8.57518 78.7332ZM20.3556 80.328C22.1024 80.328 23.64 80.3086 24.967 80.2696L24.9082 78.2704C23.6058 78.3087 22.0887 78.328 20.3556 78.328V80.328ZM24.9946 80.2684C26.37 80.1898 27.5995 80.0713 28.6801 79.9112L28.387 77.9328C27.3796 78.082 26.2118 78.1956 24.8805 78.2716L24.9946 80.2684ZM29.5336 78.922V75.442H27.5336V78.922H29.5336ZM28.6166 74.4455L22.3526 73.9235L22.1865 75.9165L28.4505 76.4385L28.6166 74.4455ZM22.365 73.9246C19.5917 73.6586 17.317 73.2062 15.5213 72.5832L14.8658 74.4728C16.8594 75.1644 19.3021 75.64 22.1741 75.9154L22.365 73.9246ZM15.5213 72.5832C13.7315 71.9623 12.3398 71.1398 11.3066 70.141L9.91654 71.579C11.2033 72.8228 12.8663 73.779 14.8658 74.4728L15.5213 72.5832ZM11.3306 70.165C10.32 69.1195 9.58625 67.8825 9.12879 66.4398L7.22233 67.0442C7.7702 68.7721 8.6605 70.2805 9.89257 71.555L11.3306 70.165ZM9.13709 66.4673C8.70462 64.9536 8.47956 63.1552 8.47956 61.058H6.47956C6.47956 63.2915 6.71851 65.2824 7.21404 67.0167L9.13709 66.4673ZM8.47956 61.058C8.47956 58.1415 8.78359 55.7761 9.36171 53.9333L7.45342 53.3347C6.7942 55.4359 6.47956 58.0198 6.47956 61.058H8.47956ZM9.36334 53.9281C9.93698 52.0638 10.8339 50.6267 12.0286 49.5686L10.7025 48.0714C9.19056 49.4106 8.11548 51.1829 7.45178 53.3399L9.36334 53.9281ZM12.0403 49.558C13.2458 48.4559 14.823 47.6542 16.8156 47.1832L16.3555 45.2368C14.0948 45.7712 12.192 46.7094 10.6908 48.082L12.0403 49.558ZM16.8117 47.1841C18.8804 46.7039 21.4291 46.456 24.4736 46.456V44.456C21.3313 44.456 18.6214 44.7108 16.3594 45.2359L16.8117 47.1841ZM24.4736 46.456C30.56 46.456 36.0504 47.0303 40.9511 48.17L41.4041 46.222C36.3288 45.0417 30.6831 44.456 24.4736 44.456V46.456ZM40.1896 47.0416L38.4496 58.1776L40.4256 58.4864L42.1656 47.3504L40.1896 47.0416ZM39.5962 57.3447C35.2437 56.6452 31.7233 56.288 29.0556 56.288V58.288C31.5691 58.288 34.9701 58.6268 39.2789 59.3193L39.5962 57.3447ZM29.0556 56.288C26.4384 56.288 24.1895 56.405 22.3169 56.644L22.5702 58.6279C24.3323 58.403 26.4914 58.288 29.0556 58.288V56.288ZM21.4436 57.636V61.058H23.4436V57.636H21.4436ZM22.3509 62.0537L27.3389 62.5177L27.5242 60.5263L22.5362 60.0623L22.3509 62.0537ZM27.3308 62.5169C30.3349 62.8211 32.8013 63.3307 34.7501 64.0293L35.425 62.1467C33.2752 61.376 30.6376 60.8415 27.5323 60.5271L27.3308 62.5169ZM34.766 64.0349C36.7163 64.6973 38.2247 65.5619 39.3336 66.6015L40.7015 65.1425C39.3357 63.8621 37.5575 62.8707 35.4091 62.1411L34.766 64.0349ZM39.3449 66.6119C40.4954 67.6579 41.285 68.8814 41.7323 70.2922L43.6388 69.6878C43.0808 67.928 42.0917 66.4061 40.6902 65.1321L39.3449 66.6119ZM41.7392 70.3131C42.2381 71.7742 42.4976 73.4789 42.4976 75.442H44.4976C44.4976 73.3064 44.2157 71.3765 43.6319 69.6669L41.7392 70.3131ZM42.4976 75.442C42.4976 78.2997 42.1206 80.6443 41.4042 82.507L43.2709 83.225C44.1011 81.0664 44.4976 78.4617 44.4976 75.442H42.4976ZM41.4042 82.507C40.6623 84.436 39.8017 85.8195 38.8594 86.7282L40.2477 88.1678C41.4708 86.9885 42.4662 85.3173 43.2709 83.225L41.4042 82.507ZM38.8623 86.7254C38.082 87.4717 37.0985 88.082 35.8904 88.5439L36.6047 90.4121C38.0259 89.8686 39.2464 89.1256 40.2448 88.1706L38.8623 86.7254ZM35.9147 88.535C34.6612 88.9774 33.3287 89.3111 31.9156 89.5342L32.2275 91.5098C33.7531 91.2689 35.2046 90.9066 36.5804 90.421L35.9147 88.535ZM31.9156 89.5342C30.49 89.7593 29.0449 89.8908 27.5799 89.9283L27.6312 91.9277C29.1822 91.8879 30.7145 91.7487 32.2275 91.5098L31.9156 89.5342ZM27.553 89.9294C26.0974 90.006 24.7813 90.044 23.6036 90.044V92.044C24.8232 92.044 26.175 92.0047 27.6581 91.9266L27.553 89.9294ZM23.6036 90.044C20.6217 90.044 17.7587 89.8911 15.014 89.5861L14.7931 91.5739C17.6165 91.8876 20.5535 92.044 23.6036 92.044V90.044ZM15.014 89.5861C12.2643 89.2806 9.61315 88.8418 7.06003 88.2702L6.62309 90.2218C9.25131 90.8102 11.9748 91.2607 14.7931 91.5739L15.014 89.5861ZM62.6598 90V91H63.6598V90H62.6598ZM48.7398 90H47.7398V91H48.7398V90ZM48.7398 46.5V45.5H47.7398V46.5H48.7398ZM62.6598 46.5H63.6598V45.5H62.6598V46.5ZM62.6598 89H48.7398V91H62.6598V89ZM49.7398 90V46.5H47.7398V90H49.7398ZM48.7398 47.5H62.6598V45.5H48.7398V47.5ZM61.6598 46.5V90H63.6598V46.5H61.6598ZM91.9122 75.326H92.9122V74.326H91.9122V75.326ZM88.3742 75.326H87.3742V76.326H88.3742V75.326ZM88.3742 64.654V63.654H87.3742V64.654H88.3742ZM105.136 64.654H106.136V63.654H105.136V64.654ZM105.136 87.912L105.492 88.8467L106.136 88.6016V87.912H105.136ZM77.9342 89.594L77.5891 90.5326L77.5935 90.5342L77.9342 89.594ZM71.6702 85.302L70.8892 85.9267L70.8955 85.9344L71.6702 85.302ZM68.4222 78.168L67.4421 78.3667L67.4437 78.3744L67.4453 78.3821L68.4222 78.168ZM68.6542 57.868L69.6227 58.1167L69.6235 58.1136L68.6542 57.868ZM72.3082 50.792L73.0382 51.4755L73.0453 51.4677L72.3082 50.792ZM79.0942 46.732L78.8056 45.7745L78.8056 45.7745L79.0942 46.732ZM92.8402 45.63L92.7468 46.6256L92.7632 46.6272L92.7797 46.6282L92.8402 45.63ZM96.6682 46.036L96.5184 47.0247L96.5331 47.0269L96.5478 47.0287L96.6682 46.036ZM100.264 46.616L100.062 47.5953L100.081 47.5992L100.1 47.6024L100.264 46.616ZM103.048 47.254L104.03 47.446L104.198 46.5833L103.364 46.3053L103.048 47.254ZM100.96 57.926L100.799 58.9129L101.755 59.0691L101.942 58.118L100.96 57.926ZM95.5662 57.23L95.4532 58.2236L95.4644 58.2249L95.4756 58.2259L95.5662 57.23ZM82.5162 80.14H81.5162V81.14H82.5162V80.14ZM90.7522 79.618L91.1802 80.5217L91.1899 80.5172L91.1994 80.5124L90.7522 79.618ZM92.9122 77.182V75.326H90.9122V77.182H92.9122ZM91.9122 74.326H88.3742V76.326H91.9122V74.326ZM89.3742 75.326V64.654H87.3742V75.326H89.3742ZM88.3742 65.654H105.136V63.654H88.3742V65.654ZM104.136 64.654V87.912H106.136V64.654H104.136ZM104.781 86.9773C99.4044 89.0218 93.8216 90.044 88.0262 90.044V92.044C94.0627 92.044 99.8866 90.9782 105.492 88.8467L104.781 86.9773ZM88.0262 90.044C84.0365 90.044 80.7975 89.5678 78.2748 88.6538L77.5935 90.5342C80.4068 91.5535 83.8958 92.044 88.0262 92.044V90.044ZM78.2792 88.6554C75.7931 87.7414 73.8626 86.4064 72.4448 84.6696L70.8955 85.9344C72.571 87.9869 74.8166 89.5133 77.5891 90.5326L78.2792 88.6554ZM72.451 84.6773C71.0152 82.8825 69.9902 80.6515 69.399 77.9539L67.4453 78.3821C68.0914 81.3298 69.2318 83.8549 70.8893 85.9267L72.451 84.6773ZM69.4022 77.9693C68.8387 75.1894 68.5522 71.9332 68.5522 68.192H66.5522C66.5522 72.0295 66.8456 75.424 67.4421 78.3667L69.4022 77.9693ZM68.5522 68.192C68.5522 64.2266 68.9149 60.8735 69.6227 58.1167L67.6856 57.6193C66.9241 60.5851 66.5522 64.1147 66.5522 68.192H68.5522ZM69.6235 58.1136C70.325 55.3445 71.4735 53.1467 73.0382 51.4754L71.5781 50.1086C69.7401 52.0719 68.4526 54.5915 67.6848 57.6224L69.6235 58.1136ZM73.0453 51.4677C74.6058 49.7654 76.7024 48.4972 79.3827 47.6895L78.8056 45.7745C75.8405 46.6681 73.4132 48.1066 71.571 50.1163L73.0453 51.4677ZM79.3827 47.6895C82.0818 46.876 85.4767 46.456 89.5922 46.456V44.456C85.3556 44.456 81.7518 44.8866 78.8056 45.7745L79.3827 47.6895ZM89.5922 46.456C90.4806 46.456 91.5308 46.5116 92.7468 46.6256L92.9335 44.6344C91.6748 44.5164 90.5597 44.456 89.5922 44.456V46.456ZM92.7797 46.6282C94.0255 46.7037 95.2717 46.8358 96.5184 47.0247L96.818 45.0473C95.5126 44.8495 94.2068 44.711 92.9007 44.6318L92.7797 46.6282ZM96.5478 47.0287C97.7995 47.1805 98.9705 47.3695 100.062 47.5953L100.467 45.6367C99.3151 45.3985 98.0888 45.2009 96.7885 45.0433L96.5478 47.0287ZM100.1 47.6024C101.235 47.7916 102.106 47.994 102.732 48.2027L103.364 46.3053C102.598 46.05 101.613 45.8271 100.429 45.6296L100.1 47.6024ZM102.067 47.062L99.9788 57.734L101.942 58.118L104.03 47.446L102.067 47.062ZM101.121 56.9391C99.206 56.6264 97.3843 56.3912 95.6567 56.2341L95.4756 58.2259C97.1506 58.3782 98.925 58.607 100.799 58.9129L101.121 56.9391ZM95.6791 56.2364C93.9462 56.0395 92.3228 55.94 90.8102 55.94V57.94C92.2362 57.94 93.7834 58.0339 95.4532 58.2236L95.6791 56.2364ZM90.8102 55.94C87.7518 55.94 85.4436 56.1662 84.021 56.6997L84.7233 58.5723C85.7754 58.1778 87.7591 57.94 90.8102 57.94V55.94ZM84.021 56.6997C83.2433 56.9913 82.5941 57.4564 82.1481 58.1253C81.7049 58.7901 81.5162 59.5757 81.5162 60.42H83.5162C83.5162 59.8723 83.6368 59.4979 83.8122 59.2347C83.9849 58.9756 84.2637 58.7447 84.7233 58.5723L84.021 56.6997ZM81.5162 60.42V80.14H83.5162V60.42H81.5162ZM82.5162 81.14H87.0982V79.14H82.5162V81.14ZM87.0982 81.14C88.8202 81.14 90.2312 80.9713 91.1802 80.5217L90.3241 78.7143C89.8038 78.9607 88.7788 79.14 87.0982 79.14V81.14ZM91.1994 80.5124C92.4507 79.8868 92.9122 78.6123 92.9122 77.182H90.9122C90.9122 78.2264 90.6003 78.5759 90.3049 78.7236L91.1994 80.5124ZM150.012 90V91H151.012V90H150.012ZM136.904 90L136.08 90.5668L136.378 91H136.904V90ZM126.29 74.572L127.114 74.0052L127.109 73.9979L127.104 73.9908L126.29 74.572ZM125.826 73.354L124.848 73.5635L124.848 73.5635L125.826 73.354ZM125.594 71.208L126.593 71.1646L126.552 70.208H125.594V71.208ZM125.304 71.208V70.208H124.304V71.208H125.304ZM125.304 90V91H126.304V90H125.304ZM111.384 90H110.384V91H111.384V90ZM111.384 46.5V45.5H110.384V46.5H111.384ZM124.492 46.5L125.316 45.9332L125.018 45.5H124.492V46.5ZM135.106 61.928L134.282 62.4948L134.287 62.5021L134.293 62.5092L135.106 61.928ZM135.802 65.292L134.803 65.3354L134.845 66.292H135.802V65.292ZM136.092 65.292V66.292H137.092V65.292H136.092ZM136.092 46.5V45.5H135.092V46.5H136.092ZM150.012 46.5H151.012V45.5H150.012V46.5ZM150.012 89H136.904V91H150.012V89ZM137.728 89.4332L127.114 74.0052L125.466 75.1388L136.08 90.5668L137.728 89.4332ZM127.104 73.9908C127.026 73.8816 126.908 73.6293 126.804 73.1445L124.848 73.5635C124.977 74.1613 125.168 74.7211 125.477 75.1532L127.104 73.9908ZM126.804 73.1445C126.705 72.6804 126.631 72.0273 126.593 71.1646L124.595 71.2514C124.635 72.1674 124.716 72.9449 124.848 73.5635L126.804 73.1445ZM125.594 70.208H125.304V72.208H125.594V70.208ZM124.304 71.208V90H126.304V71.208H124.304ZM125.304 89H111.384V91H125.304V89ZM112.384 90V46.5H110.384V90H112.384ZM111.384 47.5H124.492V45.5H111.384V47.5ZM123.668 47.0668L134.282 62.4948L135.93 61.3612L125.316 45.9332L123.668 47.0668ZM134.293 62.5092C134.371 62.6184 134.489 62.8706 134.592 63.3555L136.548 62.9365C136.42 62.3387 136.229 61.7789 135.92 61.3468L134.293 62.5092ZM134.592 63.3555C134.692 63.8196 134.766 64.4727 134.803 65.3354L136.801 65.2486C136.762 64.3326 136.681 63.5551 136.548 62.9365L134.592 63.3555ZM135.802 66.292H136.092V64.292H135.802V66.292ZM137.092 65.292V46.5H135.092V65.292H137.092ZM136.092 47.5H150.012V45.5H136.092V47.5ZM149.012 46.5V90H151.012V46.5H149.012ZM188.289 90V91H189.289V90H188.289ZM174.369 90H173.369V91H174.369V90ZM174.369 46.5V45.5H173.369V46.5H174.369ZM188.289 46.5H189.289V45.5H188.289V46.5ZM188.289 89H174.369V91H188.289V89ZM175.369 90V46.5H173.369V90H175.369ZM174.369 47.5H188.289V45.5H174.369V47.5ZM187.289 46.5V90H189.289V46.5H187.289ZM233.897 90V91H234.897V90H233.897ZM220.789 90L219.965 90.5668L220.263 91H220.789V90ZM210.175 74.572L210.999 74.0052L210.994 73.9979L210.989 73.9908L210.175 74.572ZM209.711 73.354L208.733 73.5635L208.733 73.5635L209.711 73.354ZM209.479 71.208L210.478 71.1646L210.437 70.208H209.479V71.208ZM209.189 71.208V70.208H208.189V71.208H209.189ZM209.189 90V91H210.189V90H209.189ZM195.269 90H194.269V91H195.269V90ZM195.269 46.5V45.5H194.269V46.5H195.269ZM208.377 46.5L209.201 45.9332L208.903 45.5H208.377V46.5ZM218.991 61.928L218.167 62.4948L218.172 62.5021L218.177 62.5092L218.991 61.928ZM219.687 65.292L218.688 65.3354L218.73 66.292H219.687V65.292ZM219.977 65.292V66.292H220.977V65.292H219.977ZM219.977 46.5V45.5H218.977V46.5H219.977ZM233.897 46.5H234.897V45.5H233.897V46.5ZM233.897 89H220.789V91H233.897V89ZM221.613 89.4332L210.999 74.0052L209.351 75.1388L219.965 90.5668L221.613 89.4332ZM210.989 73.9908C210.911 73.8816 210.793 73.6293 210.689 73.1445L208.733 73.5635C208.861 74.1613 209.053 74.7211 209.361 75.1532L210.989 73.9908ZM210.689 73.1445C210.589 72.6804 210.516 72.0273 210.478 71.1646L208.48 71.2514C208.52 72.1674 208.601 72.9449 208.733 73.5635L210.689 73.1445ZM209.479 70.208H209.189V72.208H209.479V70.208ZM208.189 71.208V90H210.189V71.208H208.189ZM209.189 89H195.269V91H209.189V89ZM196.269 90V46.5H194.269V90H196.269ZM195.269 47.5H208.377V45.5H195.269V47.5ZM207.553 47.0668L218.167 62.4948L219.815 61.3612L209.201 45.9332L207.553 47.0668ZM218.177 62.5092C218.255 62.6184 218.373 62.8706 218.477 63.3555L220.433 62.9365C220.305 62.3387 220.113 61.7789 219.805 61.3468L218.177 62.5092ZM218.477 63.3555C218.577 63.8196 218.65 64.4727 218.688 65.3354L220.686 65.2486C220.646 64.3326 220.565 63.5551 220.433 62.9365L218.477 63.3555ZM219.687 66.292H219.977V64.292H219.687V66.292ZM220.977 65.292V46.5H218.977V65.292H220.977ZM219.977 47.5H233.897V45.5H219.977V47.5ZM232.897 46.5V90H234.897V46.5H232.897Z" fill="#CEB7FF"/>
</g>
<g filter="url(#filter2_d_21_3747)">
<path d="M4.5 4.5H305.5V19.5H4.5V4.5Z" stroke="#CEB7FF" shape-rendering="crispEdges"/>
</g>
<g filter="url(#filter3_d_21_3747)">
<path d="M4.5 4.5H305.5V19.5H4.5V4.5Z" stroke="#CEB7FF" shape-rendering="crispEdges"/>
</g>
<g filter="url(#filter4_d_21_3747)">
<path d="M4.5 4.5H305.5V19.5H4.5V4.5Z" stroke="#CEB7FF" shape-rendering="crispEdges"/>
</g>
<g filter="url(#filter5_d_21_3747)">
<path d="M4.5 112.5H305.5V127.5H4.5V112.5Z" stroke="#CEB7FF" shape-rendering="crispEdges"/>
</g>
<g filter="url(#filter6_d_21_3747)">
<path d="M4.5 112.5H305.5V127.5H4.5V112.5Z" stroke="#CEB7FF" shape-rendering="crispEdges"/>
</g>
<g filter="url(#filter7_d_21_3747)">
<path d="M4.5 112.5H305.5V127.5H4.5V112.5Z" stroke="#CEB7FF" shape-rendering="crispEdges"/>
</g>
<defs>
<filter id="filter0_d_21_3747" x="1.84156" y="40.456" width="387.339" height="55.588" filterUnits="userSpaceOnUse" color-interpolation-filters="sRGB">
<feFlood flood-opacity="0" result="BackgroundImageFix"/>
<feColorMatrix in="SourceAlpha" type="matrix" values="0 0 0 0 0 0 0 0 0 0 0 0 0 0 0 0 0 0 127 0" result="hardAlpha"/>
<feOffset/>
<feGaussianBlur stdDeviation="2.5"/>
<feComposite in2="hardAlpha" operator="out"/>
<feColorMatrix type="matrix" values="0 0 0 0 0.701961 0 0 0 0 0.466667 0 0 0 0 1 0 0 0 1 0"/>
<feBlend mode="normal" in2="BackgroundImageFix" result="effect1_dropShadow_21_3747"/>
<feBlend mode="normal" in="SourceGraphic" in2="effect1_dropShadow_21_3747" result="shape"/>
</filter>
<filter id="filter1_d_21_3747" x="1.84156" y="40.456" width="237.055" height="55.588" filterUnits="userSpaceOnUse" color-interpolation-filters="sRGB">
<feFlood flood-opacity="0" result="BackgroundImageFix"/>
<feColorMatrix in="SourceAlpha" type="matrix" values="0 0 0 0 0 0 0 0 0 0 0 0 0 0 0 0 0 0 127 0" result="hardAlpha"/>
<feOffset/>
<feGaussianBlur stdDeviation="2.5"/>
<feComposite in2="hardAlpha" operator="out"/>
<feColorMatrix type="matrix" values="0 0 0 0 0.701961 0 0 0 0 0.466667 0 0 0 0 1 0 0 0 1 0"/>
<feBlend mode="normal" in2="BackgroundImageFix" result="effect1_dropShadow_21_3747"/>
<feBlend mode="normal" in="SourceGraphic" in2="effect1_dropShadow_21_3747" result="shape"/>
</filter>
<filter id="filter2_d_21_3747" x="0" y="0" width="310" height="24" filterUnits="userSpaceOnUse" color-interpolation-filters="sRGB">
<feFlood flood-opacity="0" result="BackgroundImageFix"/>
<feColorMatrix in="SourceAlpha" type="matrix" values="0 0 0 0 0 0 0 0 0 0 0 0 0 0 0 0 0 0 127 0" result="hardAlpha"/>
<feOffset/>
<feGaussianBlur stdDeviation="2"/>
<feComposite in2="hardAlpha" operator="out"/>
<feColorMatrix type="matrix" values="0 0 0 0 0.807843 0 0 0 0 0.717647 0 0 0 0 1 0 0 0 1 0"/>
<feBlend mode="normal" in2="BackgroundImageFix" result="effect1_dropShadow_21_3747"/>
<feBlend mode="normal" in="SourceGraphic" in2="effect1_dropShadow_21_3747" result="shape"/>
</filter>
<filter id="filter3_d_21_3747" x="0" y="0" width="310" height="24" filterUnits="userSpaceOnUse" color-interpolation-filters="sRGB">
<feFlood flood-opacity="0" result="BackgroundImageFix"/>
<feColorMatrix in="SourceAlpha" type="matrix" values="0 0 0 0 0 0 0 0 0 0 0 0 0 0 0 0 0 0 127 0" result="hardAlpha"/>
<feOffset/>
<feGaussianBlur stdDeviation="2"/>
<feComposite in2="hardAlpha" operator="out"/>
<feColorMatrix type="matrix" values="0 0 0 0 0.807843 0 0 0 0 0.717647 0 0 0 0 1 0 0 0 1 0"/>
<feBlend mode="normal" in2="BackgroundImageFix" result="effect1_dropShadow_21_3747"/>
<feBlend mode="normal" in="SourceGraphic" in2="effect1_dropShadow_21_3747" result="shape"/>
</filter>
<filter id="filter4_d_21_3747" x="0" y="0" width="310" height="24" filterUnits="userSpaceOnUse" color-interpolation-filters="sRGB">
<feFlood flood-opacity="0" result="BackgroundImageFix"/>
<feColorMatrix in="SourceAlpha" type="matrix" values="0 0 0 0 0 0 0 0 0 0 0 0 0 0 0 0 0 0 127 0" result="hardAlpha"/>
<feOffset/>
<feGaussianBlur stdDeviation="2"/>
<feComposite in2="hardAlpha" operator="out"/>
<feColorMatrix type="matrix" values="0 0 0 0 0.807843 0 0 0 0 0.717647 0 0 0 0 1 0 0 0 1 0"/>
<feBlend mode="normal" in2="BackgroundImageFix" result="effect1_dropShadow_21_3747"/>
<feBlend mode="normal" in="SourceGraphic" in2="effect1_dropShadow_21_3747" result="shape"/>
</filter>
<filter id="filter5_d_21_3747" x="0" y="108" width="310" height="24" filterUnits="userSpaceOnUse" color-interpolation-filters="sRGB">
<feFlood flood-opacity="0" result="BackgroundImageFix"/>
<feColorMatrix in="SourceAlpha" type="matrix" values="0 0 0 0 0 0 0 0 0 0 0 0 0 0 0 0 0 0 127 0" result="hardAlpha"/>
<feOffset/>
<feGaussianBlur stdDeviation="2"/>
<feComposite in2="hardAlpha" operator="out"/>
<feColorMatrix type="matrix" values="0 0 0 0 0.807843 0 0 0 0 0.717647 0 0 0 0 1 0 0 0 1 0"/>
<feBlend mode="normal" in2="BackgroundImageFix" result="effect1_dropShadow_21_3747"/>
<feBlend mode="normal" in="SourceGraphic" in2="effect1_dropShadow_21_3747" result="shape"/>
</filter>
<filter id="filter6_d_21_3747" x="0" y="108" width="310" height="24" filterUnits="userSpaceOnUse" color-interpolation-filters="sRGB">
<feFlood flood-opacity="0" result="BackgroundImageFix"/>
<feColorMatrix in="SourceAlpha" type="matrix" values="0 0 0 0 0 0 0 0 0 0 0 0 0 0 0 0 0 0 127 0" result="hardAlpha"/>
<feOffset/>
<feGaussianBlur stdDeviation="2"/>
<feComposite in2="hardAlpha" operator="out"/>
<feColorMatrix type="matrix" values="0 0 0 0 0.807843 0 0 0 0 0.717647 0 0 0 0 1 0 0 0 1 0"/>
<feBlend mode="normal" in2="BackgroundImageFix" result="effect1_dropShadow_21_3747"/>
<feBlend mode="normal" in="SourceGraphic" in2="effect1_dropShadow_21_3747" result="shape"/>
</filter>
<filter id="filter7_d_21_3747" x="0" y="108" width="310" height="24" filterUnits="userSpaceOnUse" color-interpolation-filters="sRGB">
<feFlood flood-opacity="0" result="BackgroundImageFix"/>
<feColorMatrix in="SourceAlpha" type="matrix" values="0 0 0 0 0 0 0 0 0 0 0 0 0 0 0 0 0 0 127 0" result="hardAlpha"/>
<feOffset/>
<feGaussianBlur stdDeviation="2"/>
<feComposite in2="hardAlpha" operator="out"/>
<feColorMatrix type="matrix" values="0 0 0 0 0.807843 0 0 0 0 0.717647 0 0 0 0 1 0 0 0 1 0"/>
<feBlend mode="normal" in2="BackgroundImageFix" result="effect1_dropShadow_21_3747"/>
<feBlend mode="normal" in="SourceGraphic" in2="effect1_dropShadow_21_3747" result="shape"/>
</filter>
</defs>
</svg>
