<svg width="514" height="132" viewBox="0 0 514 132" fill="none" xmlns="http://www.w3.org/2000/svg">
<g filter="url(#filter0_d_357_12)">
<path d="M36.9148 79.53L37.9108 79.4412L37.796 78.1523L36.5777 78.5885L36.9148 79.53ZM37.9588 91.246L38.3323 92.1736L39.0207 91.8965L38.9548 91.1572L37.9588 91.246ZM16.6728 91.71L16.3484 92.656L16.3606 92.66L16.6728 91.71ZM10.2348 87.534L10.9952 86.8845L10.9952 86.8845L10.2348 87.534ZM6.87078 80.458L5.89329 80.6693L5.89617 80.6819L6.87078 80.458ZM6.81278 60.39L5.83532 60.1787L5.83325 60.1887L6.81278 60.39ZM10.0608 53.256L10.8355 53.8884L10.8417 53.8807L10.0608 53.256ZM16.3248 48.906L15.9841 47.9658L15.9797 47.9674L16.3248 48.906ZM29.3748 47.63L29.2683 48.6243L29.2871 48.6263L29.306 48.6276L29.3748 47.63ZM32.6228 47.978L32.4762 48.9672L32.4814 48.9679L32.6228 47.978ZM35.6388 48.558L35.3962 49.5281L35.4193 49.5339L35.4427 49.5386L35.6388 48.558ZM37.9588 49.254L38.9402 49.446L39.0903 48.6785L38.3817 48.3478L37.9588 49.254ZM35.8708 59.926L35.6629 60.9042L36.657 61.1154L36.8522 60.118L35.8708 59.926ZM20.9068 80.632H19.9068V81.438L20.6944 81.6092L20.9068 80.632ZM23.5748 81.096L23.4454 82.0876L23.4685 82.0906L23.4917 82.0925L23.5748 81.096ZM35.9187 79.6188L36.9627 91.3348L38.9548 91.1572L37.9108 79.4412L35.9187 79.6188ZM37.5853 90.3184C34.7612 91.4553 31.2235 92.044 26.9388 92.044V94.044C31.3928 94.044 35.2017 93.434 38.3323 92.1736L37.5853 90.3184ZM26.9388 92.044C22.864 92.044 19.5565 91.6049 16.9849 90.76L16.3606 92.66C19.2024 93.5938 22.7389 94.044 26.9388 94.044V92.044ZM16.9971 90.7641C14.4302 89.884 12.4456 88.5826 10.9952 86.8845L9.47441 88.1835C11.1946 90.1974 13.502 91.68 16.3485 92.6559L16.9971 90.7641ZM10.9952 86.8845C9.53369 85.1735 8.47391 82.97 7.84539 80.2341L5.89617 80.6819C6.58232 83.6687 7.76521 86.1825 9.47441 88.1835L10.9952 86.8845ZM7.8482 80.2467C7.24857 77.4734 6.94278 74.1643 6.94278 70.308H4.94278C4.94278 74.2624 5.25566 77.7199 5.89337 80.6693L7.8482 80.2467ZM6.94278 70.308C6.94278 66.5665 7.2294 63.3308 7.79232 60.5913L5.83325 60.1887C5.23616 63.0945 4.94278 66.4709 4.94278 70.308H6.94278ZM7.7902 60.6013C8.382 57.8642 9.4065 55.6388 10.8354 53.8884L9.28612 52.6236C7.62173 54.6625 6.48089 57.1931 5.83537 60.1787L7.7902 60.6013ZM10.8417 53.8807C12.26 52.1078 14.1887 50.7568 16.6698 49.8446L15.9797 47.9674C13.2022 48.9886 10.9549 50.5375 9.27991 52.6313L10.8417 53.8807ZM16.6654 49.8462C19.1881 48.9322 22.4271 48.456 26.4168 48.456V46.456C22.2864 46.456 18.7974 46.9465 15.9841 47.9658L16.6654 49.8462ZM26.4168 48.456C27.2637 48.456 28.2135 48.5113 29.2683 48.6243L29.4813 46.6357C28.3708 46.5167 27.3485 46.456 26.4168 46.456V48.456ZM29.306 48.6276C30.403 48.7033 31.4596 48.8166 32.4762 48.9672L32.7693 46.9888C31.6979 46.8301 30.5893 46.7114 29.4436 46.6324L29.306 48.6276ZM32.4814 48.9679C33.5347 49.1184 34.5059 49.3056 35.3962 49.5281L35.8813 47.5879C34.9157 47.3464 33.8762 47.1469 32.7642 46.988L32.4814 48.9679ZM35.4427 49.5386C36.3683 49.7237 37.056 49.9362 37.5359 50.1602L38.3817 48.3478C37.7015 48.0304 36.8426 47.779 35.8349 47.5774L35.4427 49.5386ZM36.9774 49.062L34.8894 59.734L36.8522 60.118L38.9402 49.446L36.9774 49.062ZM36.0786 58.9478C32.936 58.28 30.0997 57.94 27.5768 57.94V59.94C29.9258 59.94 32.6189 60.2573 35.6629 60.9042L36.0786 58.9478ZM27.5768 57.94C25.0632 57.94 23.1155 58.1626 21.9241 58.7345L22.7895 60.5375C23.5314 60.1814 25.0637 59.94 27.5768 59.94V57.94ZM21.9241 58.7345C20.5026 59.4168 19.9068 60.7799 19.9068 62.42H21.9068C21.9068 61.2761 22.2776 60.7832 22.7895 60.5375L21.9241 58.7345ZM19.9068 62.42V80.632H21.9068V62.42H19.9068ZM20.6944 81.6092C21.6108 81.8084 22.5278 81.9679 23.4454 82.0876L23.7041 80.1044C22.8431 79.9921 21.9815 79.8423 21.1192 79.6548L20.6944 81.6092ZM23.4917 82.0925C24.4484 82.1723 25.4234 82.212 26.4168 82.212V80.212C25.4768 80.212 24.5572 80.1744 23.6578 80.0995L23.4917 82.0925ZM26.4168 82.212C30.38 82.212 33.9957 81.6373 37.2519 80.4715L36.5777 78.5885C33.5699 79.6654 30.1869 80.212 26.4168 80.212V82.212ZM41.7061 60.042L40.7337 59.8086L40.7315 59.8181L41.7061 60.042ZM45.1281 52.908L44.3755 52.2494L44.3678 52.2585L45.1281 52.908ZM51.5081 48.79L51.1877 47.8427L51.1877 47.8427L51.5081 48.79ZM70.9961 48.79L70.6714 49.7358L70.6757 49.7373L70.9961 48.79ZM77.3181 52.908L76.5577 53.5575L76.5656 53.5665L77.3181 52.908ZM80.7401 60.042L79.7649 60.2631L79.7666 60.2707L79.7685 60.2784L80.7401 60.042ZM80.8561 80.284L81.8329 80.4981L81.8335 80.4953L80.8561 80.284ZM77.5501 87.36L76.7831 86.7182L76.7755 86.7276L77.5501 87.36ZM71.2281 91.652L71.561 92.595L71.5688 92.5922L71.2281 91.652ZM51.2181 91.652L50.8731 92.5906L50.8813 92.5936L50.8896 92.5965L51.2181 91.652ZM44.8961 87.36L44.1214 87.9924L44.1292 88.0017L44.8961 87.36ZM41.6481 80.284L40.6707 80.4953L40.6713 80.4981L41.6481 80.284ZM55.6841 81.154H54.6841V82.154H55.6841V81.154ZM65.6021 80.516L66.0661 81.4018L66.0736 81.3979L66.081 81.3939L65.6021 80.516ZM66.8781 59.346H67.8781V58.346H66.8781V59.346ZM56.9601 60.042L57.4073 60.9364L57.4233 60.9284L57.439 60.9199L56.9601 60.042ZM41.7201 70.308C41.7201 66.3759 42.045 63.0331 42.6807 60.2659L40.7315 59.8181C40.0525 62.7736 39.7201 66.2747 39.7201 70.308H41.7201ZM42.6785 60.2754C43.3457 57.4953 44.426 55.2697 45.8885 53.5575L44.3678 52.2585C42.6596 54.2583 41.4585 56.7887 40.7337 59.8086L42.6785 60.2754ZM45.8807 53.5665C47.3746 51.8592 49.3448 50.5774 51.8285 49.7373L51.1877 47.8427C48.4128 48.7813 46.1297 50.2448 44.3755 52.2495L45.8807 53.5665ZM51.8285 49.7373C54.3229 48.8936 57.4549 48.456 61.2521 48.456V46.456C57.316 46.456 53.952 46.9077 51.1877 47.8427L51.8285 49.7373ZM61.2521 48.456C65.09 48.456 68.2194 48.8941 70.6714 49.7358L71.3208 47.8442C68.5915 46.9073 65.2249 46.456 61.2521 46.456V48.456ZM70.6757 49.7373C73.1581 50.5769 75.1049 51.8566 76.5578 53.5575L78.0785 52.2585C76.3607 50.2474 74.0928 48.7817 71.3165 47.8427L70.6757 49.7373ZM76.5656 53.5665C78.0597 55.2742 79.1368 57.492 79.7649 60.2631L81.7154 59.8209C81.0288 56.792 79.8245 54.2538 78.0707 52.2495L76.5656 53.5665ZM79.7685 60.2784C80.4404 63.0406 80.7841 66.379 80.7841 70.308H82.7841C82.7841 66.2716 82.4319 62.766 81.7118 59.8056L79.7685 60.2784ZM80.7841 70.308C80.7841 74.0459 80.4787 77.2976 79.8787 80.0727L81.8335 80.4953C82.4709 77.5477 82.7841 74.1488 82.7841 70.308H80.7841ZM79.8793 80.0699C79.2893 82.7619 78.2489 84.9666 76.7832 86.7183L78.3171 88.0017C80.022 85.9641 81.1856 83.4514 81.8329 80.4981L79.8793 80.0699ZM76.7755 86.7276C75.3603 88.4613 73.4133 89.7967 70.8875 90.7118L71.5688 92.5922C74.379 91.574 76.6467 90.0481 78.3248 87.9924L76.7755 86.7276ZM70.8953 90.709C68.4088 91.5866 65.2058 92.044 61.2521 92.044V94.044C65.3411 94.044 68.7887 93.5734 71.5609 92.595L70.8953 90.709ZM61.2521 92.044C57.2992 92.044 54.0746 91.5868 51.5466 90.7075L50.8896 92.5965C53.6976 93.5732 57.1624 94.044 61.2521 94.044V92.044ZM51.5632 90.7134C49.0756 89.7989 47.1218 88.4616 45.6631 86.7183L44.1292 88.0017C45.8411 90.0477 48.1019 91.5718 50.8731 92.5906L51.5632 90.7134ZM45.6708 86.7276C44.2399 84.9748 43.2161 82.7669 42.6249 80.0699L40.6713 80.4981C41.3175 83.4464 42.459 85.9559 44.1215 87.9924L45.6708 86.7276ZM42.6255 80.0727C42.0255 77.2976 41.7201 74.0459 41.7201 70.308H39.7201C39.7201 74.1488 40.0334 77.5477 40.6707 80.4953L42.6255 80.0727ZM54.6841 63.058V81.154H56.6841V63.058H54.6841ZM55.6841 82.154H61.4841V80.154H55.6841V82.154ZM61.4841 82.154C63.4376 82.154 65.0235 81.9479 66.0661 81.4018L65.1381 79.6302C64.5567 79.9347 63.3973 80.154 61.4841 80.154V82.154ZM66.081 81.3939C67.4228 80.662 67.8781 79.147 67.8781 77.442H65.8781C65.8781 78.9076 65.4828 79.442 65.1233 79.6381L66.081 81.3939ZM67.8781 77.442V59.346H65.8781V77.442H67.8781ZM66.8781 58.346H61.0201V60.346H66.8781V58.346ZM61.0201 58.346C59.1238 58.346 57.5601 58.5756 56.4813 59.1641L57.439 60.9199C58.0615 60.5804 59.2044 60.346 61.0201 60.346V58.346ZM56.5129 59.1476C55.136 59.8361 54.6841 61.363 54.6841 63.058H56.6841C56.6841 61.5823 57.083 61.0986 57.4073 60.9364L56.5129 59.1476ZM84.908 91.246L83.9224 91.0768L83.7614 92.0141L84.6895 92.2218L84.908 91.246ZM86.88 79.762L87.1183 78.7908L86.076 78.535L85.8944 79.5928L86.88 79.762ZM103.004 81.27L103.033 82.2696L103.047 82.2692L103.061 82.2684L103.004 81.27ZM106.6 80.922L106.747 81.9112L107.6 81.7848V80.922H106.6ZM106.6 77.442H107.6V76.5219L106.683 76.4455L106.6 77.442ZM100.336 76.92L100.241 77.9155L100.253 77.9165L100.336 76.92ZM93.26 75.528L92.9322 76.4728L92.9322 76.4728L93.26 75.528ZM88.678 72.86L87.959 73.555L87.9708 73.5672L87.9829 73.579L88.678 72.86ZM86.242 68.742L85.2804 69.0167L85.2844 69.0305L85.2887 69.0442L86.242 68.742ZM86.474 55.634L87.4281 55.9333L87.4297 55.9281L86.474 55.634ZM89.432 50.82L90.095 51.5686L90.1009 51.5634L90.1067 51.558L89.432 50.82ZM94.652 48.21L94.4258 47.2359L94.4219 47.2368L94.652 48.21ZM119.244 49.196L120.232 49.3504L120.375 48.4324L119.47 48.222L119.244 49.196ZM117.504 60.332L117.345 61.3193L118.337 61.4787L118.492 60.4864L117.504 60.332ZM100.51 59.636L100.383 58.644L99.51 58.7555V59.636H100.51ZM100.51 63.058H99.51V63.9693L100.417 64.0537L100.51 63.058ZM105.498 63.522L105.599 62.5271L105.591 62.5263L105.498 63.522ZM113.154 65.088L112.817 66.0293L112.824 66.0322L112.832 66.0349L113.154 65.088ZM118.084 67.872L117.4 68.6015L117.406 68.6068L117.411 68.6119L118.084 67.872ZM120.752 71.99L119.799 72.2922L119.802 72.3027L119.806 72.3131L120.752 71.99ZM120.404 84.866L119.471 84.507L119.471 84.507L120.404 84.866ZM117.62 89.448L118.311 90.1706L118.314 90.1678L117.62 89.448ZM114.314 91.478L114.647 92.421L114.659 92.4167L114.671 92.4121L114.314 91.478ZM110.138 92.522L110.294 93.5098L110.294 93.5098L110.138 92.522ZM105.672 92.928L105.646 91.9283L105.633 91.9287L105.619 91.9294L105.672 92.928ZM92.97 92.58L93.0804 91.5861L93.0804 91.5861L92.97 92.58ZM85.8935 91.4152L87.8655 79.9312L85.8944 79.5928L83.9224 91.0768L85.8935 91.4152ZM86.6416 80.7332C90.9529 81.7914 94.882 82.328 98.422 82.328V80.328C95.0793 80.328 91.3137 79.8206 87.1183 78.7908L86.6416 80.7332ZM98.422 82.328C100.169 82.328 101.706 82.3086 103.033 82.2696L102.975 80.2704C101.672 80.3087 100.155 80.328 98.422 80.328V82.328ZM103.061 82.2684C104.436 82.1898 105.666 82.0713 106.747 81.9112L106.453 79.9328C105.446 80.082 104.278 80.1956 102.947 80.2716L103.061 82.2684ZM107.6 80.922V77.442H105.6V80.922H107.6ZM106.683 76.4455L100.419 75.9235L100.253 77.9165L106.517 78.4385L106.683 76.4455ZM100.431 75.9246C97.6581 75.6586 95.3834 75.2062 93.5877 74.5832L92.9322 76.4728C94.9258 77.1644 97.3685 77.64 100.241 77.9154L100.431 75.9246ZM93.5877 74.5832C91.7979 73.9623 90.4062 73.1398 89.373 72.141L87.9829 73.579C89.2697 74.8228 90.9327 75.779 92.9322 76.4728L93.5877 74.5832ZM89.397 72.165C88.3864 71.1195 87.6527 69.8825 87.1952 68.4398L85.2887 69.0442C85.8366 70.7721 86.7269 72.2805 87.959 73.555L89.397 72.165ZM87.2035 68.4673C86.771 66.9536 86.546 65.1552 86.546 63.058H84.546C84.546 65.2915 84.7849 67.2824 85.2804 69.0167L87.2035 68.4673ZM86.546 63.058C86.546 60.1415 86.85 57.7761 87.4281 55.9333L85.5198 55.3347C84.8606 57.4359 84.546 60.0198 84.546 63.058H86.546ZM87.4297 55.9281C88.0034 54.0638 88.9003 52.6267 90.095 51.5686L88.7689 50.0714C87.257 51.4106 86.1819 53.1829 85.5182 55.3399L87.4297 55.9281ZM90.1067 51.558C91.3122 50.4559 92.8894 49.6542 94.882 49.1832L94.4219 47.2368C92.1612 47.7712 90.2584 48.7094 88.7572 50.082L90.1067 51.558ZM94.8781 49.1841C96.9468 48.7039 99.4955 48.456 102.54 48.456V46.456C99.3977 46.456 96.6878 46.7108 94.4258 47.2359L94.8781 49.1841ZM102.54 48.456C108.626 48.456 114.117 49.0303 119.017 50.17L119.47 48.222C114.395 47.0417 108.75 46.456 102.54 46.456V48.456ZM118.256 49.0416L116.516 60.1776L118.492 60.4864L120.232 49.3504L118.256 49.0416ZM117.663 59.3447C113.31 58.6452 109.79 58.288 107.122 58.288V60.288C109.636 60.288 113.036 60.6268 117.345 61.3193L117.663 59.3447ZM107.122 58.288C104.505 58.288 102.256 58.405 100.383 58.644L100.637 60.6279C102.399 60.403 104.558 60.288 107.122 60.288V58.288ZM99.51 59.636V63.058H101.51V59.636H99.51ZM100.417 64.0537L105.405 64.5177L105.591 62.5263L100.603 62.0623L100.417 64.0537ZM105.397 64.5169C108.401 64.8211 110.868 65.3307 112.817 66.0293L113.491 64.1467C111.342 63.376 108.704 62.8415 105.599 62.5271L105.397 64.5169ZM112.832 66.0349C114.783 66.6973 116.291 67.5619 117.4 68.6015L118.768 67.1425C117.402 65.8621 115.624 64.8707 113.476 64.1411L112.832 66.0349ZM117.411 68.6119C118.562 69.6579 119.351 70.8814 119.799 72.2922L121.705 71.6878C121.147 69.928 120.158 68.4061 118.757 67.1321L117.411 68.6119ZM119.806 72.3131C120.305 73.7742 120.564 75.4789 120.564 77.442H122.564C122.564 75.3064 122.282 73.3765 121.698 71.6669L119.806 72.3131ZM120.564 77.442C120.564 80.2997 120.187 82.6443 119.471 84.507L121.337 85.225C122.168 83.0664 122.564 80.4617 122.564 77.442H120.564ZM119.471 84.507C118.729 86.436 117.868 87.8195 116.926 88.7282L118.314 90.1678C119.537 88.9885 120.533 87.3173 121.337 85.225L119.471 84.507ZM116.929 88.7254C116.148 89.4717 115.165 90.082 113.957 90.5439L114.671 92.4121C116.092 91.8686 117.313 91.1256 118.311 90.1706L116.929 88.7254ZM113.981 90.535C112.728 90.9774 111.395 91.3111 109.982 91.5342L110.294 93.5098C111.819 93.2689 113.271 92.9066 114.647 92.421L113.981 90.535ZM109.982 91.5342C108.556 91.7593 107.111 91.8908 105.646 91.9283L105.698 93.9277C107.249 93.8879 108.781 93.7487 110.294 93.5098L109.982 91.5342ZM105.619 91.9294C104.164 92.006 102.848 92.044 101.67 92.044V94.044C102.89 94.044 104.241 94.0047 105.725 93.9266L105.619 91.9294ZM101.67 92.044C98.6881 92.044 95.8251 91.8911 93.0804 91.5861L92.8595 93.5739C95.6829 93.8876 98.6199 94.044 101.67 94.044V92.044ZM93.0804 91.5861C90.3307 91.2806 87.6796 90.8418 85.1264 90.2702L84.6895 92.2218C87.3177 92.8102 90.0412 93.2607 92.8595 93.5739L93.0804 91.5861ZM140.436 70.888V69.888H139.474L139.437 70.8496L140.436 70.888ZM139.624 92V93H140.586L140.623 92.0384L139.624 92ZM125.066 92L124.068 91.9388L124.003 93H125.066V92ZM127.734 48.5V47.5H126.794L126.736 48.4388L127.734 48.5ZM145.888 48.5L146.86 48.2635L146.674 47.5H145.888V48.5ZM151.282 70.656L150.311 70.8925L150.496 71.656H151.282V70.656ZM151.804 70.656V71.656H152.59L152.776 70.8925L151.804 70.656ZM157.198 48.5V47.5H156.412L156.227 48.2635L157.198 48.5ZM175.41 48.5L176.408 48.4401L176.352 47.5H175.41V48.5ZM178.02 92V93H179.082L179.018 91.9401L178.02 92ZM163.462 92L162.463 92.0384L162.5 93H163.462V92ZM162.65 70.888L163.649 70.8496L163.612 69.888H162.65V70.888ZM162.186 70.888V69.888H161.407L161.217 70.643L162.186 70.888ZM156.85 92V93H157.629L157.82 92.245L156.85 92ZM146.236 92L145.267 92.2475L145.46 93H146.236V92ZM140.842 70.888L141.811 70.6405L141.619 69.888H140.842V70.888ZM139.437 70.8496L138.625 91.9616L140.623 92.0384L141.435 70.9264L139.437 70.8496ZM139.624 91H125.066V93H139.624V91ZM126.064 92.0612L128.732 48.5612L126.736 48.4388L124.068 91.9388L126.064 92.0612ZM127.734 49.5H145.888V47.5H127.734V49.5ZM144.917 48.7365L150.311 70.8925L152.254 70.4195L146.86 48.2635L144.917 48.7365ZM151.282 71.656H151.804V69.656H151.282V71.656ZM152.776 70.8925L158.17 48.7365L156.227 48.2635L150.833 70.4195L152.776 70.8925ZM157.198 49.5H175.41V47.5H157.198V49.5ZM174.412 48.5599L177.022 92.0599L179.018 91.9401L176.408 48.4401L174.412 48.5599ZM178.02 91H163.462V93H178.02V91ZM164.461 91.9616L163.649 70.8496L161.651 70.9264L162.463 92.0384L164.461 91.9616ZM162.65 69.888H162.186V71.888H162.65V69.888ZM161.217 70.643L155.881 91.755L157.82 92.245L163.156 71.133L161.217 70.643ZM156.85 91H146.236V93H156.85V91ZM147.205 91.7525L141.811 70.6405L139.873 71.1355L145.267 92.2475L147.205 91.7525ZM140.842 69.888H140.436V71.888H140.842V69.888ZM197.14 92V93H198.14V92H197.14ZM183.22 92H182.22V93H183.22V92ZM183.22 48.5V47.5H182.22V48.5H183.22ZM197.14 48.5H198.14V47.5H197.14V48.5ZM197.14 91H183.22V93H197.14V91ZM184.22 92V48.5H182.22V92H184.22ZM183.22 49.5H197.14V47.5H183.22V49.5ZM196.14 48.5V92H198.14V48.5H196.14ZM233.005 79.53L234.001 79.4412L233.886 78.1523L232.668 78.5885L233.005 79.53ZM234.049 91.246L234.422 92.1736L235.111 91.8965L235.045 91.1572L234.049 91.246ZM212.763 91.71L212.438 92.656L212.45 92.66L212.763 91.71ZM206.325 87.534L207.085 86.8845L207.085 86.8845L206.325 87.534ZM202.961 80.458L201.983 80.6693L201.986 80.6819L202.961 80.458ZM202.903 60.39L201.925 60.1787L201.923 60.1887L202.903 60.39ZM206.151 53.256L206.925 53.8884L206.931 53.8807L206.151 53.256ZM212.415 48.906L212.074 47.9658L212.07 47.9674L212.415 48.906ZM225.465 47.63L225.358 48.6243L225.377 48.6263L225.396 48.6276L225.465 47.63ZM228.713 47.978L228.566 48.9672L228.571 48.9679L228.713 47.978ZM231.729 48.558L231.486 49.5281L231.509 49.5339L231.533 49.5386L231.729 48.558ZM234.049 49.254L235.03 49.446L235.18 48.6785L234.472 48.3478L234.049 49.254ZM231.961 59.926L231.753 60.9042L232.747 61.1154L232.942 60.118L231.961 59.926ZM216.997 80.632H215.997V81.438L216.784 81.6092L216.997 80.632ZM219.665 81.096L219.535 82.0876L219.558 82.0906L219.582 82.0925L219.665 81.096ZM232.009 79.6188L233.053 91.3348L235.045 91.1572L234.001 79.4412L232.009 79.6188ZM233.675 90.3184C230.851 91.4553 227.313 92.044 223.029 92.044V94.044C227.483 94.044 231.292 93.434 234.422 92.1736L233.675 90.3184ZM223.029 92.044C218.954 92.044 215.646 91.6049 213.075 90.76L212.45 92.66C215.292 93.5938 218.829 94.044 223.029 94.044V92.044ZM213.087 90.7641C210.52 89.884 208.535 88.5826 207.085 86.8845L205.564 88.1835C207.284 90.1974 209.592 91.68 212.438 92.6559L213.087 90.7641ZM207.085 86.8845C205.624 85.1735 204.564 82.97 203.935 80.2341L201.986 80.6819C202.672 83.6687 203.855 86.1825 205.564 88.1835L207.085 86.8845ZM203.938 80.2467C203.338 77.4734 203.033 74.1643 203.033 70.308H201.033C201.033 74.2624 201.346 77.7199 201.983 80.6693L203.938 80.2467ZM203.033 70.308C203.033 66.5665 203.319 63.3308 203.882 60.5913L201.923 60.1887C201.326 63.0945 201.033 66.4709 201.033 70.308H203.033ZM203.88 60.6013C204.472 57.8642 205.496 55.6388 206.925 53.8884L205.376 52.6236C203.712 54.6625 202.571 57.1931 201.925 60.1787L203.88 60.6013ZM206.931 53.8807C208.35 52.1078 210.279 50.7568 212.76 49.8446L212.07 47.9674C209.292 48.9886 207.045 50.5375 205.37 52.6313L206.931 53.8807ZM212.755 49.8462C215.278 48.9322 218.517 48.456 222.507 48.456V46.456C218.376 46.456 214.887 46.9465 212.074 47.9658L212.755 49.8462ZM222.507 48.456C223.354 48.456 224.303 48.5113 225.358 48.6243L225.571 46.6357C224.461 46.5167 223.438 46.456 222.507 46.456V48.456ZM225.396 48.6276C226.493 48.7033 227.549 48.8166 228.566 48.9672L228.859 46.9888C227.788 46.8301 226.679 46.7114 225.533 46.6324L225.396 48.6276ZM228.571 48.9679C229.625 49.1184 230.596 49.3056 231.486 49.5281L231.971 47.5879C231.006 47.3464 229.966 47.1469 228.854 46.988L228.571 48.9679ZM231.533 49.5386C232.458 49.7237 233.146 49.9362 233.626 50.1602L234.472 48.3478C233.791 48.0304 232.932 47.779 231.925 47.5774L231.533 49.5386ZM233.067 49.062L230.979 59.734L232.942 60.118L235.03 49.446L233.067 49.062ZM232.168 58.9478C229.026 58.28 226.19 57.94 223.667 57.94V59.94C226.016 59.94 228.709 60.2573 231.753 60.9042L232.168 58.9478ZM223.667 57.94C221.153 57.94 219.205 58.1626 218.014 58.7345L218.879 60.5375C219.621 60.1814 221.154 59.94 223.667 59.94V57.94ZM218.014 58.7345C216.592 59.4168 215.997 60.7799 215.997 62.42H217.997C217.997 61.2761 218.367 60.7832 218.879 60.5375L218.014 58.7345ZM215.997 62.42V80.632H217.997V62.42H215.997ZM216.784 81.6092C217.701 81.8084 218.618 81.9679 219.535 82.0876L219.794 80.1044C218.933 79.9921 218.071 79.8423 217.209 79.6548L216.784 81.6092ZM219.582 82.0925C220.538 82.1723 221.513 82.212 222.507 82.212V80.212C221.567 80.212 220.647 80.1744 219.748 80.0995L219.582 82.0925ZM222.507 82.212C226.47 82.212 230.086 81.6373 233.342 80.4715L232.668 78.5885C229.66 79.6654 226.277 80.212 222.507 80.212V82.212ZM255.185 60.042L254.212 59.8086L254.21 59.8181L255.185 60.042ZM258.607 52.908L257.854 52.2494L257.846 52.2585L258.607 52.908ZM264.987 48.79L264.666 47.8427L264.666 47.8427L264.987 48.79ZM284.475 48.79L284.15 49.7358L284.154 49.7373L284.475 48.79ZM290.797 52.908L290.036 53.5575L290.044 53.5665L290.797 52.908ZM294.219 60.042L293.243 60.2631L293.245 60.2707L293.247 60.2784L294.219 60.042ZM294.335 80.284L295.311 80.4981L295.312 80.4953L294.335 80.284ZM291.029 87.36L290.262 86.7182L290.254 86.7276L291.029 87.36ZM284.707 91.652L285.039 92.595L285.047 92.5922L284.707 91.652ZM264.697 91.652L264.352 92.5906L264.36 92.5936L264.368 92.5965L264.697 91.652ZM258.375 87.36L257.6 87.9924L257.608 88.0017L258.375 87.36ZM255.127 80.284L254.149 80.4953L254.15 80.4981L255.127 80.284ZM269.163 81.154H268.163V82.154H269.163V81.154ZM279.081 80.516L279.545 81.4018L279.552 81.3979L279.559 81.3939L279.081 80.516ZM280.357 59.346H281.357V58.346H280.357V59.346ZM270.439 60.042L270.886 60.9364L270.902 60.9284L270.917 60.9199L270.439 60.042ZM255.199 70.308C255.199 66.3759 255.524 63.0331 256.159 60.2659L254.21 59.8181C253.531 62.7736 253.199 66.2747 253.199 70.308H255.199ZM256.157 60.2754C256.824 57.4953 257.904 55.2697 259.367 53.5575L257.846 52.2585C256.138 54.2583 254.937 56.7887 254.212 59.8086L256.157 60.2754ZM259.359 53.5665C260.853 51.8592 262.823 50.5774 265.307 49.7373L264.666 47.8427C261.891 48.7813 259.608 50.2448 257.854 52.2495L259.359 53.5665ZM265.307 49.7373C267.801 48.8936 270.933 48.456 274.731 48.456V46.456C270.795 46.456 267.431 46.9077 264.666 47.8427L265.307 49.7373ZM274.731 48.456C278.569 48.456 281.698 48.8941 284.15 49.7358L284.799 47.8442C282.07 46.9073 278.703 46.456 274.731 46.456V48.456ZM284.154 49.7373C286.637 50.5769 288.583 51.8566 290.036 53.5575L291.557 52.2585C289.839 50.2474 287.571 48.7817 284.795 47.8427L284.154 49.7373ZM290.044 53.5665C291.538 55.2742 292.615 57.492 293.243 60.2631L295.194 59.8209C294.507 56.792 293.303 54.2538 291.549 52.2495L290.044 53.5665ZM293.247 60.2784C293.919 63.0406 294.263 66.379 294.263 70.308H296.263C296.263 66.2716 295.91 62.766 295.19 59.8056L293.247 60.2784ZM294.263 70.308C294.263 74.0459 293.957 77.2976 293.357 80.0727L295.312 80.4953C295.949 77.5477 296.263 74.1488 296.263 70.308H294.263ZM293.358 80.0699C292.768 82.7619 291.727 84.9666 290.262 86.7183L291.796 88.0017C293.501 85.9641 294.664 83.4514 295.311 80.4981L293.358 80.0699ZM290.254 86.7276C288.839 88.4613 286.892 89.7967 284.366 90.7118L285.047 92.5922C287.857 91.574 290.125 90.0481 291.803 87.9924L290.254 86.7276ZM284.374 90.709C281.887 91.5866 278.684 92.044 274.731 92.044V94.044C278.82 94.044 282.267 93.5734 285.039 92.595L284.374 90.709ZM274.731 92.044C270.778 92.044 267.553 91.5868 265.025 90.7075L264.368 92.5965C267.176 93.5732 270.641 94.044 274.731 94.044V92.044ZM265.042 90.7134C262.554 89.7989 260.6 88.4616 259.142 86.7183L257.608 88.0017C259.32 90.0477 261.58 91.5718 264.352 92.5906L265.042 90.7134ZM259.149 86.7276C257.718 84.9748 256.695 82.7669 256.103 80.0699L254.15 80.4981C254.796 83.4464 255.938 85.9559 257.6 87.9924L259.149 86.7276ZM256.104 80.0727C255.504 77.2976 255.199 74.0459 255.199 70.308H253.199C253.199 74.1488 253.512 77.5477 254.149 80.4953L256.104 80.0727ZM268.163 63.058V81.154H270.163V63.058H268.163ZM269.163 82.154H274.963V80.154H269.163V82.154ZM274.963 82.154C276.916 82.154 278.502 81.9479 279.545 81.4018L278.617 79.6302C278.035 79.9347 276.876 80.154 274.963 80.154V82.154ZM279.559 81.3939C280.901 80.662 281.357 79.147 281.357 77.442H279.357C279.357 78.9076 278.961 79.442 278.602 79.6381L279.559 81.3939ZM281.357 77.442V59.346H279.357V77.442H281.357ZM280.357 58.346H274.499V60.346H280.357V58.346ZM274.499 58.346C272.602 58.346 271.039 58.5756 269.96 59.1641L270.917 60.9199C271.54 60.5804 272.683 60.346 274.499 60.346V58.346ZM269.991 59.1476C268.614 59.8361 268.163 61.363 268.163 63.058H270.163C270.163 61.5823 270.561 61.0986 270.886 60.9364L269.991 59.1476ZM300.126 92H299.126V93H300.126V92ZM300.126 48.5V47.5H299.126V48.5H300.126ZM331.62 50.936L330.946 51.6745L330.946 51.6745L331.62 50.936ZM332.606 65.262L333.436 65.8212L333.441 65.8123L332.606 65.262ZM328.024 68.568L327.755 67.605L327.024 67.8095V68.568H328.024ZM328.024 68.974H327.024V69.8163L327.855 69.9595L328.024 68.974ZM333.65 88.868L332.897 88.2105L332.896 88.2115L333.65 88.868ZM314.046 74.658V73.658H313.046V74.658H314.046ZM314.046 81.792H313.046V82.792H314.046V81.792ZM314.046 58.012V57.012H313.046V58.012H314.046ZM314.046 64.508H313.046V65.508H314.046V64.508ZM325.124 91H300.126V93H325.124V91ZM301.126 92V48.5H299.126V92H301.126ZM300.126 49.5H322.688V47.5H300.126V49.5ZM322.688 49.5C326.783 49.5 329.447 50.3052 330.946 51.6745L332.295 50.1975C330.237 48.3188 326.946 47.5 322.688 47.5V49.5ZM330.946 51.6745C332.462 53.0585 333.288 55.1148 333.288 58.012H335.288C335.288 54.7225 334.336 52.0615 332.295 50.1975L330.946 51.6745ZM333.288 58.012C333.288 61.0459 332.742 63.2396 331.772 64.7117L333.441 65.8123C334.714 63.8818 335.288 61.2421 335.288 58.012H333.288ZM331.777 64.7029C330.789 66.1686 329.46 67.1276 327.755 67.605L328.294 69.531C330.456 68.9257 332.181 67.6808 333.436 65.8211L331.777 64.7029ZM327.024 68.568V68.974H329.024V68.568H327.024ZM327.855 69.9595C330.457 70.4081 332.306 71.4964 333.525 73.1608C334.759 74.8459 335.434 77.2413 335.434 80.458H337.434C337.434 76.9854 336.708 74.1221 335.139 71.9792C333.554 69.8156 331.199 68.5066 328.194 67.9885L327.855 69.9595ZM335.434 80.458C335.434 83.7548 334.559 86.3057 332.897 88.2105L334.404 89.5255C336.454 87.177 337.434 84.1212 337.434 80.458H335.434ZM332.896 88.2115C331.335 90.0051 328.821 91 325.124 91V93C329.161 93 332.331 91.9069 334.405 89.5245L332.896 88.2115ZM319.498 73.658H314.046V75.658H319.498V73.658ZM313.046 74.658V81.792H315.046V74.658H313.046ZM314.046 82.792H319.382V80.792H314.046V82.792ZM319.382 82.792C320.58 82.792 321.641 82.4187 322.373 81.5283C323.075 80.6752 323.34 79.5065 323.34 78.196H321.34C321.34 79.2828 321.113 79.9121 320.829 80.2577C320.575 80.566 320.157 80.792 319.382 80.792V82.792ZM323.34 78.196C323.34 76.9091 323.086 75.7587 322.41 74.9162C321.699 74.0319 320.665 73.658 319.498 73.658V75.658C320.227 75.658 320.613 75.8738 320.85 76.1688C321.121 76.5056 321.34 77.1242 321.34 78.196H323.34ZM318.454 57.012H314.046V59.012H318.454V57.012ZM313.046 58.012V64.508H315.046V58.012H313.046ZM314.046 65.508H318.338V63.508H314.046V65.508ZM318.338 65.508C319.44 65.508 320.428 65.1634 321.112 64.3307C321.765 63.5357 322.006 62.4542 322.006 61.26H320.006C320.006 62.2311 319.803 62.7736 319.567 63.0613C319.361 63.3113 319.016 63.508 318.338 63.508V65.508ZM322.006 61.26C322.006 60.0736 321.778 58.9994 321.155 58.2062C320.495 57.3671 319.532 57.012 318.454 57.012V59.012C319.078 59.012 319.391 59.1983 319.582 59.4418C319.81 59.7313 320.006 60.2811 320.006 61.26H322.006ZM339.216 92L338.224 92.124L338.333 93H339.216V92ZM337.824 80.864V79.864H336.691L336.832 80.988L337.824 80.864ZM346.408 80.226L347.054 80.9894L347.086 80.9625L347.115 80.9331L346.408 80.226ZM346.93 59.636H347.93V58.636H346.93V59.636ZM341.188 59.636H340.188V60.636H341.188V59.636ZM341.188 48.5V47.5H340.188V48.5H341.188ZM360.85 48.5H361.85V47.5H360.85V48.5ZM358.066 89.1L357.345 88.4074L357.338 88.4151L358.066 89.1ZM350.062 91H339.216V93H350.062V91ZM340.208 91.876L338.816 80.74L336.832 80.988L338.224 92.124L340.208 91.876ZM337.824 81.864H343.624V79.864H337.824V81.864ZM343.624 81.864C345.005 81.864 346.258 81.6628 347.054 80.9894L345.762 79.4626C345.553 79.6398 344.95 79.864 343.624 79.864V81.864ZM347.115 80.9331C347.696 80.3522 347.93 79.588 347.93 78.776H345.93C345.93 79.2013 345.816 79.4038 345.701 79.5189L347.115 80.9331ZM347.93 78.776V59.636H345.93V78.776H347.93ZM346.93 58.636H341.188V60.636H346.93V58.636ZM342.188 59.636V48.5H340.188V59.636H342.188ZM341.188 49.5H360.85V47.5H341.188V49.5ZM359.85 48.5V80.516H361.85V48.5H359.85ZM359.85 80.516C359.85 84.1546 358.959 86.7256 357.345 88.4075L358.788 89.7925C360.885 87.6077 361.85 84.4561 361.85 80.516H359.85ZM357.338 88.4151C355.765 90.0878 353.399 91 350.062 91V93C353.763 93 356.733 91.9789 358.795 89.7849L357.338 88.4151ZM394.633 65.494H395.633V64.494H394.633V65.494ZM394.633 75.586V76.586H395.633V75.586H394.633ZM380.713 75.586V74.586H379.713V75.586H380.713ZM380.713 80.864H379.713V81.864H380.713V80.864ZM397.765 80.864H398.765V79.864H397.765V80.864ZM397.765 92V93H398.765V92H397.765ZM366.793 92H365.793V93H366.793V92ZM366.793 48.5V47.5H365.793V48.5H366.793ZM397.416 48.5L398.405 48.6544L398.585 47.5H397.416V48.5ZM395.677 59.636V60.636H396.532L396.665 59.7904L395.677 59.636ZM380.713 59.636V58.636H379.713V59.636H380.713ZM380.713 65.494H379.713V66.494H380.713V65.494ZM393.633 65.494V75.586H395.633V65.494H393.633ZM394.633 74.586H380.713V76.586H394.633V74.586ZM379.713 75.586V80.864H381.713V75.586H379.713ZM380.713 81.864H397.765V79.864H380.713V81.864ZM396.765 80.864V92H398.765V80.864H396.765ZM397.765 91H366.793V93H397.765V91ZM367.793 92V48.5H365.793V92H367.793ZM366.793 49.5H397.416V47.5H366.793V49.5ZM396.428 48.3456L394.688 59.4816L396.665 59.7904L398.405 48.6544L396.428 48.3456ZM395.677 58.636H380.713V60.636H395.677V58.636ZM379.713 59.636V65.494H381.713V59.636H379.713ZM380.713 66.494H394.633V64.494H380.713V66.494ZM432.55 79.53L433.546 79.4412L433.431 78.1523L432.212 78.5885L432.55 79.53ZM433.594 91.246L433.967 92.1736L434.655 91.8965L434.59 91.1572L433.594 91.246ZM412.308 91.71L411.983 92.656L411.995 92.66L412.308 91.71ZM405.87 87.534L406.63 86.8845L406.63 86.8845L405.87 87.534ZM402.506 80.458L401.528 80.6693L401.531 80.6819L402.506 80.458ZM402.448 60.39L401.47 60.1787L401.468 60.1887L402.448 60.39ZM405.696 53.256L406.47 53.8884L406.476 53.8807L405.696 53.256ZM411.96 48.906L411.619 47.9658L411.614 47.9674L411.96 48.906ZM425.01 47.63L424.903 48.6243L424.922 48.6263L424.941 48.6276L425.01 47.63ZM428.258 47.978L428.111 48.9672L428.116 48.9679L428.258 47.978ZM431.274 48.558L431.031 49.5281L431.054 49.5339L431.077 49.5386L431.274 48.558ZM433.594 49.254L434.575 49.446L434.725 48.6785L434.016 48.3478L433.594 49.254ZM431.506 59.926L431.298 60.9042L432.292 61.1154L432.487 60.118L431.506 59.926ZM416.542 80.632H415.542V81.438L416.329 81.6092L416.542 80.632ZM419.21 81.096L419.08 82.0876L419.103 82.0906L419.127 82.0925L419.21 81.096ZM431.553 79.6188L432.597 91.3348L434.59 91.1572L433.546 79.4412L431.553 79.6188ZM433.22 90.3184C430.396 91.4553 426.858 92.044 422.574 92.044V94.044C427.028 94.044 430.836 93.434 433.967 92.1736L433.22 90.3184ZM422.574 92.044C418.499 92.044 415.191 91.6049 412.62 90.76L411.995 92.66C414.837 93.5938 418.374 94.044 422.574 94.044V92.044ZM412.632 90.7641C410.065 89.884 408.08 88.5826 406.63 86.8845L405.109 88.1835C406.829 90.1974 409.137 91.68 411.983 92.6559L412.632 90.7641ZM406.63 86.8845C405.168 85.1735 404.109 82.97 403.48 80.2341L401.531 80.6819C402.217 83.6687 403.4 86.1825 405.109 88.1835L406.63 86.8845ZM403.483 80.2467C402.883 77.4734 402.578 74.1643 402.578 70.308H400.578C400.578 74.2624 400.89 77.7199 401.528 80.6693L403.483 80.2467ZM402.578 70.308C402.578 66.5665 402.864 63.3308 403.427 60.5913L401.468 60.1887C400.871 63.0945 400.578 66.4709 400.578 70.308H402.578ZM403.425 60.6013C404.017 57.8642 405.041 55.6388 406.47 53.8884L404.921 52.6236C403.256 54.6625 402.116 57.1931 401.47 60.1787L403.425 60.6013ZM406.476 53.8807C407.895 52.1078 409.823 50.7568 412.305 49.8446L411.614 47.9674C408.837 48.9886 406.59 50.5375 404.915 52.6313L406.476 53.8807ZM412.3 49.8462C414.823 48.9322 418.062 48.456 422.052 48.456V46.456C417.921 46.456 414.432 46.9465 411.619 47.9658L412.3 49.8462ZM422.052 48.456C422.898 48.456 423.848 48.5113 424.903 48.6243L425.116 46.6357C424.006 46.5167 422.983 46.456 422.052 46.456V48.456ZM424.941 48.6276C426.038 48.7033 427.094 48.8166 428.111 48.9672L428.404 46.9888C427.333 46.8301 426.224 46.7114 425.078 46.6324L424.941 48.6276ZM428.116 48.9679C429.169 49.1184 430.141 49.3056 431.031 49.5281L431.516 47.5879C430.55 47.3464 429.511 47.1469 428.399 46.988L428.116 48.9679ZM431.077 49.5386C432.003 49.7237 432.691 49.9362 433.171 50.1602L434.016 48.3478C433.336 48.0304 432.477 47.779 431.47 47.5774L431.077 49.5386ZM432.612 49.062L430.524 59.734L432.487 60.118L434.575 49.446L432.612 49.062ZM431.713 58.9478C428.571 58.28 425.734 57.94 423.212 57.94V59.94C425.561 59.94 428.254 60.2573 431.298 60.9042L431.713 58.9478ZM423.212 57.94C420.698 57.94 418.75 58.1626 417.559 58.7345L418.424 60.5375C419.166 60.1814 420.698 59.94 423.212 59.94V57.94ZM417.559 58.7345C416.137 59.4168 415.542 60.7799 415.542 62.42H417.542C417.542 61.2761 417.912 60.7832 418.424 60.5375L417.559 58.7345ZM415.542 62.42V80.632H417.542V62.42H415.542ZM416.329 81.6092C417.246 81.8084 418.163 81.9679 419.08 82.0876L419.339 80.1044C418.478 79.9921 417.616 79.8423 416.754 79.6548L416.329 81.6092ZM419.127 82.0925C420.083 82.1723 421.058 82.212 422.052 82.212V80.212C421.112 80.212 420.192 80.1744 419.293 80.0995L419.127 82.0925ZM422.052 82.212C426.015 82.212 429.63 81.6373 432.887 80.4715L432.212 78.5885C429.205 79.6654 425.822 80.212 422.052 80.212V82.212ZM469.415 48.5H470.415V47.5H469.415V48.5ZM469.415 59.636V60.636H470.415V59.636H469.415ZM459.323 59.636V58.636H458.323V59.636H459.323ZM459.323 92V93H460.323V92H459.323ZM445.403 92H444.403V93H445.403V92ZM445.403 59.636H446.403V58.636H445.403V59.636ZM435.311 59.636H434.311V60.636H435.311V59.636ZM435.311 48.5V47.5H434.311V48.5H435.311ZM468.415 48.5V59.636H470.415V48.5H468.415ZM469.415 58.636H459.323V60.636H469.415V58.636ZM458.323 59.636V92H460.323V59.636H458.323ZM459.323 91H445.403V93H459.323V91ZM446.403 92V59.636H444.403V92H446.403ZM445.403 58.636H435.311V60.636H445.403V58.636ZM436.311 59.636V48.5H434.311V59.636H436.311ZM435.311 49.5H469.415V47.5H435.311V49.5ZM471.48 91.246L470.495 91.0768L470.334 92.0141L471.262 92.2218L471.48 91.246ZM473.452 79.762L473.691 78.7908L472.648 78.535L472.467 79.5928L473.452 79.762ZM489.576 81.27L489.606 82.2696L489.619 82.2692L489.633 82.2684L489.576 81.27ZM493.172 80.922L493.319 81.9112L494.172 81.7848V80.922H493.172ZM493.172 77.442H494.172V76.5219L493.255 76.4455L493.172 77.442ZM486.908 76.92L486.813 77.9155L486.825 77.9165L486.908 76.92ZM479.832 75.528L479.504 76.4728L479.504 76.4728L479.832 75.528ZM475.25 72.86L474.531 73.555L474.543 73.5672L474.555 73.579L475.25 72.86ZM472.814 68.742L471.853 69.0167L471.857 69.0305L471.861 69.0442L472.814 68.742ZM473.046 55.634L474 55.9333L474.002 55.9281L473.046 55.634ZM476.004 50.82L476.667 51.5686L476.673 51.5634L476.679 51.558L476.004 50.82ZM481.224 48.21L480.998 47.2359L480.994 47.2368L481.224 48.21ZM505.816 49.196L506.804 49.3504L506.948 48.4324L506.043 48.222L505.816 49.196ZM504.076 60.332L503.918 61.3193L504.909 61.4787L505.064 60.4864L504.076 60.332ZM487.082 59.636L486.956 58.644L486.082 58.7555V59.636H487.082ZM487.082 63.058H486.082V63.9693L486.99 64.0537L487.082 63.058ZM492.07 63.522L492.171 62.5271L492.163 62.5263L492.07 63.522ZM499.726 65.088L499.389 66.0293L499.397 66.0322L499.405 66.0349L499.726 65.088ZM504.656 67.872L503.972 68.6015L503.978 68.6068L503.984 68.6119L504.656 67.872ZM507.324 71.99L506.371 72.2922L506.374 72.3027L506.378 72.3131L507.324 71.99ZM506.976 84.866L506.043 84.507L506.043 84.507L506.976 84.866ZM504.192 89.448L504.883 90.1706L504.886 90.1678L504.192 89.448ZM500.886 91.478L501.219 92.421L501.231 92.4167L501.243 92.4121L500.886 91.478ZM496.71 92.522L496.866 93.5098L496.866 93.5098L496.71 92.522ZM492.244 92.928L492.219 91.9283L492.205 91.9287L492.192 91.9294L492.244 92.928ZM479.542 92.58L479.653 91.5861L479.653 91.5861L479.542 92.58ZM472.466 91.4152L474.438 79.9312L472.467 79.5928L470.495 91.0768L472.466 91.4152ZM473.214 80.7332C477.525 81.7914 481.454 82.328 484.994 82.328V80.328C481.652 80.328 477.886 79.8206 473.691 78.7908L473.214 80.7332ZM484.994 82.328C486.741 82.328 488.279 82.3086 489.606 82.2696L489.547 80.2704C488.245 80.3087 486.727 80.328 484.994 80.328V82.328ZM489.633 82.2684C491.009 82.1898 492.238 82.0713 493.319 81.9112L493.026 79.9328C492.018 80.082 490.85 80.1956 489.519 80.2716L489.633 82.2684ZM494.172 80.922V77.442H492.172V80.922H494.172ZM493.255 76.4455L486.991 75.9235L486.825 77.9165L493.089 78.4385L493.255 76.4455ZM487.004 75.9246C484.23 75.6586 481.956 75.2062 480.16 74.5832L479.504 76.4728C481.498 77.1644 483.941 77.64 486.813 77.9154L487.004 75.9246ZM480.16 74.5832C478.37 73.9623 476.979 73.1398 475.945 72.141L474.555 73.579C475.842 74.8228 477.505 75.779 479.504 76.4728L480.16 74.5832ZM475.969 72.165C474.959 71.1195 474.225 69.8825 473.767 68.4398L471.861 69.0442C472.409 70.7721 473.299 72.2805 474.531 73.555L475.969 72.165ZM473.776 68.4673C473.343 66.9536 473.118 65.1552 473.118 63.058H471.118C471.118 65.2915 471.357 67.2824 471.853 69.0167L473.776 68.4673ZM473.118 63.058C473.118 60.1415 473.422 57.7761 474 55.9333L472.092 55.3347C471.433 57.4359 471.118 60.0198 471.118 63.058H473.118ZM474.002 55.9281C474.576 54.0638 475.473 52.6267 476.667 51.5686L475.341 50.0714C473.829 51.4106 472.754 53.1829 472.09 55.3399L474.002 55.9281ZM476.679 51.558C477.884 50.4559 479.462 49.6542 481.454 49.1832L480.994 47.2368C478.733 47.7712 476.831 48.7094 475.329 50.082L476.679 51.558ZM481.45 49.1841C483.519 48.7039 486.068 48.456 489.112 48.456V46.456C485.97 46.456 483.26 46.7108 480.998 47.2359L481.45 49.1841ZM489.112 48.456C495.199 48.456 500.689 49.0303 505.59 50.17L506.043 48.222C500.967 47.0417 495.322 46.456 489.112 46.456V48.456ZM504.828 49.0416L503.088 60.1776L505.064 60.4864L506.804 49.3504L504.828 49.0416ZM504.235 59.3447C499.882 58.6452 496.362 58.288 493.694 58.288V60.288C496.208 60.288 499.609 60.6268 503.918 61.3193L504.235 59.3447ZM493.694 58.288C491.077 58.288 488.828 58.405 486.956 58.644L487.209 60.6279C488.971 60.403 491.13 60.288 493.694 60.288V58.288ZM486.082 59.636V63.058H488.082V59.636H486.082ZM486.99 64.0537L491.978 64.5177L492.163 62.5263L487.175 62.0623L486.99 64.0537ZM491.969 64.5169C494.974 64.8211 497.44 65.3307 499.389 66.0293L500.064 64.1467C497.914 63.376 495.276 62.8415 492.171 62.5271L491.969 64.5169ZM499.405 66.0349C501.355 66.6973 502.863 67.5619 503.972 68.6015L505.34 67.1425C503.974 65.8621 502.196 64.8707 500.048 64.1411L499.405 66.0349ZM503.984 68.6119C505.134 69.6579 505.924 70.8814 506.371 72.2922L508.277 71.6878C507.719 69.928 506.73 68.4061 505.329 67.1321L503.984 68.6119ZM506.378 72.3131C506.877 73.7742 507.136 75.4789 507.136 77.442H509.136C509.136 75.3064 508.854 73.3765 508.271 71.6669L506.378 72.3131ZM507.136 77.442C507.136 80.2997 506.759 82.6443 506.043 84.507L507.91 85.225C508.74 83.0664 509.136 80.4617 509.136 77.442H507.136ZM506.043 84.507C505.301 86.436 504.44 87.8195 503.498 88.7282L504.886 90.1678C506.109 88.9885 507.105 87.3173 507.91 85.225L506.043 84.507ZM503.501 88.7254C502.721 89.4717 501.737 90.082 500.529 90.5439L501.243 92.4121C502.665 91.8686 503.885 91.1256 504.883 90.1706L503.501 88.7254ZM500.553 90.535C499.3 90.9774 497.967 91.3111 496.554 91.5342L496.866 93.5098C498.392 93.2689 499.843 92.9066 501.219 92.421L500.553 90.535ZM496.554 91.5342C495.129 91.7593 493.684 91.8908 492.219 91.9283L492.27 93.9277C493.821 93.8879 495.353 93.7487 496.866 93.5098L496.554 91.5342ZM492.192 91.9294C490.736 92.006 489.42 92.044 488.242 92.044V94.044C489.462 94.044 490.814 94.0047 492.297 93.9266L492.192 91.9294ZM488.242 92.044C485.26 92.044 482.397 91.8911 479.653 91.5861L479.432 93.5739C482.255 93.8876 485.192 94.044 488.242 94.044V92.044ZM479.653 91.5861C476.903 91.2806 474.252 90.8418 471.699 90.2702L471.262 92.2218C473.89 92.8102 476.613 93.2607 479.432 93.5739L479.653 91.5861Z" fill="#CEB7FF"/>
</g>
<g filter="url(#filter1_d_357_12)">
<path d="M65.6016 4.5H404.602V19.5H65.6016V4.5Z" stroke="#CEB7FF" shape-rendering="crispEdges"/>
</g>
<g filter="url(#filter2_d_357_12)">
<path d="M65.6016 112.5H404.602V127.5H65.6016V112.5Z" stroke="#CEB7FF" shape-rendering="crispEdges"/>
</g>
<defs>
<filter id="filter0_d_357_12" x="0.942749" y="42.456" width="512.193" height="55.588" filterUnits="userSpaceOnUse" color-interpolation-filters="sRGB">
<feFlood flood-opacity="0" result="BackgroundImageFix"/>
<feColorMatrix in="SourceAlpha" type="matrix" values="0 0 0 0 0 0 0 0 0 0 0 0 0 0 0 0 0 0 127 0" result="hardAlpha"/>
<feOffset/>
<feGaussianBlur stdDeviation="2.5"/>
<feComposite in2="hardAlpha" operator="out"/>
<feColorMatrix type="matrix" values="0 0 0 0 0.701961 0 0 0 0 0.466667 0 0 0 0 1 0 0 0 1 0"/>
<feBlend mode="normal" in2="BackgroundImageFix" result="effect1_dropShadow_357_12"/>
<feBlend mode="normal" in="SourceGraphic" in2="effect1_dropShadow_357_12" result="shape"/>
</filter>
<filter id="filter1_d_357_12" x="61.1016" y="0" width="348" height="24" filterUnits="userSpaceOnUse" color-interpolation-filters="sRGB">
<feFlood flood-opacity="0" result="BackgroundImageFix"/>
<feColorMatrix in="SourceAlpha" type="matrix" values="0 0 0 0 0 0 0 0 0 0 0 0 0 0 0 0 0 0 127 0" result="hardAlpha"/>
<feOffset/>
<feGaussianBlur stdDeviation="2"/>
<feComposite in2="hardAlpha" operator="out"/>
<feColorMatrix type="matrix" values="0 0 0 0 0.807843 0 0 0 0 0.717647 0 0 0 0 1 0 0 0 1 0"/>
<feBlend mode="normal" in2="BackgroundImageFix" result="effect1_dropShadow_357_12"/>
<feBlend mode="normal" in="SourceGraphic" in2="effect1_dropShadow_357_12" result="shape"/>
</filter>
<filter id="filter2_d_357_12" x="61.1016" y="108" width="348" height="24" filterUnits="userSpaceOnUse" color-interpolation-filters="sRGB">
<feFlood flood-opacity="0" result="BackgroundImageFix"/>
<feColorMatrix in="SourceAlpha" type="matrix" values="0 0 0 0 0 0 0 0 0 0 0 0 0 0 0 0 0 0 127 0" result="hardAlpha"/>
<feOffset/>
<feGaussianBlur stdDeviation="2"/>
<feComposite in2="hardAlpha" operator="out"/>
<feColorMatrix type="matrix" values="0 0 0 0 0.807843 0 0 0 0 0.717647 0 0 0 0 1 0 0 0 1 0"/>
<feBlend mode="normal" in2="BackgroundImageFix" result="effect1_dropShadow_357_12"/>
<feBlend mode="normal" in="SourceGraphic" in2="effect1_dropShadow_357_12" result="shape"/>
</filter>
</defs>
</svg>
