<svg width="615" height="132" viewBox="0 0 615 132" fill="none" xmlns="http://www.w3.org/2000/svg">
<g filter="url(#filter0_d_11_16148)">
<path d="M22.5016 79.502V78.502H21.5016V79.502H22.5016ZM22.5016 90V91H23.5016V90H22.5016ZM8.58156 90H7.58156V91H8.58156V90ZM8.58156 46.5V45.5H7.58156V46.5H8.58156ZM44.7736 69.178L43.7982 68.9572V68.9572L44.7736 69.178ZM42.3956 74.572L41.5859 73.985L41.5832 73.9888L42.3956 74.572ZM38.1036 78.168L37.6563 77.2735L37.6485 77.2776L38.1036 78.168ZM22.5016 57.636V56.636H21.5016V57.636H22.5016ZM22.5016 68.366H21.5016V69.366H22.5016V68.366ZM29.3456 67.844L28.9352 66.9321L28.9263 66.9361L28.9175 66.9403L29.3456 67.844ZM29.3456 58.158L28.9175 59.0617L28.9263 59.0659L28.9352 59.0699L29.3456 58.158ZM31.5496 78.502H22.5016V80.502H31.5496V78.502ZM21.5016 79.502V90H23.5016V79.502H21.5016ZM22.5016 89H8.58156V91H22.5016V89ZM9.58156 90V46.5H7.58156V90H9.58156ZM8.58156 47.5H30.5056V45.5H8.58156V47.5ZM30.5056 47.5C35.3205 47.5 38.753 48.789 40.9968 51.1981C43.2531 53.6205 44.4696 57.3478 44.4696 62.566H46.4696C46.4696 57.0735 45.1921 52.7678 42.4603 49.8349C39.7161 46.8886 35.6666 45.5 30.5056 45.5V47.5ZM44.4696 62.566C44.4696 64.8593 44.244 66.9885 43.7982 68.9572L45.7489 69.3988C46.2311 67.2688 46.4696 64.9901 46.4696 62.566H44.4696ZM43.7982 68.9572C43.3611 70.8878 42.6202 72.5584 41.586 73.985L43.2052 75.159C44.4136 73.4922 45.258 71.5669 45.7489 69.3988L43.7982 68.9572ZM41.5832 73.9888C40.6019 75.3556 39.3005 76.4515 37.6563 77.2736L38.5508 79.0624C40.464 78.1058 42.0239 76.8044 43.2079 75.1552L41.5832 73.9888ZM37.6485 77.2776C36.0894 78.0744 34.0729 78.502 31.5496 78.502V80.502C34.2849 80.502 36.6377 80.0403 38.5587 79.0584L37.6485 77.2776ZM25.6916 56.636H22.5016V58.636H25.6916V56.636ZM21.5016 57.636V68.366H23.5016V57.636H21.5016ZM22.5016 69.366H25.6916V67.366H22.5016V69.366ZM25.6916 69.366C27.4136 69.366 28.8246 69.1973 29.7736 68.7477L28.9175 66.9403C28.3972 67.1867 27.3722 67.366 25.6916 67.366V69.366ZM29.7559 68.7559C31.0564 68.1707 31.5056 66.8518 31.5056 65.408H29.5056C29.5056 66.5162 29.1814 66.8213 28.9352 66.9321L29.7559 68.7559ZM31.5056 65.408V60.536H29.5056V65.408H31.5056ZM31.5056 60.536C31.5056 59.1131 31.0455 57.8264 29.7559 57.2461L28.9352 59.0699C29.1923 59.1856 29.5056 59.4842 29.5056 60.536H31.5056ZM29.7736 57.2543C28.8246 56.8047 27.4136 56.636 25.6916 56.636V58.636C27.3722 58.636 28.3972 58.8153 28.9175 59.0617L29.7736 57.2543ZM77.486 78.864H78.486V77.864H77.486V78.864ZM77.486 90V91H78.486V90H77.486ZM49.646 90H48.646V91H49.646V90ZM49.646 46.5V45.5H48.646V46.5H49.646ZM63.566 46.5H64.566V45.5H63.566V46.5ZM63.566 78.864H62.566V79.864H63.566V78.864ZM76.486 78.864V90H78.486V78.864H76.486ZM77.486 89H49.646V91H77.486V89ZM50.646 90V46.5H48.646V90H50.646ZM49.646 47.5H63.566V45.5H49.646V47.5ZM62.566 46.5V78.864H64.566V46.5H62.566ZM63.566 79.864H77.486V77.864H63.566V79.864ZM93.2561 83.098V82.098H92.4576L92.2809 82.8767L93.2561 83.098ZM91.6901 90V91H92.4887L92.6653 90.2213L91.6901 90ZM77.0161 90L76.048 89.7496L75.7245 91H77.0161V90ZM88.2681 46.5V45.5H87.4939L87.3 46.2496L88.2681 46.5ZM109.786 46.5L110.754 46.2496L110.56 45.5H109.786V46.5ZM121.038 90V91H122.33L122.006 89.7496L121.038 90ZM106.364 90L105.391 90.229L105.572 91H106.364V90ZM104.74 83.098L105.714 82.869L105.532 82.098H104.74V83.098ZM99.4041 59.84L100.379 59.6172L100.201 58.84H99.4041V59.84ZM98.6501 59.84V58.84H97.8566L97.6763 59.6128L98.6501 59.84ZM95.8081 72.02L94.8343 71.7928L94.5479 73.02H95.8081V72.02ZM102.188 72.02V73.02H103.442L103.163 71.7972L102.188 72.02ZM92.2809 82.8767L90.7149 89.7787L92.6653 90.2213L94.2313 83.3193L92.2809 82.8767ZM91.6901 89H77.0161V91H91.6901V89ZM77.9843 90.2504L89.2363 46.7504L87.3 46.2496L76.048 89.7496L77.9843 90.2504ZM88.2681 47.5H109.786V45.5H88.2681V47.5ZM108.818 46.7504L120.07 90.2504L122.006 89.7496L110.754 46.2496L108.818 46.7504ZM121.038 89H106.364V91H121.038V89ZM107.338 89.771L105.714 82.869L103.767 83.327L105.391 90.229L107.338 89.771ZM104.74 82.098H93.2561V84.098H104.74V82.098ZM99.4041 58.84H98.6501V60.84H99.4041V58.84ZM97.6763 59.6128L94.8343 71.7928L96.782 72.2472L99.624 60.0672L97.6763 59.6128ZM95.8081 73.02H102.188V71.02H95.8081V73.02ZM103.163 71.7972L100.379 59.6172L98.4293 60.0628L101.213 72.2428L103.163 71.7972ZM162.36 90V91H163.36V90H162.36ZM149.252 90L148.428 90.5668L148.726 91H149.252V90ZM138.638 74.572L139.462 74.0052L139.457 73.9979L139.452 73.9908L138.638 74.572ZM138.174 73.354L137.196 73.5635L138.174 73.354ZM137.942 71.208L138.941 71.1646L138.899 70.208H137.942V71.208ZM137.652 71.208V70.208H136.652V71.208H137.652ZM137.652 90V91H138.652V90H137.652ZM123.732 90H122.732V91H123.732V90ZM123.732 46.5V45.5H122.732V46.5H123.732ZM136.84 46.5L137.664 45.9332L137.366 45.5H136.84V46.5ZM147.454 61.928L146.63 62.4948L146.635 62.5021L146.64 62.5092L147.454 61.928ZM148.15 65.292L147.151 65.3354L147.192 66.292H148.15V65.292ZM148.44 65.292V66.292H149.44V65.292H148.44ZM148.44 46.5V45.5H147.44V46.5H148.44ZM162.36 46.5H163.36V45.5H162.36V46.5ZM162.36 89H149.252V91H162.36V89ZM150.076 89.4332L139.462 74.0052L137.814 75.1388L148.428 90.5668L150.076 89.4332ZM139.452 73.9908C139.374 73.8816 139.256 73.6293 139.152 73.1445L137.196 73.5635C137.324 74.1613 137.516 74.7211 137.824 75.1532L139.452 73.9908ZM139.152 73.1445C139.052 72.6804 138.979 72.0273 138.941 71.1646L136.943 71.2514C136.983 72.1674 137.064 72.9449 137.196 73.5635L139.152 73.1445ZM137.942 70.208H137.652V72.208H137.942V70.208ZM136.652 71.208V90H138.652V71.208H136.652ZM137.652 89H123.732V91H137.652V89ZM124.732 90V46.5H122.732V90H124.732ZM123.732 47.5H136.84V45.5H123.732V47.5ZM136.016 47.0668L146.63 62.4948L148.278 61.3612L137.664 45.9332L136.016 47.0668ZM146.64 62.5092C146.718 62.6184 146.836 62.8706 146.94 63.3555L148.896 62.9365C148.768 62.3387 148.576 61.7789 148.268 61.3468L146.64 62.5092ZM146.94 63.3555C147.04 63.8196 147.113 64.4727 147.151 65.3354L149.149 65.2486C149.109 64.3326 149.028 63.5551 148.896 62.9365L146.94 63.3555ZM148.15 66.292H148.44V64.292H148.15V66.292ZM149.44 65.292V46.5H147.44V65.292H149.44ZM148.44 47.5H162.36V45.5H148.44V47.5ZM161.36 46.5V90H163.36V46.5H161.36ZM197.168 63.494H198.168V62.494H197.168V63.494ZM197.168 73.586V74.586H198.168V73.586H197.168ZM183.248 73.586V72.586H182.248V73.586H183.248ZM183.248 78.864H182.248V79.864H183.248V78.864ZM200.3 78.864H201.3V77.864H200.3V78.864ZM200.3 90V91H201.3V90H200.3ZM169.328 90H168.328V91H169.328V90ZM169.328 46.5V45.5H168.328V46.5H169.328ZM199.952 46.5L200.94 46.6544L201.12 45.5H199.952V46.5ZM198.212 57.636V58.636H199.068L199.2 57.7904L198.212 57.636ZM183.248 57.636V56.636H182.248V57.636H183.248ZM183.248 63.494H182.248V64.494H183.248V63.494ZM196.168 63.494V73.586H198.168V63.494H196.168ZM197.168 72.586H183.248V74.586H197.168V72.586ZM182.248 73.586V78.864H184.248V73.586H182.248ZM183.248 79.864H200.3V77.864H183.248V79.864ZM199.3 78.864V90H201.3V78.864H199.3ZM200.3 89H169.328V91H200.3V89ZM170.328 90V46.5H168.328V90H170.328ZM169.328 47.5H199.952V45.5H169.328V47.5ZM198.964 46.3456L197.224 57.4816L199.2 57.7904L200.94 46.6544L198.964 46.3456ZM198.212 56.636H183.248V58.636H198.212V56.636ZM182.248 57.636V63.494H184.248V57.636H182.248ZM183.248 64.494H197.168V62.494H183.248V64.494ZM237.173 46.5H238.173V45.5H237.173V46.5ZM237.173 57.636V58.636H238.173V57.636H237.173ZM227.081 57.636V56.636H226.081V57.636H227.081ZM227.081 90V91H228.081V90H227.081ZM213.161 90H212.161V91H213.161V90ZM213.161 57.636H214.161V56.636H213.161V57.636ZM203.069 57.636H202.069V58.636H203.069V57.636ZM203.069 46.5V45.5H202.069V46.5H203.069ZM236.173 46.5V57.636H238.173V46.5H236.173ZM237.173 56.636H227.081V58.636H237.173V56.636ZM226.081 57.636V90H228.081V57.636H226.081ZM227.081 89H213.161V91H227.081V89ZM214.161 90V57.636H212.161V90H214.161ZM213.161 56.636H203.069V58.636H213.161V56.636ZM204.069 57.636V46.5H202.069V57.636H204.069ZM203.069 47.5H237.173V45.5H203.069V47.5ZM296.995 90V91H297.995V90H296.995ZM283.887 90L283.063 90.5668L283.361 91H283.887V90ZM273.273 74.572L274.097 74.0052L274.092 73.9979L274.086 73.9908L273.273 74.572ZM272.809 73.354L271.831 73.5635L272.809 73.354ZM272.577 71.208L273.576 71.1646L273.534 70.208H272.577V71.208ZM272.287 71.208V70.208H271.287V71.208H272.287ZM272.287 90V91H273.287V90H272.287ZM258.367 90H257.367V91H258.367V90ZM258.367 46.5V45.5H257.367V46.5H258.367ZM271.475 46.5L272.299 45.9332L272.001 45.5H271.475V46.5ZM282.089 61.928L281.265 62.4948L281.27 62.5021L281.275 62.5092L282.089 61.928ZM282.785 65.292L281.786 65.3354L281.827 66.292H282.785V65.292ZM283.075 65.292V66.292H284.075V65.292H283.075ZM283.075 46.5V45.5H282.075V46.5H283.075ZM296.995 46.5H297.995V45.5H296.995V46.5ZM296.995 89H283.887V91H296.995V89ZM284.711 89.4332L274.097 74.0052L272.449 75.1388L283.063 90.5668L284.711 89.4332ZM274.086 73.9908C274.008 73.8816 273.89 73.6293 273.787 73.1445L271.831 73.5635C271.959 74.1613 272.15 74.7211 272.459 75.1532L274.086 73.9908ZM273.787 73.1445C273.687 72.6804 273.613 72.0273 273.576 71.1646L271.578 71.2514C271.617 72.1674 271.698 72.9449 271.831 73.5635L273.787 73.1445ZM272.577 70.208H272.287V72.208H272.577V70.208ZM271.287 71.208V90H273.287V71.208H271.287ZM272.287 89H258.367V91H272.287V89ZM259.367 90V46.5H257.367V90H259.367ZM258.367 47.5H271.475V45.5H258.367V47.5ZM270.651 47.0668L281.265 62.4948L282.913 61.3612L272.299 45.9332L270.651 47.0668ZM281.275 62.5092C281.353 62.6184 281.471 62.8706 281.575 63.3555L283.531 62.9365C283.402 62.3387 283.211 61.7789 282.902 61.3468L281.275 62.5092ZM281.575 63.3555C281.674 63.8196 281.748 64.4727 281.786 65.3354L283.784 65.2486C283.744 64.3326 283.663 63.5551 283.531 62.9365L281.575 63.3555ZM282.785 66.292H283.075V64.292H282.785V66.292ZM284.075 65.292V46.5H282.075V65.292H284.075ZM283.075 47.5H296.995V45.5H283.075V47.5ZM295.995 46.5V90H297.995V46.5H295.995ZM315.91 83.098V82.098H315.112L314.935 82.8767L315.91 83.098ZM314.344 90V91H315.143L315.32 90.2213L314.344 90ZM299.67 90L298.702 89.7496L298.379 91H299.67V90ZM310.922 46.5V45.5H310.148L309.954 46.2496L310.922 46.5ZM332.44 46.5L333.409 46.2496L333.215 45.5H332.44V46.5ZM343.692 90V91H344.984L344.661 89.7496L343.692 90ZM329.018 90L328.045 90.229L328.226 91H329.018V90ZM327.394 83.098L328.368 82.869L328.186 82.098H327.394V83.098ZM322.058 59.84L323.033 59.6172L322.856 58.84H322.058V59.84ZM321.304 59.84V58.84H320.511L320.331 59.6128L321.304 59.84ZM318.462 72.02L317.489 71.7928L317.202 73.02H318.462V72.02ZM324.842 72.02V73.02H326.097L325.817 71.7972L324.842 72.02ZM314.935 82.8767L313.369 89.7787L315.32 90.2213L316.886 83.3193L314.935 82.8767ZM314.344 89H299.67V91H314.344V89ZM300.639 90.2504L311.891 46.7504L309.954 46.2496L298.702 89.7496L300.639 90.2504ZM310.922 47.5H332.44V45.5H310.922V47.5ZM331.472 46.7504L342.724 90.2504L344.661 89.7496L333.409 46.2496L331.472 46.7504ZM343.692 89H329.018V91H343.692V89ZM329.992 89.771L328.368 82.869L326.421 83.327L328.045 90.229L329.992 89.771ZM327.394 82.098H315.91V84.098H327.394V82.098ZM322.058 58.84H321.304V60.84H322.058V58.84ZM320.331 59.6128L317.489 71.7928L319.436 72.2472L322.278 60.0672L320.331 59.6128ZM318.462 73.02H324.842V71.02H318.462V73.02ZM325.817 71.7972L323.033 59.6172L321.084 60.0628L323.868 72.2428L325.817 71.7972ZM364.134 74.108V75.108H364.941L365.112 74.3195L364.134 74.108ZM370.108 46.5V45.5H369.301L369.131 46.2885L370.108 46.5ZM384.782 46.5L385.753 46.7407L386.061 45.5H384.782V46.5ZM373.994 90V91H374.777L374.965 90.2407L373.994 90ZM353.694 90L352.724 90.2407L352.912 91H353.694V90ZM342.906 46.5V45.5H341.628L341.936 46.7407L342.906 46.5ZM357.58 46.5L358.558 46.2905L358.389 45.5H357.58V46.5ZM363.496 74.108L362.518 74.3175L362.688 75.108H363.496V74.108ZM365.112 74.3195L371.086 46.7115L369.131 46.2885L363.157 73.8965L365.112 74.3195ZM370.108 47.5H384.782V45.5H370.108V47.5ZM383.812 46.2593L373.024 89.7593L374.965 90.2407L385.753 46.7407L383.812 46.2593ZM373.994 89H353.694V91H373.994V89ZM354.665 89.7593L343.877 46.2593L341.936 46.7407L352.724 90.2407L354.665 89.7593ZM342.906 47.5H357.58V45.5H342.906V47.5ZM356.602 46.7095L362.518 74.3175L364.474 73.8985L358.558 46.2905L356.602 46.7095ZM363.496 75.108H364.134V73.108H363.496V75.108ZM402.164 90V91H403.164V90H402.164ZM388.244 90H387.244V91H388.244V90ZM388.244 46.5V45.5H387.244V46.5H388.244ZM402.164 46.5H403.164V45.5H402.164V46.5ZM402.164 89H388.244V91H402.164V89ZM389.244 90V46.5H387.244V90H389.244ZM388.244 47.5H402.164V45.5H388.244V47.5ZM401.164 46.5V90H403.164V46.5H401.164ZM431.416 75.326H432.416V74.326H431.416V75.326ZM427.878 75.326H426.878V76.326H427.878V75.326ZM427.878 64.654V63.654H426.878V64.654H427.878ZM444.64 64.654H445.64V63.654H444.64V64.654ZM444.64 87.912L444.996 88.8467L445.64 88.6016V87.912H444.64ZM417.438 89.594L417.093 90.5326L417.097 90.5342L417.438 89.594ZM411.174 85.302L410.393 85.9267L410.399 85.9344L411.174 85.302ZM407.926 78.168L406.946 78.3667L406.948 78.3744L406.949 78.3821L407.926 78.168ZM408.158 57.868L409.127 58.1167L409.127 58.1136L408.158 57.868ZM411.812 50.792L412.542 51.4755L412.549 51.4677L411.812 50.792ZM418.598 46.732L418.31 45.7745L418.598 46.732ZM432.344 45.63L432.251 46.6256L432.267 46.6272L432.284 46.6282L432.344 45.63ZM436.172 46.036L436.022 47.0247L436.037 47.0269L436.052 47.0287L436.172 46.036ZM439.768 46.616L439.565 47.5953L439.585 47.5992L439.604 47.6024L439.768 46.616ZM442.552 47.254L443.533 47.446L443.702 46.5833L442.868 46.3053L442.552 47.254ZM440.464 57.926L440.303 58.9129L441.259 59.0691L441.445 58.118L440.464 57.926ZM435.07 57.23L434.957 58.2236L434.968 58.2249L434.98 58.2259L435.07 57.23ZM422.02 80.14H421.02V81.14H422.02V80.14ZM430.256 79.618L430.684 80.5217L430.694 80.5172L430.703 80.5124L430.256 79.618ZM432.416 77.182V75.326H430.416V77.182H432.416ZM431.416 74.326H427.878V76.326H431.416V74.326ZM428.878 75.326V64.654H426.878V75.326H428.878ZM427.878 65.654H444.64V63.654H427.878V65.654ZM443.64 64.654V87.912H445.64V64.654H443.64ZM444.285 86.9773C438.908 89.0218 433.325 90.044 427.53 90.044V92.044C433.567 92.044 439.391 90.9782 444.996 88.8467L444.285 86.9773ZM427.53 90.044C423.54 90.044 420.301 89.5678 417.779 88.6538L417.097 90.5342C419.911 91.5535 423.4 92.044 427.53 92.044V90.044ZM417.783 88.6554C415.297 87.7414 413.367 86.4064 411.949 84.6696L410.399 85.9344C412.075 87.9869 414.32 89.5133 417.093 90.5326L417.783 88.6554ZM411.955 84.6773C410.519 82.8825 409.494 80.6515 408.903 77.9539L406.949 78.3821C407.595 81.3298 408.736 83.8549 410.393 85.9267L411.955 84.6773ZM408.906 77.9693C408.343 75.1894 408.056 71.9332 408.056 68.192H406.056C406.056 72.0295 406.349 75.424 406.946 78.3667L408.906 77.9693ZM408.056 68.192C408.056 64.2266 408.419 60.8735 409.127 58.1167L407.189 57.6193C406.428 60.5851 406.056 64.1147 406.056 68.192H408.056ZM409.127 58.1136C409.829 55.3445 410.977 53.1467 412.542 51.4754L411.082 50.1086C409.244 52.0719 407.957 54.5915 407.189 57.6224L409.127 58.1136ZM412.549 51.4677C414.11 49.7654 416.206 48.4972 418.887 47.6895L418.31 45.7745C415.344 46.6681 412.917 48.1066 411.075 50.1163L412.549 51.4677ZM418.887 47.6895C421.586 46.876 424.981 46.456 429.096 46.456V44.456C424.859 44.456 421.256 44.8866 418.31 45.7745L418.887 47.6895ZM429.096 46.456C429.984 46.456 431.035 46.5116 432.251 46.6256L432.437 44.6344C431.179 44.5164 430.064 44.456 429.096 44.456V46.456ZM432.284 46.6282C433.529 46.7037 434.776 46.8358 436.022 47.0247L436.322 45.0473C435.017 44.8495 433.711 44.711 432.405 44.6318L432.284 46.6282ZM436.052 47.0287C437.303 47.1805 438.474 47.3695 439.565 47.5953L439.971 45.6367C438.819 45.3985 437.593 45.2009 436.292 45.0433L436.052 47.0287ZM439.604 47.6024C440.739 47.7916 441.61 47.994 442.236 48.2027L442.868 46.3053C442.102 46.05 441.117 45.8271 439.932 45.6296L439.604 47.6024ZM441.571 47.062L439.483 57.734L441.445 58.118L443.533 47.446L441.571 47.062ZM440.625 56.9391C438.71 56.6264 436.888 56.3912 435.161 56.2341L434.98 58.2259C436.655 58.3782 438.429 58.607 440.303 58.9129L440.625 56.9391ZM435.183 56.2364C433.45 56.0395 431.827 55.94 430.314 55.94V57.94C431.74 57.94 433.287 58.0339 434.957 58.2236L435.183 56.2364ZM430.314 55.94C427.256 55.94 424.947 56.1662 423.525 56.6997L424.227 58.5723C425.279 58.1778 427.263 57.94 430.314 57.94V55.94ZM423.525 56.6997C422.747 56.9913 422.098 57.4564 421.652 58.1253C421.209 58.7901 421.02 59.5757 421.02 60.42H423.02C423.02 59.8723 423.141 59.4979 423.316 59.2347C423.489 58.9756 423.768 58.7447 424.227 58.5723L423.525 56.6997ZM421.02 60.42V80.14H423.02V60.42H421.02ZM422.02 81.14H426.602V79.14H422.02V81.14ZM426.602 81.14C428.324 81.14 429.735 80.9713 430.684 80.5217L429.828 78.7143C429.308 78.9607 428.283 79.14 426.602 79.14V81.14ZM430.703 80.5124C431.955 79.8868 432.416 78.6123 432.416 77.182H430.416C430.416 78.2264 430.104 78.5759 429.809 78.7236L430.703 80.5124ZM462.836 83.098V82.098H462.038L461.861 82.8767L462.836 83.098ZM461.27 90V91H462.069L462.245 90.2213L461.27 90ZM446.596 90L445.628 89.7496L445.305 91H446.596V90ZM457.848 46.5V45.5H457.074L456.88 46.2496L457.848 46.5ZM479.366 46.5L480.334 46.2496L480.14 45.5H479.366V46.5ZM490.618 90V91H491.91L491.586 89.7496L490.618 90ZM475.944 90L474.971 90.229L475.152 91H475.944V90ZM474.32 83.098L475.294 82.869L475.112 82.098H474.32V83.098ZM468.984 59.84L469.959 59.6172L469.781 58.84H468.984V59.84ZM468.23 59.84V58.84H467.437L467.256 59.6128L468.23 59.84ZM465.388 72.02L464.414 71.7928L464.128 73.02H465.388V72.02ZM471.768 72.02V73.02H473.023L472.743 71.7972L471.768 72.02ZM461.861 82.8767L460.295 89.7787L462.245 90.2213L463.811 83.3193L461.861 82.8767ZM461.27 89H446.596V91H461.27V89ZM447.564 90.2504L458.816 46.7504L456.88 46.2496L445.628 89.7496L447.564 90.2504ZM457.848 47.5H479.366V45.5H457.848V47.5ZM478.398 46.7504L489.65 90.2504L491.586 89.7496L480.334 46.2496L478.398 46.7504ZM490.618 89H475.944V91H490.618V89ZM476.918 89.771L475.294 82.869L473.347 83.327L474.971 90.229L476.918 89.771ZM474.32 82.098H462.836V84.098H474.32V82.098ZM468.984 58.84H468.23V60.84H468.984V58.84ZM467.256 59.6128L464.414 71.7928L466.362 72.2472L469.204 60.0672L467.256 59.6128ZM465.388 73.02H471.768V71.02H465.388V73.02ZM472.743 71.7972L469.959 59.6172L468.009 60.0628L470.793 72.2428L472.743 71.7972ZM524.284 46.5H525.284V45.5H524.284V46.5ZM524.284 57.636V58.636H525.284V57.636H524.284ZM514.192 57.636V56.636H513.192V57.636H514.192ZM514.192 90V91H515.192V90H514.192ZM500.272 90H499.272V91H500.272V90ZM500.272 57.636H501.272V56.636H500.272V57.636ZM490.18 57.636H489.18V58.636H490.18V57.636ZM490.18 46.5V45.5H489.18V46.5H490.18ZM523.284 46.5V57.636H525.284V46.5H523.284ZM524.284 56.636H514.192V58.636H524.284V56.636ZM513.192 57.636V90H515.192V57.636H513.192ZM514.192 89H500.272V91H514.192V89ZM501.272 90V57.636H499.272V90H501.272ZM500.272 56.636H490.18V58.636H500.272V56.636ZM491.18 57.636V46.5H489.18V57.636H491.18ZM490.18 47.5H524.284V45.5H490.18V47.5ZM526.987 58.042L526.015 57.8086L526.013 57.8181L526.987 58.042ZM530.409 50.908L529.657 50.2494L529.649 50.2585L530.409 50.908ZM536.789 46.79L536.469 45.8427L536.789 46.79ZM556.277 46.79L555.953 47.7358L555.957 47.7373L556.277 46.79ZM562.599 50.908L561.839 51.5575L561.847 51.5665L562.599 50.908ZM566.021 58.042L565.046 58.2631L565.048 58.2707L565.05 58.2784L566.021 58.042ZM566.137 78.284L567.114 78.4981L567.115 78.4953L566.137 78.284ZM562.831 85.36L562.064 84.7182L562.057 84.7276L562.831 85.36ZM556.509 89.652L556.842 90.595L556.85 90.5922L556.509 89.652ZM536.499 89.652L536.154 90.5906L536.163 90.5936L536.171 90.5965L536.499 89.652ZM530.177 85.36L529.403 85.9924L529.41 86.0017L530.177 85.36ZM526.929 78.284L525.952 78.4953L525.953 78.4981L526.929 78.284ZM540.965 79.154H539.965V80.154H540.965V79.154ZM550.883 78.516L551.347 79.4018L551.355 79.3979L551.362 79.3939L550.883 78.516ZM552.159 57.346H553.159V56.346H552.159V57.346ZM542.241 58.042L542.689 58.9364L542.705 58.9284L542.72 58.9199L542.241 58.042ZM527.001 68.308C527.001 64.3759 527.326 61.0331 527.962 58.2659L526.013 57.8181C525.334 60.7736 525.001 64.2747 525.001 68.308H527.001ZM527.96 58.2754C528.627 55.4953 529.707 53.2697 531.17 51.5575L529.649 50.2585C527.941 52.2583 526.74 54.7887 526.015 57.8086L527.96 58.2754ZM531.162 51.5665C532.656 49.8592 534.626 48.5774 537.11 47.7373L536.469 45.8427C533.694 46.7813 531.411 48.2448 529.657 50.2495L531.162 51.5665ZM537.11 47.7373C539.604 46.8936 542.736 46.456 546.533 46.456V44.456C542.597 44.456 539.233 44.9077 536.469 45.8427L537.11 47.7373ZM546.533 46.456C550.371 46.456 553.501 46.8941 555.953 47.7358L556.602 45.8442C553.873 44.9073 550.506 44.456 546.533 44.456V46.456ZM555.957 47.7373C558.439 48.5769 560.386 49.8566 561.839 51.5575L563.36 50.2585C561.642 48.2474 559.374 46.7817 556.598 45.8427L555.957 47.7373ZM561.847 51.5665C563.341 53.2742 564.418 55.492 565.046 58.2631L566.997 57.8209C566.31 54.792 565.106 52.2538 563.352 50.2495L561.847 51.5665ZM565.05 58.2784C565.722 61.0406 566.065 64.379 566.065 68.308H568.065C568.065 64.2716 567.713 60.766 566.993 57.8056L565.05 58.2784ZM566.065 68.308C566.065 72.0459 565.76 75.2976 565.16 78.0727L567.115 78.4953C567.752 75.5477 568.065 72.1488 568.065 68.308H566.065ZM565.161 78.0699C564.571 80.7619 563.53 82.9666 562.064 84.7183L563.598 86.0017C565.303 83.9641 566.467 81.4514 567.114 78.4981L565.161 78.0699ZM562.057 84.7276C560.641 86.4613 558.695 87.7967 556.169 88.7118L556.85 90.5922C559.66 89.574 561.928 88.0481 563.606 85.9924L562.057 84.7276ZM556.177 88.709C553.69 89.5866 550.487 90.044 546.533 90.044V92.044C550.622 92.044 554.07 91.5734 556.842 90.595L556.177 88.709ZM546.533 90.044C542.581 90.044 539.356 89.5868 536.828 88.7075L536.171 90.5965C538.979 91.5732 542.444 92.044 546.533 92.044V90.044ZM536.844 88.7134C534.357 87.7989 532.403 86.4616 530.944 84.7183L529.41 86.0017C531.122 88.0477 533.383 89.5718 536.154 90.5906L536.844 88.7134ZM530.952 84.7276C529.521 82.9748 528.497 80.7669 527.906 78.0699L525.953 78.4981C526.599 81.4464 527.74 83.9559 529.403 85.9924L530.952 84.7276ZM527.907 78.0727C527.307 75.2976 527.001 72.0459 527.001 68.308H525.001C525.001 72.1488 525.315 75.5477 525.952 78.4953L527.907 78.0727ZM539.965 61.058V79.154H541.965V61.058H539.965ZM540.965 80.154H546.765V78.154H540.965V80.154ZM546.765 80.154C548.719 80.154 550.305 79.9479 551.347 79.4018L550.419 77.6302C549.838 77.9347 548.679 78.154 546.765 78.154V80.154ZM551.362 79.3939C552.704 78.662 553.159 77.147 553.159 75.442H551.159C551.159 76.9076 550.764 77.442 550.405 77.6381L551.362 79.3939ZM553.159 75.442V57.346H551.159V75.442H553.159ZM552.159 56.346H546.301V58.346H552.159V56.346ZM546.301 56.346C544.405 56.346 542.841 56.5756 541.763 57.1641L542.72 58.9199C543.343 58.5804 544.486 58.346 546.301 58.346V56.346ZM541.794 57.1476C540.417 57.8361 539.965 59.363 539.965 61.058H541.965C541.965 59.5823 542.364 59.0986 542.689 58.9364L541.794 57.1476ZM602.321 75.5L601.868 74.6088L600.969 75.0663L601.434 75.9614L602.321 75.5ZM609.861 90V91H611.508L610.748 89.5386L609.861 90ZM594.549 90L593.634 90.4023L593.896 91H594.549V90ZM588.865 77.066L589.781 76.6637L589.518 76.066H588.865V77.066ZM585.849 77.066V76.066H584.849V77.066H585.849ZM585.849 90V91H586.849V90H585.849ZM571.929 90H570.929V91H571.929V90ZM571.929 46.5V45.5H570.929V46.5H571.929ZM585.849 57.636V56.636H584.849V57.636H585.849ZM585.849 66.336H584.849V67.336H585.849V66.336ZM592.693 65.814L592.283 64.9021L592.274 64.9061L592.265 64.9103L592.693 65.814ZM592.693 58.158L592.265 59.0617L592.274 59.0659L592.283 59.0699L592.693 58.158ZM601.434 75.9614L608.974 90.4614L610.748 89.5386L603.208 75.0386L601.434 75.9614ZM609.861 89H594.549V91H609.861V89ZM595.465 89.5977L589.781 76.6637L587.95 77.4683L593.634 90.4023L595.465 89.5977ZM588.865 76.066H585.849V78.066H588.865V76.066ZM584.849 77.066V90H586.849V77.066H584.849ZM585.849 89H571.929V91H585.849V89ZM572.929 90V46.5H570.929V90H572.929ZM571.929 47.5H593.853V45.5H571.929V47.5ZM593.853 47.5C598.682 47.5 602.121 48.7293 604.362 51.0138C606.607 53.3018 607.817 56.8187 607.817 61.754H609.817C609.817 56.52 608.534 52.4098 605.79 49.6132C603.043 46.813 599 45.5 593.853 45.5V47.5ZM607.817 61.754C607.817 68.5222 605.725 72.6455 601.868 74.6088L602.775 76.3912C607.578 73.9465 609.817 68.9058 609.817 61.754H607.817ZM589.039 56.636H585.849V58.636H589.039V56.636ZM584.849 57.636V66.336H586.849V57.636H584.849ZM585.849 67.336H589.039V65.336H585.849V67.336ZM589.039 67.336C590.761 67.336 592.172 67.1673 593.121 66.7177L592.265 64.9103C591.745 65.1567 590.72 65.336 589.039 65.336V67.336ZM593.104 66.7259C594.393 66.1456 594.853 64.8589 594.853 63.436H592.853C592.853 64.4878 592.54 64.7864 592.283 64.9021L593.104 66.7259ZM594.853 63.436V60.536H592.853V63.436H594.853ZM594.853 60.536C594.853 59.1131 594.393 57.8264 593.104 57.2461L592.283 59.0699C592.54 59.1856 592.853 59.4842 592.853 60.536H594.853ZM593.121 57.2543C592.172 56.8047 590.761 56.636 589.039 56.636V58.636C590.72 58.636 591.745 58.8153 592.265 59.0617L593.121 57.2543Z" fill="#CEB7FF"/>
</g>
<g filter="url(#filter1_d_11_16148)">
<path d="M4.5 4.5H543.5V19.5H4.5V4.5Z" stroke="#CEB7FF" shape-rendering="crispEdges"/>
</g>
<g filter="url(#filter2_d_11_16148)">
<path d="M4.5 112.5H543.5V127.5H4.5V112.5Z" stroke="#CEB7FF" shape-rendering="crispEdges"/>
</g>
<defs>
<filter id="filter0_d_11_16148" x="3.58157" y="40.4561" width="611.28" height="55.5879" filterUnits="userSpaceOnUse" color-interpolation-filters="sRGB">
<feFlood flood-opacity="0" result="BackgroundImageFix"/>
<feColorMatrix in="SourceAlpha" type="matrix" values="0 0 0 0 0 0 0 0 0 0 0 0 0 0 0 0 0 0 127 0" result="hardAlpha"/>
<feOffset/>
<feGaussianBlur stdDeviation="2.5"/>
<feComposite in2="hardAlpha" operator="out"/>
<feColorMatrix type="matrix" values="0 0 0 0 0.701961 0 0 0 0 0.466667 0 0 0 0 1 0 0 0 1 0"/>
<feBlend mode="normal" in2="BackgroundImageFix" result="effect1_dropShadow_11_16148"/>
<feBlend mode="normal" in="SourceGraphic" in2="effect1_dropShadow_11_16148" result="shape"/>
</filter>
<filter id="filter1_d_11_16148" x="0" y="0" width="548" height="24" filterUnits="userSpaceOnUse" color-interpolation-filters="sRGB">
<feFlood flood-opacity="0" result="BackgroundImageFix"/>
<feColorMatrix in="SourceAlpha" type="matrix" values="0 0 0 0 0 0 0 0 0 0 0 0 0 0 0 0 0 0 127 0" result="hardAlpha"/>
<feOffset/>
<feGaussianBlur stdDeviation="2"/>
<feComposite in2="hardAlpha" operator="out"/>
<feColorMatrix type="matrix" values="0 0 0 0 0.807843 0 0 0 0 0.717647 0 0 0 0 1 0 0 0 1 0"/>
<feBlend mode="normal" in2="BackgroundImageFix" result="effect1_dropShadow_11_16148"/>
<feBlend mode="normal" in="SourceGraphic" in2="effect1_dropShadow_11_16148" result="shape"/>
</filter>
<filter id="filter2_d_11_16148" x="0" y="108" width="548" height="24" filterUnits="userSpaceOnUse" color-interpolation-filters="sRGB">
<feFlood flood-opacity="0" result="BackgroundImageFix"/>
<feColorMatrix in="SourceAlpha" type="matrix" values="0 0 0 0 0 0 0 0 0 0 0 0 0 0 0 0 0 0 127 0" result="hardAlpha"/>
<feOffset/>
<feGaussianBlur stdDeviation="2"/>
<feComposite in2="hardAlpha" operator="out"/>
<feColorMatrix type="matrix" values="0 0 0 0 0.807843 0 0 0 0 0.717647 0 0 0 0 1 0 0 0 1 0"/>
<feBlend mode="normal" in2="BackgroundImageFix" result="effect1_dropShadow_11_16148"/>
<feBlend mode="normal" in="SourceGraphic" in2="effect1_dropShadow_11_16148" result="shape"/>
</filter>
</defs>
</svg>
