<svg width="118" height="114" viewBox="0 0 118 114" fill="none" xmlns="http://www.w3.org/2000/svg">
<path d="M2 112V80.7179H36" stroke="#CEB7FF" stroke-width="4" stroke-linecap="round" stroke-linejoin="round"/>
<path d="M36 80.718V112H2" stroke="#CEB7FF" stroke-width="4" stroke-linecap="round" stroke-linejoin="round"/>
<path d="M20.1518 89.7998L16.5729 96.359L20.1518 102.918" stroke="#CEB7FF" stroke-width="4" stroke-linecap="round" stroke-linejoin="round"/>
<path d="M21.0466 87.7816L12.0992 96.359L21.0466 104.936" stroke="#CEB7FF" stroke-width="4" stroke-linecap="round" stroke-linejoin="round"/>
<path d="M20.1518 89.7998L19.2571 96.8635L20.1518 103.927" stroke="#CEB7FF" stroke-width="4" stroke-linecap="round" stroke-linejoin="round"/>
<path d="M21.0466 87.7816L20.1518 96.359L21.0466 104.936" stroke="#CEB7FF" stroke-width="4" stroke-linecap="round" stroke-linejoin="round"/>
<path d="M21.0466 87.7816V96.359V104.936" stroke="#CEB7FF" stroke-width="4" stroke-linecap="round" stroke-linejoin="round"/>
<path d="M116 112V80.7179H82" stroke="#CEB7FF" stroke-width="4" stroke-linecap="round" stroke-linejoin="round"/>
<path d="M82 80.718V112H116" stroke="#CEB7FF" stroke-width="4" stroke-linecap="round" stroke-linejoin="round"/>
<path d="M97.8482 89.7998L101.427 96.359L97.8482 102.918" stroke="#CEB7FF" stroke-width="4" stroke-linecap="round" stroke-linejoin="round"/>
<path d="M96.9534 87.7816L105.901 96.359L96.9534 104.936" stroke="#CEB7FF" stroke-width="4" stroke-linecap="round" stroke-linejoin="round"/>
<path d="M97.8482 89.7998L98.7429 96.8635L97.8482 103.927" stroke="#CEB7FF" stroke-width="4" stroke-linecap="round" stroke-linejoin="round"/>
<path d="M96.9534 87.7816L97.8482 96.359L96.9534 104.936" stroke="#CEB7FF" stroke-width="4" stroke-linecap="round" stroke-linejoin="round"/>
<path d="M96.9534 87.7816V96.359V104.936" stroke="#CEB7FF" stroke-width="4" stroke-linecap="round" stroke-linejoin="round"/>
<path d="M42 112H76V80.718" stroke="#CEB7FF" stroke-width="4" stroke-linecap="round" stroke-linejoin="round"/>
<path d="M76 80.7179H42V112" stroke="#CEB7FF" stroke-width="4" stroke-linecap="round" stroke-linejoin="round"/>
<path d="M66.129 95.2992L59 98.5921L51.871 95.2992" stroke="#CEB7FF" stroke-width="4" stroke-linecap="round" stroke-linejoin="round"/>
<path d="M68.3226 94.476L59 102.708L49.6774 94.476" stroke="#CEB7FF" stroke-width="4" stroke-linecap="round" stroke-linejoin="round"/>
<path d="M66.129 95.2992L58.4516 96.1224L50.7742 95.2992" stroke="#CEB7FF" stroke-width="4" stroke-linecap="round" stroke-linejoin="round"/>
<path d="M68.3226 94.476L59 95.2992L49.6774 94.476" stroke="#CEB7FF" stroke-width="4" stroke-linecap="round" stroke-linejoin="round"/>
<path d="M68.3226 94.476H59H49.6774" stroke="#CEB7FF" stroke-width="4" stroke-linecap="round" stroke-linejoin="round"/>
<path d="M76 43.1795L42 43.1795V74.4615" stroke="#CEB7FF" stroke-width="4" stroke-linecap="round" stroke-linejoin="round"/>
<path d="M42 74.4615L76 74.4615V43.1795" stroke="#CEB7FF" stroke-width="4" stroke-linecap="round" stroke-linejoin="round"/>
<path d="M51.871 59.8803L59 56.5874L66.129 59.8803" stroke="#CEB7FF" stroke-width="4" stroke-linecap="round" stroke-linejoin="round"/>
<path d="M49.6774 60.7035L59 52.4714L68.3226 60.7035" stroke="#CEB7FF" stroke-width="4" stroke-linecap="round" stroke-linejoin="round"/>
<path d="M51.871 59.8803L59.5484 59.0571L67.2258 59.8803" stroke="#CEB7FF" stroke-width="4" stroke-linecap="round" stroke-linejoin="round"/>
<path d="M49.6774 60.7035L59 59.8802L68.3226 60.7035" stroke="#CEB7FF" stroke-width="4" stroke-linecap="round" stroke-linejoin="round"/>
<path d="M49.6774 60.7035H59L68.3226 60.7035" stroke="#CEB7FF" stroke-width="4" stroke-linecap="round" stroke-linejoin="round"/>
<path d="M22.6713 5H29.1513C31.3379 5 32.9779 5.58667 34.0713 6.76C35.1646 7.93333 35.7113 9.65333 35.7113 11.92V14.68C35.7113 16.9467 35.1646 18.6667 34.0713 19.84C32.9779 21.0133 31.3379 21.6 29.1513 21.6H27.0713V33H22.6713V5ZM29.1513 17.6C29.8713 17.6 30.4046 17.4 30.7513 17C31.1246 16.6 31.3112 15.92 31.3112 14.96V11.64C31.3112 10.68 31.1246 10 30.7513 9.6C30.4046 9.2 29.8713 9 29.1513 9H27.0713V17.6H29.1513ZM38.1009 5H44.6209C46.8876 5 48.5409 5.53333 49.5809 6.6C50.6209 7.64 51.1409 9.25333 51.1409 11.44V13.16C51.1409 16.0667 50.1809 17.9067 48.2609 18.68V18.76C49.3276 19.08 50.0743 19.7333 50.5009 20.72C50.9543 21.7067 51.1809 23.0267 51.1809 24.68V29.6C51.1809 30.4 51.2076 31.0533 51.2609 31.56C51.3143 32.04 51.4476 32.52 51.6609 33H47.1809C47.0209 32.5467 46.9143 32.12 46.8609 31.72C46.8076 31.32 46.7809 30.6 46.7809 29.56V24.44C46.7809 23.16 46.5676 22.2667 46.1409 21.76C45.7409 21.2533 45.0343 21 44.0209 21H42.5009V33H38.1009V5ZM44.1009 17C44.9809 17 45.6343 16.7733 46.0609 16.32C46.5143 15.8667 46.7409 15.1067 46.7409 14.04V11.88C46.7409 10.8667 46.5543 10.1333 46.1809 9.68C45.8343 9.22667 45.2743 9 44.5009 9H42.5009V17H44.1009ZM54.2338 5H66.2338V9H58.6338V16.4H64.6738V20.4H58.6338V29H66.2338V33H54.2338V5ZM74.5631 33.4C72.4298 33.4 70.8165 32.8 69.7231 31.6C68.6298 30.3733 68.0831 28.6267 68.0831 26.36V24.76H72.2431V26.68C72.2431 28.4933 73.0031 29.4 74.5231 29.4C75.2698 29.4 75.8298 29.1867 76.2031 28.76C76.6031 28.3067 76.8031 27.5867 76.8031 26.6C76.8031 25.4267 76.5365 24.4 76.0031 23.52C75.4698 22.6133 74.4831 21.5333 73.0431 20.28C71.2298 18.68 69.9631 17.24 69.2431 15.96C68.5231 14.6533 68.1631 13.1867 68.1631 11.56C68.1631 9.34667 68.7231 7.64 69.8431 6.44C70.9631 5.21333 72.5898 4.6 74.7231 4.6C76.8298 4.6 78.4165 5.21333 79.4831 6.44C80.5765 7.64 81.1231 9.37333 81.1231 11.64V12.8H76.9631V11.36C76.9631 10.4 76.7765 9.70667 76.4031 9.28C76.0298 8.82667 75.4831 8.6 74.7631 8.6C73.2965 8.6 72.5631 9.49333 72.5631 11.28C72.5631 12.2933 72.8298 13.24 73.3631 14.12C73.9231 15 74.9231 16.0667 76.3631 17.32C78.2031 18.92 79.4698 20.3733 80.1631 21.68C80.8565 22.9867 81.2031 24.52 81.2031 26.28C81.2031 28.5733 80.6298 30.3333 79.4831 31.56C78.3631 32.7867 76.7231 33.4 74.5631 33.4ZM89.4459 33.4C87.3126 33.4 85.6993 32.8 84.6059 31.6C83.5126 30.3733 82.9659 28.6267 82.9659 26.36V24.76H87.1259V26.68C87.1259 28.4933 87.8859 29.4 89.4059 29.4C90.1526 29.4 90.7126 29.1867 91.0859 28.76C91.4859 28.3067 91.6859 27.5867 91.6859 26.6C91.6859 25.4267 91.4193 24.4 90.8859 23.52C90.3526 22.6133 89.3659 21.5333 87.9259 20.28C86.1126 18.68 84.8459 17.24 84.1259 15.96C83.4059 14.6533 83.0459 13.1867 83.0459 11.56C83.0459 9.34667 83.6059 7.64 84.7259 6.44C85.8459 5.21333 87.4726 4.6 89.6059 4.6C91.7126 4.6 93.2993 5.21333 94.3659 6.44C95.4593 7.64 96.0059 9.37333 96.0059 11.64V12.8H91.8459V11.36C91.8459 10.4 91.6593 9.70667 91.2859 9.28C90.9126 8.82667 90.3659 8.6 89.6459 8.6C88.1793 8.6 87.4459 9.49333 87.4459 11.28C87.4459 12.2933 87.7126 13.24 88.2459 14.12C88.8059 15 89.8059 16.0667 91.2459 17.32C93.0859 18.92 94.3526 20.3733 95.0459 21.68C95.7393 22.9867 96.0859 24.52 96.0859 26.28C96.0859 28.5733 95.5126 30.3333 94.3659 31.56C93.2459 32.7867 91.6059 33.4 89.4459 33.4Z" fill="#CEB7FF"/>
</svg>
