<svg width="565" height="45" viewBox="0 0 565 45" fill="none" xmlns="http://www.w3.org/2000/svg">
<g filter="url(#filter0_d_21_7262)">
<path d="M4.05 5H9.55V19.25H15.45V5H20.95V40H15.45V24.25H9.55V40H4.05V5ZM25.0461 5H40.0461V10H30.5461V19.25H38.0961V24.25H30.5461V35H40.0461V40H25.0461V5ZM43.2102 5H51.3602C54.1935 5 56.2602 5.66666 57.5602 7C58.8602 8.3 59.5102 10.3167 59.5102 13.05V15.2C59.5102 18.8333 58.3102 21.1333 55.9102 22.1V22.2C57.2435 22.6 58.1768 23.4167 58.7102 24.65C59.2768 25.8833 59.5602 27.5333 59.5602 29.6V35.75C59.5602 36.75 59.5935 37.5667 59.6602 38.2C59.7268 38.8 59.8935 39.4 60.1602 40H54.5602C54.3602 39.4333 54.2268 38.9 54.1602 38.4C54.0935 37.9 54.0602 37 54.0602 35.7V29.3C54.0602 27.7 53.7935 26.5833 53.2602 25.95C52.7602 25.3167 51.8768 25 50.6102 25H48.7102V40H43.2102V5ZM50.7102 20C51.8102 20 52.6268 19.7167 53.1602 19.15C53.7268 18.5833 54.0102 17.6333 54.0102 16.3V13.6C54.0102 12.3333 53.7768 11.4167 53.3102 10.85C52.8768 10.2833 52.1768 10 51.2102 10H48.7102V20H50.7102ZM63.3762 5H78.3762V10H68.8762V19.25H76.4262V24.25H68.8762V35H78.3762V40H63.3762V5ZM89.548 5H95.048V40H89.548V5ZM106.317 40.5C103.651 40.5 101.634 39.75 100.267 38.25C98.9005 36.7167 98.2172 34.5333 98.2172 31.7V29.7H103.417V32.1C103.417 34.3667 104.367 35.5 106.267 35.5C107.201 35.5 107.901 35.2333 108.367 34.7C108.867 34.1333 109.117 33.2333 109.117 32C109.117 30.5333 108.784 29.25 108.117 28.15C107.451 27.0167 106.217 25.6667 104.417 24.1C102.151 22.1 100.567 20.3 99.6672 18.7C98.7672 17.0667 98.3172 15.2333 98.3172 13.2C98.3172 10.4333 99.0172 8.3 100.417 6.8C101.817 5.26666 103.851 4.5 106.517 4.5C109.151 4.5 111.134 5.26666 112.467 6.8C113.834 8.3 114.517 10.4667 114.517 13.3V14.75H109.317V12.95C109.317 11.75 109.084 10.8833 108.617 10.35C108.151 9.78333 107.467 9.5 106.567 9.5C104.734 9.5 103.817 10.6167 103.817 12.85C103.817 14.1167 104.151 15.3 104.817 16.4C105.517 17.5 106.767 18.8333 108.567 20.4C110.867 22.4 112.451 24.2167 113.317 25.85C114.184 27.4833 114.617 29.4 114.617 31.6C114.617 34.4667 113.901 36.6667 112.467 38.2C111.067 39.7333 109.017 40.5 106.317 40.5ZM130.029 5H137.479L143.179 40H137.679L136.679 33.05V33.15H130.429L129.429 40H124.329L130.029 5ZM136.029 28.4L133.579 11.1H133.479L131.079 28.4H136.029ZM153.855 5H159.355V35H168.405V40H153.855V5ZM171.042 5H176.542V40H171.042V5ZM187.811 40.5C185.145 40.5 183.128 39.75 181.761 38.25C180.395 36.7167 179.711 34.5333 179.711 31.7V29.7H184.911V32.1C184.911 34.3667 185.861 35.5 187.761 35.5C188.695 35.5 189.395 35.2333 189.861 34.7C190.361 34.1333 190.611 33.2333 190.611 32C190.611 30.5333 190.278 29.25 189.611 28.15C188.945 27.0167 187.711 25.6667 185.911 24.1C183.645 22.1 182.061 20.3 181.161 18.7C180.261 17.0667 179.811 15.2333 179.811 13.2C179.811 10.4333 180.511 8.3 181.911 6.8C183.311 5.26666 185.345 4.5 188.011 4.5C190.645 4.5 192.628 5.26666 193.961 6.8C195.328 8.3 196.011 10.4667 196.011 13.3V14.75H190.811V12.95C190.811 11.75 190.578 10.8833 190.111 10.35C189.645 9.78333 188.961 9.5 188.061 9.5C186.228 9.5 185.311 10.6167 185.311 12.85C185.311 14.1167 185.645 15.3 186.311 16.4C187.011 17.5 188.261 18.8333 190.061 20.4C192.361 22.4 193.945 24.2167 194.811 25.85C195.678 27.4833 196.111 29.4 196.111 31.6C196.111 34.4667 195.395 36.6667 193.961 38.2C192.561 39.7333 190.511 40.5 187.811 40.5ZM203.565 10H197.815V5H214.815V10H209.065V40H203.565V10ZM233.436 40.5C230.736 40.5 228.669 39.7333 227.236 38.2C225.802 36.6667 225.086 34.5 225.086 31.7V13.3C225.086 10.5 225.802 8.33333 227.236 6.8C228.669 5.26666 230.736 4.5 233.436 4.5C236.136 4.5 238.202 5.26666 239.636 6.8C241.069 8.33333 241.786 10.5 241.786 13.3V31.7C241.786 34.5 241.069 36.6667 239.636 38.2C238.202 39.7333 236.136 40.5 233.436 40.5ZM233.436 35.5C235.336 35.5 236.286 34.35 236.286 32.05V12.95C236.286 10.65 235.336 9.5 233.436 9.5C231.536 9.5 230.586 10.65 230.586 12.95V32.05C230.586 34.35 231.536 35.5 233.436 35.5ZM245.505 5H260.055V10H251.005V19.75H258.105V24.75H251.005V40H245.505V5ZM277.85 40.5C275.184 40.5 273.167 39.75 271.8 38.25C270.434 36.7167 269.75 34.5333 269.75 31.7V29.7H274.95V32.1C274.95 34.3667 275.9 35.5 277.8 35.5C278.734 35.5 279.434 35.2333 279.9 34.7C280.4 34.1333 280.65 33.2333 280.65 32C280.65 30.5333 280.317 29.25 279.65 28.15C278.984 27.0167 277.75 25.6667 275.95 24.1C273.684 22.1 272.1 20.3 271.2 18.7C270.3 17.0667 269.85 15.2333 269.85 13.2C269.85 10.4333 270.55 8.3 271.95 6.8C273.35 5.26666 275.384 4.5 278.05 4.5C280.684 4.5 282.667 5.26666 284 6.8C285.367 8.3 286.05 10.4667 286.05 13.3V14.75H280.85V12.95C280.85 11.75 280.617 10.8833 280.15 10.35C279.684 9.78333 279 9.5 278.1 9.5C276.267 9.5 275.35 10.6167 275.35 12.85C275.35 14.1167 275.684 15.3 276.35 16.4C277.05 17.5 278.3 18.8333 280.1 20.4C282.4 22.4 283.984 24.2167 284.85 25.85C285.717 27.4833 286.15 29.4 286.15 31.6C286.15 34.4667 285.434 36.6667 284 38.2C282.6 39.7333 280.55 40.5 277.85 40.5ZM297.254 40.5C294.554 40.5 292.487 39.7333 291.054 38.2C289.621 36.6667 288.904 34.5 288.904 31.7V13.3C288.904 10.5 289.621 8.33333 291.054 6.8C292.487 5.26666 294.554 4.5 297.254 4.5C299.954 4.5 302.021 5.26666 303.454 6.8C304.887 8.33333 305.604 10.5 305.604 13.3V31.7C305.604 34.5 304.887 36.6667 303.454 38.2C302.021 39.7333 299.954 40.5 297.254 40.5ZM297.254 35.5C299.154 35.5 300.104 34.35 300.104 32.05V12.95C300.104 10.65 299.154 9.5 297.254 9.5C295.354 9.5 294.404 10.65 294.404 12.95V32.05C294.404 34.35 295.354 35.5 297.254 35.5ZM309.323 5H317.173L320.673 30.05H320.773L324.273 5H332.123V40H326.923V13.5H326.823L322.823 40H318.223L314.223 13.5H314.123V40H309.323V5ZM336.228 5H351.228V10H341.728V19.25H349.278V24.25H341.728V35H351.228V40H336.228V5ZM370.35 40.5C367.65 40.5 365.583 39.7333 364.15 38.2C362.716 36.6667 362 34.5 362 31.7V13.3C362 10.5 362.716 8.33333 364.15 6.8C365.583 5.26666 367.65 4.5 370.35 4.5C373.05 4.5 375.116 5.26666 376.55 6.8C377.983 8.33333 378.7 10.5 378.7 13.3V31.7C378.7 34.5 377.983 36.6667 376.55 38.2C375.116 39.7333 373.05 40.5 370.35 40.5ZM370.35 35.5C372.25 35.5 373.2 34.35 373.2 32.05V12.95C373.2 10.65 372.25 9.5 370.35 9.5C368.45 9.5 367.5 10.65 367.5 12.95V32.05C367.5 34.35 368.45 35.5 370.35 35.5ZM382.419 5H396.969V10H387.919V19.75H395.019V24.75H387.919V40H382.419V5ZM407.614 5H415.464L418.964 30.05H419.064L422.564 5H430.414V40H425.214V13.5H425.114L421.114 40H416.514L412.514 13.5H412.414V40H407.614V5ZM439.569 25.1L432.919 5H438.769L442.519 17.85H442.619L446.369 5H451.719L445.069 25.1V40H439.569V25.1ZM469.354 40.5C466.688 40.5 464.671 39.75 463.304 38.25C461.938 36.7167 461.254 34.5333 461.254 31.7V29.7H466.454V32.1C466.454 34.3667 467.404 35.5 469.304 35.5C470.238 35.5 470.938 35.2333 471.404 34.7C471.904 34.1333 472.154 33.2333 472.154 32C472.154 30.5333 471.821 29.25 471.154 28.15C470.488 27.0167 469.254 25.6667 467.454 24.1C465.188 22.1 463.604 20.3 462.704 18.7C461.804 17.0667 461.354 15.2333 461.354 13.2C461.354 10.4333 462.054 8.3 463.454 6.8C464.854 5.26666 466.888 4.5 469.554 4.5C472.188 4.5 474.171 5.26666 475.504 6.8C476.871 8.3 477.554 10.4667 477.554 13.3V14.75H472.354V12.95C472.354 11.75 472.121 10.8833 471.654 10.35C471.188 9.78333 470.504 9.5 469.604 9.5C467.771 9.5 466.854 10.6167 466.854 12.85C466.854 14.1167 467.188 15.3 467.854 16.4C468.554 17.5 469.804 18.8333 471.604 20.4C473.904 22.4 475.488 24.2167 476.354 25.85C477.221 27.4833 477.654 29.4 477.654 31.6C477.654 34.4667 476.938 36.6667 475.504 38.2C474.104 39.7333 472.054 40.5 469.354 40.5ZM480.808 5H486.308V19.75L493.308 5H498.808L492.258 17.85L498.908 40H493.158L488.508 24.4L486.308 28.85V40H480.808V5ZM501.511 5H507.011V40H501.511V5ZM511.13 5H516.63V35H525.68V40H511.13V5ZM528.318 5H533.818V35H542.868V40H528.318V5ZM552.655 40.5C549.988 40.5 547.972 39.75 546.605 38.25C545.238 36.7167 544.555 34.5333 544.555 31.7V29.7H549.755V32.1C549.755 34.3667 550.705 35.5 552.605 35.5C553.538 35.5 554.238 35.2333 554.705 34.7C555.205 34.1333 555.455 33.2333 555.455 32C555.455 30.5333 555.122 29.25 554.455 28.15C553.788 27.0167 552.555 25.6667 550.755 24.1C548.488 22.1 546.905 20.3 546.005 18.7C545.105 17.0667 544.655 15.2333 544.655 13.2C544.655 10.4333 545.355 8.3 546.755 6.8C548.155 5.26666 550.188 4.5 552.855 4.5C555.488 4.5 557.472 5.26666 558.805 6.8C560.172 8.3 560.855 10.4667 560.855 13.3V14.75H555.655V12.95C555.655 11.75 555.422 10.8833 554.955 10.35C554.488 9.78333 553.805 9.5 552.905 9.5C551.072 9.5 550.155 10.6167 550.155 12.85C550.155 14.1167 550.488 15.3 551.155 16.4C551.855 17.5 553.105 18.8333 554.905 20.4C557.205 22.4 558.788 24.2167 559.655 25.85C560.522 27.4833 560.955 29.4 560.955 31.6C560.955 34.4667 560.238 36.6667 558.805 38.2C557.405 39.7333 555.355 40.5 552.655 40.5Z" fill="white"/>
</g>
<defs>
<filter id="filter0_d_21_7262" x="0.0500031" y="0.5" width="564.905" height="44" filterUnits="userSpaceOnUse" color-interpolation-filters="sRGB">
<feFlood flood-opacity="0" result="BackgroundImageFix"/>
<feColorMatrix in="SourceAlpha" type="matrix" values="0 0 0 0 0 0 0 0 0 0 0 0 0 0 0 0 0 0 127 0" result="hardAlpha"/>
<feOffset/>
<feGaussianBlur stdDeviation="2"/>
<feComposite in2="hardAlpha" operator="out"/>
<feColorMatrix type="matrix" values="0 0 0 0 0.701961 0 0 0 0 0.466667 0 0 0 0 1 0 0 0 1 0"/>
<feBlend mode="normal" in2="BackgroundImageFix" result="effect1_dropShadow_21_7262"/>
<feBlend mode="normal" in="SourceGraphic" in2="effect1_dropShadow_21_7262" result="shape"/>
</filter>
</defs>
</svg>
