<svg width="359" height="132" viewBox="0 0 359 132" fill="none" xmlns="http://www.w3.org/2000/svg">
<g filter="url(#filter0_d_21_3747)">
<path d="M22.2116 68.888V67.888H21.2493L21.2123 68.8496L22.2116 68.888ZM21.3996 90V91H22.3618L22.3988 90.0384L21.3996 90ZM6.84156 90L5.84344 89.9388L5.77835 91H6.84156V90ZM9.50956 46.5V45.5H8.56902L8.51144 46.4388L9.50956 46.5ZM27.6636 46.5L28.6352 46.2635L28.4493 45.5H27.6636V46.5ZM33.0576 68.656L32.0859 68.8925L32.2718 69.656H33.0576V68.656ZM33.5796 68.656V69.656H34.3653L34.5512 68.8925L33.5796 68.656ZM38.9736 46.5V45.5H38.1878L38.0019 46.2635L38.9736 46.5ZM57.1856 46.5L58.1838 46.4401L58.1274 45.5H57.1856V46.5ZM59.7956 90V91H60.8574L60.7938 89.9401L59.7956 90ZM45.2376 90L44.2383 90.0384L44.2753 91H45.2376V90ZM44.4256 68.888L45.4248 68.8496L45.3878 67.888H44.4256V68.888ZM43.9616 68.888V67.888H43.1829L42.9921 68.643L43.9616 68.888ZM38.6256 90V91H39.4043L39.5951 90.245L38.6256 90ZM28.0116 90L27.0427 90.2475L27.2349 91H28.0116V90ZM22.6176 68.888L23.5864 68.6405L23.3942 67.888H22.6176V68.888ZM21.2123 68.8496L20.4003 89.9616L22.3988 90.0384L23.2108 68.9264L21.2123 68.8496ZM21.3996 89H6.84156V91H21.3996V89ZM7.83969 90.0612L10.5077 46.5612L8.51144 46.4388L5.84344 89.9388L7.83969 90.0612ZM9.50956 47.5H27.6636V45.5H9.50956V47.5ZM26.6919 46.7365L32.0859 68.8925L34.0292 68.4195L28.6352 46.2635L26.6919 46.7365ZM33.0576 69.656H33.5796V67.656H33.0576V69.656ZM34.5512 68.8925L39.9452 46.7365L38.0019 46.2635L32.6079 68.4195L34.5512 68.8925ZM38.9736 47.5H57.1856V45.5H38.9736V47.5ZM56.1874 46.5599L58.7974 90.0599L60.7938 89.9401L58.1838 46.4401L56.1874 46.5599ZM59.7956 89H45.2376V91H59.7956V89ZM46.2368 89.9616L45.4248 68.8496L43.4263 68.9264L44.2383 90.0384L46.2368 89.9616ZM44.4256 67.888H43.9616V69.888H44.4256V67.888ZM42.9921 68.643L37.6561 89.755L39.5951 90.245L44.9311 69.133L42.9921 68.643ZM38.6256 89H28.0116V91H38.6256V89ZM28.9804 89.7525L23.5864 68.6405L21.6487 69.1355L27.0427 90.2475L28.9804 89.7525ZM22.6176 67.888H22.2116V69.888H22.6176V67.888ZM61.5156 46.5V45.5H60.0446L60.5857 46.8679L61.5156 46.5ZM76.8856 46.5L77.8558 46.2575L77.6664 45.5H76.8856V46.5ZM80.7136 61.812L79.7435 62.0545L79.9329 62.812H80.7136V61.812ZM81.2356 61.812V62.812H82.0135L82.2049 62.058L81.2356 61.812ZM85.1216 46.5V45.5H84.3437L84.1524 46.254L85.1216 46.5ZM100.492 46.5L101.422 46.8679L101.963 45.5H100.492V46.5ZM87.9636 78.168L87.0337 77.8001L86.9636 77.9774V78.168H87.9636ZM87.9636 90V91H88.9636V90H87.9636ZM74.0436 90H73.0436V91H74.0436V90ZM74.0436 78.168H75.0436V77.9774L74.9735 77.8001L74.0436 78.168ZM61.5156 47.5H76.8856V45.5H61.5156V47.5ZM75.9155 46.7425L79.7435 62.0545L81.6838 61.5695L77.8558 46.2575L75.9155 46.7425ZM80.7136 62.812H81.2356V60.812H80.7136V62.812ZM82.2049 62.058L86.0909 46.746L84.1524 46.254L80.2663 61.566L82.2049 62.058ZM85.1216 47.5H100.492V45.5H85.1216V47.5ZM99.5617 46.1321L87.0337 77.8001L88.8935 78.5359L101.422 46.8679L99.5617 46.1321ZM86.9636 78.168V90H88.9636V78.168H86.9636ZM87.9636 89H74.0436V91H87.9636V89ZM75.0436 90V78.168H73.0436V90H75.0436ZM74.9735 77.8001L62.4455 46.1321L60.5857 46.8679L73.1137 78.5359L74.9735 77.8001ZM119.613 89.246L118.627 89.0768L118.467 90.0141L119.395 90.2218L119.613 89.246ZM121.585 77.762L121.823 76.7908L120.781 76.535L120.599 77.5928L121.585 77.762ZM137.709 79.27L137.738 80.2696L137.752 80.2692L137.766 80.2684L137.709 79.27ZM141.305 78.922L141.452 79.9112L142.305 79.7848V78.922H141.305ZM141.305 75.442H142.305V74.5219L141.388 74.4455L141.305 75.442ZM135.041 74.92L134.946 75.9155L134.958 75.9165L135.041 74.92ZM127.965 73.528L127.637 74.4728L127.965 73.528ZM123.383 70.86L122.664 71.555L122.676 71.5672L122.688 71.579L123.383 70.86ZM120.947 66.742L119.986 67.0167L119.989 67.0305L119.994 67.0442L120.947 66.742ZM121.179 53.634L122.133 53.9333L122.135 53.9281L121.179 53.634ZM124.137 48.82L124.8 49.5686L124.806 49.5634L124.812 49.558L124.137 48.82ZM129.357 46.21L129.131 45.2359L129.127 45.2368L129.357 46.21ZM153.949 47.196L154.937 47.3504L155.08 46.4324L154.176 46.222L153.949 47.196ZM152.209 58.332L152.05 59.3193L153.042 59.4787L153.197 58.4864L152.209 58.332ZM135.215 57.636L135.088 56.644L134.215 56.7555V57.636H135.215ZM135.215 61.058H134.215V61.9693L135.122 62.0537L135.215 61.058ZM140.203 61.522L140.304 60.5271L140.296 60.5263L140.203 61.522ZM147.859 63.088L147.522 64.0293L147.53 64.0322L147.537 64.0349L147.859 63.088ZM152.789 65.872L152.105 66.6015L152.111 66.6068L152.116 66.6119L152.789 65.872ZM155.457 69.99L154.504 70.2922L154.507 70.3027L154.511 70.3131L155.457 69.99ZM155.109 82.866L154.176 82.507V82.507L155.109 82.866ZM152.325 87.448L153.016 88.1706L153.019 88.1678L152.325 87.448ZM149.019 89.478L149.352 90.421L149.364 90.4167L149.376 90.4121L149.019 89.478ZM144.843 90.522L144.999 91.5098L144.843 90.522ZM140.377 90.928L140.351 89.9283L140.338 89.9287L140.324 89.9294L140.377 90.928ZM127.675 90.58L127.785 89.5861L127.675 90.58ZM120.599 89.4152L122.571 77.9312L120.599 77.5928L118.627 89.0768L120.599 89.4152ZM121.347 78.7332C125.658 79.7914 129.587 80.328 133.127 80.328V78.328C129.784 78.328 126.019 77.8206 121.823 76.7908L121.347 78.7332ZM133.127 80.328C134.874 80.328 136.411 80.3086 137.738 80.2696L137.68 78.2704C136.377 78.3087 134.86 78.328 133.127 78.328V80.328ZM137.766 80.2684C139.141 80.1898 140.371 80.0713 141.452 79.9112L141.158 77.9328C140.151 78.082 138.983 78.1956 137.652 78.2716L137.766 80.2684ZM142.305 78.922V75.442H140.305V78.922H142.305ZM141.388 74.4455L135.124 73.9235L134.958 75.9165L141.222 76.4385L141.388 74.4455ZM135.137 73.9246C132.363 73.6586 130.089 73.2062 128.293 72.5832L127.637 74.4728C129.631 75.1644 132.074 75.64 134.946 75.9154L135.137 73.9246ZM128.293 72.5832C126.503 71.9623 125.111 71.1398 124.078 70.141L122.688 71.579C123.975 72.8228 125.638 73.779 127.637 74.4728L128.293 72.5832ZM124.102 70.165C123.091 69.1195 122.358 67.8825 121.9 66.4398L119.994 67.0442C120.542 68.7721 121.432 70.2805 122.664 71.555L124.102 70.165ZM121.909 66.4673C121.476 64.9536 121.251 63.1552 121.251 61.058H119.251C119.251 63.2915 119.49 65.2824 119.986 67.0167L121.909 66.4673ZM121.251 61.058C121.251 58.1415 121.555 55.7761 122.133 53.9333L120.225 53.3347C119.566 55.4359 119.251 58.0198 119.251 61.058H121.251ZM122.135 53.9281C122.708 52.0638 123.605 50.6267 124.8 49.5686L123.474 48.0714C121.962 49.4106 120.887 51.1829 120.223 53.3399L122.135 53.9281ZM124.812 49.558C126.017 48.4559 127.594 47.6542 129.587 47.1832L129.127 45.2368C126.866 45.7712 124.963 46.7094 123.462 48.082L124.812 49.558ZM129.583 47.1841C131.652 46.7039 134.201 46.456 137.245 46.456V44.456C134.103 44.456 131.393 44.7108 129.131 45.2359L129.583 47.1841ZM137.245 46.456C143.331 46.456 148.822 47.0303 153.723 48.17L154.176 46.222C149.1 45.0417 143.455 44.456 137.245 44.456V46.456ZM152.961 47.0416L151.221 58.1776L153.197 58.4864L154.937 47.3504L152.961 47.0416ZM152.368 57.3447C148.015 56.6452 144.495 56.288 141.827 56.288V58.288C144.341 58.288 147.742 58.6268 152.05 59.3193L152.368 57.3447ZM141.827 56.288C139.21 56.288 136.961 56.405 135.088 56.644L135.342 58.6279C137.104 58.403 139.263 58.288 141.827 58.288V56.288ZM134.215 57.636V61.058H136.215V57.636H134.215ZM135.122 62.0537L140.11 62.5177L140.296 60.5263L135.308 60.0623L135.122 62.0537ZM140.102 62.5169C143.106 62.8211 145.573 63.3307 147.522 64.0293L148.197 62.1467C146.047 61.376 143.409 60.8415 140.304 60.5271L140.102 62.5169ZM147.537 64.0349C149.488 64.6973 150.996 65.5619 152.105 66.6015L153.473 65.1425C152.107 63.8621 150.329 62.8707 148.181 62.1411L147.537 64.0349ZM152.116 66.6119C153.267 67.6579 154.056 68.8813 154.504 70.2922L156.41 69.6878C155.852 67.928 154.863 66.4061 153.462 65.1321L152.116 66.6119ZM154.511 70.3131C155.01 71.7742 155.269 73.4789 155.269 75.442H157.269C157.269 73.3064 156.987 71.3765 156.403 69.6669L154.511 70.3131ZM155.269 75.442C155.269 78.2997 154.892 80.6443 154.176 82.507L156.042 83.225C156.873 81.0664 157.269 78.4617 157.269 75.442H155.269ZM154.176 82.507C153.434 84.436 152.573 85.8195 151.631 86.7282L153.019 88.1678C154.242 86.9885 155.238 85.3173 156.042 83.225L154.176 82.507ZM151.634 86.7254C150.854 87.4717 149.87 88.082 148.662 88.5439L149.376 90.4121C150.797 89.8686 152.018 89.1256 153.016 88.1706L151.634 86.7254ZM148.686 88.535C147.433 88.9774 146.1 89.3111 144.687 89.5342L144.999 91.5098C146.525 91.2689 147.976 90.9066 149.352 90.421L148.686 88.535ZM144.687 89.5342C143.261 89.7593 141.816 89.8908 140.351 89.9283L140.403 91.9277C141.954 91.8879 143.486 91.7487 144.999 91.5098L144.687 89.5342ZM140.324 89.9294C138.869 90.006 137.553 90.044 136.375 90.044V92.044C137.595 92.044 138.947 92.0047 140.43 91.9266L140.324 89.9294ZM136.375 90.044C133.393 90.044 130.53 89.8911 127.785 89.5861L127.565 91.5739C130.388 91.8876 133.325 92.044 136.375 92.044V90.044ZM127.785 89.5861C125.036 89.2806 122.385 88.8418 119.832 88.2702L119.395 90.2218C122.023 90.8102 124.746 91.2607 127.565 91.5739L127.785 89.5861ZM175.721 71.092L176.72 71.0365L176.667 70.092H175.721V71.092ZM175.431 71.092V70.092H174.431V71.092H175.431ZM175.431 90V91H176.431V90H175.431ZM161.511 90H160.511V91H161.511V90ZM161.511 46.5V45.5H160.511V46.5H161.511ZM175.431 46.5H176.431V45.5H175.431V46.5ZM175.431 64.248H174.431V65.248H175.431V64.248ZM175.721 64.248V65.248H176.667L176.72 64.3035L175.721 64.248ZM175.953 62.392L176.931 62.6015L176.934 62.5881L175.953 62.392ZM176.417 60.884L175.513 60.4573L175.51 60.4637L175.507 60.4702L176.417 60.884ZM183.203 46.5V45.5H182.569L182.299 46.0733L183.203 46.5ZM198.283 46.5L199.182 46.9394L199.886 45.5H198.283V46.5ZM187.843 67.844L186.945 67.4046L186.731 67.843L186.944 68.2818L187.843 67.844ZM198.631 90V91H200.23L199.53 89.5622L198.631 90ZM183.551 90L182.642 90.4158L182.909 91H183.551V90ZM176.417 74.398L175.507 74.8118L175.508 74.8138L176.417 74.398ZM175.953 72.948L174.975 73.1575L175.953 72.948ZM175.721 70.092H175.431V72.092H175.721V70.092ZM174.431 71.092V90H176.431V71.092H174.431ZM175.431 89H161.511V91H175.431V89ZM162.511 90V46.5H160.511V90H162.511ZM161.511 47.5H175.431V45.5H161.511V47.5ZM174.431 46.5V64.248H176.431V46.5H174.431ZM175.431 65.248H175.721V63.248H175.431V65.248ZM176.72 64.3035C176.756 63.6467 176.828 63.0811 176.931 62.6015L174.975 62.1825C174.846 62.7856 174.764 63.4573 174.723 64.1925L176.72 64.3035ZM176.934 62.5881C177.039 62.0643 177.173 61.638 177.328 61.2978L175.507 60.4702C175.275 60.9807 175.1 61.5597 174.973 62.1959L176.934 62.5881ZM177.322 61.3107L184.108 46.9267L182.299 46.0733L175.513 60.4573L177.322 61.3107ZM183.203 47.5H198.283V45.5H183.203V47.5ZM197.385 46.0606L186.945 67.4046L188.742 68.2834L199.182 46.9394L197.385 46.0606ZM186.944 68.2818L197.732 90.4378L199.53 89.5622L188.742 67.4062L186.944 68.2818ZM198.631 89H183.551V91H198.631V89ZM184.461 89.5842L177.327 73.9822L175.508 74.8138L182.642 90.4158L184.461 89.5842ZM177.328 73.9842C177.169 73.635 177.035 73.222 176.931 72.7385L174.975 73.1575C175.104 73.7567 175.279 74.3103 175.507 74.8118L177.328 73.9842ZM176.931 72.7385C176.828 72.2589 176.756 71.6933 176.72 71.0365L174.723 71.1475C174.764 71.8827 174.846 72.5544 174.975 73.1575L176.931 72.7385ZM216.722 90V91H217.722V90H216.722ZM202.802 90H201.802V91H202.802V90ZM202.802 46.5V45.5H201.802V46.5H202.802ZM216.722 46.5H217.722V45.5H216.722V46.5ZM216.722 89H202.802V91H216.722V89ZM203.802 90V46.5H201.802V90H203.802ZM202.802 47.5H216.722V45.5H202.802V47.5ZM215.722 46.5V90H217.722V46.5H215.722ZM251.543 78.864H252.543V77.864H251.543V78.864ZM251.543 90V91H252.543V90H251.543ZM223.703 90H222.703V91H223.703V90ZM223.703 46.5V45.5H222.703V46.5H223.703ZM237.623 46.5H238.623V45.5H237.623V46.5ZM237.623 78.864H236.623V79.864H237.623V78.864ZM250.543 78.864V90H252.543V78.864H250.543ZM251.543 89H223.703V91H251.543V89ZM224.703 90V46.5H222.703V90H224.703ZM223.703 47.5H237.623V45.5H223.703V47.5ZM236.623 46.5V78.864H238.623V46.5H236.623ZM237.623 79.864H251.543V77.864H237.623V79.864ZM283.205 78.864H284.205V77.864H283.205V78.864ZM283.205 90V91H284.205V90H283.205ZM255.365 90H254.365V91H255.365V90ZM255.365 46.5V45.5H254.365V46.5H255.365ZM269.285 46.5H270.285V45.5H269.285V46.5ZM269.285 78.864H268.285V79.864H269.285V78.864ZM282.205 78.864V90H284.205V78.864H282.205ZM283.205 89H255.365V91H283.205V89ZM256.365 90V46.5H254.365V90H256.365ZM255.365 47.5H269.285V45.5H255.365V47.5ZM268.285 46.5V78.864H270.285V46.5H268.285ZM269.285 79.864H283.205V77.864H269.285V79.864ZM314.867 78.864H315.867V77.864H314.867V78.864ZM314.867 90V91H315.867V90H314.867ZM287.027 90H286.027V91H287.027V90ZM287.027 46.5V45.5H286.027V46.5H287.027ZM300.947 46.5H301.947V45.5H300.947V46.5ZM300.947 78.864H299.947V79.864H300.947V78.864ZM313.867 78.864V90H315.867V78.864H313.867ZM314.867 89H287.027V91H314.867V89ZM288.027 90V46.5H286.027V90H288.027ZM287.027 47.5H300.947V45.5H287.027V47.5ZM299.947 46.5V78.864H301.947V46.5H299.947ZM300.947 79.864H314.867V77.864H300.947V79.864ZM316.949 89.246L315.963 89.0768L315.802 90.0141L316.73 90.2218L316.949 89.246ZM318.921 77.762L319.159 76.7908L318.117 76.535L317.935 77.5928L318.921 77.762ZM335.045 79.27L335.074 80.2696L335.088 80.2692L335.102 80.2684L335.045 79.27ZM338.641 78.922L338.788 79.9112L339.641 79.7848V78.922H338.641ZM338.641 75.442H339.641V74.5219L338.724 74.4455L338.641 75.442ZM332.377 74.92L332.282 75.9155L332.294 75.9165L332.377 74.92ZM325.301 73.528L324.973 74.4728L325.301 73.528ZM320.719 70.86L320 71.555L320.012 71.5672L320.024 71.579L320.719 70.86ZM318.283 66.742L317.321 67.0167L317.325 67.0305L317.33 67.0442L318.283 66.742ZM318.515 53.634L319.469 53.9333L319.471 53.9281L318.515 53.634ZM321.473 48.82L322.136 49.5686L322.142 49.5634L322.148 49.558L321.473 48.82ZM326.693 46.21L326.467 45.2359L326.463 45.2368L326.693 46.21ZM351.285 47.196L352.273 47.3504L352.416 46.4324L351.512 46.222L351.285 47.196ZM349.545 58.332L349.386 59.3193L350.378 59.4787L350.533 58.4864L349.545 58.332ZM332.551 57.636L332.424 56.644L331.551 56.7555V57.636H332.551ZM332.551 61.058H331.551V61.9693L332.458 62.0537L332.551 61.058ZM337.539 61.522L337.64 60.5271L337.632 60.5263L337.539 61.522ZM345.195 63.088L344.858 64.0293L344.865 64.0322L344.873 64.0349L345.195 63.088ZM350.125 65.872L349.441 66.6015L349.447 66.6068L349.452 66.6119L350.125 65.872ZM352.793 69.99L351.84 70.2922L351.843 70.3027L351.847 70.3131L352.793 69.99ZM352.445 82.866L351.512 82.507V82.507L352.445 82.866ZM349.661 87.448L350.352 88.1706L350.355 88.1678L349.661 87.448ZM346.355 89.478L346.688 90.421L346.7 90.4167L346.712 90.4121L346.355 89.478ZM342.179 90.522L342.335 91.5098L342.179 90.522ZM337.713 90.928L337.687 89.9283L337.674 89.9287L337.66 89.9294L337.713 90.928ZM325.011 90.58L325.121 89.5861L325.011 90.58ZM317.935 89.4152L319.907 77.9312L317.935 77.5928L315.963 89.0768L317.935 89.4152ZM318.683 78.7332C322.994 79.7914 326.923 80.328 330.463 80.328V78.328C327.12 78.328 323.355 77.8206 319.159 76.7908L318.683 78.7332ZM330.463 80.328C332.21 80.328 333.747 80.3086 335.074 80.2696L335.016 78.2704C333.713 78.3087 332.196 78.328 330.463 78.328V80.328ZM335.102 80.2684C336.477 80.1898 337.707 80.0713 338.788 79.9112L338.494 77.9328C337.487 78.082 336.319 78.1956 334.988 78.2716L335.102 80.2684ZM339.641 78.922V75.442H337.641V78.922H339.641ZM338.724 74.4455L332.46 73.9235L332.294 75.9165L338.558 76.4385L338.724 74.4455ZM332.472 73.9246C329.699 73.6586 327.424 73.2062 325.629 72.5832L324.973 74.4728C326.967 75.1644 329.409 75.64 332.282 75.9154L332.472 73.9246ZM325.629 72.5832C323.839 71.9623 322.447 71.1398 321.414 70.141L320.024 71.579C321.311 72.8228 322.974 73.779 324.973 74.4728L325.629 72.5832ZM321.438 70.165C320.427 69.1195 319.694 67.8825 319.236 66.4398L317.33 67.0442C317.878 68.7721 318.768 70.2805 320 71.555L321.438 70.165ZM319.245 66.4673C318.812 64.9536 318.587 63.1552 318.587 61.058H316.587C316.587 63.2915 316.826 65.2824 317.321 67.0167L319.245 66.4673ZM318.587 61.058C318.587 58.1415 318.891 55.7761 319.469 53.9333L317.561 53.3347C316.902 55.4359 316.587 58.0198 316.587 61.058H318.587ZM319.471 53.9281C320.044 52.0638 320.941 50.6267 322.136 49.5686L320.81 48.0714C319.298 49.4106 318.223 51.1829 317.559 53.3399L319.471 53.9281ZM322.148 49.558C323.353 48.4559 324.93 47.6542 326.923 47.1832L326.463 45.2368C324.202 45.7712 322.299 46.7094 320.798 48.082L322.148 49.558ZM326.919 47.1841C328.988 46.7039 331.537 46.456 334.581 46.456V44.456C331.439 44.456 328.729 44.7108 326.467 45.2359L326.919 47.1841ZM334.581 46.456C340.667 46.456 346.158 47.0303 351.058 48.17L351.512 46.222C346.436 45.0417 340.791 44.456 334.581 44.456V46.456ZM350.297 47.0416L348.557 58.1776L350.533 58.4864L352.273 47.3504L350.297 47.0416ZM349.704 57.3447C345.351 56.6452 341.831 56.288 339.163 56.288V58.288C341.677 58.288 345.077 58.6268 349.386 59.3193L349.704 57.3447ZM339.163 56.288C336.546 56.288 334.297 56.405 332.424 56.644L332.678 58.6279C334.44 58.403 336.599 58.288 339.163 58.288V56.288ZM331.551 57.636V61.058H333.551V57.636H331.551ZM332.458 62.0537L337.446 62.5177L337.632 60.5263L332.644 60.0623L332.458 62.0537ZM337.438 62.5169C340.442 62.8211 342.909 63.3307 344.858 64.0293L345.532 62.1467C343.383 61.376 340.745 60.8415 337.64 60.5271L337.438 62.5169ZM344.873 64.0349C346.824 64.6973 348.332 65.5619 349.441 66.6015L350.809 65.1425C349.443 63.8621 347.665 62.8707 345.517 62.1411L344.873 64.0349ZM349.452 66.6119C350.603 67.6579 351.392 68.8813 351.84 70.2922L353.746 69.6878C353.188 67.928 352.199 66.4061 350.798 65.1321L349.452 66.6119ZM351.847 70.3131C352.346 71.7742 352.605 73.4789 352.605 75.442H354.605C354.605 73.3064 354.323 71.3765 353.739 69.6669L351.847 70.3131ZM352.605 75.442C352.605 78.2997 352.228 80.6443 351.512 82.507L353.378 83.225C354.209 81.0664 354.605 78.4617 354.605 75.442H352.605ZM351.512 82.507C350.77 84.436 349.909 85.8195 348.967 86.7282L350.355 88.1678C351.578 86.9885 352.574 85.3173 353.378 83.225L351.512 82.507ZM348.97 86.7254C348.189 87.4717 347.206 88.082 345.998 88.5439L346.712 90.4121C348.133 89.8686 349.354 89.1256 350.352 88.1706L348.97 86.7254ZM346.022 88.535C344.769 88.9774 343.436 89.3111 342.023 89.5342L342.335 91.5098C343.86 91.2689 345.312 90.9066 346.688 90.421L346.022 88.535ZM342.023 89.5342C340.597 89.7593 339.152 89.8908 337.687 89.9283L337.739 91.9277C339.29 91.8879 340.822 91.7487 342.335 91.5098L342.023 89.5342ZM337.66 89.9294C336.205 90.006 334.889 90.044 333.711 90.044V92.044C334.931 92.044 336.282 92.0047 337.766 91.9266L337.66 89.9294ZM333.711 90.044C330.729 90.044 327.866 89.8911 325.121 89.5861L324.901 91.5739C327.724 91.8876 330.661 92.044 333.711 92.044V90.044ZM325.121 89.5861C322.372 89.2806 319.721 88.8418 317.167 88.2702L316.73 90.2218C319.359 90.8102 322.082 91.2607 324.901 91.5739L325.121 89.5861Z" fill="#CEB7FF"/>
</g>
<g filter="url(#filter1_d_21_3747)">
<path d="M22.2116 68.888V67.888H21.2493L21.2123 68.8496L22.2116 68.888ZM21.3996 90V91H22.3618L22.3988 90.0384L21.3996 90ZM6.84156 90L5.84344 89.9388L5.77835 91H6.84156V90ZM9.50956 46.5V45.5H8.56902L8.51144 46.4388L9.50956 46.5ZM27.6636 46.5L28.6352 46.2635L28.4493 45.5H27.6636V46.5ZM33.0576 68.656L32.0859 68.8925L32.2718 69.656H33.0576V68.656ZM33.5796 68.656V69.656H34.3653L34.5512 68.8925L33.5796 68.656ZM38.9736 46.5V45.5H38.1878L38.0019 46.2635L38.9736 46.5ZM57.1856 46.5L58.1838 46.4401L58.1274 45.5H57.1856V46.5ZM59.7956 90V91H60.8574L60.7938 89.9401L59.7956 90ZM45.2376 90L44.2383 90.0384L44.2753 91H45.2376V90ZM44.4256 68.888L45.4248 68.8496L45.3878 67.888H44.4256V68.888ZM43.9616 68.888V67.888H43.1829L42.9921 68.643L43.9616 68.888ZM38.6256 90V91H39.4043L39.5951 90.245L38.6256 90ZM28.0116 90L27.0427 90.2475L27.2349 91H28.0116V90ZM22.6176 68.888L23.5864 68.6405L23.3942 67.888H22.6176V68.888ZM21.2123 68.8496L20.4003 89.9616L22.3988 90.0384L23.2108 68.9264L21.2123 68.8496ZM21.3996 89H6.84156V91H21.3996V89ZM7.83969 90.0612L10.5077 46.5612L8.51144 46.4388L5.84344 89.9388L7.83969 90.0612ZM9.50956 47.5H27.6636V45.5H9.50956V47.5ZM26.6919 46.7365L32.0859 68.8925L34.0292 68.4195L28.6352 46.2635L26.6919 46.7365ZM33.0576 69.656H33.5796V67.656H33.0576V69.656ZM34.5512 68.8925L39.9452 46.7365L38.0019 46.2635L32.6079 68.4195L34.5512 68.8925ZM38.9736 47.5H57.1856V45.5H38.9736V47.5ZM56.1874 46.5599L58.7974 90.0599L60.7938 89.9401L58.1838 46.4401L56.1874 46.5599ZM59.7956 89H45.2376V91H59.7956V89ZM46.2368 89.9616L45.4248 68.8496L43.4263 68.9264L44.2383 90.0384L46.2368 89.9616ZM44.4256 67.888H43.9616V69.888H44.4256V67.888ZM42.9921 68.643L37.6561 89.755L39.5951 90.245L44.9311 69.133L42.9921 68.643ZM38.6256 89H28.0116V91H38.6256V89ZM28.9804 89.7525L23.5864 68.6405L21.6487 69.1355L27.0427 90.2475L28.9804 89.7525ZM22.6176 67.888H22.2116V69.888H22.6176V67.888ZM61.5156 46.5V45.5H60.0446L60.5857 46.8679L61.5156 46.5ZM76.8856 46.5L77.8558 46.2575L77.6664 45.5H76.8856V46.5ZM80.7136 61.812L79.7435 62.0545L79.9329 62.812H80.7136V61.812ZM81.2356 61.812V62.812H82.0135L82.2049 62.058L81.2356 61.812ZM85.1216 46.5V45.5H84.3437L84.1524 46.254L85.1216 46.5ZM100.492 46.5L101.422 46.8679L101.963 45.5H100.492V46.5ZM87.9636 78.168L87.0337 77.8001L86.9636 77.9774V78.168H87.9636ZM87.9636 90V91H88.9636V90H87.9636ZM74.0436 90H73.0436V91H74.0436V90ZM74.0436 78.168H75.0436V77.9774L74.9735 77.8001L74.0436 78.168ZM61.5156 47.5H76.8856V45.5H61.5156V47.5ZM75.9155 46.7425L79.7435 62.0545L81.6838 61.5695L77.8558 46.2575L75.9155 46.7425ZM80.7136 62.812H81.2356V60.812H80.7136V62.812ZM82.2049 62.058L86.0909 46.746L84.1524 46.254L80.2664 61.566L82.2049 62.058ZM85.1216 47.5H100.492V45.5H85.1216V47.5ZM99.5617 46.1321L87.0337 77.8001L88.8935 78.5359L101.422 46.8679L99.5617 46.1321ZM86.9636 78.168V90H88.9636V78.168H86.9636ZM87.9636 89H74.0436V91H87.9636V89ZM75.0436 90V78.168H73.0436V90H75.0436ZM74.9735 77.8001L62.4455 46.1321L60.5857 46.8679L73.1137 78.5359L74.9735 77.8001ZM119.613 89.246L118.627 89.0768L118.467 90.0141L119.395 90.2218L119.613 89.246ZM121.585 77.762L121.823 76.7908L120.781 76.535L120.599 77.5928L121.585 77.762ZM137.709 79.27L137.738 80.2696L137.752 80.2692L137.766 80.2684L137.709 79.27ZM141.305 78.922L141.452 79.9112L142.305 79.7848V78.922H141.305ZM141.305 75.442H142.305V74.5219L141.388 74.4455L141.305 75.442ZM135.041 74.92L134.946 75.9155L134.958 75.9165L135.041 74.92ZM127.965 73.528L127.637 74.4728L127.637 74.4728L127.965 73.528ZM123.383 70.86L122.664 71.555L122.676 71.5672L122.688 71.579L123.383 70.86ZM120.947 66.742L119.986 67.0167L119.989 67.0305L119.994 67.0442L120.947 66.742ZM121.179 53.634L122.133 53.9333L122.135 53.9281L121.179 53.634ZM124.137 48.82L124.8 49.5686L124.806 49.5634L124.812 49.558L124.137 48.82ZM129.357 46.21L129.131 45.2359L129.127 45.2368L129.357 46.21ZM153.949 47.196L154.937 47.3504L155.08 46.4324L154.176 46.222L153.949 47.196ZM152.209 58.332L152.05 59.3193L153.042 59.4787L153.197 58.4864L152.209 58.332ZM135.215 57.636L135.088 56.644L134.215 56.7555V57.636H135.215ZM135.215 61.058H134.215V61.9693L135.122 62.0537L135.215 61.058ZM140.203 61.522L140.304 60.5271L140.296 60.5263L140.203 61.522ZM147.859 63.088L147.522 64.0293L147.53 64.0322L147.537 64.0349L147.859 63.088ZM152.789 65.872L152.105 66.6015L152.111 66.6068L152.116 66.6119L152.789 65.872ZM155.457 69.99L154.504 70.2922L154.507 70.3027L154.511 70.3131L155.457 69.99ZM155.109 82.866L154.176 82.507L154.176 82.507L155.109 82.866ZM152.325 87.448L153.016 88.1706L153.019 88.1678L152.325 87.448ZM149.019 89.478L149.352 90.421L149.364 90.4167L149.376 90.4121L149.019 89.478ZM144.843 90.522L144.999 91.5098L144.999 91.5098L144.843 90.522ZM140.377 90.928L140.351 89.9283L140.338 89.9287L140.324 89.9294L140.377 90.928ZM127.675 90.58L127.785 89.5861L127.785 89.5861L127.675 90.58ZM120.599 89.4152L122.571 77.9312L120.599 77.5928L118.627 89.0768L120.599 89.4152ZM121.347 78.7332C125.658 79.7914 129.587 80.328 133.127 80.328V78.328C129.784 78.328 126.019 77.8206 121.823 76.7908L121.347 78.7332ZM133.127 80.328C134.874 80.328 136.411 80.3086 137.738 80.2696L137.68 78.2704C136.377 78.3087 134.86 78.328 133.127 78.328V80.328ZM137.766 80.2684C139.141 80.1898 140.371 80.0713 141.452 79.9112L141.158 77.9328C140.151 78.082 138.983 78.1956 137.652 78.2716L137.766 80.2684ZM142.305 78.922V75.442H140.305V78.922H142.305ZM141.388 74.4455L135.124 73.9235L134.958 75.9165L141.222 76.4385L141.388 74.4455ZM135.136 73.9246C132.363 73.6586 130.089 73.2062 128.293 72.5832L127.637 74.4728C129.631 75.1644 132.074 75.64 134.946 75.9154L135.136 73.9246ZM128.293 72.5832C126.503 71.9623 125.111 71.1398 124.078 70.141L122.688 71.579C123.975 72.8228 125.638 73.779 127.637 74.4728L128.293 72.5832ZM124.102 70.165C123.091 69.1195 122.358 67.8825 121.9 66.4398L119.994 67.0442C120.542 68.7721 121.432 70.2805 122.664 71.555L124.102 70.165ZM121.909 66.4673C121.476 64.9536 121.251 63.1552 121.251 61.058H119.251C119.251 63.2915 119.49 65.2824 119.986 67.0167L121.909 66.4673ZM121.251 61.058C121.251 58.1415 121.555 55.7761 122.133 53.9333L120.225 53.3347C119.566 55.4359 119.251 58.0198 119.251 61.058H121.251ZM122.135 53.9281C122.708 52.0638 123.605 50.6267 124.8 49.5686L123.474 48.0714C121.962 49.4106 120.887 51.1829 120.223 53.3399L122.135 53.9281ZM124.812 49.558C126.017 48.4559 127.594 47.6542 129.587 47.1832L129.127 45.2368C126.866 45.7712 124.963 46.7094 123.462 48.082L124.812 49.558ZM129.583 47.1841C131.652 46.7039 134.201 46.456 137.245 46.456V44.456C134.103 44.456 131.393 44.7108 129.131 45.2359L129.583 47.1841ZM137.245 46.456C143.331 46.456 148.822 47.0303 153.723 48.17L154.176 46.222C149.1 45.0417 143.455 44.456 137.245 44.456V46.456ZM152.961 47.0416L151.221 58.1776L153.197 58.4864L154.937 47.3504L152.961 47.0416ZM152.368 57.3447C148.015 56.6452 144.495 56.288 141.827 56.288V58.288C144.341 58.288 147.742 58.6268 152.05 59.3193L152.368 57.3447ZM141.827 56.288C139.21 56.288 136.961 56.405 135.088 56.644L135.342 58.6279C137.104 58.403 139.263 58.288 141.827 58.288V56.288ZM134.215 57.636V61.058H136.215V57.636H134.215ZM135.122 62.0537L140.11 62.5177L140.296 60.5263L135.308 60.0623L135.122 62.0537ZM140.102 62.5169C143.106 62.8211 145.573 63.3307 147.522 64.0293L148.197 62.1467C146.047 61.376 143.409 60.8415 140.304 60.5271L140.102 62.5169ZM147.537 64.0349C149.488 64.6973 150.996 65.5619 152.105 66.6015L153.473 65.1425C152.107 63.8621 150.329 62.8707 148.181 62.1411L147.537 64.0349ZM152.116 66.6119C153.267 67.6579 154.056 68.8814 154.504 70.2922L156.41 69.6878C155.852 67.928 154.863 66.4061 153.462 65.1321L152.116 66.6119ZM154.511 70.3131C155.01 71.7742 155.269 73.4789 155.269 75.442H157.269C157.269 73.3064 156.987 71.3765 156.403 69.6669L154.511 70.3131ZM155.269 75.442C155.269 78.2997 154.892 80.6443 154.176 82.507L156.042 83.225C156.873 81.0664 157.269 78.4617 157.269 75.442H155.269ZM154.176 82.507C153.434 84.436 152.573 85.8195 151.631 86.7282L153.019 88.1678C154.242 86.9885 155.238 85.3173 156.042 83.225L154.176 82.507ZM151.634 86.7254C150.854 87.4717 149.87 88.082 148.662 88.5439L149.376 90.4121C150.797 89.8686 152.018 89.1256 153.016 88.1706L151.634 86.7254ZM148.686 88.535C147.433 88.9774 146.1 89.3111 144.687 89.5342L144.999 91.5098C146.525 91.2689 147.976 90.9066 149.352 90.421L148.686 88.535ZM144.687 89.5342C143.261 89.7593 141.816 89.8908 140.351 89.9283L140.403 91.9277C141.954 91.8879 143.486 91.7487 144.999 91.5098L144.687 89.5342ZM140.324 89.9294C138.869 90.006 137.553 90.044 136.375 90.044V92.044C137.595 92.044 138.947 92.0047 140.43 91.9266L140.324 89.9294ZM136.375 90.044C133.393 90.044 130.53 89.8911 127.785 89.5861L127.565 91.5739C130.388 91.8876 133.325 92.044 136.375 92.044V90.044ZM127.785 89.5861C125.036 89.2806 122.385 88.8418 119.832 88.2702L119.395 90.2218C122.023 90.8102 124.746 91.2607 127.565 91.5739L127.785 89.5861ZM175.721 71.092L176.72 71.0365L176.667 70.092H175.721V71.092ZM175.431 71.092V70.092H174.431V71.092H175.431ZM175.431 90V91H176.431V90H175.431ZM161.511 90H160.511V91H161.511V90ZM161.511 46.5V45.5H160.511V46.5H161.511ZM175.431 46.5H176.431V45.5H175.431V46.5ZM175.431 64.248H174.431V65.248H175.431V64.248ZM175.721 64.248V65.248H176.667L176.72 64.3035L175.721 64.248ZM175.953 62.392L176.931 62.6015L176.934 62.5881L175.953 62.392ZM176.417 60.884L175.513 60.4573L175.51 60.4637L175.507 60.4702L176.417 60.884ZM183.203 46.5V45.5H182.569L182.299 46.0733L183.203 46.5ZM198.283 46.5L199.182 46.9394L199.886 45.5H198.283V46.5ZM187.843 67.844L186.945 67.4046L186.731 67.843L186.944 68.2818L187.843 67.844ZM198.631 90V91H200.23L199.53 89.5622L198.631 90ZM183.551 90L182.642 90.4158L182.909 91H183.551V90ZM176.417 74.398L175.507 74.8118L175.508 74.8138L176.417 74.398ZM175.953 72.948L174.975 73.1575L174.975 73.1575L175.953 72.948ZM175.721 70.092H175.431V72.092H175.721V70.092ZM174.431 71.092V90H176.431V71.092H174.431ZM175.431 89H161.511V91H175.431V89ZM162.511 90V46.5H160.511V90H162.511ZM161.511 47.5H175.431V45.5H161.511V47.5ZM174.431 46.5V64.248H176.431V46.5H174.431ZM175.431 65.248H175.721V63.248H175.431V65.248ZM176.72 64.3035C176.756 63.6467 176.828 63.0811 176.931 62.6015L174.975 62.1825C174.846 62.7856 174.764 63.4573 174.723 64.1925L176.72 64.3035ZM176.934 62.5881C177.039 62.0643 177.173 61.638 177.328 61.2978L175.507 60.4702C175.275 60.9807 175.1 61.5597 174.973 62.1959L176.934 62.5881ZM177.322 61.3107L184.108 46.9267L182.299 46.0733L175.513 60.4573L177.322 61.3107ZM183.203 47.5H198.283V45.5H183.203V47.5ZM197.385 46.0606L186.945 67.4046L188.742 68.2834L199.182 46.9394L197.385 46.0606ZM186.944 68.2818L197.732 90.4378L199.53 89.5622L188.742 67.4062L186.944 68.2818ZM198.631 89H183.551V91H198.631V89ZM184.461 89.5842L177.327 73.9822L175.508 74.8138L182.642 90.4158L184.461 89.5842ZM177.328 73.9842C177.169 73.635 177.035 73.222 176.931 72.7385L174.975 73.1575C175.104 73.7567 175.279 74.3103 175.507 74.8118L177.328 73.9842ZM176.931 72.7385C176.828 72.2589 176.756 71.6933 176.72 71.0365L174.723 71.1475C174.764 71.8827 174.846 72.5544 174.975 73.1575L176.931 72.7385ZM216.722 90V91H217.722V90H216.722ZM202.802 90H201.802V91H202.802V90ZM202.802 46.5V45.5H201.802V46.5H202.802ZM216.722 46.5H217.722V45.5H216.722V46.5ZM216.722 89H202.802V91H216.722V89ZM203.802 90V46.5H201.802V90H203.802ZM202.802 47.5H216.722V45.5H202.802V47.5ZM215.722 46.5V90H217.722V46.5H215.722ZM251.543 78.864H252.543V77.864H251.543V78.864ZM251.543 90V91H252.543V90H251.543ZM223.703 90H222.703V91H223.703V90ZM223.703 46.5V45.5H222.703V46.5H223.703ZM237.623 46.5H238.623V45.5H237.623V46.5ZM237.623 78.864H236.623V79.864H237.623V78.864ZM250.543 78.864V90H252.543V78.864H250.543ZM251.543 89H223.703V91H251.543V89ZM224.703 90V46.5H222.703V90H224.703ZM223.703 47.5H237.623V45.5H223.703V47.5ZM236.623 46.5V78.864H238.623V46.5H236.623ZM237.623 79.864H251.543V77.864H237.623V79.864ZM283.205 78.864H284.205V77.864H283.205V78.864ZM283.205 90V91H284.205V90H283.205ZM255.365 90H254.365V91H255.365V90ZM255.365 46.5V45.5H254.365V46.5H255.365ZM269.285 46.5H270.285V45.5H269.285V46.5ZM269.285 78.864H268.285V79.864H269.285V78.864ZM282.205 78.864V90H284.205V78.864H282.205ZM283.205 89H255.365V91H283.205V89ZM256.365 90V46.5H254.365V90H256.365ZM255.365 47.5H269.285V45.5H255.365V47.5ZM268.285 46.5V78.864H270.285V46.5H268.285ZM269.285 79.864H283.205V77.864H269.285V79.864ZM314.867 78.864H315.867V77.864H314.867V78.864ZM314.867 90V91H315.867V90H314.867ZM287.027 90H286.027V91H287.027V90ZM287.027 46.5V45.5H286.027V46.5H287.027ZM300.947 46.5H301.947V45.5H300.947V46.5ZM300.947 78.864H299.947V79.864H300.947V78.864ZM313.867 78.864V90H315.867V78.864H313.867ZM314.867 89H287.027V91H314.867V89ZM288.027 90V46.5H286.027V90H288.027ZM287.027 47.5H300.947V45.5H287.027V47.5ZM299.947 46.5V78.864H301.947V46.5H299.947ZM300.947 79.864H314.867V77.864H300.947V79.864ZM316.949 89.246L315.963 89.0768L315.802 90.0141L316.731 90.2218L316.949 89.246ZM318.921 77.762L319.159 76.7908L318.117 76.535L317.935 77.5928L318.921 77.762ZM335.045 79.27L335.074 80.2696L335.088 80.2692L335.102 80.2684L335.045 79.27ZM338.641 78.922L338.788 79.9112L339.641 79.7848V78.922H338.641ZM338.641 75.442H339.641V74.5219L338.724 74.4455L338.641 75.442ZM332.377 74.92L332.282 75.9155L332.294 75.9165L332.377 74.92ZM325.301 73.528L324.973 74.4728L324.973 74.4728L325.301 73.528ZM320.719 70.86L320 71.555L320.012 71.5672L320.024 71.579L320.719 70.86ZM318.283 66.742L317.321 67.0167L317.325 67.0305L317.33 67.0442L318.283 66.742ZM318.515 53.634L319.469 53.9333L319.471 53.9281L318.515 53.634ZM321.473 48.82L322.136 49.5686L322.142 49.5634L322.148 49.558L321.473 48.82ZM326.693 46.21L326.467 45.2359L326.463 45.2368L326.693 46.21ZM351.285 47.196L352.273 47.3504L352.416 46.4324L351.511 46.222L351.285 47.196ZM349.545 58.332L349.386 59.3193L350.378 59.4787L350.533 58.4864L349.545 58.332ZM332.551 57.636L332.424 56.644L331.551 56.7555V57.636H332.551ZM332.551 61.058H331.551V61.9693L332.458 62.0537L332.551 61.058ZM337.539 61.522L337.64 60.5271L337.632 60.5263L337.539 61.522ZM345.195 63.088L344.858 64.0293L344.865 64.0322L344.873 64.0349L345.195 63.088ZM350.125 65.872L349.441 66.6015L349.447 66.6068L349.452 66.6119L350.125 65.872ZM352.793 69.99L351.84 70.2922L351.843 70.3027L351.847 70.3131L352.793 69.99ZM352.445 82.866L351.512 82.507L351.512 82.507L352.445 82.866ZM349.661 87.448L350.352 88.1706L350.355 88.1678L349.661 87.448ZM346.355 89.478L346.688 90.421L346.7 90.4167L346.712 90.4121L346.355 89.478ZM342.179 90.522L342.335 91.5098L342.335 91.5098L342.179 90.522ZM337.713 90.928L337.687 89.9283L337.674 89.9287L337.66 89.9294L337.713 90.928ZM325.011 90.58L325.121 89.5861L325.121 89.5861L325.011 90.58ZM317.935 89.4152L319.907 77.9312L317.935 77.5928L315.963 89.0768L317.935 89.4152ZM318.683 78.7332C322.994 79.7914 326.923 80.328 330.463 80.328V78.328C327.12 78.328 323.355 77.8206 319.159 76.7908L318.683 78.7332ZM330.463 80.328C332.21 80.328 333.747 80.3086 335.074 80.2696L335.016 78.2704C333.713 78.3087 332.196 78.328 330.463 78.328V80.328ZM335.102 80.2684C336.477 80.1898 337.707 80.0713 338.788 79.9112L338.494 77.9328C337.487 78.082 336.319 78.1956 334.988 78.2716L335.102 80.2684ZM339.641 78.922V75.442H337.641V78.922H339.641ZM338.724 74.4455L332.46 73.9235L332.294 75.9165L338.558 76.4385L338.724 74.4455ZM332.472 73.9246C329.699 73.6586 327.424 73.2062 325.629 72.5832L324.973 74.4728C326.967 75.1644 329.409 75.64 332.282 75.9154L332.472 73.9246ZM325.629 72.5832C323.839 71.9623 322.447 71.1398 321.414 70.141L320.024 71.579C321.311 72.8228 322.974 73.779 324.973 74.4728L325.629 72.5832ZM321.438 70.165C320.427 69.1195 319.694 67.8825 319.236 66.4398L317.33 67.0442C317.878 68.7721 318.768 70.2805 320 71.555L321.438 70.165ZM319.245 66.4673C318.812 64.9536 318.587 63.1552 318.587 61.058H316.587C316.587 63.2915 316.826 65.2824 317.321 67.0167L319.245 66.4673ZM318.587 61.058C318.587 58.1415 318.891 55.7761 319.469 53.9333L317.561 53.3347C316.902 55.4359 316.587 58.0198 316.587 61.058H318.587ZM319.471 53.9281C320.044 52.0638 320.941 50.6267 322.136 49.5686L320.81 48.0714C319.298 49.4106 318.223 51.1829 317.559 53.3399L319.471 53.9281ZM322.148 49.558C323.353 48.4559 324.93 47.6542 326.923 47.1832L326.463 45.2368C324.202 45.7712 322.299 46.7094 320.798 48.082L322.148 49.558ZM326.919 47.1841C328.988 46.7039 331.537 46.456 334.581 46.456V44.456C331.439 44.456 328.729 44.7108 326.467 45.2359L326.919 47.1841ZM334.581 46.456C340.667 46.456 346.158 47.0303 351.058 48.17L351.511 46.222C346.436 45.0417 340.791 44.456 334.581 44.456V46.456ZM350.297 47.0416L348.557 58.1776L350.533 58.4864L352.273 47.3504L350.297 47.0416ZM349.704 57.3447C345.351 56.6452 341.831 56.288 339.163 56.288V58.288C341.677 58.288 345.077 58.6268 349.386 59.3193L349.704 57.3447ZM339.163 56.288C336.546 56.288 334.297 56.405 332.424 56.644L332.678 58.6279C334.44 58.403 336.599 58.288 339.163 58.288V56.288ZM331.551 57.636V61.058H333.551V57.636H331.551ZM332.458 62.0537L337.446 62.5177L337.632 60.5263L332.644 60.0623L332.458 62.0537ZM337.438 62.5169C340.442 62.8211 342.909 63.3307 344.858 64.0293L345.532 62.1467C343.383 61.376 340.745 60.8415 337.64 60.5271L337.438 62.5169ZM344.873 64.0349C346.824 64.6973 348.332 65.5619 349.441 66.6015L350.809 65.1425C349.443 63.8621 347.665 62.8707 345.517 62.1411L344.873 64.0349ZM349.452 66.6119C350.603 67.6579 351.392 68.8814 351.84 70.2922L353.746 69.6878C353.188 67.928 352.199 66.4061 350.798 65.1321L349.452 66.6119ZM351.847 70.3131C352.346 71.7742 352.605 73.4789 352.605 75.442H354.605C354.605 73.3064 354.323 71.3765 353.739 69.6669L351.847 70.3131ZM352.605 75.442C352.605 78.2997 352.228 80.6443 351.512 82.507L353.378 83.225C354.209 81.0664 354.605 78.4617 354.605 75.442H352.605ZM351.512 82.507C350.77 84.436 349.909 85.8195 348.967 86.7282L350.355 88.1678C351.578 86.9885 352.574 85.3173 353.378 83.225L351.512 82.507ZM348.97 86.7254C348.189 87.4717 347.206 88.082 345.998 88.5439L346.712 90.4121C348.133 89.8686 349.354 89.1256 350.352 88.1706L348.97 86.7254ZM346.022 88.535C344.769 88.9774 343.436 89.3111 342.023 89.5342L342.335 91.5098C343.86 91.2689 345.312 90.9066 346.688 90.421L346.022 88.535ZM342.023 89.5342C340.597 89.7593 339.152 89.8908 337.687 89.9283L337.739 91.9277C339.29 91.8879 340.822 91.7487 342.335 91.5098L342.023 89.5342ZM337.66 89.9294C336.205 90.006 334.889 90.044 333.711 90.044V92.044C334.931 92.044 336.282 92.0047 337.766 91.9266L337.66 89.9294ZM333.711 90.044C330.729 90.044 327.866 89.8911 325.121 89.5861L324.901 91.5739C327.724 91.8876 330.661 92.044 333.711 92.044V90.044ZM325.121 89.5861C322.372 89.2806 319.721 88.8418 317.167 88.2702L316.731 90.2218C319.359 90.8102 322.082 91.2607 324.901 91.5739L325.121 89.5861Z" fill="#CEB7FF"/>
</g>
<g filter="url(#filter2_d_21_3747)">
<path d="M4.5 4.5H305.5V19.5H4.5V4.5Z" stroke="#CEB7FF" shape-rendering="crispEdges"/>
</g>
<g filter="url(#filter3_d_21_3747)">
<path d="M4.5 4.5H305.5V19.5H4.5V4.5Z" stroke="#CEB7FF" shape-rendering="crispEdges"/>
</g>
<g filter="url(#filter4_d_21_3747)">
<path d="M4.5 4.5H305.5V19.5H4.5V4.5Z" stroke="#CEB7FF" shape-rendering="crispEdges"/>
</g>
<g filter="url(#filter5_d_21_3747)">
<path d="M4.5 112.5H305.5V127.5H4.5V112.5Z" stroke="#CEB7FF" shape-rendering="crispEdges"/>
</g>
<g filter="url(#filter6_d_21_3747)">
<path d="M4.5 112.5H305.5V127.5H4.5V112.5Z" stroke="#CEB7FF" shape-rendering="crispEdges"/>
</g>
<g filter="url(#filter7_d_21_3747)">
<path d="M4.5 112.5H305.5V127.5H4.5V112.5Z" stroke="#CEB7FF" shape-rendering="crispEdges"/>
</g>
<defs>
<filter id="filter0_d_21_3747" x="1.84156" y="40.456" width="356.763" height="55.588" filterUnits="userSpaceOnUse" color-interpolation-filters="sRGB">
<feFlood flood-opacity="0" result="BackgroundImageFix"/>
<feColorMatrix in="SourceAlpha" type="matrix" values="0 0 0 0 0 0 0 0 0 0 0 0 0 0 0 0 0 0 127 0" result="hardAlpha"/>
<feOffset/>
<feGaussianBlur stdDeviation="2.5"/>
<feComposite in2="hardAlpha" operator="out"/>
<feColorMatrix type="matrix" values="0 0 0 0 0.701961 0 0 0 0 0.466667 0 0 0 0 1 0 0 0 1 0"/>
<feBlend mode="normal" in2="BackgroundImageFix" result="effect1_dropShadow_21_3747"/>
<feBlend mode="normal" in="SourceGraphic" in2="effect1_dropShadow_21_3747" result="shape"/>
</filter>
<filter id="filter1_d_21_3747" x="1.84156" y="40.456" width="356.763" height="55.588" filterUnits="userSpaceOnUse" color-interpolation-filters="sRGB">
<feFlood flood-opacity="0" result="BackgroundImageFix"/>
<feColorMatrix in="SourceAlpha" type="matrix" values="0 0 0 0 0 0 0 0 0 0 0 0 0 0 0 0 0 0 127 0" result="hardAlpha"/>
<feOffset/>
<feGaussianBlur stdDeviation="2.5"/>
<feComposite in2="hardAlpha" operator="out"/>
<feColorMatrix type="matrix" values="0 0 0 0 0.701961 0 0 0 0 0.466667 0 0 0 0 1 0 0 0 1 0"/>
<feBlend mode="normal" in2="BackgroundImageFix" result="effect1_dropShadow_21_3747"/>
<feBlend mode="normal" in="SourceGraphic" in2="effect1_dropShadow_21_3747" result="shape"/>
</filter>
<filter id="filter2_d_21_3747" x="0" y="0" width="310" height="24" filterUnits="userSpaceOnUse" color-interpolation-filters="sRGB">
<feFlood flood-opacity="0" result="BackgroundImageFix"/>
<feColorMatrix in="SourceAlpha" type="matrix" values="0 0 0 0 0 0 0 0 0 0 0 0 0 0 0 0 0 0 127 0" result="hardAlpha"/>
<feOffset/>
<feGaussianBlur stdDeviation="2"/>
<feComposite in2="hardAlpha" operator="out"/>
<feColorMatrix type="matrix" values="0 0 0 0 0.807843 0 0 0 0 0.717647 0 0 0 0 1 0 0 0 1 0"/>
<feBlend mode="normal" in2="BackgroundImageFix" result="effect1_dropShadow_21_3747"/>
<feBlend mode="normal" in="SourceGraphic" in2="effect1_dropShadow_21_3747" result="shape"/>
</filter>
<filter id="filter3_d_21_3747" x="0" y="0" width="310" height="24" filterUnits="userSpaceOnUse" color-interpolation-filters="sRGB">
<feFlood flood-opacity="0" result="BackgroundImageFix"/>
<feColorMatrix in="SourceAlpha" type="matrix" values="0 0 0 0 0 0 0 0 0 0 0 0 0 0 0 0 0 0 127 0" result="hardAlpha"/>
<feOffset/>
<feGaussianBlur stdDeviation="2"/>
<feComposite in2="hardAlpha" operator="out"/>
<feColorMatrix type="matrix" values="0 0 0 0 0.807843 0 0 0 0 0.717647 0 0 0 0 1 0 0 0 1 0"/>
<feBlend mode="normal" in2="BackgroundImageFix" result="effect1_dropShadow_21_3747"/>
<feBlend mode="normal" in="SourceGraphic" in2="effect1_dropShadow_21_3747" result="shape"/>
</filter>
<filter id="filter4_d_21_3747" x="0" y="0" width="310" height="24" filterUnits="userSpaceOnUse" color-interpolation-filters="sRGB">
<feFlood flood-opacity="0" result="BackgroundImageFix"/>
<feColorMatrix in="SourceAlpha" type="matrix" values="0 0 0 0 0 0 0 0 0 0 0 0 0 0 0 0 0 0 127 0" result="hardAlpha"/>
<feOffset/>
<feGaussianBlur stdDeviation="2"/>
<feComposite in2="hardAlpha" operator="out"/>
<feColorMatrix type="matrix" values="0 0 0 0 0.807843 0 0 0 0 0.717647 0 0 0 0 1 0 0 0 1 0"/>
<feBlend mode="normal" in2="BackgroundImageFix" result="effect1_dropShadow_21_3747"/>
<feBlend mode="normal" in="SourceGraphic" in2="effect1_dropShadow_21_3747" result="shape"/>
</filter>
<filter id="filter5_d_21_3747" x="0" y="108" width="310" height="24" filterUnits="userSpaceOnUse" color-interpolation-filters="sRGB">
<feFlood flood-opacity="0" result="BackgroundImageFix"/>
<feColorMatrix in="SourceAlpha" type="matrix" values="0 0 0 0 0 0 0 0 0 0 0 0 0 0 0 0 0 0 127 0" result="hardAlpha"/>
<feOffset/>
<feGaussianBlur stdDeviation="2"/>
<feComposite in2="hardAlpha" operator="out"/>
<feColorMatrix type="matrix" values="0 0 0 0 0.807843 0 0 0 0 0.717647 0 0 0 0 1 0 0 0 1 0"/>
<feBlend mode="normal" in2="BackgroundImageFix" result="effect1_dropShadow_21_3747"/>
<feBlend mode="normal" in="SourceGraphic" in2="effect1_dropShadow_21_3747" result="shape"/>
</filter>
<filter id="filter6_d_21_3747" x="0" y="108" width="310" height="24" filterUnits="userSpaceOnUse" color-interpolation-filters="sRGB">
<feFlood flood-opacity="0" result="BackgroundImageFix"/>
<feColorMatrix in="SourceAlpha" type="matrix" values="0 0 0 0 0 0 0 0 0 0 0 0 0 0 0 0 0 0 127 0" result="hardAlpha"/>
<feOffset/>
<feGaussianBlur stdDeviation="2"/>
<feComposite in2="hardAlpha" operator="out"/>
<feColorMatrix type="matrix" values="0 0 0 0 0.807843 0 0 0 0 0.717647 0 0 0 0 1 0 0 0 1 0"/>
<feBlend mode="normal" in2="BackgroundImageFix" result="effect1_dropShadow_21_3747"/>
<feBlend mode="normal" in="SourceGraphic" in2="effect1_dropShadow_21_3747" result="shape"/>
</filter>
<filter id="filter7_d_21_3747" x="0" y="108" width="310" height="24" filterUnits="userSpaceOnUse" color-interpolation-filters="sRGB">
<feFlood flood-opacity="0" result="BackgroundImageFix"/>
<feColorMatrix in="SourceAlpha" type="matrix" values="0 0 0 0 0 0 0 0 0 0 0 0 0 0 0 0 0 0 127 0" result="hardAlpha"/>
<feOffset/>
<feGaussianBlur stdDeviation="2"/>
<feComposite in2="hardAlpha" operator="out"/>
<feColorMatrix type="matrix" values="0 0 0 0 0.807843 0 0 0 0 0.717647 0 0 0 0 1 0 0 0 1 0"/>
<feBlend mode="normal" in2="BackgroundImageFix" result="effect1_dropShadow_21_3747"/>
<feBlend mode="normal" in="SourceGraphic" in2="effect1_dropShadow_21_3747" result="shape"/>
</filter>
</defs>
</svg>
