<svg width="629" height="132" viewBox="0 0 629 132" fill="none" xmlns="http://www.w3.org/2000/svg">
<g filter="url(#filter0_d_102_21)">
<path d="M6.84156 89.246L5.85599 89.0768L5.69504 90.0141L6.62309 90.2218L6.84156 89.246ZM8.81356 77.762L9.05194 76.7908L8.00963 76.535L7.82799 77.5928L8.81356 77.762ZM24.9376 79.27L24.967 80.2696L24.9808 80.2692L24.9946 80.2684L24.9376 79.27ZM28.5336 78.922L28.6801 79.9112L29.5336 79.7848V78.922H28.5336ZM28.5336 75.442H29.5336V74.5219L28.6166 74.4455L28.5336 75.442ZM22.2696 74.92L22.1741 75.9155L22.1865 75.9165L22.2696 74.92ZM15.1936 73.528L14.8658 74.4728L15.1936 73.528ZM10.6116 70.86L9.89257 71.555L9.90435 71.5672L9.91654 71.579L10.6116 70.86ZM8.17556 66.742L7.21404 67.0167L7.21799 67.0305L7.22233 67.0442L8.17556 66.742ZM8.40756 53.634L9.36172 53.9333L9.36334 53.9281L8.40756 53.634ZM11.3656 48.82L12.0286 49.5686L12.0345 49.5634L12.0403 49.558L11.3656 48.82ZM16.5856 46.21L16.3594 45.2359L16.3555 45.2368L16.5856 46.21ZM41.1776 47.196L42.1656 47.3504L42.309 46.4324L41.4041 46.222L41.1776 47.196ZM39.4376 58.332L39.2789 59.3193L40.2705 59.4787L40.4256 58.4864L39.4376 58.332ZM22.4436 57.636L22.3169 56.644L21.4436 56.7555V57.636H22.4436ZM22.4436 61.058H21.4436V61.9693L22.3509 62.0537L22.4436 61.058ZM27.4316 61.522L27.5323 60.5271L27.5242 60.5263L27.4316 61.522ZM35.0876 63.088L34.7501 64.0293L34.758 64.0322L34.766 64.0349L35.0876 63.088ZM40.0176 65.872L39.3336 66.6015L39.3392 66.6068L39.3449 66.6119L40.0176 65.872ZM42.6856 69.99L41.7323 70.2922L41.7357 70.3027L41.7392 70.3131L42.6856 69.99ZM42.3376 82.866L41.4042 82.507V82.507L42.3376 82.866ZM39.5536 87.448L40.2448 88.1706L40.2477 88.1678L39.5536 87.448ZM36.2476 89.478L36.5804 90.421L36.5926 90.4167L36.6047 90.4121L36.2476 89.478ZM32.0716 90.522L32.2275 91.5098L32.0716 90.522ZM27.6056 90.928L27.5799 89.9283L27.5665 89.9287L27.553 89.9294L27.6056 90.928ZM14.9036 90.58L15.014 89.5861L14.9036 90.58ZM7.82714 89.4152L9.79914 77.9312L7.82799 77.5928L5.85599 89.0768L7.82714 89.4152ZM8.57518 78.7332C12.8865 79.7914 16.8156 80.328 20.3556 80.328V78.328C17.0129 78.328 13.2473 77.8206 9.05194 76.7908L8.57518 78.7332ZM20.3556 80.328C22.1024 80.328 23.64 80.3086 24.967 80.2696L24.9082 78.2704C23.6058 78.3087 22.0887 78.328 20.3556 78.328V80.328ZM24.9946 80.2684C26.37 80.1898 27.5995 80.0713 28.6801 79.9112L28.387 77.9328C27.3796 78.082 26.2118 78.1956 24.8805 78.2716L24.9946 80.2684ZM29.5336 78.922V75.442H27.5336V78.922H29.5336ZM28.6166 74.4455L22.3526 73.9235L22.1865 75.9165L28.4505 76.4385L28.6166 74.4455ZM22.365 73.9246C19.5917 73.6586 17.317 73.2062 15.5213 72.5832L14.8658 74.4728C16.8594 75.1644 19.3021 75.64 22.1741 75.9154L22.365 73.9246ZM15.5213 72.5832C13.7315 71.9623 12.3398 71.1398 11.3066 70.141L9.91654 71.579C11.2033 72.8228 12.8663 73.779 14.8658 74.4728L15.5213 72.5832ZM11.3306 70.165C10.32 69.1195 9.58625 67.8825 9.12879 66.4398L7.22233 67.0442C7.7702 68.7721 8.6605 70.2805 9.89257 71.555L11.3306 70.165ZM9.13709 66.4673C8.70462 64.9536 8.47956 63.1552 8.47956 61.058H6.47956C6.47956 63.2915 6.71851 65.2824 7.21404 67.0167L9.13709 66.4673ZM8.47956 61.058C8.47956 58.1415 8.78359 55.7761 9.36171 53.9333L7.45342 53.3347C6.7942 55.4359 6.47956 58.0198 6.47956 61.058H8.47956ZM9.36334 53.9281C9.93698 52.0638 10.8339 50.6267 12.0286 49.5686L10.7025 48.0714C9.19056 49.4106 8.11548 51.1829 7.45178 53.3399L9.36334 53.9281ZM12.0403 49.558C13.2458 48.4559 14.823 47.6542 16.8156 47.1832L16.3555 45.2368C14.0948 45.7712 12.192 46.7094 10.6908 48.082L12.0403 49.558ZM16.8117 47.1841C18.8804 46.7039 21.4291 46.456 24.4736 46.456V44.456C21.3313 44.456 18.6214 44.7108 16.3594 45.2359L16.8117 47.1841ZM24.4736 46.456C30.56 46.456 36.0504 47.0303 40.951 48.17L41.4041 46.222C36.3288 45.0417 30.6831 44.456 24.4736 44.456V46.456ZM40.1896 47.0416L38.4496 58.1776L40.4256 58.4864L42.1656 47.3504L40.1896 47.0416ZM39.5962 57.3447C35.2437 56.6452 31.7233 56.288 29.0556 56.288V58.288C31.5691 58.288 34.9701 58.6268 39.2789 59.3193L39.5962 57.3447ZM29.0556 56.288C26.4384 56.288 24.1895 56.405 22.3169 56.644L22.5702 58.6279C24.3323 58.403 26.4914 58.288 29.0556 58.288V56.288ZM21.4436 57.636V61.058H23.4436V57.636H21.4436ZM22.3509 62.0537L27.3389 62.5177L27.5242 60.5263L22.5362 60.0623L22.3509 62.0537ZM27.3308 62.5169C30.3349 62.8211 32.8013 63.3307 34.7501 64.0293L35.425 62.1467C33.2752 61.376 30.6376 60.8415 27.5323 60.5271L27.3308 62.5169ZM34.766 64.0349C36.7163 64.6973 38.2247 65.5619 39.3336 66.6015L40.7015 65.1425C39.3357 63.8621 37.5575 62.8707 35.4091 62.1411L34.766 64.0349ZM39.3449 66.6119C40.4954 67.6579 41.285 68.8813 41.7323 70.2922L43.6388 69.6878C43.0808 67.928 42.0917 66.4061 40.6902 65.1321L39.3449 66.6119ZM41.7392 70.3131C42.2381 71.7742 42.4976 73.4789 42.4976 75.442H44.4976C44.4976 73.3064 44.2157 71.3765 43.6319 69.6669L41.7392 70.3131ZM42.4976 75.442C42.4976 78.2997 42.1206 80.6443 41.4042 82.507L43.2709 83.225C44.1012 81.0664 44.4976 78.4617 44.4976 75.442H42.4976ZM41.4042 82.507C40.6623 84.436 39.8017 85.8195 38.8594 86.7282L40.2477 88.1678C41.4708 86.9885 42.4662 85.3173 43.2709 83.225L41.4042 82.507ZM38.8623 86.7254C38.082 87.4717 37.0985 88.082 35.8904 88.5439L36.6047 90.4121C38.0259 89.8686 39.2464 89.1256 40.2448 88.1706L38.8623 86.7254ZM35.9147 88.535C34.6612 88.9774 33.3287 89.3111 31.9156 89.5342L32.2275 91.5098C33.7531 91.2689 35.2046 90.9066 36.5804 90.421L35.9147 88.535ZM31.9156 89.5342C30.49 89.7593 29.0449 89.8908 27.5799 89.9283L27.6312 91.9277C29.1822 91.8879 30.7145 91.7487 32.2275 91.5098L31.9156 89.5342ZM27.553 89.9294C26.0974 90.006 24.7813 90.044 23.6036 90.044V92.044C24.8232 92.044 26.175 92.0047 27.6581 91.9266L27.553 89.9294ZM23.6036 90.044C20.6217 90.044 17.7587 89.8911 15.014 89.5861L14.7931 91.5739C17.6165 91.8876 20.5535 92.044 23.6036 92.044V90.044ZM15.014 89.5861C12.2643 89.2806 9.61315 88.8418 7.06003 88.2702L6.62309 90.2218C9.25131 90.8102 11.9748 91.2607 14.7931 91.5739L15.014 89.5861ZM79.7118 46.5H80.7118V45.5H79.7118V46.5ZM79.7118 57.636V58.636H80.7118V57.636H79.7118ZM69.6198 57.636V56.636H68.6198V57.636H69.6198ZM69.6198 90V91H70.6198V90H69.6198ZM55.6998 90H54.6998V91H55.6998V90ZM55.6998 57.636H56.6998V56.636H55.6998V57.636ZM45.6078 57.636H44.6078V58.636H45.6078V57.636ZM45.6078 46.5V45.5H44.6078V46.5H45.6078ZM78.7118 46.5V57.636H80.7118V46.5H78.7118ZM79.7118 56.636H69.6198V58.636H79.7118V56.636ZM68.6198 57.636V90H70.6198V57.636H68.6198ZM69.6198 89H55.6998V91H69.6198V89ZM56.6998 90V57.636H54.6998V90H56.6998ZM55.6998 56.636H45.6078V58.636H55.6998V56.636ZM46.6078 57.636V46.5H44.6078V57.636H46.6078ZM45.6078 47.5H79.7118V45.5H45.6078V47.5ZM111.357 63.494H112.357V62.494H111.357V63.494ZM111.357 73.586V74.586H112.357V73.586H111.357ZM97.4371 73.586V72.586H96.4371V73.586H97.4371ZM97.4371 78.864H96.4371V79.864H97.4371V78.864ZM114.489 78.864H115.489V77.864H114.489V78.864ZM114.489 90V91H115.489V90H114.489ZM83.5171 90H82.5171V91H83.5171V90ZM83.5171 46.5V45.5H82.5171V46.5H83.5171ZM114.141 46.5L115.129 46.6544L115.309 45.5H114.141V46.5ZM112.401 57.636V58.636H113.257L113.389 57.7904L112.401 57.636ZM97.4371 57.636V56.636H96.4371V57.636H97.4371ZM97.4371 63.494H96.4371V64.494H97.4371V63.494ZM110.357 63.494V73.586H112.357V63.494H110.357ZM111.357 72.586H97.4371V74.586H111.357V72.586ZM96.4371 73.586V78.864H98.4371V73.586H96.4371ZM97.4371 79.864H114.489V77.864H97.4371V79.864ZM113.489 78.864V90H115.489V78.864H113.489ZM114.489 89H83.5171V91H114.489V89ZM84.5171 90V46.5H82.5171V90H84.5171ZM83.5171 47.5H114.141V45.5H83.5171V47.5ZM113.153 46.3456L111.413 57.4816L113.389 57.7904L115.129 46.6544L113.153 46.3456ZM112.401 56.636H97.4371V58.636H112.401V56.636ZM96.4371 57.636V63.494H98.4371V57.636H96.4371ZM97.4371 64.494H111.357V62.494H97.4371V64.494ZM148.23 78.864H149.23V77.864H148.23V78.864ZM148.23 90V91H149.23V90H148.23ZM120.39 90H119.39V91H120.39V90ZM120.39 46.5V45.5H119.39V46.5H120.39ZM134.31 46.5H135.31V45.5H134.31V46.5ZM134.31 78.864H133.31V79.864H134.31V78.864ZM147.23 78.864V90H149.23V78.864H147.23ZM148.23 89H120.39V91H148.23V89ZM121.39 90V46.5H119.39V90H121.39ZM120.39 47.5H134.31V45.5H120.39V47.5ZM133.31 46.5V78.864H135.31V46.5H133.31ZM134.31 79.864H148.23V77.864H134.31V79.864ZM179.892 78.864H180.892V77.864H179.892V78.864ZM179.892 90V91H180.892V90H179.892ZM152.052 90H151.052V91H152.052V90ZM152.052 46.5V45.5H151.052V46.5H152.052ZM165.972 46.5H166.972V45.5H165.972V46.5ZM165.972 78.864H164.972V79.864H165.972V78.864ZM178.892 78.864V90H180.892V78.864H178.892ZM179.892 89H152.052V91H179.892V89ZM153.052 90V46.5H151.052V90H153.052ZM152.052 47.5H165.972V45.5H152.052V47.5ZM164.972 46.5V78.864H166.972V46.5H164.972ZM165.972 79.864H179.892V77.864H165.972V79.864ZM195.662 83.098V82.098H194.864L194.687 82.8767L195.662 83.098ZM194.096 90V91H194.895L195.072 90.2213L194.096 90ZM179.422 90L178.454 89.7496L178.131 91H179.422V90ZM190.674 46.5V45.5H189.9L189.706 46.2496L190.674 46.5ZM212.192 46.5L213.161 46.2496L212.967 45.5H212.192V46.5ZM223.444 90V91H224.736L224.413 89.7496L223.444 90ZM208.77 90L207.797 90.229L207.978 91H208.77V90ZM207.146 83.098L208.12 82.869L207.938 82.098H207.146V83.098ZM201.81 59.84L202.785 59.6172L202.608 58.84H201.81V59.84ZM201.056 59.84V58.84H200.263L200.083 59.6128L201.056 59.84ZM198.214 72.02L197.241 71.7928L196.954 73.02H198.214V72.02ZM204.594 72.02V73.02H205.849L205.569 71.7972L204.594 72.02ZM194.687 82.8767L193.121 89.7787L195.072 90.2213L196.638 83.3193L194.687 82.8767ZM194.096 89H179.422V91H194.096V89ZM180.391 90.2504L191.643 46.7504L189.706 46.2496L178.454 89.7496L180.391 90.2504ZM190.674 47.5H212.192V45.5H190.674V47.5ZM211.224 46.7504L222.476 90.2504L224.413 89.7496L213.161 46.2496L211.224 46.7504ZM223.444 89H208.77V91H223.444V89ZM209.744 89.771L208.12 82.869L206.173 83.327L207.797 90.229L209.744 89.771ZM207.146 82.098H195.662V84.098H207.146V82.098ZM201.81 58.84H201.056V60.84H201.81V58.84ZM200.083 59.6128L197.241 71.7928L199.188 72.2472L202.03 60.0672L200.083 59.6128ZM198.214 73.02H204.594V71.02H198.214V73.02ZM205.569 71.7972L202.785 59.6172L200.836 60.0628L203.62 72.2428L205.569 71.7972ZM256.53 75.5L256.077 74.6088L255.178 75.0663L255.643 75.9614L256.53 75.5ZM264.07 90V91H265.717L264.957 89.5386L264.07 90ZM248.758 90L247.843 90.4023L248.105 91H248.758V90ZM243.074 77.066L243.99 76.6637L243.727 76.066H243.074V77.066ZM240.058 77.066V76.066H239.058V77.066H240.058ZM240.058 90V91H241.058V90H240.058ZM226.138 90H225.138V91H226.138V90ZM226.138 46.5V45.5H225.138V46.5H226.138ZM240.058 57.636V56.636H239.058V57.636H240.058ZM240.058 66.336H239.058V67.336H240.058V66.336ZM246.902 65.814L246.492 64.9021L246.483 64.9061L246.474 64.9103L246.902 65.814ZM246.902 58.158L246.474 59.0617L246.483 59.0659L246.492 59.0699L246.902 58.158ZM255.643 75.9614L263.183 90.4614L264.957 89.5386L257.417 75.0386L255.643 75.9614ZM264.07 89H248.758V91H264.07V89ZM249.674 89.5977L243.99 76.6637L242.159 77.4683L247.843 90.4023L249.674 89.5977ZM243.074 76.066H240.058V78.066H243.074V76.066ZM239.058 77.066V90H241.058V77.066H239.058ZM240.058 89H226.138V91H240.058V89ZM227.138 90V46.5H225.138V90H227.138ZM226.138 47.5H248.062V45.5H226.138V47.5ZM248.062 47.5C252.891 47.5 256.33 48.7293 258.571 51.0138C260.816 53.3018 262.026 56.8187 262.026 61.754H264.026C264.026 56.52 262.743 52.4098 259.999 49.6132C257.252 46.813 253.209 45.5 248.062 45.5V47.5ZM262.026 61.754C262.026 68.5222 259.934 72.6455 256.077 74.6088L256.984 76.3912C261.787 73.9465 264.026 68.9058 264.026 61.754H262.026ZM243.248 56.636H240.058V58.636H243.248V56.636ZM239.058 57.636V66.336H241.058V57.636H239.058ZM240.058 67.336H243.248V65.336H240.058V67.336ZM243.248 67.336C244.97 67.336 246.381 67.1673 247.33 66.7177L246.474 64.9103C245.954 65.1567 244.929 65.336 243.248 65.336V67.336ZM247.313 66.7259C248.602 66.1456 249.062 64.8589 249.062 63.436H247.062C247.062 64.4878 246.749 64.7864 246.492 64.9021L247.313 66.7259ZM249.062 63.436V60.536H247.062V63.436H249.062ZM249.062 60.536C249.062 59.1131 248.602 57.8264 247.313 57.2461L246.492 59.0699C246.749 59.1856 247.062 59.4842 247.062 60.536H249.062ZM247.33 57.2543C246.381 56.8047 244.97 56.636 243.248 56.636V58.636C244.929 58.636 245.954 58.8153 246.474 59.0617L247.33 57.2543ZM286.347 90H285.347V91H286.347V90ZM286.347 46.5V45.5H285.347V46.5H286.347ZM315.637 47.718L315.342 48.6736L315.355 48.6774L315.637 47.718ZM325.323 58.216L324.351 58.4489L324.354 58.4617L325.323 58.216ZM325.323 78.226L324.353 77.9835L324.351 77.9931L325.323 78.226ZM321.959 84.954L321.22 84.2805L321.959 84.954ZM315.637 88.782L315.342 87.8265L315.637 88.782ZM300.267 57.636V56.636H299.267V57.636H300.267ZM300.267 78.864H299.267V79.864H300.267V78.864ZM310.185 78.226L310.649 79.1118L310.657 79.1079L310.664 79.1039L310.185 78.226ZM310.185 58.332L309.689 59.2002L309.713 59.214L309.738 59.2264L310.185 58.332ZM305.835 89H286.347V91H305.835V89ZM287.347 90V46.5H285.347V90H287.347ZM286.347 47.5H305.835V45.5H286.347V47.5ZM305.835 47.5C309.679 47.5 312.839 47.9005 315.342 48.6735L315.932 46.7625C313.177 45.9115 309.802 45.5 305.835 45.5V47.5ZM315.355 48.6774C317.838 49.4077 319.777 50.5777 321.22 52.1615L322.698 50.8145C320.971 48.9183 318.695 47.575 315.919 46.7586L315.355 48.6774ZM321.22 52.1615C322.671 53.754 323.725 55.8351 324.351 58.4489L326.296 57.9831C325.607 55.1062 324.418 52.702 322.698 50.8145L321.22 52.1615ZM324.354 58.4617C325.023 61.1029 325.367 64.3407 325.367 68.192H327.367C327.367 64.2326 327.015 60.8197 326.293 57.9703L324.354 58.4617ZM325.367 68.192C325.367 72.0428 325.024 75.3014 324.353 77.9835L326.293 78.4685C327.015 75.5826 327.367 72.1519 327.367 68.192H325.367ZM324.351 77.9931C323.725 80.6069 322.671 82.688 321.22 84.2805L322.698 85.6275C324.418 83.74 325.607 81.3358 326.296 78.4589L324.351 77.9931ZM321.22 84.2805C319.774 85.8677 317.83 87.0582 315.342 87.8265L315.932 89.7375C318.703 88.8818 320.974 87.5203 322.698 85.6275L321.22 84.2805ZM315.342 87.8265C312.839 88.5995 309.679 89 305.835 89V91C309.802 91 313.177 90.5885 315.932 89.7375L315.342 87.8265ZM306.067 56.636H300.267V58.636H306.067V56.636ZM299.267 57.636V78.864H301.267V57.636H299.267ZM300.267 79.864H306.067V77.864H300.267V79.864ZM306.067 79.864C308.021 79.864 309.607 79.658 310.649 79.1118L309.721 77.3402C309.14 77.6447 307.98 77.864 306.067 77.864V79.864ZM310.664 79.1039C312.006 78.372 312.461 76.857 312.461 75.152H310.461C310.461 76.6176 310.066 77.152 309.706 77.3481L310.664 79.1039ZM312.461 75.152V61.348H310.461V75.152H312.461ZM312.461 61.348C312.461 59.653 312.009 58.1261 310.632 57.4376L309.738 59.2264C310.062 59.3886 310.461 59.8723 310.461 61.348H312.461ZM310.681 57.4638C309.627 56.8614 308.026 56.636 306.067 56.636V58.636C307.975 58.636 309.119 58.8746 309.689 59.2002L310.681 57.4638ZM345.183 90V91H346.183V90H345.183ZM331.263 90H330.263V91H331.263V90ZM331.263 46.5V45.5H330.263V46.5H331.263ZM345.183 46.5H346.183V45.5H345.183V46.5ZM345.183 89H331.263V91H345.183V89ZM332.263 90V46.5H330.263V90H332.263ZM331.263 47.5H345.183V45.5H331.263V47.5ZM344.183 46.5V90H346.183V46.5H344.183ZM382.556 75.5L382.102 74.6088L381.203 75.0663L381.668 75.9614L382.556 75.5ZM390.096 90V91H391.743L390.983 89.5386L390.096 90ZM374.784 90L373.868 90.4023L374.131 91H374.784V90ZM369.1 77.066L370.015 76.6637L369.752 76.066H369.1V77.066ZM366.084 77.066V76.066H365.084V77.066H366.084ZM366.084 90V91H367.084V90H366.084ZM352.164 90H351.164V91H352.164V90ZM352.164 46.5V45.5H351.164V46.5H352.164ZM366.084 57.636V56.636H365.084V57.636H366.084ZM366.084 66.336H365.084V67.336H366.084V66.336ZM372.928 65.814L372.517 64.9021L372.508 64.9061L372.5 64.9103L372.928 65.814ZM372.928 58.158L372.5 59.0617L372.508 59.0659L372.517 59.0699L372.928 58.158ZM381.668 75.9614L389.208 90.4614L390.983 89.5386L383.443 75.0386L381.668 75.9614ZM390.096 89H374.784V91H390.096V89ZM375.699 89.5977L370.015 76.6637L368.184 77.4683L373.868 90.4023L375.699 89.5977ZM369.1 76.066H366.084V78.066H369.1V76.066ZM365.084 77.066V90H367.084V77.066H365.084ZM366.084 89H352.164V91H366.084V89ZM353.164 90V46.5H351.164V90H353.164ZM352.164 47.5H374.088V45.5H352.164V47.5ZM374.088 47.5C378.917 47.5 382.356 48.7293 384.597 51.0138C386.841 53.3018 388.052 56.8187 388.052 61.754H390.052C390.052 56.52 388.768 52.4098 386.024 49.6132C383.278 46.813 379.235 45.5 374.088 45.5V47.5ZM388.052 61.754C388.052 68.5222 385.96 72.6455 382.102 74.6088L383.009 76.3912C387.813 73.9465 390.052 68.9058 390.052 61.754H388.052ZM369.274 56.636H366.084V58.636H369.274V56.636ZM365.084 57.636V66.336H367.084V57.636H365.084ZM366.084 67.336H369.274V65.336H366.084V67.336ZM369.274 67.336C370.996 67.336 372.407 67.1673 373.356 66.7177L372.5 64.9103C371.979 65.1567 370.954 65.336 369.274 65.336V67.336ZM373.338 66.7259C374.628 66.1456 375.088 64.8589 375.088 63.436H373.088C373.088 64.4878 372.774 64.7864 372.517 64.9021L373.338 66.7259ZM375.088 63.436V60.536H373.088V63.436H375.088ZM375.088 60.536C375.088 59.1131 374.628 57.8264 373.338 57.2461L372.517 59.0699C372.774 59.1856 373.088 59.4842 373.088 60.536H375.088ZM373.356 57.2543C372.407 56.8047 370.996 56.636 369.274 56.636V58.636C370.954 58.636 371.979 58.8153 372.5 59.0617L373.356 57.2543ZM422.824 63.494H423.824V62.494H422.824V63.494ZM422.824 73.586V74.586H423.824V73.586H422.824ZM408.904 73.586V72.586H407.904V73.586H408.904ZM408.904 78.864H407.904V79.864H408.904V78.864ZM425.956 78.864H426.956V77.864H425.956V78.864ZM425.956 90V91H426.956V90H425.956ZM394.984 90H393.984V91H394.984V90ZM394.984 46.5V45.5H393.984V46.5H394.984ZM425.608 46.5L426.596 46.6544L426.776 45.5H425.608V46.5ZM423.868 57.636V58.636H424.724L424.856 57.7904L423.868 57.636ZM408.904 57.636V56.636H407.904V57.636H408.904ZM408.904 63.494H407.904V64.494H408.904V63.494ZM421.824 63.494V73.586H423.824V63.494H421.824ZM422.824 72.586H408.904V74.586H422.824V72.586ZM407.904 73.586V78.864H409.904V73.586H407.904ZM408.904 79.864H425.956V77.864H408.904V79.864ZM424.956 78.864V90H426.956V78.864H424.956ZM425.956 89H394.984V91H425.956V89ZM395.984 90V46.5H393.984V90H395.984ZM394.984 47.5H425.608V45.5H394.984V47.5ZM424.62 46.3456L422.88 57.4816L424.856 57.7904L426.596 46.6544L424.62 46.3456ZM423.868 56.636H408.904V58.636H423.868V56.636ZM407.904 57.636V63.494H409.904V57.636H407.904ZM408.904 64.494H422.824V62.494H408.904V64.494ZM460.741 77.53L461.737 77.4412L461.622 76.1523L460.404 76.5885L460.741 77.53ZM461.785 89.246L462.158 90.1736L462.847 89.8965L462.781 89.1572L461.785 89.246ZM440.499 89.71L440.175 90.656L440.187 90.66L440.499 89.71ZM434.061 85.534L434.821 84.8845L434.061 85.534ZM430.697 78.458L429.719 78.6693L429.722 78.6819L430.697 78.458ZM430.639 58.39L429.661 58.1787L429.659 58.1887L430.639 58.39ZM433.887 51.256L434.662 51.8884L434.668 51.8807L433.887 51.256ZM440.151 46.906L439.81 45.9658L439.806 45.9674L440.151 46.906ZM453.201 45.63L453.094 46.6243L453.113 46.6263L453.132 46.6276L453.201 45.63ZM456.449 45.978L456.302 46.9672L456.308 46.9679L456.449 45.978ZM459.465 46.558L459.222 47.5281L459.246 47.5339L459.269 47.5386L459.465 46.558ZM461.785 47.254L462.766 47.446L462.917 46.6785L462.208 46.3478L461.785 47.254ZM459.697 57.926L459.489 58.9042L460.483 59.1154L460.678 58.118L459.697 57.926ZM444.733 78.632H443.733V79.438L444.521 79.6092L444.733 78.632ZM447.401 79.096L447.272 80.0876L447.295 80.0906L447.318 80.0925L447.401 79.096ZM459.745 77.6188L460.789 89.3348L462.781 89.1572L461.737 77.4412L459.745 77.6188ZM461.411 88.3184C458.587 89.4553 455.05 90.044 450.765 90.044V92.044C455.219 92.044 459.028 91.434 462.158 90.1736L461.411 88.3184ZM450.765 90.044C446.69 90.044 443.383 89.6049 440.811 88.76L440.187 90.66C443.029 91.5938 446.565 92.044 450.765 92.044V90.044ZM440.823 88.7641C438.256 87.884 436.272 86.5826 434.821 84.8845L433.301 86.1835C435.021 88.1974 437.328 89.68 440.175 90.6559L440.823 88.7641ZM434.821 84.8845C433.36 83.1735 432.3 80.97 431.672 78.2341L429.722 78.6819C430.409 81.6687 431.591 84.1825 433.301 86.1835L434.821 84.8845ZM431.674 78.2467C431.075 75.4734 430.769 72.1643 430.769 68.308H428.769C428.769 72.2624 429.082 75.7199 429.72 78.6693L431.674 78.2467ZM430.769 68.308C430.769 64.5665 431.056 61.3308 431.618 58.5913L429.659 58.1887C429.062 61.0945 428.769 64.4709 428.769 68.308H430.769ZM431.616 58.6013C432.208 55.8642 433.233 53.6388 434.662 51.8884L433.112 50.6236C431.448 52.6625 430.307 55.1931 429.662 58.1787L431.616 58.6013ZM434.668 51.8807C436.086 50.1078 438.015 48.7568 440.496 47.8446L439.806 45.9674C437.028 46.9886 434.781 48.5375 433.106 50.6313L434.668 51.8807ZM440.492 47.8462C443.014 46.9322 446.253 46.456 450.243 46.456V44.456C446.113 44.456 442.624 44.9465 439.81 45.9658L440.492 47.8462ZM450.243 46.456C451.09 46.456 452.04 46.5113 453.094 46.6243L453.307 44.6357C452.197 44.5167 451.175 44.456 450.243 44.456V46.456ZM453.132 46.6276C454.229 46.7033 455.286 46.8166 456.302 46.9672L456.595 44.9888C455.524 44.8301 454.415 44.7114 453.27 44.6324L453.132 46.6276ZM456.308 46.9679C457.361 47.1184 458.332 47.3056 459.222 47.5281L459.707 45.5879C458.742 45.3464 457.702 45.1469 456.59 44.988L456.308 46.9679ZM459.269 47.5386C460.194 47.7237 460.882 47.9362 461.362 48.1602L462.208 46.3478C461.528 46.0304 460.669 45.779 459.661 45.5774L459.269 47.5386ZM460.804 47.062L458.716 57.734L460.678 58.118L462.766 47.446L460.804 47.062ZM459.905 56.9478C456.762 56.28 453.926 55.94 451.403 55.94V57.94C453.752 57.94 456.445 58.2573 459.489 58.9042L459.905 56.9478ZM451.403 55.94C448.889 55.94 446.942 56.1626 445.75 56.7345L446.616 58.5375C447.358 58.1814 448.89 57.94 451.403 57.94V55.94ZM445.75 56.7345C444.329 57.4168 443.733 58.7799 443.733 60.42H445.733C445.733 59.2761 446.104 58.7832 446.616 58.5375L445.75 56.7345ZM443.733 60.42V78.632H445.733V60.42H443.733ZM444.521 79.6092C445.437 79.8084 446.354 79.9679 447.272 80.0876L447.53 78.1044C446.669 77.9921 445.808 77.8423 444.945 77.6548L444.521 79.6092ZM447.318 80.0925C448.275 80.1723 449.25 80.212 450.243 80.212V78.212C449.303 78.212 448.383 78.1744 447.484 78.0995L447.318 80.0925ZM450.243 80.212C454.206 80.212 457.822 79.6373 461.078 78.4715L460.404 76.5885C457.396 77.6654 454.013 78.212 450.243 78.212V80.212ZM497.606 46.5H498.606V45.5H497.606V46.5ZM497.606 57.636V58.636H498.606V57.636H497.606ZM487.514 57.636V56.636H486.514V57.636H487.514ZM487.514 90V91H488.514V90H487.514ZM473.594 90H472.594V91H473.594V90ZM473.594 57.636H474.594V56.636H473.594V57.636ZM463.502 57.636H462.502V58.636H463.502V57.636ZM463.502 46.5V45.5H462.502V46.5H463.502ZM496.606 46.5V57.636H498.606V46.5H496.606ZM497.606 56.636H487.514V58.636H497.606V56.636ZM486.514 57.636V90H488.514V57.636H486.514ZM487.514 89H473.594V91H487.514V89ZM474.594 90V57.636H472.594V90H474.594ZM473.594 56.636H463.502V58.636H473.594V56.636ZM464.502 57.636V46.5H462.502V57.636H464.502ZM463.502 47.5H497.606V45.5H463.502V47.5ZM500.31 58.042L499.337 57.8086L499.335 57.8181L500.31 58.042ZM503.732 50.908L502.979 50.2494L502.971 50.2585L503.732 50.908ZM510.112 46.79L509.791 45.8427L510.112 46.79ZM529.6 46.79L529.275 47.7358L529.279 47.7373L529.6 46.79ZM535.922 50.908L535.161 51.5575L535.169 51.5665L535.922 50.908ZM539.344 58.042L538.368 58.2631L538.37 58.2707L538.372 58.2784L539.344 58.042ZM539.46 78.284L540.436 78.4981L540.437 78.4953L539.46 78.284ZM536.154 85.36L535.387 84.7182L535.379 84.7276L536.154 85.36ZM529.832 89.652L530.164 90.595L530.172 90.5922L529.832 89.652ZM509.822 89.652L509.477 90.5906L509.485 90.5936L509.493 90.5965L509.822 89.652ZM503.5 85.36L502.725 85.9924L502.733 86.0017L503.5 85.36ZM500.252 78.284L499.274 78.4953L499.275 78.4981L500.252 78.284ZM514.288 79.154H513.288V80.154H514.288V79.154ZM524.206 78.516L524.67 79.4018L524.677 79.3979L524.685 79.3939L524.206 78.516ZM525.482 57.346H526.482V56.346H525.482V57.346ZM515.564 58.042L516.011 58.9364L516.027 58.9284L516.042 58.9199L515.564 58.042ZM500.324 68.308C500.324 64.3759 500.649 61.0331 501.284 58.2659L499.335 57.8181C498.656 60.7736 498.324 64.2747 498.324 68.308H500.324ZM501.282 58.2754C501.949 55.4953 503.029 53.2697 504.492 51.5575L502.971 50.2585C501.263 52.2583 500.062 54.7887 499.337 57.8086L501.282 58.2754ZM504.484 51.5665C505.978 49.8592 507.948 48.5774 510.432 47.7373L509.791 45.8427C507.016 46.7813 504.733 48.2448 502.979 50.2495L504.484 51.5665ZM510.432 47.7373C512.926 46.8936 516.058 46.456 519.856 46.456V44.456C515.92 44.456 512.556 44.9077 509.791 45.8427L510.432 47.7373ZM519.856 46.456C523.694 46.456 526.823 46.8941 529.275 47.7358L529.924 45.8442C527.195 44.9073 523.828 44.456 519.856 44.456V46.456ZM529.279 47.7373C531.762 48.5769 533.708 49.8566 535.161 51.5575L536.682 50.2585C534.964 48.2474 532.696 46.7817 529.92 45.8427L529.279 47.7373ZM535.169 51.5665C536.663 53.2742 537.74 55.492 538.368 58.2631L540.319 57.8209C539.632 54.792 538.428 52.2538 536.674 50.2495L535.169 51.5665ZM538.372 58.2784C539.044 61.0406 539.388 64.379 539.388 68.308H541.388C541.388 64.2716 541.035 60.766 540.315 57.8056L538.372 58.2784ZM539.388 68.308C539.388 72.0459 539.082 75.2976 538.482 78.0727L540.437 78.4953C541.074 75.5477 541.388 72.1488 541.388 68.308H539.388ZM538.483 78.0699C537.893 80.7619 536.852 82.9666 535.387 84.7183L536.921 86.0017C538.626 83.9641 539.789 81.4514 540.436 78.4981L538.483 78.0699ZM535.379 84.7276C533.964 86.4613 532.017 87.7967 529.491 88.7118L530.172 90.5922C532.982 89.574 535.25 88.0481 536.928 85.9924L535.379 84.7276ZM529.499 88.709C527.012 89.5866 523.809 90.044 519.856 90.044V92.044C523.945 92.044 527.392 91.5734 530.164 90.595L529.499 88.709ZM519.856 90.044C515.903 90.044 512.678 89.5868 510.15 88.7075L509.493 90.5965C512.301 91.5732 515.766 92.044 519.856 92.044V90.044ZM510.167 88.7134C507.679 87.7989 505.725 86.4616 504.267 84.7183L502.733 86.0017C504.445 88.0477 506.705 89.5718 509.477 90.5906L510.167 88.7134ZM504.274 84.7276C502.843 82.9748 501.82 80.7669 501.228 78.0699L499.275 78.4981C499.921 81.4464 501.063 83.9559 502.725 85.9924L504.274 84.7276ZM501.229 78.0727C500.629 75.2976 500.324 72.0459 500.324 68.308H498.324C498.324 72.1488 498.637 75.5477 499.274 78.4953L501.229 78.0727ZM513.288 61.058V79.154H515.288V61.058H513.288ZM514.288 80.154H520.088V78.154H514.288V80.154ZM520.088 80.154C522.041 80.154 523.627 79.9479 524.67 79.4018L523.742 77.6302C523.16 77.9347 522.001 78.154 520.088 78.154V80.154ZM524.685 79.3939C526.026 78.662 526.482 77.147 526.482 75.442H524.482C524.482 76.9076 524.086 77.442 523.727 77.6381L524.685 79.3939ZM526.482 75.442V57.346H524.482V75.442H526.482ZM525.482 56.346H519.624V58.346H525.482V56.346ZM519.624 56.346C517.727 56.346 516.164 56.5756 515.085 57.1641L516.042 58.9199C516.665 58.5804 517.808 58.346 519.624 58.346V56.346ZM515.116 57.1476C513.739 57.8361 513.288 59.363 513.288 61.058H515.288C515.288 59.5823 515.686 59.0986 516.011 58.9364L515.116 57.1476ZM575.643 75.5L575.19 74.6088L574.291 75.0663L574.756 75.9614L575.643 75.5ZM583.183 90V91H584.831L584.071 89.5386L583.183 90ZM567.871 90L566.956 90.4023L567.219 91H567.871V90ZM562.188 77.066L563.103 76.6637L562.84 76.066H562.188V77.066ZM559.172 77.066V76.066H558.172V77.066H559.172ZM559.172 90V91H560.172V90H559.172ZM545.251 90H544.251V91H545.251V90ZM545.251 46.5V45.5H544.251V46.5H545.251ZM559.172 57.636V56.636H558.172V57.636H559.172ZM559.172 66.336H558.172V67.336H559.172V66.336ZM566.016 65.814L565.605 64.9021L565.596 64.9061L565.587 64.9103L566.016 65.814ZM566.016 58.158L565.587 59.0617L565.596 59.0659L565.605 59.0699L566.016 58.158ZM574.756 75.9614L582.296 90.4614L584.071 89.5386L576.531 75.0386L574.756 75.9614ZM583.183 89H567.871V91H583.183V89ZM568.787 89.5977L563.103 76.6637L561.272 77.4683L566.956 90.4023L568.787 89.5977ZM562.188 76.066H559.172V78.066H562.188V76.066ZM558.172 77.066V90H560.172V77.066H558.172ZM559.172 89H545.251V91H559.172V89ZM546.251 90V46.5H544.251V90H546.251ZM545.251 47.5H567.175V45.5H545.251V47.5ZM567.175 47.5C572.004 47.5 575.444 48.7293 577.685 51.0138C579.929 53.3018 581.139 56.8187 581.139 61.754H583.139C583.139 56.52 581.856 52.4098 579.112 49.6132C576.365 46.813 572.323 45.5 567.175 45.5V47.5ZM581.139 61.754C581.139 68.5222 579.048 72.6455 575.19 74.6088L576.097 76.3912C580.901 73.9465 583.139 68.9058 583.139 61.754H581.139ZM562.362 56.636H559.172V58.636H562.362V56.636ZM558.172 57.636V66.336H560.172V57.636H558.172ZM559.172 67.336H562.362V65.336H559.172V67.336ZM562.362 67.336C564.084 67.336 565.495 67.1673 566.444 66.7177L565.587 64.9103C565.067 65.1567 564.042 65.336 562.362 65.336V67.336ZM566.426 66.7259C567.715 66.1456 568.175 64.8589 568.175 63.436H566.175C566.175 64.4878 565.862 64.7864 565.605 64.9021L566.426 66.7259ZM568.175 63.436V60.536H566.175V63.436H568.175ZM568.175 60.536C568.175 59.1131 567.715 57.8264 566.426 57.2461L565.605 59.0699C565.862 59.1856 566.175 59.4842 566.175 60.536H568.175ZM566.444 57.2543C565.495 56.8047 564.084 56.636 562.362 56.636V58.636C564.042 58.636 565.067 58.8153 565.587 59.0617L566.444 57.2543ZM584.592 46.5V45.5H583.121L583.662 46.8679L584.592 46.5ZM599.962 46.5L600.932 46.2575L600.743 45.5H599.962V46.5ZM603.79 61.812L602.82 62.0545L603.009 62.812H603.79V61.812ZM604.312 61.812V62.812H605.09L605.281 62.058L604.312 61.812ZM608.198 46.5V45.5H607.42L607.229 46.254L608.198 46.5ZM623.568 46.5L624.498 46.8679L625.039 45.5H623.568V46.5ZM611.04 78.168L610.11 77.8001L610.04 77.9774V78.168H611.04ZM611.04 90V91H612.04V90H611.04ZM597.12 90H596.12V91H597.12V90ZM597.12 78.168H598.12V77.9774L598.05 77.8001L597.12 78.168ZM584.592 47.5H599.962V45.5H584.592V47.5ZM598.992 46.7425L602.82 62.0545L604.76 61.5695L600.932 46.2575L598.992 46.7425ZM603.79 62.812H604.312V60.812H603.79V62.812ZM605.281 62.058L609.167 46.746L607.229 46.254L603.343 61.566L605.281 62.058ZM608.198 47.5H623.568V45.5H608.198V47.5ZM622.638 46.1321L610.11 77.8001L611.97 78.5359L624.498 46.8679L622.638 46.1321ZM610.04 78.168V90H612.04V78.168H610.04ZM611.04 89H597.12V91H611.04V89ZM598.12 90V78.168H596.12V90H598.12ZM598.05 77.8001L585.522 46.1321L583.662 46.8679L596.19 78.5359L598.05 77.8001Z" fill="#CEB7FF"/>
</g>
<g filter="url(#filter1_d_102_21)">
<path d="M4.5 4.5H543.5V19.5H4.5V4.5Z" stroke="#CEB7FF" shape-rendering="crispEdges"/>
</g>
<g filter="url(#filter2_d_102_21)">
<path d="M4.5 112.5H543.5V127.5H4.5V112.5Z" stroke="#CEB7FF" shape-rendering="crispEdges"/>
</g>
<defs>
<filter id="filter0_d_102_21" x="1.84155" y="40.4561" width="626.726" height="55.5879" filterUnits="userSpaceOnUse" color-interpolation-filters="sRGB">
<feFlood flood-opacity="0" result="BackgroundImageFix"/>
<feColorMatrix in="SourceAlpha" type="matrix" values="0 0 0 0 0 0 0 0 0 0 0 0 0 0 0 0 0 0 127 0" result="hardAlpha"/>
<feOffset/>
<feGaussianBlur stdDeviation="2.5"/>
<feComposite in2="hardAlpha" operator="out"/>
<feColorMatrix type="matrix" values="0 0 0 0 0.701961 0 0 0 0 0.466667 0 0 0 0 1 0 0 0 1 0"/>
<feBlend mode="normal" in2="BackgroundImageFix" result="effect1_dropShadow_102_21"/>
<feBlend mode="normal" in="SourceGraphic" in2="effect1_dropShadow_102_21" result="shape"/>
</filter>
<filter id="filter1_d_102_21" x="0" y="0" width="548" height="24" filterUnits="userSpaceOnUse" color-interpolation-filters="sRGB">
<feFlood flood-opacity="0" result="BackgroundImageFix"/>
<feColorMatrix in="SourceAlpha" type="matrix" values="0 0 0 0 0 0 0 0 0 0 0 0 0 0 0 0 0 0 127 0" result="hardAlpha"/>
<feOffset/>
<feGaussianBlur stdDeviation="2"/>
<feComposite in2="hardAlpha" operator="out"/>
<feColorMatrix type="matrix" values="0 0 0 0 0.807843 0 0 0 0 0.717647 0 0 0 0 1 0 0 0 1 0"/>
<feBlend mode="normal" in2="BackgroundImageFix" result="effect1_dropShadow_102_21"/>
<feBlend mode="normal" in="SourceGraphic" in2="effect1_dropShadow_102_21" result="shape"/>
</filter>
<filter id="filter2_d_102_21" x="0" y="108" width="548" height="24" filterUnits="userSpaceOnUse" color-interpolation-filters="sRGB">
<feFlood flood-opacity="0" result="BackgroundImageFix"/>
<feColorMatrix in="SourceAlpha" type="matrix" values="0 0 0 0 0 0 0 0 0 0 0 0 0 0 0 0 0 0 127 0" result="hardAlpha"/>
<feOffset/>
<feGaussianBlur stdDeviation="2"/>
<feComposite in2="hardAlpha" operator="out"/>
<feColorMatrix type="matrix" values="0 0 0 0 0.807843 0 0 0 0 0.717647 0 0 0 0 1 0 0 0 1 0"/>
<feBlend mode="normal" in2="BackgroundImageFix" result="effect1_dropShadow_102_21"/>
<feBlend mode="normal" in="SourceGraphic" in2="effect1_dropShadow_102_21" result="shape"/>
</filter>
</defs>
</svg>
