<svg width="418" height="132" viewBox="0 0 418 132" fill="none" xmlns="http://www.w3.org/2000/svg">
<g filter="url(#filter0_d_21_3746)">
<path d="M59.5 4.5H360.5V19.5H59.5V4.5Z" stroke="#CEB7FF" shape-rendering="crispEdges"/>
</g>
<g filter="url(#filter1_d_21_3746)">
<path d="M59.5 4.5H360.5V19.5H59.5V4.5Z" stroke="#CEB7FF" shape-rendering="crispEdges"/>
</g>
<g filter="url(#filter2_d_21_3746)">
<path d="M59.5 112.5H360.5V127.5H59.5V112.5Z" stroke="#CEB7FF" shape-rendering="crispEdges"/>
</g>
<g filter="url(#filter3_d_21_3746)">
<path d="M59.5 112.5H360.5V127.5H59.5V112.5Z" stroke="#CEB7FF" shape-rendering="crispEdges"/>
</g>
<g filter="url(#filter4_d_21_3746)">
<path d="M21.428 79.098V78.098H20.6295L20.4528 78.8767L21.428 79.098ZM19.862 86V87H20.6605L20.8372 86.2213L19.862 86ZM5.188 86L4.21986 85.7496L3.89642 87H5.188V86ZM16.44 42.5V41.5H15.6658L15.4719 42.2496L16.44 42.5ZM37.958 42.5L38.9261 42.2496L38.7322 41.5H37.958V42.5ZM49.21 86V87H50.5016L50.1781 85.7496L49.21 86ZM34.536 86L33.5626 86.229L33.744 87H34.536V86ZM32.912 79.098L33.8854 78.869L33.704 78.098H32.912V79.098ZM27.576 55.84L28.5509 55.6172L28.3732 54.84H27.576V55.84ZM26.822 55.84V54.84H26.0285L25.8482 55.6128L26.822 55.84ZM23.98 68.02L23.0062 67.7928L22.7198 69.02H23.98V68.02ZM30.36 68.02V69.02H31.6144L31.3349 67.7972L30.36 68.02ZM20.4528 78.8767L18.8868 85.7787L20.8372 86.2213L22.4032 79.3193L20.4528 78.8767ZM19.862 85H5.188V87H19.862V85ZM6.15614 86.2504L17.4081 42.7504L15.4719 42.2496L4.21986 85.7496L6.15614 86.2504ZM16.44 43.5H37.958V41.5H16.44V43.5ZM36.9899 42.7504L48.2419 86.2504L50.1781 85.7496L38.9261 42.2496L36.9899 42.7504ZM49.21 85H34.536V87H49.21V85ZM35.5094 85.771L33.8854 78.869L31.9386 79.327L33.5626 86.229L35.5094 85.771ZM32.912 78.098H21.428V80.098H32.912V78.098ZM27.576 54.84H26.822V56.84H27.576V54.84ZM25.8482 55.6128L23.0062 67.7928L24.9538 68.2472L27.7958 56.0672L25.8482 55.6128ZM23.98 69.02H30.36V67.02H23.98V69.02ZM31.3349 67.7972L28.5509 55.6172L26.6011 56.0628L29.3851 68.2428L31.3349 67.7972ZM51.9038 86H50.9038V87H51.9038V86ZM51.9038 42.5V41.5H50.9038V42.5H51.9038ZM81.1938 43.718L80.8987 44.6736L80.9117 44.6774L81.1938 43.718ZM90.8798 54.216L89.9072 54.4489L89.9105 54.4617L90.8798 54.216ZM90.8798 74.226L89.9096 73.9835L89.9073 73.9931L90.8798 74.226ZM87.5158 80.954L86.7766 80.2805L86.7766 80.2805L87.5158 80.954ZM81.1938 84.782L80.8988 83.8265L80.8988 83.8265L81.1938 84.782ZM65.8238 53.636V52.636H64.8238V53.636H65.8238ZM65.8238 74.864H64.8238V75.864H65.8238V74.864ZM75.7418 74.226L76.2058 75.1118L76.2133 75.1079L76.2207 75.1039L75.7418 74.226ZM75.7418 54.332L75.2457 55.2002L75.2698 55.214L75.2946 55.2264L75.7418 54.332ZM71.3918 85H51.9038V87H71.3918V85ZM52.9038 86V42.5H50.9038V86H52.9038ZM51.9038 43.5H71.3918V41.5H51.9038V43.5ZM71.3918 43.5C75.2354 43.5 78.3958 43.9005 80.8988 44.6735L81.4889 42.7625C78.7332 41.9115 75.3589 41.5 71.3918 41.5V43.5ZM80.9117 44.6774C83.3946 45.4077 85.3337 46.5777 86.7766 48.1615L88.255 46.8145C86.5273 44.9183 84.2517 43.575 81.476 42.7586L80.9117 44.6774ZM86.7766 48.1615C88.2276 49.754 89.2815 51.8351 89.9073 54.4489L91.8523 53.9831C91.1635 51.1062 89.9747 48.702 88.255 46.8145L86.7766 48.1615ZM89.9105 54.4617C90.5801 57.1029 90.9238 60.3407 90.9238 64.192H92.9238C92.9238 60.2326 92.5716 56.8197 91.8492 53.9703L89.9105 54.4617ZM90.9238 64.192C90.9238 68.0428 90.5802 71.3014 89.9097 73.9835L91.85 74.4685C92.5715 71.5826 92.9238 68.1519 92.9238 64.192H90.9238ZM89.9073 73.9931C89.2815 76.6069 88.2276 78.688 86.7766 80.2805L88.255 81.6275C89.9747 79.74 91.1635 77.3358 91.8523 74.4589L89.9073 73.9931ZM86.7766 80.2805C85.3305 81.8677 83.3867 83.0582 80.8988 83.8265L81.4889 85.7375C84.2596 84.8818 86.5305 83.5203 88.255 81.6275L86.7766 80.2805ZM80.8988 83.8265C78.3958 84.5995 75.2354 85 71.3918 85V87C75.3589 87 78.7332 86.5885 81.4889 85.7375L80.8988 83.8265ZM71.6238 52.636H65.8238V54.636H71.6238V52.636ZM64.8238 53.636V74.864H66.8238V53.636H64.8238ZM65.8238 75.864H71.6238V73.864H65.8238V75.864ZM71.6238 75.864C73.5774 75.864 75.1632 75.6579 76.2058 75.1118L75.2778 73.3402C74.6964 73.6447 73.537 73.864 71.6238 73.864V75.864ZM76.2207 75.1039C77.5625 74.372 78.0178 72.857 78.0178 71.152H76.0178C76.0178 72.6176 75.6225 73.152 75.263 73.3481L76.2207 75.1039ZM78.0178 71.152V57.348H76.0178V71.152H78.0178ZM78.0178 57.348C78.0178 55.653 77.566 54.1261 76.189 53.4376L75.2946 55.2264C75.619 55.3886 76.0178 55.8723 76.0178 57.348H78.0178ZM76.238 53.4638C75.1838 52.8614 73.5822 52.636 71.6238 52.636V54.636C73.5321 54.636 74.6759 54.8746 75.2457 55.2002L76.238 53.4638ZM110.45 64.888V63.888H109.488L109.451 64.8496L110.45 64.888ZM109.638 86V87H110.6L110.637 86.0384L109.638 86ZM95.0798 86L94.0817 85.9388L94.0166 87H95.0798V86ZM97.7478 42.5V41.5H96.8073L96.7497 42.4388L97.7478 42.5ZM115.902 42.5L116.873 42.2635L116.688 41.5H115.902V42.5ZM121.296 64.656L120.324 64.8925L120.51 65.656H121.296V64.656ZM121.818 64.656V65.656H122.604L122.789 64.8925L121.818 64.656ZM127.212 42.5V41.5H126.426L126.24 42.2635L127.212 42.5ZM145.424 42.5L146.422 42.4401L146.366 41.5H145.424V42.5ZM148.034 86V87H149.096L149.032 85.9401L148.034 86ZM133.476 86L132.477 86.0384L132.514 87H133.476V86ZM132.664 64.888L133.663 64.8496L133.626 63.888H132.664V64.888ZM132.2 64.888V63.888H131.421L131.23 64.643L132.2 64.888ZM126.864 86V87H127.643L127.833 86.245L126.864 86ZM116.25 86L115.281 86.2475L115.473 87H116.25V86ZM110.856 64.888L111.825 64.6405L111.632 63.888H110.856V64.888ZM109.451 64.8496L108.639 85.9616L110.637 86.0384L111.449 64.9264L109.451 64.8496ZM109.638 85H95.0798V87H109.638V85ZM96.078 86.0612L98.746 42.5612L96.7497 42.4388L94.0817 85.9388L96.078 86.0612ZM97.7478 43.5H115.902V41.5H97.7478V43.5ZM114.93 42.7365L120.324 64.8925L122.267 64.4195L116.873 42.2635L114.93 42.7365ZM121.296 65.656H121.818V63.656H121.296V65.656ZM122.789 64.8925L128.183 42.7365L126.24 42.2635L120.846 64.4195L122.789 64.8925ZM127.212 43.5H145.424V41.5H127.212V43.5ZM144.426 42.5599L147.036 86.0599L149.032 85.9401L146.422 42.4401L144.426 42.5599ZM148.034 85H133.476V87H148.034V85ZM134.475 85.9616L133.663 64.8496L131.665 64.9264L132.477 86.0384L134.475 85.9616ZM132.664 63.888H132.2V65.888H132.664V63.888ZM131.23 64.643L125.894 85.755L127.833 86.245L133.169 65.133L131.23 64.643ZM126.864 85H116.25V87H126.864V85ZM117.219 85.7525L111.825 64.6405L109.887 65.1355L115.281 86.2475L117.219 85.7525ZM110.856 63.888H110.45V65.888H110.856V63.888ZM167.154 86V87H168.154V86H167.154ZM153.234 86H152.234V87H153.234V86ZM153.234 42.5V41.5H152.234V42.5H153.234ZM167.154 42.5H168.154V41.5H167.154V42.5ZM167.154 85H153.234V87H167.154V85ZM154.234 86V42.5H152.234V86H154.234ZM153.234 43.5H167.154V41.5H153.234V43.5ZM166.154 42.5V86H168.154V42.5H166.154ZM212.762 86V87H213.762V86H212.762ZM199.654 86L198.83 86.5668L199.128 87H199.654V86ZM189.04 70.572L189.864 70.0052L189.859 69.9979L189.854 69.9908L189.04 70.572ZM188.576 69.354L187.598 69.5635L187.598 69.5635L188.576 69.354ZM188.344 67.208L189.343 67.1646L189.302 66.208H188.344V67.208ZM188.054 67.208V66.208H187.054V67.208H188.054ZM188.054 86V87H189.054V86H188.054ZM174.134 86H173.134V87H174.134V86ZM174.134 42.5V41.5H173.134V42.5H174.134ZM187.242 42.5L188.066 41.9332L187.768 41.5H187.242V42.5ZM197.856 57.928L197.032 58.4948L197.037 58.5021L197.043 58.5092L197.856 57.928ZM198.552 61.292L197.553 61.3354L197.595 62.292H198.552V61.292ZM198.842 61.292V62.292H199.842V61.292H198.842ZM198.842 42.5V41.5H197.842V42.5H198.842ZM212.762 42.5H213.762V41.5H212.762V42.5ZM212.762 85H199.654V87H212.762V85ZM200.478 85.4332L189.864 70.0052L188.216 71.1388L198.83 86.5668L200.478 85.4332ZM189.854 69.9908C189.776 69.8816 189.658 69.6293 189.554 69.1445L187.598 69.5635C187.727 70.1613 187.918 70.7211 188.227 71.1532L189.854 69.9908ZM189.554 69.1445C189.455 68.6804 189.381 68.0273 189.343 67.1646L187.345 67.2514C187.385 68.1674 187.466 68.9449 187.598 69.5635L189.554 69.1445ZM188.344 66.208H188.054V68.208H188.344V66.208ZM187.054 67.208V86H189.054V67.208H187.054ZM188.054 85H174.134V87H188.054V85ZM175.134 86V42.5H173.134V86H175.134ZM174.134 43.5H187.242V41.5H174.134V43.5ZM186.418 43.0668L197.032 58.4948L198.68 57.3612L188.066 41.9332L186.418 43.0668ZM197.043 58.5092C197.121 58.6184 197.239 58.8706 197.342 59.3555L199.298 58.9365C199.17 58.3387 198.979 57.7789 198.67 57.3468L197.043 58.5092ZM197.342 59.3555C197.442 59.8196 197.516 60.4727 197.553 61.3354L199.551 61.2486C199.512 60.3326 199.431 59.5551 199.298 58.9365L197.342 59.3555ZM198.552 62.292H198.842V60.292H198.552V62.292ZM199.842 61.292V42.5H197.842V61.292H199.842ZM198.842 43.5H212.762V41.5H198.842V43.5ZM211.762 42.5V86H213.762V42.5H211.762ZM250.749 64.888V63.888H249.786L249.749 64.8496L250.749 64.888ZM249.937 86V87H250.899L250.936 86.0384L249.937 86ZM235.379 86L234.381 85.9388L234.315 87H235.379V86ZM238.047 42.5V41.5H237.106L237.049 42.4388L238.047 42.5ZM256.201 42.5L257.172 42.2635L256.986 41.5H256.201V42.5ZM261.595 64.656L260.623 64.8925L260.809 65.656H261.595V64.656ZM262.117 64.656V65.656H262.902L263.088 64.8925L262.117 64.656ZM267.511 42.5V41.5H266.725L266.539 42.2635L267.511 42.5ZM285.723 42.5L286.721 42.4401L286.664 41.5H285.723V42.5ZM288.333 86V87H289.394L289.331 85.9401L288.333 86ZM273.775 86L272.775 86.0384L272.812 87H273.775V86ZM272.963 64.888L273.962 64.8496L273.925 63.888H272.963V64.888ZM272.499 64.888V63.888H271.72L271.529 64.643L272.499 64.888ZM267.163 86V87H267.941L268.132 86.245L267.163 86ZM256.549 86L255.58 86.2475L255.772 87H256.549V86ZM251.155 64.888L252.124 64.6405L251.931 63.888H251.155V64.888ZM249.749 64.8496L248.937 85.9616L250.936 86.0384L251.748 64.9264L249.749 64.8496ZM249.937 85H235.379V87H249.937V85ZM236.377 86.0612L239.045 42.5612L237.049 42.4388L234.381 85.9388L236.377 86.0612ZM238.047 43.5H256.201V41.5H238.047V43.5ZM255.229 42.7365L260.623 64.8925L262.566 64.4195L257.172 42.2635L255.229 42.7365ZM261.595 65.656H262.117V63.656H261.595V65.656ZM263.088 64.8925L268.482 42.7365L266.539 42.2635L261.145 64.4195L263.088 64.8925ZM267.511 43.5H285.723V41.5H267.511V43.5ZM284.724 42.5599L287.334 86.0599L289.331 85.9401L286.721 42.4401L284.724 42.5599ZM288.333 85H273.775V87H288.333V85ZM274.774 85.9616L273.962 64.8496L271.963 64.9264L272.775 86.0384L274.774 85.9616ZM272.963 63.888H272.499V65.888H272.963V63.888ZM271.529 64.643L266.193 85.755L268.132 86.245L273.468 65.133L271.529 64.643ZM267.163 85H256.549V87H267.163V85ZM257.518 85.7525L252.124 64.6405L250.186 65.1355L255.58 86.2475L257.518 85.7525ZM251.155 63.888H250.749V65.888H251.155V63.888ZM321.373 59.494H322.373V58.494H321.373V59.494ZM321.373 69.586V70.586H322.373V69.586H321.373ZM307.453 69.586V68.586H306.453V69.586H307.453ZM307.453 74.864H306.453V75.864H307.453V74.864ZM324.505 74.864H325.505V73.864H324.505V74.864ZM324.505 86V87H325.505V86H324.505ZM293.533 86H292.533V87H293.533V86ZM293.533 42.5V41.5H292.533V42.5H293.533ZM324.157 42.5L325.145 42.6544L325.325 41.5H324.157V42.5ZM322.417 53.636V54.636H323.273L323.405 53.7904L322.417 53.636ZM307.453 53.636V52.636H306.453V53.636H307.453ZM307.453 59.494H306.453V60.494H307.453V59.494ZM320.373 59.494V69.586H322.373V59.494H320.373ZM321.373 68.586H307.453V70.586H321.373V68.586ZM306.453 69.586V74.864H308.453V69.586H306.453ZM307.453 75.864H324.505V73.864H307.453V75.864ZM323.505 74.864V86H325.505V74.864H323.505ZM324.505 85H293.533V87H324.505V85ZM294.533 86V42.5H292.533V86H294.533ZM293.533 43.5H324.157V41.5H293.533V43.5ZM323.169 42.3456L321.429 53.4816L323.405 53.7904L325.145 42.6544L323.169 42.3456ZM322.417 52.636H307.453V54.636H322.417V52.636ZM306.453 53.636V59.494H308.453V53.636H306.453ZM307.453 60.494H321.373V58.494H307.453V60.494ZM369.034 86V87H370.034V86H369.034ZM355.926 86L355.102 86.5668L355.4 87H355.926V86ZM345.312 70.572L346.136 70.0052L346.131 69.9979L346.126 69.9908L345.312 70.572ZM344.848 69.354L343.87 69.5635L343.87 69.5635L344.848 69.354ZM344.616 67.208L345.615 67.1646L345.573 66.208H344.616V67.208ZM344.326 67.208V66.208H343.326V67.208H344.326ZM344.326 86V87H345.326V86H344.326ZM330.406 86H329.406V87H330.406V86ZM330.406 42.5V41.5H329.406V42.5H330.406ZM343.514 42.5L344.338 41.9332L344.04 41.5H343.514V42.5ZM354.128 57.928L353.304 58.4948L353.309 58.5021L353.314 58.5092L354.128 57.928ZM354.824 61.292L353.825 61.3354L353.866 62.292H354.824V61.292ZM355.114 61.292V62.292H356.114V61.292H355.114ZM355.114 42.5V41.5H354.114V42.5H355.114ZM369.034 42.5H370.034V41.5H369.034V42.5ZM369.034 85H355.926V87H369.034V85ZM356.75 85.4332L346.136 70.0052L344.488 71.1388L355.102 86.5668L356.75 85.4332ZM346.126 69.9908C346.048 69.8816 345.929 69.6293 345.826 69.1445L343.87 69.5635C343.998 70.1613 344.189 70.7211 344.498 71.1532L346.126 69.9908ZM345.826 69.1445C345.726 68.6804 345.652 68.0273 345.615 67.1646L343.617 67.2514C343.657 68.1674 343.737 68.9449 343.87 69.5635L345.826 69.1445ZM344.616 66.208H344.326V68.208H344.616V66.208ZM343.326 67.208V86H345.326V67.208H343.326ZM344.326 85H330.406V87H344.326V85ZM331.406 86V42.5H329.406V86H331.406ZM330.406 43.5H343.514V41.5H330.406V43.5ZM342.69 43.0668L353.304 58.4948L354.952 57.3612L344.338 41.9332L342.69 43.0668ZM353.314 58.5092C353.392 58.6184 353.51 58.8706 353.614 59.3555L355.57 58.9365C355.441 58.3387 355.25 57.7789 354.942 57.3468L353.314 58.5092ZM353.614 59.3555C353.713 59.8196 353.787 60.4727 353.825 61.3354L355.823 61.2486C355.783 60.3326 355.702 59.5551 355.57 58.9365L353.614 59.3555ZM354.824 62.292H355.114V60.292H354.824V62.292ZM356.114 61.292V42.5H354.114V61.292H356.114ZM355.114 43.5H369.034V41.5H355.114V43.5ZM368.034 42.5V86H370.034V42.5H368.034ZM374.957 42.5V41.5H373.957V42.5H374.957ZM388.877 42.5H389.877V41.5H388.877V42.5ZM388.877 75.154H387.877V76.154H388.877V75.154ZM397.403 74.458L396.827 73.641L396.815 73.6493L396.803 73.658L397.403 74.458ZM398.389 42.5V41.5H397.389V42.5H398.389ZM412.309 42.5H413.309V41.5H412.309V42.5ZM411.555 76.314L410.574 76.1207L410.573 76.1279L410.572 76.1351L411.555 76.314ZM408.771 82.578L408.012 81.9272L408.011 81.9287L408.771 82.578ZM403.087 86L402.813 85.0385L402.813 85.0385L403.087 86ZM378.437 82.578L377.677 83.2273L377.686 83.2378L378.437 82.578ZM375.653 76.372L374.669 76.5483L374.671 76.5568L374.672 76.5653L375.653 76.372ZM374.957 43.5H388.877V41.5H374.957V43.5ZM387.877 42.5V75.154H389.877V42.5H387.877ZM388.877 76.154H393.807V74.154H388.877V76.154ZM393.807 76.154C394.734 76.154 395.547 76.094 396.231 75.9618C396.901 75.8319 397.523 75.6184 398.003 75.258L396.803 73.658C396.665 73.7616 396.378 73.8961 395.85 73.9982C395.335 74.098 394.659 74.154 393.807 74.154V76.154ZM397.98 75.275C399.07 74.5057 399.389 73.0332 399.389 71.442H397.389C397.389 72.9441 397.052 73.4823 396.827 73.641L397.98 75.275ZM399.389 71.442V42.5H397.389V71.442H399.389ZM398.389 43.5H412.309V41.5H398.389V43.5ZM411.309 42.5V66.918H413.309V42.5H411.309ZM411.309 66.918C411.309 70.5901 411.06 73.653 410.574 76.1207L412.537 76.5073C413.056 73.871 413.309 70.6699 413.309 66.918H411.309ZM410.572 76.1351C410.133 78.5497 409.267 80.4638 408.012 81.9272L409.531 83.2288C411.06 81.4442 412.05 79.1823 412.539 76.4929L410.572 76.1351ZM408.011 81.9287C406.811 83.3349 405.101 84.3848 402.813 85.0385L403.362 86.9615C405.946 86.2232 408.026 84.9917 409.532 83.2273L408.011 81.9287ZM402.813 85.0385C400.5 85.6993 397.451 86.044 393.633 86.044V88.044C397.55 88.044 400.803 87.6927 403.362 86.9615L402.813 85.0385ZM393.633 86.044C389.816 86.044 386.767 85.6993 384.454 85.0385L383.905 86.9615C386.464 87.6927 389.717 88.044 393.633 88.044V86.044ZM384.454 85.0385C382.165 84.3845 380.431 83.3326 379.189 81.9182L377.686 83.2378C379.228 84.9941 381.322 86.2235 383.905 86.9615L384.454 85.0385ZM379.198 81.9287C377.981 80.5025 377.112 78.6035 376.635 76.1787L374.672 76.5653C375.2 79.2445 376.188 81.4828 377.677 83.2273L379.198 81.9287ZM376.638 76.1957C376.188 73.6815 375.957 70.5929 375.957 66.918H373.957C373.957 70.6671 374.191 73.8812 374.669 76.5483L376.638 76.1957ZM375.957 66.918V42.5H373.957V66.918H375.957Z" fill="#CEB7FF"/>
</g>
<g filter="url(#filter5_d_21_3746)">
<path d="M21.428 79.098V78.098H20.6295L20.4528 78.8767L21.428 79.098ZM19.862 86V87H20.6605L20.8372 86.2213L19.862 86ZM5.188 86L4.21986 85.7496L3.89642 87H5.188V86ZM16.44 42.5V41.5H15.6658L15.4719 42.2496L16.44 42.5ZM37.958 42.5L38.9261 42.2496L38.7322 41.5H37.958V42.5ZM49.21 86V87H50.5016L50.1781 85.7496L49.21 86ZM34.536 86L33.5626 86.229L33.744 87H34.536V86ZM32.912 79.098L33.8854 78.869L33.704 78.098H32.912V79.098ZM27.576 55.84L28.5509 55.6172L28.3732 54.84H27.576V55.84ZM26.822 55.84V54.84H26.0285L25.8482 55.6128L26.822 55.84ZM23.98 68.02L23.0062 67.7928L22.7198 69.02H23.98V68.02ZM30.36 68.02V69.02H31.6144L31.3349 67.7972L30.36 68.02ZM20.4528 78.8767L18.8868 85.7787L20.8372 86.2213L22.4032 79.3193L20.4528 78.8767ZM19.862 85H5.188V87H19.862V85ZM6.15614 86.2504L17.4081 42.7504L15.4719 42.2496L4.21986 85.7496L6.15614 86.2504ZM16.44 43.5H37.958V41.5H16.44V43.5ZM36.9899 42.7504L48.2419 86.2504L50.1781 85.7496L38.9261 42.2496L36.9899 42.7504ZM49.21 85H34.536V87H49.21V85ZM35.5094 85.771L33.8854 78.869L31.9386 79.327L33.5626 86.229L35.5094 85.771ZM32.912 78.098H21.428V80.098H32.912V78.098ZM27.576 54.84H26.822V56.84H27.576V54.84ZM25.8482 55.6128L23.0062 67.7928L24.9538 68.2472L27.7958 56.0672L25.8482 55.6128ZM23.98 69.02H30.36V67.02H23.98V69.02ZM31.3349 67.7972L28.5509 55.6172L26.6011 56.0628L29.3851 68.2428L31.3349 67.7972ZM51.9038 86H50.9038V87H51.9038V86ZM51.9038 42.5V41.5H50.9038V42.5H51.9038ZM81.1938 43.718L80.8987 44.6736L80.9117 44.6774L81.1938 43.718ZM90.8798 54.216L89.9072 54.4489L89.9105 54.4617L90.8798 54.216ZM90.8798 74.226L89.9096 73.9835L89.9073 73.9931L90.8798 74.226ZM87.5158 80.954L86.7766 80.2805L86.7766 80.2805L87.5158 80.954ZM81.1938 84.782L80.8988 83.8265L80.8988 83.8265L81.1938 84.782ZM65.8238 53.636V52.636H64.8238V53.636H65.8238ZM65.8238 74.864H64.8238V75.864H65.8238V74.864ZM75.7418 74.226L76.2058 75.1118L76.2133 75.1079L76.2207 75.1039L75.7418 74.226ZM75.7418 54.332L75.2457 55.2002L75.2698 55.214L75.2946 55.2264L75.7418 54.332ZM71.3918 85H51.9038V87H71.3918V85ZM52.9038 86V42.5H50.9038V86H52.9038ZM51.9038 43.5H71.3918V41.5H51.9038V43.5ZM71.3918 43.5C75.2354 43.5 78.3958 43.9005 80.8988 44.6735L81.4889 42.7625C78.7332 41.9115 75.3589 41.5 71.3918 41.5V43.5ZM80.9117 44.6774C83.3946 45.4077 85.3337 46.5777 86.7766 48.1615L88.255 46.8145C86.5273 44.9183 84.2517 43.575 81.476 42.7586L80.9117 44.6774ZM86.7766 48.1615C88.2276 49.754 89.2815 51.8351 89.9073 54.4489L91.8523 53.9831C91.1635 51.1062 89.9747 48.702 88.255 46.8145L86.7766 48.1615ZM89.9105 54.4617C90.5801 57.1029 90.9238 60.3407 90.9238 64.192H92.9238C92.9238 60.2326 92.5716 56.8197 91.8492 53.9703L89.9105 54.4617ZM90.9238 64.192C90.9238 68.0428 90.5802 71.3014 89.9097 73.9835L91.85 74.4685C92.5715 71.5826 92.9238 68.1519 92.9238 64.192H90.9238ZM89.9073 73.9931C89.2815 76.6069 88.2276 78.688 86.7766 80.2805L88.255 81.6275C89.9747 79.74 91.1635 77.3358 91.8523 74.4589L89.9073 73.9931ZM86.7766 80.2805C85.3305 81.8677 83.3867 83.0582 80.8988 83.8265L81.4889 85.7375C84.2596 84.8818 86.5305 83.5203 88.255 81.6275L86.7766 80.2805ZM80.8988 83.8265C78.3958 84.5995 75.2354 85 71.3918 85V87C75.3589 87 78.7332 86.5885 81.4889 85.7375L80.8988 83.8265ZM71.6238 52.636H65.8238V54.636H71.6238V52.636ZM64.8238 53.636V74.864H66.8238V53.636H64.8238ZM65.8238 75.864H71.6238V73.864H65.8238V75.864ZM71.6238 75.864C73.5774 75.864 75.1632 75.6579 76.2058 75.1118L75.2778 73.3402C74.6964 73.6447 73.537 73.864 71.6238 73.864V75.864ZM76.2207 75.1039C77.5625 74.372 78.0178 72.857 78.0178 71.152H76.0178C76.0178 72.6176 75.6225 73.152 75.263 73.3481L76.2207 75.1039ZM78.0178 71.152V57.348H76.0178V71.152H78.0178ZM78.0178 57.348C78.0178 55.653 77.566 54.1261 76.189 53.4376L75.2946 55.2264C75.619 55.3886 76.0178 55.8723 76.0178 57.348H78.0178ZM76.238 53.4638C75.1838 52.8614 73.5822 52.636 71.6238 52.636V54.636C73.5321 54.636 74.6759 54.8746 75.2457 55.2002L76.238 53.4638ZM110.45 64.888V63.888H109.488L109.451 64.8496L110.45 64.888ZM109.638 86V87H110.6L110.637 86.0384L109.638 86ZM95.0798 86L94.0817 85.9388L94.0166 87H95.0798V86ZM97.7478 42.5V41.5H96.8073L96.7497 42.4388L97.7478 42.5ZM115.902 42.5L116.873 42.2635L116.688 41.5H115.902V42.5ZM121.296 64.656L120.324 64.8925L120.51 65.656H121.296V64.656ZM121.818 64.656V65.656H122.604L122.789 64.8925L121.818 64.656ZM127.212 42.5V41.5H126.426L126.24 42.2635L127.212 42.5ZM145.424 42.5L146.422 42.4401L146.366 41.5H145.424V42.5ZM148.034 86V87H149.096L149.032 85.9401L148.034 86ZM133.476 86L132.477 86.0384L132.514 87H133.476V86ZM132.664 64.888L133.663 64.8496L133.626 63.888H132.664V64.888ZM132.2 64.888V63.888H131.421L131.23 64.643L132.2 64.888ZM126.864 86V87H127.643L127.833 86.245L126.864 86ZM116.25 86L115.281 86.2475L115.473 87H116.25V86ZM110.856 64.888L111.825 64.6405L111.632 63.888H110.856V64.888ZM109.451 64.8496L108.639 85.9616L110.637 86.0384L111.449 64.9264L109.451 64.8496ZM109.638 85H95.0798V87H109.638V85ZM96.078 86.0612L98.746 42.5612L96.7497 42.4388L94.0817 85.9388L96.078 86.0612ZM97.7478 43.5H115.902V41.5H97.7478V43.5ZM114.93 42.7365L120.324 64.8925L122.267 64.4195L116.873 42.2635L114.93 42.7365ZM121.296 65.656H121.818V63.656H121.296V65.656ZM122.789 64.8925L128.183 42.7365L126.24 42.2635L120.846 64.4195L122.789 64.8925ZM127.212 43.5H145.424V41.5H127.212V43.5ZM144.426 42.5599L147.036 86.0599L149.032 85.9401L146.422 42.4401L144.426 42.5599ZM148.034 85H133.476V87H148.034V85ZM134.475 85.9616L133.663 64.8496L131.665 64.9264L132.477 86.0384L134.475 85.9616ZM132.664 63.888H132.2V65.888H132.664V63.888ZM131.23 64.643L125.894 85.755L127.833 86.245L133.169 65.133L131.23 64.643ZM126.864 85H116.25V87H126.864V85ZM117.219 85.7525L111.825 64.6405L109.887 65.1355L115.281 86.2475L117.219 85.7525ZM110.856 63.888H110.45V65.888H110.856V63.888ZM167.154 86V87H168.154V86H167.154ZM153.234 86H152.234V87H153.234V86ZM153.234 42.5V41.5H152.234V42.5H153.234ZM167.154 42.5H168.154V41.5H167.154V42.5ZM167.154 85H153.234V87H167.154V85ZM154.234 86V42.5H152.234V86H154.234ZM153.234 43.5H167.154V41.5H153.234V43.5ZM166.154 42.5V86H168.154V42.5H166.154ZM212.762 86V87H213.762V86H212.762ZM199.654 86L198.83 86.5668L199.128 87H199.654V86ZM189.04 70.572L189.864 70.0052L189.859 69.9979L189.854 69.9908L189.04 70.572ZM188.576 69.354L187.598 69.5635L187.598 69.5635L188.576 69.354ZM188.344 67.208L189.343 67.1646L189.302 66.208H188.344V67.208ZM188.054 67.208V66.208H187.054V67.208H188.054ZM188.054 86V87H189.054V86H188.054ZM174.134 86H173.134V87H174.134V86ZM174.134 42.5V41.5H173.134V42.5H174.134ZM187.242 42.5L188.066 41.9332L187.768 41.5H187.242V42.5ZM197.856 57.928L197.032 58.4948L197.037 58.5021L197.043 58.5092L197.856 57.928ZM198.552 61.292L197.553 61.3354L197.595 62.292H198.552V61.292ZM198.842 61.292V62.292H199.842V61.292H198.842ZM198.842 42.5V41.5H197.842V42.5H198.842ZM212.762 42.5H213.762V41.5H212.762V42.5ZM212.762 85H199.654V87H212.762V85ZM200.478 85.4332L189.864 70.0052L188.216 71.1388L198.83 86.5668L200.478 85.4332ZM189.854 69.9908C189.776 69.8816 189.658 69.6293 189.554 69.1445L187.598 69.5635C187.727 70.1613 187.918 70.7211 188.227 71.1532L189.854 69.9908ZM189.554 69.1445C189.455 68.6804 189.381 68.0273 189.343 67.1646L187.345 67.2514C187.385 68.1674 187.466 68.9449 187.598 69.5635L189.554 69.1445ZM188.344 66.208H188.054V68.208H188.344V66.208ZM187.054 67.208V86H189.054V67.208H187.054ZM188.054 85H174.134V87H188.054V85ZM175.134 86V42.5H173.134V86H175.134ZM174.134 43.5H187.242V41.5H174.134V43.5ZM186.418 43.0668L197.032 58.4948L198.68 57.3612L188.066 41.9332L186.418 43.0668ZM197.043 58.5092C197.121 58.6184 197.239 58.8706 197.342 59.3555L199.298 58.9365C199.17 58.3387 198.979 57.7789 198.67 57.3468L197.043 58.5092ZM197.342 59.3555C197.442 59.8196 197.516 60.4727 197.553 61.3354L199.551 61.2486C199.512 60.3326 199.431 59.5551 199.298 58.9365L197.342 59.3555ZM198.552 62.292H198.842V60.292H198.552V62.292ZM199.842 61.292V42.5H197.842V61.292H199.842ZM198.842 43.5H212.762V41.5H198.842V43.5ZM211.762 42.5V86H213.762V42.5H211.762ZM250.749 64.888V63.888H249.786L249.749 64.8496L250.749 64.888ZM249.937 86V87H250.899L250.936 86.0384L249.937 86ZM235.379 86L234.381 85.9388L234.315 87H235.379V86ZM238.047 42.5V41.5H237.106L237.049 42.4388L238.047 42.5ZM256.201 42.5L257.172 42.2635L256.986 41.5H256.201V42.5ZM261.595 64.656L260.623 64.8925L260.809 65.656H261.595V64.656ZM262.117 64.656V65.656H262.902L263.088 64.8925L262.117 64.656ZM267.511 42.5V41.5H266.725L266.539 42.2635L267.511 42.5ZM285.723 42.5L286.721 42.4401L286.664 41.5H285.723V42.5ZM288.333 86V87H289.394L289.331 85.9401L288.333 86ZM273.775 86L272.775 86.0384L272.812 87H273.775V86ZM272.963 64.888L273.962 64.8496L273.925 63.888H272.963V64.888ZM272.499 64.888V63.888H271.72L271.529 64.643L272.499 64.888ZM267.163 86V87H267.941L268.132 86.245L267.163 86ZM256.549 86L255.58 86.2475L255.772 87H256.549V86ZM251.155 64.888L252.124 64.6405L251.931 63.888H251.155V64.888ZM249.749 64.8496L248.937 85.9616L250.936 86.0384L251.748 64.9264L249.749 64.8496ZM249.937 85H235.379V87H249.937V85ZM236.377 86.0612L239.045 42.5612L237.049 42.4388L234.381 85.9388L236.377 86.0612ZM238.047 43.5H256.201V41.5H238.047V43.5ZM255.229 42.7365L260.623 64.8925L262.566 64.4195L257.172 42.2635L255.229 42.7365ZM261.595 65.656H262.117V63.656H261.595V65.656ZM263.088 64.8925L268.482 42.7365L266.539 42.2635L261.145 64.4195L263.088 64.8925ZM267.511 43.5H285.723V41.5H267.511V43.5ZM284.724 42.5599L287.334 86.0599L289.331 85.9401L286.721 42.4401L284.724 42.5599ZM288.333 85H273.775V87H288.333V85ZM274.774 85.9616L273.962 64.8496L271.963 64.9264L272.775 86.0384L274.774 85.9616ZM272.963 63.888H272.499V65.888H272.963V63.888ZM271.529 64.643L266.193 85.755L268.132 86.245L273.468 65.133L271.529 64.643ZM267.163 85H256.549V87H267.163V85ZM257.518 85.7525L252.124 64.6405L250.186 65.1355L255.58 86.2475L257.518 85.7525ZM251.155 63.888H250.749V65.888H251.155V63.888ZM321.373 59.494H322.373V58.494H321.373V59.494ZM321.373 69.586V70.586H322.373V69.586H321.373ZM307.453 69.586V68.586H306.453V69.586H307.453ZM307.453 74.864H306.453V75.864H307.453V74.864ZM324.505 74.864H325.505V73.864H324.505V74.864ZM324.505 86V87H325.505V86H324.505ZM293.533 86H292.533V87H293.533V86ZM293.533 42.5V41.5H292.533V42.5H293.533ZM324.157 42.5L325.145 42.6544L325.325 41.5H324.157V42.5ZM322.417 53.636V54.636H323.273L323.405 53.7904L322.417 53.636ZM307.453 53.636V52.636H306.453V53.636H307.453ZM307.453 59.494H306.453V60.494H307.453V59.494ZM320.373 59.494V69.586H322.373V59.494H320.373ZM321.373 68.586H307.453V70.586H321.373V68.586ZM306.453 69.586V74.864H308.453V69.586H306.453ZM307.453 75.864H324.505V73.864H307.453V75.864ZM323.505 74.864V86H325.505V74.864H323.505ZM324.505 85H293.533V87H324.505V85ZM294.533 86V42.5H292.533V86H294.533ZM293.533 43.5H324.157V41.5H293.533V43.5ZM323.169 42.3456L321.429 53.4816L323.405 53.7904L325.145 42.6544L323.169 42.3456ZM322.417 52.636H307.453V54.636H322.417V52.636ZM306.453 53.636V59.494H308.453V53.636H306.453ZM307.453 60.494H321.373V58.494H307.453V60.494ZM369.034 86V87H370.034V86H369.034ZM355.926 86L355.102 86.5668L355.4 87H355.926V86ZM345.312 70.572L346.136 70.0052L346.131 69.9979L346.126 69.9908L345.312 70.572ZM344.848 69.354L343.87 69.5635L343.87 69.5635L344.848 69.354ZM344.616 67.208L345.615 67.1646L345.573 66.208H344.616V67.208ZM344.326 67.208V66.208H343.326V67.208H344.326ZM344.326 86V87H345.326V86H344.326ZM330.406 86H329.406V87H330.406V86ZM330.406 42.5V41.5H329.406V42.5H330.406ZM343.514 42.5L344.338 41.9332L344.04 41.5H343.514V42.5ZM354.128 57.928L353.304 58.4948L353.309 58.5021L353.314 58.5092L354.128 57.928ZM354.824 61.292L353.825 61.3354L353.866 62.292H354.824V61.292ZM355.114 61.292V62.292H356.114V61.292H355.114ZM355.114 42.5V41.5H354.114V42.5H355.114ZM369.034 42.5H370.034V41.5H369.034V42.5ZM369.034 85H355.926V87H369.034V85ZM356.75 85.4332L346.136 70.0052L344.488 71.1388L355.102 86.5668L356.75 85.4332ZM346.126 69.9908C346.048 69.8816 345.929 69.6293 345.826 69.1445L343.87 69.5635C343.998 70.1613 344.189 70.7211 344.498 71.1532L346.126 69.9908ZM345.826 69.1445C345.726 68.6804 345.652 68.0273 345.615 67.1646L343.617 67.2514C343.657 68.1674 343.737 68.9449 343.87 69.5635L345.826 69.1445ZM344.616 66.208H344.326V68.208H344.616V66.208ZM343.326 67.208V86H345.326V67.208H343.326ZM344.326 85H330.406V87H344.326V85ZM331.406 86V42.5H329.406V86H331.406ZM330.406 43.5H343.514V41.5H330.406V43.5ZM342.69 43.0668L353.304 58.4948L354.952 57.3612L344.338 41.9332L342.69 43.0668ZM353.314 58.5092C353.392 58.6184 353.51 58.8706 353.614 59.3555L355.57 58.9365C355.441 58.3387 355.25 57.7789 354.942 57.3468L353.314 58.5092ZM353.614 59.3555C353.713 59.8196 353.787 60.4727 353.825 61.3354L355.823 61.2486C355.783 60.3326 355.702 59.5551 355.57 58.9365L353.614 59.3555ZM354.824 62.292H355.114V60.292H354.824V62.292ZM356.114 61.292V42.5H354.114V61.292H356.114ZM355.114 43.5H369.034V41.5H355.114V43.5ZM368.034 42.5V86H370.034V42.5H368.034ZM374.957 42.5V41.5H373.957V42.5H374.957ZM388.877 42.5H389.877V41.5H388.877V42.5ZM388.877 75.154H387.877V76.154H388.877V75.154ZM397.403 74.458L396.827 73.641L396.815 73.6493L396.803 73.658L397.403 74.458ZM398.389 42.5V41.5H397.389V42.5H398.389ZM412.309 42.5H413.309V41.5H412.309V42.5ZM411.555 76.314L410.574 76.1207L410.573 76.1279L410.572 76.1351L411.555 76.314ZM408.771 82.578L408.012 81.9272L408.011 81.9287L408.771 82.578ZM403.087 86L402.813 85.0385L402.813 85.0385L403.087 86ZM378.437 82.578L377.677 83.2273L377.686 83.2378L378.437 82.578ZM375.653 76.372L374.669 76.5483L374.671 76.5568L374.672 76.5653L375.653 76.372ZM374.957 43.5H388.877V41.5H374.957V43.5ZM387.877 42.5V75.154H389.877V42.5H387.877ZM388.877 76.154H393.807V74.154H388.877V76.154ZM393.807 76.154C394.734 76.154 395.547 76.094 396.231 75.9618C396.901 75.8319 397.523 75.6184 398.003 75.258L396.803 73.658C396.665 73.7616 396.378 73.8961 395.85 73.9982C395.335 74.098 394.659 74.154 393.807 74.154V76.154ZM397.98 75.275C399.07 74.5057 399.389 73.0332 399.389 71.442H397.389C397.389 72.9441 397.052 73.4823 396.827 73.641L397.98 75.275ZM399.389 71.442V42.5H397.389V71.442H399.389ZM398.389 43.5H412.309V41.5H398.389V43.5ZM411.309 42.5V66.918H413.309V42.5H411.309ZM411.309 66.918C411.309 70.5901 411.06 73.653 410.574 76.1207L412.537 76.5073C413.056 73.871 413.309 70.6699 413.309 66.918H411.309ZM410.572 76.1351C410.133 78.5497 409.267 80.4638 408.012 81.9272L409.531 83.2288C411.06 81.4442 412.05 79.1823 412.539 76.4929L410.572 76.1351ZM408.011 81.9287C406.811 83.3349 405.101 84.3848 402.813 85.0385L403.362 86.9615C405.946 86.2232 408.026 84.9917 409.532 83.2273L408.011 81.9287ZM402.813 85.0385C400.5 85.6993 397.451 86.044 393.633 86.044V88.044C397.55 88.044 400.803 87.6927 403.362 86.9615L402.813 85.0385ZM393.633 86.044C389.816 86.044 386.767 85.6993 384.454 85.0385L383.905 86.9615C386.464 87.6927 389.717 88.044 393.633 88.044V86.044ZM384.454 85.0385C382.165 84.3845 380.431 83.3326 379.189 81.9182L377.686 83.2378C379.228 84.9941 381.322 86.2235 383.905 86.9615L384.454 85.0385ZM379.198 81.9287C377.981 80.5025 377.112 78.6035 376.635 76.1787L374.672 76.5653C375.2 79.2445 376.188 81.4828 377.677 83.2273L379.198 81.9287ZM376.638 76.1957C376.188 73.6815 375.957 70.5929 375.957 66.918H373.957C373.957 70.6671 374.191 73.8812 374.669 76.5483L376.638 76.1957ZM375.957 66.918V42.5H373.957V66.918H375.957Z" fill="#CEB7FF"/>
</g>
<g filter="url(#filter6_d_21_3746)">
<path d="M59.5 112.5H360.5V127.5H59.5V112.5Z" stroke="#CEB7FF" shape-rendering="crispEdges"/>
</g>
<g filter="url(#filter7_d_21_3746)">
<path d="M59.5 112.5H360.5V127.5H59.5V112.5Z" stroke="#CEB7FF" shape-rendering="crispEdges"/>
</g>
<defs>
<filter id="filter0_d_21_3746" x="55" y="0" width="310" height="24" filterUnits="userSpaceOnUse" color-interpolation-filters="sRGB">
<feFlood flood-opacity="0" result="BackgroundImageFix"/>
<feColorMatrix in="SourceAlpha" type="matrix" values="0 0 0 0 0 0 0 0 0 0 0 0 0 0 0 0 0 0 127 0" result="hardAlpha"/>
<feOffset/>
<feGaussianBlur stdDeviation="2"/>
<feComposite in2="hardAlpha" operator="out"/>
<feColorMatrix type="matrix" values="0 0 0 0 0.807843 0 0 0 0 0.717647 0 0 0 0 1 0 0 0 1 0"/>
<feBlend mode="normal" in2="BackgroundImageFix" result="effect1_dropShadow_21_3746"/>
<feBlend mode="normal" in="SourceGraphic" in2="effect1_dropShadow_21_3746" result="shape"/>
</filter>
<filter id="filter1_d_21_3746" x="55" y="0" width="310" height="24" filterUnits="userSpaceOnUse" color-interpolation-filters="sRGB">
<feFlood flood-opacity="0" result="BackgroundImageFix"/>
<feColorMatrix in="SourceAlpha" type="matrix" values="0 0 0 0 0 0 0 0 0 0 0 0 0 0 0 0 0 0 127 0" result="hardAlpha"/>
<feOffset/>
<feGaussianBlur stdDeviation="2"/>
<feComposite in2="hardAlpha" operator="out"/>
<feColorMatrix type="matrix" values="0 0 0 0 0.807843 0 0 0 0 0.717647 0 0 0 0 1 0 0 0 1 0"/>
<feBlend mode="normal" in2="BackgroundImageFix" result="effect1_dropShadow_21_3746"/>
<feBlend mode="normal" in="SourceGraphic" in2="effect1_dropShadow_21_3746" result="shape"/>
</filter>
<filter id="filter2_d_21_3746" x="55" y="108" width="310" height="24" filterUnits="userSpaceOnUse" color-interpolation-filters="sRGB">
<feFlood flood-opacity="0" result="BackgroundImageFix"/>
<feColorMatrix in="SourceAlpha" type="matrix" values="0 0 0 0 0 0 0 0 0 0 0 0 0 0 0 0 0 0 127 0" result="hardAlpha"/>
<feOffset/>
<feGaussianBlur stdDeviation="2"/>
<feComposite in2="hardAlpha" operator="out"/>
<feColorMatrix type="matrix" values="0 0 0 0 0.807843 0 0 0 0 0.717647 0 0 0 0 1 0 0 0 1 0"/>
<feBlend mode="normal" in2="BackgroundImageFix" result="effect1_dropShadow_21_3746"/>
<feBlend mode="normal" in="SourceGraphic" in2="effect1_dropShadow_21_3746" result="shape"/>
</filter>
<filter id="filter3_d_21_3746" x="55" y="108" width="310" height="24" filterUnits="userSpaceOnUse" color-interpolation-filters="sRGB">
<feFlood flood-opacity="0" result="BackgroundImageFix"/>
<feColorMatrix in="SourceAlpha" type="matrix" values="0 0 0 0 0 0 0 0 0 0 0 0 0 0 0 0 0 0 127 0" result="hardAlpha"/>
<feOffset/>
<feGaussianBlur stdDeviation="2"/>
<feComposite in2="hardAlpha" operator="out"/>
<feColorMatrix type="matrix" values="0 0 0 0 0.807843 0 0 0 0 0.717647 0 0 0 0 1 0 0 0 1 0"/>
<feBlend mode="normal" in2="BackgroundImageFix" result="effect1_dropShadow_21_3746"/>
<feBlend mode="normal" in="SourceGraphic" in2="effect1_dropShadow_21_3746" result="shape"/>
</filter>
<filter id="filter4_d_21_3746" x="0.188004" y="37.5" width="417.121" height="54.544" filterUnits="userSpaceOnUse" color-interpolation-filters="sRGB">
<feFlood flood-opacity="0" result="BackgroundImageFix"/>
<feColorMatrix in="SourceAlpha" type="matrix" values="0 0 0 0 0 0 0 0 0 0 0 0 0 0 0 0 0 0 127 0" result="hardAlpha"/>
<feOffset/>
<feGaussianBlur stdDeviation="2.5"/>
<feComposite in2="hardAlpha" operator="out"/>
<feColorMatrix type="matrix" values="0 0 0 0 0.701961 0 0 0 0 0.466667 0 0 0 0 1 0 0 0 1 0"/>
<feBlend mode="normal" in2="BackgroundImageFix" result="effect1_dropShadow_21_3746"/>
<feBlend mode="normal" in="SourceGraphic" in2="effect1_dropShadow_21_3746" result="shape"/>
</filter>
<filter id="filter5_d_21_3746" x="0.188004" y="37.5" width="417.121" height="54.544" filterUnits="userSpaceOnUse" color-interpolation-filters="sRGB">
<feFlood flood-opacity="0" result="BackgroundImageFix"/>
<feColorMatrix in="SourceAlpha" type="matrix" values="0 0 0 0 0 0 0 0 0 0 0 0 0 0 0 0 0 0 127 0" result="hardAlpha"/>
<feOffset/>
<feGaussianBlur stdDeviation="2.5"/>
<feComposite in2="hardAlpha" operator="out"/>
<feColorMatrix type="matrix" values="0 0 0 0 0.701961 0 0 0 0 0.466667 0 0 0 0 1 0 0 0 1 0"/>
<feBlend mode="normal" in2="BackgroundImageFix" result="effect1_dropShadow_21_3746"/>
<feBlend mode="normal" in="SourceGraphic" in2="effect1_dropShadow_21_3746" result="shape"/>
</filter>
<filter id="filter6_d_21_3746" x="55" y="108" width="310" height="24" filterUnits="userSpaceOnUse" color-interpolation-filters="sRGB">
<feFlood flood-opacity="0" result="BackgroundImageFix"/>
<feColorMatrix in="SourceAlpha" type="matrix" values="0 0 0 0 0 0 0 0 0 0 0 0 0 0 0 0 0 0 127 0" result="hardAlpha"/>
<feOffset/>
<feGaussianBlur stdDeviation="2"/>
<feComposite in2="hardAlpha" operator="out"/>
<feColorMatrix type="matrix" values="0 0 0 0 0.807843 0 0 0 0 0.717647 0 0 0 0 1 0 0 0 1 0"/>
<feBlend mode="normal" in2="BackgroundImageFix" result="effect1_dropShadow_21_3746"/>
<feBlend mode="normal" in="SourceGraphic" in2="effect1_dropShadow_21_3746" result="shape"/>
</filter>
<filter id="filter7_d_21_3746" x="55" y="108" width="310" height="24" filterUnits="userSpaceOnUse" color-interpolation-filters="sRGB">
<feFlood flood-opacity="0" result="BackgroundImageFix"/>
<feColorMatrix in="SourceAlpha" type="matrix" values="0 0 0 0 0 0 0 0 0 0 0 0 0 0 0 0 0 0 127 0" result="hardAlpha"/>
<feOffset/>
<feGaussianBlur stdDeviation="2"/>
<feComposite in2="hardAlpha" operator="out"/>
<feColorMatrix type="matrix" values="0 0 0 0 0.807843 0 0 0 0 0.717647 0 0 0 0 1 0 0 0 1 0"/>
<feBlend mode="normal" in2="BackgroundImageFix" result="effect1_dropShadow_21_3746"/>
<feBlend mode="normal" in="SourceGraphic" in2="effect1_dropShadow_21_3746" result="shape"/>
</filter>
</defs>
</svg>
