<svg width="349" height="132" viewBox="0 0 349 132" fill="none" xmlns="http://www.w3.org/2000/svg">
<g filter="url(#filter0_d_357_17)">
<path d="M27.8518 85.098V84.098H27.0533L26.8766 84.8767L27.8518 85.098ZM26.2858 92V93H27.0844L27.261 92.2213L26.2858 92ZM11.6118 92L10.6437 91.7496L10.3202 93H11.6118V92ZM22.8638 48.5V47.5H22.0896L21.8957 48.2496L22.8638 48.5ZM44.3818 48.5L45.35 48.2496L45.1561 47.5H44.3818V48.5ZM55.6338 92V93H56.9254L56.602 91.7496L55.6338 92ZM40.9598 92L39.9864 92.229L40.1678 93H40.9598V92ZM39.3358 85.098L40.3092 84.869L40.1278 84.098H39.3358V85.098ZM33.9998 61.84L34.9747 61.6172L34.797 60.84H33.9998V61.84ZM33.2458 61.84V60.84H32.4523L32.272 61.6128L33.2458 61.84ZM30.4038 74.02L29.43 73.7928L29.1436 75.02H30.4038V74.02ZM36.7838 74.02V75.02H38.0382L37.7587 73.7972L36.7838 74.02ZM26.8766 84.8767L25.3106 91.7787L27.261 92.2213L28.827 85.3193L26.8766 84.8767ZM26.2858 91H11.6118V93H26.2858V91ZM12.58 92.2504L23.832 48.7504L21.8957 48.2496L10.6437 91.7496L12.58 92.2504ZM22.8638 49.5H44.3818V47.5H22.8638V49.5ZM43.4137 48.7504L54.6657 92.2504L56.602 91.7496L45.35 48.2496L43.4137 48.7504ZM55.6338 91H40.9598V93H55.6338V91ZM41.9332 91.771L40.3092 84.869L38.3624 85.327L39.9864 92.229L41.9332 91.771ZM39.3358 84.098H27.8518V86.098H39.3358V84.098ZM33.9998 60.84H33.2458V62.84H33.9998V60.84ZM32.272 61.6128L29.43 73.7928L31.3777 74.2472L34.2197 62.0672L32.272 61.6128ZM30.4038 75.02H36.7838V73.02H30.4038V75.02ZM37.7587 73.7972L34.9747 61.6172L33.025 62.0628L35.809 74.2428L37.7587 73.7972ZM96.9557 92V93H97.9557V92H96.9557ZM83.8477 92L83.0238 92.5668L83.3218 93H83.8477V92ZM73.2337 76.572L74.0575 76.0052L74.0525 75.9979L74.0474 75.9908L73.2337 76.572ZM72.7697 75.354L71.7919 75.5635L71.7919 75.5635L72.7697 75.354ZM72.5377 73.208L73.5367 73.1646L73.4951 72.208H72.5377V73.208ZM72.2477 73.208V72.208H71.2477V73.208H72.2477ZM72.2477 92V93H73.2477V92H72.2477ZM58.3277 92H57.3277V93H58.3277V92ZM58.3277 48.5V47.5H57.3277V48.5H58.3277ZM71.4357 48.5L72.2595 47.9332L71.9615 47.5H71.4357V48.5ZM82.0497 63.928L81.2258 64.4948L81.2308 64.5021L81.2359 64.5092L82.0497 63.928ZM82.7457 67.292L81.7466 67.3354L81.7882 68.292H82.7457V67.292ZM83.0357 67.292V68.292H84.0357V67.292H83.0357ZM83.0357 48.5V47.5H82.0357V48.5H83.0357ZM96.9557 48.5H97.9557V47.5H96.9557V48.5ZM96.9557 91H83.8477V93H96.9557V91ZM84.6715 91.4332L74.0575 76.0052L72.4098 77.1388L83.0238 92.5668L84.6715 91.4332ZM74.0474 75.9908C73.9694 75.8816 73.8514 75.6293 73.7475 75.1445L71.7919 75.5635C71.92 76.1613 72.1112 76.7211 72.4199 77.1532L74.0474 75.9908ZM73.7475 75.1445C73.648 74.6804 73.5742 74.0273 73.5367 73.1646L71.5386 73.2514C71.5784 74.1674 71.6593 74.9449 71.7919 75.5635L73.7475 75.1445ZM72.5377 72.208H72.2477V74.208H72.5377V72.208ZM71.2477 73.208V92H73.2477V73.208H71.2477ZM72.2477 91H58.3277V93H72.2477V91ZM59.3277 92V48.5H57.3277V92H59.3277ZM58.3277 49.5H71.4357V47.5H58.3277V49.5ZM70.6118 49.0668L81.2258 64.4948L82.8735 63.3612L72.2595 47.9332L70.6118 49.0668ZM81.2359 64.5092C81.3139 64.6184 81.432 64.8706 81.5359 65.3555L83.4915 64.9365C83.3634 64.3387 83.1721 63.7789 82.8634 63.3468L81.2359 64.5092ZM81.5359 65.3555C81.6353 65.8196 81.7091 66.4727 81.7466 67.3354L83.7447 67.2486C83.7049 66.3326 83.624 65.5551 83.4915 64.9365L81.5359 65.3555ZM82.7457 68.292H83.0357V66.292H82.7457V68.292ZM84.0357 67.292V48.5H82.0357V67.292H84.0357ZM83.0357 49.5H96.9557V47.5H83.0357V49.5ZM95.9557 48.5V92H97.9557V48.5H95.9557ZM115.871 85.098V84.098H115.073L114.896 84.8767L115.871 85.098ZM114.305 92V93H115.104L115.281 92.2213L114.305 92ZM99.6314 92L98.6632 91.7496L98.3398 93H99.6314V92ZM110.883 48.5V47.5H110.109L109.915 48.2496L110.883 48.5ZM132.401 48.5L133.369 48.2496L133.176 47.5H132.401V48.5ZM143.653 92V93H144.945L144.621 91.7496L143.653 92ZM128.979 92L128.006 92.229L128.187 93H128.979V92ZM127.355 85.098L128.329 84.869L128.147 84.098H127.355V85.098ZM122.019 61.84L122.994 61.6172L122.817 60.84H122.019V61.84ZM121.265 61.84V60.84H120.472L120.292 61.6128L121.265 61.84ZM118.423 74.02L117.45 73.7928L117.163 75.02H118.423V74.02ZM124.803 74.02V75.02H126.058L125.778 73.7972L124.803 74.02ZM114.896 84.8767L113.33 91.7787L115.281 92.2213L116.847 85.3193L114.896 84.8767ZM114.305 91H99.6314V93H114.305V91ZM100.599 92.2504L111.851 48.7504L109.915 48.2496L98.6632 91.7496L100.599 92.2504ZM110.883 49.5H132.401V47.5H110.883V49.5ZM131.433 48.7504L142.685 92.2504L144.621 91.7496L133.369 48.2496L131.433 48.7504ZM143.653 91H128.979V93H143.653V91ZM129.953 91.771L128.329 84.869L126.382 85.327L128.006 92.229L129.953 91.771ZM127.355 84.098H115.871V86.098H127.355V84.098ZM122.019 60.84H121.265V62.84H122.019V60.84ZM120.292 61.6128L117.45 73.7928L119.397 74.2472L122.239 62.0672L120.292 61.6128ZM118.423 75.02H124.803V73.02H118.423V75.02ZM125.778 73.7972L122.994 61.6172L121.045 62.0628L123.829 74.2428L125.778 73.7972ZM174.187 80.864H175.187V79.864H174.187V80.864ZM174.187 92V93H175.187V92H174.187ZM146.347 92H145.347V93H146.347V92ZM146.347 48.5V47.5H145.347V48.5H146.347ZM160.267 48.5H161.267V47.5H160.267V48.5ZM160.267 80.864H159.267V81.864H160.267V80.864ZM173.187 80.864V92H175.187V80.864H173.187ZM174.187 91H146.347V93H174.187V91ZM147.347 92V48.5H145.347V92H147.347ZM146.347 49.5H160.267V47.5H146.347V49.5ZM159.267 48.5V80.864H161.267V48.5H159.267ZM160.267 81.864H174.187V79.864H160.267V81.864ZM174.529 48.5V47.5H173.058L173.599 48.8679L174.529 48.5ZM189.899 48.5L190.869 48.2575L190.68 47.5H189.899V48.5ZM193.727 63.812L192.757 64.0545L192.947 64.812H193.727V63.812ZM194.249 63.812V64.812H195.027L195.219 64.058L194.249 63.812ZM198.135 48.5V47.5H197.357L197.166 48.254L198.135 48.5ZM213.505 48.5L214.435 48.8679L214.976 47.5H213.505V48.5ZM200.977 80.168L200.047 79.8001L199.977 79.9774V80.168H200.977ZM200.977 92V93H201.977V92H200.977ZM187.057 92H186.057V93H187.057V92ZM187.057 80.168H188.057V79.9774L187.987 79.8001L187.057 80.168ZM174.529 49.5H189.899V47.5H174.529V49.5ZM188.929 48.7425L192.757 64.0545L194.697 63.5695L190.869 48.2575L188.929 48.7425ZM193.727 64.812H194.249V62.812H193.727V64.812ZM195.219 64.058L199.105 48.746L197.166 48.254L193.28 63.566L195.219 64.058ZM198.135 49.5H213.505V47.5H198.135V49.5ZM212.575 48.1321L200.047 79.8001L201.907 80.5359L214.435 48.8679L212.575 48.1321ZM199.977 80.168V92H201.977V80.168H199.977ZM200.977 91H187.057V93H200.977V91ZM188.057 92V80.168H186.057V92H188.057ZM187.987 79.8001L175.459 48.1321L173.599 48.8679L186.127 80.5359L187.987 79.8001ZM247.95 48.5H248.95V47.5H247.95V48.5ZM247.95 59.636V60.636H248.95V59.636H247.95ZM237.858 59.636V58.636H236.858V59.636H237.858ZM237.858 92V93H238.858V92H237.858ZM223.938 92H222.938V93H223.938V92ZM223.938 59.636H224.938V58.636H223.938V59.636ZM213.846 59.636H212.846V60.636H213.846V59.636ZM213.846 48.5V47.5H212.846V48.5H213.846ZM246.95 48.5V59.636H248.95V48.5H246.95ZM247.95 58.636H237.858V60.636H247.95V58.636ZM236.858 59.636V92H238.858V59.636H236.858ZM237.858 91H223.938V93H237.858V91ZM224.938 92V59.636H222.938V92H224.938ZM223.938 58.636H213.846V60.636H223.938V58.636ZM214.846 59.636V48.5H212.846V59.636H214.846ZM213.846 49.5H247.95V47.5H213.846V49.5ZM265.675 92V93H266.675V92H265.675ZM251.755 92H250.755V93H251.755V92ZM251.755 48.5V47.5H250.755V48.5H251.755ZM265.675 48.5H266.675V47.5H265.675V48.5ZM265.675 91H251.755V93H265.675V91ZM252.755 92V48.5H250.755V92H252.755ZM251.755 49.5H265.675V47.5H251.755V49.5ZM264.675 48.5V92H266.675V48.5H264.675ZM301.54 79.53L302.536 79.4412L302.421 78.1523L301.203 78.5885L301.54 79.53ZM302.584 91.246L302.957 92.1736L303.646 91.8965L303.58 91.1572L302.584 91.246ZM281.298 91.71L280.973 92.656L280.986 92.66L281.298 91.71ZM274.86 87.534L275.62 86.8845L275.62 86.8845L274.86 87.534ZM271.496 80.458L270.518 80.6693L270.521 80.6819L271.496 80.458ZM271.438 60.39L270.46 60.1787L270.458 60.1887L271.438 60.39ZM274.686 53.256L275.46 53.8884L275.467 53.8807L274.686 53.256ZM280.95 48.906L280.609 47.9658L280.605 47.9674L280.95 48.906ZM294 47.63L293.893 48.6243L293.912 48.6263L293.931 48.6276L294 47.63ZM297.248 47.978L297.101 48.9672L297.106 48.9679L297.248 47.978ZM300.264 48.558L300.021 49.5281L300.044 49.5339L300.068 49.5386L300.264 48.558ZM302.584 49.254L303.565 49.446L303.715 48.6785L303.007 48.3478L302.584 49.254ZM300.496 59.926L300.288 60.9042L301.282 61.1154L301.477 60.118L300.496 59.926ZM285.532 80.632H284.532V81.438L285.319 81.6092L285.532 80.632ZM288.2 81.096L288.07 82.0876L288.094 82.0906L288.117 82.0925L288.2 81.096ZM300.544 79.6188L301.588 91.3348L303.58 91.1572L302.536 79.4412L300.544 79.6188ZM302.21 90.3184C299.386 91.4553 295.848 92.044 291.564 92.044V94.044C296.018 94.044 299.827 93.434 302.957 92.1736L302.21 90.3184ZM291.564 92.044C287.489 92.044 284.181 91.6049 281.61 90.76L280.986 92.66C283.827 93.5938 287.364 94.044 291.564 94.044V92.044ZM281.622 90.7641C279.055 89.884 277.071 88.5826 275.62 86.8845L274.099 88.1835C275.82 90.1974 278.127 91.68 280.973 92.6559L281.622 90.7641ZM275.62 86.8845C274.159 85.1735 273.099 82.97 272.47 80.2341L270.521 80.6819C271.207 83.6687 272.39 86.1825 274.099 88.1835L275.62 86.8845ZM272.473 80.2467C271.874 77.4734 271.568 74.1643 271.568 70.308H269.568C269.568 74.2624 269.881 77.7199 270.518 80.6693L272.473 80.2467ZM271.568 70.308C271.568 66.5665 271.854 63.3308 272.417 60.5913L270.458 60.1887C269.861 63.0945 269.568 66.4709 269.568 70.308H271.568ZM272.415 60.6013C273.007 57.8642 274.032 55.6388 275.46 53.8884L273.911 52.6236C272.247 54.6625 271.106 57.1931 270.46 60.1787L272.415 60.6013ZM275.467 53.8807C276.885 52.1078 278.814 50.7568 281.295 49.8446L280.605 47.9674C277.827 48.9886 275.58 50.5375 273.905 52.6313L275.467 53.8807ZM281.29 49.8462C283.813 48.9322 287.052 48.456 291.042 48.456V46.456C286.911 46.456 283.422 46.9465 280.609 47.9658L281.29 49.8462ZM291.042 48.456C291.889 48.456 292.838 48.5113 293.893 48.6243L294.106 46.6357C292.996 46.5167 291.974 46.456 291.042 46.456V48.456ZM293.931 48.6276C295.028 48.7033 296.085 48.8166 297.101 48.9672L297.394 46.9888C296.323 46.8301 295.214 46.7114 294.069 46.6324L293.931 48.6276ZM297.106 48.9679C298.16 49.1184 299.131 49.3056 300.021 49.5281L300.506 47.5879C299.541 47.3464 298.501 47.1469 297.389 46.988L297.106 48.9679ZM300.068 49.5386C300.993 49.7237 301.681 49.9362 302.161 50.1602L303.007 48.3478C302.327 48.0304 301.468 47.779 300.46 47.5774L300.068 49.5386ZM301.602 49.062L299.514 59.734L301.477 60.118L303.565 49.446L301.602 49.062ZM300.704 58.9478C297.561 58.28 294.725 57.94 292.202 57.94V59.94C294.551 59.94 297.244 60.2573 300.288 60.9042L300.704 58.9478ZM292.202 57.94C289.688 57.94 287.741 58.1626 286.549 58.7345L287.415 60.5375C288.156 60.1814 289.689 59.94 292.202 59.94V57.94ZM286.549 58.7345C285.128 59.4168 284.532 60.7799 284.532 62.42H286.532C286.532 61.2761 286.903 60.7832 287.415 60.5375L286.549 58.7345ZM284.532 62.42V80.632H286.532V62.42H284.532ZM285.319 81.6092C286.236 81.8084 287.153 81.9679 288.07 82.0876L288.329 80.1044C287.468 79.9921 286.606 79.8423 285.744 79.6548L285.319 81.6092ZM288.117 82.0925C289.073 82.1723 290.048 82.212 291.042 82.212V80.212C290.102 80.212 289.182 80.1744 288.283 80.0995L288.117 82.0925ZM291.042 82.212C295.005 82.212 298.621 81.6373 301.877 80.4715L301.203 78.5885C298.195 79.6654 294.812 80.212 291.042 80.212V82.212ZM305.693 91.246L304.708 91.0768L304.547 92.0141L305.475 92.2218L305.693 91.246ZM307.665 79.762L307.904 78.7908L306.861 78.535L306.68 79.5928L307.665 79.762ZM323.789 81.27L323.819 82.2696L323.832 82.2692L323.846 82.2684L323.789 81.27ZM327.385 80.922L327.532 81.9112L328.385 81.7848V80.922H327.385ZM327.385 77.442H328.385V76.5219L327.468 76.4455L327.385 77.442ZM321.121 76.92L321.026 77.9155L321.038 77.9165L321.121 76.92ZM314.045 75.528L313.717 76.4728L313.717 76.4728L314.045 75.528ZM309.463 72.86L308.744 73.555L308.756 73.5672L308.768 73.579L309.463 72.86ZM307.027 68.742L306.066 69.0167L306.07 69.0305L306.074 69.0442L307.027 68.742ZM307.259 55.634L308.213 55.9333L308.215 55.9281L307.259 55.634ZM310.217 50.82L310.88 51.5686L310.886 51.5634L310.892 51.558L310.217 50.82ZM315.437 48.21L315.211 47.2359L315.207 47.2368L315.437 48.21ZM340.029 49.196L341.017 49.3504L341.161 48.4324L340.256 48.222L340.029 49.196ZM338.289 60.332L338.13 61.3193L339.122 61.4787L339.277 60.4864L338.289 60.332ZM321.295 59.636L321.168 58.644L320.295 58.7555V59.636H321.295ZM321.295 63.058H320.295V63.9693L321.203 64.0537L321.295 63.058ZM326.283 63.522L326.384 62.5271L326.376 62.5263L326.283 63.522ZM333.939 65.088L333.602 66.0293L333.61 66.0322L333.618 66.0349L333.939 65.088ZM338.869 67.872L338.185 68.6015L338.191 68.6068L338.196 68.6119L338.869 67.872ZM341.537 71.99L340.584 72.2922L340.587 72.3027L340.591 72.3131L341.537 71.99ZM341.189 84.866L340.256 84.507L340.256 84.507L341.189 84.866ZM338.405 89.448L339.096 90.1706L339.099 90.1678L338.405 89.448ZM335.099 91.478L335.432 92.421L335.444 92.4167L335.456 92.4121L335.099 91.478ZM330.923 92.522L331.079 93.5098L331.079 93.5098L330.923 92.522ZM326.457 92.928L326.431 91.9283L326.418 91.9287L326.405 91.9294L326.457 92.928ZM313.755 92.58L313.866 91.5861L313.866 91.5861L313.755 92.58ZM306.679 91.4152L308.651 79.9312L306.68 79.5928L304.708 91.0768L306.679 91.4152ZM307.427 80.7332C311.738 81.7914 315.667 82.328 319.207 82.328V80.328C315.864 80.328 312.099 79.8206 307.904 78.7908L307.427 80.7332ZM319.207 82.328C320.954 82.328 322.492 82.3086 323.819 82.2696L323.76 80.2704C322.457 80.3087 320.94 80.328 319.207 80.328V82.328ZM323.846 82.2684C325.222 82.1898 326.451 82.0713 327.532 81.9112L327.239 79.9328C326.231 80.082 325.063 80.1956 323.732 80.2716L323.846 82.2684ZM328.385 80.922V77.442H326.385V80.922H328.385ZM327.468 76.4455L321.204 75.9235L321.038 77.9165L327.302 78.4385L327.468 76.4455ZM321.217 75.9246C318.443 75.6586 316.169 75.2062 314.373 74.5832L313.717 76.4728C315.711 77.1644 318.154 77.64 321.026 77.9154L321.217 75.9246ZM314.373 74.5832C312.583 73.9623 311.191 73.1398 310.158 72.141L308.768 73.579C310.055 74.8228 311.718 75.779 313.717 76.4728L314.373 74.5832ZM310.182 72.165C309.172 71.1195 308.438 69.8825 307.98 68.4398L306.074 69.0442C306.622 70.7721 307.512 72.2805 308.744 73.555L310.182 72.165ZM307.989 68.4673C307.556 66.9536 307.331 65.1552 307.331 63.058H305.331C305.331 65.2915 305.57 67.2824 306.066 69.0167L307.989 68.4673ZM307.331 63.058C307.331 60.1415 307.635 57.7761 308.213 55.9333L306.305 55.3347C305.646 57.4359 305.331 60.0198 305.331 63.058H307.331ZM308.215 55.9281C308.789 54.0638 309.685 52.6267 310.88 51.5686L309.554 50.0714C308.042 51.4106 306.967 53.1829 306.303 55.3399L308.215 55.9281ZM310.892 51.558C312.097 50.4559 313.675 49.6542 315.667 49.1832L315.207 47.2368C312.946 47.7712 311.044 48.7094 309.542 50.082L310.892 51.558ZM315.663 49.1841C317.732 48.7039 320.281 48.456 323.325 48.456V46.456C320.183 46.456 317.473 46.7108 315.211 47.2359L315.663 49.1841ZM323.325 48.456C329.412 48.456 334.902 49.0303 339.803 50.17L340.256 48.222C335.18 47.0417 329.535 46.456 323.325 46.456V48.456ZM339.041 49.0416L337.301 60.1776L339.277 60.4864L341.017 49.3504L339.041 49.0416ZM338.448 59.3447C334.095 58.6452 330.575 58.288 327.907 58.288V60.288C330.421 60.288 333.822 60.6268 338.13 61.3193L338.448 59.3447ZM327.907 58.288C325.29 58.288 323.041 58.405 321.168 58.644L321.422 60.6279C323.184 60.403 325.343 60.288 327.907 60.288V58.288ZM320.295 59.636V63.058H322.295V59.636H320.295ZM321.203 64.0537L326.191 64.5177L326.376 62.5263L321.388 62.0623L321.203 64.0537ZM326.182 64.5169C329.186 64.8211 331.653 65.3307 333.602 66.0293L334.277 64.1467C332.127 63.376 329.489 62.8415 326.384 62.5271L326.182 64.5169ZM333.618 66.0349C335.568 66.6973 337.076 67.5619 338.185 68.6015L339.553 67.1425C338.187 65.8621 336.409 64.8707 334.261 64.1411L333.618 66.0349ZM338.196 68.6119C339.347 69.6579 340.137 70.8814 340.584 72.2922L342.49 71.6878C341.932 69.928 340.943 68.4061 339.542 67.1321L338.196 68.6119ZM340.591 72.3131C341.09 73.7742 341.349 75.4789 341.349 77.442H343.349C343.349 75.3064 343.067 73.3765 342.483 71.6669L340.591 72.3131ZM341.349 77.442C341.349 80.2997 340.972 82.6443 340.256 84.507L342.122 85.225C342.953 83.0664 343.349 80.4617 343.349 77.442H341.349ZM340.256 84.507C339.514 86.436 338.653 87.8195 337.711 88.7282L339.099 90.1678C340.322 88.9885 341.318 87.3173 342.122 85.225L340.256 84.507ZM337.714 88.7254C336.934 89.4717 335.95 90.082 334.742 90.5439L335.456 92.4121C336.878 91.8686 338.098 91.1256 339.096 90.1706L337.714 88.7254ZM334.766 90.535C333.513 90.9774 332.18 91.3111 330.767 91.5342L331.079 93.5098C332.605 93.2689 334.056 92.9066 335.432 92.421L334.766 90.535ZM330.767 91.5342C329.342 91.7593 327.896 91.8908 326.431 91.9283L326.483 93.9277C328.034 93.8879 329.566 93.7487 331.079 93.5098L330.767 91.5342ZM326.405 91.9294C324.949 92.006 323.633 92.044 322.455 92.044V94.044C323.675 94.044 325.027 94.0047 326.51 93.9266L326.405 91.9294ZM322.455 92.044C319.473 92.044 316.61 91.8911 313.866 91.5861L313.645 93.5739C316.468 93.8876 319.405 94.044 322.455 94.044V92.044ZM313.866 91.5861C311.116 91.2806 308.465 90.8418 305.912 90.2702L305.475 92.2218C308.103 92.8102 310.826 93.2607 313.645 93.5739L313.866 91.5861Z" fill="#CEB7FF"/>
</g>
<g filter="url(#filter1_d_357_17)">
<path d="M5.28809 4.5H344.288V19.5H5.28809V4.5Z" stroke="#CEB7FF" shape-rendering="crispEdges"/>
</g>
<g filter="url(#filter2_d_357_17)">
<path d="M5.28809 112.5H344.288V127.5H5.28809V112.5Z" stroke="#CEB7FF" shape-rendering="crispEdges"/>
</g>
<defs>
<filter id="filter0_d_357_17" x="6.61182" y="42.456" width="340.737" height="55.588" filterUnits="userSpaceOnUse" color-interpolation-filters="sRGB">
<feFlood flood-opacity="0" result="BackgroundImageFix"/>
<feColorMatrix in="SourceAlpha" type="matrix" values="0 0 0 0 0 0 0 0 0 0 0 0 0 0 0 0 0 0 127 0" result="hardAlpha"/>
<feOffset/>
<feGaussianBlur stdDeviation="2.5"/>
<feComposite in2="hardAlpha" operator="out"/>
<feColorMatrix type="matrix" values="0 0 0 0 0.701961 0 0 0 0 0.466667 0 0 0 0 1 0 0 0 1 0"/>
<feBlend mode="normal" in2="BackgroundImageFix" result="effect1_dropShadow_357_17"/>
<feBlend mode="normal" in="SourceGraphic" in2="effect1_dropShadow_357_17" result="shape"/>
</filter>
<filter id="filter1_d_357_17" x="0.788086" y="0" width="348" height="24" filterUnits="userSpaceOnUse" color-interpolation-filters="sRGB">
<feFlood flood-opacity="0" result="BackgroundImageFix"/>
<feColorMatrix in="SourceAlpha" type="matrix" values="0 0 0 0 0 0 0 0 0 0 0 0 0 0 0 0 0 0 127 0" result="hardAlpha"/>
<feOffset/>
<feGaussianBlur stdDeviation="2"/>
<feComposite in2="hardAlpha" operator="out"/>
<feColorMatrix type="matrix" values="0 0 0 0 0.807843 0 0 0 0 0.717647 0 0 0 0 1 0 0 0 1 0"/>
<feBlend mode="normal" in2="BackgroundImageFix" result="effect1_dropShadow_357_17"/>
<feBlend mode="normal" in="SourceGraphic" in2="effect1_dropShadow_357_17" result="shape"/>
</filter>
<filter id="filter2_d_357_17" x="0.788086" y="108" width="348" height="24" filterUnits="userSpaceOnUse" color-interpolation-filters="sRGB">
<feFlood flood-opacity="0" result="BackgroundImageFix"/>
<feColorMatrix in="SourceAlpha" type="matrix" values="0 0 0 0 0 0 0 0 0 0 0 0 0 0 0 0 0 0 127 0" result="hardAlpha"/>
<feOffset/>
<feGaussianBlur stdDeviation="2"/>
<feComposite in2="hardAlpha" operator="out"/>
<feColorMatrix type="matrix" values="0 0 0 0 0.807843 0 0 0 0 0.717647 0 0 0 0 1 0 0 0 1 0"/>
<feBlend mode="normal" in2="BackgroundImageFix" result="effect1_dropShadow_357_17"/>
<feBlend mode="normal" in="SourceGraphic" in2="effect1_dropShadow_357_17" result="shape"/>
</filter>
</defs>
</svg>
