<svg width="45" height="45" viewBox="0 0 45 45" fill="none" xmlns="http://www.w3.org/2000/svg">
<path d="M17.8945 20.4057C18.3315 20.0893 18.5424 19.567 18.5424 18.8488C18.5575 18.5073 18.4872 18.1708 18.3365 17.8644C18.2009 17.6183 18 17.4124 17.7539 17.2667C17.4987 17.112 17.2153 17.0096 16.9202 16.9654C16.5988 16.9051 16.2723 16.875 15.9509 16.88H12.4202V20.8828H16.2422C16.9001 20.8878 17.4576 20.7271 17.8945 20.4057ZM18.4872 24.0218C17.995 23.6451 17.3371 23.4593 16.5184 23.4593H12.4102V28.1802H16.4381C16.8147 28.1802 17.1613 28.1451 17.4978 28.0748C17.8161 28.0125 18.1196 27.8898 18.3917 27.7132C18.6479 27.5474 18.8538 27.3214 19.0095 27.0301C19.1602 26.7388 19.2355 26.3672 19.2355 25.9202C19.2355 25.0312 18.9844 24.4035 18.4872 24.0218ZM22.5 0C10.0748 0 0 10.0748 0 22.5C0 34.9252 10.0748 45 22.5 45C34.9252 45 45 34.9252 45 22.5C45 10.0748 34.9252 0 22.5 0ZM26.8443 14.409H33.7952V16.1016H26.8443V14.409ZM22.5 28.3661C22.1749 28.9832 21.7106 29.5162 21.144 29.923C20.5513 30.3348 19.8934 30.6362 19.1953 30.8119C18.4649 31.0077 17.7115 31.104 16.9554 31.0982H8.63839V13.9671H16.7243C17.543 13.9671 18.2863 14.0424 18.9643 14.183C19.6373 14.3237 20.2098 14.5647 20.692 14.8912C21.1691 15.2176 21.5458 15.6546 21.8119 16.197C22.0731 16.7344 22.2087 17.4074 22.2087 18.2059C22.2087 19.0698 22.0128 19.7829 21.6211 20.3605C21.2243 20.9381 20.6518 21.4051 19.8733 21.7718C20.933 22.0731 21.7115 22.6105 22.2238 23.3638C22.7461 24.1272 23.0022 25.0413 23.0022 26.1161C23.0022 26.99 22.8365 27.7383 22.5 28.3661ZM36.5022 25.7143H27.5424C27.5424 26.6886 27.8789 27.6228 28.3862 28.125C28.8984 28.6222 29.6317 28.8733 30.591 28.8733C31.284 28.8733 31.8716 28.6975 32.3739 28.351C32.8711 28.0045 33.1724 27.6378 33.2829 27.2561H36.2863C35.8041 28.7478 35.0709 29.8125 34.0765 30.4554C33.0921 31.0982 31.8867 31.4196 30.4855 31.4196C29.5061 31.4196 28.6272 31.2589 27.8387 30.9526C27.0804 30.6562 26.3973 30.2042 25.8348 29.6217C25.2802 29.0234 24.8515 28.3197 24.5742 27.5525C24.2679 26.7037 24.1172 25.8097 24.1272 24.9107C24.1272 23.9816 24.2829 23.1177 24.5843 22.3142C25.1618 20.7522 26.3622 19.5017 27.894 18.8538C28.7126 18.5123 29.5915 18.3415 30.4805 18.3516C31.5352 18.3516 32.4492 18.5525 33.2427 18.9643C34.0067 19.3575 34.67 19.9212 35.1814 20.6116C35.6886 21.2997 36.0452 22.0831 36.2712 22.9671C36.4872 23.8359 36.5625 24.75 36.5022 25.7143ZM30.375 20.9129C29.8326 20.9129 29.3756 21.0084 29.024 21.1942C28.6724 21.38 28.3811 21.611 28.1602 21.8772C27.9497 22.1342 27.7942 22.4317 27.7031 22.7511C27.6228 23.0173 27.5675 23.2885 27.5474 23.5647H33.0971C33.0167 22.6959 32.7154 22.053 32.3136 21.601C31.8917 21.154 31.2137 20.9129 30.375 20.9129Z" fill="#CEB7FF"/>
</svg>
