<svg width="259" height="179" viewBox="0 0 259 179" fill="none" xmlns="http://www.w3.org/2000/svg">
<g filter="url(#filter0_d_9_6563)">
<path d="M96.323 72.4119L97.3191 72.3231L97.2042 71.0342L95.986 71.4704L96.323 72.4119ZM97.025 80.2899L97.3985 81.2175L98.087 80.9403L98.0211 80.2011L97.025 80.2899ZM82.712 80.6019L82.3877 81.5479L82.3999 81.5519L82.712 80.6019ZM78.383 77.7939L79.1434 77.1444L78.383 77.7939ZM76.121 73.0359L75.1435 73.2472L75.1464 73.2598L76.121 73.0359ZM76.082 59.5419L75.1046 59.3305L75.1025 59.3406L76.082 59.5419ZM78.266 54.7449L79.0407 55.3773L79.0469 55.3696L78.266 54.7449ZM82.478 51.8199L82.1374 50.8797L82.133 50.8813L82.478 51.8199ZM91.253 50.9619L91.1465 51.9562L91.1653 51.9582L91.1842 51.9595L91.253 50.9619ZM93.437 51.1959L93.2905 52.1851L93.2956 52.1858L93.437 51.1959ZM95.465 51.5859L95.2225 52.556L95.2456 52.5618L95.2689 52.5665L95.465 51.5859ZM97.025 52.0539L98.0064 52.2459L98.1566 51.4784L97.4479 51.1477L97.025 52.0539ZM95.621 59.2299L95.4132 60.208L96.4073 60.4193L96.6024 59.4219L95.621 59.2299ZM85.559 73.1529H84.559V73.9588L85.3466 74.1301L85.559 73.1529ZM87.353 73.4649L87.2237 74.4565L87.2468 74.4595L87.27 74.4614L87.353 73.4649ZM95.327 72.5006L96.029 80.3786L98.0211 80.2011L97.3191 72.3231L95.327 72.5006ZM96.6516 79.3622C94.8028 80.1066 92.4684 80.4989 89.615 80.4989V82.4989C92.6377 82.4989 95.2433 82.0852 97.3985 81.2175L96.6516 79.3622ZM89.615 80.4989C86.8956 80.4989 84.7091 80.2055 83.0242 79.6518L82.3999 81.5519C84.355 82.1943 86.7705 82.4989 89.615 82.4989V80.4989ZM83.0364 79.6559C81.3562 79.0799 80.0745 78.2345 79.1434 77.1444L77.6227 78.4434C78.8236 79.8493 80.4279 80.8759 82.3877 81.5478L83.0364 79.6559ZM79.1434 77.1444C78.2013 76.0414 77.5088 74.6105 77.0956 72.812L75.1464 73.2598C75.6172 75.3092 76.4328 77.0504 77.6227 78.4434L79.1434 77.1444ZM77.0984 72.8245C76.7015 70.9886 76.497 68.7878 76.497 66.2109H74.497C74.497 68.8859 74.7086 71.2352 75.1436 73.2472L77.0984 72.8245ZM76.497 66.2109C76.497 63.7107 76.6887 61.558 77.0616 59.7431L75.1025 59.3406C74.6954 61.3218 74.497 63.6151 74.497 66.2109H76.497ZM77.0595 59.7532C77.4486 57.9534 78.1184 56.507 79.0407 55.3772L77.4914 54.1125C76.3336 55.5307 75.5475 57.2823 75.1046 59.3305L77.0595 59.7532ZM79.0469 55.3696C79.9586 54.23 81.2032 53.354 82.8231 52.7585L82.133 50.8813C80.2168 51.5858 78.6535 52.6598 77.4852 54.1202L79.0469 55.3696ZM82.8187 52.7601C84.4674 52.1627 86.6044 51.8449 89.264 51.8449V49.8449C86.4637 49.8449 84.0767 50.177 82.1374 50.8797L82.8187 52.7601ZM89.264 51.8449C89.8196 51.8449 90.4464 51.8812 91.1465 51.9562L91.3596 49.9676C90.6037 49.8866 89.9045 49.8449 89.264 49.8449V51.8449ZM91.1842 51.9595C91.9139 52.0098 92.6159 52.0851 93.2905 52.1851L93.5836 50.2067C92.8542 50.0986 92.1002 50.0179 91.3218 49.9642L91.1842 51.9595ZM93.2956 52.1858C93.9943 52.2856 94.6362 52.4094 95.2225 52.556L95.7076 50.6157C95.0459 50.4503 94.3358 50.3141 93.5785 50.2059L93.2956 52.1858ZM95.2689 52.5665C95.8779 52.6882 96.3123 52.8248 96.6022 52.9601L97.4479 51.1477C96.9578 50.919 96.3522 50.7435 95.6612 50.6053L95.2689 52.5665ZM96.0436 51.8619L94.6396 59.0379L96.6024 59.4219L98.0064 52.2459L96.0436 51.8619ZM95.8289 58.2517C93.6996 57.7992 91.769 57.5669 90.044 57.5669V59.5669C91.5951 59.5669 93.3825 59.7765 95.4132 60.208L95.8289 58.2517ZM90.044 57.5669C88.3538 57.5669 86.9761 57.7134 86.1013 58.1334L86.9668 59.9364C87.392 59.7323 88.3543 59.5669 90.044 59.5669V57.5669ZM86.1013 58.1334C84.9965 58.6637 84.559 59.7228 84.559 60.9069H86.559C86.559 60.219 86.7716 60.0301 86.9668 59.9364L86.1013 58.1334ZM84.559 60.9069V73.1529H86.559V60.9069H84.559ZM85.3466 74.1301C85.9717 74.2659 86.5974 74.3748 87.2237 74.4565L87.4824 72.4733C86.9127 72.399 86.3424 72.2998 85.7715 72.1757L85.3466 74.1301ZM87.27 74.4614C87.9226 74.5158 88.5874 74.5429 89.264 74.5429V72.5429C88.6407 72.5429 88.0314 72.5179 87.4361 72.4683L87.27 74.4614ZM89.264 74.5429C91.9606 74.5429 94.43 74.1518 96.6601 73.3534L95.986 71.4704C94.0041 72.18 91.7674 72.5429 89.264 72.5429V74.5429ZM119.006 73.3089H120.006V72.3089H119.006V73.3089ZM119.006 80.7969V81.7969H120.006V80.7969H119.006ZM100.286 80.7969H99.2858V81.7969H100.286V80.7969ZM100.286 51.5469V50.5469H99.2858V51.5469H100.286ZM109.646 51.5469H110.646V50.5469H109.646V51.5469ZM109.646 73.3089H108.646V74.3089H109.646V73.3089ZM118.006 73.3089V80.7969H120.006V73.3089H118.006ZM119.006 79.7969H100.286V81.7969H119.006V79.7969ZM101.286 80.7969V51.5469H99.2858V80.7969H101.286ZM100.286 52.5469H109.646V50.5469H100.286V52.5469ZM108.646 51.5469V73.3089H110.646V51.5469H108.646ZM109.646 74.3089H119.006V72.3089H109.646V74.3089ZM130.936 80.7969V81.7969H131.936V80.7969H130.936ZM121.576 80.7969H120.576V81.7969H121.576V80.7969ZM121.576 51.5469V50.5469H120.576V51.5469H121.576ZM130.936 51.5469H131.936V50.5469H130.936V51.5469ZM130.936 79.7969H121.576V81.7969H130.936V79.7969ZM122.576 80.7969V51.5469H120.576V80.7969H122.576ZM121.576 52.5469H130.936V50.5469H121.576V52.5469ZM129.936 51.5469V80.7969H131.936V51.5469H129.936ZM155.052 72.4119L156.048 72.3231L155.933 71.0342L154.714 71.4704L155.052 72.4119ZM155.754 80.2899L156.127 81.2175L156.815 80.9403L156.75 80.2011L155.754 80.2899ZM141.441 80.6019L141.116 81.5479L141.128 81.5519L141.441 80.6019ZM137.112 77.7939L137.872 77.1444L137.112 77.7939ZM134.85 73.0359L133.872 73.2472L133.875 73.2598L134.85 73.0359ZM134.811 59.5419L133.833 59.3305L133.831 59.3406L134.811 59.5419ZM136.995 54.7449L137.769 55.3773L137.775 55.3696L136.995 54.7449ZM141.207 51.8199L140.866 50.8797L140.861 50.8813L141.207 51.8199ZM149.982 50.9619L149.875 51.9562L149.894 51.9582L149.913 51.9595L149.982 50.9619ZM152.166 51.1959L152.019 52.1851L152.024 52.1858L152.166 51.1959ZM154.194 51.5859L153.951 52.556L153.974 52.5618L153.997 52.5665L154.194 51.5859ZM155.754 52.0539L156.735 52.2459L156.885 51.4784L156.176 51.1477L155.754 52.0539ZM154.35 59.2299L154.142 60.208L155.136 60.4193L155.331 59.4219L154.35 59.2299ZM144.288 73.1529H143.288V73.9588L144.075 74.1301L144.288 73.1529ZM146.082 73.4649L145.952 74.4565L145.975 74.4595L145.999 74.4614L146.082 73.4649ZM154.055 72.5006L154.757 80.3786L156.75 80.2011L156.048 72.3231L154.055 72.5006ZM155.38 79.3622C153.531 80.1066 151.197 80.4989 148.344 80.4989V82.4989C151.366 82.4989 153.972 82.0852 156.127 81.2175L155.38 79.3622ZM148.344 80.4989C145.624 80.4989 143.438 80.2055 141.753 79.6518L141.128 81.5519C143.084 82.1943 145.499 82.4989 148.344 82.4989V80.4989ZM141.765 79.6559C140.085 79.0799 138.803 78.2345 137.872 77.1444L136.351 78.4434C137.552 79.8493 139.156 80.8759 141.116 81.5478L141.765 79.6559ZM137.872 77.1444C136.93 76.0414 136.237 74.6105 135.824 72.812L133.875 73.2598C134.346 75.3092 135.161 77.0504 136.351 78.4434L137.872 77.1444ZM135.827 72.8245C135.43 70.9886 135.226 68.7878 135.226 66.2109H133.226C133.226 68.8859 133.437 71.2352 133.872 73.2472L135.827 72.8245ZM135.226 66.2109C135.226 63.7107 135.417 61.558 135.79 59.7431L133.831 59.3406C133.424 61.3218 133.226 63.6151 133.226 66.2109H135.226ZM135.788 59.7532C136.177 57.9534 136.847 56.507 137.769 55.3772L136.22 54.1125C135.062 55.5307 134.276 57.2823 133.833 59.3305L135.788 59.7532ZM137.775 55.3696C138.687 54.23 139.932 53.354 141.552 52.7585L140.861 50.8813C138.945 51.5858 137.382 52.6598 136.214 54.1202L137.775 55.3696ZM141.547 52.7601C143.196 52.1627 145.333 51.8449 147.993 51.8449V49.8449C145.192 49.8449 142.805 50.177 140.866 50.8797L141.547 52.7601ZM147.993 51.8449C148.548 51.8449 149.175 51.8812 149.875 51.9562L150.088 49.9676C149.332 49.8866 148.633 49.8449 147.993 49.8449V51.8449ZM149.913 51.9595C150.642 52.0098 151.344 52.0851 152.019 52.1851L152.312 50.2067C151.583 50.0986 150.829 50.0179 150.05 49.9642L149.913 51.9595ZM152.024 52.1858C152.723 52.2856 153.365 52.4094 153.951 52.556L154.436 50.6157C153.774 50.4503 153.064 50.3141 152.307 50.2059L152.024 52.1858ZM153.997 52.5665C154.606 52.6882 155.041 52.8248 155.331 52.9601L156.176 51.1477C155.686 50.919 155.081 50.7435 154.39 50.6053L153.997 52.5665ZM154.772 51.8619L153.368 59.0379L155.331 59.4219L156.735 52.2459L154.772 51.8619ZM154.557 58.2517C152.428 57.7992 150.498 57.5669 148.773 57.5669V59.5669C150.324 59.5669 152.111 59.7765 154.142 60.208L154.557 58.2517ZM148.773 57.5669C147.082 57.5669 145.705 57.7134 144.83 58.1334L145.695 59.9364C146.12 59.7323 147.083 59.5669 148.773 59.5669V57.5669ZM144.83 58.1334C143.725 58.6637 143.288 59.7228 143.288 60.9069H145.288C145.288 60.219 145.5 60.0301 145.695 59.9364L144.83 58.1334ZM143.288 60.9069V73.1529H145.288V60.9069H143.288ZM144.075 74.1301C144.7 74.2659 145.326 74.3748 145.952 74.4565L146.211 72.4733C145.641 72.399 145.071 72.2998 144.5 72.1757L144.075 74.1301ZM145.999 74.4614C146.651 74.5158 147.316 74.5429 147.993 74.5429V72.5429C147.369 72.5429 146.76 72.5179 146.165 72.4683L145.999 74.4614ZM147.993 74.5429C150.689 74.5429 153.158 74.1518 155.389 73.3534L154.714 71.4704C152.733 72.18 150.496 72.5429 147.993 72.5429V74.5429ZM168.569 68.0829L169.568 68.0274L169.515 67.0829H168.569V68.0829ZM168.374 68.0829V67.0829H167.374V68.0829H168.374ZM168.374 80.7969V81.7969H169.374V80.7969H168.374ZM159.014 80.7969H158.014V81.7969H159.014V80.7969ZM159.014 51.5469V50.5469H158.014V51.5469H159.014ZM168.374 51.5469H169.374V50.5469H168.374V51.5469ZM168.374 63.4809H167.374V64.4809H168.374V63.4809ZM168.569 63.4809V64.4809H169.515L169.568 63.5363L168.569 63.4809ZM168.725 62.2329L169.703 62.4424L169.706 62.429L168.725 62.2329ZM169.037 61.2189L168.133 60.7922L168.13 60.7986L168.127 60.8051L169.037 61.2189ZM173.6 51.5469V50.5469H172.966L172.696 51.1202L173.6 51.5469ZM183.74 51.5469L184.639 51.9863L185.343 50.5469H183.74V51.5469ZM176.72 65.8989L175.822 65.4595L175.608 65.8979L175.821 66.3366L176.72 65.8989ZM183.974 80.7969V81.7969H185.573L184.873 80.3591L183.974 80.7969ZM173.834 80.7969L172.925 81.2127L173.192 81.7969H173.834V80.7969ZM169.037 70.3059L168.127 70.7197L168.128 70.7217L169.037 70.3059ZM168.725 69.3309L167.748 69.5404L168.725 69.3309ZM168.569 67.0829H168.374V69.0829H168.569V67.0829ZM167.374 68.0829V80.7969H169.374V68.0829H167.374ZM168.374 79.7969H159.014V81.7969H168.374V79.7969ZM160.014 80.7969V51.5469H158.014V80.7969H160.014ZM159.014 52.5469H168.374V50.5469H159.014V52.5469ZM167.374 51.5469V63.4809H169.374V51.5469H167.374ZM168.374 64.4809H168.569V62.4809H168.374V64.4809ZM169.568 63.5363C169.592 63.1075 169.638 62.7446 169.703 62.4424L167.748 62.0233C167.656 62.4491 167.599 62.9182 167.571 63.4254L169.568 63.5363ZM169.706 62.429C169.773 62.0952 169.856 61.8335 169.948 61.6327L168.127 60.8051C167.958 61.1763 167.834 61.5906 167.745 62.0368L169.706 62.429ZM169.942 61.6455L174.505 51.9735L172.696 51.1202L168.133 60.7922L169.942 61.6455ZM173.6 52.5469H183.74V50.5469H173.6V52.5469ZM182.842 51.1075L175.822 65.4595L177.619 66.3383L184.639 51.9863L182.842 51.1075ZM175.821 66.3366L183.075 81.2346L184.873 80.3591L177.619 65.4611L175.821 66.3366ZM183.974 79.7969H173.834V81.7969H183.974V79.7969ZM174.744 80.381L169.947 69.89L168.128 70.7217L172.925 81.2127L174.744 80.381ZM169.948 69.8921C169.852 69.6822 169.769 69.4275 169.703 69.1213L167.748 69.5404C167.838 69.9622 167.962 70.3575 168.127 70.7197L169.948 69.8921ZM169.703 69.1213C169.638 68.8191 169.592 68.4562 169.568 68.0274L167.571 68.1383C167.599 68.6455 167.656 69.1146 167.748 69.5404L169.703 69.1213ZM49.7487 112.442H50.7487V111.442H49.7487V112.442ZM47.4087 112.442H46.4087V113.442H47.4087V112.442ZM47.4087 106.397V105.397H46.4087V106.397H47.4087ZM49.7487 106.397V107.397H50.7487V106.397H49.7487ZM49.7487 102.653L49.5061 101.683L48.7487 101.872V102.653H49.7487ZM59.1087 100.313H60.1087V99.0321L58.8661 99.3427L59.1087 100.313ZM59.1087 106.397H58.1087V107.397H59.1087V106.397ZM62.3457 106.397H63.3457V105.397H62.3457V106.397ZM62.3457 112.442V113.442H63.3457V112.442H62.3457ZM59.1087 112.442V111.442H58.1087V112.442H59.1087ZM59.1087 123.089H58.1087V123.909L58.9125 124.069L59.1087 123.089ZM60.3957 123.323L60.2313 124.309L60.2581 124.314L60.2852 124.317L60.3957 123.323ZM61.8777 123.44L62.8757 123.502L62.9389 122.492L61.9276 122.441L61.8777 123.44ZM61.4487 130.304V131.304H62.3881L62.4467 130.366L61.4487 130.304ZM53.1027 129.602L53.4414 128.661L53.439 128.66L53.1027 129.602ZM50.6067 128.12L49.8695 128.796L49.8767 128.803L49.884 128.811L50.6067 128.12ZM49.7487 111.442H47.4087V113.442H49.7487V111.442ZM48.4087 112.442V106.397H46.4087V112.442H48.4087ZM47.4087 107.397H49.7487V105.397H47.4087V107.397ZM50.7487 106.397V102.653H48.7487V106.397H50.7487ZM49.9912 103.623L59.3512 101.283L58.8661 99.3427L49.5061 101.683L49.9912 103.623ZM58.1087 100.313V106.397H60.1087V100.313H58.1087ZM59.1087 107.397H62.3457V105.397H59.1087V107.397ZM61.3457 106.397V112.442H63.3457V106.397H61.3457ZM62.3457 111.442H59.1087V113.442H62.3457V111.442ZM58.1087 112.442V123.089H60.1087V112.442H58.1087ZM58.9125 124.069C59.3149 124.15 59.7546 124.23 60.2313 124.309L60.5601 122.336C60.1007 122.26 59.6825 122.184 59.3048 122.108L58.9125 124.069ZM60.2852 124.317C60.7753 124.371 61.2896 124.412 61.8277 124.439L61.9276 122.441C61.4257 122.416 60.952 122.379 60.5061 122.329L60.2852 124.317ZM60.8796 123.377L60.4506 130.241L62.4467 130.366L62.8757 123.502L60.8796 123.377ZM61.4487 129.304C59.3317 129.304 57.6007 129.246 56.248 129.132C54.8744 129.016 53.9625 128.849 53.4414 128.661L52.7639 130.543C53.5428 130.823 54.6719 131.006 56.0803 131.125C57.5097 131.245 59.3016 131.304 61.4487 131.304V129.304ZM53.439 128.66C52.4383 128.303 51.7595 127.878 51.3293 127.429L49.884 128.811C50.5978 129.557 51.583 130.121 52.7663 130.544L53.439 128.66ZM51.3438 127.444C50.9996 127.069 50.7487 126.439 50.7487 125.39H48.7487C48.7487 126.733 49.0697 127.923 49.8695 128.796L51.3438 127.444ZM50.7487 125.39V112.442H48.7487V125.39H50.7487ZM67.8261 108.776L68.5469 109.469L68.5513 109.464L67.8261 108.776ZM86.7801 108.776L86.0548 109.464L86.0592 109.469L86.7801 108.776ZM86.7801 127.457L87.5009 128.15L87.5053 128.145L86.7801 127.457ZM67.9041 127.496L67.197 128.203L67.9041 127.496ZM74.9631 123.674H73.9631V124.674H74.9631V123.674ZM78.8631 123.323L78.4527 122.411L78.4438 122.415L78.435 122.419L78.8631 123.323ZM79.6431 112.52H80.6431V111.52H79.6431V112.52ZM75.7041 112.871L75.2937 111.959L75.2848 111.963L75.276 111.967L75.7041 112.871ZM65.9011 118.097C65.9011 114.045 66.8468 111.237 68.5469 109.469L67.1052 108.083C64.9053 110.371 63.9011 113.777 63.9011 118.097H65.9011ZM68.5513 109.464C70.231 107.695 73.0628 106.695 77.3031 106.695V104.695C72.8073 104.695 69.3211 105.749 67.1008 108.087L68.5513 109.464ZM77.3031 106.695C81.5433 106.695 84.3751 107.695 86.0548 109.464L87.5053 108.087C85.285 105.749 81.7988 104.695 77.3031 104.695V106.695ZM86.0592 109.469C87.7594 111.237 88.7051 114.045 88.7051 118.097H90.7051C90.7051 113.777 89.7008 110.371 87.5009 108.083L86.0592 109.469ZM88.7051 118.097C88.7051 122.147 87.7599 124.972 86.0548 126.768L87.5053 128.145C89.7003 125.833 90.7051 122.418 90.7051 118.097H88.7051ZM86.0592 126.764C84.38 128.51 81.5464 129.499 77.3031 129.499V131.499C81.7957 131.499 85.2801 130.46 87.5009 128.15L86.0592 126.764ZM77.3031 129.499C73.1719 129.499 70.3492 128.527 68.6112 126.789L67.197 128.203C69.463 130.469 72.9063 131.499 77.3031 131.499V129.499ZM68.6112 126.789C66.8732 125.051 65.9011 122.228 65.9011 118.097H63.9011C63.9011 122.494 64.9309 125.937 67.197 128.203L68.6112 126.789ZM73.9631 114.509V123.674H75.9631V114.509H73.9631ZM74.9631 124.674H76.4061V122.674H74.9631V124.674ZM76.4061 124.674C77.5708 124.674 78.5828 124.562 79.2912 124.227L78.435 122.419C78.1554 122.552 77.5294 122.674 76.4061 122.674V124.674ZM79.2734 124.235C80.3206 123.764 80.6431 122.711 80.6431 121.685H78.6431C78.6431 122.023 78.5903 122.213 78.5452 122.308C78.5104 122.381 78.4829 122.397 78.4527 122.411L79.2734 124.235ZM80.6431 121.685V112.52H78.6431V121.685H80.6431ZM79.6431 111.52H78.2001V113.52H79.6431V111.52ZM78.2001 111.52C77.0286 111.52 76.0169 111.633 75.2937 111.959L76.1144 113.783C76.4312 113.64 77.0835 113.52 78.2001 113.52V111.52ZM75.276 111.967C74.2565 112.45 73.9631 113.508 73.9631 114.509H75.9631C75.9631 114.165 76.0141 113.968 76.0594 113.868C76.0954 113.789 76.1205 113.78 76.1322 113.775L75.276 111.967ZM107.131 108.776L107.852 109.469L107.856 109.464L107.131 108.776ZM126.085 108.776L125.36 109.464L125.364 109.469L126.085 108.776ZM126.085 127.457L126.806 128.15L126.81 128.145L126.085 127.457ZM107.209 127.496L106.502 128.203L107.209 127.496ZM114.268 123.674H113.268V124.674H114.268V123.674ZM118.168 123.323L117.757 122.411L117.748 122.415L117.74 122.419L118.168 123.323ZM118.948 112.52H119.948V111.52H118.948V112.52ZM115.009 112.871L114.598 111.959L114.589 111.963L114.581 111.967L115.009 112.871ZM105.206 118.097C105.206 114.045 106.151 111.237 107.852 109.469L106.41 108.083C104.21 110.371 103.206 113.777 103.206 118.097H105.206ZM107.856 109.464C109.536 107.695 112.368 106.695 116.608 106.695V104.695C112.112 104.695 108.626 105.749 106.406 108.087L107.856 109.464ZM116.608 106.695C120.848 106.695 123.68 107.695 125.36 109.464L126.81 108.087C124.59 105.749 121.104 104.695 116.608 104.695V106.695ZM125.364 109.469C127.064 111.237 128.01 114.045 128.01 118.097H130.01C130.01 113.777 129.005 110.371 126.806 108.083L125.364 109.469ZM128.01 118.097C128.01 122.147 127.065 124.972 125.36 126.768L126.81 128.145C129.005 125.833 130.01 122.418 130.01 118.097H128.01ZM125.364 126.764C123.685 128.51 120.851 129.499 116.608 129.499V131.499C121.1 131.499 124.585 130.46 126.806 128.15L125.364 126.764ZM116.608 129.499C112.477 129.499 109.654 128.527 107.916 126.789L106.502 128.203C108.768 130.469 112.211 131.499 116.608 131.499V129.499ZM107.916 126.789C106.178 125.051 105.206 122.228 105.206 118.097H103.206C103.206 122.494 104.236 125.937 106.502 128.203L107.916 126.789ZM113.268 114.509V123.674H115.268V114.509H113.268ZM114.268 124.674H115.711V122.674H114.268V124.674ZM115.711 124.674C116.875 124.674 117.887 124.562 118.596 124.227L117.74 122.419C117.46 122.552 116.834 122.674 115.711 122.674V124.674ZM118.578 124.235C119.625 123.764 119.948 122.711 119.948 121.685H117.948C117.948 122.023 117.895 122.213 117.85 122.308C117.815 122.381 117.788 122.397 117.757 122.411L118.578 124.235ZM119.948 121.685V112.52H117.948V121.685H119.948ZM118.948 111.52H117.505V113.52H118.948V111.52ZM117.505 111.52C116.333 111.52 115.322 111.633 114.598 111.959L115.419 113.783C115.736 113.64 116.388 113.52 117.505 113.52V111.52ZM114.581 111.967C113.561 112.45 113.268 113.508 113.268 114.509H115.268C115.268 114.165 115.319 113.968 115.364 113.868C115.4 113.789 115.425 113.78 115.437 113.775L114.581 111.967ZM132.754 137.519H131.754V138.597L132.829 138.516L132.754 137.519ZM132.754 106.397V105.397H131.754V106.397H132.754ZM137.434 106.397L138.24 105.806L137.941 105.397H137.434V106.397ZM139.15 108.737L138.344 109.328L139.181 110.47L139.977 109.299L139.15 108.737ZM151.513 106.709L151.044 107.592L151.513 106.709ZM154.594 109.439L153.768 110.002L153.775 110.013L153.783 110.024L154.594 109.439ZM156.31 113.378L155.334 113.597L155.336 113.605L155.338 113.613L156.31 113.378ZM156.388 122.582L155.412 122.365L156.388 122.582ZM154.828 126.326L155.654 126.89L155.66 126.881L154.828 126.326ZM151.942 128.861L151.479 127.974L151.942 128.861ZM142.114 129.797V128.797H141.114V129.797H142.114ZM142.114 136.817L142.189 137.814L143.114 137.745V136.817H142.114ZM142.114 114.275L141.115 114.225L141.114 114.25V114.275H142.114ZM142.114 123.674H141.114V124.674H142.114V123.674ZM146.014 123.323L145.604 122.411L145.595 122.415L145.586 122.419L146.014 123.323ZM146.794 112.52H147.794V111.52H146.794V112.52ZM142.621 113.105L143.261 113.873L143.279 113.858L143.297 113.842L142.621 113.105ZM133.754 137.519V106.397H131.754V137.519H133.754ZM132.754 107.397H137.434V105.397H132.754V107.397ZM136.628 106.988L138.344 109.328L139.956 108.146L138.24 105.806L136.628 106.988ZM139.977 109.299C141.087 107.666 143.228 106.695 146.794 106.695V104.695C142.924 104.695 139.969 105.752 138.323 108.175L139.977 109.299ZM146.794 106.695C148.55 106.695 149.951 107.012 151.044 107.592L151.982 105.826C150.527 105.054 148.782 104.695 146.794 104.695V106.695ZM151.044 107.592C152.181 108.195 153.083 108.998 153.768 110.002L155.42 108.876C154.545 107.592 153.393 106.574 151.982 105.826L151.044 107.592ZM153.783 110.024C154.501 111.019 155.022 112.204 155.334 113.597L157.286 113.159C156.922 111.535 156.299 110.094 155.405 108.854L153.783 110.024ZM155.338 113.613C155.682 115.04 155.856 116.534 155.856 118.097H157.856C157.856 116.384 157.666 114.732 157.282 113.143L155.338 113.613ZM155.856 118.097C155.856 119.617 155.707 121.039 155.412 122.365L157.364 122.799C157.694 121.317 157.856 119.748 157.856 118.097H155.856ZM155.412 122.365C155.124 123.66 154.649 124.791 153.996 125.771L155.66 126.881C156.463 125.676 157.028 124.312 157.364 122.799L155.412 122.365ZM154.002 125.762C153.371 126.686 152.537 127.423 151.479 127.974L152.405 129.747C153.74 129.051 154.829 128.098 155.654 126.89L154.002 125.762ZM151.479 127.974C150.464 128.504 149.151 128.797 147.496 128.797V130.797C149.377 130.797 151.028 130.465 152.405 129.747L151.479 127.974ZM147.496 128.797H142.114V130.797H147.496V128.797ZM141.114 129.797V136.817H143.114V129.797H141.114ZM142.039 135.82L132.679 136.522L132.829 138.516L142.189 137.814L142.039 135.82ZM141.114 114.275V123.674H143.114V114.275H141.114ZM142.114 124.674H143.557V122.674H142.114V124.674ZM143.557 124.674C144.722 124.674 145.734 124.562 146.442 124.227L145.586 122.419C145.306 122.552 144.68 122.674 143.557 122.674V124.674ZM146.424 124.235C147.472 123.764 147.794 122.711 147.794 121.685H145.794C145.794 122.023 145.741 122.213 145.696 122.308C145.661 122.381 145.634 122.397 145.604 122.411L146.424 124.235ZM147.794 121.685V112.52H145.794V121.685H147.794ZM146.794 111.52H145.351V113.52H146.794V111.52ZM145.351 111.52C144.655 111.52 144.063 111.546 143.589 111.606L143.837 113.59C144.195 113.545 144.695 113.52 145.351 113.52V111.52ZM143.589 111.606C142.965 111.684 142.409 111.943 141.945 112.368L143.297 113.842C143.457 113.695 143.629 113.616 143.837 113.59L143.589 111.606ZM141.981 112.337C141.398 112.823 141.151 113.509 141.115 114.225L143.113 114.325C143.129 114 143.221 113.907 143.261 113.873L141.981 112.337ZM169.721 121.841V120.841H168.721V121.841H169.721ZM169.721 123.479H168.721V124.374L169.61 124.473L169.721 123.479ZM181.343 122.231L182.33 122.074L182.148 120.928L181.042 121.277L181.343 122.231ZM182.435 129.095L182.693 130.061L183.564 129.829L183.422 128.938L182.435 129.095ZM162.584 127.457L161.859 128.145L161.863 128.15L162.584 127.457ZM162.584 108.776L161.863 108.083L161.863 108.083L162.584 108.776ZM177.521 106.124L177.328 107.105L177.337 107.107L177.345 107.108L177.521 106.124ZM181.031 107.489L180.438 108.295L180.452 108.304L180.465 108.314L181.031 107.489ZM182.942 110.063L181.993 110.379L181.998 110.393L182.003 110.406L182.942 110.063ZM182.825 117.629L181.921 117.201L181.916 117.211L182.825 117.629ZM180.563 120.008L180.058 119.145L180.563 120.008ZM176.312 121.412L176.472 122.399L176.479 122.398L176.486 122.397L176.312 121.412ZM169.721 116.42H168.721V117.42H169.721V116.42ZM174.089 116.069L173.679 115.157L173.67 115.161L173.661 115.165L174.089 116.069ZM174.869 112.52H175.869V111.52H174.869V112.52ZM170.462 112.871L170.052 111.959L170.043 111.963L170.034 111.967L170.462 112.871ZM168.721 121.841V123.479H170.721V121.841H168.721ZM169.61 124.473C170.097 124.527 170.583 124.567 171.069 124.594L171.18 122.597C170.731 122.572 170.281 122.535 169.831 122.485L169.61 124.473ZM171.069 124.594C171.556 124.621 172.042 124.635 172.529 124.635V122.635C172.079 122.635 171.63 122.622 171.18 122.597L171.069 124.594ZM172.529 124.635C175.55 124.635 178.589 124.149 181.644 123.184L181.042 121.277C178.169 122.185 175.332 122.635 172.529 122.635V124.635ZM180.355 122.388L181.447 129.252L183.422 128.938L182.33 122.074L180.355 122.388ZM182.177 128.129C178.746 129.044 175.374 129.499 172.061 129.499V131.499C175.559 131.499 179.104 131.018 182.693 130.061L182.177 128.129ZM172.061 129.499C167.818 129.499 164.984 128.51 163.305 126.764L161.863 128.15C164.084 130.46 167.568 131.499 172.061 131.499V129.499ZM163.309 126.768C161.604 124.972 160.659 122.147 160.659 118.097H158.659C158.659 122.418 159.664 125.833 161.859 128.145L163.309 126.768ZM160.659 118.097C160.659 114.045 161.605 111.237 163.305 109.469L161.863 108.083C159.663 110.371 158.659 113.777 158.659 118.097H160.659ZM163.305 109.469C165.013 107.693 167.85 106.695 172.061 106.695V104.695C167.588 104.695 164.107 105.75 161.863 108.083L163.305 109.469ZM172.061 106.695C174.207 106.695 175.958 106.836 177.328 107.105L177.714 105.143C176.172 104.84 174.282 104.695 172.061 104.695V106.695ZM177.345 107.108C178.7 107.35 179.713 107.761 180.438 108.295L181.623 106.683C180.581 105.917 179.254 105.417 177.697 105.139L177.345 107.108ZM180.465 108.314C181.188 108.809 181.695 109.484 181.993 110.379L183.891 109.747C183.461 108.458 182.694 107.417 181.596 106.664L180.465 108.314ZM182.003 110.406C182.339 111.325 182.527 112.551 182.527 114.119H184.527C184.527 112.411 184.325 110.933 183.881 109.719L182.003 110.406ZM182.527 114.119C182.527 115.357 182.313 116.374 181.921 117.201L183.729 118.057C184.273 116.907 184.527 115.585 184.527 114.119H182.527ZM181.916 117.211C181.573 117.957 180.977 118.607 180.058 119.145L181.068 120.871C182.281 120.161 183.192 119.224 183.734 118.046L181.916 117.211ZM180.058 119.145C179.129 119.688 177.838 120.127 176.138 120.427L176.486 122.397C178.322 122.073 179.865 121.575 181.068 120.871L180.058 119.145ZM176.152 120.425C174.455 120.699 172.316 120.841 169.721 120.841V122.841C172.378 122.841 174.633 122.697 176.472 122.399L176.152 120.425ZM168.721 114.509V116.42H170.721V114.509H168.721ZM169.721 117.42H171.632V115.42H169.721V117.42ZM171.632 117.42C172.797 117.42 173.809 117.308 174.517 116.973L173.661 115.165C173.381 115.298 172.755 115.42 171.632 115.42V117.42ZM174.499 116.981C175.546 116.51 175.869 115.457 175.869 114.431H173.869C173.869 114.769 173.816 114.959 173.771 115.054C173.736 115.127 173.709 115.143 173.679 115.157L174.499 116.981ZM175.869 114.431V112.52H173.869V114.431H175.869ZM174.869 111.52H172.958V113.52H174.869V111.52ZM172.958 111.52C171.786 111.52 170.775 111.633 170.052 111.959L170.872 113.783C171.189 113.64 171.841 113.52 172.958 113.52V111.52ZM170.034 111.967C169.014 112.45 168.721 113.508 168.721 114.509H170.721C170.721 114.165 170.772 113.968 170.817 113.868C170.853 113.789 170.878 113.78 170.89 113.775L170.034 111.967ZM187.027 106.397V105.397H186.027V106.397H187.027ZM191.707 106.397L192.414 105.69L192.121 105.397H191.707V106.397ZM194.047 108.737L193.339 109.444L193.934 110.038L194.621 109.555L194.047 108.737ZM208.555 107.138L207.936 107.924L207.945 107.931L207.955 107.938L208.555 107.138ZM210.427 129.797V130.797H211.427V129.797H210.427ZM201.067 129.797H200.067V130.797H201.067V129.797ZM201.067 113.417H202.067V112.417H201.067V113.417ZM197.206 113.768L197.562 114.702L197.581 114.695L197.599 114.687L197.206 113.768ZM196.387 129.797V130.797H197.387V129.797H196.387ZM187.027 129.797H186.027V130.797H187.027V129.797ZM187.027 107.397H191.707V105.397H187.027V107.397ZM190.999 107.104L193.339 109.444L194.754 108.03L192.414 105.69L190.999 107.104ZM194.621 109.555C197.348 107.639 200.269 106.695 203.407 106.695V104.695C199.836 104.695 196.517 105.779 193.472 107.919L194.621 109.555ZM203.407 106.695C205.484 106.695 206.951 107.148 207.936 107.924L209.173 106.352C207.714 105.203 205.749 104.695 203.407 104.695V106.695ZM207.955 107.938C208.927 108.667 209.427 109.671 209.427 111.077H211.427C211.427 109.103 210.678 107.48 209.155 106.338L207.955 107.938ZM209.427 111.077V129.797H211.427V111.077H209.427ZM210.427 128.797H201.067V130.797H210.427V128.797ZM202.067 129.797V113.417H200.067V129.797H202.067ZM201.067 112.417H199.624V114.417H201.067V112.417ZM199.624 112.417C198.513 112.417 197.545 112.535 196.812 112.849L197.599 114.687C197.958 114.533 198.602 114.417 199.624 114.417V112.417ZM196.85 112.833C196.372 113.015 195.98 113.336 195.722 113.791C195.474 114.227 195.387 114.721 195.387 115.211H197.387C197.387 114.947 197.435 114.823 197.461 114.778C197.476 114.752 197.493 114.729 197.562 114.702L196.85 112.833ZM195.387 115.211V129.797H197.387V115.211H195.387ZM196.387 128.797H187.027V130.797H196.387V128.797ZM188.027 129.797V106.397H186.027V129.797H188.027Z" fill="white"/>
<path d="M5 5V59.4688H14.7351V14.7073H66.3854V5H5Z" stroke="white" stroke-width="2"/>
<path d="M254 173.594V119.125H244.265V163.886H192.615V173.594H254Z" stroke="white" stroke-width="2"/>
</g>
<g filter="url(#filter1_d_9_6563)">
<path d="M96.323 72.4119L97.3191 72.3231L97.2042 71.0342L95.986 71.4704L96.323 72.4119ZM97.025 80.2899L97.3985 81.2175L98.087 80.9403L98.0211 80.2011L97.025 80.2899ZM82.712 80.6019L82.3877 81.5479L82.3999 81.5519L82.712 80.6019ZM78.383 77.7939L79.1434 77.1444L78.383 77.7939ZM76.121 73.0359L75.1435 73.2472L75.1464 73.2598L76.121 73.0359ZM76.082 59.5419L75.1046 59.3305L75.1025 59.3406L76.082 59.5419ZM78.266 54.7449L79.0407 55.3773L79.0469 55.3696L78.266 54.7449ZM82.478 51.8199L82.1374 50.8797L82.133 50.8813L82.478 51.8199ZM91.253 50.9619L91.1465 51.9562L91.1653 51.9582L91.1842 51.9595L91.253 50.9619ZM93.437 51.1959L93.2905 52.1851L93.2956 52.1858L93.437 51.1959ZM95.465 51.5859L95.2225 52.556L95.2456 52.5618L95.2689 52.5665L95.465 51.5859ZM97.025 52.0539L98.0064 52.2459L98.1566 51.4784L97.4479 51.1477L97.025 52.0539ZM95.621 59.2299L95.4132 60.208L96.4073 60.4193L96.6024 59.4219L95.621 59.2299ZM85.559 73.1529H84.559V73.9588L85.3466 74.1301L85.559 73.1529ZM87.353 73.4649L87.2237 74.4565L87.2468 74.4595L87.27 74.4614L87.353 73.4649ZM95.327 72.5006L96.029 80.3786L98.0211 80.2011L97.3191 72.3231L95.327 72.5006ZM96.6516 79.3622C94.8028 80.1066 92.4684 80.4989 89.615 80.4989V82.4989C92.6377 82.4989 95.2433 82.0852 97.3985 81.2175L96.6516 79.3622ZM89.615 80.4989C86.8956 80.4989 84.7091 80.2055 83.0242 79.6518L82.3999 81.5519C84.355 82.1943 86.7705 82.4989 89.615 82.4989V80.4989ZM83.0364 79.6559C81.3562 79.0799 80.0745 78.2345 79.1434 77.1444L77.6227 78.4434C78.8236 79.8493 80.4279 80.8759 82.3877 81.5478L83.0364 79.6559ZM79.1434 77.1444C78.2013 76.0414 77.5088 74.6105 77.0956 72.812L75.1464 73.2598C75.6172 75.3092 76.4328 77.0504 77.6227 78.4434L79.1434 77.1444ZM77.0984 72.8245C76.7015 70.9886 76.497 68.7878 76.497 66.2109H74.497C74.497 68.8859 74.7086 71.2352 75.1436 73.2472L77.0984 72.8245ZM76.497 66.2109C76.497 63.7107 76.6887 61.558 77.0616 59.7431L75.1025 59.3406C74.6954 61.3218 74.497 63.6151 74.497 66.2109H76.497ZM77.0595 59.7532C77.4486 57.9534 78.1184 56.507 79.0407 55.3772L77.4914 54.1125C76.3336 55.5307 75.5475 57.2823 75.1046 59.3305L77.0595 59.7532ZM79.0469 55.3696C79.9586 54.23 81.2032 53.354 82.8231 52.7585L82.133 50.8813C80.2168 51.5858 78.6535 52.6598 77.4852 54.1202L79.0469 55.3696ZM82.8187 52.7601C84.4674 52.1627 86.6044 51.8449 89.264 51.8449V49.8449C86.4637 49.8449 84.0767 50.177 82.1374 50.8797L82.8187 52.7601ZM89.264 51.8449C89.8196 51.8449 90.4464 51.8812 91.1465 51.9562L91.3596 49.9676C90.6037 49.8866 89.9045 49.8449 89.264 49.8449V51.8449ZM91.1842 51.9595C91.9139 52.0098 92.6159 52.0851 93.2905 52.1851L93.5836 50.2067C92.8542 50.0986 92.1002 50.0179 91.3218 49.9642L91.1842 51.9595ZM93.2956 52.1858C93.9943 52.2856 94.6362 52.4094 95.2225 52.556L95.7076 50.6157C95.0459 50.4503 94.3358 50.3141 93.5785 50.2059L93.2956 52.1858ZM95.2689 52.5665C95.8779 52.6882 96.3123 52.8248 96.6022 52.9601L97.4479 51.1477C96.9578 50.919 96.3522 50.7435 95.6612 50.6053L95.2689 52.5665ZM96.0436 51.8619L94.6396 59.0379L96.6024 59.4219L98.0064 52.2459L96.0436 51.8619ZM95.8289 58.2517C93.6996 57.7992 91.769 57.5669 90.044 57.5669V59.5669C91.5951 59.5669 93.3825 59.7765 95.4132 60.208L95.8289 58.2517ZM90.044 57.5669C88.3538 57.5669 86.9761 57.7134 86.1013 58.1334L86.9668 59.9364C87.392 59.7323 88.3543 59.5669 90.044 59.5669V57.5669ZM86.1013 58.1334C84.9965 58.6637 84.559 59.7228 84.559 60.9069H86.559C86.559 60.219 86.7716 60.0301 86.9668 59.9364L86.1013 58.1334ZM84.559 60.9069V73.1529H86.559V60.9069H84.559ZM85.3466 74.1301C85.9717 74.2659 86.5974 74.3748 87.2237 74.4565L87.4824 72.4733C86.9127 72.399 86.3424 72.2998 85.7715 72.1757L85.3466 74.1301ZM87.27 74.4614C87.9226 74.5158 88.5874 74.5429 89.264 74.5429V72.5429C88.6407 72.5429 88.0314 72.5179 87.4361 72.4683L87.27 74.4614ZM89.264 74.5429C91.9606 74.5429 94.43 74.1518 96.6601 73.3534L95.986 71.4704C94.0041 72.18 91.7674 72.5429 89.264 72.5429V74.5429ZM119.006 73.3089H120.006V72.3089H119.006V73.3089ZM119.006 80.7969V81.7969H120.006V80.7969H119.006ZM100.286 80.7969H99.2858V81.7969H100.286V80.7969ZM100.286 51.5469V50.5469H99.2858V51.5469H100.286ZM109.646 51.5469H110.646V50.5469H109.646V51.5469ZM109.646 73.3089H108.646V74.3089H109.646V73.3089ZM118.006 73.3089V80.7969H120.006V73.3089H118.006ZM119.006 79.7969H100.286V81.7969H119.006V79.7969ZM101.286 80.7969V51.5469H99.2858V80.7969H101.286ZM100.286 52.5469H109.646V50.5469H100.286V52.5469ZM108.646 51.5469V73.3089H110.646V51.5469H108.646ZM109.646 74.3089H119.006V72.3089H109.646V74.3089ZM130.936 80.7969V81.7969H131.936V80.7969H130.936ZM121.576 80.7969H120.576V81.7969H121.576V80.7969ZM121.576 51.5469V50.5469H120.576V51.5469H121.576ZM130.936 51.5469H131.936V50.5469H130.936V51.5469ZM130.936 79.7969H121.576V81.7969H130.936V79.7969ZM122.576 80.7969V51.5469H120.576V80.7969H122.576ZM121.576 52.5469H130.936V50.5469H121.576V52.5469ZM129.936 51.5469V80.7969H131.936V51.5469H129.936ZM155.052 72.4119L156.048 72.3231L155.933 71.0342L154.714 71.4704L155.052 72.4119ZM155.754 80.2899L156.127 81.2175L156.815 80.9403L156.75 80.2011L155.754 80.2899ZM141.441 80.6019L141.116 81.5479L141.128 81.5519L141.441 80.6019ZM137.112 77.7939L137.872 77.1444L137.112 77.7939ZM134.85 73.0359L133.872 73.2472L133.875 73.2598L134.85 73.0359ZM134.811 59.5419L133.833 59.3305L133.831 59.3406L134.811 59.5419ZM136.995 54.7449L137.769 55.3773L137.775 55.3696L136.995 54.7449ZM141.207 51.8199L140.866 50.8797L140.861 50.8813L141.207 51.8199ZM149.982 50.9619L149.875 51.9562L149.894 51.9582L149.913 51.9595L149.982 50.9619ZM152.166 51.1959L152.019 52.1851L152.024 52.1858L152.166 51.1959ZM154.194 51.5859L153.951 52.556L153.974 52.5618L153.997 52.5665L154.194 51.5859ZM155.754 52.0539L156.735 52.2459L156.885 51.4784L156.176 51.1477L155.754 52.0539ZM154.35 59.2299L154.142 60.208L155.136 60.4193L155.331 59.4219L154.35 59.2299ZM144.288 73.1529H143.288V73.9588L144.075 74.1301L144.288 73.1529ZM146.082 73.4649L145.952 74.4565L145.975 74.4595L145.999 74.4614L146.082 73.4649ZM154.055 72.5006L154.757 80.3786L156.75 80.2011L156.048 72.3231L154.055 72.5006ZM155.38 79.3622C153.531 80.1066 151.197 80.4989 148.344 80.4989V82.4989C151.366 82.4989 153.972 82.0852 156.127 81.2175L155.38 79.3622ZM148.344 80.4989C145.624 80.4989 143.438 80.2055 141.753 79.6518L141.128 81.5519C143.084 82.1943 145.499 82.4989 148.344 82.4989V80.4989ZM141.765 79.6559C140.085 79.0799 138.803 78.2345 137.872 77.1444L136.351 78.4434C137.552 79.8493 139.156 80.8759 141.116 81.5478L141.765 79.6559ZM137.872 77.1444C136.93 76.0414 136.237 74.6105 135.824 72.812L133.875 73.2598C134.346 75.3092 135.161 77.0504 136.351 78.4434L137.872 77.1444ZM135.827 72.8245C135.43 70.9886 135.226 68.7878 135.226 66.2109H133.226C133.226 68.8859 133.437 71.2352 133.872 73.2472L135.827 72.8245ZM135.226 66.2109C135.226 63.7107 135.417 61.558 135.79 59.7431L133.831 59.3406C133.424 61.3218 133.226 63.6151 133.226 66.2109H135.226ZM135.788 59.7532C136.177 57.9534 136.847 56.507 137.769 55.3772L136.22 54.1125C135.062 55.5307 134.276 57.2823 133.833 59.3305L135.788 59.7532ZM137.775 55.3696C138.687 54.23 139.932 53.354 141.552 52.7585L140.861 50.8813C138.945 51.5858 137.382 52.6598 136.214 54.1202L137.775 55.3696ZM141.547 52.7601C143.196 52.1627 145.333 51.8449 147.993 51.8449V49.8449C145.192 49.8449 142.805 50.177 140.866 50.8797L141.547 52.7601ZM147.993 51.8449C148.548 51.8449 149.175 51.8812 149.875 51.9562L150.088 49.9676C149.332 49.8866 148.633 49.8449 147.993 49.8449V51.8449ZM149.913 51.9595C150.642 52.0098 151.344 52.0851 152.019 52.1851L152.312 50.2067C151.583 50.0986 150.829 50.0179 150.05 49.9642L149.913 51.9595ZM152.024 52.1858C152.723 52.2856 153.365 52.4094 153.951 52.556L154.436 50.6157C153.774 50.4503 153.064 50.3141 152.307 50.2059L152.024 52.1858ZM153.997 52.5665C154.606 52.6882 155.041 52.8248 155.331 52.9601L156.176 51.1477C155.686 50.919 155.081 50.7435 154.39 50.6053L153.997 52.5665ZM154.772 51.8619L153.368 59.0379L155.331 59.4219L156.735 52.2459L154.772 51.8619ZM154.557 58.2517C152.428 57.7992 150.498 57.5669 148.773 57.5669V59.5669C150.324 59.5669 152.111 59.7765 154.142 60.208L154.557 58.2517ZM148.773 57.5669C147.082 57.5669 145.705 57.7134 144.83 58.1334L145.695 59.9364C146.12 59.7323 147.083 59.5669 148.773 59.5669V57.5669ZM144.83 58.1334C143.725 58.6637 143.288 59.7228 143.288 60.9069H145.288C145.288 60.219 145.5 60.0301 145.695 59.9364L144.83 58.1334ZM143.288 60.9069V73.1529H145.288V60.9069H143.288ZM144.075 74.1301C144.7 74.2659 145.326 74.3748 145.952 74.4565L146.211 72.4733C145.641 72.399 145.071 72.2998 144.5 72.1757L144.075 74.1301ZM145.999 74.4614C146.651 74.5158 147.316 74.5429 147.993 74.5429V72.5429C147.369 72.5429 146.76 72.5179 146.165 72.4683L145.999 74.4614ZM147.993 74.5429C150.689 74.5429 153.158 74.1518 155.389 73.3534L154.714 71.4704C152.733 72.18 150.496 72.5429 147.993 72.5429V74.5429ZM168.569 68.0829L169.568 68.0274L169.515 67.0829H168.569V68.0829ZM168.374 68.0829V67.0829H167.374V68.0829H168.374ZM168.374 80.7969V81.7969H169.374V80.7969H168.374ZM159.014 80.7969H158.014V81.7969H159.014V80.7969ZM159.014 51.5469V50.5469H158.014V51.5469H159.014ZM168.374 51.5469H169.374V50.5469H168.374V51.5469ZM168.374 63.4809H167.374V64.4809H168.374V63.4809ZM168.569 63.4809V64.4809H169.515L169.568 63.5363L168.569 63.4809ZM168.725 62.2329L169.703 62.4424L169.706 62.429L168.725 62.2329ZM169.037 61.2189L168.133 60.7922L168.13 60.7986L168.127 60.8051L169.037 61.2189ZM173.6 51.5469V50.5469H172.966L172.696 51.1202L173.6 51.5469ZM183.74 51.5469L184.639 51.9863L185.343 50.5469H183.74V51.5469ZM176.72 65.8989L175.822 65.4595L175.608 65.8979L175.821 66.3366L176.72 65.8989ZM183.974 80.7969V81.7969H185.573L184.873 80.3591L183.974 80.7969ZM173.834 80.7969L172.925 81.2127L173.192 81.7969H173.834V80.7969ZM169.037 70.3059L168.127 70.7197L168.128 70.7217L169.037 70.3059ZM168.725 69.3309L167.748 69.5404L168.725 69.3309ZM168.569 67.0829H168.374V69.0829H168.569V67.0829ZM167.374 68.0829V80.7969H169.374V68.0829H167.374ZM168.374 79.7969H159.014V81.7969H168.374V79.7969ZM160.014 80.7969V51.5469H158.014V80.7969H160.014ZM159.014 52.5469H168.374V50.5469H159.014V52.5469ZM167.374 51.5469V63.4809H169.374V51.5469H167.374ZM168.374 64.4809H168.569V62.4809H168.374V64.4809ZM169.568 63.5363C169.592 63.1075 169.638 62.7446 169.703 62.4424L167.748 62.0233C167.656 62.4491 167.599 62.9182 167.571 63.4254L169.568 63.5363ZM169.706 62.429C169.773 62.0952 169.856 61.8335 169.948 61.6327L168.127 60.8051C167.958 61.1763 167.834 61.5906 167.745 62.0368L169.706 62.429ZM169.942 61.6455L174.505 51.9735L172.696 51.1202L168.133 60.7922L169.942 61.6455ZM173.6 52.5469H183.74V50.5469H173.6V52.5469ZM182.842 51.1075L175.822 65.4595L177.619 66.3383L184.639 51.9863L182.842 51.1075ZM175.821 66.3366L183.075 81.2346L184.873 80.3591L177.619 65.4611L175.821 66.3366ZM183.974 79.7969H173.834V81.7969H183.974V79.7969ZM174.744 80.381L169.947 69.89L168.128 70.7217L172.925 81.2127L174.744 80.381ZM169.948 69.8921C169.852 69.6822 169.769 69.4275 169.703 69.1213L167.748 69.5404C167.838 69.9622 167.962 70.3575 168.127 70.7197L169.948 69.8921ZM169.703 69.1213C169.638 68.8191 169.592 68.4562 169.568 68.0274L167.571 68.1383C167.599 68.6455 167.656 69.1146 167.748 69.5404L169.703 69.1213ZM49.7487 112.442H50.7487V111.442H49.7487V112.442ZM47.4087 112.442H46.4087V113.442H47.4087V112.442ZM47.4087 106.397V105.397H46.4087V106.397H47.4087ZM49.7487 106.397V107.397H50.7487V106.397H49.7487ZM49.7487 102.653L49.5061 101.683L48.7487 101.872V102.653H49.7487ZM59.1087 100.313H60.1087V99.0321L58.8661 99.3427L59.1087 100.313ZM59.1087 106.397H58.1087V107.397H59.1087V106.397ZM62.3457 106.397H63.3457V105.397H62.3457V106.397ZM62.3457 112.442V113.442H63.3457V112.442H62.3457ZM59.1087 112.442V111.442H58.1087V112.442H59.1087ZM59.1087 123.089H58.1087V123.909L58.9125 124.069L59.1087 123.089ZM60.3957 123.323L60.2313 124.309L60.2581 124.314L60.2852 124.317L60.3957 123.323ZM61.8777 123.44L62.8757 123.502L62.9389 122.492L61.9276 122.441L61.8777 123.44ZM61.4487 130.304V131.304H62.3881L62.4467 130.366L61.4487 130.304ZM53.1027 129.602L53.4414 128.661L53.439 128.66L53.1027 129.602ZM50.6067 128.12L49.8695 128.796L49.8767 128.803L49.884 128.811L50.6067 128.12ZM49.7487 111.442H47.4087V113.442H49.7487V111.442ZM48.4087 112.442V106.397H46.4087V112.442H48.4087ZM47.4087 107.397H49.7487V105.397H47.4087V107.397ZM50.7487 106.397V102.653H48.7487V106.397H50.7487ZM49.9912 103.623L59.3512 101.283L58.8661 99.3427L49.5061 101.683L49.9912 103.623ZM58.1087 100.313V106.397H60.1087V100.313H58.1087ZM59.1087 107.397H62.3457V105.397H59.1087V107.397ZM61.3457 106.397V112.442H63.3457V106.397H61.3457ZM62.3457 111.442H59.1087V113.442H62.3457V111.442ZM58.1087 112.442V123.089H60.1087V112.442H58.1087ZM58.9125 124.069C59.3149 124.15 59.7546 124.23 60.2313 124.309L60.5601 122.336C60.1007 122.26 59.6825 122.184 59.3048 122.108L58.9125 124.069ZM60.2852 124.317C60.7753 124.371 61.2896 124.412 61.8277 124.439L61.9276 122.441C61.4257 122.416 60.952 122.379 60.5061 122.329L60.2852 124.317ZM60.8796 123.377L60.4506 130.241L62.4467 130.366L62.8757 123.502L60.8796 123.377ZM61.4487 129.304C59.3317 129.304 57.6007 129.246 56.248 129.132C54.8744 129.016 53.9625 128.849 53.4414 128.661L52.7639 130.543C53.5428 130.823 54.6719 131.006 56.0803 131.125C57.5097 131.245 59.3016 131.304 61.4487 131.304V129.304ZM53.439 128.66C52.4383 128.303 51.7595 127.878 51.3293 127.429L49.884 128.811C50.5978 129.557 51.583 130.121 52.7663 130.544L53.439 128.66ZM51.3438 127.444C50.9996 127.069 50.7487 126.439 50.7487 125.39H48.7487C48.7487 126.733 49.0697 127.923 49.8695 128.796L51.3438 127.444ZM50.7487 125.39V112.442H48.7487V125.39H50.7487ZM67.8261 108.776L68.5469 109.469L68.5513 109.464L67.8261 108.776ZM86.7801 108.776L86.0548 109.464L86.0592 109.469L86.7801 108.776ZM86.7801 127.457L87.5009 128.15L87.5053 128.145L86.7801 127.457ZM67.9041 127.496L67.197 128.203L67.9041 127.496ZM74.9631 123.674H73.9631V124.674H74.9631V123.674ZM78.8631 123.323L78.4527 122.411L78.4438 122.415L78.435 122.419L78.8631 123.323ZM79.6431 112.52H80.6431V111.52H79.6431V112.52ZM75.7041 112.871L75.2937 111.959L75.2848 111.963L75.276 111.967L75.7041 112.871ZM65.9011 118.097C65.9011 114.045 66.8468 111.237 68.5469 109.469L67.1052 108.083C64.9053 110.371 63.9011 113.777 63.9011 118.097H65.9011ZM68.5513 109.464C70.231 107.695 73.0628 106.695 77.3031 106.695V104.695C72.8073 104.695 69.3211 105.749 67.1008 108.087L68.5513 109.464ZM77.3031 106.695C81.5433 106.695 84.3751 107.695 86.0548 109.464L87.5053 108.087C85.285 105.749 81.7988 104.695 77.3031 104.695V106.695ZM86.0592 109.469C87.7594 111.237 88.7051 114.045 88.7051 118.097H90.7051C90.7051 113.777 89.7008 110.371 87.5009 108.083L86.0592 109.469ZM88.7051 118.097C88.7051 122.147 87.7599 124.972 86.0548 126.768L87.5053 128.145C89.7003 125.833 90.7051 122.418 90.7051 118.097H88.7051ZM86.0592 126.764C84.38 128.51 81.5464 129.499 77.3031 129.499V131.499C81.7957 131.499 85.2801 130.46 87.5009 128.15L86.0592 126.764ZM77.3031 129.499C73.1719 129.499 70.3492 128.527 68.6112 126.789L67.197 128.203C69.463 130.469 72.9063 131.499 77.3031 131.499V129.499ZM68.6112 126.789C66.8732 125.051 65.9011 122.228 65.9011 118.097H63.9011C63.9011 122.494 64.9309 125.937 67.197 128.203L68.6112 126.789ZM73.9631 114.509V123.674H75.9631V114.509H73.9631ZM74.9631 124.674H76.4061V122.674H74.9631V124.674ZM76.4061 124.674C77.5708 124.674 78.5828 124.562 79.2912 124.227L78.435 122.419C78.1554 122.552 77.5294 122.674 76.4061 122.674V124.674ZM79.2734 124.235C80.3206 123.764 80.6431 122.711 80.6431 121.685H78.6431C78.6431 122.023 78.5903 122.213 78.5452 122.308C78.5104 122.381 78.4829 122.397 78.4527 122.411L79.2734 124.235ZM80.6431 121.685V112.52H78.6431V121.685H80.6431ZM79.6431 111.52H78.2001V113.52H79.6431V111.52ZM78.2001 111.52C77.0286 111.52 76.0169 111.633 75.2937 111.959L76.1144 113.783C76.4312 113.64 77.0835 113.52 78.2001 113.52V111.52ZM75.276 111.967C74.2565 112.45 73.9631 113.508 73.9631 114.509H75.9631C75.9631 114.165 76.0141 113.968 76.0594 113.868C76.0954 113.789 76.1205 113.78 76.1322 113.775L75.276 111.967ZM107.131 108.776L107.852 109.469L107.856 109.464L107.131 108.776ZM126.085 108.776L125.36 109.464L125.364 109.469L126.085 108.776ZM126.085 127.457L126.806 128.15L126.81 128.145L126.085 127.457ZM107.209 127.496L106.502 128.203L107.209 127.496ZM114.268 123.674H113.268V124.674H114.268V123.674ZM118.168 123.323L117.757 122.411L117.748 122.415L117.74 122.419L118.168 123.323ZM118.948 112.52H119.948V111.52H118.948V112.52ZM115.009 112.871L114.598 111.959L114.589 111.963L114.581 111.967L115.009 112.871ZM105.206 118.097C105.206 114.045 106.151 111.237 107.852 109.469L106.41 108.083C104.21 110.371 103.206 113.777 103.206 118.097H105.206ZM107.856 109.464C109.536 107.695 112.368 106.695 116.608 106.695V104.695C112.112 104.695 108.626 105.749 106.406 108.087L107.856 109.464ZM116.608 106.695C120.848 106.695 123.68 107.695 125.36 109.464L126.81 108.087C124.59 105.749 121.104 104.695 116.608 104.695V106.695ZM125.364 109.469C127.064 111.237 128.01 114.045 128.01 118.097H130.01C130.01 113.777 129.005 110.371 126.806 108.083L125.364 109.469ZM128.01 118.097C128.01 122.147 127.065 124.972 125.36 126.768L126.81 128.145C129.005 125.833 130.01 122.418 130.01 118.097H128.01ZM125.364 126.764C123.685 128.51 120.851 129.499 116.608 129.499V131.499C121.1 131.499 124.585 130.46 126.806 128.15L125.364 126.764ZM116.608 129.499C112.477 129.499 109.654 128.527 107.916 126.789L106.502 128.203C108.768 130.469 112.211 131.499 116.608 131.499V129.499ZM107.916 126.789C106.178 125.051 105.206 122.228 105.206 118.097H103.206C103.206 122.494 104.236 125.937 106.502 128.203L107.916 126.789ZM113.268 114.509V123.674H115.268V114.509H113.268ZM114.268 124.674H115.711V122.674H114.268V124.674ZM115.711 124.674C116.875 124.674 117.887 124.562 118.596 124.227L117.74 122.419C117.46 122.552 116.834 122.674 115.711 122.674V124.674ZM118.578 124.235C119.625 123.764 119.948 122.711 119.948 121.685H117.948C117.948 122.023 117.895 122.213 117.85 122.308C117.815 122.381 117.788 122.397 117.757 122.411L118.578 124.235ZM119.948 121.685V112.52H117.948V121.685H119.948ZM118.948 111.52H117.505V113.52H118.948V111.52ZM117.505 111.52C116.333 111.52 115.322 111.633 114.598 111.959L115.419 113.783C115.736 113.64 116.388 113.52 117.505 113.52V111.52ZM114.581 111.967C113.561 112.45 113.268 113.508 113.268 114.509H115.268C115.268 114.165 115.319 113.968 115.364 113.868C115.4 113.789 115.425 113.78 115.437 113.775L114.581 111.967ZM132.754 137.519H131.754V138.597L132.829 138.516L132.754 137.519ZM132.754 106.397V105.397H131.754V106.397H132.754ZM137.434 106.397L138.24 105.806L137.941 105.397H137.434V106.397ZM139.15 108.737L138.344 109.328L139.181 110.47L139.977 109.299L139.15 108.737ZM151.513 106.709L151.044 107.592L151.513 106.709ZM154.594 109.439L153.768 110.002L153.775 110.013L153.783 110.024L154.594 109.439ZM156.31 113.378L155.334 113.597L155.336 113.605L155.338 113.613L156.31 113.378ZM156.388 122.582L155.412 122.365L156.388 122.582ZM154.828 126.326L155.654 126.89L155.66 126.881L154.828 126.326ZM151.942 128.861L151.479 127.974L151.942 128.861ZM142.114 129.797V128.797H141.114V129.797H142.114ZM142.114 136.817L142.189 137.814L143.114 137.745V136.817H142.114ZM142.114 114.275L141.115 114.225L141.114 114.25V114.275H142.114ZM142.114 123.674H141.114V124.674H142.114V123.674ZM146.014 123.323L145.604 122.411L145.595 122.415L145.586 122.419L146.014 123.323ZM146.794 112.52H147.794V111.52H146.794V112.52ZM142.621 113.105L143.261 113.873L143.279 113.858L143.297 113.842L142.621 113.105ZM133.754 137.519V106.397H131.754V137.519H133.754ZM132.754 107.397H137.434V105.397H132.754V107.397ZM136.628 106.988L138.344 109.328L139.956 108.146L138.24 105.806L136.628 106.988ZM139.977 109.299C141.087 107.666 143.228 106.695 146.794 106.695V104.695C142.924 104.695 139.969 105.752 138.323 108.175L139.977 109.299ZM146.794 106.695C148.55 106.695 149.951 107.012 151.044 107.592L151.982 105.826C150.527 105.054 148.782 104.695 146.794 104.695V106.695ZM151.044 107.592C152.181 108.195 153.083 108.998 153.768 110.002L155.42 108.876C154.545 107.592 153.393 106.574 151.982 105.826L151.044 107.592ZM153.783 110.024C154.501 111.019 155.022 112.204 155.334 113.597L157.286 113.159C156.922 111.535 156.299 110.094 155.405 108.854L153.783 110.024ZM155.338 113.613C155.682 115.04 155.856 116.534 155.856 118.097H157.856C157.856 116.384 157.666 114.732 157.282 113.143L155.338 113.613ZM155.856 118.097C155.856 119.617 155.707 121.039 155.412 122.365L157.364 122.799C157.694 121.317 157.856 119.748 157.856 118.097H155.856ZM155.412 122.365C155.124 123.66 154.649 124.791 153.996 125.771L155.66 126.881C156.463 125.676 157.028 124.312 157.364 122.799L155.412 122.365ZM154.002 125.762C153.371 126.686 152.537 127.423 151.479 127.974L152.405 129.747C153.74 129.051 154.829 128.098 155.654 126.89L154.002 125.762ZM151.479 127.974C150.464 128.504 149.151 128.797 147.496 128.797V130.797C149.377 130.797 151.028 130.465 152.405 129.747L151.479 127.974ZM147.496 128.797H142.114V130.797H147.496V128.797ZM141.114 129.797V136.817H143.114V129.797H141.114ZM142.039 135.82L132.679 136.522L132.829 138.516L142.189 137.814L142.039 135.82ZM141.114 114.275V123.674H143.114V114.275H141.114ZM142.114 124.674H143.557V122.674H142.114V124.674ZM143.557 124.674C144.722 124.674 145.734 124.562 146.442 124.227L145.586 122.419C145.306 122.552 144.68 122.674 143.557 122.674V124.674ZM146.424 124.235C147.472 123.764 147.794 122.711 147.794 121.685H145.794C145.794 122.023 145.741 122.213 145.696 122.308C145.661 122.381 145.634 122.397 145.604 122.411L146.424 124.235ZM147.794 121.685V112.52H145.794V121.685H147.794ZM146.794 111.52H145.351V113.52H146.794V111.52ZM145.351 111.52C144.655 111.52 144.063 111.546 143.589 111.606L143.837 113.59C144.195 113.545 144.695 113.52 145.351 113.52V111.52ZM143.589 111.606C142.965 111.684 142.409 111.943 141.945 112.368L143.297 113.842C143.457 113.695 143.629 113.616 143.837 113.59L143.589 111.606ZM141.981 112.337C141.398 112.823 141.151 113.509 141.115 114.225L143.113 114.325C143.129 114 143.221 113.907 143.261 113.873L141.981 112.337ZM169.721 121.841V120.841H168.721V121.841H169.721ZM169.721 123.479H168.721V124.374L169.61 124.473L169.721 123.479ZM181.343 122.231L182.33 122.074L182.148 120.928L181.042 121.277L181.343 122.231ZM182.435 129.095L182.693 130.061L183.564 129.829L183.422 128.938L182.435 129.095ZM162.584 127.457L161.859 128.145L161.863 128.15L162.584 127.457ZM162.584 108.776L161.863 108.083L161.863 108.083L162.584 108.776ZM177.521 106.124L177.328 107.105L177.337 107.107L177.345 107.108L177.521 106.124ZM181.031 107.489L180.438 108.295L180.452 108.304L180.465 108.314L181.031 107.489ZM182.942 110.063L181.993 110.379L181.998 110.393L182.003 110.406L182.942 110.063ZM182.825 117.629L181.921 117.201L181.916 117.211L182.825 117.629ZM180.563 120.008L180.058 119.145L180.563 120.008ZM176.312 121.412L176.472 122.399L176.479 122.398L176.486 122.397L176.312 121.412ZM169.721 116.42H168.721V117.42H169.721V116.42ZM174.089 116.069L173.679 115.157L173.67 115.161L173.661 115.165L174.089 116.069ZM174.869 112.52H175.869V111.52H174.869V112.52ZM170.462 112.871L170.052 111.959L170.043 111.963L170.034 111.967L170.462 112.871ZM168.721 121.841V123.479H170.721V121.841H168.721ZM169.61 124.473C170.097 124.527 170.583 124.567 171.069 124.594L171.18 122.597C170.731 122.572 170.281 122.535 169.831 122.485L169.61 124.473ZM171.069 124.594C171.556 124.621 172.042 124.635 172.529 124.635V122.635C172.079 122.635 171.63 122.622 171.18 122.597L171.069 124.594ZM172.529 124.635C175.55 124.635 178.589 124.149 181.644 123.184L181.042 121.277C178.169 122.185 175.332 122.635 172.529 122.635V124.635ZM180.355 122.388L181.447 129.252L183.422 128.938L182.33 122.074L180.355 122.388ZM182.177 128.129C178.746 129.044 175.374 129.499 172.061 129.499V131.499C175.559 131.499 179.104 131.018 182.693 130.061L182.177 128.129ZM172.061 129.499C167.818 129.499 164.984 128.51 163.305 126.764L161.863 128.15C164.084 130.46 167.568 131.499 172.061 131.499V129.499ZM163.309 126.768C161.604 124.972 160.659 122.147 160.659 118.097H158.659C158.659 122.418 159.664 125.833 161.859 128.145L163.309 126.768ZM160.659 118.097C160.659 114.045 161.605 111.237 163.305 109.469L161.863 108.083C159.663 110.371 158.659 113.777 158.659 118.097H160.659ZM163.305 109.469C165.013 107.693 167.85 106.695 172.061 106.695V104.695C167.588 104.695 164.107 105.75 161.863 108.083L163.305 109.469ZM172.061 106.695C174.207 106.695 175.958 106.836 177.328 107.105L177.714 105.143C176.172 104.84 174.282 104.695 172.061 104.695V106.695ZM177.345 107.108C178.7 107.35 179.713 107.761 180.438 108.295L181.623 106.683C180.581 105.917 179.254 105.417 177.697 105.139L177.345 107.108ZM180.465 108.314C181.188 108.809 181.695 109.484 181.993 110.379L183.891 109.747C183.461 108.458 182.694 107.417 181.596 106.664L180.465 108.314ZM182.003 110.406C182.339 111.325 182.527 112.551 182.527 114.119H184.527C184.527 112.411 184.325 110.933 183.881 109.719L182.003 110.406ZM182.527 114.119C182.527 115.357 182.313 116.374 181.921 117.201L183.729 118.057C184.273 116.907 184.527 115.585 184.527 114.119H182.527ZM181.916 117.211C181.573 117.957 180.977 118.607 180.058 119.145L181.068 120.871C182.281 120.161 183.192 119.224 183.734 118.046L181.916 117.211ZM180.058 119.145C179.129 119.688 177.838 120.127 176.138 120.427L176.486 122.397C178.322 122.073 179.865 121.575 181.068 120.871L180.058 119.145ZM176.152 120.425C174.455 120.699 172.316 120.841 169.721 120.841V122.841C172.378 122.841 174.633 122.697 176.472 122.399L176.152 120.425ZM168.721 114.509V116.42H170.721V114.509H168.721ZM169.721 117.42H171.632V115.42H169.721V117.42ZM171.632 117.42C172.797 117.42 173.809 117.308 174.517 116.973L173.661 115.165C173.381 115.298 172.755 115.42 171.632 115.42V117.42ZM174.499 116.981C175.546 116.51 175.869 115.457 175.869 114.431H173.869C173.869 114.769 173.816 114.959 173.771 115.054C173.736 115.127 173.709 115.143 173.679 115.157L174.499 116.981ZM175.869 114.431V112.52H173.869V114.431H175.869ZM174.869 111.52H172.958V113.52H174.869V111.52ZM172.958 111.52C171.786 111.52 170.775 111.633 170.052 111.959L170.872 113.783C171.189 113.64 171.841 113.52 172.958 113.52V111.52ZM170.034 111.967C169.014 112.45 168.721 113.508 168.721 114.509H170.721C170.721 114.165 170.772 113.968 170.817 113.868C170.853 113.789 170.878 113.78 170.89 113.775L170.034 111.967ZM187.027 106.397V105.397H186.027V106.397H187.027ZM191.707 106.397L192.414 105.69L192.121 105.397H191.707V106.397ZM194.047 108.737L193.339 109.444L193.934 110.038L194.621 109.555L194.047 108.737ZM208.555 107.138L207.936 107.924L207.945 107.931L207.955 107.938L208.555 107.138ZM210.427 129.797V130.797H211.427V129.797H210.427ZM201.067 129.797H200.067V130.797H201.067V129.797ZM201.067 113.417H202.067V112.417H201.067V113.417ZM197.206 113.768L197.562 114.702L197.581 114.695L197.599 114.687L197.206 113.768ZM196.387 129.797V130.797H197.387V129.797H196.387ZM187.027 129.797H186.027V130.797H187.027V129.797ZM187.027 107.397H191.707V105.397H187.027V107.397ZM190.999 107.104L193.339 109.444L194.754 108.03L192.414 105.69L190.999 107.104ZM194.621 109.555C197.348 107.639 200.269 106.695 203.407 106.695V104.695C199.836 104.695 196.517 105.779 193.472 107.919L194.621 109.555ZM203.407 106.695C205.484 106.695 206.951 107.148 207.936 107.924L209.173 106.352C207.714 105.203 205.749 104.695 203.407 104.695V106.695ZM207.955 107.938C208.927 108.667 209.427 109.671 209.427 111.077H211.427C211.427 109.103 210.678 107.48 209.155 106.338L207.955 107.938ZM209.427 111.077V129.797H211.427V111.077H209.427ZM210.427 128.797H201.067V130.797H210.427V128.797ZM202.067 129.797V113.417H200.067V129.797H202.067ZM201.067 112.417H199.624V114.417H201.067V112.417ZM199.624 112.417C198.513 112.417 197.545 112.535 196.812 112.849L197.599 114.687C197.958 114.533 198.602 114.417 199.624 114.417V112.417ZM196.85 112.833C196.372 113.015 195.98 113.336 195.722 113.791C195.474 114.227 195.387 114.721 195.387 115.211H197.387C197.387 114.947 197.435 114.823 197.461 114.778C197.476 114.752 197.493 114.729 197.562 114.702L196.85 112.833ZM195.387 115.211V129.797H197.387V115.211H195.387ZM196.387 128.797H187.027V130.797H196.387V128.797ZM188.027 129.797V106.397H186.027V129.797H188.027Z" fill="white"/>
<path d="M5 5V59.4688H14.7351V14.7073H66.3854V5H5Z" stroke="white" stroke-width="2"/>
<path d="M254 173.594V119.125H244.265V163.886H192.615V173.594H254Z" stroke="white" stroke-width="2"/>
</g>
<g filter="url(#filter2_d_9_6563)">
<path d="M96.323 72.4119L97.3191 72.3231L97.2042 71.0342L95.986 71.4704L96.323 72.4119ZM97.025 80.2899L97.3985 81.2175L98.087 80.9403L98.0211 80.2011L97.025 80.2899ZM82.712 80.6019L82.3877 81.5479L82.3999 81.5519L82.712 80.6019ZM78.383 77.7939L79.1434 77.1444L78.383 77.7939ZM76.121 73.0359L75.1435 73.2472L75.1464 73.2598L76.121 73.0359ZM76.082 59.5419L75.1046 59.3305L75.1025 59.3406L76.082 59.5419ZM78.266 54.7449L79.0407 55.3773L79.0469 55.3696L78.266 54.7449ZM82.478 51.8199L82.1374 50.8797L82.133 50.8813L82.478 51.8199ZM91.253 50.9619L91.1465 51.9562L91.1653 51.9582L91.1842 51.9595L91.253 50.9619ZM93.437 51.1959L93.2905 52.1851L93.2956 52.1858L93.437 51.1959ZM95.465 51.5859L95.2225 52.556L95.2456 52.5618L95.2689 52.5665L95.465 51.5859ZM97.025 52.0539L98.0064 52.2459L98.1566 51.4784L97.4479 51.1477L97.025 52.0539ZM95.621 59.2299L95.4132 60.208L96.4073 60.4193L96.6024 59.4219L95.621 59.2299ZM85.559 73.1529H84.559V73.9588L85.3466 74.1301L85.559 73.1529ZM87.353 73.4649L87.2237 74.4565L87.2468 74.4595L87.27 74.4614L87.353 73.4649ZM95.327 72.5006L96.029 80.3786L98.0211 80.2011L97.3191 72.3231L95.327 72.5006ZM96.6516 79.3622C94.8028 80.1066 92.4684 80.4989 89.615 80.4989V82.4989C92.6377 82.4989 95.2433 82.0852 97.3985 81.2175L96.6516 79.3622ZM89.615 80.4989C86.8956 80.4989 84.7091 80.2055 83.0242 79.6518L82.3999 81.5519C84.355 82.1943 86.7705 82.4989 89.615 82.4989V80.4989ZM83.0364 79.6559C81.3562 79.0799 80.0745 78.2345 79.1434 77.1444L77.6227 78.4434C78.8236 79.8493 80.4279 80.8759 82.3877 81.5478L83.0364 79.6559ZM79.1434 77.1444C78.2013 76.0414 77.5088 74.6105 77.0956 72.812L75.1464 73.2598C75.6172 75.3092 76.4328 77.0504 77.6227 78.4434L79.1434 77.1444ZM77.0984 72.8245C76.7015 70.9886 76.497 68.7878 76.497 66.2109H74.497C74.497 68.8859 74.7086 71.2352 75.1436 73.2472L77.0984 72.8245ZM76.497 66.2109C76.497 63.7107 76.6887 61.558 77.0616 59.7431L75.1025 59.3406C74.6954 61.3218 74.497 63.6151 74.497 66.2109H76.497ZM77.0595 59.7532C77.4486 57.9534 78.1184 56.507 79.0407 55.3772L77.4914 54.1125C76.3336 55.5307 75.5475 57.2823 75.1046 59.3305L77.0595 59.7532ZM79.0469 55.3696C79.9586 54.23 81.2032 53.354 82.8231 52.7585L82.133 50.8813C80.2168 51.5858 78.6535 52.6598 77.4852 54.1202L79.0469 55.3696ZM82.8187 52.7601C84.4674 52.1627 86.6044 51.8449 89.264 51.8449V49.8449C86.4637 49.8449 84.0767 50.177 82.1374 50.8797L82.8187 52.7601ZM89.264 51.8449C89.8196 51.8449 90.4464 51.8812 91.1465 51.9562L91.3596 49.9676C90.6037 49.8866 89.9045 49.8449 89.264 49.8449V51.8449ZM91.1842 51.9595C91.9139 52.0098 92.6159 52.0851 93.2905 52.1851L93.5836 50.2067C92.8542 50.0986 92.1002 50.0179 91.3218 49.9642L91.1842 51.9595ZM93.2956 52.1858C93.9943 52.2856 94.6362 52.4094 95.2225 52.556L95.7076 50.6157C95.0459 50.4503 94.3358 50.3141 93.5785 50.2059L93.2956 52.1858ZM95.2689 52.5665C95.8779 52.6882 96.3123 52.8248 96.6022 52.9601L97.4479 51.1477C96.9578 50.919 96.3522 50.7435 95.6612 50.6053L95.2689 52.5665ZM96.0436 51.8619L94.6396 59.0379L96.6024 59.4219L98.0064 52.2459L96.0436 51.8619ZM95.8289 58.2517C93.6996 57.7992 91.769 57.5669 90.044 57.5669V59.5669C91.5951 59.5669 93.3825 59.7765 95.4132 60.208L95.8289 58.2517ZM90.044 57.5669C88.3538 57.5669 86.9761 57.7134 86.1013 58.1334L86.9668 59.9364C87.392 59.7323 88.3543 59.5669 90.044 59.5669V57.5669ZM86.1013 58.1334C84.9965 58.6637 84.559 59.7228 84.559 60.9069H86.559C86.559 60.219 86.7716 60.0301 86.9668 59.9364L86.1013 58.1334ZM84.559 60.9069V73.1529H86.559V60.9069H84.559ZM85.3466 74.1301C85.9717 74.2659 86.5974 74.3748 87.2237 74.4565L87.4824 72.4733C86.9127 72.399 86.3424 72.2998 85.7715 72.1757L85.3466 74.1301ZM87.27 74.4614C87.9226 74.5158 88.5874 74.5429 89.264 74.5429V72.5429C88.6407 72.5429 88.0314 72.5179 87.4361 72.4683L87.27 74.4614ZM89.264 74.5429C91.9606 74.5429 94.43 74.1518 96.6601 73.3534L95.986 71.4704C94.0041 72.18 91.7674 72.5429 89.264 72.5429V74.5429ZM119.006 73.3089H120.006V72.3089H119.006V73.3089ZM119.006 80.7969V81.7969H120.006V80.7969H119.006ZM100.286 80.7969H99.2858V81.7969H100.286V80.7969ZM100.286 51.5469V50.5469H99.2858V51.5469H100.286ZM109.646 51.5469H110.646V50.5469H109.646V51.5469ZM109.646 73.3089H108.646V74.3089H109.646V73.3089ZM118.006 73.3089V80.7969H120.006V73.3089H118.006ZM119.006 79.7969H100.286V81.7969H119.006V79.7969ZM101.286 80.7969V51.5469H99.2858V80.7969H101.286ZM100.286 52.5469H109.646V50.5469H100.286V52.5469ZM108.646 51.5469V73.3089H110.646V51.5469H108.646ZM109.646 74.3089H119.006V72.3089H109.646V74.3089ZM130.936 80.7969V81.7969H131.936V80.7969H130.936ZM121.576 80.7969H120.576V81.7969H121.576V80.7969ZM121.576 51.5469V50.5469H120.576V51.5469H121.576ZM130.936 51.5469H131.936V50.5469H130.936V51.5469ZM130.936 79.7969H121.576V81.7969H130.936V79.7969ZM122.576 80.7969V51.5469H120.576V80.7969H122.576ZM121.576 52.5469H130.936V50.5469H121.576V52.5469ZM129.936 51.5469V80.7969H131.936V51.5469H129.936ZM155.052 72.4119L156.048 72.3231L155.933 71.0342L154.714 71.4704L155.052 72.4119ZM155.754 80.2899L156.127 81.2175L156.815 80.9403L156.75 80.2011L155.754 80.2899ZM141.441 80.6019L141.116 81.5479L141.128 81.5519L141.441 80.6019ZM137.112 77.7939L137.872 77.1444L137.112 77.7939ZM134.85 73.0359L133.872 73.2472L133.875 73.2598L134.85 73.0359ZM134.811 59.5419L133.833 59.3305L133.831 59.3406L134.811 59.5419ZM136.995 54.7449L137.769 55.3773L137.775 55.3696L136.995 54.7449ZM141.207 51.8199L140.866 50.8797L140.861 50.8813L141.207 51.8199ZM149.982 50.9619L149.875 51.9562L149.894 51.9582L149.913 51.9595L149.982 50.9619ZM152.166 51.1959L152.019 52.1851L152.024 52.1858L152.166 51.1959ZM154.194 51.5859L153.951 52.556L153.974 52.5618L153.997 52.5665L154.194 51.5859ZM155.754 52.0539L156.735 52.2459L156.885 51.4784L156.176 51.1477L155.754 52.0539ZM154.35 59.2299L154.142 60.208L155.136 60.4193L155.331 59.4219L154.35 59.2299ZM144.288 73.1529H143.288V73.9588L144.075 74.1301L144.288 73.1529ZM146.082 73.4649L145.952 74.4565L145.975 74.4595L145.999 74.4614L146.082 73.4649ZM154.055 72.5006L154.757 80.3786L156.75 80.2011L156.048 72.3231L154.055 72.5006ZM155.38 79.3622C153.531 80.1066 151.197 80.4989 148.344 80.4989V82.4989C151.366 82.4989 153.972 82.0852 156.127 81.2175L155.38 79.3622ZM148.344 80.4989C145.624 80.4989 143.438 80.2055 141.753 79.6518L141.128 81.5519C143.084 82.1943 145.499 82.4989 148.344 82.4989V80.4989ZM141.765 79.6559C140.085 79.0799 138.803 78.2345 137.872 77.1444L136.351 78.4434C137.552 79.8493 139.156 80.8759 141.116 81.5478L141.765 79.6559ZM137.872 77.1444C136.93 76.0414 136.237 74.6105 135.824 72.812L133.875 73.2598C134.346 75.3092 135.161 77.0504 136.351 78.4434L137.872 77.1444ZM135.827 72.8245C135.43 70.9886 135.226 68.7878 135.226 66.2109H133.226C133.226 68.8859 133.437 71.2352 133.872 73.2472L135.827 72.8245ZM135.226 66.2109C135.226 63.7107 135.417 61.558 135.79 59.7431L133.831 59.3406C133.424 61.3218 133.226 63.6151 133.226 66.2109H135.226ZM135.788 59.7532C136.177 57.9534 136.847 56.507 137.769 55.3772L136.22 54.1125C135.062 55.5307 134.276 57.2823 133.833 59.3305L135.788 59.7532ZM137.775 55.3696C138.687 54.23 139.932 53.354 141.552 52.7585L140.861 50.8813C138.945 51.5858 137.382 52.6598 136.214 54.1202L137.775 55.3696ZM141.547 52.7601C143.196 52.1627 145.333 51.8449 147.993 51.8449V49.8449C145.192 49.8449 142.805 50.177 140.866 50.8797L141.547 52.7601ZM147.993 51.8449C148.548 51.8449 149.175 51.8812 149.875 51.9562L150.088 49.9676C149.332 49.8866 148.633 49.8449 147.993 49.8449V51.8449ZM149.913 51.9595C150.642 52.0098 151.344 52.0851 152.019 52.1851L152.312 50.2067C151.583 50.0986 150.829 50.0179 150.05 49.9642L149.913 51.9595ZM152.024 52.1858C152.723 52.2856 153.365 52.4094 153.951 52.556L154.436 50.6157C153.774 50.4503 153.064 50.3141 152.307 50.2059L152.024 52.1858ZM153.997 52.5665C154.606 52.6882 155.041 52.8248 155.331 52.9601L156.176 51.1477C155.686 50.919 155.081 50.7435 154.39 50.6053L153.997 52.5665ZM154.772 51.8619L153.368 59.0379L155.331 59.4219L156.735 52.2459L154.772 51.8619ZM154.557 58.2517C152.428 57.7992 150.498 57.5669 148.773 57.5669V59.5669C150.324 59.5669 152.111 59.7765 154.142 60.208L154.557 58.2517ZM148.773 57.5669C147.082 57.5669 145.705 57.7134 144.83 58.1334L145.695 59.9364C146.12 59.7323 147.083 59.5669 148.773 59.5669V57.5669ZM144.83 58.1334C143.725 58.6637 143.288 59.7228 143.288 60.9069H145.288C145.288 60.219 145.5 60.0301 145.695 59.9364L144.83 58.1334ZM143.288 60.9069V73.1529H145.288V60.9069H143.288ZM144.075 74.1301C144.7 74.2659 145.326 74.3748 145.952 74.4565L146.211 72.4733C145.641 72.399 145.071 72.2998 144.5 72.1757L144.075 74.1301ZM145.999 74.4614C146.651 74.5158 147.316 74.5429 147.993 74.5429V72.5429C147.369 72.5429 146.76 72.5179 146.165 72.4683L145.999 74.4614ZM147.993 74.5429C150.689 74.5429 153.158 74.1518 155.389 73.3534L154.714 71.4704C152.733 72.18 150.496 72.5429 147.993 72.5429V74.5429ZM168.569 68.0829L169.568 68.0274L169.515 67.0829H168.569V68.0829ZM168.374 68.0829V67.0829H167.374V68.0829H168.374ZM168.374 80.7969V81.7969H169.374V80.7969H168.374ZM159.014 80.7969H158.014V81.7969H159.014V80.7969ZM159.014 51.5469V50.5469H158.014V51.5469H159.014ZM168.374 51.5469H169.374V50.5469H168.374V51.5469ZM168.374 63.4809H167.374V64.4809H168.374V63.4809ZM168.569 63.4809V64.4809H169.515L169.568 63.5363L168.569 63.4809ZM168.725 62.2329L169.703 62.4424L169.706 62.429L168.725 62.2329ZM169.037 61.2189L168.133 60.7922L168.13 60.7986L168.127 60.8051L169.037 61.2189ZM173.6 51.5469V50.5469H172.966L172.696 51.1202L173.6 51.5469ZM183.74 51.5469L184.639 51.9863L185.343 50.5469H183.74V51.5469ZM176.72 65.8989L175.822 65.4595L175.608 65.8979L175.821 66.3366L176.72 65.8989ZM183.974 80.7969V81.7969H185.573L184.873 80.3591L183.974 80.7969ZM173.834 80.7969L172.925 81.2127L173.192 81.7969H173.834V80.7969ZM169.037 70.3059L168.127 70.7197L168.128 70.7217L169.037 70.3059ZM168.725 69.3309L167.748 69.5404L168.725 69.3309ZM168.569 67.0829H168.374V69.0829H168.569V67.0829ZM167.374 68.0829V80.7969H169.374V68.0829H167.374ZM168.374 79.7969H159.014V81.7969H168.374V79.7969ZM160.014 80.7969V51.5469H158.014V80.7969H160.014ZM159.014 52.5469H168.374V50.5469H159.014V52.5469ZM167.374 51.5469V63.4809H169.374V51.5469H167.374ZM168.374 64.4809H168.569V62.4809H168.374V64.4809ZM169.568 63.5363C169.592 63.1075 169.638 62.7446 169.703 62.4424L167.748 62.0233C167.656 62.4491 167.599 62.9182 167.571 63.4254L169.568 63.5363ZM169.706 62.429C169.773 62.0952 169.856 61.8335 169.948 61.6327L168.127 60.8051C167.958 61.1763 167.834 61.5906 167.745 62.0368L169.706 62.429ZM169.942 61.6455L174.505 51.9735L172.696 51.1202L168.133 60.7922L169.942 61.6455ZM173.6 52.5469H183.74V50.5469H173.6V52.5469ZM182.842 51.1075L175.822 65.4595L177.619 66.3383L184.639 51.9863L182.842 51.1075ZM175.821 66.3366L183.075 81.2346L184.873 80.3591L177.619 65.4611L175.821 66.3366ZM183.974 79.7969H173.834V81.7969H183.974V79.7969ZM174.744 80.381L169.947 69.89L168.128 70.7217L172.925 81.2127L174.744 80.381ZM169.948 69.8921C169.852 69.6822 169.769 69.4275 169.703 69.1213L167.748 69.5404C167.838 69.9622 167.962 70.3575 168.127 70.7197L169.948 69.8921ZM169.703 69.1213C169.638 68.8191 169.592 68.4562 169.568 68.0274L167.571 68.1383C167.599 68.6455 167.656 69.1146 167.748 69.5404L169.703 69.1213ZM49.7487 112.442H50.7487V111.442H49.7487V112.442ZM47.4087 112.442H46.4087V113.442H47.4087V112.442ZM47.4087 106.397V105.397H46.4087V106.397H47.4087ZM49.7487 106.397V107.397H50.7487V106.397H49.7487ZM49.7487 102.653L49.5061 101.683L48.7487 101.872V102.653H49.7487ZM59.1087 100.313H60.1087V99.0321L58.8661 99.3427L59.1087 100.313ZM59.1087 106.397H58.1087V107.397H59.1087V106.397ZM62.3457 106.397H63.3457V105.397H62.3457V106.397ZM62.3457 112.442V113.442H63.3457V112.442H62.3457ZM59.1087 112.442V111.442H58.1087V112.442H59.1087ZM59.1087 123.089H58.1087V123.909L58.9125 124.069L59.1087 123.089ZM60.3957 123.323L60.2313 124.309L60.2581 124.314L60.2852 124.317L60.3957 123.323ZM61.8777 123.44L62.8757 123.502L62.9389 122.492L61.9276 122.441L61.8777 123.44ZM61.4487 130.304V131.304H62.3881L62.4467 130.366L61.4487 130.304ZM53.1027 129.602L53.4414 128.661L53.439 128.66L53.1027 129.602ZM50.6067 128.12L49.8695 128.796L49.8767 128.803L49.884 128.811L50.6067 128.12ZM49.7487 111.442H47.4087V113.442H49.7487V111.442ZM48.4087 112.442V106.397H46.4087V112.442H48.4087ZM47.4087 107.397H49.7487V105.397H47.4087V107.397ZM50.7487 106.397V102.653H48.7487V106.397H50.7487ZM49.9912 103.623L59.3512 101.283L58.8661 99.3427L49.5061 101.683L49.9912 103.623ZM58.1087 100.313V106.397H60.1087V100.313H58.1087ZM59.1087 107.397H62.3457V105.397H59.1087V107.397ZM61.3457 106.397V112.442H63.3457V106.397H61.3457ZM62.3457 111.442H59.1087V113.442H62.3457V111.442ZM58.1087 112.442V123.089H60.1087V112.442H58.1087ZM58.9125 124.069C59.3149 124.15 59.7546 124.23 60.2313 124.309L60.5601 122.336C60.1007 122.26 59.6825 122.184 59.3048 122.108L58.9125 124.069ZM60.2852 124.317C60.7753 124.371 61.2896 124.412 61.8277 124.439L61.9276 122.441C61.4257 122.416 60.952 122.379 60.5061 122.329L60.2852 124.317ZM60.8796 123.377L60.4506 130.241L62.4467 130.366L62.8757 123.502L60.8796 123.377ZM61.4487 129.304C59.3317 129.304 57.6007 129.246 56.248 129.132C54.8744 129.016 53.9625 128.849 53.4414 128.661L52.7639 130.543C53.5428 130.823 54.6719 131.006 56.0803 131.125C57.5097 131.245 59.3016 131.304 61.4487 131.304V129.304ZM53.439 128.66C52.4383 128.303 51.7595 127.878 51.3293 127.429L49.884 128.811C50.5978 129.557 51.583 130.121 52.7663 130.544L53.439 128.66ZM51.3438 127.444C50.9996 127.069 50.7487 126.439 50.7487 125.39H48.7487C48.7487 126.733 49.0697 127.923 49.8695 128.796L51.3438 127.444ZM50.7487 125.39V112.442H48.7487V125.39H50.7487ZM67.8261 108.776L68.5469 109.469L68.5513 109.464L67.8261 108.776ZM86.7801 108.776L86.0548 109.464L86.0592 109.469L86.7801 108.776ZM86.7801 127.457L87.5009 128.15L87.5053 128.145L86.7801 127.457ZM67.9041 127.496L67.197 128.203L67.9041 127.496ZM74.9631 123.674H73.9631V124.674H74.9631V123.674ZM78.8631 123.323L78.4527 122.411L78.4438 122.415L78.435 122.419L78.8631 123.323ZM79.6431 112.52H80.6431V111.52H79.6431V112.52ZM75.7041 112.871L75.2937 111.959L75.2848 111.963L75.276 111.967L75.7041 112.871ZM65.9011 118.097C65.9011 114.045 66.8468 111.237 68.5469 109.469L67.1052 108.083C64.9053 110.371 63.9011 113.777 63.9011 118.097H65.9011ZM68.5513 109.464C70.231 107.695 73.0628 106.695 77.3031 106.695V104.695C72.8073 104.695 69.3211 105.749 67.1008 108.087L68.5513 109.464ZM77.3031 106.695C81.5433 106.695 84.3751 107.695 86.0548 109.464L87.5053 108.087C85.285 105.749 81.7988 104.695 77.3031 104.695V106.695ZM86.0592 109.469C87.7594 111.237 88.7051 114.045 88.7051 118.097H90.7051C90.7051 113.777 89.7008 110.371 87.5009 108.083L86.0592 109.469ZM88.7051 118.097C88.7051 122.147 87.7599 124.972 86.0548 126.768L87.5053 128.145C89.7003 125.833 90.7051 122.418 90.7051 118.097H88.7051ZM86.0592 126.764C84.38 128.51 81.5464 129.499 77.3031 129.499V131.499C81.7957 131.499 85.2801 130.46 87.5009 128.15L86.0592 126.764ZM77.3031 129.499C73.1719 129.499 70.3492 128.527 68.6112 126.789L67.197 128.203C69.463 130.469 72.9063 131.499 77.3031 131.499V129.499ZM68.6112 126.789C66.8732 125.051 65.9011 122.228 65.9011 118.097H63.9011C63.9011 122.494 64.9309 125.937 67.197 128.203L68.6112 126.789ZM73.9631 114.509V123.674H75.9631V114.509H73.9631ZM74.9631 124.674H76.4061V122.674H74.9631V124.674ZM76.4061 124.674C77.5708 124.674 78.5828 124.562 79.2912 124.227L78.435 122.419C78.1554 122.552 77.5294 122.674 76.4061 122.674V124.674ZM79.2734 124.235C80.3206 123.764 80.6431 122.711 80.6431 121.685H78.6431C78.6431 122.023 78.5903 122.213 78.5452 122.308C78.5104 122.381 78.4829 122.397 78.4527 122.411L79.2734 124.235ZM80.6431 121.685V112.52H78.6431V121.685H80.6431ZM79.6431 111.52H78.2001V113.52H79.6431V111.52ZM78.2001 111.52C77.0286 111.52 76.0169 111.633 75.2937 111.959L76.1144 113.783C76.4312 113.64 77.0835 113.52 78.2001 113.52V111.52ZM75.276 111.967C74.2565 112.45 73.9631 113.508 73.9631 114.509H75.9631C75.9631 114.165 76.0141 113.968 76.0594 113.868C76.0954 113.789 76.1205 113.78 76.1322 113.775L75.276 111.967ZM107.131 108.776L107.852 109.469L107.856 109.464L107.131 108.776ZM126.085 108.776L125.36 109.464L125.364 109.469L126.085 108.776ZM126.085 127.457L126.806 128.15L126.81 128.145L126.085 127.457ZM107.209 127.496L106.502 128.203L107.209 127.496ZM114.268 123.674H113.268V124.674H114.268V123.674ZM118.168 123.323L117.757 122.411L117.748 122.415L117.74 122.419L118.168 123.323ZM118.948 112.52H119.948V111.52H118.948V112.52ZM115.009 112.871L114.598 111.959L114.589 111.963L114.581 111.967L115.009 112.871ZM105.206 118.097C105.206 114.045 106.151 111.237 107.852 109.469L106.41 108.083C104.21 110.371 103.206 113.777 103.206 118.097H105.206ZM107.856 109.464C109.536 107.695 112.368 106.695 116.608 106.695V104.695C112.112 104.695 108.626 105.749 106.406 108.087L107.856 109.464ZM116.608 106.695C120.848 106.695 123.68 107.695 125.36 109.464L126.81 108.087C124.59 105.749 121.104 104.695 116.608 104.695V106.695ZM125.364 109.469C127.064 111.237 128.01 114.045 128.01 118.097H130.01C130.01 113.777 129.005 110.371 126.806 108.083L125.364 109.469ZM128.01 118.097C128.01 122.147 127.065 124.972 125.36 126.768L126.81 128.145C129.005 125.833 130.01 122.418 130.01 118.097H128.01ZM125.364 126.764C123.685 128.51 120.851 129.499 116.608 129.499V131.499C121.1 131.499 124.585 130.46 126.806 128.15L125.364 126.764ZM116.608 129.499C112.477 129.499 109.654 128.527 107.916 126.789L106.502 128.203C108.768 130.469 112.211 131.499 116.608 131.499V129.499ZM107.916 126.789C106.178 125.051 105.206 122.228 105.206 118.097H103.206C103.206 122.494 104.236 125.937 106.502 128.203L107.916 126.789ZM113.268 114.509V123.674H115.268V114.509H113.268ZM114.268 124.674H115.711V122.674H114.268V124.674ZM115.711 124.674C116.875 124.674 117.887 124.562 118.596 124.227L117.74 122.419C117.46 122.552 116.834 122.674 115.711 122.674V124.674ZM118.578 124.235C119.625 123.764 119.948 122.711 119.948 121.685H117.948C117.948 122.023 117.895 122.213 117.85 122.308C117.815 122.381 117.788 122.397 117.757 122.411L118.578 124.235ZM119.948 121.685V112.52H117.948V121.685H119.948ZM118.948 111.52H117.505V113.52H118.948V111.52ZM117.505 111.52C116.333 111.52 115.322 111.633 114.598 111.959L115.419 113.783C115.736 113.64 116.388 113.52 117.505 113.52V111.52ZM114.581 111.967C113.561 112.45 113.268 113.508 113.268 114.509H115.268C115.268 114.165 115.319 113.968 115.364 113.868C115.4 113.789 115.425 113.78 115.437 113.775L114.581 111.967ZM132.754 137.519H131.754V138.597L132.829 138.516L132.754 137.519ZM132.754 106.397V105.397H131.754V106.397H132.754ZM137.434 106.397L138.24 105.806L137.941 105.397H137.434V106.397ZM139.15 108.737L138.344 109.328L139.181 110.47L139.977 109.299L139.15 108.737ZM151.513 106.709L151.044 107.592L151.513 106.709ZM154.594 109.439L153.768 110.002L153.775 110.013L153.783 110.024L154.594 109.439ZM156.31 113.378L155.334 113.597L155.336 113.605L155.338 113.613L156.31 113.378ZM156.388 122.582L155.412 122.365L156.388 122.582ZM154.828 126.326L155.654 126.89L155.66 126.881L154.828 126.326ZM151.942 128.861L151.479 127.974L151.942 128.861ZM142.114 129.797V128.797H141.114V129.797H142.114ZM142.114 136.817L142.189 137.814L143.114 137.745V136.817H142.114ZM142.114 114.275L141.115 114.225L141.114 114.25V114.275H142.114ZM142.114 123.674H141.114V124.674H142.114V123.674ZM146.014 123.323L145.604 122.411L145.595 122.415L145.586 122.419L146.014 123.323ZM146.794 112.52H147.794V111.52H146.794V112.52ZM142.621 113.105L143.261 113.873L143.279 113.858L143.297 113.842L142.621 113.105ZM133.754 137.519V106.397H131.754V137.519H133.754ZM132.754 107.397H137.434V105.397H132.754V107.397ZM136.628 106.988L138.344 109.328L139.956 108.146L138.24 105.806L136.628 106.988ZM139.977 109.299C141.087 107.666 143.228 106.695 146.794 106.695V104.695C142.924 104.695 139.969 105.752 138.323 108.175L139.977 109.299ZM146.794 106.695C148.55 106.695 149.951 107.012 151.044 107.592L151.982 105.826C150.527 105.054 148.782 104.695 146.794 104.695V106.695ZM151.044 107.592C152.181 108.195 153.083 108.998 153.768 110.002L155.42 108.876C154.545 107.592 153.393 106.574 151.982 105.826L151.044 107.592ZM153.783 110.024C154.501 111.019 155.022 112.204 155.334 113.597L157.286 113.159C156.922 111.535 156.299 110.094 155.405 108.854L153.783 110.024ZM155.338 113.613C155.682 115.04 155.856 116.534 155.856 118.097H157.856C157.856 116.384 157.666 114.732 157.282 113.143L155.338 113.613ZM155.856 118.097C155.856 119.617 155.707 121.039 155.412 122.365L157.364 122.799C157.694 121.317 157.856 119.748 157.856 118.097H155.856ZM155.412 122.365C155.124 123.66 154.649 124.791 153.996 125.771L155.66 126.881C156.463 125.676 157.028 124.312 157.364 122.799L155.412 122.365ZM154.002 125.762C153.371 126.686 152.537 127.423 151.479 127.974L152.405 129.747C153.74 129.051 154.829 128.098 155.654 126.89L154.002 125.762ZM151.479 127.974C150.464 128.504 149.151 128.797 147.496 128.797V130.797C149.377 130.797 151.028 130.465 152.405 129.747L151.479 127.974ZM147.496 128.797H142.114V130.797H147.496V128.797ZM141.114 129.797V136.817H143.114V129.797H141.114ZM142.039 135.82L132.679 136.522L132.829 138.516L142.189 137.814L142.039 135.82ZM141.114 114.275V123.674H143.114V114.275H141.114ZM142.114 124.674H143.557V122.674H142.114V124.674ZM143.557 124.674C144.722 124.674 145.734 124.562 146.442 124.227L145.586 122.419C145.306 122.552 144.68 122.674 143.557 122.674V124.674ZM146.424 124.235C147.472 123.764 147.794 122.711 147.794 121.685H145.794C145.794 122.023 145.741 122.213 145.696 122.308C145.661 122.381 145.634 122.397 145.604 122.411L146.424 124.235ZM147.794 121.685V112.52H145.794V121.685H147.794ZM146.794 111.52H145.351V113.52H146.794V111.52ZM145.351 111.52C144.655 111.52 144.063 111.546 143.589 111.606L143.837 113.59C144.195 113.545 144.695 113.52 145.351 113.52V111.52ZM143.589 111.606C142.965 111.684 142.409 111.943 141.945 112.368L143.297 113.842C143.457 113.695 143.629 113.616 143.837 113.59L143.589 111.606ZM141.981 112.337C141.398 112.823 141.151 113.509 141.115 114.225L143.113 114.325C143.129 114 143.221 113.907 143.261 113.873L141.981 112.337ZM169.721 121.841V120.841H168.721V121.841H169.721ZM169.721 123.479H168.721V124.374L169.61 124.473L169.721 123.479ZM181.343 122.231L182.33 122.074L182.148 120.928L181.042 121.277L181.343 122.231ZM182.435 129.095L182.693 130.061L183.564 129.829L183.422 128.938L182.435 129.095ZM162.584 127.457L161.859 128.145L161.863 128.15L162.584 127.457ZM162.584 108.776L161.863 108.083L161.863 108.083L162.584 108.776ZM177.521 106.124L177.328 107.105L177.337 107.107L177.345 107.108L177.521 106.124ZM181.031 107.489L180.438 108.295L180.452 108.304L180.465 108.314L181.031 107.489ZM182.942 110.063L181.993 110.379L181.998 110.393L182.003 110.406L182.942 110.063ZM182.825 117.629L181.921 117.201L181.916 117.211L182.825 117.629ZM180.563 120.008L180.058 119.145L180.563 120.008ZM176.312 121.412L176.472 122.399L176.479 122.398L176.486 122.397L176.312 121.412ZM169.721 116.42H168.721V117.42H169.721V116.42ZM174.089 116.069L173.679 115.157L173.67 115.161L173.661 115.165L174.089 116.069ZM174.869 112.52H175.869V111.52H174.869V112.52ZM170.462 112.871L170.052 111.959L170.043 111.963L170.034 111.967L170.462 112.871ZM168.721 121.841V123.479H170.721V121.841H168.721ZM169.61 124.473C170.097 124.527 170.583 124.567 171.069 124.594L171.18 122.597C170.731 122.572 170.281 122.535 169.831 122.485L169.61 124.473ZM171.069 124.594C171.556 124.621 172.042 124.635 172.529 124.635V122.635C172.079 122.635 171.63 122.622 171.18 122.597L171.069 124.594ZM172.529 124.635C175.55 124.635 178.589 124.149 181.644 123.184L181.042 121.277C178.169 122.185 175.332 122.635 172.529 122.635V124.635ZM180.355 122.388L181.447 129.252L183.422 128.938L182.33 122.074L180.355 122.388ZM182.177 128.129C178.746 129.044 175.374 129.499 172.061 129.499V131.499C175.559 131.499 179.104 131.018 182.693 130.061L182.177 128.129ZM172.061 129.499C167.818 129.499 164.984 128.51 163.305 126.764L161.863 128.15C164.084 130.46 167.568 131.499 172.061 131.499V129.499ZM163.309 126.768C161.604 124.972 160.659 122.147 160.659 118.097H158.659C158.659 122.418 159.664 125.833 161.859 128.145L163.309 126.768ZM160.659 118.097C160.659 114.045 161.605 111.237 163.305 109.469L161.863 108.083C159.663 110.371 158.659 113.777 158.659 118.097H160.659ZM163.305 109.469C165.013 107.693 167.85 106.695 172.061 106.695V104.695C167.588 104.695 164.107 105.75 161.863 108.083L163.305 109.469ZM172.061 106.695C174.207 106.695 175.958 106.836 177.328 107.105L177.714 105.143C176.172 104.84 174.282 104.695 172.061 104.695V106.695ZM177.345 107.108C178.7 107.35 179.713 107.761 180.438 108.295L181.623 106.683C180.581 105.917 179.254 105.417 177.697 105.139L177.345 107.108ZM180.465 108.314C181.188 108.809 181.695 109.484 181.993 110.379L183.891 109.747C183.461 108.458 182.694 107.417 181.596 106.664L180.465 108.314ZM182.003 110.406C182.339 111.325 182.527 112.551 182.527 114.119H184.527C184.527 112.411 184.325 110.933 183.881 109.719L182.003 110.406ZM182.527 114.119C182.527 115.357 182.313 116.374 181.921 117.201L183.729 118.057C184.273 116.907 184.527 115.585 184.527 114.119H182.527ZM181.916 117.211C181.573 117.957 180.977 118.607 180.058 119.145L181.068 120.871C182.281 120.161 183.192 119.224 183.734 118.046L181.916 117.211ZM180.058 119.145C179.129 119.688 177.838 120.127 176.138 120.427L176.486 122.397C178.322 122.073 179.865 121.575 181.068 120.871L180.058 119.145ZM176.152 120.425C174.455 120.699 172.316 120.841 169.721 120.841V122.841C172.378 122.841 174.633 122.697 176.472 122.399L176.152 120.425ZM168.721 114.509V116.42H170.721V114.509H168.721ZM169.721 117.42H171.632V115.42H169.721V117.42ZM171.632 117.42C172.797 117.42 173.809 117.308 174.517 116.973L173.661 115.165C173.381 115.298 172.755 115.42 171.632 115.42V117.42ZM174.499 116.981C175.546 116.51 175.869 115.457 175.869 114.431H173.869C173.869 114.769 173.816 114.959 173.771 115.054C173.736 115.127 173.709 115.143 173.679 115.157L174.499 116.981ZM175.869 114.431V112.52H173.869V114.431H175.869ZM174.869 111.52H172.958V113.52H174.869V111.52ZM172.958 111.52C171.786 111.52 170.775 111.633 170.052 111.959L170.872 113.783C171.189 113.64 171.841 113.52 172.958 113.52V111.52ZM170.034 111.967C169.014 112.45 168.721 113.508 168.721 114.509H170.721C170.721 114.165 170.772 113.968 170.817 113.868C170.853 113.789 170.878 113.78 170.89 113.775L170.034 111.967ZM187.027 106.397V105.397H186.027V106.397H187.027ZM191.707 106.397L192.414 105.69L192.121 105.397H191.707V106.397ZM194.047 108.737L193.339 109.444L193.934 110.038L194.621 109.555L194.047 108.737ZM208.555 107.138L207.936 107.924L207.945 107.931L207.955 107.938L208.555 107.138ZM210.427 129.797V130.797H211.427V129.797H210.427ZM201.067 129.797H200.067V130.797H201.067V129.797ZM201.067 113.417H202.067V112.417H201.067V113.417ZM197.206 113.768L197.562 114.702L197.581 114.695L197.599 114.687L197.206 113.768ZM196.387 129.797V130.797H197.387V129.797H196.387ZM187.027 129.797H186.027V130.797H187.027V129.797ZM187.027 107.397H191.707V105.397H187.027V107.397ZM190.999 107.104L193.339 109.444L194.754 108.03L192.414 105.69L190.999 107.104ZM194.621 109.555C197.348 107.639 200.269 106.695 203.407 106.695V104.695C199.836 104.695 196.517 105.779 193.472 107.919L194.621 109.555ZM203.407 106.695C205.484 106.695 206.951 107.148 207.936 107.924L209.173 106.352C207.714 105.203 205.749 104.695 203.407 104.695V106.695ZM207.955 107.938C208.927 108.667 209.427 109.671 209.427 111.077H211.427C211.427 109.103 210.678 107.48 209.155 106.338L207.955 107.938ZM209.427 111.077V129.797H211.427V111.077H209.427ZM210.427 128.797H201.067V130.797H210.427V128.797ZM202.067 129.797V113.417H200.067V129.797H202.067ZM201.067 112.417H199.624V114.417H201.067V112.417ZM199.624 112.417C198.513 112.417 197.545 112.535 196.812 112.849L197.599 114.687C197.958 114.533 198.602 114.417 199.624 114.417V112.417ZM196.85 112.833C196.372 113.015 195.98 113.336 195.722 113.791C195.474 114.227 195.387 114.721 195.387 115.211H197.387C197.387 114.947 197.435 114.823 197.461 114.778C197.476 114.752 197.493 114.729 197.562 114.702L196.85 112.833ZM195.387 115.211V129.797H197.387V115.211H195.387ZM196.387 128.797H187.027V130.797H196.387V128.797ZM188.027 129.797V106.397H186.027V129.797H188.027Z" fill="white"/>
<path d="M5 5V59.4688H14.7351V14.7073H66.3854V5H5Z" stroke="white" stroke-width="2"/>
<path d="M254 173.594V119.125H244.265V163.886H192.615V173.594H254Z" stroke="white" stroke-width="2"/>
</g>
<defs>
<filter id="filter0_d_9_6563" x="0" y="0" width="259" height="178.594" filterUnits="userSpaceOnUse" color-interpolation-filters="sRGB">
<feFlood flood-opacity="0" result="BackgroundImageFix"/>
<feColorMatrix in="SourceAlpha" type="matrix" values="0 0 0 0 0 0 0 0 0 0 0 0 0 0 0 0 0 0 127 0" result="hardAlpha"/>
<feOffset/>
<feGaussianBlur stdDeviation="2"/>
<feComposite in2="hardAlpha" operator="out"/>
<feColorMatrix type="matrix" values="0 0 0 0 0.701961 0 0 0 0 0.466667 0 0 0 0 1 0 0 0 1 0"/>
<feBlend mode="normal" in2="BackgroundImageFix" result="effect1_dropShadow_9_6563"/>
<feBlend mode="normal" in="SourceGraphic" in2="effect1_dropShadow_9_6563" result="shape"/>
</filter>
<filter id="filter1_d_9_6563" x="0" y="0" width="259" height="178.594" filterUnits="userSpaceOnUse" color-interpolation-filters="sRGB">
<feFlood flood-opacity="0" result="BackgroundImageFix"/>
<feColorMatrix in="SourceAlpha" type="matrix" values="0 0 0 0 0 0 0 0 0 0 0 0 0 0 0 0 0 0 127 0" result="hardAlpha"/>
<feOffset/>
<feGaussianBlur stdDeviation="2"/>
<feComposite in2="hardAlpha" operator="out"/>
<feColorMatrix type="matrix" values="0 0 0 0 0.701961 0 0 0 0 0.466667 0 0 0 0 1 0 0 0 1 0"/>
<feBlend mode="normal" in2="BackgroundImageFix" result="effect1_dropShadow_9_6563"/>
<feBlend mode="normal" in="SourceGraphic" in2="effect1_dropShadow_9_6563" result="shape"/>
</filter>
<filter id="filter2_d_9_6563" x="0" y="0" width="259" height="178.594" filterUnits="userSpaceOnUse" color-interpolation-filters="sRGB">
<feFlood flood-opacity="0" result="BackgroundImageFix"/>
<feColorMatrix in="SourceAlpha" type="matrix" values="0 0 0 0 0 0 0 0 0 0 0 0 0 0 0 0 0 0 127 0" result="hardAlpha"/>
<feOffset/>
<feGaussianBlur stdDeviation="2"/>
<feComposite in2="hardAlpha" operator="out"/>
<feColorMatrix type="matrix" values="0 0 0 0 0.701961 0 0 0 0 0.466667 0 0 0 0 1 0 0 0 1 0"/>
<feBlend mode="normal" in2="BackgroundImageFix" result="effect1_dropShadow_9_6563"/>
<feBlend mode="normal" in="SourceGraphic" in2="effect1_dropShadow_9_6563" result="shape"/>
</filter>
</defs>
</svg>
