<svg width="371" height="82" viewBox="0 0 371 82" fill="none" xmlns="http://www.w3.org/2000/svg">
<g filter="url(#filter0_d_9_6563)">
<path d="M19.4004 58.9815L18.4148 58.8123L18.2538 59.7496L19.1819 59.9573L19.4004 58.9815ZM20.7264 51.2595L20.9647 50.2883L19.9224 50.0325L19.7408 51.0903L20.7264 51.2595ZM31.5684 52.2735L31.5977 53.2731L31.6116 53.2727L31.6254 53.2719L31.5684 52.2735ZM33.9864 52.0395L34.1329 53.0287L34.9864 52.9023V52.0395H33.9864ZM33.9864 49.6995H34.9864V48.7794L34.0694 48.7029L33.9864 49.6995ZM29.7744 49.3485L29.6789 50.344L29.6913 50.345L29.7744 49.3485ZM25.0164 48.4125L24.6886 49.3573L24.6886 49.3573L25.0164 48.4125ZM21.9354 46.6185L21.2164 47.3135L21.2281 47.3257L21.2403 47.3375L21.9354 46.6185ZM20.2974 43.8495L19.3358 44.1242L19.3398 44.138L19.3441 44.1517L20.2974 43.8495ZM20.4534 35.0355L21.4075 35.3348L21.4091 35.3296L20.4534 35.0355ZM22.4424 31.7985L23.1054 32.5471L23.1113 32.5418L23.1171 32.5365L22.4424 31.7985ZM25.9524 30.0435L25.7262 29.0694L25.7223 29.0703L25.9524 30.0435ZM42.4884 30.7065L43.4764 30.8609L43.6198 29.9429L42.7149 29.7325L42.4884 30.7065ZM41.3184 38.1945L41.1597 39.1818L42.1513 39.3412L42.3064 38.3489L41.3184 38.1945ZM29.8914 37.7265L29.7647 36.7345L28.8914 36.846V37.7265H29.8914ZM29.8914 40.0275H28.8914V40.9388L29.7987 41.0232L29.8914 40.0275ZM33.2454 40.3395L33.3461 39.3445L33.338 39.3438L33.2454 40.3395ZM38.3934 41.3925L38.0559 42.3338L38.0638 42.3367L38.0718 42.3394L38.3934 41.3925ZM41.7084 43.2645L41.0244 43.994L41.03 43.9993L41.0357 44.0044L41.7084 43.2645ZM43.5024 46.0335L42.5491 46.3357L42.5524 46.3462L42.556 46.3566L43.5024 46.0335ZM43.2684 54.6915L42.335 54.3325L42.335 54.3325L43.2684 54.6915ZM41.3964 57.7725L42.0876 58.4951L42.0905 58.4923L41.3964 57.7725ZM39.1734 59.1375L39.5062 60.0805L39.5184 60.0762L39.5305 60.0715L39.1734 59.1375ZM36.3654 59.8395L36.5213 60.8273L36.5213 60.8273L36.3654 59.8395ZM33.3624 60.1125L33.3367 59.1128L33.3232 59.1132L33.3098 59.1139L33.3624 60.1125ZM24.8214 59.8785L24.9318 58.8846L24.8214 59.8785ZM20.3859 59.1507L21.7119 51.4287L19.7408 51.0903L18.4148 58.8123L20.3859 59.1507ZM20.488 52.2307C23.4059 52.9469 26.0747 53.3125 28.4874 53.3125V51.3125C26.272 51.3125 23.7668 50.9761 20.9647 50.2883L20.488 52.2307ZM28.4874 53.3125C29.6642 53.3125 30.7014 53.2994 31.5977 53.2731L31.539 51.2739C30.6673 51.2996 29.6505 51.3125 28.4874 51.3125V53.3125ZM31.6254 53.2719C32.5574 53.2186 33.3943 53.1381 34.1329 53.0287L33.8398 51.0503C33.1744 51.1489 32.3993 51.2244 31.5113 51.2751L31.6254 53.2719ZM34.9864 52.0395V49.6995H32.9864V52.0395H34.9864ZM34.0694 48.7029L29.8574 48.3519L29.6913 50.345L33.9033 50.696L34.0694 48.7029ZM29.8698 48.3531C28.0212 48.1758 26.5192 47.8754 25.3441 47.4677L24.6886 49.3573C26.0615 49.8336 27.7315 50.1572 29.6789 50.3439L29.8698 48.3531ZM25.3441 47.4677C24.175 47.0621 23.2836 46.531 22.6304 45.8995L21.2403 47.3375C22.1471 48.214 23.3097 48.8789 24.6886 49.3573L25.3441 47.4677ZM22.6543 45.9235C22.0111 45.258 21.5434 44.4707 21.2506 43.5473L19.3441 44.1517C19.7273 45.3603 20.3516 46.419 21.2164 47.3135L22.6543 45.9235ZM21.2589 43.5748C20.9784 42.5931 20.8294 41.4153 20.8294 40.0275H18.8294C18.8294 41.5517 18.9923 42.9219 19.3358 44.1242L21.2589 43.5748ZM20.8294 40.0275C20.8294 38.0864 21.032 36.5316 21.4075 35.3348L19.4992 34.7362C19.0427 36.1914 18.8294 37.9646 18.8294 40.0275H20.8294ZM21.4091 35.3296C21.7801 34.1239 22.354 33.2126 23.1054 32.5471L21.7793 31.0499C20.7107 31.9964 19.9586 33.2431 19.4976 34.7414L21.4091 35.3296ZM23.1171 32.5365C23.8792 31.8397 24.8864 31.323 26.1824 31.0167L25.7223 29.0703C24.1583 29.44 22.8255 30.0933 21.7676 31.0605L23.1171 32.5365ZM26.1785 31.0176C27.5378 30.702 29.2252 30.5365 31.2564 30.5365V28.5365C29.1275 28.5365 27.2789 28.709 25.7262 29.0694L26.1785 31.0176ZM31.2564 30.5365C35.3288 30.5365 38.9952 30.9208 42.2618 31.6805L42.7149 29.7325C39.2736 28.9322 35.4519 28.5365 31.2564 28.5365V30.5365ZM41.5003 30.5521L40.3303 38.0401L42.3064 38.3489L43.4764 30.8609L41.5003 30.5521ZM41.477 37.2072C38.5432 36.7357 36.1564 36.4925 34.3374 36.4925V38.4925C36.0023 38.4925 38.2695 38.7173 41.1597 39.1818L41.477 37.2072ZM34.3374 36.4925C32.5688 36.4925 31.0419 36.5715 29.7647 36.7345L30.018 38.7184C31.1848 38.5695 32.6219 38.4925 34.3374 38.4925V36.4925ZM28.8914 37.7265V40.0275H30.8914V37.7265H28.8914ZM29.7987 41.0232L33.1527 41.3352L33.338 39.3438L29.984 39.0318L29.7987 41.0232ZM33.1446 41.3344C35.148 41.5373 36.7784 41.8759 38.0559 42.3338L38.7308 40.4512C37.2523 39.9211 35.4507 39.5577 33.3461 39.3446L33.1446 41.3344ZM38.0718 42.3394C39.3508 42.7738 40.3208 43.3344 41.0244 43.994L42.3923 42.535C41.4319 41.6346 40.1919 40.9472 38.7149 40.4456L38.0718 42.3394ZM41.0357 44.0044C41.7682 44.6704 42.2664 45.4442 42.5491 46.3357L44.4556 45.7313C44.0623 44.4908 43.3645 43.4186 42.381 42.5246L41.0357 44.0044ZM42.556 46.3566C42.8776 47.2983 43.0484 48.4078 43.0484 49.6995H45.0484C45.0484 48.2352 44.8551 46.9006 44.4487 45.7103L42.556 46.3566ZM43.0484 49.6995C43.0484 51.5945 42.7981 53.1285 42.335 54.3325L44.2017 55.0505C44.7786 53.5505 45.0484 51.7565 45.0484 49.6995H43.0484ZM42.335 54.3325C41.8464 55.6029 41.2898 56.486 40.7022 57.0527L42.0905 58.4923C42.9589 57.6549 43.6503 56.4841 44.2017 55.0505L42.335 54.3325ZM40.7051 57.0499C40.2162 57.5176 39.5936 57.9062 38.8162 58.2034L39.5305 60.0715C40.5211 59.6928 41.3806 59.1714 42.0876 58.4951L40.7051 57.0499ZM38.8405 58.1945C38.0177 58.4849 37.1412 58.7046 36.2094 58.8517L36.5213 60.8273C37.5655 60.6624 38.561 60.4141 39.5062 60.0805L38.8405 58.1945ZM36.2094 58.8517C35.2651 59.0008 34.3077 59.0879 33.3367 59.1128L33.388 61.1122C34.445 61.0851 35.4896 60.9902 36.5213 60.8273L36.2094 58.8517ZM33.3098 59.1139C32.3355 59.1652 31.4564 59.1905 30.6714 59.1905V61.1905C31.4983 61.1905 32.4132 61.1638 33.4149 61.1111L33.3098 59.1139ZM30.6714 59.1905C28.6775 59.1905 26.7644 59.0882 24.9318 58.8846L24.7109 60.8724C26.6223 61.0847 28.6092 61.1905 30.6714 61.1905V59.1905ZM24.9318 58.8846C23.0941 58.6804 21.3233 58.3872 19.6188 58.0057L19.1819 59.9573C20.9614 60.3557 22.8046 60.6606 24.7109 60.8724L24.9318 58.8846ZM66.2933 41.6655H67.2933V40.6655H66.2933V41.6655ZM66.2933 48.4515V49.4515H67.2933V48.4515H66.2933ZM56.9333 48.4515V47.4515H55.9333V48.4515H56.9333ZM56.9333 52.0005H55.9333V53.0005H56.9333V52.0005ZM68.3993 52.0005H69.3993V51.0005H68.3993V52.0005ZM68.3993 59.4885V60.4885H69.3993V59.4885H68.3993ZM47.5733 59.4885H46.5733V60.4885H47.5733V59.4885ZM47.5733 30.2385V29.2385H46.5733V30.2385H47.5733ZM68.1653 30.2385L69.1533 30.3929L69.3337 29.2385H68.1653V30.2385ZM66.9953 37.7265V38.7265H67.8512L67.9833 37.8809L66.9953 37.7265ZM56.9333 37.7265V36.7265H55.9333V37.7265H56.9333ZM56.9333 41.6655H55.9333V42.6655H56.9333V41.6655ZM65.2933 41.6655V48.4515H67.2933V41.6655H65.2933ZM66.2933 47.4515H56.9333V49.4515H66.2933V47.4515ZM55.9333 48.4515V52.0005H57.9333V48.4515H55.9333ZM56.9333 53.0005H68.3993V51.0005H56.9333V53.0005ZM67.3993 52.0005V59.4885H69.3993V52.0005H67.3993ZM68.3993 58.4885H47.5733V60.4885H68.3993V58.4885ZM48.5733 59.4885V30.2385H46.5733V59.4885H48.5733ZM47.5733 31.2385H68.1653V29.2385H47.5733V31.2385ZM67.1773 30.0841L66.0073 37.5721L67.9833 37.8809L69.1533 30.3929L67.1773 30.0841ZM66.9953 36.7265H56.9333V38.7265H66.9953V36.7265ZM55.9333 37.7265V41.6655H57.9333V37.7265H55.9333ZM56.9333 42.6655H66.2933V40.6655H56.9333V42.6655ZM98.3412 59.4885V60.4885H99.3412V59.4885H98.3412ZM89.5272 59.4885L88.7034 60.0553L89.0014 60.4885H89.5272V59.4885ZM82.3902 49.1145L83.2141 48.5477L83.2091 48.5404L83.204 48.5333L82.3902 49.1145ZM82.0782 48.2955L81.1004 48.505L81.1004 48.505L82.0782 48.2955ZM81.9222 46.8525L82.9213 46.8091L82.8797 45.8525H81.9222V46.8525ZM81.7272 46.8525V45.8525H80.7272V46.8525H81.7272ZM81.7272 59.4885V60.4885H82.7272V59.4885H81.7272ZM72.3672 59.4885H71.3672V60.4885H72.3672V59.4885ZM72.3672 30.2385V29.2385H71.3672V30.2385H72.3672ZM81.1812 30.2385L82.0051 29.6717L81.7071 29.2385H81.1812V30.2385ZM88.3182 40.6125L87.4944 41.1793L87.4994 41.1866L87.5045 41.1937L88.3182 40.6125ZM88.7862 42.8745L87.7872 42.9179L87.8288 43.8745H88.7862V42.8745ZM88.9812 42.8745V43.8745H89.9812V42.8745H88.9812ZM88.9812 30.2385V29.2385H87.9812V30.2385H88.9812ZM98.3412 30.2385H99.3412V29.2385H98.3412V30.2385ZM98.3412 58.4885H89.5272V60.4885H98.3412V58.4885ZM90.3511 58.9217L83.2141 48.5477L81.5664 49.6813L88.7034 60.0553L90.3511 58.9217ZM83.204 48.5333C83.1893 48.5127 83.1219 48.3935 83.056 48.086L81.1004 48.505C81.1905 48.9255 81.3311 49.3522 81.5765 49.6957L83.204 48.5333ZM83.056 48.086C82.9946 47.7993 82.9461 47.3804 82.9213 46.8091L80.9232 46.8959C80.9503 47.5206 81.0059 48.0637 81.1004 48.505L83.056 48.086ZM81.9222 45.8525H81.7272V47.8525H81.9222V45.8525ZM80.7272 46.8525V59.4885H82.7272V46.8525H80.7272ZM81.7272 58.4885H72.3672V60.4885H81.7272V58.4885ZM73.3672 59.4885V30.2385H71.3672V59.4885H73.3672ZM72.3672 31.2385H81.1812V29.2385H72.3672V31.2385ZM80.3574 30.8053L87.4944 41.1793L89.1421 40.0457L82.0051 29.6717L80.3574 30.8053ZM87.5045 41.1937C87.5191 41.2142 87.5865 41.3335 87.6524 41.641L89.608 41.222C89.5179 40.8015 89.3773 40.3747 89.132 40.0313L87.5045 41.1937ZM87.6524 41.641C87.7139 41.9277 87.7623 42.3466 87.7872 42.9179L89.7853 42.8311C89.7581 42.2064 89.7026 41.6633 89.608 41.222L87.6524 41.641ZM88.7862 43.8745H88.9812V41.8745H88.7862V43.8745ZM89.9812 42.8745V30.2385H87.9812V42.8745H89.9812ZM88.9812 31.2385H98.3412V29.2385H88.9812V31.2385ZM97.3412 30.2385V59.4885H99.3412V30.2385H97.3412ZM103.026 59.4885H102.026V60.4885H103.026V59.4885ZM103.026 30.2385V29.2385H102.026V30.2385H103.026ZM122.721 31.0575L122.426 32.0131L122.439 32.0169L122.721 31.0575ZM129.234 38.1165L128.262 38.3494L128.265 38.3622L129.234 38.1165ZM129.234 51.5715L128.264 51.3289L128.262 51.3386L129.234 51.5715ZM126.972 56.0955L126.233 55.422L126.233 55.422L126.972 56.0955ZM122.721 58.6695L122.426 57.714L122.426 57.714L122.721 58.6695ZM112.386 37.7265V36.7265H111.386V37.7265H112.386ZM112.386 52.0005H111.386V53.0005H112.386V52.0005ZM119.055 51.5715L119.519 52.4573L119.527 52.4534L119.534 52.4494L119.055 51.5715ZM119.055 38.1945L118.559 39.0627L118.583 39.0765L118.608 39.0889L119.055 38.1945ZM116.13 58.4885H103.026V60.4885H116.13V58.4885ZM104.026 59.4885V30.2385H102.026V59.4885H104.026ZM103.026 31.2385H116.13V29.2385H103.026V31.2385ZM116.13 31.2385C118.695 31.2385 120.785 31.506 122.426 32.013L123.016 30.102C121.122 29.517 118.818 29.2385 116.13 29.2385V31.2385ZM122.439 32.0169C124.061 32.4938 125.31 33.2522 126.233 34.266L127.712 32.919C126.503 31.5928 124.918 30.6612 123.004 30.0981L122.439 32.0169ZM126.233 34.266C127.165 35.2885 127.851 36.6349 128.262 38.3493L130.207 37.8836C129.733 35.9061 128.912 34.2365 127.712 32.919L126.233 34.266ZM128.265 38.3622C128.707 40.1041 128.936 42.2525 128.936 44.8245H130.936C130.936 42.1445 130.698 39.8209 130.204 37.8707L128.265 38.3622ZM128.936 44.8245C128.936 47.3959 128.707 49.5589 128.264 51.329L130.205 51.814C130.698 49.8401 130.936 47.505 130.936 44.8245H128.936ZM128.262 51.3386C127.851 53.0531 127.165 54.3995 126.233 55.422L127.712 56.769C128.912 55.4515 129.733 53.7819 130.207 51.8043L128.262 51.3386ZM126.233 55.422C125.306 56.4392 124.053 57.2117 122.426 57.714L123.016 59.625C124.926 59.0353 126.506 58.0918 127.712 56.769L126.233 55.422ZM122.426 57.714C120.785 58.221 118.695 58.4885 116.13 58.4885V60.4885C118.818 60.4885 121.122 60.21 123.016 59.625L122.426 57.714ZM116.286 36.7265H112.386V38.7265H116.286V36.7265ZM111.386 37.7265V52.0005H113.386V37.7265H111.386ZM112.386 53.0005H116.286V51.0005H112.386V53.0005ZM116.286 53.0005C117.607 53.0005 118.743 52.8641 119.519 52.4573L118.591 50.6857C118.276 50.8509 117.566 51.0005 116.286 51.0005V53.0005ZM119.534 52.4494C120.597 51.8695 120.913 50.6902 120.913 49.5045H118.913C118.913 50.4508 118.657 50.6495 118.577 50.6936L119.534 52.4494ZM120.913 49.5045V40.2225H118.913V49.5045H120.913ZM120.913 40.2225C120.913 39.0469 120.601 37.8492 119.503 37.3001L118.608 39.0889C118.654 39.1118 118.913 39.2661 118.913 40.2225H120.913ZM119.552 37.3263C118.763 36.8759 117.611 36.7265 116.286 36.7265V38.7265C117.561 38.7265 118.255 38.8891 118.559 39.0627L119.552 37.3263ZM164.343 51.1035L165.339 51.0147L165.224 49.7258L164.006 50.162L164.343 51.1035ZM165.045 58.9815L165.418 59.9091L166.107 59.632L166.041 58.8927L165.045 58.9815ZM150.732 59.2935L150.408 60.2395L150.42 60.2435L150.732 59.2935ZM146.403 56.4855L147.163 55.836L147.163 55.836L146.403 56.4855ZM144.141 51.7275L143.163 51.9388L143.166 51.9514L144.141 51.7275ZM144.102 38.2335L143.124 38.0222L143.122 38.0322L144.102 38.2335ZM146.286 33.4365L147.061 34.0689L147.067 34.0612L146.286 33.4365ZM150.498 30.5115L150.157 29.5713L150.153 29.5729L150.498 30.5115ZM159.273 29.6535L159.166 30.6478L159.185 30.6498L159.204 30.6511L159.273 29.6535ZM161.457 29.8875L161.31 30.8767L161.316 30.8774L161.457 29.8875ZM163.485 30.2775L163.242 31.2476L163.265 31.2534L163.289 31.2581L163.485 30.2775ZM165.045 30.7455L166.026 30.9375L166.176 30.17L165.468 29.8393L165.045 30.7455ZM163.641 37.9215L163.433 38.8997L164.427 39.1109L164.622 38.1135L163.641 37.9215ZM153.579 51.8445H152.579V52.6505L153.367 52.8217L153.579 51.8445ZM155.373 52.1565L155.244 53.1481L155.267 53.1511L155.29 53.153L155.373 52.1565ZM163.347 51.1923L164.049 59.0703L166.041 58.8927L165.339 51.0147L163.347 51.1923ZM164.671 58.0539C162.823 58.7982 160.488 59.1905 157.635 59.1905V61.1905C160.658 61.1905 163.263 60.7768 165.418 59.9091L164.671 58.0539ZM157.635 59.1905C154.915 59.1905 152.729 58.8971 151.044 58.3435L150.42 60.2435C152.375 60.8859 154.79 61.1905 157.635 61.1905V59.1905ZM151.056 58.3475C149.376 57.7715 148.094 56.9261 147.163 55.836L145.643 57.135C146.843 58.5409 148.448 59.5675 150.408 60.2394L151.056 58.3475ZM147.163 55.836C146.221 54.733 145.529 53.3021 145.116 51.5036L143.166 51.9514C143.637 54.0008 144.453 55.742 145.643 57.135L147.163 55.836ZM145.118 51.5162C144.721 49.6802 144.517 47.4794 144.517 44.9025H142.517C142.517 47.5776 142.728 49.9268 143.164 51.9388L145.118 51.5162ZM144.517 44.9025C144.517 42.4023 144.709 40.2496 145.081 38.4348L143.122 38.0322C142.715 40.0134 142.517 42.3067 142.517 44.9025H144.517ZM145.079 38.4448C145.468 36.6451 146.138 35.1987 147.061 34.0689L145.511 32.8041C144.354 34.2223 143.567 35.9739 143.125 38.0222L145.079 38.4448ZM147.067 34.0612C147.978 32.9216 149.223 32.0456 150.843 31.4501L150.153 29.5729C148.237 30.2774 146.673 31.3514 145.505 32.8118L147.067 34.0612ZM150.839 31.4517C152.487 30.8543 154.624 30.5365 157.284 30.5365V28.5365C154.484 28.5365 152.097 28.8687 150.157 29.5713L150.839 31.4517ZM157.284 30.5365C157.84 30.5365 158.466 30.5728 159.166 30.6478L159.379 28.6592C158.624 28.5782 157.924 28.5365 157.284 28.5365V30.5365ZM159.204 30.6511C159.934 30.7014 160.636 30.7768 161.31 30.8767L161.603 28.8983C160.874 28.7902 160.12 28.7095 159.342 28.6559L159.204 30.6511ZM161.316 30.8774C162.014 30.9773 162.656 31.1011 163.242 31.2476L163.727 29.3074C163.066 29.1419 162.356 29.0057 161.598 28.8975L161.316 30.8774ZM163.289 31.2581C163.898 31.3799 164.332 31.5164 164.622 31.6517L165.468 29.8393C164.978 29.6106 164.372 29.4351 163.681 29.2969L163.289 31.2581ZM164.064 30.5535L162.66 37.7295L164.622 38.1135L166.026 30.9375L164.064 30.5535ZM163.849 36.9433C161.72 36.4909 159.789 36.2585 158.064 36.2585V38.2585C159.615 38.2585 161.402 38.4681 163.433 38.8997L163.849 36.9433ZM158.064 36.2585C156.374 36.2585 154.996 36.4051 154.121 36.825L154.987 38.628C155.412 38.4239 156.374 38.2585 158.064 38.2585V36.2585ZM154.121 36.825C153.016 37.3553 152.579 38.4144 152.579 39.5985H154.579C154.579 38.9106 154.791 38.7217 154.987 38.628L154.121 36.825ZM152.579 39.5985V51.8445H154.579V39.5985H152.579ZM153.367 52.8217C153.992 52.9576 154.617 53.0664 155.244 53.1481L155.502 51.1649C154.933 51.0906 154.362 50.9914 153.791 50.8673L153.367 52.8217ZM155.29 53.153C155.943 53.2074 156.607 53.2345 157.284 53.2345V51.2345C156.661 51.2345 156.051 51.2096 155.456 51.1599L155.29 53.153ZM157.284 53.2345C159.981 53.2345 162.45 52.8434 164.68 52.045L164.006 50.162C162.024 50.8716 159.787 51.2345 157.284 51.2345V53.2345ZM167.565 37.9995L166.592 37.7661L166.59 37.7756L167.565 37.9995ZM169.866 33.2025L169.113 32.5439L169.105 32.553L169.866 33.2025ZM174.156 30.4335L173.835 29.4862L173.835 29.4862L174.156 30.4335ZM187.26 30.4335L186.935 31.3793L186.939 31.3808L187.26 30.4335ZM191.511 33.2025L190.75 33.852L190.758 33.861L191.511 33.2025ZM193.812 37.9995L192.836 38.2206L192.838 38.2282L192.84 38.2358L193.812 37.9995ZM193.89 51.6105L194.867 51.8246L194.867 51.8218L193.89 51.6105ZM191.667 56.3685L190.9 55.7267L190.892 55.7361L191.667 56.3685ZM187.416 59.2545L187.749 60.1975L187.756 60.1947L187.416 59.2545ZM173.961 59.2545L173.616 60.1931L173.624 60.1961L173.632 60.199L173.961 59.2545ZM169.71 56.3685L168.935 57.0009L168.943 57.0102L169.71 56.3685ZM167.526 51.6105L166.548 51.8218L166.549 51.8246L167.526 51.6105ZM176.964 52.1955H175.964V53.1955H176.964V52.1955ZM183.633 51.7665L184.097 52.6523L184.104 52.6484L184.112 52.6444L183.633 51.7665ZM184.491 37.5315H185.491V36.5315H184.491V37.5315ZM177.822 37.9995L178.269 38.8939L178.285 38.8859L178.301 38.8774L177.822 37.9995ZM167.902 44.9025C167.902 42.2751 168.119 40.0532 168.539 38.2234L166.59 37.7756C166.126 39.7938 165.902 42.1739 165.902 44.9025H167.902ZM168.537 38.2329C168.976 36.4028 169.683 34.9562 170.626 33.852L169.105 32.553C167.917 33.9448 167.089 35.6962 166.592 37.7661L168.537 38.2329ZM170.618 33.861C171.58 32.7617 172.854 31.9295 174.476 31.3808L173.835 29.4862C171.922 30.1335 170.335 31.1473 169.113 32.544L170.618 33.861ZM174.476 31.3808C176.109 30.8284 178.177 30.5365 180.708 30.5365V28.5365C178.038 28.5365 175.738 28.8426 173.835 29.4862L174.476 31.3808ZM180.708 30.5365C183.266 30.5365 185.332 30.8289 186.935 31.3793L187.584 29.4877C185.704 28.8421 183.401 28.5365 180.708 28.5365V30.5365ZM186.939 31.3808C188.56 31.9291 189.817 32.7591 190.75 33.852L192.271 32.553C191.073 31.1499 189.495 30.1339 187.58 29.4862L186.939 31.3808ZM190.758 33.861C191.72 34.9607 192.424 36.3995 192.836 38.2206L194.787 37.7784C194.316 35.6995 193.485 33.9403 192.263 32.544L190.758 33.861ZM192.84 38.2358C193.284 40.0608 193.514 42.2782 193.514 44.9025H195.514C195.514 42.1708 195.275 39.7862 194.783 37.7631L192.84 38.2358ZM193.514 44.9025C193.514 47.399 193.31 49.5614 192.912 51.3992L194.867 51.8218C195.302 49.8116 195.514 47.502 195.514 44.9025H193.514ZM192.913 51.3964C192.526 53.1638 191.846 54.5957 190.9 55.7268L192.434 57.0102C193.619 55.5933 194.422 53.8532 194.867 51.8246L192.913 51.3964ZM190.892 55.7361C189.983 56.8491 188.727 57.7158 187.075 58.3143L187.756 60.1947C189.693 59.4932 191.27 58.4359 192.441 57.0009L190.892 55.7361ZM187.083 58.3115C185.458 58.8851 183.344 59.1905 180.708 59.1905V61.1905C183.479 61.1905 185.838 60.8719 187.749 60.1975L187.083 58.3115ZM180.708 59.1905C178.072 59.1905 175.943 58.8853 174.289 58.31L173.632 60.199C175.566 60.8717 177.935 61.1905 180.708 61.1905V59.1905ZM174.306 58.3159C172.68 57.718 171.416 56.8494 170.477 55.7268L168.943 57.0102C170.135 58.4355 171.706 59.4909 173.616 60.1931L174.306 58.3159ZM170.484 55.7361C169.56 54.604 168.891 53.1687 168.503 51.3964L166.549 51.8246C166.992 53.8482 167.779 55.585 168.935 57.0009L170.484 55.7361ZM168.503 51.3992C168.106 49.5614 167.902 47.399 167.902 44.9025H165.902C165.902 47.502 166.114 49.8116 166.548 51.8218L168.503 51.3992ZM175.964 40.0275V52.1955H177.964V40.0275H175.964ZM176.964 53.1955H180.864V51.1955H176.964V53.1955ZM180.864 53.1955C182.184 53.1955 183.32 53.0591 184.097 52.6523L183.169 50.8807C182.853 51.0459 182.144 51.1955 180.864 51.1955V53.1955ZM184.112 52.6444C185.175 52.0645 185.491 50.8852 185.491 49.6995H183.491C183.491 50.6458 183.235 50.8445 183.154 50.8886L184.112 52.6444ZM185.491 49.6995V37.5315H183.491V49.6995H185.491ZM184.491 36.5315H180.552V38.5315H184.491V36.5315ZM180.552 36.5315C179.263 36.5315 178.143 36.6851 177.343 37.1216L178.301 38.8774C178.644 38.6899 179.344 38.5315 180.552 38.5315V36.5315ZM177.374 37.1051C176.276 37.6542 175.964 38.8519 175.964 40.0275H177.964C177.964 39.0711 178.223 38.9168 178.269 38.8939L177.374 37.1051ZM206.949 45.2925V44.2925H205.987L205.95 45.2541L206.949 45.2925ZM206.403 59.4885V60.4885H207.365L207.402 59.5269L206.403 59.4885ZM196.614 59.4885L195.616 59.4273L195.551 60.4885H196.614V59.4885ZM198.408 30.2385V29.2385H197.468L197.41 30.1773L198.408 30.2385ZM210.615 30.2385L211.587 30.0019L211.401 29.2385H210.615V30.2385ZM214.242 45.1365L213.271 45.373L213.456 46.1365H214.242V45.1365ZM214.593 45.1365V46.1365H215.379L215.565 45.373L214.593 45.1365ZM218.22 30.2385V29.2385H217.434L217.249 30.0019L218.22 30.2385ZM230.466 30.2385L231.464 30.1786L231.408 29.2385H230.466V30.2385ZM232.221 59.4885V60.4885H233.283L233.219 59.4286L232.221 59.4885ZM222.432 59.4885L221.433 59.5269L221.47 60.4885H222.432V59.4885ZM221.886 45.2925L222.885 45.2541L222.848 44.2925H221.886V45.2925ZM221.574 45.2925V44.2925H220.796L220.605 45.0475L221.574 45.2925ZM217.986 59.4885V60.4885H218.765L218.956 59.7335L217.986 59.4885ZM210.849 59.4885L209.88 59.736L210.073 60.4885H210.849V59.4885ZM207.222 45.2925L208.191 45.045L207.999 44.2925H207.222V45.2925ZM205.95 45.2541L205.404 59.4501L207.402 59.5269L207.948 45.3309L205.95 45.2541ZM206.403 58.4885H196.614V60.4885H206.403V58.4885ZM197.612 59.5497L199.406 30.2997L197.41 30.1773L195.616 59.4273L197.612 59.5497ZM198.408 31.2385H210.615V29.2385H198.408V31.2385ZM209.644 30.475L213.271 45.373L215.214 44.8999L211.587 30.0019L209.644 30.475ZM214.242 46.1365H214.593V44.1365H214.242V46.1365ZM215.565 45.373L219.192 30.475L217.249 30.0019L213.622 44.8999L215.565 45.373ZM218.22 31.2385H230.466V29.2385H218.22V31.2385ZM229.468 30.2984L231.223 59.5484L233.219 59.4286L231.464 30.1786L229.468 30.2984ZM232.221 58.4885H222.432V60.4885H232.221V58.4885ZM223.431 59.4501L222.885 45.2541L220.887 45.3309L221.433 59.5269L223.431 59.4501ZM221.886 44.2925H221.574V46.2925H221.886V44.2925ZM220.605 45.0475L217.017 59.2435L218.956 59.7335L222.544 45.5375L220.605 45.0475ZM217.986 58.4885H210.849V60.4885H217.986V58.4885ZM211.818 59.241L208.191 45.045L206.253 45.54L209.88 59.736L211.818 59.241ZM207.222 44.2925H206.949V46.2925H207.222V44.2925ZM244.883 45.2925V44.2925H243.921L243.884 45.2541L244.883 45.2925ZM244.337 59.4885V60.4885H245.299L245.336 59.5269L244.337 59.4885ZM234.548 59.4885L233.55 59.4273L233.485 60.4885H234.548V59.4885ZM236.342 30.2385V29.2385H235.401L235.344 30.1773L236.342 30.2385ZM248.549 30.2385L249.52 30.0019L249.335 29.2385H248.549V30.2385ZM252.176 45.1365L251.204 45.373L251.39 46.1365H252.176V45.1365ZM252.527 45.1365V46.1365H253.313L253.498 45.373L252.527 45.1365ZM256.154 30.2385V29.2385H255.368L255.182 30.0019L256.154 30.2385ZM268.4 30.2385L269.398 30.1786L269.342 29.2385H268.4V30.2385ZM270.155 59.4885V60.4885H271.217L271.153 59.4286L270.155 59.4885ZM260.366 59.4885L259.367 59.5269L259.404 60.4885H260.366V59.4885ZM259.82 45.2925L260.819 45.2541L260.782 44.2925H259.82V45.2925ZM259.508 45.2925V44.2925H258.729L258.538 45.0475L259.508 45.2925ZM255.92 59.4885V60.4885H256.699L256.889 59.7335L255.92 59.4885ZM248.783 59.4885L247.814 59.736L248.006 60.4885H248.783V59.4885ZM245.156 45.2925L246.125 45.045L245.932 44.2925H245.156V45.2925ZM243.884 45.2541L243.338 59.4501L245.336 59.5269L245.882 45.3309L243.884 45.2541ZM244.337 58.4885H234.548V60.4885H244.337V58.4885ZM235.546 59.5497L237.34 30.2997L235.344 30.1773L233.55 59.4273L235.546 59.5497ZM236.342 31.2385H248.549V29.2385H236.342V31.2385ZM247.577 30.475L251.204 45.373L253.147 44.8999L249.52 30.0019L247.577 30.475ZM252.176 46.1365H252.527V44.1365H252.176V46.1365ZM253.498 45.373L257.125 30.475L255.182 30.0019L251.555 44.8999L253.498 45.373ZM256.154 31.2385H268.4V29.2385H256.154V31.2385ZM267.402 30.2984L269.157 59.5484L271.153 59.4286L269.398 30.1786L267.402 30.2984ZM270.155 58.4885H260.366V60.4885H270.155V58.4885ZM261.365 59.4501L260.819 45.2541L258.821 45.3309L259.367 59.5269L261.365 59.4501ZM259.82 44.2925H259.508V46.2925H259.82V44.2925ZM258.538 45.0475L254.95 59.2435L256.889 59.7335L260.477 45.5375L258.538 45.0475ZM255.92 58.4885H248.783V60.4885H255.92V58.4885ZM249.752 59.241L246.125 45.045L244.187 45.54L247.814 59.736L249.752 59.241ZM245.156 44.2925H244.883V46.2925H245.156V44.2925ZM292.371 41.6655H293.371V40.6655H292.371V41.6655ZM292.371 48.4515V49.4515H293.371V48.4515H292.371ZM283.011 48.4515V47.4515H282.011V48.4515H283.011ZM283.011 52.0005H282.011V53.0005H283.011V52.0005ZM294.477 52.0005H295.477V51.0005H294.477V52.0005ZM294.477 59.4885V60.4885H295.477V59.4885H294.477ZM273.651 59.4885H272.651V60.4885H273.651V59.4885ZM273.651 30.2385V29.2385H272.651V30.2385H273.651ZM294.243 30.2385L295.231 30.3929L295.412 29.2385H294.243V30.2385ZM293.073 37.7265V38.7265H293.929L294.061 37.8809L293.073 37.7265ZM283.011 37.7265V36.7265H282.011V37.7265H283.011ZM283.011 41.6655H282.011V42.6655H283.011V41.6655ZM291.371 41.6655V48.4515H293.371V41.6655H291.371ZM292.371 47.4515H283.011V49.4515H292.371V47.4515ZM282.011 48.4515V52.0005H284.011V48.4515H282.011ZM283.011 53.0005H294.477V51.0005H283.011V53.0005ZM293.477 52.0005V59.4885H295.477V52.0005H293.477ZM294.477 58.4885H273.651V60.4885H294.477V58.4885ZM274.651 59.4885V30.2385H272.651V59.4885H274.651ZM273.651 31.2385H294.243V29.2385H273.651V31.2385ZM293.255 30.0841L292.085 37.5721L294.061 37.8809L295.231 30.3929L293.255 30.0841ZM293.073 36.7265H283.011V38.7265H293.073V36.7265ZM282.011 37.7265V41.6655H284.011V37.7265H282.011ZM283.011 42.6655H292.371V40.6655H283.011V42.6655ZM324.419 59.4885V60.4885H325.419V59.4885H324.419ZM315.605 59.4885L314.781 60.0553L315.08 60.4885H315.605V59.4885ZM308.468 49.1145L309.292 48.5477L309.287 48.5404L309.282 48.5333L308.468 49.1145ZM308.156 48.2955L307.179 48.505L307.179 48.505L308.156 48.2955ZM308 46.8525L308.999 46.8091L308.958 45.8525H308V46.8525ZM307.805 46.8525V45.8525H306.805V46.8525H307.805ZM307.805 59.4885V60.4885H308.805V59.4885H307.805ZM298.445 59.4885H297.445V60.4885H298.445V59.4885ZM298.445 30.2385V29.2385H297.445V30.2385H298.445ZM307.259 30.2385L308.083 29.6717L307.785 29.2385H307.259V30.2385ZM314.396 40.6125L313.572 41.1793L313.577 41.1866L313.583 41.1937L314.396 40.6125ZM314.864 42.8745L313.865 42.9179L313.907 43.8745H314.864V42.8745ZM315.059 42.8745V43.8745H316.059V42.8745H315.059ZM315.059 30.2385V29.2385H314.059V30.2385H315.059ZM324.419 30.2385H325.419V29.2385H324.419V30.2385ZM324.419 58.4885H315.605V60.4885H324.419V58.4885ZM316.429 58.9217L309.292 48.5477L307.644 49.6813L314.781 60.0553L316.429 58.9217ZM309.282 48.5333C309.267 48.5127 309.2 48.3935 309.134 48.086L307.179 48.505C307.269 48.9255 307.409 49.3522 307.655 49.6957L309.282 48.5333ZM309.134 48.086C309.073 47.7993 309.024 47.3804 308.999 46.8091L307.001 46.8959C307.028 47.5206 307.084 48.0637 307.179 48.505L309.134 48.086ZM308 45.8525H307.805V47.8525H308V45.8525ZM306.805 46.8525V59.4885H308.805V46.8525H306.805ZM307.805 58.4885H298.445V60.4885H307.805V58.4885ZM299.445 59.4885V30.2385H297.445V59.4885H299.445ZM298.445 31.2385H307.259V29.2385H298.445V31.2385ZM306.435 30.8053L313.572 41.1793L315.22 40.0457L308.083 29.6717L306.435 30.8053ZM313.583 41.1937C313.597 41.2142 313.665 41.3335 313.731 41.641L315.686 41.222C315.596 40.8015 315.455 40.3747 315.21 40.0313L313.583 41.1937ZM313.731 41.641C313.792 41.9277 313.84 42.3466 313.865 42.9179L315.863 42.8311C315.836 42.2064 315.781 41.6633 315.686 41.222L313.731 41.641ZM314.864 43.8745H315.059V41.8745H314.864V43.8745ZM316.059 42.8745V30.2385H314.059V42.8745H316.059ZM315.059 31.2385H324.419V29.2385H315.059V31.2385ZM323.419 30.2385V59.4885H325.419V30.2385H323.419ZM349.931 30.2385H350.931V29.2385H349.931V30.2385ZM349.931 37.7265V38.7265H350.931V37.7265H349.931ZM343.145 37.7265V36.7265H342.145V37.7265H343.145ZM343.145 59.4885V60.4885H344.145V59.4885H343.145ZM333.785 59.4885H332.785V60.4885H333.785V59.4885ZM333.785 37.7265H334.785V36.7265H333.785V37.7265ZM326.999 37.7265H325.999V38.7265H326.999V37.7265ZM326.999 30.2385V29.2385H325.999V30.2385H326.999ZM348.931 30.2385V37.7265H350.931V30.2385H348.931ZM349.931 36.7265H343.145V38.7265H349.931V36.7265ZM342.145 37.7265V59.4885H344.145V37.7265H342.145ZM343.145 58.4885H333.785V60.4885H343.145V58.4885ZM334.785 59.4885V37.7265H332.785V59.4885H334.785ZM333.785 36.7265H326.999V38.7265H333.785V36.7265ZM327.999 37.7265V30.2385H325.999V37.7265H327.999ZM326.999 31.2385H349.931V29.2385H326.999V31.2385Z" fill="white"/>
<path d="M19.4004 58.9815L18.4148 58.8123L18.2538 59.7496L19.1819 59.9573L19.4004 58.9815ZM20.7264 51.2595L20.9647 50.2883L19.9224 50.0325L19.7408 51.0903L20.7264 51.2595ZM31.5684 52.2735L31.5977 53.2731L31.6116 53.2727L31.6254 53.2719L31.5684 52.2735ZM33.9864 52.0395L34.1329 53.0287L34.9864 52.9023V52.0395H33.9864ZM33.9864 49.6995H34.9864V48.7794L34.0694 48.7029L33.9864 49.6995ZM29.7744 49.3485L29.6789 50.344L29.6913 50.345L29.7744 49.3485ZM25.0164 48.4125L24.6886 49.3573L24.6886 49.3573L25.0164 48.4125ZM21.9354 46.6185L21.2164 47.3135L21.2281 47.3257L21.2403 47.3375L21.9354 46.6185ZM20.2974 43.8495L19.3358 44.1242L19.3398 44.138L19.3441 44.1517L20.2974 43.8495ZM20.4534 35.0355L21.4075 35.3348L21.4091 35.3296L20.4534 35.0355ZM22.4424 31.7985L23.1054 32.5471L23.1113 32.5418L23.1171 32.5365L22.4424 31.7985ZM25.9524 30.0435L25.7262 29.0694L25.7223 29.0703L25.9524 30.0435ZM42.4884 30.7065L43.4764 30.8609L43.6198 29.9429L42.7149 29.7325L42.4884 30.7065ZM41.3184 38.1945L41.1597 39.1818L42.1513 39.3412L42.3064 38.3489L41.3184 38.1945ZM29.8914 37.7265L29.7647 36.7345L28.8914 36.846V37.7265H29.8914ZM29.8914 40.0275H28.8914V40.9388L29.7987 41.0232L29.8914 40.0275ZM33.2454 40.3395L33.3461 39.3445L33.338 39.3438L33.2454 40.3395ZM38.3934 41.3925L38.0559 42.3338L38.0638 42.3367L38.0718 42.3394L38.3934 41.3925ZM41.7084 43.2645L41.0244 43.994L41.03 43.9993L41.0357 44.0044L41.7084 43.2645ZM43.5024 46.0335L42.5491 46.3357L42.5524 46.3462L42.556 46.3566L43.5024 46.0335ZM43.2684 54.6915L42.335 54.3325L42.335 54.3325L43.2684 54.6915ZM41.3964 57.7725L42.0876 58.4951L42.0905 58.4923L41.3964 57.7725ZM39.1734 59.1375L39.5062 60.0805L39.5184 60.0762L39.5305 60.0715L39.1734 59.1375ZM36.3654 59.8395L36.5213 60.8273L36.5213 60.8273L36.3654 59.8395ZM33.3624 60.1125L33.3367 59.1128L33.3232 59.1132L33.3098 59.1139L33.3624 60.1125ZM24.8214 59.8785L24.9318 58.8846L24.8214 59.8785ZM20.3859 59.1507L21.7119 51.4287L19.7408 51.0903L18.4148 58.8123L20.3859 59.1507ZM20.488 52.2307C23.4059 52.9469 26.0747 53.3125 28.4874 53.3125V51.3125C26.272 51.3125 23.7668 50.9761 20.9647 50.2883L20.488 52.2307ZM28.4874 53.3125C29.6642 53.3125 30.7014 53.2994 31.5977 53.2731L31.539 51.2739C30.6673 51.2996 29.6505 51.3125 28.4874 51.3125V53.3125ZM31.6254 53.2719C32.5574 53.2186 33.3943 53.1381 34.1329 53.0287L33.8398 51.0503C33.1744 51.1489 32.3993 51.2244 31.5113 51.2751L31.6254 53.2719ZM34.9864 52.0395V49.6995H32.9864V52.0395H34.9864ZM34.0694 48.7029L29.8574 48.3519L29.6913 50.345L33.9033 50.696L34.0694 48.7029ZM29.8698 48.3531C28.0212 48.1758 26.5192 47.8754 25.3441 47.4677L24.6886 49.3573C26.0615 49.8336 27.7315 50.1572 29.6789 50.3439L29.8698 48.3531ZM25.3441 47.4677C24.175 47.0621 23.2836 46.531 22.6304 45.8995L21.2403 47.3375C22.1471 48.214 23.3097 48.8789 24.6886 49.3573L25.3441 47.4677ZM22.6543 45.9235C22.0111 45.258 21.5434 44.4707 21.2506 43.5473L19.3441 44.1517C19.7273 45.3603 20.3516 46.419 21.2164 47.3135L22.6543 45.9235ZM21.2589 43.5748C20.9784 42.5931 20.8294 41.4153 20.8294 40.0275H18.8294C18.8294 41.5517 18.9923 42.9219 19.3358 44.1242L21.2589 43.5748ZM20.8294 40.0275C20.8294 38.0864 21.032 36.5316 21.4075 35.3348L19.4992 34.7362C19.0427 36.1914 18.8294 37.9646 18.8294 40.0275H20.8294ZM21.4091 35.3296C21.7801 34.1239 22.354 33.2126 23.1054 32.5471L21.7793 31.0499C20.7107 31.9964 19.9586 33.2431 19.4976 34.7414L21.4091 35.3296ZM23.1171 32.5365C23.8792 31.8397 24.8864 31.323 26.1824 31.0167L25.7223 29.0703C24.1583 29.44 22.8255 30.0933 21.7676 31.0605L23.1171 32.5365ZM26.1785 31.0176C27.5378 30.702 29.2252 30.5365 31.2564 30.5365V28.5365C29.1275 28.5365 27.2789 28.709 25.7262 29.0694L26.1785 31.0176ZM31.2564 30.5365C35.3288 30.5365 38.9952 30.9208 42.2618 31.6805L42.7149 29.7325C39.2736 28.9322 35.4519 28.5365 31.2564 28.5365V30.5365ZM41.5003 30.5521L40.3303 38.0401L42.3064 38.3489L43.4764 30.8609L41.5003 30.5521ZM41.477 37.2072C38.5432 36.7357 36.1564 36.4925 34.3374 36.4925V38.4925C36.0023 38.4925 38.2695 38.7173 41.1597 39.1818L41.477 37.2072ZM34.3374 36.4925C32.5688 36.4925 31.0419 36.5715 29.7647 36.7345L30.018 38.7184C31.1848 38.5695 32.6219 38.4925 34.3374 38.4925V36.4925ZM28.8914 37.7265V40.0275H30.8914V37.7265H28.8914ZM29.7987 41.0232L33.1527 41.3352L33.338 39.3438L29.984 39.0318L29.7987 41.0232ZM33.1446 41.3344C35.148 41.5373 36.7784 41.8759 38.0559 42.3338L38.7308 40.4512C37.2523 39.9211 35.4507 39.5577 33.3461 39.3446L33.1446 41.3344ZM38.0718 42.3394C39.3508 42.7738 40.3208 43.3344 41.0244 43.994L42.3923 42.535C41.4319 41.6346 40.1919 40.9472 38.7149 40.4456L38.0718 42.3394ZM41.0357 44.0044C41.7682 44.6704 42.2664 45.4442 42.5491 46.3357L44.4556 45.7313C44.0623 44.4908 43.3645 43.4186 42.381 42.5246L41.0357 44.0044ZM42.556 46.3566C42.8776 47.2983 43.0484 48.4078 43.0484 49.6995H45.0484C45.0484 48.2352 44.8551 46.9006 44.4487 45.7103L42.556 46.3566ZM43.0484 49.6995C43.0484 51.5945 42.7981 53.1285 42.335 54.3325L44.2017 55.0505C44.7786 53.5505 45.0484 51.7565 45.0484 49.6995H43.0484ZM42.335 54.3325C41.8464 55.6029 41.2898 56.486 40.7022 57.0527L42.0905 58.4923C42.9589 57.6549 43.6503 56.4841 44.2017 55.0505L42.335 54.3325ZM40.7051 57.0499C40.2162 57.5176 39.5936 57.9062 38.8162 58.2034L39.5305 60.0715C40.5211 59.6928 41.3806 59.1714 42.0876 58.4951L40.7051 57.0499ZM38.8405 58.1945C38.0177 58.4849 37.1412 58.7046 36.2094 58.8517L36.5213 60.8273C37.5655 60.6624 38.561 60.4141 39.5062 60.0805L38.8405 58.1945ZM36.2094 58.8517C35.2651 59.0008 34.3077 59.0879 33.3367 59.1128L33.388 61.1122C34.445 61.0851 35.4896 60.9902 36.5213 60.8273L36.2094 58.8517ZM33.3098 59.1139C32.3355 59.1652 31.4564 59.1905 30.6714 59.1905V61.1905C31.4983 61.1905 32.4132 61.1638 33.4149 61.1111L33.3098 59.1139ZM30.6714 59.1905C28.6775 59.1905 26.7644 59.0882 24.9318 58.8846L24.7109 60.8724C26.6223 61.0847 28.6092 61.1905 30.6714 61.1905V59.1905ZM24.9318 58.8846C23.0941 58.6804 21.3233 58.3872 19.6188 58.0057L19.1819 59.9573C20.9614 60.3557 22.8046 60.6606 24.7109 60.8724L24.9318 58.8846ZM66.2933 41.6655H67.2933V40.6655H66.2933V41.6655ZM66.2933 48.4515V49.4515H67.2933V48.4515H66.2933ZM56.9333 48.4515V47.4515H55.9333V48.4515H56.9333ZM56.9333 52.0005H55.9333V53.0005H56.9333V52.0005ZM68.3993 52.0005H69.3993V51.0005H68.3993V52.0005ZM68.3993 59.4885V60.4885H69.3993V59.4885H68.3993ZM47.5733 59.4885H46.5733V60.4885H47.5733V59.4885ZM47.5733 30.2385V29.2385H46.5733V30.2385H47.5733ZM68.1653 30.2385L69.1533 30.3929L69.3337 29.2385H68.1653V30.2385ZM66.9953 37.7265V38.7265H67.8512L67.9833 37.8809L66.9953 37.7265ZM56.9333 37.7265V36.7265H55.9333V37.7265H56.9333ZM56.9333 41.6655H55.9333V42.6655H56.9333V41.6655ZM65.2933 41.6655V48.4515H67.2933V41.6655H65.2933ZM66.2933 47.4515H56.9333V49.4515H66.2933V47.4515ZM55.9333 48.4515V52.0005H57.9333V48.4515H55.9333ZM56.9333 53.0005H68.3993V51.0005H56.9333V53.0005ZM67.3993 52.0005V59.4885H69.3993V52.0005H67.3993ZM68.3993 58.4885H47.5733V60.4885H68.3993V58.4885ZM48.5733 59.4885V30.2385H46.5733V59.4885H48.5733ZM47.5733 31.2385H68.1653V29.2385H47.5733V31.2385ZM67.1773 30.0841L66.0073 37.5721L67.9833 37.8809L69.1533 30.3929L67.1773 30.0841ZM66.9953 36.7265H56.9333V38.7265H66.9953V36.7265ZM55.9333 37.7265V41.6655H57.9333V37.7265H55.9333ZM56.9333 42.6655H66.2933V40.6655H56.9333V42.6655ZM98.3412 59.4885V60.4885H99.3412V59.4885H98.3412ZM89.5272 59.4885L88.7034 60.0553L89.0014 60.4885H89.5272V59.4885ZM82.3902 49.1145L83.2141 48.5477L83.2091 48.5404L83.204 48.5333L82.3902 49.1145ZM82.0782 48.2955L81.1004 48.505L81.1004 48.505L82.0782 48.2955ZM81.9222 46.8525L82.9213 46.8091L82.8797 45.8525H81.9222V46.8525ZM81.7272 46.8525V45.8525H80.7272V46.8525H81.7272ZM81.7272 59.4885V60.4885H82.7272V59.4885H81.7272ZM72.3672 59.4885H71.3672V60.4885H72.3672V59.4885ZM72.3672 30.2385V29.2385H71.3672V30.2385H72.3672ZM81.1812 30.2385L82.0051 29.6717L81.7071 29.2385H81.1812V30.2385ZM88.3182 40.6125L87.4944 41.1793L87.4994 41.1866L87.5045 41.1937L88.3182 40.6125ZM88.7862 42.8745L87.7872 42.9179L87.8288 43.8745H88.7862V42.8745ZM88.9812 42.8745V43.8745H89.9812V42.8745H88.9812ZM88.9812 30.2385V29.2385H87.9812V30.2385H88.9812ZM98.3412 30.2385H99.3412V29.2385H98.3412V30.2385ZM98.3412 58.4885H89.5272V60.4885H98.3412V58.4885ZM90.3511 58.9217L83.2141 48.5477L81.5664 49.6813L88.7034 60.0553L90.3511 58.9217ZM83.204 48.5333C83.1893 48.5127 83.1219 48.3935 83.056 48.086L81.1004 48.505C81.1905 48.9255 81.3311 49.3522 81.5765 49.6957L83.204 48.5333ZM83.056 48.086C82.9946 47.7993 82.9461 47.3804 82.9213 46.8091L80.9232 46.8959C80.9503 47.5206 81.0059 48.0637 81.1004 48.505L83.056 48.086ZM81.9222 45.8525H81.7272V47.8525H81.9222V45.8525ZM80.7272 46.8525V59.4885H82.7272V46.8525H80.7272ZM81.7272 58.4885H72.3672V60.4885H81.7272V58.4885ZM73.3672 59.4885V30.2385H71.3672V59.4885H73.3672ZM72.3672 31.2385H81.1812V29.2385H72.3672V31.2385ZM80.3574 30.8053L87.4944 41.1793L89.1421 40.0457L82.0051 29.6717L80.3574 30.8053ZM87.5045 41.1937C87.5191 41.2142 87.5865 41.3335 87.6524 41.641L89.608 41.222C89.5179 40.8015 89.3773 40.3747 89.132 40.0313L87.5045 41.1937ZM87.6524 41.641C87.7139 41.9277 87.7623 42.3466 87.7872 42.9179L89.7853 42.8311C89.7581 42.2064 89.7026 41.6633 89.608 41.222L87.6524 41.641ZM88.7862 43.8745H88.9812V41.8745H88.7862V43.8745ZM89.9812 42.8745V30.2385H87.9812V42.8745H89.9812ZM88.9812 31.2385H98.3412V29.2385H88.9812V31.2385ZM97.3412 30.2385V59.4885H99.3412V30.2385H97.3412ZM103.026 59.4885H102.026V60.4885H103.026V59.4885ZM103.026 30.2385V29.2385H102.026V30.2385H103.026ZM122.721 31.0575L122.426 32.0131L122.439 32.0169L122.721 31.0575ZM129.234 38.1165L128.262 38.3494L128.265 38.3622L129.234 38.1165ZM129.234 51.5715L128.264 51.3289L128.262 51.3386L129.234 51.5715ZM126.972 56.0955L126.233 55.422L126.233 55.422L126.972 56.0955ZM122.721 58.6695L122.426 57.714L122.426 57.714L122.721 58.6695ZM112.386 37.7265V36.7265H111.386V37.7265H112.386ZM112.386 52.0005H111.386V53.0005H112.386V52.0005ZM119.055 51.5715L119.519 52.4573L119.527 52.4534L119.534 52.4494L119.055 51.5715ZM119.055 38.1945L118.559 39.0627L118.583 39.0765L118.608 39.0889L119.055 38.1945ZM116.13 58.4885H103.026V60.4885H116.13V58.4885ZM104.026 59.4885V30.2385H102.026V59.4885H104.026ZM103.026 31.2385H116.13V29.2385H103.026V31.2385ZM116.13 31.2385C118.695 31.2385 120.785 31.506 122.426 32.013L123.016 30.102C121.122 29.517 118.818 29.2385 116.13 29.2385V31.2385ZM122.439 32.0169C124.061 32.4938 125.31 33.2522 126.233 34.266L127.712 32.919C126.503 31.5928 124.918 30.6612 123.004 30.0981L122.439 32.0169ZM126.233 34.266C127.165 35.2885 127.851 36.6349 128.262 38.3493L130.207 37.8836C129.733 35.9061 128.912 34.2365 127.712 32.919L126.233 34.266ZM128.265 38.3622C128.707 40.1041 128.936 42.2525 128.936 44.8245H130.936C130.936 42.1445 130.698 39.8209 130.204 37.8707L128.265 38.3622ZM128.936 44.8245C128.936 47.3959 128.707 49.5589 128.264 51.329L130.205 51.814C130.698 49.8401 130.936 47.505 130.936 44.8245H128.936ZM128.262 51.3386C127.851 53.0531 127.165 54.3995 126.233 55.422L127.712 56.769C128.912 55.4515 129.733 53.7819 130.207 51.8043L128.262 51.3386ZM126.233 55.422C125.306 56.4392 124.053 57.2117 122.426 57.714L123.016 59.625C124.926 59.0353 126.506 58.0918 127.712 56.769L126.233 55.422ZM122.426 57.714C120.785 58.221 118.695 58.4885 116.13 58.4885V60.4885C118.818 60.4885 121.122 60.21 123.016 59.625L122.426 57.714ZM116.286 36.7265H112.386V38.7265H116.286V36.7265ZM111.386 37.7265V52.0005H113.386V37.7265H111.386ZM112.386 53.0005H116.286V51.0005H112.386V53.0005ZM116.286 53.0005C117.607 53.0005 118.743 52.8641 119.519 52.4573L118.591 50.6857C118.276 50.8509 117.566 51.0005 116.286 51.0005V53.0005ZM119.534 52.4494C120.597 51.8695 120.913 50.6902 120.913 49.5045H118.913C118.913 50.4508 118.657 50.6495 118.577 50.6936L119.534 52.4494ZM120.913 49.5045V40.2225H118.913V49.5045H120.913ZM120.913 40.2225C120.913 39.0469 120.601 37.8492 119.503 37.3001L118.608 39.0889C118.654 39.1118 118.913 39.2661 118.913 40.2225H120.913ZM119.552 37.3263C118.763 36.8759 117.611 36.7265 116.286 36.7265V38.7265C117.561 38.7265 118.255 38.8891 118.559 39.0627L119.552 37.3263ZM164.343 51.1035L165.339 51.0147L165.224 49.7258L164.006 50.162L164.343 51.1035ZM165.045 58.9815L165.418 59.9091L166.107 59.632L166.041 58.8927L165.045 58.9815ZM150.732 59.2935L150.408 60.2395L150.42 60.2435L150.732 59.2935ZM146.403 56.4855L147.163 55.836L147.163 55.836L146.403 56.4855ZM144.141 51.7275L143.163 51.9388L143.166 51.9514L144.141 51.7275ZM144.102 38.2335L143.124 38.0222L143.122 38.0322L144.102 38.2335ZM146.286 33.4365L147.061 34.0689L147.067 34.0612L146.286 33.4365ZM150.498 30.5115L150.157 29.5713L150.153 29.5729L150.498 30.5115ZM159.273 29.6535L159.166 30.6478L159.185 30.6498L159.204 30.6511L159.273 29.6535ZM161.457 29.8875L161.31 30.8767L161.316 30.8774L161.457 29.8875ZM163.485 30.2775L163.242 31.2476L163.265 31.2534L163.289 31.2581L163.485 30.2775ZM165.045 30.7455L166.026 30.9375L166.176 30.17L165.468 29.8393L165.045 30.7455ZM163.641 37.9215L163.433 38.8997L164.427 39.1109L164.622 38.1135L163.641 37.9215ZM153.579 51.8445H152.579V52.6505L153.367 52.8217L153.579 51.8445ZM155.373 52.1565L155.244 53.1481L155.267 53.1511L155.29 53.153L155.373 52.1565ZM163.347 51.1923L164.049 59.0703L166.041 58.8927L165.339 51.0147L163.347 51.1923ZM164.671 58.0539C162.823 58.7982 160.488 59.1905 157.635 59.1905V61.1905C160.658 61.1905 163.263 60.7768 165.418 59.9091L164.671 58.0539ZM157.635 59.1905C154.915 59.1905 152.729 58.8971 151.044 58.3435L150.42 60.2435C152.375 60.8859 154.79 61.1905 157.635 61.1905V59.1905ZM151.056 58.3475C149.376 57.7715 148.094 56.9261 147.163 55.836L145.643 57.135C146.843 58.5409 148.448 59.5675 150.408 60.2394L151.056 58.3475ZM147.163 55.836C146.221 54.733 145.529 53.3021 145.116 51.5036L143.166 51.9514C143.637 54.0008 144.453 55.742 145.643 57.135L147.163 55.836ZM145.118 51.5162C144.721 49.6802 144.517 47.4794 144.517 44.9025H142.517C142.517 47.5776 142.728 49.9268 143.164 51.9388L145.118 51.5162ZM144.517 44.9025C144.517 42.4023 144.709 40.2496 145.081 38.4348L143.122 38.0322C142.715 40.0134 142.517 42.3067 142.517 44.9025H144.517ZM145.079 38.4448C145.468 36.6451 146.138 35.1987 147.061 34.0689L145.511 32.8041C144.354 34.2223 143.567 35.9739 143.125 38.0222L145.079 38.4448ZM147.067 34.0612C147.978 32.9216 149.223 32.0456 150.843 31.4501L150.153 29.5729C148.237 30.2774 146.673 31.3514 145.505 32.8118L147.067 34.0612ZM150.839 31.4517C152.487 30.8543 154.624 30.5365 157.284 30.5365V28.5365C154.484 28.5365 152.097 28.8687 150.157 29.5713L150.839 31.4517ZM157.284 30.5365C157.84 30.5365 158.466 30.5728 159.166 30.6478L159.379 28.6592C158.624 28.5782 157.924 28.5365 157.284 28.5365V30.5365ZM159.204 30.6511C159.934 30.7014 160.636 30.7768 161.31 30.8767L161.603 28.8983C160.874 28.7902 160.12 28.7095 159.342 28.6559L159.204 30.6511ZM161.316 30.8774C162.014 30.9773 162.656 31.1011 163.242 31.2476L163.727 29.3074C163.066 29.1419 162.356 29.0057 161.598 28.8975L161.316 30.8774ZM163.289 31.2581C163.898 31.3799 164.332 31.5164 164.622 31.6517L165.468 29.8393C164.978 29.6106 164.372 29.4351 163.681 29.2969L163.289 31.2581ZM164.064 30.5535L162.66 37.7295L164.622 38.1135L166.026 30.9375L164.064 30.5535ZM163.849 36.9433C161.72 36.4909 159.789 36.2585 158.064 36.2585V38.2585C159.615 38.2585 161.402 38.4681 163.433 38.8997L163.849 36.9433ZM158.064 36.2585C156.374 36.2585 154.996 36.4051 154.121 36.825L154.987 38.628C155.412 38.4239 156.374 38.2585 158.064 38.2585V36.2585ZM154.121 36.825C153.016 37.3553 152.579 38.4144 152.579 39.5985H154.579C154.579 38.9106 154.791 38.7217 154.987 38.628L154.121 36.825ZM152.579 39.5985V51.8445H154.579V39.5985H152.579ZM153.367 52.8217C153.992 52.9576 154.617 53.0664 155.244 53.1481L155.502 51.1649C154.933 51.0906 154.362 50.9914 153.791 50.8673L153.367 52.8217ZM155.29 53.153C155.943 53.2074 156.607 53.2345 157.284 53.2345V51.2345C156.661 51.2345 156.051 51.2096 155.456 51.1599L155.29 53.153ZM157.284 53.2345C159.981 53.2345 162.45 52.8434 164.68 52.045L164.006 50.162C162.024 50.8716 159.787 51.2345 157.284 51.2345V53.2345ZM167.565 37.9995L166.592 37.7661L166.59 37.7756L167.565 37.9995ZM169.866 33.2025L169.113 32.5439L169.105 32.553L169.866 33.2025ZM174.156 30.4335L173.835 29.4862L173.835 29.4862L174.156 30.4335ZM187.26 30.4335L186.935 31.3793L186.939 31.3808L187.26 30.4335ZM191.511 33.2025L190.75 33.852L190.758 33.861L191.511 33.2025ZM193.812 37.9995L192.836 38.2206L192.838 38.2282L192.84 38.2358L193.812 37.9995ZM193.89 51.6105L194.867 51.8246L194.867 51.8218L193.89 51.6105ZM191.667 56.3685L190.9 55.7267L190.892 55.7361L191.667 56.3685ZM187.416 59.2545L187.749 60.1975L187.756 60.1947L187.416 59.2545ZM173.961 59.2545L173.616 60.1931L173.624 60.1961L173.632 60.199L173.961 59.2545ZM169.71 56.3685L168.935 57.0009L168.943 57.0102L169.71 56.3685ZM167.526 51.6105L166.548 51.8218L166.549 51.8246L167.526 51.6105ZM176.964 52.1955H175.964V53.1955H176.964V52.1955ZM183.633 51.7665L184.097 52.6523L184.104 52.6484L184.112 52.6444L183.633 51.7665ZM184.491 37.5315H185.491V36.5315H184.491V37.5315ZM177.822 37.9995L178.269 38.8939L178.285 38.8859L178.301 38.8774L177.822 37.9995ZM167.902 44.9025C167.902 42.2751 168.119 40.0532 168.539 38.2234L166.59 37.7756C166.126 39.7938 165.902 42.1739 165.902 44.9025H167.902ZM168.537 38.2329C168.976 36.4028 169.683 34.9562 170.626 33.852L169.105 32.553C167.917 33.9448 167.089 35.6962 166.592 37.7661L168.537 38.2329ZM170.618 33.861C171.58 32.7617 172.854 31.9295 174.476 31.3808L173.835 29.4862C171.922 30.1335 170.335 31.1473 169.113 32.544L170.618 33.861ZM174.476 31.3808C176.109 30.8284 178.177 30.5365 180.708 30.5365V28.5365C178.038 28.5365 175.738 28.8426 173.835 29.4862L174.476 31.3808ZM180.708 30.5365C183.266 30.5365 185.332 30.8289 186.935 31.3793L187.584 29.4877C185.704 28.8421 183.401 28.5365 180.708 28.5365V30.5365ZM186.939 31.3808C188.56 31.9291 189.817 32.7591 190.75 33.852L192.271 32.553C191.073 31.1499 189.495 30.1339 187.58 29.4862L186.939 31.3808ZM190.758 33.861C191.72 34.9607 192.424 36.3995 192.836 38.2206L194.787 37.7784C194.316 35.6995 193.485 33.9403 192.263 32.544L190.758 33.861ZM192.84 38.2358C193.284 40.0608 193.514 42.2782 193.514 44.9025H195.514C195.514 42.1708 195.275 39.7862 194.783 37.7631L192.84 38.2358ZM193.514 44.9025C193.514 47.399 193.31 49.5614 192.912 51.3992L194.867 51.8218C195.302 49.8116 195.514 47.502 195.514 44.9025H193.514ZM192.913 51.3964C192.526 53.1638 191.846 54.5957 190.9 55.7268L192.434 57.0102C193.619 55.5933 194.422 53.8532 194.867 51.8246L192.913 51.3964ZM190.892 55.7361C189.983 56.8491 188.727 57.7158 187.075 58.3143L187.756 60.1947C189.693 59.4932 191.27 58.4359 192.441 57.0009L190.892 55.7361ZM187.083 58.3115C185.458 58.8851 183.344 59.1905 180.708 59.1905V61.1905C183.479 61.1905 185.838 60.8719 187.749 60.1975L187.083 58.3115ZM180.708 59.1905C178.072 59.1905 175.943 58.8853 174.289 58.31L173.632 60.199C175.566 60.8717 177.935 61.1905 180.708 61.1905V59.1905ZM174.306 58.3159C172.68 57.718 171.416 56.8494 170.477 55.7268L168.943 57.0102C170.135 58.4355 171.706 59.4909 173.616 60.1931L174.306 58.3159ZM170.484 55.7361C169.56 54.604 168.891 53.1687 168.503 51.3964L166.549 51.8246C166.992 53.8482 167.779 55.585 168.935 57.0009L170.484 55.7361ZM168.503 51.3992C168.106 49.5614 167.902 47.399 167.902 44.9025H165.902C165.902 47.502 166.114 49.8116 166.548 51.8218L168.503 51.3992ZM175.964 40.0275V52.1955H177.964V40.0275H175.964ZM176.964 53.1955H180.864V51.1955H176.964V53.1955ZM180.864 53.1955C182.184 53.1955 183.32 53.0591 184.097 52.6523L183.169 50.8807C182.853 51.0459 182.144 51.1955 180.864 51.1955V53.1955ZM184.112 52.6444C185.175 52.0645 185.491 50.8852 185.491 49.6995H183.491C183.491 50.6458 183.235 50.8445 183.154 50.8886L184.112 52.6444ZM185.491 49.6995V37.5315H183.491V49.6995H185.491ZM184.491 36.5315H180.552V38.5315H184.491V36.5315ZM180.552 36.5315C179.263 36.5315 178.143 36.6851 177.343 37.1216L178.301 38.8774C178.644 38.6899 179.344 38.5315 180.552 38.5315V36.5315ZM177.374 37.1051C176.276 37.6542 175.964 38.8519 175.964 40.0275H177.964C177.964 39.0711 178.223 38.9168 178.269 38.8939L177.374 37.1051ZM206.949 45.2925V44.2925H205.987L205.95 45.2541L206.949 45.2925ZM206.403 59.4885V60.4885H207.365L207.402 59.5269L206.403 59.4885ZM196.614 59.4885L195.616 59.4273L195.551 60.4885H196.614V59.4885ZM198.408 30.2385V29.2385H197.468L197.41 30.1773L198.408 30.2385ZM210.615 30.2385L211.587 30.0019L211.401 29.2385H210.615V30.2385ZM214.242 45.1365L213.271 45.373L213.456 46.1365H214.242V45.1365ZM214.593 45.1365V46.1365H215.379L215.565 45.373L214.593 45.1365ZM218.22 30.2385V29.2385H217.434L217.249 30.0019L218.22 30.2385ZM230.466 30.2385L231.464 30.1786L231.408 29.2385H230.466V30.2385ZM232.221 59.4885V60.4885H233.283L233.219 59.4286L232.221 59.4885ZM222.432 59.4885L221.433 59.5269L221.47 60.4885H222.432V59.4885ZM221.886 45.2925L222.885 45.2541L222.848 44.2925H221.886V45.2925ZM221.574 45.2925V44.2925H220.796L220.605 45.0475L221.574 45.2925ZM217.986 59.4885V60.4885H218.765L218.956 59.7335L217.986 59.4885ZM210.849 59.4885L209.88 59.736L210.073 60.4885H210.849V59.4885ZM207.222 45.2925L208.191 45.045L207.999 44.2925H207.222V45.2925ZM205.95 45.2541L205.404 59.4501L207.402 59.5269L207.948 45.3309L205.95 45.2541ZM206.403 58.4885H196.614V60.4885H206.403V58.4885ZM197.612 59.5497L199.406 30.2997L197.41 30.1773L195.616 59.4273L197.612 59.5497ZM198.408 31.2385H210.615V29.2385H198.408V31.2385ZM209.644 30.475L213.271 45.373L215.214 44.8999L211.587 30.0019L209.644 30.475ZM214.242 46.1365H214.593V44.1365H214.242V46.1365ZM215.565 45.373L219.192 30.475L217.249 30.0019L213.622 44.8999L215.565 45.373ZM218.22 31.2385H230.466V29.2385H218.22V31.2385ZM229.468 30.2984L231.223 59.5484L233.219 59.4286L231.464 30.1786L229.468 30.2984ZM232.221 58.4885H222.432V60.4885H232.221V58.4885ZM223.431 59.4501L222.885 45.2541L220.887 45.3309L221.433 59.5269L223.431 59.4501ZM221.886 44.2925H221.574V46.2925H221.886V44.2925ZM220.605 45.0475L217.017 59.2435L218.956 59.7335L222.544 45.5375L220.605 45.0475ZM217.986 58.4885H210.849V60.4885H217.986V58.4885ZM211.818 59.241L208.191 45.045L206.253 45.54L209.88 59.736L211.818 59.241ZM207.222 44.2925H206.949V46.2925H207.222V44.2925ZM244.883 45.2925V44.2925H243.921L243.884 45.2541L244.883 45.2925ZM244.337 59.4885V60.4885H245.299L245.336 59.5269L244.337 59.4885ZM234.548 59.4885L233.55 59.4273L233.485 60.4885H234.548V59.4885ZM236.342 30.2385V29.2385H235.401L235.344 30.1773L236.342 30.2385ZM248.549 30.2385L249.52 30.0019L249.335 29.2385H248.549V30.2385ZM252.176 45.1365L251.204 45.373L251.39 46.1365H252.176V45.1365ZM252.527 45.1365V46.1365H253.313L253.498 45.373L252.527 45.1365ZM256.154 30.2385V29.2385H255.368L255.182 30.0019L256.154 30.2385ZM268.4 30.2385L269.398 30.1786L269.342 29.2385H268.4V30.2385ZM270.155 59.4885V60.4885H271.217L271.153 59.4286L270.155 59.4885ZM260.366 59.4885L259.367 59.5269L259.404 60.4885H260.366V59.4885ZM259.82 45.2925L260.819 45.2541L260.782 44.2925H259.82V45.2925ZM259.508 45.2925V44.2925H258.729L258.538 45.0475L259.508 45.2925ZM255.92 59.4885V60.4885H256.699L256.889 59.7335L255.92 59.4885ZM248.783 59.4885L247.814 59.736L248.006 60.4885H248.783V59.4885ZM245.156 45.2925L246.125 45.045L245.932 44.2925H245.156V45.2925ZM243.884 45.2541L243.338 59.4501L245.336 59.5269L245.882 45.3309L243.884 45.2541ZM244.337 58.4885H234.548V60.4885H244.337V58.4885ZM235.546 59.5497L237.34 30.2997L235.344 30.1773L233.55 59.4273L235.546 59.5497ZM236.342 31.2385H248.549V29.2385H236.342V31.2385ZM247.577 30.475L251.204 45.373L253.147 44.8999L249.52 30.0019L247.577 30.475ZM252.176 46.1365H252.527V44.1365H252.176V46.1365ZM253.498 45.373L257.125 30.475L255.182 30.0019L251.555 44.8999L253.498 45.373ZM256.154 31.2385H268.4V29.2385H256.154V31.2385ZM267.402 30.2984L269.157 59.5484L271.153 59.4286L269.398 30.1786L267.402 30.2984ZM270.155 58.4885H260.366V60.4885H270.155V58.4885ZM261.365 59.4501L260.819 45.2541L258.821 45.3309L259.367 59.5269L261.365 59.4501ZM259.82 44.2925H259.508V46.2925H259.82V44.2925ZM258.538 45.0475L254.95 59.2435L256.889 59.7335L260.477 45.5375L258.538 45.0475ZM255.92 58.4885H248.783V60.4885H255.92V58.4885ZM249.752 59.241L246.125 45.045L244.187 45.54L247.814 59.736L249.752 59.241ZM245.156 44.2925H244.883V46.2925H245.156V44.2925ZM292.371 41.6655H293.371V40.6655H292.371V41.6655ZM292.371 48.4515V49.4515H293.371V48.4515H292.371ZM283.011 48.4515V47.4515H282.011V48.4515H283.011ZM283.011 52.0005H282.011V53.0005H283.011V52.0005ZM294.477 52.0005H295.477V51.0005H294.477V52.0005ZM294.477 59.4885V60.4885H295.477V59.4885H294.477ZM273.651 59.4885H272.651V60.4885H273.651V59.4885ZM273.651 30.2385V29.2385H272.651V30.2385H273.651ZM294.243 30.2385L295.231 30.3929L295.412 29.2385H294.243V30.2385ZM293.073 37.7265V38.7265H293.929L294.061 37.8809L293.073 37.7265ZM283.011 37.7265V36.7265H282.011V37.7265H283.011ZM283.011 41.6655H282.011V42.6655H283.011V41.6655ZM291.371 41.6655V48.4515H293.371V41.6655H291.371ZM292.371 47.4515H283.011V49.4515H292.371V47.4515ZM282.011 48.4515V52.0005H284.011V48.4515H282.011ZM283.011 53.0005H294.477V51.0005H283.011V53.0005ZM293.477 52.0005V59.4885H295.477V52.0005H293.477ZM294.477 58.4885H273.651V60.4885H294.477V58.4885ZM274.651 59.4885V30.2385H272.651V59.4885H274.651ZM273.651 31.2385H294.243V29.2385H273.651V31.2385ZM293.255 30.0841L292.085 37.5721L294.061 37.8809L295.231 30.3929L293.255 30.0841ZM293.073 36.7265H283.011V38.7265H293.073V36.7265ZM282.011 37.7265V41.6655H284.011V37.7265H282.011ZM283.011 42.6655H292.371V40.6655H283.011V42.6655ZM324.419 59.4885V60.4885H325.419V59.4885H324.419ZM315.605 59.4885L314.781 60.0553L315.08 60.4885H315.605V59.4885ZM308.468 49.1145L309.292 48.5477L309.287 48.5404L309.282 48.5333L308.468 49.1145ZM308.156 48.2955L307.179 48.505L307.179 48.505L308.156 48.2955ZM308 46.8525L308.999 46.8091L308.958 45.8525H308V46.8525ZM307.805 46.8525V45.8525H306.805V46.8525H307.805ZM307.805 59.4885V60.4885H308.805V59.4885H307.805ZM298.445 59.4885H297.445V60.4885H298.445V59.4885ZM298.445 30.2385V29.2385H297.445V30.2385H298.445ZM307.259 30.2385L308.083 29.6717L307.785 29.2385H307.259V30.2385ZM314.396 40.6125L313.572 41.1793L313.577 41.1866L313.583 41.1937L314.396 40.6125ZM314.864 42.8745L313.865 42.9179L313.907 43.8745H314.864V42.8745ZM315.059 42.8745V43.8745H316.059V42.8745H315.059ZM315.059 30.2385V29.2385H314.059V30.2385H315.059ZM324.419 30.2385H325.419V29.2385H324.419V30.2385ZM324.419 58.4885H315.605V60.4885H324.419V58.4885ZM316.429 58.9217L309.292 48.5477L307.644 49.6813L314.781 60.0553L316.429 58.9217ZM309.282 48.5333C309.267 48.5127 309.2 48.3935 309.134 48.086L307.179 48.505C307.269 48.9255 307.409 49.3522 307.655 49.6957L309.282 48.5333ZM309.134 48.086C309.073 47.7993 309.024 47.3804 308.999 46.8091L307.001 46.8959C307.028 47.5206 307.084 48.0637 307.179 48.505L309.134 48.086ZM308 45.8525H307.805V47.8525H308V45.8525ZM306.805 46.8525V59.4885H308.805V46.8525H306.805ZM307.805 58.4885H298.445V60.4885H307.805V58.4885ZM299.445 59.4885V30.2385H297.445V59.4885H299.445ZM298.445 31.2385H307.259V29.2385H298.445V31.2385ZM306.435 30.8053L313.572 41.1793L315.22 40.0457L308.083 29.6717L306.435 30.8053ZM313.583 41.1937C313.597 41.2142 313.665 41.3335 313.731 41.641L315.686 41.222C315.596 40.8015 315.455 40.3747 315.21 40.0313L313.583 41.1937ZM313.731 41.641C313.792 41.9277 313.84 42.3466 313.865 42.9179L315.863 42.8311C315.836 42.2064 315.781 41.6633 315.686 41.222L313.731 41.641ZM314.864 43.8745H315.059V41.8745H314.864V43.8745ZM316.059 42.8745V30.2385H314.059V42.8745H316.059ZM315.059 31.2385H324.419V29.2385H315.059V31.2385ZM323.419 30.2385V59.4885H325.419V30.2385H323.419ZM349.931 30.2385H350.931V29.2385H349.931V30.2385ZM349.931 37.7265V38.7265H350.931V37.7265H349.931ZM343.145 37.7265V36.7265H342.145V37.7265H343.145ZM343.145 59.4885V60.4885H344.145V59.4885H343.145ZM333.785 59.4885H332.785V60.4885H333.785V59.4885ZM333.785 37.7265H334.785V36.7265H333.785V37.7265ZM326.999 37.7265H325.999V38.7265H326.999V37.7265ZM326.999 30.2385V29.2385H325.999V30.2385H326.999ZM348.931 30.2385V37.7265H350.931V30.2385H348.931ZM349.931 36.7265H343.145V38.7265H349.931V36.7265ZM342.145 37.7265V59.4885H344.145V37.7265H342.145ZM343.145 58.4885H333.785V60.4885H343.145V58.4885ZM334.785 59.4885V37.7265H332.785V59.4885H334.785ZM333.785 36.7265H326.999V38.7265H333.785V36.7265ZM327.999 37.7265V30.2385H325.999V37.7265H327.999ZM326.999 31.2385H349.931V29.2385H326.999V31.2385Z" fill="white"/>
<path d="M5 5V30.0244H19.3012V9.45979H95.1767V5H5Z" stroke="white" stroke-width="2"/>
<path d="M5 5V30.0244H19.3012V9.45979H95.1767V5H5Z" stroke="white" stroke-width="2"/>
<path d="M366 76.3385V51.3141H351.699V71.8787H275.823V76.3385H366Z" stroke="white" stroke-width="2"/>
<path d="M366 76.3385V51.3141H351.699V71.8787H275.823V76.3385H366Z" stroke="white" stroke-width="2"/>
</g>
<defs>
<filter id="filter0_d_9_6563" x="0" y="0" width="371" height="81.3385" filterUnits="userSpaceOnUse" color-interpolation-filters="sRGB">
<feFlood flood-opacity="0" result="BackgroundImageFix"/>
<feColorMatrix in="SourceAlpha" type="matrix" values="0 0 0 0 0 0 0 0 0 0 0 0 0 0 0 0 0 0 127 0" result="hardAlpha"/>
<feOffset/>
<feGaussianBlur stdDeviation="2"/>
<feComposite in2="hardAlpha" operator="out"/>
<feColorMatrix type="matrix" values="0 0 0 0 0.701961 0 0 0 0 0.466667 0 0 0 0 1 0 0 0 1 0"/>
<feBlend mode="normal" in2="BackgroundImageFix" result="effect1_dropShadow_9_6563"/>
<feBlend mode="normal" in="SourceGraphic" in2="effect1_dropShadow_9_6563" result="shape"/>
</filter>
</defs>
</svg>
