<svg width="358" height="132" viewBox="0 0 358 132" fill="none" xmlns="http://www.w3.org/2000/svg">
<g filter="url(#filter0_d_21_3746)">
<path d="M37.4656 77.53L38.4616 77.4412L38.3468 76.1523L37.1285 76.5885L37.4656 77.53ZM38.5096 89.246L38.883 90.1736L39.5715 89.8965L39.5056 89.1572L38.5096 89.246ZM17.2236 89.71L16.8992 90.656L16.9114 90.66L17.2236 89.71ZM10.7856 85.534L11.5459 84.8845L11.5459 84.8845L10.7856 85.534ZM7.42156 78.458L6.44407 78.6693L6.44695 78.6819L7.42156 78.458ZM7.36356 58.39L6.3861 58.1787L6.38403 58.1887L7.36356 58.39ZM10.6116 51.256L11.3863 51.8884L11.3924 51.8807L10.6116 51.256ZM16.8756 46.906L16.5349 45.9658L16.5305 45.9674L16.8756 46.906ZM29.9256 45.63L29.819 46.6243L29.8379 46.6263L29.8568 46.6276L29.9256 45.63ZM33.1736 45.978L33.027 46.9672L33.0321 46.9679L33.1736 45.978ZM36.1896 46.558L35.947 47.5281L35.9701 47.5339L35.9934 47.5386L36.1896 46.558ZM38.5096 47.254L39.491 47.446L39.6411 46.6785L38.9324 46.3478L38.5096 47.254ZM36.4216 57.926L36.2137 58.9042L37.2078 59.1154L37.403 58.118L36.4216 57.926ZM21.4576 78.632H20.4576V79.438L21.2451 79.6092L21.4576 78.632ZM24.1256 79.096L23.9962 80.0876L24.0193 80.0906L24.0425 80.0925L24.1256 79.096ZM36.4695 77.6188L37.5135 89.3348L39.5056 89.1572L38.4616 77.4412L36.4695 77.6188ZM38.1361 88.3184C35.312 89.4553 31.7743 90.044 27.4896 90.044V92.044C31.9435 92.044 35.7525 91.434 38.883 90.1736L38.1361 88.3184ZM27.4896 90.044C23.4148 90.044 20.1073 89.6049 17.5357 88.76L16.9114 90.66C19.7532 91.5938 23.2897 92.044 27.4896 92.044V90.044ZM17.5479 88.7641C14.981 87.884 12.9964 86.5826 11.5459 84.8845L10.0252 86.1835C11.7454 88.1974 14.0528 89.68 16.8992 90.6559L17.5479 88.7641ZM11.5459 84.8845C10.0845 83.1735 9.02469 80.97 8.39618 78.2341L6.44695 78.6819C7.1331 81.6687 8.31599 84.1825 10.0252 86.1835L11.5459 84.8845ZM8.39898 78.2467C7.79935 75.4734 7.49356 72.1643 7.49356 68.308H5.49356C5.49356 72.2624 5.80644 75.7199 6.44415 78.6693L8.39898 78.2467ZM7.49356 68.308C7.49356 64.5665 7.78018 61.3308 8.3431 58.5913L6.38403 58.1887C5.78694 61.0945 5.49356 64.4709 5.49356 68.308H7.49356ZM8.34098 58.6013C8.93278 55.8642 9.95729 53.6388 11.3862 51.8884L9.8369 50.6236C8.17251 52.6625 7.03168 55.1931 6.38615 58.1787L8.34098 58.6013ZM11.3924 51.8807C12.8108 50.1078 14.7394 48.7568 17.2206 47.8446L16.5305 45.9674C13.753 46.9886 11.5057 48.5375 9.83069 50.6313L11.3924 51.8807ZM17.2162 47.8462C19.7389 46.9322 22.9779 46.456 26.9676 46.456V44.456C22.8372 44.456 19.3482 44.9465 16.5349 45.9658L17.2162 47.8462ZM26.9676 46.456C27.8145 46.456 28.7642 46.5113 29.819 46.6243L30.0321 44.6357C28.9216 44.5167 27.8993 44.456 26.9676 44.456V46.456ZM29.8568 46.6276C30.9537 46.7033 32.0104 46.8166 33.027 46.9672L33.3201 44.9888C32.2487 44.8301 31.14 44.7114 29.9944 44.6324L29.8568 46.6276ZM33.0321 46.9679C34.0855 47.1184 35.0567 47.3056 35.947 47.5281L36.4321 45.5879C35.4664 45.3464 34.427 45.1469 33.315 44.988L33.0321 46.9679ZM35.9934 47.5386C36.9191 47.7237 37.6068 47.9362 38.0867 48.1602L38.9324 46.3478C38.2523 46.0304 37.3934 45.779 36.3857 45.5774L35.9934 47.5386ZM37.5282 47.062L35.4402 57.734L37.403 58.118L39.491 47.446L37.5282 47.062ZM36.6294 56.9478C33.4868 56.28 30.6505 55.94 28.1276 55.94V57.94C30.4766 57.94 33.1697 58.2573 36.2137 58.9042L36.6294 56.9478ZM28.1276 55.94C25.614 55.94 23.6663 56.1626 22.4748 56.7345L23.3403 58.5375C24.0821 58.1814 25.6145 57.94 28.1276 57.94V55.94ZM22.4748 56.7345C21.0534 57.4168 20.4576 58.7799 20.4576 60.42H22.4576C22.4576 59.2761 22.8284 58.7832 23.3403 58.5375L22.4748 56.7345ZM20.4576 60.42V78.632H22.4576V60.42H20.4576ZM21.2451 79.6092C22.1615 79.8084 23.0786 79.9679 23.9962 80.0876L24.2549 78.1044C23.3939 77.9921 22.5322 77.8423 21.67 77.6548L21.2451 79.6092ZM24.0425 80.0925C24.9992 80.1723 25.9742 80.212 26.9676 80.212V78.212C26.0276 78.212 25.108 78.1744 24.2086 78.0995L24.0425 80.0925ZM26.9676 80.212C30.9308 80.212 34.5465 79.6373 37.8026 78.4715L37.1285 76.5885C34.1206 77.6654 30.7376 78.212 26.9676 78.212V80.212ZM42.2569 58.042L41.2845 57.8086L41.2823 57.8181L42.2569 58.042ZM45.6789 50.908L44.9263 50.2494L44.9185 50.2585L45.6789 50.908ZM52.0589 46.79L51.7385 45.8427L51.7385 45.8427L52.0589 46.79ZM71.5469 46.79L71.2222 47.7358L71.2265 47.7373L71.5469 46.79ZM77.8689 50.908L77.1085 51.5575L77.1163 51.5665L77.8689 50.908ZM81.2909 58.042L80.3156 58.2631L80.3174 58.2707L80.3192 58.2784L81.2909 58.042ZM81.4069 78.284L82.3837 78.4981L82.3843 78.4953L81.4069 78.284ZM78.1009 85.36L77.3339 84.7182L77.3262 84.7276L78.1009 85.36ZM71.7789 89.652L72.1117 90.595L72.1196 90.5922L71.7789 89.652ZM51.7689 89.652L51.4238 90.5906L51.4321 90.5936L51.4404 90.5965L51.7689 89.652ZM45.4469 85.36L44.6722 85.9924L44.68 86.0017L45.4469 85.36ZM42.1989 78.284L41.2215 78.4953L41.2221 78.4981L42.1989 78.284ZM56.2349 79.154H55.2349V80.154H56.2349V79.154ZM66.1529 78.516L66.6169 79.4018L66.6244 79.3979L66.6318 79.3939L66.1529 78.516ZM67.4289 57.346H68.4289V56.346H67.4289V57.346ZM57.5109 58.042L57.9581 58.9364L57.9741 58.9284L57.9898 58.9199L57.5109 58.042ZM42.2709 68.308C42.2709 64.3759 42.5958 61.0331 43.2315 58.2659L41.2823 57.8181C40.6033 60.7736 40.2709 64.2747 40.2709 68.308H42.2709ZM43.2293 58.2754C43.8965 55.4953 44.9768 53.2697 46.4393 51.5575L44.9185 50.2585C43.2104 52.2583 42.0093 54.7887 41.2845 57.8086L43.2293 58.2754ZM46.4315 51.5665C47.9254 49.8592 49.8956 48.5774 52.3793 47.7373L51.7385 45.8427C48.9636 46.7813 46.6804 48.2448 44.9263 50.2495L46.4315 51.5665ZM52.3793 47.7373C54.8737 46.8936 58.0057 46.456 61.8029 46.456V44.456C57.8668 44.456 54.5028 44.9077 51.7385 45.8427L52.3793 47.7373ZM61.8029 46.456C65.6408 46.456 68.7702 46.8941 71.2222 47.7358L71.8716 45.8442C69.1423 44.9073 65.7757 44.456 61.8029 44.456V46.456ZM71.2265 47.7373C73.7089 48.5769 75.6557 49.8566 77.1085 51.5575L78.6293 50.2585C76.9115 48.2474 74.6436 46.7817 71.8673 45.8427L71.2265 47.7373ZM77.1163 51.5665C78.6105 53.2742 79.6875 55.492 80.3156 58.2631L82.2662 57.8209C81.5796 54.792 80.3753 52.2538 78.6215 50.2495L77.1163 51.5665ZM80.3192 58.2784C80.9911 61.0406 81.3349 64.379 81.3349 68.308H83.3349C83.3349 64.2716 82.9827 60.766 82.2626 57.8056L80.3192 58.2784ZM81.3349 68.308C81.3349 72.0459 81.0295 75.2976 80.4295 78.0727L82.3843 78.4953C83.0216 75.5477 83.3349 72.1488 83.3349 68.308H81.3349ZM80.4301 78.0699C79.8401 80.7619 78.7997 82.9666 77.334 84.7183L78.8678 86.0017C80.5728 83.9641 81.7364 81.4514 82.3837 78.4981L80.4301 78.0699ZM77.3262 84.7276C75.911 86.4613 73.964 87.7967 71.4383 88.7118L72.1196 90.5922C74.9298 89.574 77.1974 88.0481 78.8756 85.9924L77.3262 84.7276ZM71.4461 88.709C68.9596 89.5866 65.7566 90.044 61.8029 90.044V92.044C65.8919 92.044 69.3395 91.5734 72.1117 90.595L71.4461 88.709ZM61.8029 90.044C57.85 90.044 54.6254 89.5868 52.0974 88.7075L51.4404 90.5965C54.2484 91.5732 57.7131 92.044 61.8029 92.044V90.044ZM52.114 88.7134C49.6264 87.7989 47.6726 86.4616 46.2138 84.7183L44.68 86.0017C46.3919 88.0477 48.6527 89.5718 51.4238 90.5906L52.114 88.7134ZM46.2216 84.7276C44.7907 82.9748 43.7668 80.7669 43.1757 78.0699L41.2221 78.4981C41.8683 81.4464 43.0098 83.9559 44.6722 85.9924L46.2216 84.7276ZM43.1763 78.0727C42.5763 75.2976 42.2709 72.0459 42.2709 68.308H40.2709C40.2709 72.1488 40.5842 75.5477 41.2215 78.4953L43.1763 78.0727ZM55.2349 61.058V79.154H57.2349V61.058H55.2349ZM56.2349 80.154H62.0349V78.154H56.2349V80.154ZM62.0349 80.154C63.9884 80.154 65.5743 79.9479 66.6169 79.4018L65.6889 77.6302C65.1075 77.9347 63.9481 78.154 62.0349 78.154V80.154ZM66.6318 79.3939C67.9735 78.662 68.4289 77.147 68.4289 75.442H66.4289C66.4289 76.9076 66.0336 77.442 65.6741 77.6381L66.6318 79.3939ZM68.4289 75.442V57.346H66.4289V75.442H68.4289ZM67.4289 56.346H61.5709V58.346H67.4289V56.346ZM61.5709 56.346C59.6746 56.346 58.1109 56.5756 57.0321 57.1641L57.9898 58.9199C58.6122 58.5804 59.7552 58.346 61.5709 58.346V56.346ZM57.0637 57.1476C55.6867 57.8361 55.2349 59.363 55.2349 61.058H57.2349C57.2349 59.5823 57.6337 59.0986 57.9581 58.9364L57.0637 57.1476ZM100.829 68.888V67.888H99.8665L99.8295 68.8496L100.829 68.888ZM100.017 90V91H100.979L101.016 90.0384L100.017 90ZM85.4588 90L84.4606 89.9388L84.3955 91H85.4588V90ZM88.1268 46.5V45.5H87.1862L87.1286 46.4388L88.1268 46.5ZM106.281 46.5L107.252 46.2635L107.067 45.5H106.281V46.5ZM111.675 68.656L110.703 68.8925L110.889 69.656H111.675V68.656ZM112.197 68.656V69.656H112.983L113.168 68.8925L112.197 68.656ZM117.591 46.5V45.5H116.805L116.619 46.2635L117.591 46.5ZM135.803 46.5L136.801 46.4401L136.745 45.5H135.803V46.5ZM138.413 90V91H139.475L139.411 89.9401L138.413 90ZM123.855 90L122.855 90.0384L122.892 91H123.855V90ZM123.043 68.888L124.042 68.8496L124.005 67.888H123.043V68.888ZM122.579 68.888V67.888H121.8L121.609 68.643L122.579 68.888ZM117.243 90V91H118.021L118.212 90.245L117.243 90ZM106.629 90L105.66 90.2475L105.852 91H106.629V90ZM101.235 68.888L102.204 68.6405L102.011 67.888H101.235V68.888ZM99.8295 68.8496L99.0175 89.9616L101.016 90.0384L101.828 68.9264L99.8295 68.8496ZM100.017 89H85.4588V91H100.017V89ZM86.4569 90.0612L89.1249 46.5612L87.1286 46.4388L84.4606 89.9388L86.4569 90.0612ZM88.1268 47.5H106.281V45.5H88.1268V47.5ZM105.309 46.7365L110.703 68.8925L112.646 68.4195L107.252 46.2635L105.309 46.7365ZM111.675 69.656H112.197V67.656H111.675V69.656ZM113.168 68.8925L118.562 46.7365L116.619 46.2635L111.225 68.4195L113.168 68.8925ZM117.591 47.5H135.803V45.5H117.591V47.5ZM134.805 46.5599L137.415 90.0599L139.411 89.9401L136.801 46.4401L134.805 46.5599ZM138.413 89H123.855V91H138.413V89ZM124.854 89.9616L124.042 68.8496L122.043 68.9264L122.855 90.0384L124.854 89.9616ZM123.043 67.888H122.579V69.888H123.043V67.888ZM121.609 68.643L116.273 89.755L118.212 90.245L123.548 69.133L121.609 68.643ZM117.243 89H106.629V91H117.243V89ZM107.598 89.7525L102.204 68.6405L100.266 69.1355L105.66 90.2475L107.598 89.7525ZM101.235 67.888H100.829V69.888H101.235V67.888ZM157.243 68.888V67.888H156.281L156.244 68.8496L157.243 68.888ZM156.431 90V91H157.393L157.43 90.0384L156.431 90ZM141.873 90L140.875 89.9388L140.81 91H141.873V90ZM144.541 46.5V45.5H143.6L143.543 46.4388L144.541 46.5ZM162.695 46.5L163.666 46.2635L163.481 45.5H162.695V46.5ZM168.089 68.656L167.117 68.8925L167.303 69.656H168.089V68.656ZM168.611 68.656V69.656H169.397L169.582 68.8925L168.611 68.656ZM174.005 46.5V45.5H173.219L173.033 46.2635L174.005 46.5ZM192.217 46.5L193.215 46.4401L193.159 45.5H192.217V46.5ZM194.827 90V91H195.889L195.825 89.9401L194.827 90ZM180.269 90L179.27 90.0384L179.307 91H180.269V90ZM179.457 68.888L180.456 68.8496L180.419 67.888H179.457V68.888ZM178.993 68.888V67.888H178.214L178.023 68.643L178.993 68.888ZM173.657 90V91H174.436L174.626 90.245L173.657 90ZM163.043 90L162.074 90.2475L162.266 91H163.043V90ZM157.649 68.888L158.618 68.6405L158.425 67.888H157.649V68.888ZM156.244 68.8496L155.432 89.9616L157.43 90.0384L158.242 68.9264L156.244 68.8496ZM156.431 89H141.873V91H156.431V89ZM142.871 90.0612L145.539 46.5612L143.543 46.4388L140.875 89.9388L142.871 90.0612ZM144.541 47.5H162.695V45.5H144.541V47.5ZM161.723 46.7365L167.117 68.8925L169.06 68.4195L163.666 46.2635L161.723 46.7365ZM168.089 69.656H168.611V67.656H168.089V69.656ZM169.582 68.8925L174.976 46.7365L173.033 46.2635L167.639 68.4195L169.582 68.8925ZM174.005 47.5H192.217V45.5H174.005V47.5ZM191.219 46.5599L193.829 90.0599L195.825 89.9401L193.215 46.4401L191.219 46.5599ZM194.827 89H180.269V91H194.827V89ZM181.268 89.9616L180.456 68.8496L178.458 68.9264L179.27 90.0384L181.268 89.9616ZM179.457 67.888H178.993V69.888H179.457V67.888ZM178.023 68.643L172.687 89.755L174.626 90.245L179.962 69.133L178.023 68.643ZM173.657 89H163.043V91H173.657V89ZM164.012 89.7525L158.618 68.6405L156.68 69.1355L162.074 90.2475L164.012 89.7525ZM157.649 67.888H157.243V69.888H157.649V67.888ZM227.867 63.494H228.867V62.494H227.867V63.494ZM227.867 73.586V74.586H228.867V73.586H227.867ZM213.947 73.586V72.586H212.947V73.586H213.947ZM213.947 78.864H212.947V79.864H213.947V78.864ZM230.999 78.864H231.999V77.864H230.999V78.864ZM230.999 90V91H231.999V90H230.999ZM200.027 90H199.027V91H200.027V90ZM200.027 46.5V45.5H199.027V46.5H200.027ZM230.651 46.5L231.639 46.6544L231.819 45.5H230.651V46.5ZM228.911 57.636V58.636H229.767L229.899 57.7904L228.911 57.636ZM213.947 57.636V56.636H212.947V57.636H213.947ZM213.947 63.494H212.947V64.494H213.947V63.494ZM226.867 63.494V73.586H228.867V63.494H226.867ZM227.867 72.586H213.947V74.586H227.867V72.586ZM212.947 73.586V78.864H214.947V73.586H212.947ZM213.947 79.864H230.999V77.864H213.947V79.864ZM229.999 78.864V90H231.999V78.864H229.999ZM230.999 89H200.027V91H230.999V89ZM201.027 90V46.5H199.027V90H201.027ZM200.027 47.5H230.651V45.5H200.027V47.5ZM229.663 46.3456L227.923 57.4816L229.899 57.7904L231.639 46.6544L229.663 46.3456ZM228.911 56.636H213.947V58.636H228.911V56.636ZM212.947 57.636V63.494H214.947V57.636H212.947ZM213.947 64.494H227.867V62.494H213.947V64.494ZM275.528 90V91H276.528V90H275.528ZM262.42 90L261.596 90.5668L261.894 91H262.42V90ZM251.806 74.572L252.63 74.0052L252.625 73.9979L252.62 73.9908L251.806 74.572ZM251.342 73.354L250.364 73.5635L250.364 73.5635L251.342 73.354ZM251.11 71.208L252.109 71.1646L252.067 70.208H251.11V71.208ZM250.82 71.208V70.208H249.82V71.208H250.82ZM250.82 90V91H251.82V90H250.82ZM236.9 90H235.9V91H236.9V90ZM236.9 46.5V45.5H235.9V46.5H236.9ZM250.008 46.5L250.832 45.9332L250.534 45.5H250.008V46.5ZM260.622 61.928L259.798 62.4948L259.803 62.5021L259.808 62.5092L260.622 61.928ZM261.318 65.292L260.319 65.3354L260.36 66.292H261.318V65.292ZM261.608 65.292V66.292H262.608V65.292H261.608ZM261.608 46.5V45.5H260.608V46.5H261.608ZM275.528 46.5H276.528V45.5H275.528V46.5ZM275.528 89H262.42V91H275.528V89ZM263.244 89.4332L252.63 74.0052L250.982 75.1388L261.596 90.5668L263.244 89.4332ZM252.62 73.9908C252.542 73.8816 252.424 73.6293 252.32 73.1445L250.364 73.5635C250.492 74.1613 250.684 74.7211 250.992 75.1532L252.62 73.9908ZM252.32 73.1445C252.22 72.6804 252.146 72.0273 252.109 71.1646L250.111 71.2514C250.151 72.1674 250.232 72.9449 250.364 73.5635L252.32 73.1445ZM251.11 70.208H250.82V72.208H251.11V70.208ZM249.82 71.208V90H251.82V71.208H249.82ZM250.82 89H236.9V91H250.82V89ZM237.9 90V46.5H235.9V90H237.9ZM236.9 47.5H250.008V45.5H236.9V47.5ZM249.184 47.0668L259.798 62.4948L261.446 61.3612L250.832 45.9332L249.184 47.0668ZM259.808 62.5092C259.886 62.6184 260.004 62.8706 260.108 63.3555L262.064 62.9365C261.936 62.3387 261.744 61.7789 261.436 61.3468L259.808 62.5092ZM260.108 63.3555C260.208 63.8196 260.281 64.4727 260.319 65.3354L262.317 65.2486C262.277 64.3326 262.196 63.5551 262.064 62.9365L260.108 63.3555ZM261.318 66.292H261.608V64.292H261.318V66.292ZM262.608 65.292V46.5H260.608V65.292H262.608ZM261.608 47.5H275.528V45.5H261.608V47.5ZM274.528 46.5V90H276.528V46.5H274.528ZM313.468 46.5H314.468V45.5H313.468V46.5ZM313.468 57.636V58.636H314.468V57.636H313.468ZM303.376 57.636V56.636H302.376V57.636H303.376ZM303.376 90V91H304.376V90H303.376ZM289.456 90H288.456V91H289.456V90ZM289.456 57.636H290.456V56.636H289.456V57.636ZM279.364 57.636H278.364V58.636H279.364V57.636ZM279.364 46.5V45.5H278.364V46.5H279.364ZM312.468 46.5V57.636H314.468V46.5H312.468ZM313.468 56.636H303.376V58.636H313.468V56.636ZM302.376 57.636V90H304.376V57.636H302.376ZM303.376 89H289.456V91H303.376V89ZM290.456 90V57.636H288.456V90H290.456ZM289.456 56.636H279.364V58.636H289.456V56.636ZM280.364 57.636V46.5H278.364V57.636H280.364ZM279.364 47.5H313.468V45.5H279.364V47.5ZM315.533 89.246L314.547 89.0768L314.386 90.0141L315.314 90.2218L315.533 89.246ZM317.505 77.762L317.743 76.7908L316.701 76.535L316.519 77.5928L317.505 77.762ZM333.629 79.27L333.658 80.2696L333.672 80.2692L333.686 80.2684L333.629 79.27ZM337.225 78.922L337.372 79.9112L338.225 79.7848V78.922H337.225ZM337.225 75.442H338.225V74.5219L337.308 74.4455L337.225 75.442ZM330.961 74.92L330.866 75.9155L330.878 75.9165L330.961 74.92ZM323.885 73.528L323.557 74.4728L323.557 74.4728L323.885 73.528ZM319.303 70.86L318.584 71.555L318.596 71.5672L318.608 71.579L319.303 70.86ZM316.867 66.742L315.905 67.0167L315.909 67.0305L315.914 67.0442L316.867 66.742ZM317.099 53.634L318.053 53.9333L318.055 53.9281L317.099 53.634ZM320.057 48.82L320.72 49.5686L320.726 49.5634L320.732 49.558L320.057 48.82ZM325.277 46.21L325.051 45.2359L325.047 45.2368L325.277 46.21ZM349.869 47.196L350.857 47.3504L351 46.4324L350.095 46.222L349.869 47.196ZM348.129 58.332L347.97 59.3193L348.962 59.4787L349.117 58.4864L348.129 58.332ZM331.135 57.636L331.008 56.644L330.135 56.7555V57.636H331.135ZM331.135 61.058H330.135V61.9693L331.042 62.0537L331.135 61.058ZM336.123 61.522L336.224 60.5271L336.216 60.5263L336.123 61.522ZM343.779 63.088L343.442 64.0293L343.449 64.0322L343.457 64.0349L343.779 63.088ZM348.709 65.872L348.025 66.6015L348.031 66.6068L348.036 66.6119L348.709 65.872ZM351.377 69.99L350.424 70.2922L350.427 70.3027L350.431 70.3131L351.377 69.99ZM351.029 82.866L350.096 82.507L350.096 82.507L351.029 82.866ZM348.245 87.448L348.936 88.1706L348.939 88.1678L348.245 87.448ZM344.939 89.478L345.272 90.421L345.284 90.4167L345.296 90.4121L344.939 89.478ZM340.763 90.522L340.919 91.5098L340.919 91.5098L340.763 90.522ZM336.297 90.928L336.271 89.9283L336.258 89.9287L336.244 89.9294L336.297 90.928ZM323.595 90.58L323.705 89.5861L323.705 89.5861L323.595 90.58ZM316.519 89.4152L318.491 77.9312L316.519 77.5928L314.547 89.0768L316.519 89.4152ZM317.267 78.7332C321.578 79.7914 325.507 80.328 329.047 80.328V78.328C325.704 78.328 321.939 77.8206 317.743 76.7908L317.267 78.7332ZM329.047 80.328C330.794 80.328 332.331 80.3086 333.658 80.2696L333.6 78.2704C332.297 78.3087 330.78 78.328 329.047 78.328V80.328ZM333.686 80.2684C335.061 80.1898 336.291 80.0713 337.372 79.9112L337.078 77.9328C336.071 78.082 334.903 78.1956 333.572 78.2716L333.686 80.2684ZM338.225 78.922V75.442H336.225V78.922H338.225ZM337.308 74.4455L331.044 73.9235L330.878 75.9165L337.142 76.4385L337.308 74.4455ZM331.056 73.9246C328.283 73.6586 326.008 73.2062 324.213 72.5832L323.557 74.4728C325.551 75.1644 327.993 75.64 330.866 75.9154L331.056 73.9246ZM324.213 72.5832C322.423 71.9623 321.031 71.1398 319.998 70.141L318.608 71.579C319.895 72.8228 321.558 73.779 323.557 74.4728L324.213 72.5832ZM320.022 70.165C319.011 69.1195 318.278 67.8825 317.82 66.4398L315.914 67.0442C316.462 68.7721 317.352 70.2805 318.584 71.555L320.022 70.165ZM317.828 66.4673C317.396 64.9536 317.171 63.1552 317.171 61.058H315.171C315.171 63.2915 315.41 65.2824 315.905 67.0167L317.828 66.4673ZM317.171 61.058C317.171 58.1415 317.475 55.7761 318.053 53.9333L316.145 53.3347C315.486 55.4359 315.171 58.0198 315.171 61.058H317.171ZM318.055 53.9281C318.628 52.0638 319.525 50.6267 320.72 49.5686L319.394 48.0714C317.882 49.4106 316.807 51.1829 316.143 53.3399L318.055 53.9281ZM320.732 49.558C321.937 48.4559 323.514 47.6542 325.507 47.1832L325.047 45.2368C322.786 45.7712 320.883 46.7094 319.382 48.082L320.732 49.558ZM325.503 47.1841C327.572 46.7039 330.121 46.456 333.165 46.456V44.456C330.023 44.456 327.313 44.7108 325.051 45.2359L325.503 47.1841ZM333.165 46.456C339.251 46.456 344.742 47.0303 349.642 48.17L350.095 46.222C345.02 45.0417 339.375 44.456 333.165 44.456V46.456ZM348.881 47.0416L347.141 58.1776L349.117 58.4864L350.857 47.3504L348.881 47.0416ZM348.288 57.3447C343.935 56.6452 340.415 56.288 337.747 56.288V58.288C340.261 58.288 343.661 58.6268 347.97 59.3193L348.288 57.3447ZM337.747 56.288C335.13 56.288 332.881 56.405 331.008 56.644L331.262 58.6279C333.024 58.403 335.183 58.288 337.747 58.288V56.288ZM330.135 57.636V61.058H332.135V57.636H330.135ZM331.042 62.0537L336.03 62.5177L336.216 60.5263L331.228 60.0623L331.042 62.0537ZM336.022 62.5169C339.026 62.8211 341.493 63.3307 343.442 64.0293L344.116 62.1467C341.967 61.376 339.329 60.8415 336.224 60.5271L336.022 62.5169ZM343.457 64.0349C345.408 64.6973 346.916 65.5619 348.025 66.6015L349.393 65.1425C348.027 63.8621 346.249 62.8707 344.101 62.1411L343.457 64.0349ZM348.036 66.6119C349.187 67.6579 349.976 68.8814 350.424 70.2922L352.33 69.6878C351.772 67.928 350.783 66.4061 349.382 65.1321L348.036 66.6119ZM350.431 70.3131C350.93 71.7742 351.189 73.4789 351.189 75.442H353.189C353.189 73.3064 352.907 71.3765 352.323 69.6669L350.431 70.3131ZM351.189 75.442C351.189 78.2997 350.812 80.6443 350.096 82.507L351.962 83.225C352.793 81.0664 353.189 78.4617 353.189 75.442H351.189ZM350.096 82.507C349.354 84.436 348.493 85.8195 347.551 86.7282L348.939 88.1678C350.162 86.9885 351.158 85.3173 351.962 83.225L350.096 82.507ZM347.554 86.7254C346.773 87.4717 345.79 88.082 344.582 88.5439L345.296 90.4121C346.717 89.8686 347.938 89.1256 348.936 88.1706L347.554 86.7254ZM344.606 88.535C343.353 88.9774 342.02 89.3111 340.607 89.5342L340.919 91.5098C342.444 91.2689 343.896 90.9066 345.272 90.421L344.606 88.535ZM340.607 89.5342C339.181 89.7593 337.736 89.8908 336.271 89.9283L336.323 91.9277C337.874 91.8879 339.406 91.7487 340.919 91.5098L340.607 89.5342ZM336.244 89.9294C334.789 90.006 333.473 90.044 332.295 90.044V92.044C333.515 92.044 334.866 92.0047 336.35 91.9266L336.244 89.9294ZM332.295 90.044C329.313 90.044 326.45 89.8911 323.705 89.5861L323.485 91.5739C326.308 91.8876 329.245 92.044 332.295 92.044V90.044ZM323.705 89.5861C320.956 89.2806 318.305 88.8418 315.751 88.2702L315.314 90.2218C317.943 90.8102 320.666 91.2607 323.485 91.5739L323.705 89.5861Z" fill="#CEB7FF"/>
</g>
<g filter="url(#filter1_d_21_3746)">
<path d="M37.4656 77.53L38.4616 77.4412L38.3468 76.1523L37.1285 76.5885L37.4656 77.53ZM38.5096 89.246L38.883 90.1736L39.5715 89.8965L39.5056 89.1572L38.5096 89.246ZM17.2236 89.71L16.8992 90.656L16.9114 90.66L17.2236 89.71ZM10.7856 85.534L11.5459 84.8845L11.5459 84.8845L10.7856 85.534ZM7.42156 78.458L6.44407 78.6693L6.44695 78.6819L7.42156 78.458ZM7.36356 58.39L6.3861 58.1787L6.38403 58.1887L7.36356 58.39ZM10.6116 51.256L11.3863 51.8884L11.3924 51.8807L10.6116 51.256ZM16.8756 46.906L16.5349 45.9658L16.5305 45.9674L16.8756 46.906ZM29.9256 45.63L29.819 46.6243L29.8379 46.6263L29.8568 46.6276L29.9256 45.63ZM33.1736 45.978L33.027 46.9672L33.0321 46.9679L33.1736 45.978ZM36.1896 46.558L35.947 47.5281L35.9701 47.5339L35.9934 47.5386L36.1896 46.558ZM38.5096 47.254L39.491 47.446L39.6411 46.6785L38.9324 46.3478L38.5096 47.254ZM36.4216 57.926L36.2137 58.9042L37.2078 59.1154L37.403 58.118L36.4216 57.926ZM21.4576 78.632H20.4576V79.438L21.2451 79.6092L21.4576 78.632ZM24.1256 79.096L23.9962 80.0876L24.0193 80.0906L24.0425 80.0925L24.1256 79.096ZM36.4695 77.6188L37.5135 89.3348L39.5056 89.1572L38.4616 77.4412L36.4695 77.6188ZM38.1361 88.3184C35.312 89.4553 31.7743 90.044 27.4896 90.044V92.044C31.9435 92.044 35.7525 91.434 38.883 90.1736L38.1361 88.3184ZM27.4896 90.044C23.4148 90.044 20.1073 89.6049 17.5357 88.76L16.9114 90.66C19.7532 91.5938 23.2897 92.044 27.4896 92.044V90.044ZM17.5479 88.7641C14.981 87.884 12.9964 86.5826 11.5459 84.8845L10.0252 86.1835C11.7454 88.1974 14.0528 89.68 16.8992 90.6559L17.5479 88.7641ZM11.5459 84.8845C10.0845 83.1735 9.02469 80.97 8.39618 78.2341L6.44695 78.6819C7.1331 81.6687 8.31599 84.1825 10.0252 86.1835L11.5459 84.8845ZM8.39898 78.2467C7.79935 75.4734 7.49356 72.1643 7.49356 68.308H5.49356C5.49356 72.2624 5.80644 75.7199 6.44415 78.6693L8.39898 78.2467ZM7.49356 68.308C7.49356 64.5665 7.78018 61.3308 8.3431 58.5913L6.38403 58.1887C5.78694 61.0945 5.49356 64.4709 5.49356 68.308H7.49356ZM8.34098 58.6013C8.93278 55.8642 9.95729 53.6388 11.3862 51.8884L9.8369 50.6236C8.17251 52.6625 7.03168 55.1931 6.38615 58.1787L8.34098 58.6013ZM11.3924 51.8807C12.8108 50.1078 14.7394 48.7568 17.2206 47.8446L16.5305 45.9674C13.753 46.9886 11.5057 48.5375 9.83069 50.6313L11.3924 51.8807ZM17.2162 47.8462C19.7389 46.9322 22.9779 46.456 26.9676 46.456V44.456C22.8372 44.456 19.3482 44.9465 16.5349 45.9658L17.2162 47.8462ZM26.9676 46.456C27.8145 46.456 28.7642 46.5113 29.819 46.6243L30.0321 44.6357C28.9216 44.5167 27.8993 44.456 26.9676 44.456V46.456ZM29.8568 46.6276C30.9537 46.7033 32.0104 46.8166 33.027 46.9672L33.3201 44.9888C32.2487 44.8301 31.14 44.7114 29.9944 44.6324L29.8568 46.6276ZM33.0321 46.9679C34.0855 47.1184 35.0567 47.3056 35.947 47.5281L36.4321 45.5879C35.4664 45.3464 34.427 45.1469 33.315 44.988L33.0321 46.9679ZM35.9934 47.5386C36.9191 47.7237 37.6068 47.9362 38.0867 48.1602L38.9324 46.3478C38.2523 46.0304 37.3934 45.779 36.3857 45.5774L35.9934 47.5386ZM37.5282 47.062L35.4402 57.734L37.403 58.118L39.491 47.446L37.5282 47.062ZM36.6294 56.9478C33.4868 56.28 30.6505 55.94 28.1276 55.94V57.94C30.4766 57.94 33.1697 58.2573 36.2137 58.9042L36.6294 56.9478ZM28.1276 55.94C25.614 55.94 23.6663 56.1626 22.4748 56.7345L23.3403 58.5375C24.0821 58.1814 25.6145 57.94 28.1276 57.94V55.94ZM22.4748 56.7345C21.0534 57.4168 20.4576 58.7799 20.4576 60.42H22.4576C22.4576 59.2761 22.8284 58.7832 23.3403 58.5375L22.4748 56.7345ZM20.4576 60.42V78.632H22.4576V60.42H20.4576ZM21.2451 79.6092C22.1615 79.8084 23.0786 79.9679 23.9962 80.0876L24.2549 78.1044C23.3939 77.9921 22.5322 77.8423 21.67 77.6548L21.2451 79.6092ZM24.0425 80.0925C24.9992 80.1723 25.9742 80.212 26.9676 80.212V78.212C26.0276 78.212 25.108 78.1744 24.2086 78.0995L24.0425 80.0925ZM26.9676 80.212C30.9308 80.212 34.5465 79.6373 37.8026 78.4715L37.1285 76.5885C34.1206 77.6654 30.7376 78.212 26.9676 78.212V80.212ZM42.2569 58.042L41.2845 57.8086L41.2823 57.8181L42.2569 58.042ZM45.6789 50.908L44.9263 50.2494L44.9185 50.2585L45.6789 50.908ZM52.0589 46.79L51.7385 45.8427L51.7385 45.8427L52.0589 46.79ZM71.5469 46.79L71.2222 47.7358L71.2265 47.7373L71.5469 46.79ZM77.8689 50.908L77.1085 51.5575L77.1163 51.5665L77.8689 50.908ZM81.2909 58.042L80.3156 58.2631L80.3174 58.2707L80.3192 58.2784L81.2909 58.042ZM81.4069 78.284L82.3837 78.4981L82.3843 78.4953L81.4069 78.284ZM78.1009 85.36L77.3339 84.7182L77.3262 84.7276L78.1009 85.36ZM71.7789 89.652L72.1117 90.595L72.1196 90.5922L71.7789 89.652ZM51.7689 89.652L51.4238 90.5906L51.4321 90.5936L51.4404 90.5965L51.7689 89.652ZM45.4469 85.36L44.6722 85.9924L44.68 86.0017L45.4469 85.36ZM42.1989 78.284L41.2215 78.4953L41.2221 78.4981L42.1989 78.284ZM56.2349 79.154H55.2349V80.154H56.2349V79.154ZM66.1529 78.516L66.6169 79.4018L66.6244 79.3979L66.6318 79.3939L66.1529 78.516ZM67.4289 57.346H68.4289V56.346H67.4289V57.346ZM57.5109 58.042L57.9581 58.9364L57.9741 58.9284L57.9898 58.9199L57.5109 58.042ZM42.2709 68.308C42.2709 64.3759 42.5958 61.0331 43.2315 58.2659L41.2823 57.8181C40.6033 60.7736 40.2709 64.2747 40.2709 68.308H42.2709ZM43.2293 58.2754C43.8965 55.4953 44.9768 53.2697 46.4393 51.5575L44.9185 50.2585C43.2104 52.2583 42.0093 54.7887 41.2845 57.8086L43.2293 58.2754ZM46.4315 51.5665C47.9254 49.8592 49.8956 48.5774 52.3793 47.7373L51.7385 45.8427C48.9636 46.7813 46.6804 48.2448 44.9263 50.2495L46.4315 51.5665ZM52.3793 47.7373C54.8737 46.8936 58.0057 46.456 61.8029 46.456V44.456C57.8668 44.456 54.5028 44.9077 51.7385 45.8427L52.3793 47.7373ZM61.8029 46.456C65.6408 46.456 68.7702 46.8941 71.2222 47.7358L71.8716 45.8442C69.1423 44.9073 65.7757 44.456 61.8029 44.456V46.456ZM71.2265 47.7373C73.7089 48.5769 75.6557 49.8566 77.1085 51.5575L78.6293 50.2585C76.9115 48.2474 74.6436 46.7817 71.8673 45.8427L71.2265 47.7373ZM77.1163 51.5665C78.6105 53.2742 79.6875 55.492 80.3156 58.2631L82.2662 57.8209C81.5796 54.792 80.3753 52.2538 78.6215 50.2495L77.1163 51.5665ZM80.3192 58.2784C80.9911 61.0406 81.3349 64.379 81.3349 68.308H83.3349C83.3349 64.2716 82.9827 60.766 82.2626 57.8056L80.3192 58.2784ZM81.3349 68.308C81.3349 72.0459 81.0295 75.2976 80.4295 78.0727L82.3843 78.4953C83.0216 75.5477 83.3349 72.1488 83.3349 68.308H81.3349ZM80.4301 78.0699C79.8401 80.7619 78.7997 82.9666 77.334 84.7183L78.8678 86.0017C80.5728 83.9641 81.7364 81.4514 82.3837 78.4981L80.4301 78.0699ZM77.3262 84.7276C75.911 86.4613 73.964 87.7967 71.4383 88.7118L72.1196 90.5922C74.9298 89.574 77.1974 88.0481 78.8756 85.9924L77.3262 84.7276ZM71.4461 88.709C68.9596 89.5866 65.7566 90.044 61.8029 90.044V92.044C65.8919 92.044 69.3395 91.5734 72.1117 90.595L71.4461 88.709ZM61.8029 90.044C57.85 90.044 54.6254 89.5868 52.0974 88.7075L51.4404 90.5965C54.2484 91.5732 57.7131 92.044 61.8029 92.044V90.044ZM52.114 88.7134C49.6264 87.7989 47.6726 86.4616 46.2138 84.7183L44.68 86.0017C46.3919 88.0477 48.6527 89.5718 51.4238 90.5906L52.114 88.7134ZM46.2216 84.7276C44.7907 82.9748 43.7668 80.7669 43.1757 78.0699L41.2221 78.4981C41.8683 81.4464 43.0098 83.9559 44.6722 85.9924L46.2216 84.7276ZM43.1763 78.0727C42.5763 75.2976 42.2709 72.0459 42.2709 68.308H40.2709C40.2709 72.1488 40.5842 75.5477 41.2215 78.4953L43.1763 78.0727ZM55.2349 61.058V79.154H57.2349V61.058H55.2349ZM56.2349 80.154H62.0349V78.154H56.2349V80.154ZM62.0349 80.154C63.9884 80.154 65.5743 79.9479 66.6169 79.4018L65.6889 77.6302C65.1075 77.9347 63.9481 78.154 62.0349 78.154V80.154ZM66.6318 79.3939C67.9735 78.662 68.4289 77.147 68.4289 75.442H66.4289C66.4289 76.9076 66.0336 77.442 65.6741 77.6381L66.6318 79.3939ZM68.4289 75.442V57.346H66.4289V75.442H68.4289ZM67.4289 56.346H61.5709V58.346H67.4289V56.346ZM61.5709 56.346C59.6746 56.346 58.1109 56.5756 57.0321 57.1641L57.9898 58.9199C58.6122 58.5804 59.7552 58.346 61.5709 58.346V56.346ZM57.0637 57.1476C55.6867 57.8361 55.2349 59.363 55.2349 61.058H57.2349C57.2349 59.5823 57.6337 59.0986 57.9581 58.9364L57.0637 57.1476ZM100.829 68.888V67.888H99.8665L99.8295 68.8496L100.829 68.888ZM100.017 90V91H100.979L101.016 90.0384L100.017 90ZM85.4588 90L84.4606 89.9388L84.3955 91H85.4588V90ZM88.1268 46.5V45.5H87.1862L87.1286 46.4388L88.1268 46.5ZM106.281 46.5L107.252 46.2635L107.067 45.5H106.281V46.5ZM111.675 68.656L110.703 68.8925L110.889 69.656H111.675V68.656ZM112.197 68.656V69.656H112.983L113.168 68.8925L112.197 68.656ZM117.591 46.5V45.5H116.805L116.619 46.2635L117.591 46.5ZM135.803 46.5L136.801 46.4401L136.745 45.5H135.803V46.5ZM138.413 90V91H139.475L139.411 89.9401L138.413 90ZM123.855 90L122.855 90.0384L122.892 91H123.855V90ZM123.043 68.888L124.042 68.8496L124.005 67.888H123.043V68.888ZM122.579 68.888V67.888H121.8L121.609 68.643L122.579 68.888ZM117.243 90V91H118.021L118.212 90.245L117.243 90ZM106.629 90L105.66 90.2475L105.852 91H106.629V90ZM101.235 68.888L102.204 68.6405L102.011 67.888H101.235V68.888ZM99.8295 68.8496L99.0175 89.9616L101.016 90.0384L101.828 68.9264L99.8295 68.8496ZM100.017 89H85.4588V91H100.017V89ZM86.4569 90.0612L89.1249 46.5612L87.1286 46.4388L84.4606 89.9388L86.4569 90.0612ZM88.1268 47.5H106.281V45.5H88.1268V47.5ZM105.309 46.7365L110.703 68.8925L112.646 68.4195L107.252 46.2635L105.309 46.7365ZM111.675 69.656H112.197V67.656H111.675V69.656ZM113.168 68.8925L118.562 46.7365L116.619 46.2635L111.225 68.4195L113.168 68.8925ZM117.591 47.5H135.803V45.5H117.591V47.5ZM134.805 46.5599L137.415 90.0599L139.411 89.9401L136.801 46.4401L134.805 46.5599ZM138.413 89H123.855V91H138.413V89ZM124.854 89.9616L124.042 68.8496L122.043 68.9264L122.855 90.0384L124.854 89.9616ZM123.043 67.888H122.579V69.888H123.043V67.888ZM121.609 68.643L116.273 89.755L118.212 90.245L123.548 69.133L121.609 68.643ZM117.243 89H106.629V91H117.243V89ZM107.598 89.7525L102.204 68.6405L100.266 69.1355L105.66 90.2475L107.598 89.7525ZM101.235 67.888H100.829V69.888H101.235V67.888ZM157.243 68.888V67.888H156.281L156.244 68.8496L157.243 68.888ZM156.431 90V91H157.393L157.43 90.0384L156.431 90ZM141.873 90L140.875 89.9388L140.81 91H141.873V90ZM144.541 46.5V45.5H143.6L143.543 46.4388L144.541 46.5ZM162.695 46.5L163.666 46.2635L163.481 45.5H162.695V46.5ZM168.089 68.656L167.117 68.8925L167.303 69.656H168.089V68.656ZM168.611 68.656V69.656H169.397L169.582 68.8925L168.611 68.656ZM174.005 46.5V45.5H173.219L173.033 46.2635L174.005 46.5ZM192.217 46.5L193.215 46.4401L193.159 45.5H192.217V46.5ZM194.827 90V91H195.889L195.825 89.9401L194.827 90ZM180.269 90L179.27 90.0384L179.307 91H180.269V90ZM179.457 68.888L180.456 68.8496L180.419 67.888H179.457V68.888ZM178.993 68.888V67.888H178.214L178.023 68.643L178.993 68.888ZM173.657 90V91H174.436L174.626 90.245L173.657 90ZM163.043 90L162.074 90.2475L162.266 91H163.043V90ZM157.649 68.888L158.618 68.6405L158.425 67.888H157.649V68.888ZM156.244 68.8496L155.432 89.9616L157.43 90.0384L158.242 68.9264L156.244 68.8496ZM156.431 89H141.873V91H156.431V89ZM142.871 90.0612L145.539 46.5612L143.543 46.4388L140.875 89.9388L142.871 90.0612ZM144.541 47.5H162.695V45.5H144.541V47.5ZM161.723 46.7365L167.117 68.8925L169.06 68.4195L163.666 46.2635L161.723 46.7365ZM168.089 69.656H168.611V67.656H168.089V69.656ZM169.582 68.8925L174.976 46.7365L173.033 46.2635L167.639 68.4195L169.582 68.8925ZM174.005 47.5H192.217V45.5H174.005V47.5ZM191.219 46.5599L193.829 90.0599L195.825 89.9401L193.215 46.4401L191.219 46.5599ZM194.827 89H180.269V91H194.827V89ZM181.268 89.9616L180.456 68.8496L178.458 68.9264L179.27 90.0384L181.268 89.9616ZM179.457 67.888H178.993V69.888H179.457V67.888ZM178.023 68.643L172.687 89.755L174.626 90.245L179.962 69.133L178.023 68.643ZM173.657 89H163.043V91H173.657V89ZM164.012 89.7525L158.618 68.6405L156.68 69.1355L162.074 90.2475L164.012 89.7525ZM157.649 67.888H157.243V69.888H157.649V67.888ZM227.867 63.494H228.867V62.494H227.867V63.494ZM227.867 73.586V74.586H228.867V73.586H227.867ZM213.947 73.586V72.586H212.947V73.586H213.947ZM213.947 78.864H212.947V79.864H213.947V78.864ZM230.999 78.864H231.999V77.864H230.999V78.864ZM230.999 90V91H231.999V90H230.999ZM200.027 90H199.027V91H200.027V90ZM200.027 46.5V45.5H199.027V46.5H200.027ZM230.651 46.5L231.639 46.6544L231.819 45.5H230.651V46.5ZM228.911 57.636V58.636H229.767L229.899 57.7904L228.911 57.636ZM213.947 57.636V56.636H212.947V57.636H213.947ZM213.947 63.494H212.947V64.494H213.947V63.494ZM226.867 63.494V73.586H228.867V63.494H226.867ZM227.867 72.586H213.947V74.586H227.867V72.586ZM212.947 73.586V78.864H214.947V73.586H212.947ZM213.947 79.864H230.999V77.864H213.947V79.864ZM229.999 78.864V90H231.999V78.864H229.999ZM230.999 89H200.027V91H230.999V89ZM201.027 90V46.5H199.027V90H201.027ZM200.027 47.5H230.651V45.5H200.027V47.5ZM229.663 46.3456L227.923 57.4816L229.899 57.7904L231.639 46.6544L229.663 46.3456ZM228.911 56.636H213.947V58.636H228.911V56.636ZM212.947 57.636V63.494H214.947V57.636H212.947ZM213.947 64.494H227.867V62.494H213.947V64.494ZM275.528 90V91H276.528V90H275.528ZM262.42 90L261.596 90.5668L261.894 91H262.42V90ZM251.806 74.572L252.63 74.0052L252.625 73.9979L252.62 73.9908L251.806 74.572ZM251.342 73.354L250.364 73.5635L250.364 73.5635L251.342 73.354ZM251.11 71.208L252.109 71.1646L252.067 70.208H251.11V71.208ZM250.82 71.208V70.208H249.82V71.208H250.82ZM250.82 90V91H251.82V90H250.82ZM236.9 90H235.9V91H236.9V90ZM236.9 46.5V45.5H235.9V46.5H236.9ZM250.008 46.5L250.832 45.9332L250.534 45.5H250.008V46.5ZM260.622 61.928L259.798 62.4948L259.803 62.5021L259.808 62.5092L260.622 61.928ZM261.318 65.292L260.319 65.3354L260.36 66.292H261.318V65.292ZM261.608 65.292V66.292H262.608V65.292H261.608ZM261.608 46.5V45.5H260.608V46.5H261.608ZM275.528 46.5H276.528V45.5H275.528V46.5ZM275.528 89H262.42V91H275.528V89ZM263.244 89.4332L252.63 74.0052L250.982 75.1388L261.596 90.5668L263.244 89.4332ZM252.62 73.9908C252.542 73.8816 252.424 73.6293 252.32 73.1445L250.364 73.5635C250.492 74.1613 250.684 74.7211 250.992 75.1532L252.62 73.9908ZM252.32 73.1445C252.22 72.6804 252.146 72.0273 252.109 71.1646L250.111 71.2514C250.151 72.1674 250.232 72.9449 250.364 73.5635L252.32 73.1445ZM251.11 70.208H250.82V72.208H251.11V70.208ZM249.82 71.208V90H251.82V71.208H249.82ZM250.82 89H236.9V91H250.82V89ZM237.9 90V46.5H235.9V90H237.9ZM236.9 47.5H250.008V45.5H236.9V47.5ZM249.184 47.0668L259.798 62.4948L261.446 61.3612L250.832 45.9332L249.184 47.0668ZM259.808 62.5092C259.886 62.6184 260.004 62.8706 260.108 63.3555L262.064 62.9365C261.936 62.3387 261.744 61.7789 261.436 61.3468L259.808 62.5092ZM260.108 63.3555C260.208 63.8196 260.281 64.4727 260.319 65.3354L262.317 65.2486C262.277 64.3326 262.196 63.5551 262.064 62.9365L260.108 63.3555ZM261.318 66.292H261.608V64.292H261.318V66.292ZM262.608 65.292V46.5H260.608V65.292H262.608ZM261.608 47.5H275.528V45.5H261.608V47.5ZM274.528 46.5V90H276.528V46.5H274.528ZM313.468 46.5H314.468V45.5H313.468V46.5ZM313.468 57.636V58.636H314.468V57.636H313.468ZM303.376 57.636V56.636H302.376V57.636H303.376ZM303.376 90V91H304.376V90H303.376ZM289.456 90H288.456V91H289.456V90ZM289.456 57.636H290.456V56.636H289.456V57.636ZM279.364 57.636H278.364V58.636H279.364V57.636ZM279.364 46.5V45.5H278.364V46.5H279.364ZM312.468 46.5V57.636H314.468V46.5H312.468ZM313.468 56.636H303.376V58.636H313.468V56.636ZM302.376 57.636V90H304.376V57.636H302.376ZM303.376 89H289.456V91H303.376V89ZM290.456 90V57.636H288.456V90H290.456ZM289.456 56.636H279.364V58.636H289.456V56.636ZM280.364 57.636V46.5H278.364V57.636H280.364ZM279.364 47.5H313.468V45.5H279.364V47.5ZM315.533 89.246L314.547 89.0768L314.386 90.0141L315.314 90.2218L315.533 89.246ZM317.505 77.762L317.743 76.7908L316.701 76.535L316.519 77.5928L317.505 77.762ZM333.629 79.27L333.658 80.2696L333.672 80.2692L333.686 80.2684L333.629 79.27ZM337.225 78.922L337.372 79.9112L338.225 79.7848V78.922H337.225ZM337.225 75.442H338.225V74.5219L337.308 74.4455L337.225 75.442ZM330.961 74.92L330.866 75.9155L330.878 75.9165L330.961 74.92ZM323.885 73.528L323.557 74.4728L323.557 74.4728L323.885 73.528ZM319.303 70.86L318.584 71.555L318.596 71.5672L318.608 71.579L319.303 70.86ZM316.867 66.742L315.905 67.0167L315.909 67.0305L315.914 67.0442L316.867 66.742ZM317.099 53.634L318.053 53.9333L318.055 53.9281L317.099 53.634ZM320.057 48.82L320.72 49.5686L320.726 49.5634L320.732 49.558L320.057 48.82ZM325.277 46.21L325.051 45.2359L325.047 45.2368L325.277 46.21ZM349.869 47.196L350.857 47.3504L351 46.4324L350.095 46.222L349.869 47.196ZM348.129 58.332L347.97 59.3193L348.962 59.4787L349.117 58.4864L348.129 58.332ZM331.135 57.636L331.008 56.644L330.135 56.7555V57.636H331.135ZM331.135 61.058H330.135V61.9693L331.042 62.0537L331.135 61.058ZM336.123 61.522L336.224 60.5271L336.216 60.5263L336.123 61.522ZM343.779 63.088L343.442 64.0293L343.449 64.0322L343.457 64.0349L343.779 63.088ZM348.709 65.872L348.025 66.6015L348.031 66.6068L348.036 66.6119L348.709 65.872ZM351.377 69.99L350.424 70.2922L350.427 70.3027L350.431 70.3131L351.377 69.99ZM351.029 82.866L350.096 82.507L350.096 82.507L351.029 82.866ZM348.245 87.448L348.936 88.1706L348.939 88.1678L348.245 87.448ZM344.939 89.478L345.272 90.421L345.284 90.4167L345.296 90.4121L344.939 89.478ZM340.763 90.522L340.919 91.5098L340.919 91.5098L340.763 90.522ZM336.297 90.928L336.271 89.9283L336.258 89.9287L336.244 89.9294L336.297 90.928ZM323.595 90.58L323.705 89.5861L323.705 89.5861L323.595 90.58ZM316.519 89.4152L318.491 77.9312L316.519 77.5928L314.547 89.0768L316.519 89.4152ZM317.267 78.7332C321.578 79.7914 325.507 80.328 329.047 80.328V78.328C325.704 78.328 321.939 77.8206 317.743 76.7908L317.267 78.7332ZM329.047 80.328C330.794 80.328 332.331 80.3086 333.658 80.2696L333.6 78.2704C332.297 78.3087 330.78 78.328 329.047 78.328V80.328ZM333.686 80.2684C335.061 80.1898 336.291 80.0713 337.372 79.9112L337.078 77.9328C336.071 78.082 334.903 78.1956 333.572 78.2716L333.686 80.2684ZM338.225 78.922V75.442H336.225V78.922H338.225ZM337.308 74.4455L331.044 73.9235L330.878 75.9165L337.142 76.4385L337.308 74.4455ZM331.056 73.9246C328.283 73.6586 326.008 73.2062 324.213 72.5832L323.557 74.4728C325.551 75.1644 327.993 75.64 330.866 75.9154L331.056 73.9246ZM324.213 72.5832C322.423 71.9623 321.031 71.1398 319.998 70.141L318.608 71.579C319.895 72.8228 321.558 73.779 323.557 74.4728L324.213 72.5832ZM320.022 70.165C319.011 69.1195 318.278 67.8825 317.82 66.4398L315.914 67.0442C316.462 68.7721 317.352 70.2805 318.584 71.555L320.022 70.165ZM317.828 66.4673C317.396 64.9536 317.171 63.1552 317.171 61.058H315.171C315.171 63.2915 315.41 65.2824 315.905 67.0167L317.828 66.4673ZM317.171 61.058C317.171 58.1415 317.475 55.7761 318.053 53.9333L316.145 53.3347C315.486 55.4359 315.171 58.0198 315.171 61.058H317.171ZM318.055 53.9281C318.628 52.0638 319.525 50.6267 320.72 49.5686L319.394 48.0714C317.882 49.4106 316.807 51.1829 316.143 53.3399L318.055 53.9281ZM320.732 49.558C321.937 48.4559 323.514 47.6542 325.507 47.1832L325.047 45.2368C322.786 45.7712 320.883 46.7094 319.382 48.082L320.732 49.558ZM325.503 47.1841C327.572 46.7039 330.121 46.456 333.165 46.456V44.456C330.023 44.456 327.313 44.7108 325.051 45.2359L325.503 47.1841ZM333.165 46.456C339.251 46.456 344.742 47.0303 349.642 48.17L350.095 46.222C345.02 45.0417 339.375 44.456 333.165 44.456V46.456ZM348.881 47.0416L347.141 58.1776L349.117 58.4864L350.857 47.3504L348.881 47.0416ZM348.288 57.3447C343.935 56.6452 340.415 56.288 337.747 56.288V58.288C340.261 58.288 343.661 58.6268 347.97 59.3193L348.288 57.3447ZM337.747 56.288C335.13 56.288 332.881 56.405 331.008 56.644L331.262 58.6279C333.024 58.403 335.183 58.288 337.747 58.288V56.288ZM330.135 57.636V61.058H332.135V57.636H330.135ZM331.042 62.0537L336.03 62.5177L336.216 60.5263L331.228 60.0623L331.042 62.0537ZM336.022 62.5169C339.026 62.8211 341.493 63.3307 343.442 64.0293L344.116 62.1467C341.967 61.376 339.329 60.8415 336.224 60.5271L336.022 62.5169ZM343.457 64.0349C345.408 64.6973 346.916 65.5619 348.025 66.6015L349.393 65.1425C348.027 63.8621 346.249 62.8707 344.101 62.1411L343.457 64.0349ZM348.036 66.6119C349.187 67.6579 349.976 68.8814 350.424 70.2922L352.33 69.6878C351.772 67.928 350.783 66.4061 349.382 65.1321L348.036 66.6119ZM350.431 70.3131C350.93 71.7742 351.189 73.4789 351.189 75.442H353.189C353.189 73.3064 352.907 71.3765 352.323 69.6669L350.431 70.3131ZM351.189 75.442C351.189 78.2997 350.812 80.6443 350.096 82.507L351.962 83.225C352.793 81.0664 353.189 78.4617 353.189 75.442H351.189ZM350.096 82.507C349.354 84.436 348.493 85.8195 347.551 86.7282L348.939 88.1678C350.162 86.9885 351.158 85.3173 351.962 83.225L350.096 82.507ZM347.554 86.7254C346.773 87.4717 345.79 88.082 344.582 88.5439L345.296 90.4121C346.717 89.8686 347.938 89.1256 348.936 88.1706L347.554 86.7254ZM344.606 88.535C343.353 88.9774 342.02 89.3111 340.607 89.5342L340.919 91.5098C342.444 91.2689 343.896 90.9066 345.272 90.421L344.606 88.535ZM340.607 89.5342C339.181 89.7593 337.736 89.8908 336.271 89.9283L336.323 91.9277C337.874 91.8879 339.406 91.7487 340.919 91.5098L340.607 89.5342ZM336.244 89.9294C334.789 90.006 333.473 90.044 332.295 90.044V92.044C333.515 92.044 334.866 92.0047 336.35 91.9266L336.244 89.9294ZM332.295 90.044C329.313 90.044 326.45 89.8911 323.705 89.5861L323.485 91.5739C326.308 91.8876 329.245 92.044 332.295 92.044V90.044ZM323.705 89.5861C320.956 89.2806 318.305 88.8418 315.751 88.2702L315.314 90.2218C317.943 90.8102 320.666 91.2607 323.485 91.5739L323.705 89.5861Z" fill="#CEB7FF"/>
</g>
<g filter="url(#filter2_d_21_3746)">
<path d="M37.4656 77.53L38.4616 77.4412L38.3468 76.1523L37.1285 76.5885L37.4656 77.53ZM38.5096 89.246L38.883 90.1736L39.5715 89.8965L39.5056 89.1572L38.5096 89.246ZM17.2236 89.71L16.8992 90.656L16.9114 90.66L17.2236 89.71ZM10.7856 85.534L11.5459 84.8845L11.5459 84.8845L10.7856 85.534ZM7.42156 78.458L6.44407 78.6693L6.44695 78.6819L7.42156 78.458ZM7.36356 58.39L6.3861 58.1787L6.38403 58.1887L7.36356 58.39ZM10.6116 51.256L11.3863 51.8884L11.3924 51.8807L10.6116 51.256ZM16.8756 46.906L16.5349 45.9658L16.5305 45.9674L16.8756 46.906ZM29.9256 45.63L29.819 46.6243L29.8379 46.6263L29.8568 46.6276L29.9256 45.63ZM33.1736 45.978L33.027 46.9672L33.0321 46.9679L33.1736 45.978ZM36.1896 46.558L35.947 47.5281L35.9701 47.5339L35.9934 47.5386L36.1896 46.558ZM38.5096 47.254L39.491 47.446L39.6411 46.6785L38.9324 46.3478L38.5096 47.254ZM36.4216 57.926L36.2137 58.9042L37.2078 59.1154L37.403 58.118L36.4216 57.926ZM21.4576 78.632H20.4576V79.438L21.2451 79.6092L21.4576 78.632ZM24.1256 79.096L23.9962 80.0876L24.0193 80.0906L24.0425 80.0925L24.1256 79.096ZM36.4695 77.6188L37.5135 89.3348L39.5056 89.1572L38.4616 77.4412L36.4695 77.6188ZM38.1361 88.3184C35.312 89.4553 31.7743 90.044 27.4896 90.044V92.044C31.9435 92.044 35.7525 91.434 38.883 90.1736L38.1361 88.3184ZM27.4896 90.044C23.4148 90.044 20.1073 89.6049 17.5357 88.76L16.9114 90.66C19.7532 91.5938 23.2897 92.044 27.4896 92.044V90.044ZM17.5479 88.7641C14.981 87.884 12.9964 86.5826 11.5459 84.8845L10.0252 86.1835C11.7454 88.1974 14.0528 89.68 16.8992 90.6559L17.5479 88.7641ZM11.5459 84.8845C10.0845 83.1735 9.02469 80.97 8.39618 78.2341L6.44695 78.6819C7.1331 81.6687 8.31599 84.1825 10.0252 86.1835L11.5459 84.8845ZM8.39898 78.2467C7.79935 75.4734 7.49356 72.1643 7.49356 68.308H5.49356C5.49356 72.2624 5.80644 75.7199 6.44415 78.6693L8.39898 78.2467ZM7.49356 68.308C7.49356 64.5665 7.78018 61.3308 8.3431 58.5913L6.38403 58.1887C5.78694 61.0945 5.49356 64.4709 5.49356 68.308H7.49356ZM8.34098 58.6013C8.93278 55.8642 9.95729 53.6388 11.3862 51.8884L9.8369 50.6236C8.17251 52.6625 7.03168 55.1931 6.38615 58.1787L8.34098 58.6013ZM11.3924 51.8807C12.8108 50.1078 14.7394 48.7568 17.2206 47.8446L16.5305 45.9674C13.753 46.9886 11.5057 48.5375 9.83069 50.6313L11.3924 51.8807ZM17.2162 47.8462C19.7389 46.9322 22.9779 46.456 26.9676 46.456V44.456C22.8372 44.456 19.3482 44.9465 16.5349 45.9658L17.2162 47.8462ZM26.9676 46.456C27.8145 46.456 28.7642 46.5113 29.819 46.6243L30.0321 44.6357C28.9216 44.5167 27.8993 44.456 26.9676 44.456V46.456ZM29.8568 46.6276C30.9537 46.7033 32.0104 46.8166 33.027 46.9672L33.3201 44.9888C32.2487 44.8301 31.14 44.7114 29.9944 44.6324L29.8568 46.6276ZM33.0321 46.9679C34.0855 47.1184 35.0567 47.3056 35.947 47.5281L36.4321 45.5879C35.4664 45.3464 34.427 45.1469 33.315 44.988L33.0321 46.9679ZM35.9934 47.5386C36.9191 47.7237 37.6068 47.9362 38.0867 48.1602L38.9324 46.3478C38.2523 46.0304 37.3934 45.779 36.3857 45.5774L35.9934 47.5386ZM37.5282 47.062L35.4402 57.734L37.403 58.118L39.491 47.446L37.5282 47.062ZM36.6294 56.9478C33.4868 56.28 30.6505 55.94 28.1276 55.94V57.94C30.4766 57.94 33.1697 58.2573 36.2137 58.9042L36.6294 56.9478ZM28.1276 55.94C25.614 55.94 23.6663 56.1626 22.4748 56.7345L23.3403 58.5375C24.0821 58.1814 25.6145 57.94 28.1276 57.94V55.94ZM22.4748 56.7345C21.0534 57.4168 20.4576 58.7799 20.4576 60.42H22.4576C22.4576 59.2761 22.8284 58.7832 23.3403 58.5375L22.4748 56.7345ZM20.4576 60.42V78.632H22.4576V60.42H20.4576ZM21.2451 79.6092C22.1615 79.8084 23.0786 79.9679 23.9962 80.0876L24.2549 78.1044C23.3939 77.9921 22.5322 77.8423 21.67 77.6548L21.2451 79.6092ZM24.0425 80.0925C24.9992 80.1723 25.9742 80.212 26.9676 80.212V78.212C26.0276 78.212 25.108 78.1744 24.2086 78.0995L24.0425 80.0925ZM26.9676 80.212C30.9308 80.212 34.5465 79.6373 37.8026 78.4715L37.1285 76.5885C34.1206 77.6654 30.7376 78.212 26.9676 78.212V80.212ZM42.2569 58.042L41.2845 57.8086L41.2823 57.8181L42.2569 58.042ZM45.6789 50.908L44.9263 50.2494L44.9185 50.2585L45.6789 50.908ZM52.0589 46.79L51.7385 45.8427L51.7385 45.8427L52.0589 46.79ZM71.5469 46.79L71.2222 47.7358L71.2265 47.7373L71.5469 46.79ZM77.8689 50.908L77.1085 51.5575L77.1163 51.5665L77.8689 50.908ZM81.2909 58.042L80.3156 58.2631L80.3174 58.2707L80.3192 58.2784L81.2909 58.042ZM81.4069 78.284L82.3837 78.4981L82.3843 78.4953L81.4069 78.284ZM78.1009 85.36L77.3339 84.7182L77.3262 84.7276L78.1009 85.36ZM71.7789 89.652L72.1117 90.595L72.1196 90.5922L71.7789 89.652ZM51.7689 89.652L51.4238 90.5906L51.4321 90.5936L51.4404 90.5965L51.7689 89.652ZM45.4469 85.36L44.6722 85.9924L44.68 86.0017L45.4469 85.36ZM42.1989 78.284L41.2215 78.4953L41.2221 78.4981L42.1989 78.284ZM56.2349 79.154H55.2349V80.154H56.2349V79.154ZM66.1529 78.516L66.6169 79.4018L66.6244 79.3979L66.6318 79.3939L66.1529 78.516ZM67.4289 57.346H68.4289V56.346H67.4289V57.346ZM57.5109 58.042L57.9581 58.9364L57.9741 58.9284L57.9898 58.9199L57.5109 58.042ZM42.2709 68.308C42.2709 64.3759 42.5958 61.0331 43.2315 58.2659L41.2823 57.8181C40.6033 60.7736 40.2709 64.2747 40.2709 68.308H42.2709ZM43.2293 58.2754C43.8965 55.4953 44.9768 53.2697 46.4393 51.5575L44.9185 50.2585C43.2104 52.2583 42.0093 54.7887 41.2845 57.8086L43.2293 58.2754ZM46.4315 51.5665C47.9254 49.8592 49.8956 48.5774 52.3793 47.7373L51.7385 45.8427C48.9636 46.7813 46.6804 48.2448 44.9263 50.2495L46.4315 51.5665ZM52.3793 47.7373C54.8737 46.8936 58.0057 46.456 61.8029 46.456V44.456C57.8668 44.456 54.5028 44.9077 51.7385 45.8427L52.3793 47.7373ZM61.8029 46.456C65.6408 46.456 68.7702 46.8941 71.2222 47.7358L71.8716 45.8442C69.1423 44.9073 65.7757 44.456 61.8029 44.456V46.456ZM71.2265 47.7373C73.7089 48.5769 75.6557 49.8566 77.1085 51.5575L78.6293 50.2585C76.9115 48.2474 74.6436 46.7817 71.8673 45.8427L71.2265 47.7373ZM77.1163 51.5665C78.6105 53.2742 79.6875 55.492 80.3156 58.2631L82.2662 57.8209C81.5796 54.792 80.3753 52.2538 78.6215 50.2495L77.1163 51.5665ZM80.3192 58.2784C80.9911 61.0406 81.3349 64.379 81.3349 68.308H83.3349C83.3349 64.2716 82.9827 60.766 82.2626 57.8056L80.3192 58.2784ZM81.3349 68.308C81.3349 72.0459 81.0295 75.2976 80.4295 78.0727L82.3843 78.4953C83.0216 75.5477 83.3349 72.1488 83.3349 68.308H81.3349ZM80.4301 78.0699C79.8401 80.7619 78.7997 82.9666 77.334 84.7183L78.8678 86.0017C80.5728 83.9641 81.7364 81.4514 82.3837 78.4981L80.4301 78.0699ZM77.3262 84.7276C75.911 86.4613 73.964 87.7967 71.4383 88.7118L72.1196 90.5922C74.9298 89.574 77.1974 88.0481 78.8756 85.9924L77.3262 84.7276ZM71.4461 88.709C68.9596 89.5866 65.7566 90.044 61.8029 90.044V92.044C65.8919 92.044 69.3395 91.5734 72.1117 90.595L71.4461 88.709ZM61.8029 90.044C57.85 90.044 54.6254 89.5868 52.0974 88.7075L51.4404 90.5965C54.2484 91.5732 57.7131 92.044 61.8029 92.044V90.044ZM52.114 88.7134C49.6264 87.7989 47.6726 86.4616 46.2138 84.7183L44.68 86.0017C46.3919 88.0477 48.6527 89.5718 51.4238 90.5906L52.114 88.7134ZM46.2216 84.7276C44.7907 82.9748 43.7668 80.7669 43.1757 78.0699L41.2221 78.4981C41.8683 81.4464 43.0098 83.9559 44.6722 85.9924L46.2216 84.7276ZM43.1763 78.0727C42.5763 75.2976 42.2709 72.0459 42.2709 68.308H40.2709C40.2709 72.1488 40.5842 75.5477 41.2215 78.4953L43.1763 78.0727ZM55.2349 61.058V79.154H57.2349V61.058H55.2349ZM56.2349 80.154H62.0349V78.154H56.2349V80.154ZM62.0349 80.154C63.9884 80.154 65.5743 79.9479 66.6169 79.4018L65.6889 77.6302C65.1075 77.9347 63.9481 78.154 62.0349 78.154V80.154ZM66.6318 79.3939C67.9735 78.662 68.4289 77.147 68.4289 75.442H66.4289C66.4289 76.9076 66.0336 77.442 65.6741 77.6381L66.6318 79.3939ZM68.4289 75.442V57.346H66.4289V75.442H68.4289ZM67.4289 56.346H61.5709V58.346H67.4289V56.346ZM61.5709 56.346C59.6746 56.346 58.1109 56.5756 57.0321 57.1641L57.9898 58.9199C58.6122 58.5804 59.7552 58.346 61.5709 58.346V56.346ZM57.0637 57.1476C55.6867 57.8361 55.2349 59.363 55.2349 61.058H57.2349C57.2349 59.5823 57.6337 59.0986 57.9581 58.9364L57.0637 57.1476ZM100.829 68.888V67.888H99.8665L99.8295 68.8496L100.829 68.888ZM100.017 90V91H100.979L101.016 90.0384L100.017 90ZM85.4588 90L84.4606 89.9388L84.3955 91H85.4588V90ZM88.1268 46.5V45.5H87.1862L87.1286 46.4388L88.1268 46.5ZM106.281 46.5L107.252 46.2635L107.067 45.5H106.281V46.5ZM111.675 68.656L110.703 68.8925L110.889 69.656H111.675V68.656ZM112.197 68.656V69.656H112.983L113.168 68.8925L112.197 68.656ZM117.591 46.5V45.5H116.805L116.619 46.2635L117.591 46.5ZM135.803 46.5L136.801 46.4401L136.745 45.5H135.803V46.5ZM138.413 90V91H139.475L139.411 89.9401L138.413 90ZM123.855 90L122.855 90.0384L122.892 91H123.855V90ZM123.043 68.888L124.042 68.8496L124.005 67.888H123.043V68.888ZM122.579 68.888V67.888H121.8L121.609 68.643L122.579 68.888ZM117.243 90V91H118.021L118.212 90.245L117.243 90ZM106.629 90L105.66 90.2475L105.852 91H106.629V90ZM101.235 68.888L102.204 68.6405L102.011 67.888H101.235V68.888ZM99.8295 68.8496L99.0175 89.9616L101.016 90.0384L101.828 68.9264L99.8295 68.8496ZM100.017 89H85.4588V91H100.017V89ZM86.4569 90.0612L89.1249 46.5612L87.1286 46.4388L84.4606 89.9388L86.4569 90.0612ZM88.1268 47.5H106.281V45.5H88.1268V47.5ZM105.309 46.7365L110.703 68.8925L112.646 68.4195L107.252 46.2635L105.309 46.7365ZM111.675 69.656H112.197V67.656H111.675V69.656ZM113.168 68.8925L118.562 46.7365L116.619 46.2635L111.225 68.4195L113.168 68.8925ZM117.591 47.5H135.803V45.5H117.591V47.5ZM134.805 46.5599L137.415 90.0599L139.411 89.9401L136.801 46.4401L134.805 46.5599ZM138.413 89H123.855V91H138.413V89ZM124.854 89.9616L124.042 68.8496L122.043 68.9264L122.855 90.0384L124.854 89.9616ZM123.043 67.888H122.579V69.888H123.043V67.888ZM121.609 68.643L116.273 89.755L118.212 90.245L123.548 69.133L121.609 68.643ZM117.243 89H106.629V91H117.243V89ZM107.598 89.7525L102.204 68.6405L100.266 69.1355L105.66 90.2475L107.598 89.7525ZM101.235 67.888H100.829V69.888H101.235V67.888ZM157.243 68.888V67.888H156.281L156.244 68.8496L157.243 68.888ZM156.431 90V91H157.393L157.43 90.0384L156.431 90ZM141.873 90L140.875 89.9388L140.81 91H141.873V90ZM144.541 46.5V45.5H143.6L143.543 46.4388L144.541 46.5ZM162.695 46.5L163.666 46.2635L163.481 45.5H162.695V46.5ZM168.089 68.656L167.117 68.8925L167.303 69.656H168.089V68.656ZM168.611 68.656V69.656H169.397L169.582 68.8925L168.611 68.656ZM174.005 46.5V45.5H173.219L173.033 46.2635L174.005 46.5ZM192.217 46.5L193.215 46.4401L193.159 45.5H192.217V46.5ZM194.827 90V91H195.889L195.825 89.9401L194.827 90ZM180.269 90L179.27 90.0384L179.307 91H180.269V90ZM179.457 68.888L180.456 68.8496L180.419 67.888H179.457V68.888ZM178.993 68.888V67.888H178.214L178.023 68.643L178.993 68.888ZM173.657 90V91H174.436L174.626 90.245L173.657 90ZM163.043 90L162.074 90.2475L162.266 91H163.043V90ZM157.649 68.888L158.618 68.6405L158.425 67.888H157.649V68.888ZM156.244 68.8496L155.432 89.9616L157.43 90.0384L158.242 68.9264L156.244 68.8496ZM156.431 89H141.873V91H156.431V89ZM142.871 90.0612L145.539 46.5612L143.543 46.4388L140.875 89.9388L142.871 90.0612ZM144.541 47.5H162.695V45.5H144.541V47.5ZM161.723 46.7365L167.117 68.8925L169.06 68.4195L163.666 46.2635L161.723 46.7365ZM168.089 69.656H168.611V67.656H168.089V69.656ZM169.582 68.8925L174.976 46.7365L173.033 46.2635L167.639 68.4195L169.582 68.8925ZM174.005 47.5H192.217V45.5H174.005V47.5ZM191.219 46.5599L193.829 90.0599L195.825 89.9401L193.215 46.4401L191.219 46.5599ZM194.827 89H180.269V91H194.827V89ZM181.268 89.9616L180.456 68.8496L178.458 68.9264L179.27 90.0384L181.268 89.9616ZM179.457 67.888H178.993V69.888H179.457V67.888ZM178.023 68.643L172.687 89.755L174.626 90.245L179.962 69.133L178.023 68.643ZM173.657 89H163.043V91H173.657V89ZM164.012 89.7525L158.618 68.6405L156.68 69.1355L162.074 90.2475L164.012 89.7525ZM157.649 67.888H157.243V69.888H157.649V67.888ZM227.867 63.494H228.867V62.494H227.867V63.494ZM227.867 73.586V74.586H228.867V73.586H227.867ZM213.947 73.586V72.586H212.947V73.586H213.947ZM213.947 78.864H212.947V79.864H213.947V78.864ZM230.999 78.864H231.999V77.864H230.999V78.864ZM230.999 90V91H231.999V90H230.999ZM200.027 90H199.027V91H200.027V90ZM200.027 46.5V45.5H199.027V46.5H200.027ZM230.651 46.5L231.639 46.6544L231.819 45.5H230.651V46.5ZM228.911 57.636V58.636H229.767L229.899 57.7904L228.911 57.636ZM213.947 57.636V56.636H212.947V57.636H213.947ZM213.947 63.494H212.947V64.494H213.947V63.494ZM226.867 63.494V73.586H228.867V63.494H226.867ZM227.867 72.586H213.947V74.586H227.867V72.586ZM212.947 73.586V78.864H214.947V73.586H212.947ZM213.947 79.864H230.999V77.864H213.947V79.864ZM229.999 78.864V90H231.999V78.864H229.999ZM230.999 89H200.027V91H230.999V89ZM201.027 90V46.5H199.027V90H201.027ZM200.027 47.5H230.651V45.5H200.027V47.5ZM229.663 46.3456L227.923 57.4816L229.899 57.7904L231.639 46.6544L229.663 46.3456ZM228.911 56.636H213.947V58.636H228.911V56.636ZM212.947 57.636V63.494H214.947V57.636H212.947ZM213.947 64.494H227.867V62.494H213.947V64.494ZM275.528 90V91H276.528V90H275.528ZM262.42 90L261.596 90.5668L261.894 91H262.42V90ZM251.806 74.572L252.63 74.0052L252.625 73.9979L252.62 73.9908L251.806 74.572ZM251.342 73.354L250.364 73.5635L250.364 73.5635L251.342 73.354ZM251.11 71.208L252.109 71.1646L252.067 70.208H251.11V71.208ZM250.82 71.208V70.208H249.82V71.208H250.82ZM250.82 90V91H251.82V90H250.82ZM236.9 90H235.9V91H236.9V90ZM236.9 46.5V45.5H235.9V46.5H236.9ZM250.008 46.5L250.832 45.9332L250.534 45.5H250.008V46.5ZM260.622 61.928L259.798 62.4948L259.803 62.5021L259.808 62.5092L260.622 61.928ZM261.318 65.292L260.319 65.3354L260.36 66.292H261.318V65.292ZM261.608 65.292V66.292H262.608V65.292H261.608ZM261.608 46.5V45.5H260.608V46.5H261.608ZM275.528 46.5H276.528V45.5H275.528V46.5ZM275.528 89H262.42V91H275.528V89ZM263.244 89.4332L252.63 74.0052L250.982 75.1388L261.596 90.5668L263.244 89.4332ZM252.62 73.9908C252.542 73.8816 252.424 73.6293 252.32 73.1445L250.364 73.5635C250.492 74.1613 250.684 74.7211 250.992 75.1532L252.62 73.9908ZM252.32 73.1445C252.22 72.6804 252.146 72.0273 252.109 71.1646L250.111 71.2514C250.151 72.1674 250.232 72.9449 250.364 73.5635L252.32 73.1445ZM251.11 70.208H250.82V72.208H251.11V70.208ZM249.82 71.208V90H251.82V71.208H249.82ZM250.82 89H236.9V91H250.82V89ZM237.9 90V46.5H235.9V90H237.9ZM236.9 47.5H250.008V45.5H236.9V47.5ZM249.184 47.0668L259.798 62.4948L261.446 61.3612L250.832 45.9332L249.184 47.0668ZM259.808 62.5092C259.886 62.6184 260.004 62.8706 260.108 63.3555L262.064 62.9365C261.936 62.3387 261.744 61.7789 261.436 61.3468L259.808 62.5092ZM260.108 63.3555C260.208 63.8196 260.281 64.4727 260.319 65.3354L262.317 65.2486C262.277 64.3326 262.196 63.5551 262.064 62.9365L260.108 63.3555ZM261.318 66.292H261.608V64.292H261.318V66.292ZM262.608 65.292V46.5H260.608V65.292H262.608ZM261.608 47.5H275.528V45.5H261.608V47.5ZM274.528 46.5V90H276.528V46.5H274.528ZM313.468 46.5H314.468V45.5H313.468V46.5ZM313.468 57.636V58.636H314.468V57.636H313.468ZM303.376 57.636V56.636H302.376V57.636H303.376ZM303.376 90V91H304.376V90H303.376ZM289.456 90H288.456V91H289.456V90ZM289.456 57.636H290.456V56.636H289.456V57.636ZM279.364 57.636H278.364V58.636H279.364V57.636ZM279.364 46.5V45.5H278.364V46.5H279.364ZM312.468 46.5V57.636H314.468V46.5H312.468ZM313.468 56.636H303.376V58.636H313.468V56.636ZM302.376 57.636V90H304.376V57.636H302.376ZM303.376 89H289.456V91H303.376V89ZM290.456 90V57.636H288.456V90H290.456ZM289.456 56.636H279.364V58.636H289.456V56.636ZM280.364 57.636V46.5H278.364V57.636H280.364ZM279.364 47.5H313.468V45.5H279.364V47.5ZM315.533 89.246L314.547 89.0768L314.386 90.0141L315.314 90.2218L315.533 89.246ZM317.505 77.762L317.743 76.7908L316.701 76.535L316.519 77.5928L317.505 77.762ZM333.629 79.27L333.658 80.2696L333.672 80.2692L333.686 80.2684L333.629 79.27ZM337.225 78.922L337.372 79.9112L338.225 79.7848V78.922H337.225ZM337.225 75.442H338.225V74.5219L337.308 74.4455L337.225 75.442ZM330.961 74.92L330.866 75.9155L330.878 75.9165L330.961 74.92ZM323.885 73.528L323.557 74.4728L323.557 74.4728L323.885 73.528ZM319.303 70.86L318.584 71.555L318.596 71.5672L318.608 71.579L319.303 70.86ZM316.867 66.742L315.905 67.0167L315.909 67.0305L315.914 67.0442L316.867 66.742ZM317.099 53.634L318.053 53.9333L318.055 53.9281L317.099 53.634ZM320.057 48.82L320.72 49.5686L320.726 49.5634L320.732 49.558L320.057 48.82ZM325.277 46.21L325.051 45.2359L325.047 45.2368L325.277 46.21ZM349.869 47.196L350.857 47.3504L351 46.4324L350.095 46.222L349.869 47.196ZM348.129 58.332L347.97 59.3193L348.962 59.4787L349.117 58.4864L348.129 58.332ZM331.135 57.636L331.008 56.644L330.135 56.7555V57.636H331.135ZM331.135 61.058H330.135V61.9693L331.042 62.0537L331.135 61.058ZM336.123 61.522L336.224 60.5271L336.216 60.5263L336.123 61.522ZM343.779 63.088L343.442 64.0293L343.449 64.0322L343.457 64.0349L343.779 63.088ZM348.709 65.872L348.025 66.6015L348.031 66.6068L348.036 66.6119L348.709 65.872ZM351.377 69.99L350.424 70.2922L350.427 70.3027L350.431 70.3131L351.377 69.99ZM351.029 82.866L350.096 82.507L350.096 82.507L351.029 82.866ZM348.245 87.448L348.936 88.1706L348.939 88.1678L348.245 87.448ZM344.939 89.478L345.272 90.421L345.284 90.4167L345.296 90.4121L344.939 89.478ZM340.763 90.522L340.919 91.5098L340.919 91.5098L340.763 90.522ZM336.297 90.928L336.271 89.9283L336.258 89.9287L336.244 89.9294L336.297 90.928ZM323.595 90.58L323.705 89.5861L323.705 89.5861L323.595 90.58ZM316.519 89.4152L318.491 77.9312L316.519 77.5928L314.547 89.0768L316.519 89.4152ZM317.267 78.7332C321.578 79.7914 325.507 80.328 329.047 80.328V78.328C325.704 78.328 321.939 77.8206 317.743 76.7908L317.267 78.7332ZM329.047 80.328C330.794 80.328 332.331 80.3086 333.658 80.2696L333.6 78.2704C332.297 78.3087 330.78 78.328 329.047 78.328V80.328ZM333.686 80.2684C335.061 80.1898 336.291 80.0713 337.372 79.9112L337.078 77.9328C336.071 78.082 334.903 78.1956 333.572 78.2716L333.686 80.2684ZM338.225 78.922V75.442H336.225V78.922H338.225ZM337.308 74.4455L331.044 73.9235L330.878 75.9165L337.142 76.4385L337.308 74.4455ZM331.056 73.9246C328.283 73.6586 326.008 73.2062 324.213 72.5832L323.557 74.4728C325.551 75.1644 327.993 75.64 330.866 75.9154L331.056 73.9246ZM324.213 72.5832C322.423 71.9623 321.031 71.1398 319.998 70.141L318.608 71.579C319.895 72.8228 321.558 73.779 323.557 74.4728L324.213 72.5832ZM320.022 70.165C319.011 69.1195 318.278 67.8825 317.82 66.4398L315.914 67.0442C316.462 68.7721 317.352 70.2805 318.584 71.555L320.022 70.165ZM317.828 66.4673C317.396 64.9536 317.171 63.1552 317.171 61.058H315.171C315.171 63.2915 315.41 65.2824 315.905 67.0167L317.828 66.4673ZM317.171 61.058C317.171 58.1415 317.475 55.7761 318.053 53.9333L316.145 53.3347C315.486 55.4359 315.171 58.0198 315.171 61.058H317.171ZM318.055 53.9281C318.628 52.0638 319.525 50.6267 320.72 49.5686L319.394 48.0714C317.882 49.4106 316.807 51.1829 316.143 53.3399L318.055 53.9281ZM320.732 49.558C321.937 48.4559 323.514 47.6542 325.507 47.1832L325.047 45.2368C322.786 45.7712 320.883 46.7094 319.382 48.082L320.732 49.558ZM325.503 47.1841C327.572 46.7039 330.121 46.456 333.165 46.456V44.456C330.023 44.456 327.313 44.7108 325.051 45.2359L325.503 47.1841ZM333.165 46.456C339.251 46.456 344.742 47.0303 349.642 48.17L350.095 46.222C345.02 45.0417 339.375 44.456 333.165 44.456V46.456ZM348.881 47.0416L347.141 58.1776L349.117 58.4864L350.857 47.3504L348.881 47.0416ZM348.288 57.3447C343.935 56.6452 340.415 56.288 337.747 56.288V58.288C340.261 58.288 343.661 58.6268 347.97 59.3193L348.288 57.3447ZM337.747 56.288C335.13 56.288 332.881 56.405 331.008 56.644L331.262 58.6279C333.024 58.403 335.183 58.288 337.747 58.288V56.288ZM330.135 57.636V61.058H332.135V57.636H330.135ZM331.042 62.0537L336.03 62.5177L336.216 60.5263L331.228 60.0623L331.042 62.0537ZM336.022 62.5169C339.026 62.8211 341.493 63.3307 343.442 64.0293L344.116 62.1467C341.967 61.376 339.329 60.8415 336.224 60.5271L336.022 62.5169ZM343.457 64.0349C345.408 64.6973 346.916 65.5619 348.025 66.6015L349.393 65.1425C348.027 63.8621 346.249 62.8707 344.101 62.1411L343.457 64.0349ZM348.036 66.6119C349.187 67.6579 349.976 68.8814 350.424 70.2922L352.33 69.6878C351.772 67.928 350.783 66.4061 349.382 65.1321L348.036 66.6119ZM350.431 70.3131C350.93 71.7742 351.189 73.4789 351.189 75.442H353.189C353.189 73.3064 352.907 71.3765 352.323 69.6669L350.431 70.3131ZM351.189 75.442C351.189 78.2997 350.812 80.6443 350.096 82.507L351.962 83.225C352.793 81.0664 353.189 78.4617 353.189 75.442H351.189ZM350.096 82.507C349.354 84.436 348.493 85.8195 347.551 86.7282L348.939 88.1678C350.162 86.9885 351.158 85.3173 351.962 83.225L350.096 82.507ZM347.554 86.7254C346.773 87.4717 345.79 88.082 344.582 88.5439L345.296 90.4121C346.717 89.8686 347.938 89.1256 348.936 88.1706L347.554 86.7254ZM344.606 88.535C343.353 88.9774 342.02 89.3111 340.607 89.5342L340.919 91.5098C342.444 91.2689 343.896 90.9066 345.272 90.421L344.606 88.535ZM340.607 89.5342C339.181 89.7593 337.736 89.8908 336.271 89.9283L336.323 91.9277C337.874 91.8879 339.406 91.7487 340.919 91.5098L340.607 89.5342ZM336.244 89.9294C334.789 90.006 333.473 90.044 332.295 90.044V92.044C333.515 92.044 334.866 92.0047 336.35 91.9266L336.244 89.9294ZM332.295 90.044C329.313 90.044 326.45 89.8911 323.705 89.5861L323.485 91.5739C326.308 91.8876 329.245 92.044 332.295 92.044V90.044ZM323.705 89.5861C320.956 89.2806 318.305 88.8418 315.751 88.2702L315.314 90.2218C317.943 90.8102 320.666 91.2607 323.485 91.5739L323.705 89.5861Z" fill="#CEB7FF"/>
</g>
<g filter="url(#filter3_d_21_3746)">
<path d="M4.5 4.5H305.5V19.5H4.5V4.5Z" stroke="#CEB7FF" shape-rendering="crispEdges"/>
</g>
<g filter="url(#filter4_d_21_3746)">
<path d="M4.5 4.5H305.5V19.5H4.5V4.5Z" stroke="#CEB7FF" shape-rendering="crispEdges"/>
</g>
<g filter="url(#filter5_d_21_3746)">
<path d="M4.5 4.5H305.5V19.5H4.5V4.5Z" stroke="#CEB7FF" shape-rendering="crispEdges"/>
</g>
<g filter="url(#filter6_d_21_3746)">
<path d="M4.5 112.5H305.5V127.5H4.5V112.5Z" stroke="#CEB7FF" shape-rendering="crispEdges"/>
</g>
<g filter="url(#filter7_d_21_3746)">
<path d="M4.5 112.5H305.5V127.5H4.5V112.5Z" stroke="#CEB7FF" shape-rendering="crispEdges"/>
</g>
<g filter="url(#filter8_d_21_3746)">
<path d="M4.5 112.5H305.5V127.5H4.5V112.5Z" stroke="#CEB7FF" shape-rendering="crispEdges"/>
</g>
<defs>
<filter id="filter0_d_21_3746" x="1.49356" y="40.456" width="355.695" height="55.588" filterUnits="userSpaceOnUse" color-interpolation-filters="sRGB">
<feFlood flood-opacity="0" result="BackgroundImageFix"/>
<feColorMatrix in="SourceAlpha" type="matrix" values="0 0 0 0 0 0 0 0 0 0 0 0 0 0 0 0 0 0 127 0" result="hardAlpha"/>
<feOffset/>
<feGaussianBlur stdDeviation="2.5"/>
<feComposite in2="hardAlpha" operator="out"/>
<feColorMatrix type="matrix" values="0 0 0 0 0.701961 0 0 0 0 0.466667 0 0 0 0 1 0 0 0 1 0"/>
<feBlend mode="normal" in2="BackgroundImageFix" result="effect1_dropShadow_21_3746"/>
<feBlend mode="normal" in="SourceGraphic" in2="effect1_dropShadow_21_3746" result="shape"/>
</filter>
<filter id="filter1_d_21_3746" x="1.49356" y="40.456" width="355.695" height="55.588" filterUnits="userSpaceOnUse" color-interpolation-filters="sRGB">
<feFlood flood-opacity="0" result="BackgroundImageFix"/>
<feColorMatrix in="SourceAlpha" type="matrix" values="0 0 0 0 0 0 0 0 0 0 0 0 0 0 0 0 0 0 127 0" result="hardAlpha"/>
<feOffset/>
<feGaussianBlur stdDeviation="2.5"/>
<feComposite in2="hardAlpha" operator="out"/>
<feColorMatrix type="matrix" values="0 0 0 0 0.701961 0 0 0 0 0.466667 0 0 0 0 1 0 0 0 1 0"/>
<feBlend mode="normal" in2="BackgroundImageFix" result="effect1_dropShadow_21_3746"/>
<feBlend mode="normal" in="SourceGraphic" in2="effect1_dropShadow_21_3746" result="shape"/>
</filter>
<filter id="filter2_d_21_3746" x="1.49356" y="40.456" width="355.695" height="55.588" filterUnits="userSpaceOnUse" color-interpolation-filters="sRGB">
<feFlood flood-opacity="0" result="BackgroundImageFix"/>
<feColorMatrix in="SourceAlpha" type="matrix" values="0 0 0 0 0 0 0 0 0 0 0 0 0 0 0 0 0 0 127 0" result="hardAlpha"/>
<feOffset/>
<feGaussianBlur stdDeviation="2.5"/>
<feComposite in2="hardAlpha" operator="out"/>
<feColorMatrix type="matrix" values="0 0 0 0 0.701961 0 0 0 0 0.466667 0 0 0 0 1 0 0 0 1 0"/>
<feBlend mode="normal" in2="BackgroundImageFix" result="effect1_dropShadow_21_3746"/>
<feBlend mode="normal" in="SourceGraphic" in2="effect1_dropShadow_21_3746" result="shape"/>
</filter>
<filter id="filter3_d_21_3746" x="0" y="0" width="310" height="24" filterUnits="userSpaceOnUse" color-interpolation-filters="sRGB">
<feFlood flood-opacity="0" result="BackgroundImageFix"/>
<feColorMatrix in="SourceAlpha" type="matrix" values="0 0 0 0 0 0 0 0 0 0 0 0 0 0 0 0 0 0 127 0" result="hardAlpha"/>
<feOffset/>
<feGaussianBlur stdDeviation="2"/>
<feComposite in2="hardAlpha" operator="out"/>
<feColorMatrix type="matrix" values="0 0 0 0 0.807843 0 0 0 0 0.717647 0 0 0 0 1 0 0 0 1 0"/>
<feBlend mode="normal" in2="BackgroundImageFix" result="effect1_dropShadow_21_3746"/>
<feBlend mode="normal" in="SourceGraphic" in2="effect1_dropShadow_21_3746" result="shape"/>
</filter>
<filter id="filter4_d_21_3746" x="0" y="0" width="310" height="24" filterUnits="userSpaceOnUse" color-interpolation-filters="sRGB">
<feFlood flood-opacity="0" result="BackgroundImageFix"/>
<feColorMatrix in="SourceAlpha" type="matrix" values="0 0 0 0 0 0 0 0 0 0 0 0 0 0 0 0 0 0 127 0" result="hardAlpha"/>
<feOffset/>
<feGaussianBlur stdDeviation="2"/>
<feComposite in2="hardAlpha" operator="out"/>
<feColorMatrix type="matrix" values="0 0 0 0 0.807843 0 0 0 0 0.717647 0 0 0 0 1 0 0 0 1 0"/>
<feBlend mode="normal" in2="BackgroundImageFix" result="effect1_dropShadow_21_3746"/>
<feBlend mode="normal" in="SourceGraphic" in2="effect1_dropShadow_21_3746" result="shape"/>
</filter>
<filter id="filter5_d_21_3746" x="0" y="0" width="310" height="24" filterUnits="userSpaceOnUse" color-interpolation-filters="sRGB">
<feFlood flood-opacity="0" result="BackgroundImageFix"/>
<feColorMatrix in="SourceAlpha" type="matrix" values="0 0 0 0 0 0 0 0 0 0 0 0 0 0 0 0 0 0 127 0" result="hardAlpha"/>
<feOffset/>
<feGaussianBlur stdDeviation="2"/>
<feComposite in2="hardAlpha" operator="out"/>
<feColorMatrix type="matrix" values="0 0 0 0 0.807843 0 0 0 0 0.717647 0 0 0 0 1 0 0 0 1 0"/>
<feBlend mode="normal" in2="BackgroundImageFix" result="effect1_dropShadow_21_3746"/>
<feBlend mode="normal" in="SourceGraphic" in2="effect1_dropShadow_21_3746" result="shape"/>
</filter>
<filter id="filter6_d_21_3746" x="0" y="108" width="310" height="24" filterUnits="userSpaceOnUse" color-interpolation-filters="sRGB">
<feFlood flood-opacity="0" result="BackgroundImageFix"/>
<feColorMatrix in="SourceAlpha" type="matrix" values="0 0 0 0 0 0 0 0 0 0 0 0 0 0 0 0 0 0 127 0" result="hardAlpha"/>
<feOffset/>
<feGaussianBlur stdDeviation="2"/>
<feComposite in2="hardAlpha" operator="out"/>
<feColorMatrix type="matrix" values="0 0 0 0 0.807843 0 0 0 0 0.717647 0 0 0 0 1 0 0 0 1 0"/>
<feBlend mode="normal" in2="BackgroundImageFix" result="effect1_dropShadow_21_3746"/>
<feBlend mode="normal" in="SourceGraphic" in2="effect1_dropShadow_21_3746" result="shape"/>
</filter>
<filter id="filter7_d_21_3746" x="0" y="108" width="310" height="24" filterUnits="userSpaceOnUse" color-interpolation-filters="sRGB">
<feFlood flood-opacity="0" result="BackgroundImageFix"/>
<feColorMatrix in="SourceAlpha" type="matrix" values="0 0 0 0 0 0 0 0 0 0 0 0 0 0 0 0 0 0 127 0" result="hardAlpha"/>
<feOffset/>
<feGaussianBlur stdDeviation="2"/>
<feComposite in2="hardAlpha" operator="out"/>
<feColorMatrix type="matrix" values="0 0 0 0 0.807843 0 0 0 0 0.717647 0 0 0 0 1 0 0 0 1 0"/>
<feBlend mode="normal" in2="BackgroundImageFix" result="effect1_dropShadow_21_3746"/>
<feBlend mode="normal" in="SourceGraphic" in2="effect1_dropShadow_21_3746" result="shape"/>
</filter>
<filter id="filter8_d_21_3746" x="0" y="108" width="310" height="24" filterUnits="userSpaceOnUse" color-interpolation-filters="sRGB">
<feFlood flood-opacity="0" result="BackgroundImageFix"/>
<feColorMatrix in="SourceAlpha" type="matrix" values="0 0 0 0 0 0 0 0 0 0 0 0 0 0 0 0 0 0 127 0" result="hardAlpha"/>
<feOffset/>
<feGaussianBlur stdDeviation="2"/>
<feComposite in2="hardAlpha" operator="out"/>
<feColorMatrix type="matrix" values="0 0 0 0 0.807843 0 0 0 0 0.717647 0 0 0 0 1 0 0 0 1 0"/>
<feBlend mode="normal" in2="BackgroundImageFix" result="effect1_dropShadow_21_3746"/>
<feBlend mode="normal" in="SourceGraphic" in2="effect1_dropShadow_21_3746" result="shape"/>
</filter>
</defs>
</svg>
