<svg width="362" height="132" viewBox="0 0 362 132" fill="none" xmlns="http://www.w3.org/2000/svg">
<g filter="url(#filter0_d_182_43)">
<path d="M34.6016 79.56L35.5978 79.4736L35.4832 78.1511L34.2436 78.6263L34.6016 79.56ZM35.4716 89.594L35.8455 90.5214L36.5317 90.2447L36.4678 89.5076L35.4716 89.594ZM12.0396 86.52L11.3143 87.2085L11.3187 87.2131L12.0396 86.52ZM12.0396 58.738L12.7604 59.4311L12.7648 59.4265L12.0396 58.738ZM35.4716 55.606L36.4561 55.7812L36.5911 55.0223L35.8917 54.6985L35.4716 55.606ZM33.7896 65.06L33.6053 66.0429L34.5973 66.2289L34.7741 65.2352L33.7896 65.06ZM30.4836 64.538L30.3256 65.5254L30.3449 65.5285L30.3644 65.5309L30.4836 64.538ZM22.6536 80.488H21.6536V81.327L22.4798 81.4728L22.6536 80.488ZM24.9156 80.778L24.825 81.7739L24.8289 81.7742L24.9156 80.778ZM33.6053 79.6464L34.4753 89.6804L36.4678 89.5076L35.5978 79.4736L33.6053 79.6464ZM35.0976 88.6666C32.8619 89.5681 29.8894 90.044 26.1336 90.044V92.044C30.0337 92.044 33.2866 91.5533 35.8455 90.5214L35.0976 88.6666ZM26.1336 90.044C19.7622 90.044 15.3896 88.5613 12.7604 85.8269L11.3187 87.2131C14.4895 90.5107 19.5129 92.044 26.1336 92.044V90.044ZM12.7648 85.8315C10.1098 83.0349 8.68956 78.6899 8.68956 72.6H6.68956C6.68956 78.9608 8.16936 83.8958 11.3143 87.2085L12.7648 85.8315ZM8.68956 72.6C8.68956 66.5088 10.1103 62.1872 12.7604 59.4311L11.3187 58.0449C8.16884 61.3208 6.68956 66.2405 6.68956 72.6H8.68956ZM12.7648 59.4265C15.3945 56.6565 19.7653 55.156 26.1336 55.156V53.156C19.5098 53.156 14.4846 54.7102 11.3143 58.0495L12.7648 59.4265ZM26.1336 55.156C30.2236 55.156 33.1617 55.6386 35.0514 56.5135L35.8917 54.6985C33.6054 53.6401 30.3182 53.156 26.1336 53.156V55.156ZM34.487 55.4308L32.805 64.8848L34.7741 65.2352L36.4561 55.7812L34.487 55.4308ZM33.9739 64.0771C32.7208 63.8422 31.5964 63.6644 30.6027 63.5451L30.3644 65.5309C31.304 65.6436 32.3837 65.8138 33.6053 66.0429L33.9739 64.0771ZM30.6416 63.5506C29.6387 63.3901 28.7332 63.306 27.9316 63.306V65.306C28.5992 65.306 29.3951 65.3766 30.3256 65.5254L30.6416 63.5506ZM27.9316 63.306C26.0856 63.306 24.5225 63.625 23.3978 64.416C22.2088 65.2523 21.6536 66.5116 21.6536 68.018H23.6536C23.6536 67.0497 23.978 66.4531 24.5483 66.052C25.183 65.6056 26.2589 65.306 27.9316 65.306V63.306ZM21.6536 68.018V80.488H23.6536V68.018H21.6536ZM22.4798 81.4728C23.1711 81.5948 23.9537 81.6947 24.825 81.7739L25.0061 79.7821C24.1761 79.7066 23.4507 79.6132 22.8273 79.5032L22.4798 81.4728ZM24.8289 81.7742C25.7524 81.8545 26.7678 81.894 27.8736 81.894V79.894C26.814 79.894 25.8574 79.8561 25.0022 79.7818L24.8289 81.7742ZM27.8736 81.894C30.1779 81.894 32.5419 81.4205 34.9595 80.4937L34.2436 78.6263C32.0212 79.4782 29.8999 79.894 27.8736 79.894V81.894ZM43.9849 58.738L44.7057 59.4311L44.7101 59.4265L43.9849 58.738ZM72.1729 58.738L71.4476 59.4265L71.452 59.4311L72.1729 58.738ZM72.1729 86.52L72.8937 87.2131L72.8981 87.2085L72.1729 86.52ZM44.1009 86.578L43.3938 87.2851L44.1009 86.578ZM54.5989 80.894H53.5989V81.894H54.5989V80.894ZM60.3989 80.372L59.9885 79.4601L59.9796 79.4641L59.9708 79.4683L60.3989 80.372ZM61.5589 64.306H62.5589V63.306H61.5589V64.306ZM55.7009 64.828L55.2905 63.9161L55.2816 63.9201L55.2728 63.9243L55.7009 64.828ZM40.6349 72.6C40.6349 66.5088 42.0556 62.1872 44.7057 59.4311L43.264 58.0449C40.1142 61.3208 38.6349 66.2405 38.6349 72.6H40.6349ZM44.7101 59.4265C47.3398 56.6565 51.7106 55.156 58.0789 55.156V53.156C51.4551 53.156 46.4299 54.7102 43.2596 58.0495L44.7101 59.4265ZM58.0789 55.156C64.4471 55.156 68.8179 56.6565 71.4476 59.4265L72.8981 58.0495C69.7278 54.7102 64.7026 53.156 58.0789 53.156V55.156ZM71.452 59.4311C74.1022 62.1872 75.5229 66.5088 75.5229 72.6H77.5229C77.5229 66.2405 76.0436 61.3208 72.8937 58.0449L71.452 59.4311ZM75.5229 72.6C75.5229 78.6899 74.1027 83.0349 71.4476 85.8315L72.8981 87.2085C76.0431 83.8958 77.5229 78.9608 77.5229 72.6H75.5229ZM71.452 85.8269C68.8228 88.5613 64.4502 90.044 58.0789 90.044V92.044C64.6995 92.044 69.7229 90.5107 72.8937 87.2131L71.452 85.8269ZM58.0789 90.044C51.8703 90.044 47.5213 88.5842 44.808 85.8709L43.3938 87.2851C46.6351 90.5265 51.6047 92.044 58.0789 92.044V90.044ZM44.808 85.8709C42.0947 83.1576 40.6349 78.8085 40.6349 72.6H38.6349C38.6349 79.0741 40.1524 84.0438 43.3938 87.2851L44.808 85.8709ZM53.5989 67.264V80.894H55.5989V67.264H53.5989ZM54.5989 81.894H56.7449V79.894H54.5989V81.894ZM56.7449 81.894C58.4669 81.894 59.8779 81.7253 60.827 81.2757L59.9708 79.4683C59.4505 79.7147 58.4255 79.894 56.7449 79.894V81.894ZM60.8092 81.2839C62.1097 80.6987 62.5589 79.3798 62.5589 77.936H60.5589C60.5589 79.0442 60.2347 79.3493 59.9885 79.4601L60.8092 81.2839ZM62.5589 77.936V64.306H60.5589V77.936H62.5589ZM61.5589 63.306H59.4129V65.306H61.5589V63.306ZM59.4129 63.306C57.6841 63.306 56.2671 63.4766 55.2905 63.9161L56.1112 65.7399C56.6813 65.4834 57.739 65.306 59.4129 65.306V63.306ZM55.2728 63.9243C54.0126 64.5212 53.5989 65.8449 53.5989 67.264H55.5989C55.5989 66.1311 55.9198 65.8308 56.129 65.7317L55.2728 63.9243ZM82.0913 55.2V54.2H81.0913V55.2H82.0913ZM89.0513 55.2L89.7584 54.4929L89.4655 54.2H89.0513V55.2ZM92.5313 58.68L91.8242 59.3871L92.4186 59.9814L93.1063 59.4982L92.5313 58.68ZM114.107 56.302L113.489 57.0877L113.498 57.095L113.507 57.102L114.107 56.302ZM116.891 90V91H117.891V90H116.891ZM102.971 90H101.971V91H102.971V90ZM102.971 65.64H103.971V64.64H102.971V65.64ZM97.2293 66.162L97.5853 67.0965L97.6044 67.0892L97.6232 67.0811L97.2293 66.162ZM96.0113 90V91H97.0113V90H96.0113ZM82.0913 90H81.0913V91H82.0913V90ZM82.0913 56.2H89.0513V54.2H82.0913V56.2ZM88.3442 55.9071L91.8242 59.3871L93.2384 57.9729L89.7584 54.4929L88.3442 55.9071ZM93.1063 59.4982C97.2391 56.594 101.68 55.156 106.451 55.156V53.156C101.247 53.156 96.4075 54.734 91.9564 57.8618L93.1063 59.4982ZM106.451 55.156C109.606 55.156 111.909 55.8438 113.489 57.0877L114.726 55.5163C112.671 53.8989 109.87 53.156 106.451 53.156V55.156ZM113.507 57.102C115.088 58.2876 115.891 59.931 115.891 62.16H117.891C117.891 59.3623 116.839 57.1004 114.707 55.502L113.507 57.102ZM115.891 62.16V90H117.891V62.16H115.891ZM116.891 89H102.971V91H116.891V89ZM103.971 90V65.64H101.971V90H103.971ZM102.971 64.64H100.825V66.64H102.971V64.64ZM100.825 64.64C99.1951 64.64 97.8344 64.8147 96.8354 65.2429L97.6232 67.0811C98.2482 66.8133 99.2849 66.64 100.825 66.64V64.64ZM96.8733 65.2275C96.2633 65.4599 95.7707 65.865 95.4461 66.4369C95.1322 66.9899 95.0113 67.6345 95.0113 68.308H97.0113C97.0113 67.8602 97.0934 67.5864 97.1855 67.4241C97.2669 67.2806 97.3834 67.1734 97.5853 67.0965L96.8733 65.2275ZM95.0113 68.308V90H97.0113V68.308H95.0113ZM96.0113 89H82.0913V91H96.0113V89ZM83.0913 90V55.2H81.0913V90H83.0913ZM124.888 64.19H125.888V63.19H124.888V64.19ZM121.408 64.19H120.408V65.19H121.408V64.19ZM121.408 55.2V54.2H120.408V55.2H121.408ZM124.888 55.2V56.2H125.888V55.2H124.888ZM124.888 49.632L124.645 48.6619L123.888 48.8512V49.632H124.888ZM138.808 46.152H139.808V44.8712L138.565 45.1819L138.808 46.152ZM138.808 55.2H137.808V56.2H138.808V55.2ZM143.622 55.2H144.622V54.2H143.622V55.2ZM143.622 64.19V65.19H144.622V64.19H143.622ZM138.808 64.19V63.19H137.808V64.19H138.808ZM138.808 80.024H137.808V80.8438L138.612 81.0046L138.808 80.024ZM140.722 80.372L140.557 81.3584L140.584 81.3629L140.611 81.3659L140.722 80.372ZM142.926 80.546L143.924 80.6084L143.987 79.5978L142.976 79.5472L142.926 80.546ZM142.288 90.754V91.754H143.227L143.286 90.8164L142.288 90.754ZM129.876 89.71L130.214 88.7691L130.212 88.7683L129.876 89.71ZM126.164 87.506L125.426 88.1817L125.434 88.1896L125.441 88.1972L126.164 87.506ZM124.888 63.19H121.408V65.19H124.888V63.19ZM122.408 64.19V55.2H120.408V64.19H122.408ZM121.408 56.2H124.888V54.2H121.408V56.2ZM125.888 55.2V49.632H123.888V55.2H125.888ZM125.13 50.6021L139.05 47.1221L138.565 45.1819L124.645 48.6619L125.13 50.6021ZM137.808 46.152V55.2H139.808V46.152H137.808ZM138.808 56.2H143.622V54.2H138.808V56.2ZM142.622 55.2V64.19H144.622V55.2H142.622ZM143.622 63.19H138.808V65.19H143.622V63.19ZM137.808 64.19V80.024H139.808V64.19H137.808ZM138.612 81.0046C139.204 81.123 139.853 81.241 140.557 81.3584L140.886 79.3856C140.199 79.271 139.571 79.157 139.004 79.0434L138.612 81.0046ZM140.611 81.3659C141.329 81.4457 142.084 81.5052 142.876 81.5448L142.976 79.5472C142.22 79.5095 141.506 79.453 140.832 79.3781L140.611 81.3659ZM141.928 80.4836L141.29 90.6916L143.286 90.8164L143.924 80.6084L141.928 80.4836ZM142.288 89.754C139.132 89.754 136.543 89.6673 134.512 89.4965C132.461 89.324 131.052 89.0707 130.214 88.7691L129.537 90.6509C130.632 91.0453 132.259 91.314 134.345 91.4895C136.452 91.6667 139.102 91.754 142.288 91.754V89.754ZM130.212 88.7683C128.679 88.2209 127.595 87.5559 126.886 86.8148L125.441 88.1972C126.433 89.2348 127.824 90.0391 129.539 90.6517L130.212 88.7683ZM126.901 86.8303C126.278 86.1508 125.888 85.0776 125.888 83.446H123.888C123.888 85.3717 124.348 87.0052 125.426 88.1817L126.901 86.8303ZM125.888 83.446V64.19H123.888V83.446H125.888ZM181.99 90V91H182.99V90H181.99ZM175.03 90L174.323 90.7071L174.616 91H175.03V90ZM171.086 86.056L171.793 85.3489L171.048 84.6036L170.343 85.387L171.086 86.056ZM168.592 88.144L168.053 87.3017L168.045 87.3068L168.037 87.3119L168.592 88.144ZM162.27 90.696L162.473 91.6753L162.473 91.6753L162.27 90.696ZM153.686 90.406L153.945 89.4402L153.937 89.4379L153.929 89.4359L153.686 90.406ZM149.742 88.492L150.377 87.7193L150.377 87.7193L149.742 88.492ZM147.248 84.954L148.178 84.5868L148.178 84.5868L147.248 84.954ZM168.07 67.032V68.032H169.07V67.032H168.07ZM168.07 64.538H169.07V63.5892L168.123 63.5394L168.07 64.538ZM166.04 64.422L165.973 65.4198L165.978 65.4201L166.04 64.422ZM150.902 66.278L149.916 66.4443L150.111 67.5996L151.221 67.2257L150.902 66.278ZM149.22 56.302L148.925 55.3464L148.088 55.6045L148.234 56.4683L149.22 56.302ZM160.414 80.894H159.414V81.894H160.414V80.894ZM167.258 80.198L167.858 80.998L167.9 80.9665L167.938 80.9308L167.258 80.198ZM168.07 75.094H169.07V74.094H168.07V75.094ZM161.574 75.616L161.164 74.7041L161.164 74.7041L161.574 75.616ZM165.286 55.156C170.77 55.156 174.707 56.1043 177.247 57.851C179.721 59.5514 180.99 62.0903 180.99 65.64H182.99C182.99 61.5337 181.475 58.3306 178.381 56.203C175.353 54.1217 170.938 53.156 165.286 53.156V55.156ZM180.99 65.64V90H182.99V65.64H180.99ZM181.99 89H175.03V91H181.99V89ZM175.737 89.2929L171.793 85.3489L170.379 86.7631L174.323 90.7071L175.737 89.2929ZM170.343 85.387C169.713 86.0872 168.952 86.7265 168.053 87.3017L169.131 88.9863C170.166 88.3242 171.067 87.5714 171.829 86.725L170.343 85.387ZM168.037 87.3119C167.171 87.8894 166.229 88.3789 165.21 88.7792L165.942 90.6408C167.088 90.1905 168.157 89.6359 169.147 88.9761L168.037 87.3119ZM165.21 88.7792C164.18 89.1841 163.132 89.4964 162.067 89.7167L162.473 91.6753C163.65 91.4316 164.807 91.0865 165.942 90.6408L165.21 88.7792ZM162.067 89.7167C161.006 89.9363 159.992 90.044 159.022 90.044V92.044C160.14 92.044 161.291 91.9197 162.473 91.6753L162.067 89.7167ZM159.022 90.044C157.121 90.044 155.431 89.8388 153.945 89.4402L153.427 91.3718C155.112 91.8239 156.979 92.044 159.022 92.044V90.044ZM153.929 89.4359C152.506 89.0802 151.33 88.5024 150.377 87.7193L149.107 89.2647C150.319 90.2603 151.773 90.9585 153.443 91.3761L153.929 89.4359ZM150.377 87.7193C149.441 86.951 148.704 85.9186 148.178 84.5868L146.318 85.3212C146.952 86.9281 147.877 88.2543 149.107 89.2647L150.377 87.7193ZM148.178 84.5868C147.657 83.2672 147.378 81.6019 147.378 79.56H145.378C145.378 81.7715 145.679 83.7021 146.318 85.3212L148.178 84.5868ZM147.378 79.56C147.378 75.6779 148.818 72.8786 151.657 70.9976C154.569 69.0687 159.062 68.032 165.286 68.032V66.032C158.905 66.032 153.944 67.0833 150.553 69.3304C147.089 71.6254 145.378 75.0901 145.378 79.56H147.378ZM165.286 68.032H168.07V66.032H165.286V68.032ZM169.07 67.032V64.538H167.07V67.032H169.07ZM168.123 63.5394C167.391 63.5009 166.717 63.4624 166.102 63.4239L165.978 65.4201C166.6 65.459 167.28 65.4978 168.017 65.5366L168.123 63.5394ZM166.107 63.4242C165.508 63.3843 164.944 63.364 164.416 63.364V65.364C164.893 65.364 165.412 65.3824 165.973 65.4198L166.107 63.4242ZM164.416 63.364C159.119 63.364 154.501 64.0109 150.583 65.3303L151.221 67.2257C154.882 65.9931 159.273 65.364 164.416 65.364V63.364ZM151.888 66.1117L150.206 56.1357L148.234 56.4683L149.916 66.4443L151.888 66.1117ZM149.515 57.2576C154.039 55.8627 159.291 55.156 165.286 55.156V53.156C159.139 53.156 153.681 53.88 148.925 55.3464L149.515 57.2576ZM159.414 78.052V80.894H161.414V78.052H159.414ZM160.414 81.894H163.314V79.894H160.414V81.894ZM163.314 81.894C164.352 81.894 165.246 81.8346 165.982 81.7048C166.697 81.5786 167.363 81.3695 167.858 80.998L166.658 79.398C166.535 79.4905 166.234 79.6294 165.634 79.7352C165.055 79.8374 164.287 79.894 163.314 79.894V81.894ZM167.938 80.9308C168.669 80.252 169.07 79.3927 169.07 78.4H167.07C167.07 78.7993 166.929 79.1387 166.578 79.4652L167.938 80.9308ZM169.07 78.4V75.094H167.07V78.4H169.07ZM168.07 74.094H165.228V76.094H168.07V74.094ZM165.228 74.094C163.534 74.094 162.138 74.2654 161.164 74.7041L161.984 76.5279C162.556 76.2706 163.597 76.094 165.228 76.094V74.094ZM161.164 74.7041C159.863 75.2893 159.414 76.6082 159.414 78.052H161.414C161.414 76.9438 161.738 76.6387 161.984 76.5279L161.164 74.7041ZM213.756 79.56L214.752 79.4736L214.637 78.1511L213.398 78.6263L213.756 79.56ZM214.626 89.594L215 90.5214L215.686 90.2447L215.622 89.5076L214.626 89.594ZM191.194 86.52L190.469 87.2085L190.473 87.2131L191.194 86.52ZM191.194 58.738L191.915 59.4311L191.919 59.4265L191.194 58.738ZM214.626 55.606L215.61 55.7812L215.745 55.0223L215.046 54.6985L214.626 55.606ZM212.944 65.06L212.76 66.0429L213.752 66.2289L213.928 65.2352L212.944 65.06ZM209.638 64.538L209.48 65.5254L209.499 65.5285L209.519 65.5309L209.638 64.538ZM201.808 80.488H200.808V81.327L201.634 81.4728L201.808 80.488ZM204.07 80.778L203.979 81.7739L203.983 81.7742L204.07 80.778ZM212.76 79.6464L213.63 89.6804L215.622 89.5076L214.752 79.4736L212.76 79.6464ZM214.252 88.6666C212.016 89.5681 209.044 90.044 205.288 90.044V92.044C209.188 92.044 212.441 91.5533 215 90.5214L214.252 88.6666ZM205.288 90.044C198.917 90.044 194.544 88.5613 191.915 85.8269L190.473 87.2131C193.644 90.5107 198.667 92.044 205.288 92.044V90.044ZM191.919 85.8315C189.264 83.0349 187.844 78.6899 187.844 72.6H185.844C185.844 78.9608 187.324 83.8958 190.469 87.2085L191.919 85.8315ZM187.844 72.6C187.844 66.5088 189.265 62.1872 191.915 59.4311L190.473 58.0449C187.323 61.3208 185.844 66.2405 185.844 72.6H187.844ZM191.919 59.4265C194.549 56.6565 198.92 55.156 205.288 55.156V53.156C198.664 53.156 193.639 54.7102 190.469 58.0495L191.919 59.4265ZM205.288 55.156C209.378 55.156 212.316 55.6386 214.206 56.5135L215.046 54.6985C212.76 53.6401 209.472 53.156 205.288 53.156V55.156ZM213.641 55.4308L211.959 64.8848L213.928 65.2352L215.61 55.7812L213.641 55.4308ZM213.128 64.0771C211.875 63.8422 210.751 63.6644 209.757 63.5451L209.519 65.5309C210.458 65.6436 211.538 65.8138 212.76 66.0429L213.128 64.0771ZM209.796 63.5506C208.793 63.3901 207.888 63.306 207.086 63.306V65.306C207.754 65.306 208.549 65.3766 209.48 65.5254L209.796 63.5506ZM207.086 63.306C205.24 63.306 203.677 63.625 202.552 64.416C201.363 65.2523 200.808 66.5116 200.808 68.018H202.808C202.808 67.0497 203.132 66.4531 203.703 66.052C204.337 65.6056 205.413 65.306 207.086 65.306V63.306ZM200.808 68.018V80.488H202.808V68.018H200.808ZM201.634 81.4728C202.325 81.5948 203.108 81.6947 203.979 81.7739L204.16 79.7821C203.33 79.7066 202.605 79.6132 201.982 79.5032L201.634 81.4728ZM203.983 81.7742C204.907 81.8545 205.922 81.894 207.028 81.894V79.894C205.968 79.894 205.012 79.8561 204.156 79.7818L203.983 81.7742ZM207.028 81.894C209.332 81.894 211.696 81.4205 214.114 80.4937L213.398 78.6263C211.176 79.4782 209.054 79.894 207.028 79.894V81.894ZM221.573 64.19H222.573V63.19H221.573V64.19ZM218.093 64.19H217.093V65.19H218.093V64.19ZM218.093 55.2V54.2H217.093V55.2H218.093ZM221.573 55.2V56.2H222.573V55.2H221.573ZM221.573 49.632L221.331 48.6619L220.573 48.8512V49.632H221.573ZM235.493 46.152H236.493V44.8712L235.251 45.1819L235.493 46.152ZM235.493 55.2H234.493V56.2H235.493V55.2ZM240.307 55.2H241.307V54.2H240.307V55.2ZM240.307 64.19V65.19H241.307V64.19H240.307ZM235.493 64.19V63.19H234.493V64.19H235.493ZM235.493 80.024H234.493V80.8438L235.297 81.0046L235.493 80.024ZM237.407 80.372L237.243 81.3584L237.27 81.3629L237.297 81.3659L237.407 80.372ZM239.611 80.546L240.609 80.6084L240.672 79.5978L239.661 79.5472L239.611 80.546ZM238.973 90.754V91.754H239.913L239.971 90.8164L238.973 90.754ZM226.561 89.71L226.9 88.7691L226.898 88.7683L226.561 89.71ZM222.849 87.506L222.112 88.1817L222.119 88.1896L222.127 88.1972L222.849 87.506ZM221.573 63.19H218.093V65.19H221.573V63.19ZM219.093 64.19V55.2H217.093V64.19H219.093ZM218.093 56.2H221.573V54.2H218.093V56.2ZM222.573 55.2V49.632H220.573V55.2H222.573ZM221.816 50.6021L235.736 47.1221L235.251 45.1819L221.331 48.6619L221.816 50.6021ZM234.493 46.152V55.2H236.493V46.152H234.493ZM235.493 56.2H240.307V54.2H235.493V56.2ZM239.307 55.2V64.19H241.307V55.2H239.307ZM240.307 63.19H235.493V65.19H240.307V63.19ZM234.493 64.19V80.024H236.493V64.19H234.493ZM235.297 81.0046C235.889 81.123 236.538 81.241 237.243 81.3584L237.572 79.3856C236.884 79.271 236.257 79.157 235.689 79.0434L235.297 81.0046ZM237.297 81.3659C238.015 81.4457 238.77 81.5052 239.561 81.5448L239.661 79.5472C238.906 79.5095 238.192 79.453 237.518 79.3781L237.297 81.3659ZM238.613 80.4836L237.975 90.6916L239.971 90.8164L240.609 80.6084L238.613 80.4836ZM238.973 89.754C235.818 89.754 233.228 89.6673 231.198 89.4965C229.147 89.324 227.738 89.0707 226.9 88.7691L226.222 90.6509C227.318 91.0453 228.944 91.314 231.03 91.4895C233.137 91.6667 235.787 91.754 238.973 91.754V89.754ZM226.898 88.7683C225.365 88.2209 224.281 87.5559 223.572 86.8148L222.127 88.1972C223.119 89.2348 224.51 90.0391 226.225 90.6517L226.898 88.7683ZM223.586 86.8303C222.963 86.1508 222.573 85.0776 222.573 83.446H220.573C220.573 85.3717 221.034 87.0052 222.112 88.1817L223.586 86.8303ZM222.573 83.446V64.19H220.573V83.446H222.573ZM282.376 90H281.376V91H282.376V90ZM282.376 65.64H283.376V64.64H282.376V65.64ZM279.592 65.698L279.526 64.7002L279.521 64.7005L279.592 65.698ZM278.142 66.104L278.556 67.0144L278.589 66.9993L278.621 66.9819L278.142 66.104ZM277.156 67.032L278.034 67.5109L278.034 67.5109L277.156 67.032ZM276.808 90V91H277.808V90H276.808ZM262.888 90H261.888V91H262.888V90ZM262.888 55.2V54.2H261.888V55.2H262.888ZM269.848 55.2L270.562 54.4994L270.268 54.2H269.848V55.2ZM272.98 58.39L272.267 59.0906L272.974 59.8107L273.687 59.0971L272.98 58.39ZM294.092 56.998L293.42 57.7386L293.992 58.2577L294.639 57.8352L294.092 56.998ZM312.652 56.302L312.08 57.122L312.089 57.1281L312.098 57.134L312.652 56.302ZM315.784 90V91H316.784V90H315.784ZM301.864 90H300.864V91H301.864V90ZM301.864 65.64H302.864V64.64H301.864V65.64ZM299.254 65.698L299.183 64.7005L299.183 64.7005L299.254 65.698ZM297.804 66.046L298.176 66.9745L298.197 66.9659L298.218 66.9564L297.804 66.046ZM296.76 66.858L295.979 66.2333L295.959 66.2583L295.941 66.2845L296.76 66.858ZM296.296 68.424L295.298 68.3653L295.296 68.3946V68.424H296.296ZM296.296 90V91H297.296V90H296.296ZM283.376 90V65.64H281.376V90H283.376ZM282.376 64.64H281.39V66.64H282.376V64.64ZM281.39 64.64C280.751 64.64 280.129 64.66 279.526 64.7002L279.659 66.6958C280.215 66.6587 280.792 66.64 281.39 66.64V64.64ZM279.521 64.7005C278.854 64.7482 278.229 64.9177 277.663 65.2261L278.621 66.9819C278.906 66.8263 279.248 66.7252 279.663 66.6955L279.521 64.7005ZM277.728 65.1936C277.098 65.4802 276.61 65.945 276.278 66.5531L278.034 67.5109C278.166 67.2683 278.336 67.1145 278.556 67.0144L277.728 65.1936ZM276.278 66.5531C275.932 67.1879 275.808 67.979 275.808 68.83H277.808C277.808 68.1343 277.916 67.7268 278.034 67.5109L276.278 66.5531ZM275.808 68.83V90H277.808V68.83H275.808ZM276.808 89H262.888V91H276.808V89ZM263.888 90V55.2H261.888V90H263.888ZM262.888 56.2H269.848V54.2H262.888V56.2ZM269.135 55.9006L272.267 59.0906L273.694 57.6894L270.562 54.4994L269.135 55.9006ZM273.687 59.0971C276.294 56.4909 279.736 55.156 284.116 55.156V53.156C279.294 53.156 275.312 54.6438 272.273 57.6829L273.687 59.0971ZM284.116 55.156C288.575 55.156 291.601 56.0878 293.42 57.7386L294.764 56.2574C292.407 54.1189 288.782 53.156 284.116 53.156V55.156ZM294.639 57.8352C297.367 56.0533 300.461 55.156 303.952 55.156V53.156C300.097 53.156 296.618 54.1534 293.545 56.1608L294.639 57.8352ZM303.952 55.156C307.595 55.156 310.263 55.8537 312.08 57.122L313.225 55.482C310.943 53.8889 307.811 53.156 303.952 53.156V55.156ZM312.098 57.134C313.907 58.3402 314.784 59.9804 314.784 62.16H316.784C316.784 59.3129 315.574 57.0478 313.207 55.4699L312.098 57.134ZM314.784 62.16V90H316.784V62.16H314.784ZM315.784 89H301.864V91H315.784V89ZM302.864 90V65.64H300.864V90H302.864ZM301.864 64.64H300.878V66.64H301.864V64.64ZM300.878 64.64C300.313 64.64 299.748 64.6602 299.183 64.7005L299.325 66.6955C299.843 66.6585 300.361 66.64 300.878 66.64V64.64ZM299.183 64.7005C298.542 64.7463 297.94 64.8859 297.39 65.1356L298.218 66.9564C298.519 66.8194 298.884 66.727 299.325 66.6955L299.183 64.7005ZM297.433 65.1175C296.858 65.3475 296.376 65.7373 295.979 66.2333L297.541 67.4827C297.763 67.2054 297.977 67.0538 298.176 66.9745L297.433 65.1175ZM295.941 66.2845C295.53 66.8715 295.343 67.593 295.298 68.3653L297.294 68.4827C297.326 67.9404 297.449 67.6178 297.579 67.4315L295.941 66.2845ZM295.296 68.424V90H297.296V68.424H295.296ZM296.296 89H282.376V91H296.296V89ZM335.933 78.168V77.168H334.933V78.168H335.933ZM335.933 80.604H334.933V81.499L335.822 81.5979L335.933 80.604ZM353.217 78.748L354.204 78.5909L354.022 77.445L352.916 77.7944L353.217 78.748ZM354.841 88.956L355.099 89.9222L355.97 89.6898L355.828 88.7989L354.841 88.956ZM325.319 86.52L324.594 87.2085L324.598 87.2131L325.319 86.52ZM325.319 58.738L324.598 58.0447L324.598 58.0449L325.319 58.738ZM347.533 54.794L347.34 55.7752L347.349 55.7769L347.357 55.7784L347.533 54.794ZM352.753 56.824L352.16 57.6297L352.174 57.6394L352.187 57.6487L352.753 56.824ZM355.595 60.652L354.646 60.9682L354.651 60.982L354.656 60.9956L355.595 60.652ZM355.421 71.904L354.517 71.4759L354.512 71.4865L355.421 71.904ZM352.057 75.442L351.552 74.579L351.552 74.579L352.057 75.442ZM345.735 77.53L345.895 78.5172L345.902 78.516L345.909 78.5148L345.735 77.53ZM335.933 70.106H334.933V71.106H335.933V70.106ZM342.429 69.584L342.018 68.6721L342.01 68.6761L342.001 68.6803L342.429 69.584ZM343.589 64.306H344.589V63.306H343.589V64.306ZM337.035 64.828L336.624 63.9161L336.616 63.9201L336.607 63.9243L337.035 64.828ZM334.933 78.168V80.604H336.933V78.168H334.933ZM335.822 81.5979C336.537 81.6772 337.251 81.7368 337.965 81.7765L338.076 79.7795C337.399 79.7419 336.721 79.6854 336.043 79.6101L335.822 81.5979ZM337.965 81.7765C338.68 81.8162 339.394 81.836 340.109 81.836V79.836C339.431 79.836 338.754 79.8172 338.076 79.7795L337.965 81.7765ZM340.109 81.836C344.548 81.836 349.019 81.1223 353.518 79.7016L352.916 77.7944C348.599 79.1577 344.331 79.836 340.109 79.836V81.836ZM352.229 78.9051L353.853 89.1131L355.828 88.7989L354.204 78.5909L352.229 78.9051ZM354.583 87.9898C349.442 89.3608 344.386 90.044 339.413 90.044V92.044C344.571 92.044 349.8 91.3352 355.099 89.9222L354.583 87.9898ZM339.413 90.044C333.042 90.044 328.669 88.5613 326.04 85.8269L324.598 87.2131C327.769 90.5107 332.792 92.044 339.413 92.044V90.044ZM326.044 85.8315C323.389 83.0349 321.969 78.6899 321.969 72.6H319.969C319.969 78.9608 321.449 83.8958 324.594 87.2085L326.044 85.8315ZM321.969 72.6C321.969 66.5088 323.39 62.1872 326.04 59.4311L324.598 58.0449C321.448 61.3208 319.969 66.2405 319.969 72.6H321.969ZM326.04 59.4313C328.71 56.6549 333.087 55.156 339.413 55.156V53.156C332.824 53.156 327.805 54.7117 324.598 58.0447L326.04 59.4313ZM339.413 55.156C342.623 55.156 345.26 55.3667 347.34 55.7752L347.726 53.8127C345.475 53.3706 342.698 53.156 339.413 53.156V55.156ZM347.357 55.7784C349.422 56.1471 351.004 56.7796 352.16 57.6297L353.345 56.0183C351.872 54.9351 349.975 54.2142 347.709 53.8096L347.357 55.7784ZM352.187 57.6487C353.353 58.4479 354.171 59.5414 354.646 60.9682L356.544 60.3358C355.936 58.5146 354.86 57.0561 353.318 55.9993L352.187 57.6487ZM354.656 60.9956C355.182 62.4337 355.465 64.3178 355.465 66.684H357.465C357.465 64.1782 357.168 62.041 356.534 60.3084L354.656 60.9956ZM355.465 66.684C355.465 68.5808 355.137 70.1682 354.517 71.4759L356.325 72.3321C357.097 70.7011 357.465 68.8085 357.465 66.684H355.465ZM354.512 71.4865C353.954 72.7012 352.99 73.7368 351.552 74.579L352.562 76.305C354.294 75.2912 355.573 73.9681 356.33 72.3215L354.512 71.4865ZM351.552 74.579C350.104 75.4265 348.122 76.0933 345.561 76.5452L345.909 78.5148C348.607 78.0387 350.839 77.3135 352.562 76.305L351.552 74.579ZM345.575 76.5428C343.017 76.9567 339.807 77.168 335.933 77.168V79.168C339.869 79.168 343.194 78.954 345.895 78.5172L345.575 76.5428ZM334.933 67.264V70.106H336.933V67.264H334.933ZM335.933 71.106H338.775V69.106H335.933V71.106ZM338.775 71.106C340.497 71.106 341.908 70.9373 342.857 70.4877L342.001 68.6803C341.48 68.9267 340.455 69.106 338.775 69.106V71.106ZM342.839 70.4959C344.14 69.9107 344.589 68.5918 344.589 67.148H342.589C342.589 68.2562 342.265 68.5613 342.018 68.6721L342.839 70.4959ZM344.589 67.148V64.306H342.589V67.148H344.589ZM343.589 63.306H340.747V65.306H343.589V63.306ZM340.747 63.306C339.018 63.306 337.601 63.4766 336.624 63.9161L337.445 65.7399C338.015 65.4834 339.073 65.306 340.747 65.306V63.306ZM336.607 63.9243C335.347 64.5212 334.933 65.8449 334.933 67.264H336.933C336.933 66.1311 337.254 65.8308 337.463 65.7317L336.607 63.9243Z" fill="#CEB7FF"/>
</g>
<g filter="url(#filter1_d_182_43)">
<path d="M34.6016 79.56L35.5978 79.4736L35.4832 78.1511L34.2436 78.6263L34.6016 79.56ZM35.4716 89.594L35.8455 90.5214L36.5317 90.2447L36.4678 89.5076L35.4716 89.594ZM12.0396 86.52L11.3143 87.2085L11.3187 87.2131L12.0396 86.52ZM12.0396 58.738L12.7604 59.4311L12.7648 59.4265L12.0396 58.738ZM35.4716 55.606L36.4561 55.7812L36.5911 55.0223L35.8917 54.6985L35.4716 55.606ZM33.7896 65.06L33.6053 66.0429L34.5973 66.2289L34.7741 65.2352L33.7896 65.06ZM30.4836 64.538L30.3256 65.5254L30.3449 65.5285L30.3644 65.5309L30.4836 64.538ZM22.6536 80.488H21.6536V81.327L22.4798 81.4728L22.6536 80.488ZM24.9156 80.778L24.825 81.7739L24.8289 81.7742L24.9156 80.778ZM33.6053 79.6464L34.4753 89.6804L36.4678 89.5076L35.5978 79.4736L33.6053 79.6464ZM35.0976 88.6666C32.8619 89.5681 29.8894 90.044 26.1336 90.044V92.044C30.0337 92.044 33.2866 91.5533 35.8455 90.5214L35.0976 88.6666ZM26.1336 90.044C19.7622 90.044 15.3896 88.5613 12.7604 85.8269L11.3187 87.2131C14.4895 90.5107 19.5129 92.044 26.1336 92.044V90.044ZM12.7648 85.8315C10.1098 83.0349 8.68956 78.6899 8.68956 72.6H6.68956C6.68956 78.9608 8.16936 83.8958 11.3143 87.2085L12.7648 85.8315ZM8.68956 72.6C8.68956 66.5088 10.1103 62.1872 12.7604 59.4311L11.3187 58.0449C8.16884 61.3208 6.68956 66.2405 6.68956 72.6H8.68956ZM12.7648 59.4265C15.3945 56.6565 19.7653 55.156 26.1336 55.156V53.156C19.5098 53.156 14.4846 54.7102 11.3143 58.0495L12.7648 59.4265ZM26.1336 55.156C30.2236 55.156 33.1617 55.6386 35.0514 56.5135L35.8917 54.6985C33.6054 53.6401 30.3182 53.156 26.1336 53.156V55.156ZM34.487 55.4308L32.805 64.8848L34.7741 65.2352L36.4561 55.7812L34.487 55.4308ZM33.9739 64.0771C32.7208 63.8422 31.5964 63.6644 30.6027 63.5451L30.3644 65.5309C31.304 65.6436 32.3837 65.8138 33.6053 66.0429L33.9739 64.0771ZM30.6416 63.5506C29.6387 63.3901 28.7332 63.306 27.9316 63.306V65.306C28.5992 65.306 29.3951 65.3766 30.3256 65.5254L30.6416 63.5506ZM27.9316 63.306C26.0856 63.306 24.5225 63.625 23.3978 64.416C22.2088 65.2523 21.6536 66.5116 21.6536 68.018H23.6536C23.6536 67.0497 23.978 66.4531 24.5483 66.052C25.183 65.6056 26.2589 65.306 27.9316 65.306V63.306ZM21.6536 68.018V80.488H23.6536V68.018H21.6536ZM22.4798 81.4728C23.1711 81.5948 23.9537 81.6947 24.825 81.7739L25.0061 79.7821C24.1761 79.7066 23.4507 79.6132 22.8273 79.5032L22.4798 81.4728ZM24.8289 81.7742C25.7524 81.8545 26.7678 81.894 27.8736 81.894V79.894C26.814 79.894 25.8574 79.8561 25.0022 79.7818L24.8289 81.7742ZM27.8736 81.894C30.1779 81.894 32.5419 81.4205 34.9595 80.4937L34.2436 78.6263C32.0212 79.4782 29.8999 79.894 27.8736 79.894V81.894ZM43.9849 58.738L44.7057 59.4311L44.7101 59.4265L43.9849 58.738ZM72.1729 58.738L71.4476 59.4265L71.452 59.4311L72.1729 58.738ZM72.1729 86.52L72.8937 87.2131L72.8981 87.2085L72.1729 86.52ZM44.1009 86.578L43.3938 87.2851L44.1009 86.578ZM54.5989 80.894H53.5989V81.894H54.5989V80.894ZM60.3989 80.372L59.9885 79.4601L59.9796 79.4641L59.9708 79.4683L60.3989 80.372ZM61.5589 64.306H62.5589V63.306H61.5589V64.306ZM55.7009 64.828L55.2905 63.9161L55.2816 63.9201L55.2728 63.9243L55.7009 64.828ZM40.6349 72.6C40.6349 66.5088 42.0556 62.1872 44.7057 59.4311L43.264 58.0449C40.1142 61.3208 38.6349 66.2405 38.6349 72.6H40.6349ZM44.7101 59.4265C47.3398 56.6565 51.7106 55.156 58.0789 55.156V53.156C51.4551 53.156 46.4299 54.7102 43.2596 58.0495L44.7101 59.4265ZM58.0789 55.156C64.4471 55.156 68.8179 56.6565 71.4476 59.4265L72.8981 58.0495C69.7278 54.7102 64.7026 53.156 58.0789 53.156V55.156ZM71.452 59.4311C74.1022 62.1872 75.5229 66.5088 75.5229 72.6H77.5229C77.5229 66.2405 76.0436 61.3208 72.8937 58.0449L71.452 59.4311ZM75.5229 72.6C75.5229 78.6899 74.1027 83.0349 71.4476 85.8315L72.8981 87.2085C76.0431 83.8958 77.5229 78.9608 77.5229 72.6H75.5229ZM71.452 85.8269C68.8228 88.5613 64.4502 90.044 58.0789 90.044V92.044C64.6995 92.044 69.7229 90.5107 72.8937 87.2131L71.452 85.8269ZM58.0789 90.044C51.8703 90.044 47.5213 88.5842 44.808 85.8709L43.3938 87.2851C46.6351 90.5265 51.6047 92.044 58.0789 92.044V90.044ZM44.808 85.8709C42.0947 83.1576 40.6349 78.8085 40.6349 72.6H38.6349C38.6349 79.0741 40.1524 84.0438 43.3938 87.2851L44.808 85.8709ZM53.5989 67.264V80.894H55.5989V67.264H53.5989ZM54.5989 81.894H56.7449V79.894H54.5989V81.894ZM56.7449 81.894C58.4669 81.894 59.8779 81.7253 60.827 81.2757L59.9708 79.4683C59.4505 79.7147 58.4255 79.894 56.7449 79.894V81.894ZM60.8092 81.2839C62.1097 80.6987 62.5589 79.3798 62.5589 77.936H60.5589C60.5589 79.0442 60.2347 79.3493 59.9885 79.4601L60.8092 81.2839ZM62.5589 77.936V64.306H60.5589V77.936H62.5589ZM61.5589 63.306H59.4129V65.306H61.5589V63.306ZM59.4129 63.306C57.6841 63.306 56.2671 63.4766 55.2905 63.9161L56.1112 65.7399C56.6813 65.4834 57.739 65.306 59.4129 65.306V63.306ZM55.2728 63.9243C54.0126 64.5212 53.5989 65.8449 53.5989 67.264H55.5989C55.5989 66.1311 55.9198 65.8308 56.129 65.7317L55.2728 63.9243ZM82.0913 55.2V54.2H81.0913V55.2H82.0913ZM89.0513 55.2L89.7584 54.4929L89.4655 54.2H89.0513V55.2ZM92.5313 58.68L91.8242 59.3871L92.4186 59.9814L93.1063 59.4982L92.5313 58.68ZM114.107 56.302L113.489 57.0877L113.498 57.095L113.507 57.102L114.107 56.302ZM116.891 90V91H117.891V90H116.891ZM102.971 90H101.971V91H102.971V90ZM102.971 65.64H103.971V64.64H102.971V65.64ZM97.2293 66.162L97.5853 67.0965L97.6044 67.0892L97.6232 67.0811L97.2293 66.162ZM96.0113 90V91H97.0113V90H96.0113ZM82.0913 90H81.0913V91H82.0913V90ZM82.0913 56.2H89.0513V54.2H82.0913V56.2ZM88.3442 55.9071L91.8242 59.3871L93.2384 57.9729L89.7584 54.4929L88.3442 55.9071ZM93.1063 59.4982C97.2391 56.594 101.68 55.156 106.451 55.156V53.156C101.247 53.156 96.4075 54.734 91.9564 57.8618L93.1063 59.4982ZM106.451 55.156C109.606 55.156 111.909 55.8438 113.489 57.0877L114.726 55.5163C112.671 53.8989 109.87 53.156 106.451 53.156V55.156ZM113.507 57.102C115.088 58.2876 115.891 59.931 115.891 62.16H117.891C117.891 59.3623 116.839 57.1004 114.707 55.502L113.507 57.102ZM115.891 62.16V90H117.891V62.16H115.891ZM116.891 89H102.971V91H116.891V89ZM103.971 90V65.64H101.971V90H103.971ZM102.971 64.64H100.825V66.64H102.971V64.64ZM100.825 64.64C99.1951 64.64 97.8344 64.8147 96.8354 65.2429L97.6232 67.0811C98.2482 66.8133 99.2849 66.64 100.825 66.64V64.64ZM96.8733 65.2275C96.2633 65.4599 95.7707 65.865 95.4461 66.4369C95.1322 66.9899 95.0113 67.6345 95.0113 68.308H97.0113C97.0113 67.8602 97.0934 67.5864 97.1855 67.4241C97.2669 67.2806 97.3834 67.1734 97.5853 67.0965L96.8733 65.2275ZM95.0113 68.308V90H97.0113V68.308H95.0113ZM96.0113 89H82.0913V91H96.0113V89ZM83.0913 90V55.2H81.0913V90H83.0913ZM124.888 64.19H125.888V63.19H124.888V64.19ZM121.408 64.19H120.408V65.19H121.408V64.19ZM121.408 55.2V54.2H120.408V55.2H121.408ZM124.888 55.2V56.2H125.888V55.2H124.888ZM124.888 49.632L124.645 48.6619L123.888 48.8512V49.632H124.888ZM138.808 46.152H139.808V44.8712L138.565 45.1819L138.808 46.152ZM138.808 55.2H137.808V56.2H138.808V55.2ZM143.622 55.2H144.622V54.2H143.622V55.2ZM143.622 64.19V65.19H144.622V64.19H143.622ZM138.808 64.19V63.19H137.808V64.19H138.808ZM138.808 80.024H137.808V80.8438L138.612 81.0046L138.808 80.024ZM140.722 80.372L140.557 81.3584L140.584 81.3629L140.611 81.3659L140.722 80.372ZM142.926 80.546L143.924 80.6084L143.987 79.5978L142.976 79.5472L142.926 80.546ZM142.288 90.754V91.754H143.227L143.286 90.8164L142.288 90.754ZM129.876 89.71L130.214 88.7691L130.212 88.7683L129.876 89.71ZM126.164 87.506L125.426 88.1817L125.434 88.1896L125.441 88.1972L126.164 87.506ZM124.888 63.19H121.408V65.19H124.888V63.19ZM122.408 64.19V55.2H120.408V64.19H122.408ZM121.408 56.2H124.888V54.2H121.408V56.2ZM125.888 55.2V49.632H123.888V55.2H125.888ZM125.13 50.6021L139.05 47.1221L138.565 45.1819L124.645 48.6619L125.13 50.6021ZM137.808 46.152V55.2H139.808V46.152H137.808ZM138.808 56.2H143.622V54.2H138.808V56.2ZM142.622 55.2V64.19H144.622V55.2H142.622ZM143.622 63.19H138.808V65.19H143.622V63.19ZM137.808 64.19V80.024H139.808V64.19H137.808ZM138.612 81.0046C139.204 81.123 139.853 81.241 140.557 81.3584L140.886 79.3856C140.199 79.271 139.571 79.157 139.004 79.0434L138.612 81.0046ZM140.611 81.3659C141.329 81.4457 142.084 81.5052 142.876 81.5448L142.976 79.5472C142.22 79.5095 141.506 79.453 140.832 79.3781L140.611 81.3659ZM141.928 80.4836L141.29 90.6916L143.286 90.8164L143.924 80.6084L141.928 80.4836ZM142.288 89.754C139.132 89.754 136.543 89.6673 134.512 89.4965C132.461 89.324 131.052 89.0707 130.214 88.7691L129.537 90.6509C130.632 91.0453 132.259 91.314 134.345 91.4895C136.452 91.6667 139.102 91.754 142.288 91.754V89.754ZM130.212 88.7683C128.679 88.2209 127.595 87.5559 126.886 86.8148L125.441 88.1972C126.433 89.2348 127.824 90.0391 129.539 90.6517L130.212 88.7683ZM126.901 86.8303C126.278 86.1508 125.888 85.0776 125.888 83.446H123.888C123.888 85.3717 124.348 87.0052 125.426 88.1817L126.901 86.8303ZM125.888 83.446V64.19H123.888V83.446H125.888ZM181.99 90V91H182.99V90H181.99ZM175.03 90L174.323 90.7071L174.616 91H175.03V90ZM171.086 86.056L171.793 85.3489L171.048 84.6036L170.343 85.387L171.086 86.056ZM168.592 88.144L168.053 87.3017L168.045 87.3068L168.037 87.3119L168.592 88.144ZM162.27 90.696L162.473 91.6753L162.473 91.6753L162.27 90.696ZM153.686 90.406L153.945 89.4402L153.937 89.4379L153.929 89.4359L153.686 90.406ZM149.742 88.492L150.377 87.7193L150.377 87.7193L149.742 88.492ZM147.248 84.954L148.178 84.5868L148.178 84.5868L147.248 84.954ZM168.07 67.032V68.032H169.07V67.032H168.07ZM168.07 64.538H169.07V63.5892L168.123 63.5394L168.07 64.538ZM166.04 64.422L165.973 65.4198L165.978 65.4201L166.04 64.422ZM150.902 66.278L149.916 66.4443L150.111 67.5996L151.221 67.2257L150.902 66.278ZM149.22 56.302L148.925 55.3464L148.088 55.6045L148.234 56.4683L149.22 56.302ZM160.414 80.894H159.414V81.894H160.414V80.894ZM167.258 80.198L167.858 80.998L167.9 80.9665L167.938 80.9308L167.258 80.198ZM168.07 75.094H169.07V74.094H168.07V75.094ZM161.574 75.616L161.164 74.7041L161.164 74.7041L161.574 75.616ZM165.286 55.156C170.77 55.156 174.707 56.1043 177.247 57.851C179.721 59.5514 180.99 62.0903 180.99 65.64H182.99C182.99 61.5337 181.475 58.3306 178.381 56.203C175.353 54.1217 170.938 53.156 165.286 53.156V55.156ZM180.99 65.64V90H182.99V65.64H180.99ZM181.99 89H175.03V91H181.99V89ZM175.737 89.2929L171.793 85.3489L170.379 86.7631L174.323 90.7071L175.737 89.2929ZM170.343 85.387C169.713 86.0872 168.952 86.7265 168.053 87.3017L169.131 88.9863C170.166 88.3242 171.067 87.5714 171.829 86.725L170.343 85.387ZM168.037 87.3119C167.171 87.8894 166.229 88.3789 165.21 88.7792L165.942 90.6408C167.088 90.1905 168.157 89.6359 169.147 88.9761L168.037 87.3119ZM165.21 88.7792C164.18 89.1841 163.132 89.4964 162.067 89.7167L162.473 91.6753C163.65 91.4316 164.807 91.0865 165.942 90.6408L165.21 88.7792ZM162.067 89.7167C161.006 89.9363 159.992 90.044 159.022 90.044V92.044C160.14 92.044 161.291 91.9197 162.473 91.6753L162.067 89.7167ZM159.022 90.044C157.121 90.044 155.431 89.8388 153.945 89.4402L153.427 91.3718C155.112 91.8239 156.979 92.044 159.022 92.044V90.044ZM153.929 89.4359C152.506 89.0802 151.33 88.5024 150.377 87.7193L149.107 89.2647C150.319 90.2603 151.773 90.9585 153.443 91.3761L153.929 89.4359ZM150.377 87.7193C149.441 86.951 148.704 85.9186 148.178 84.5868L146.318 85.3212C146.952 86.9281 147.877 88.2543 149.107 89.2647L150.377 87.7193ZM148.178 84.5868C147.657 83.2672 147.378 81.6019 147.378 79.56H145.378C145.378 81.7715 145.679 83.7021 146.318 85.3212L148.178 84.5868ZM147.378 79.56C147.378 75.6779 148.818 72.8786 151.657 70.9976C154.569 69.0687 159.062 68.032 165.286 68.032V66.032C158.905 66.032 153.944 67.0833 150.553 69.3304C147.089 71.6254 145.378 75.0901 145.378 79.56H147.378ZM165.286 68.032H168.07V66.032H165.286V68.032ZM169.07 67.032V64.538H167.07V67.032H169.07ZM168.123 63.5394C167.391 63.5009 166.717 63.4624 166.102 63.4239L165.978 65.4201C166.6 65.459 167.28 65.4978 168.017 65.5366L168.123 63.5394ZM166.107 63.4242C165.508 63.3843 164.944 63.364 164.416 63.364V65.364C164.893 65.364 165.412 65.3824 165.973 65.4198L166.107 63.4242ZM164.416 63.364C159.119 63.364 154.501 64.0109 150.583 65.3303L151.221 67.2257C154.882 65.9931 159.273 65.364 164.416 65.364V63.364ZM151.888 66.1117L150.206 56.1357L148.234 56.4683L149.916 66.4443L151.888 66.1117ZM149.515 57.2576C154.039 55.8627 159.291 55.156 165.286 55.156V53.156C159.139 53.156 153.681 53.88 148.925 55.3464L149.515 57.2576ZM159.414 78.052V80.894H161.414V78.052H159.414ZM160.414 81.894H163.314V79.894H160.414V81.894ZM163.314 81.894C164.352 81.894 165.246 81.8346 165.982 81.7048C166.697 81.5786 167.363 81.3695 167.858 80.998L166.658 79.398C166.535 79.4905 166.234 79.6294 165.634 79.7352C165.055 79.8374 164.287 79.894 163.314 79.894V81.894ZM167.938 80.9308C168.669 80.252 169.07 79.3927 169.07 78.4H167.07C167.07 78.7993 166.929 79.1387 166.578 79.4652L167.938 80.9308ZM169.07 78.4V75.094H167.07V78.4H169.07ZM168.07 74.094H165.228V76.094H168.07V74.094ZM165.228 74.094C163.534 74.094 162.138 74.2654 161.164 74.7041L161.984 76.5279C162.556 76.2706 163.597 76.094 165.228 76.094V74.094ZM161.164 74.7041C159.863 75.2893 159.414 76.6082 159.414 78.052H161.414C161.414 76.9438 161.738 76.6387 161.984 76.5279L161.164 74.7041ZM213.756 79.56L214.752 79.4736L214.637 78.1511L213.398 78.6263L213.756 79.56ZM214.626 89.594L215 90.5214L215.686 90.2447L215.622 89.5076L214.626 89.594ZM191.194 86.52L190.469 87.2085L190.473 87.2131L191.194 86.52ZM191.194 58.738L191.915 59.4311L191.919 59.4265L191.194 58.738ZM214.626 55.606L215.61 55.7812L215.745 55.0223L215.046 54.6985L214.626 55.606ZM212.944 65.06L212.76 66.0429L213.752 66.2289L213.928 65.2352L212.944 65.06ZM209.638 64.538L209.48 65.5254L209.499 65.5285L209.519 65.5309L209.638 64.538ZM201.808 80.488H200.808V81.327L201.634 81.4728L201.808 80.488ZM204.07 80.778L203.979 81.7739L203.983 81.7742L204.07 80.778ZM212.76 79.6464L213.63 89.6804L215.622 89.5076L214.752 79.4736L212.76 79.6464ZM214.252 88.6666C212.016 89.5681 209.044 90.044 205.288 90.044V92.044C209.188 92.044 212.441 91.5533 215 90.5214L214.252 88.6666ZM205.288 90.044C198.917 90.044 194.544 88.5613 191.915 85.8269L190.473 87.2131C193.644 90.5107 198.667 92.044 205.288 92.044V90.044ZM191.919 85.8315C189.264 83.0349 187.844 78.6899 187.844 72.6H185.844C185.844 78.9608 187.324 83.8958 190.469 87.2085L191.919 85.8315ZM187.844 72.6C187.844 66.5088 189.265 62.1872 191.915 59.4311L190.473 58.0449C187.323 61.3208 185.844 66.2405 185.844 72.6H187.844ZM191.919 59.4265C194.549 56.6565 198.92 55.156 205.288 55.156V53.156C198.664 53.156 193.639 54.7102 190.469 58.0495L191.919 59.4265ZM205.288 55.156C209.378 55.156 212.316 55.6386 214.206 56.5135L215.046 54.6985C212.76 53.6401 209.472 53.156 205.288 53.156V55.156ZM213.641 55.4308L211.959 64.8848L213.928 65.2352L215.61 55.7812L213.641 55.4308ZM213.128 64.0771C211.875 63.8422 210.751 63.6644 209.757 63.5451L209.519 65.5309C210.458 65.6436 211.538 65.8138 212.76 66.0429L213.128 64.0771ZM209.796 63.5506C208.793 63.3901 207.888 63.306 207.086 63.306V65.306C207.754 65.306 208.549 65.3766 209.48 65.5254L209.796 63.5506ZM207.086 63.306C205.24 63.306 203.677 63.625 202.552 64.416C201.363 65.2523 200.808 66.5116 200.808 68.018H202.808C202.808 67.0497 203.132 66.4531 203.703 66.052C204.337 65.6056 205.413 65.306 207.086 65.306V63.306ZM200.808 68.018V80.488H202.808V68.018H200.808ZM201.634 81.4728C202.325 81.5948 203.108 81.6947 203.979 81.7739L204.16 79.7821C203.33 79.7066 202.605 79.6132 201.982 79.5032L201.634 81.4728ZM203.983 81.7742C204.907 81.8545 205.922 81.894 207.028 81.894V79.894C205.968 79.894 205.012 79.8561 204.156 79.7818L203.983 81.7742ZM207.028 81.894C209.332 81.894 211.696 81.4205 214.114 80.4937L213.398 78.6263C211.176 79.4782 209.054 79.894 207.028 79.894V81.894ZM221.573 64.19H222.573V63.19H221.573V64.19ZM218.093 64.19H217.093V65.19H218.093V64.19ZM218.093 55.2V54.2H217.093V55.2H218.093ZM221.573 55.2V56.2H222.573V55.2H221.573ZM221.573 49.632L221.331 48.6619L220.573 48.8512V49.632H221.573ZM235.493 46.152H236.493V44.8712L235.251 45.1819L235.493 46.152ZM235.493 55.2H234.493V56.2H235.493V55.2ZM240.307 55.2H241.307V54.2H240.307V55.2ZM240.307 64.19V65.19H241.307V64.19H240.307ZM235.493 64.19V63.19H234.493V64.19H235.493ZM235.493 80.024H234.493V80.8438L235.297 81.0046L235.493 80.024ZM237.407 80.372L237.243 81.3584L237.27 81.3629L237.297 81.3659L237.407 80.372ZM239.611 80.546L240.609 80.6084L240.672 79.5978L239.661 79.5472L239.611 80.546ZM238.973 90.754V91.754H239.913L239.971 90.8164L238.973 90.754ZM226.561 89.71L226.9 88.7691L226.898 88.7683L226.561 89.71ZM222.849 87.506L222.112 88.1817L222.119 88.1896L222.127 88.1972L222.849 87.506ZM221.573 63.19H218.093V65.19H221.573V63.19ZM219.093 64.19V55.2H217.093V64.19H219.093ZM218.093 56.2H221.573V54.2H218.093V56.2ZM222.573 55.2V49.632H220.573V55.2H222.573ZM221.816 50.6021L235.736 47.1221L235.251 45.1819L221.331 48.6619L221.816 50.6021ZM234.493 46.152V55.2H236.493V46.152H234.493ZM235.493 56.2H240.307V54.2H235.493V56.2ZM239.307 55.2V64.19H241.307V55.2H239.307ZM240.307 63.19H235.493V65.19H240.307V63.19ZM234.493 64.19V80.024H236.493V64.19H234.493ZM235.297 81.0046C235.889 81.123 236.538 81.241 237.243 81.3584L237.572 79.3856C236.884 79.271 236.257 79.157 235.689 79.0434L235.297 81.0046ZM237.297 81.3659C238.015 81.4457 238.77 81.5052 239.561 81.5448L239.661 79.5472C238.906 79.5095 238.192 79.453 237.518 79.3781L237.297 81.3659ZM238.613 80.4836L237.975 90.6916L239.971 90.8164L240.609 80.6084L238.613 80.4836ZM238.973 89.754C235.818 89.754 233.228 89.6673 231.198 89.4965C229.147 89.324 227.738 89.0707 226.9 88.7691L226.222 90.6509C227.318 91.0453 228.944 91.314 231.03 91.4895C233.137 91.6667 235.787 91.754 238.973 91.754V89.754ZM226.898 88.7683C225.365 88.2209 224.281 87.5559 223.572 86.8148L222.127 88.1972C223.119 89.2348 224.51 90.0391 226.225 90.6517L226.898 88.7683ZM223.586 86.8303C222.963 86.1508 222.573 85.0776 222.573 83.446H220.573C220.573 85.3717 221.034 87.0052 222.112 88.1817L223.586 86.8303ZM222.573 83.446V64.19H220.573V83.446H222.573ZM282.376 90H281.376V91H282.376V90ZM282.376 65.64H283.376V64.64H282.376V65.64ZM279.592 65.698L279.526 64.7002L279.521 64.7005L279.592 65.698ZM278.142 66.104L278.556 67.0144L278.589 66.9993L278.621 66.9819L278.142 66.104ZM277.156 67.032L278.034 67.5109L278.034 67.5109L277.156 67.032ZM276.808 90V91H277.808V90H276.808ZM262.888 90H261.888V91H262.888V90ZM262.888 55.2V54.2H261.888V55.2H262.888ZM269.848 55.2L270.562 54.4994L270.268 54.2H269.848V55.2ZM272.98 58.39L272.267 59.0906L272.974 59.8107L273.687 59.0971L272.98 58.39ZM294.092 56.998L293.42 57.7386L293.992 58.2577L294.639 57.8352L294.092 56.998ZM312.652 56.302L312.08 57.122L312.089 57.1281L312.098 57.134L312.652 56.302ZM315.784 90V91H316.784V90H315.784ZM301.864 90H300.864V91H301.864V90ZM301.864 65.64H302.864V64.64H301.864V65.64ZM299.254 65.698L299.183 64.7005L299.183 64.7005L299.254 65.698ZM297.804 66.046L298.176 66.9745L298.197 66.9659L298.218 66.9564L297.804 66.046ZM296.76 66.858L295.979 66.2333L295.959 66.2583L295.941 66.2845L296.76 66.858ZM296.296 68.424L295.298 68.3653L295.296 68.3946V68.424H296.296ZM296.296 90V91H297.296V90H296.296ZM283.376 90V65.64H281.376V90H283.376ZM282.376 64.64H281.39V66.64H282.376V64.64ZM281.39 64.64C280.751 64.64 280.129 64.66 279.526 64.7002L279.659 66.6958C280.215 66.6587 280.792 66.64 281.39 66.64V64.64ZM279.521 64.7005C278.854 64.7482 278.229 64.9177 277.663 65.2261L278.621 66.9819C278.906 66.8263 279.248 66.7252 279.663 66.6955L279.521 64.7005ZM277.728 65.1936C277.098 65.4802 276.61 65.945 276.278 66.5531L278.034 67.5109C278.166 67.2683 278.336 67.1145 278.556 67.0144L277.728 65.1936ZM276.278 66.5531C275.932 67.1879 275.808 67.979 275.808 68.83H277.808C277.808 68.1343 277.916 67.7268 278.034 67.5109L276.278 66.5531ZM275.808 68.83V90H277.808V68.83H275.808ZM276.808 89H262.888V91H276.808V89ZM263.888 90V55.2H261.888V90H263.888ZM262.888 56.2H269.848V54.2H262.888V56.2ZM269.135 55.9006L272.267 59.0906L273.694 57.6894L270.562 54.4994L269.135 55.9006ZM273.687 59.0971C276.294 56.4909 279.736 55.156 284.116 55.156V53.156C279.294 53.156 275.312 54.6438 272.273 57.6829L273.687 59.0971ZM284.116 55.156C288.575 55.156 291.601 56.0878 293.42 57.7386L294.764 56.2574C292.407 54.1189 288.782 53.156 284.116 53.156V55.156ZM294.639 57.8352C297.367 56.0533 300.461 55.156 303.952 55.156V53.156C300.097 53.156 296.618 54.1534 293.545 56.1608L294.639 57.8352ZM303.952 55.156C307.595 55.156 310.263 55.8537 312.08 57.122L313.225 55.482C310.943 53.8889 307.811 53.156 303.952 53.156V55.156ZM312.098 57.134C313.907 58.3402 314.784 59.9804 314.784 62.16H316.784C316.784 59.3129 315.574 57.0478 313.207 55.4699L312.098 57.134ZM314.784 62.16V90H316.784V62.16H314.784ZM315.784 89H301.864V91H315.784V89ZM302.864 90V65.64H300.864V90H302.864ZM301.864 64.64H300.878V66.64H301.864V64.64ZM300.878 64.64C300.313 64.64 299.748 64.6602 299.183 64.7005L299.325 66.6955C299.843 66.6585 300.361 66.64 300.878 66.64V64.64ZM299.183 64.7005C298.542 64.7463 297.94 64.8859 297.39 65.1356L298.218 66.9564C298.519 66.8194 298.884 66.727 299.325 66.6955L299.183 64.7005ZM297.433 65.1175C296.858 65.3475 296.376 65.7373 295.979 66.2333L297.541 67.4827C297.763 67.2054 297.977 67.0538 298.176 66.9745L297.433 65.1175ZM295.941 66.2845C295.53 66.8715 295.343 67.593 295.298 68.3653L297.294 68.4827C297.326 67.9404 297.449 67.6178 297.579 67.4315L295.941 66.2845ZM295.296 68.424V90H297.296V68.424H295.296ZM296.296 89H282.376V91H296.296V89ZM335.933 78.168V77.168H334.933V78.168H335.933ZM335.933 80.604H334.933V81.499L335.822 81.5979L335.933 80.604ZM353.217 78.748L354.204 78.5909L354.022 77.445L352.916 77.7944L353.217 78.748ZM354.841 88.956L355.099 89.9222L355.97 89.6898L355.828 88.7989L354.841 88.956ZM325.319 86.52L324.594 87.2085L324.598 87.2131L325.319 86.52ZM325.319 58.738L324.598 58.0447L324.598 58.0449L325.319 58.738ZM347.533 54.794L347.34 55.7752L347.349 55.7769L347.357 55.7784L347.533 54.794ZM352.753 56.824L352.16 57.6297L352.174 57.6394L352.187 57.6487L352.753 56.824ZM355.595 60.652L354.646 60.9682L354.651 60.982L354.656 60.9956L355.595 60.652ZM355.421 71.904L354.517 71.4759L354.512 71.4865L355.421 71.904ZM352.057 75.442L351.552 74.579L351.552 74.579L352.057 75.442ZM345.735 77.53L345.895 78.5172L345.902 78.516L345.909 78.5148L345.735 77.53ZM335.933 70.106H334.933V71.106H335.933V70.106ZM342.429 69.584L342.018 68.6721L342.01 68.6761L342.001 68.6803L342.429 69.584ZM343.589 64.306H344.589V63.306H343.589V64.306ZM337.035 64.828L336.624 63.9161L336.616 63.9201L336.607 63.9243L337.035 64.828ZM334.933 78.168V80.604H336.933V78.168H334.933ZM335.822 81.5979C336.537 81.6772 337.251 81.7368 337.965 81.7765L338.076 79.7795C337.399 79.7419 336.721 79.6854 336.043 79.6101L335.822 81.5979ZM337.965 81.7765C338.68 81.8162 339.394 81.836 340.109 81.836V79.836C339.431 79.836 338.754 79.8172 338.076 79.7795L337.965 81.7765ZM340.109 81.836C344.548 81.836 349.019 81.1223 353.518 79.7016L352.916 77.7944C348.599 79.1577 344.331 79.836 340.109 79.836V81.836ZM352.229 78.9051L353.853 89.1131L355.828 88.7989L354.204 78.5909L352.229 78.9051ZM354.583 87.9898C349.442 89.3608 344.386 90.044 339.413 90.044V92.044C344.571 92.044 349.8 91.3352 355.099 89.9222L354.583 87.9898ZM339.413 90.044C333.042 90.044 328.669 88.5613 326.04 85.8269L324.598 87.2131C327.769 90.5107 332.792 92.044 339.413 92.044V90.044ZM326.044 85.8315C323.389 83.0349 321.969 78.6899 321.969 72.6H319.969C319.969 78.9608 321.449 83.8958 324.594 87.2085L326.044 85.8315ZM321.969 72.6C321.969 66.5088 323.39 62.1872 326.04 59.4311L324.598 58.0449C321.448 61.3208 319.969 66.2405 319.969 72.6H321.969ZM326.04 59.4313C328.71 56.6549 333.087 55.156 339.413 55.156V53.156C332.824 53.156 327.805 54.7117 324.598 58.0447L326.04 59.4313ZM339.413 55.156C342.623 55.156 345.26 55.3667 347.34 55.7752L347.726 53.8127C345.475 53.3706 342.698 53.156 339.413 53.156V55.156ZM347.357 55.7784C349.422 56.1471 351.004 56.7796 352.16 57.6297L353.345 56.0183C351.872 54.9351 349.975 54.2142 347.709 53.8096L347.357 55.7784ZM352.187 57.6487C353.353 58.4479 354.171 59.5414 354.646 60.9682L356.544 60.3358C355.936 58.5146 354.86 57.0561 353.318 55.9993L352.187 57.6487ZM354.656 60.9956C355.182 62.4337 355.465 64.3178 355.465 66.684H357.465C357.465 64.1782 357.168 62.041 356.534 60.3084L354.656 60.9956ZM355.465 66.684C355.465 68.5808 355.137 70.1682 354.517 71.4759L356.325 72.3321C357.097 70.7011 357.465 68.8085 357.465 66.684H355.465ZM354.512 71.4865C353.954 72.7012 352.99 73.7368 351.552 74.579L352.562 76.305C354.294 75.2912 355.573 73.9681 356.33 72.3215L354.512 71.4865ZM351.552 74.579C350.104 75.4265 348.122 76.0933 345.561 76.5452L345.909 78.5148C348.607 78.0387 350.839 77.3135 352.562 76.305L351.552 74.579ZM345.575 76.5428C343.017 76.9567 339.807 77.168 335.933 77.168V79.168C339.869 79.168 343.194 78.954 345.895 78.5172L345.575 76.5428ZM334.933 67.264V70.106H336.933V67.264H334.933ZM335.933 71.106H338.775V69.106H335.933V71.106ZM338.775 71.106C340.497 71.106 341.908 70.9373 342.857 70.4877L342.001 68.6803C341.48 68.9267 340.455 69.106 338.775 69.106V71.106ZM342.839 70.4959C344.14 69.9107 344.589 68.5918 344.589 67.148H342.589C342.589 68.2562 342.265 68.5613 342.018 68.6721L342.839 70.4959ZM344.589 67.148V64.306H342.589V67.148H344.589ZM343.589 63.306H340.747V65.306H343.589V63.306ZM340.747 63.306C339.018 63.306 337.601 63.4766 336.624 63.9161L337.445 65.7399C338.015 65.4834 339.073 65.306 340.747 65.306V63.306ZM336.607 63.9243C335.347 64.5212 334.933 65.8449 334.933 67.264H336.933C336.933 66.1311 337.254 65.8308 337.463 65.7317L336.607 63.9243Z" fill="#CEB7FF"/>
</g>
<g filter="url(#filter2_d_182_43)">
<path d="M5 4.5H344V19.5H5V4.5Z" stroke="#CEB7FF" shape-rendering="crispEdges"/>
</g>
<g filter="url(#filter3_d_182_43)">
<path d="M5 4.5H344V19.5H5V4.5Z" stroke="#CEB7FF" shape-rendering="crispEdges"/>
</g>
<g filter="url(#filter4_d_182_43)">
<path d="M5 4.5H344V19.5H5V4.5Z" stroke="#CEB7FF" shape-rendering="crispEdges"/>
</g>
<g filter="url(#filter5_d_182_43)">
<path d="M5 112.5H344V127.5H5V112.5Z" stroke="#CEB7FF" shape-rendering="crispEdges"/>
</g>
<g filter="url(#filter6_d_182_43)">
<path d="M5 112.5H344V127.5H5V112.5Z" stroke="#CEB7FF" shape-rendering="crispEdges"/>
</g>
<g filter="url(#filter7_d_182_43)">
<path d="M5 112.5H344V127.5H5V112.5Z" stroke="#CEB7FF" shape-rendering="crispEdges"/>
</g>
<defs>
<filter id="filter0_d_182_43" x="2.68958" y="41.152" width="358.775" height="54.892" filterUnits="userSpaceOnUse" color-interpolation-filters="sRGB">
<feFlood flood-opacity="0" result="BackgroundImageFix"/>
<feColorMatrix in="SourceAlpha" type="matrix" values="0 0 0 0 0 0 0 0 0 0 0 0 0 0 0 0 0 0 127 0" result="hardAlpha"/>
<feOffset/>
<feGaussianBlur stdDeviation="2.5"/>
<feComposite in2="hardAlpha" operator="out"/>
<feColorMatrix type="matrix" values="0 0 0 0 0.701961 0 0 0 0 0.466667 0 0 0 0 1 0 0 0 1 0"/>
<feBlend mode="normal" in2="BackgroundImageFix" result="effect1_dropShadow_182_43"/>
<feBlend mode="normal" in="SourceGraphic" in2="effect1_dropShadow_182_43" result="shape"/>
</filter>
<filter id="filter1_d_182_43" x="2.68958" y="41.152" width="358.775" height="54.892" filterUnits="userSpaceOnUse" color-interpolation-filters="sRGB">
<feFlood flood-opacity="0" result="BackgroundImageFix"/>
<feColorMatrix in="SourceAlpha" type="matrix" values="0 0 0 0 0 0 0 0 0 0 0 0 0 0 0 0 0 0 127 0" result="hardAlpha"/>
<feOffset/>
<feGaussianBlur stdDeviation="2.5"/>
<feComposite in2="hardAlpha" operator="out"/>
<feColorMatrix type="matrix" values="0 0 0 0 0.701961 0 0 0 0 0.466667 0 0 0 0 1 0 0 0 1 0"/>
<feBlend mode="normal" in2="BackgroundImageFix" result="effect1_dropShadow_182_43"/>
<feBlend mode="normal" in="SourceGraphic" in2="effect1_dropShadow_182_43" result="shape"/>
</filter>
<filter id="filter2_d_182_43" x="0.5" y="0" width="348" height="24" filterUnits="userSpaceOnUse" color-interpolation-filters="sRGB">
<feFlood flood-opacity="0" result="BackgroundImageFix"/>
<feColorMatrix in="SourceAlpha" type="matrix" values="0 0 0 0 0 0 0 0 0 0 0 0 0 0 0 0 0 0 127 0" result="hardAlpha"/>
<feOffset/>
<feGaussianBlur stdDeviation="2"/>
<feComposite in2="hardAlpha" operator="out"/>
<feColorMatrix type="matrix" values="0 0 0 0 0.807843 0 0 0 0 0.717647 0 0 0 0 1 0 0 0 1 0"/>
<feBlend mode="normal" in2="BackgroundImageFix" result="effect1_dropShadow_182_43"/>
<feBlend mode="normal" in="SourceGraphic" in2="effect1_dropShadow_182_43" result="shape"/>
</filter>
<filter id="filter3_d_182_43" x="0.5" y="0" width="348" height="24" filterUnits="userSpaceOnUse" color-interpolation-filters="sRGB">
<feFlood flood-opacity="0" result="BackgroundImageFix"/>
<feColorMatrix in="SourceAlpha" type="matrix" values="0 0 0 0 0 0 0 0 0 0 0 0 0 0 0 0 0 0 127 0" result="hardAlpha"/>
<feOffset/>
<feGaussianBlur stdDeviation="2"/>
<feComposite in2="hardAlpha" operator="out"/>
<feColorMatrix type="matrix" values="0 0 0 0 0.807843 0 0 0 0 0.717647 0 0 0 0 1 0 0 0 1 0"/>
<feBlend mode="normal" in2="BackgroundImageFix" result="effect1_dropShadow_182_43"/>
<feBlend mode="normal" in="SourceGraphic" in2="effect1_dropShadow_182_43" result="shape"/>
</filter>
<filter id="filter4_d_182_43" x="0.5" y="0" width="348" height="24" filterUnits="userSpaceOnUse" color-interpolation-filters="sRGB">
<feFlood flood-opacity="0" result="BackgroundImageFix"/>
<feColorMatrix in="SourceAlpha" type="matrix" values="0 0 0 0 0 0 0 0 0 0 0 0 0 0 0 0 0 0 127 0" result="hardAlpha"/>
<feOffset/>
<feGaussianBlur stdDeviation="2"/>
<feComposite in2="hardAlpha" operator="out"/>
<feColorMatrix type="matrix" values="0 0 0 0 0.807843 0 0 0 0 0.717647 0 0 0 0 1 0 0 0 1 0"/>
<feBlend mode="normal" in2="BackgroundImageFix" result="effect1_dropShadow_182_43"/>
<feBlend mode="normal" in="SourceGraphic" in2="effect1_dropShadow_182_43" result="shape"/>
</filter>
<filter id="filter5_d_182_43" x="0.5" y="108" width="348" height="24" filterUnits="userSpaceOnUse" color-interpolation-filters="sRGB">
<feFlood flood-opacity="0" result="BackgroundImageFix"/>
<feColorMatrix in="SourceAlpha" type="matrix" values="0 0 0 0 0 0 0 0 0 0 0 0 0 0 0 0 0 0 127 0" result="hardAlpha"/>
<feOffset/>
<feGaussianBlur stdDeviation="2"/>
<feComposite in2="hardAlpha" operator="out"/>
<feColorMatrix type="matrix" values="0 0 0 0 0.807843 0 0 0 0 0.717647 0 0 0 0 1 0 0 0 1 0"/>
<feBlend mode="normal" in2="BackgroundImageFix" result="effect1_dropShadow_182_43"/>
<feBlend mode="normal" in="SourceGraphic" in2="effect1_dropShadow_182_43" result="shape"/>
</filter>
<filter id="filter6_d_182_43" x="0.5" y="108" width="348" height="24" filterUnits="userSpaceOnUse" color-interpolation-filters="sRGB">
<feFlood flood-opacity="0" result="BackgroundImageFix"/>
<feColorMatrix in="SourceAlpha" type="matrix" values="0 0 0 0 0 0 0 0 0 0 0 0 0 0 0 0 0 0 127 0" result="hardAlpha"/>
<feOffset/>
<feGaussianBlur stdDeviation="2"/>
<feComposite in2="hardAlpha" operator="out"/>
<feColorMatrix type="matrix" values="0 0 0 0 0.807843 0 0 0 0 0.717647 0 0 0 0 1 0 0 0 1 0"/>
<feBlend mode="normal" in2="BackgroundImageFix" result="effect1_dropShadow_182_43"/>
<feBlend mode="normal" in="SourceGraphic" in2="effect1_dropShadow_182_43" result="shape"/>
</filter>
<filter id="filter7_d_182_43" x="0.5" y="108" width="348" height="24" filterUnits="userSpaceOnUse" color-interpolation-filters="sRGB">
<feFlood flood-opacity="0" result="BackgroundImageFix"/>
<feColorMatrix in="SourceAlpha" type="matrix" values="0 0 0 0 0 0 0 0 0 0 0 0 0 0 0 0 0 0 127 0" result="hardAlpha"/>
<feOffset/>
<feGaussianBlur stdDeviation="2"/>
<feComposite in2="hardAlpha" operator="out"/>
<feColorMatrix type="matrix" values="0 0 0 0 0.807843 0 0 0 0 0.717647 0 0 0 0 1 0 0 0 1 0"/>
<feBlend mode="normal" in2="BackgroundImageFix" result="effect1_dropShadow_182_43"/>
<feBlend mode="normal" in="SourceGraphic" in2="effect1_dropShadow_182_43" result="shape"/>
</filter>
</defs>
</svg>
