<svg width="118" height="250" viewBox="0 0 118 250" fill="none" xmlns="http://www.w3.org/2000/svg">
<path d="M35.558 7.4H46.958V11.2H39.738V18.23H45.476V22.03H39.738V30.2H46.958V34H35.558V7.4ZM49.3627 7.4H55.3287L57.9887 26.438H58.0647L60.7247 7.4H66.6907V34H62.7387V13.86H62.6627L59.6227 34H56.1267L53.0867 13.86H53.0107V34H49.3627V7.4ZM73.04 7.4H78.702L83.034 34H78.854L78.094 28.718V28.794H73.344L72.584 34H68.708L73.04 7.4ZM77.6 25.184L75.738 12.036H75.662L73.838 25.184H77.6ZM85.0619 7.4H89.2419V34H85.0619V7.4ZM92.3725 7.4H96.5525V30.2H103.43V34H92.3725V7.4ZM111.521 15.494H115.549V19.522H111.521V15.494ZM111.521 29.972H115.549V34H111.521V29.972Z" fill="white"/>
<path d="M13.992 136.38C11.9653 136.38 10.4327 135.81 9.394 134.67C8.35533 133.505 7.836 131.845 7.836 129.692V128.172H11.788V129.996C11.788 131.719 12.51 132.58 13.954 132.58C14.6633 132.58 15.1953 132.377 15.55 131.972C15.93 131.541 16.12 130.857 16.12 129.92C16.12 128.805 15.8667 127.83 15.36 126.994C14.8533 126.133 13.916 125.107 12.548 123.916C10.8253 122.396 9.622 121.028 8.938 119.812C8.254 118.571 7.912 117.177 7.912 115.632C7.912 113.529 8.444 111.908 9.508 110.768C10.572 109.603 12.1173 109.02 14.144 109.02C16.1453 109.02 17.6527 109.603 18.666 110.768C19.7047 111.908 20.224 113.555 20.224 115.708V116.81H16.272V115.442C16.272 114.53 16.0947 113.871 15.74 113.466C15.3853 113.035 14.866 112.82 14.182 112.82C12.7887 112.82 12.092 113.669 12.092 115.366C12.092 116.329 12.3453 117.228 12.852 118.064C13.384 118.9 14.334 119.913 15.702 121.104C17.45 122.624 18.6533 124.005 19.312 125.246C19.9707 126.487 20.3 127.944 20.3 129.616C20.3 131.795 19.7553 133.467 18.666 134.632C17.602 135.797 16.044 136.38 13.992 136.38ZM28.7767 136.38C26.75 136.38 25.2047 135.81 24.1407 134.67C23.0767 133.505 22.5447 131.845 22.5447 129.692V109.4H26.7247V129.996C26.7247 130.908 26.902 131.567 27.2567 131.972C27.6367 132.377 28.1687 132.58 28.8527 132.58C29.5367 132.58 30.056 132.377 30.4107 131.972C30.7907 131.567 30.9807 130.908 30.9807 129.996V109.4H35.0087V129.692C35.0087 131.845 34.4767 133.505 33.4127 134.67C32.3487 135.81 30.8033 136.38 28.7767 136.38ZM37.9857 109.4H44.2937C46.4471 109.4 48.0177 109.907 49.0057 110.92C49.9937 111.908 50.4877 113.441 50.4877 115.518V116.582C50.4877 117.95 50.2597 119.065 49.8037 119.926C49.3731 120.787 48.7017 121.408 47.7897 121.788V121.864C49.8671 122.573 50.9057 124.423 50.9057 127.412V129.692C50.9057 131.744 50.3611 133.315 49.2717 134.404C48.2077 135.468 46.6371 136 44.5597 136H37.9857V109.4ZM43.7997 120.23C44.6357 120.23 45.2564 120.015 45.6617 119.584C46.0924 119.153 46.3077 118.431 46.3077 117.418V115.936C46.3077 114.973 46.1304 114.277 45.7757 113.846C45.4464 113.415 44.9144 113.2 44.1797 113.2H42.1657V120.23H43.7997ZM44.5597 132.2C45.2944 132.2 45.8391 132.01 46.1937 131.63C46.5484 131.225 46.7257 130.541 46.7257 129.578V127.26C46.7257 126.044 46.5104 125.208 46.0797 124.752C45.6744 124.271 44.9904 124.03 44.0277 124.03H42.1657V132.2H44.5597ZM54.337 136.152C53.577 136.152 52.931 136.101 52.399 136V132.2C52.8043 132.301 53.2603 132.352 53.767 132.352C54.603 132.352 55.2237 132.149 55.629 131.744C56.0343 131.313 56.237 130.667 56.237 129.806V109.4H60.417V129.692C60.417 131.871 59.9103 133.492 58.897 134.556C57.909 135.62 56.389 136.152 54.337 136.152ZM63.4057 109.4H74.8057V113.2H67.5857V120.23H73.3237V124.03H67.5857V132.2H74.8057V136H63.4057V109.4ZM83.1003 136.38C81.099 136.38 79.5663 135.81 78.5023 134.67C77.4637 133.53 76.9443 131.921 76.9443 129.844V115.556C76.9443 113.479 77.4637 111.87 78.5023 110.73C79.5663 109.59 81.099 109.02 83.1003 109.02C85.1017 109.02 86.6217 109.59 87.6603 110.73C88.7243 111.87 89.2563 113.479 89.2563 115.556V118.368H85.3043V115.29C85.3043 113.643 84.6077 112.82 83.2143 112.82C81.821 112.82 81.1243 113.643 81.1243 115.29V130.148C81.1243 131.769 81.821 132.58 83.2143 132.58C84.6077 132.58 85.3043 131.769 85.3043 130.148V126.082H89.2563V129.844C89.2563 131.921 88.7243 133.53 87.6603 134.67C86.6217 135.81 85.1017 136.38 83.1003 136.38ZM95.0252 113.2H90.6552V109.4H103.575V113.2H99.2052V136H95.0252V113.2ZM111.685 117.494H115.713V121.522H111.685V117.494ZM111.685 131.972H115.713V136H111.685V131.972Z" fill="white"/>
<path d="M7.448 238.38C5.44667 238.38 3.914 237.81 2.85 236.67C1.81133 235.53 1.292 233.921 1.292 231.844V217.556C1.292 215.479 1.81133 213.87 2.85 212.73C3.914 211.59 5.44667 211.02 7.448 211.02C9.44933 211.02 10.9693 211.59 12.008 212.73C13.072 213.87 13.604 215.479 13.604 217.556V220.368H9.652V217.29C9.652 215.643 8.95533 214.82 7.562 214.82C6.16867 214.82 5.472 215.643 5.472 217.29V232.148C5.472 233.769 6.16867 234.58 7.562 234.58C8.95533 234.58 9.652 233.769 9.652 232.148V228.082H13.604V231.844C13.604 233.921 13.072 235.53 12.008 236.67C10.9693 237.81 9.44933 238.38 7.448 238.38ZM22.2211 238.38C20.1691 238.38 18.5984 237.797 17.5091 236.632C16.4198 235.467 15.8751 233.82 15.8751 231.692V217.708C15.8751 215.58 16.4198 213.933 17.5091 212.768C18.5984 211.603 20.1691 211.02 22.2211 211.02C24.2731 211.02 25.8438 211.603 26.9331 212.768C28.0224 213.933 28.5671 215.58 28.5671 217.708V231.692C28.5671 233.82 28.0224 235.467 26.9331 236.632C25.8438 237.797 24.2731 238.38 22.2211 238.38ZM22.2211 234.58C23.6651 234.58 24.3871 233.706 24.3871 231.958V217.442C24.3871 215.694 23.6651 214.82 22.2211 214.82C20.7771 214.82 20.0551 215.694 20.0551 217.442V231.958C20.0551 233.706 20.7771 234.58 22.2211 234.58ZM31.3939 211.4H36.6379L40.7039 227.322H40.7799V211.4H44.5039V238H40.2099L35.1939 218.582H35.1179V238H31.3939V211.4ZM50.8787 215.2H46.5087V211.4H59.4287V215.2H55.0587V238H50.8787V215.2ZM61.4525 211.4H72.8525V215.2H65.6325V222.23H71.3705V226.03H65.6325V234.2H72.8525V238H61.4525V211.4ZM75.2572 211.4H80.5012L84.5672 227.322H84.6432V211.4H88.3672V238H84.0732L79.0572 218.582H78.9812V238H75.2572V211.4ZM94.742 215.2H90.372V211.4H103.292V215.2H98.922V238H94.742V215.2ZM111.402 219.494H115.43V223.522H111.402V219.494ZM111.402 233.972H115.43V238H111.402V233.972Z" fill="white"/>
</svg>
