<svg width="579" height="132" viewBox="0 0 579 132" fill="none" xmlns="http://www.w3.org/2000/svg">
<g filter="url(#filter0_d_102_21)">
<path d="M37.4656 77.53L38.4616 77.4412L38.3468 76.1523L37.1285 76.5885L37.4656 77.53ZM38.5096 89.246L38.883 90.1736L39.5715 89.8965L39.5056 89.1572L38.5096 89.246ZM17.2236 89.71L16.8992 90.656L16.9114 90.66L17.2236 89.71ZM10.7856 85.534L11.5459 84.8845L11.5459 84.8845L10.7856 85.534ZM7.42156 78.458L6.44407 78.6693L6.44695 78.6819L7.42156 78.458ZM7.36356 58.39L6.3861 58.1787L6.38403 58.1887L7.36356 58.39ZM10.6116 51.256L11.3863 51.8884L11.3924 51.8807L10.6116 51.256ZM16.8756 46.906L16.5349 45.9658L16.5305 45.9674L16.8756 46.906ZM29.9256 45.63L29.819 46.6243L29.8379 46.6263L29.8568 46.6276L29.9256 45.63ZM33.1736 45.978L33.027 46.9672L33.0321 46.9679L33.1736 45.978ZM36.1896 46.558L35.947 47.5281L35.9701 47.5339L35.9934 47.5386L36.1896 46.558ZM38.5096 47.254L39.491 47.446L39.6411 46.6785L38.9324 46.3478L38.5096 47.254ZM36.4216 57.926L36.2137 58.9042L37.2078 59.1154L37.403 58.118L36.4216 57.926ZM21.4576 78.632H20.4576V79.438L21.2451 79.6092L21.4576 78.632ZM24.1256 79.096L23.9962 80.0876L24.0193 80.0906L24.0425 80.0925L24.1256 79.096ZM36.4695 77.6188L37.5135 89.3348L39.5056 89.1572L38.4616 77.4412L36.4695 77.6188ZM38.1361 88.3184C35.312 89.4553 31.7743 90.044 27.4896 90.044V92.044C31.9435 92.044 35.7525 91.434 38.883 90.1736L38.1361 88.3184ZM27.4896 90.044C23.4148 90.044 20.1073 89.6049 17.5357 88.76L16.9114 90.66C19.7532 91.5938 23.2897 92.044 27.4896 92.044V90.044ZM17.5479 88.7641C14.981 87.884 12.9964 86.5826 11.5459 84.8845L10.0252 86.1835C11.7454 88.1974 14.0528 89.68 16.8992 90.6559L17.5479 88.7641ZM11.5459 84.8845C10.0845 83.1735 9.02469 80.97 8.39618 78.2341L6.44695 78.6819C7.1331 81.6687 8.31599 84.1825 10.0252 86.1835L11.5459 84.8845ZM8.39898 78.2467C7.79935 75.4734 7.49356 72.1643 7.49356 68.308H5.49356C5.49356 72.2624 5.80644 75.7199 6.44415 78.6693L8.39898 78.2467ZM7.49356 68.308C7.49356 64.5665 7.78018 61.3308 8.3431 58.5913L6.38403 58.1887C5.78694 61.0945 5.49356 64.4709 5.49356 68.308H7.49356ZM8.34098 58.6013C8.93278 55.8642 9.95729 53.6388 11.3862 51.8884L9.8369 50.6236C8.17251 52.6625 7.03168 55.1931 6.38615 58.1787L8.34098 58.6013ZM11.3924 51.8807C12.8108 50.1078 14.7394 48.7568 17.2206 47.8446L16.5305 45.9674C13.753 46.9886 11.5057 48.5375 9.83069 50.6313L11.3924 51.8807ZM17.2162 47.8462C19.7389 46.9322 22.9779 46.456 26.9676 46.456V44.456C22.8372 44.456 19.3482 44.9465 16.5349 45.9658L17.2162 47.8462ZM26.9676 46.456C27.8145 46.456 28.7642 46.5113 29.819 46.6243L30.0321 44.6357C28.9216 44.5167 27.8993 44.456 26.9676 44.456V46.456ZM29.8568 46.6276C30.9537 46.7033 32.0104 46.8166 33.027 46.9672L33.3201 44.9888C32.2487 44.8301 31.14 44.7114 29.9944 44.6324L29.8568 46.6276ZM33.0321 46.9679C34.0855 47.1184 35.0567 47.3056 35.947 47.5281L36.4321 45.5879C35.4664 45.3464 34.427 45.1469 33.315 44.988L33.0321 46.9679ZM35.9934 47.5386C36.9191 47.7237 37.6068 47.9362 38.0867 48.1602L38.9324 46.3478C38.2523 46.0304 37.3934 45.779 36.3857 45.5774L35.9934 47.5386ZM37.5282 47.062L35.4402 57.734L37.403 58.118L39.491 47.446L37.5282 47.062ZM36.6294 56.9478C33.4868 56.28 30.6505 55.94 28.1276 55.94V57.94C30.4766 57.94 33.1697 58.2573 36.2137 58.9042L36.6294 56.9478ZM28.1276 55.94C25.614 55.94 23.6663 56.1626 22.4748 56.7345L23.3403 58.5375C24.0821 58.1814 25.6145 57.94 28.1276 57.94V55.94ZM22.4748 56.7345C21.0534 57.4168 20.4576 58.7799 20.4576 60.42H22.4576C22.4576 59.2761 22.8284 58.7832 23.3403 58.5375L22.4748 56.7345ZM20.4576 60.42V78.632H22.4576V60.42H20.4576ZM21.2451 79.6092C22.1615 79.8084 23.0786 79.9679 23.9962 80.0876L24.2549 78.1044C23.3939 77.9921 22.5322 77.8423 21.67 77.6548L21.2451 79.6092ZM24.0425 80.0925C24.9992 80.1723 25.9742 80.212 26.9676 80.212V78.212C26.0276 78.212 25.108 78.1744 24.2086 78.0995L24.0425 80.0925ZM26.9676 80.212C30.9308 80.212 34.5465 79.6373 37.8026 78.4715L37.1285 76.5885C34.1206 77.6654 30.7376 78.212 26.9676 78.212V80.212ZM42.2569 58.042L41.2845 57.8086L41.2823 57.8181L42.2569 58.042ZM45.6789 50.908L44.9263 50.2494L44.9185 50.2585L45.6789 50.908ZM52.0589 46.79L51.7385 45.8427L51.7385 45.8427L52.0589 46.79ZM71.5469 46.79L71.2222 47.7358L71.2265 47.7373L71.5469 46.79ZM77.8689 50.908L77.1085 51.5575L77.1163 51.5665L77.8689 50.908ZM81.2909 58.042L80.3156 58.2631L80.3174 58.2707L80.3192 58.2784L81.2909 58.042ZM81.4069 78.284L82.3837 78.4981L82.3843 78.4953L81.4069 78.284ZM78.1009 85.36L77.3339 84.7182L77.3262 84.7276L78.1009 85.36ZM71.7789 89.652L72.1117 90.595L72.1196 90.5922L71.7789 89.652ZM51.7689 89.652L51.4238 90.5906L51.4321 90.5936L51.4404 90.5965L51.7689 89.652ZM45.4469 85.36L44.6722 85.9924L44.68 86.0017L45.4469 85.36ZM42.1989 78.284L41.2215 78.4953L41.2221 78.4981L42.1989 78.284ZM56.2349 79.154H55.2349V80.154H56.2349V79.154ZM66.1529 78.516L66.6169 79.4018L66.6244 79.3979L66.6318 79.3939L66.1529 78.516ZM67.4289 57.346H68.4289V56.346H67.4289V57.346ZM57.5109 58.042L57.9581 58.9364L57.9741 58.9284L57.9898 58.9199L57.5109 58.042ZM42.2709 68.308C42.2709 64.3759 42.5958 61.0331 43.2315 58.2659L41.2823 57.8181C40.6033 60.7736 40.2709 64.2747 40.2709 68.308H42.2709ZM43.2293 58.2754C43.8965 55.4953 44.9768 53.2697 46.4393 51.5575L44.9185 50.2585C43.2104 52.2583 42.0093 54.7887 41.2845 57.8086L43.2293 58.2754ZM46.4315 51.5665C47.9254 49.8592 49.8956 48.5774 52.3793 47.7373L51.7385 45.8427C48.9636 46.7813 46.6804 48.2448 44.9263 50.2495L46.4315 51.5665ZM52.3793 47.7373C54.8737 46.8936 58.0057 46.456 61.8029 46.456V44.456C57.8668 44.456 54.5028 44.9077 51.7385 45.8427L52.3793 47.7373ZM61.8029 46.456C65.6408 46.456 68.7702 46.8941 71.2222 47.7358L71.8716 45.8442C69.1423 44.9073 65.7757 44.456 61.8029 44.456V46.456ZM71.2265 47.7373C73.7089 48.5769 75.6557 49.8566 77.1085 51.5575L78.6293 50.2585C76.9115 48.2474 74.6436 46.7817 71.8673 45.8427L71.2265 47.7373ZM77.1163 51.5665C78.6105 53.2742 79.6875 55.492 80.3156 58.2631L82.2662 57.8209C81.5796 54.792 80.3753 52.2538 78.6215 50.2495L77.1163 51.5665ZM80.3192 58.2784C80.9911 61.0406 81.3349 64.379 81.3349 68.308H83.3349C83.3349 64.2716 82.9827 60.766 82.2626 57.8056L80.3192 58.2784ZM81.3349 68.308C81.3349 72.0459 81.0295 75.2976 80.4295 78.0727L82.3843 78.4953C83.0216 75.5477 83.3349 72.1488 83.3349 68.308H81.3349ZM80.4301 78.0699C79.8401 80.7619 78.7997 82.9666 77.334 84.7183L78.8678 86.0017C80.5728 83.9641 81.7364 81.4514 82.3837 78.4981L80.4301 78.0699ZM77.3262 84.7276C75.911 86.4613 73.964 87.7967 71.4383 88.7118L72.1196 90.5922C74.9298 89.574 77.1974 88.0481 78.8756 85.9924L77.3262 84.7276ZM71.4461 88.709C68.9596 89.5866 65.7566 90.044 61.8029 90.044V92.044C65.8919 92.044 69.3395 91.5734 72.1117 90.595L71.4461 88.709ZM61.8029 90.044C57.85 90.044 54.6254 89.5868 52.0974 88.7075L51.4404 90.5965C54.2484 91.5732 57.7131 92.044 61.8029 92.044V90.044ZM52.114 88.7134C49.6264 87.7989 47.6726 86.4616 46.2138 84.7183L44.68 86.0017C46.3919 88.0477 48.6527 89.5718 51.4238 90.5906L52.114 88.7134ZM46.2216 84.7276C44.7907 82.9748 43.7668 80.7669 43.1757 78.0699L41.2221 78.4981C41.8683 81.4464 43.0098 83.9559 44.6722 85.9924L46.2216 84.7276ZM43.1763 78.0727C42.5763 75.2976 42.2709 72.0459 42.2709 68.308H40.2709C40.2709 72.1488 40.5842 75.5477 41.2215 78.4953L43.1763 78.0727ZM55.2349 61.058V79.154H57.2349V61.058H55.2349ZM56.2349 80.154H62.0349V78.154H56.2349V80.154ZM62.0349 80.154C63.9884 80.154 65.5743 79.9479 66.6169 79.4018L65.6889 77.6302C65.1075 77.9347 63.9481 78.154 62.0349 78.154V80.154ZM66.6318 79.3939C67.9735 78.662 68.4289 77.147 68.4289 75.442H66.4289C66.4289 76.9076 66.0336 77.442 65.6741 77.6381L66.6318 79.3939ZM68.4289 75.442V57.346H66.4289V75.442H68.4289ZM67.4289 56.346H61.5709V58.346H67.4289V56.346ZM61.5709 56.346C59.6746 56.346 58.1109 56.5756 57.0321 57.1641L57.9898 58.9199C58.6122 58.5804 59.7552 58.346 61.5709 58.346V56.346ZM57.0637 57.1476C55.6867 57.8361 55.2349 59.363 55.2349 61.058H57.2349C57.2349 59.5823 57.6337 59.0986 57.9581 58.9364L57.0637 57.1476ZM85.4588 89.246L84.4732 89.0768L84.3122 90.0141L85.2403 90.2218L85.4588 89.246ZM87.4308 77.762L87.6691 76.7908L86.6268 76.535L86.4452 77.5928L87.4308 77.762ZM103.555 79.27L103.584 80.2696L103.598 80.2692L103.612 80.2684L103.555 79.27ZM107.151 78.922L107.297 79.9112L108.151 79.7848V78.922H107.151ZM107.151 75.442H108.151V74.5219L107.234 74.4455L107.151 75.442ZM100.887 74.92L100.791 75.9155L100.804 75.9165L100.887 74.92ZM93.8108 73.528L93.483 74.4728L93.483 74.4728L93.8108 73.528ZM89.2288 70.86L88.5098 71.555L88.5215 71.5672L88.5337 71.579L89.2288 70.86ZM86.7928 66.742L85.8312 67.0167L85.8352 67.0305L85.8395 67.0442L86.7928 66.742ZM87.0248 53.634L87.9789 53.9333L87.9805 53.9281L87.0248 53.634ZM89.9828 48.82L90.6458 49.5686L90.6517 49.5634L90.6575 49.558L89.9828 48.82ZM95.2028 46.21L94.9766 45.2359L94.9727 45.2368L95.2028 46.21ZM119.795 47.196L120.783 47.3504L120.926 46.4324L120.021 46.222L119.795 47.196ZM118.055 58.332L117.896 59.3193L118.888 59.4787L119.043 58.4864L118.055 58.332ZM101.061 57.636L100.934 56.644L100.061 56.7555V57.636H101.061ZM101.061 61.058H100.061V61.9693L100.968 62.0537L101.061 61.058ZM106.049 61.522L106.15 60.5271L106.141 60.5263L106.049 61.522ZM113.705 63.088L113.367 64.0293L113.375 64.0322L113.383 64.0349L113.705 63.088ZM118.635 65.872L117.951 66.6015L117.956 66.6068L117.962 66.6119L118.635 65.872ZM121.303 69.99L120.35 70.2922L120.353 70.3027L120.356 70.3131L121.303 69.99ZM120.955 82.866L120.021 82.507L120.021 82.507L120.955 82.866ZM118.171 87.448L118.862 88.1706L118.865 88.1678L118.171 87.448ZM114.865 89.478L115.198 90.421L115.21 90.4167L115.222 90.4121L114.865 89.478ZM110.689 90.522L110.845 91.5098L110.845 91.5098L110.689 90.522ZM106.223 90.928L106.197 89.9283L106.184 89.9287L106.17 89.9294L106.223 90.928ZM93.5208 90.58L93.6312 89.5861L93.6312 89.5861L93.5208 90.58ZM86.4443 89.4152L88.4163 77.9312L86.4452 77.5928L84.4732 89.0768L86.4443 89.4152ZM87.1924 78.7332C91.5037 79.7914 95.4328 80.328 98.9728 80.328V78.328C95.6301 78.328 91.8645 77.8206 87.6691 76.7908L87.1924 78.7332ZM98.9728 80.328C100.72 80.328 102.257 80.3086 103.584 80.2696L103.525 78.2704C102.223 78.3087 100.706 78.328 98.9728 78.328V80.328ZM103.612 80.2684C104.987 80.1898 106.217 80.0713 107.297 79.9112L107.004 77.9328C105.997 78.082 104.829 78.1956 103.498 78.2716L103.612 80.2684ZM108.151 78.922V75.442H106.151V78.922H108.151ZM107.234 74.4455L100.97 73.9235L100.804 75.9165L107.068 76.4385L107.234 74.4455ZM100.982 73.9246C98.2089 73.6586 95.9342 73.2062 94.1385 72.5832L93.483 74.4728C95.4766 75.1644 97.9192 75.64 100.791 75.9154L100.982 73.9246ZM94.1385 72.5832C92.3487 71.9623 90.957 71.1398 89.9238 70.141L88.5337 71.579C89.8205 72.8228 91.4834 73.779 93.483 74.4728L94.1385 72.5832ZM89.9477 70.165C88.9371 69.1195 88.2034 67.8825 87.746 66.4398L85.8395 67.0442C86.3874 68.7721 87.2777 70.2805 88.5098 71.555L89.9477 70.165ZM87.7543 66.4673C87.3218 64.9536 87.0968 63.1552 87.0968 61.058H85.0968C85.0968 63.2915 85.3357 65.2824 85.8312 67.0167L87.7543 66.4673ZM87.0968 61.058C87.0968 58.1415 87.4008 55.7761 87.9789 53.9333L86.0706 53.3347C85.4114 55.4359 85.0968 58.0198 85.0968 61.058H87.0968ZM87.9805 53.9281C88.5542 52.0638 89.4511 50.6267 90.6458 49.5686L89.3197 48.0714C87.8077 49.4106 86.7327 51.1829 86.069 53.3399L87.9805 53.9281ZM90.6575 49.558C91.863 48.4559 93.4402 47.6542 95.4328 47.1832L94.9727 45.2368C92.712 45.7712 90.8092 46.7094 89.308 48.082L90.6575 49.558ZM95.4289 47.1841C97.4976 46.7039 100.046 46.456 103.091 46.456V44.456C99.9485 44.456 97.2386 44.7108 94.9766 45.2359L95.4289 47.1841ZM103.091 46.456C109.177 46.456 114.668 47.0303 119.568 48.17L120.021 46.222C114.946 45.0417 109.3 44.456 103.091 44.456V46.456ZM118.807 47.0416L117.067 58.1776L119.043 58.4864L120.783 47.3504L118.807 47.0416ZM118.213 57.3447C113.861 56.6452 110.341 56.288 107.673 56.288V58.288C110.186 58.288 113.587 58.6268 117.896 59.3193L118.213 57.3447ZM107.673 56.288C105.056 56.288 102.807 56.405 100.934 56.644L101.187 58.6279C102.95 58.403 105.109 58.288 107.673 58.288V56.288ZM100.061 57.636V61.058H102.061V57.636H100.061ZM100.968 62.0537L105.956 62.5177L106.141 60.5263L101.153 60.0623L100.968 62.0537ZM105.948 62.5169C108.952 62.8211 111.418 63.3307 113.367 64.0293L114.042 62.1467C111.892 61.376 109.255 60.8415 106.15 60.5271L105.948 62.5169ZM113.383 64.0349C115.334 64.6973 116.842 65.5619 117.951 66.6015L119.319 65.1425C117.953 63.8621 116.175 62.8707 114.026 62.1411L113.383 64.0349ZM117.962 66.6119C119.113 67.6579 119.902 68.8814 120.35 70.2922L122.256 69.6878C121.698 67.928 120.709 66.4061 119.307 65.1321L117.962 66.6119ZM120.356 70.3131C120.855 71.7742 121.115 73.4789 121.115 75.442H123.115C123.115 73.3064 122.833 71.3765 122.249 69.6669L120.356 70.3131ZM121.115 75.442C121.115 78.2997 120.738 80.6443 120.021 82.507L121.888 83.225C122.718 81.0664 123.115 78.4617 123.115 75.442H121.115ZM120.021 82.507C119.279 84.436 118.419 85.8195 117.477 86.7282L118.865 88.1678C120.088 86.9885 121.083 85.3173 121.888 83.225L120.021 82.507ZM117.48 86.7254C116.699 87.4717 115.716 88.082 114.508 88.5439L115.222 90.4121C116.643 89.8686 117.864 89.1256 118.862 88.1706L117.48 86.7254ZM114.532 88.535C113.278 88.9774 111.946 89.3111 110.533 89.5342L110.845 91.5098C112.37 91.2689 113.822 90.9066 115.198 90.421L114.532 88.535ZM110.533 89.5342C109.107 89.7593 107.662 89.8908 106.197 89.9283L106.248 91.9277C107.799 91.8879 109.332 91.7487 110.845 91.5098L110.533 89.5342ZM106.17 89.9294C104.715 90.006 103.398 90.044 102.221 90.044V92.044C103.44 92.044 104.792 92.0047 106.275 91.9266L106.17 89.9294ZM102.221 90.044C99.2389 90.044 96.3758 89.8911 93.6312 89.5861L93.4103 91.5739C96.2337 91.8876 99.1706 92.044 102.221 92.044V90.044ZM93.6312 89.5861C90.8815 89.2806 88.2303 88.8418 85.6772 88.2702L85.2403 90.2218C87.8685 90.8102 90.592 91.2607 93.4103 91.5739L93.6312 89.5861ZM140.987 68.888V67.888H140.025L139.988 68.8496L140.987 68.888ZM140.175 90V91H141.137L141.174 90.0384L140.175 90ZM125.617 90L124.619 89.9388L124.554 91H125.617V90ZM128.285 46.5V45.5H127.344L127.287 46.4388L128.285 46.5ZM146.439 46.5L147.411 46.2635L147.225 45.5H146.439V46.5ZM151.833 68.656L150.861 68.8925L151.047 69.656H151.833V68.656ZM152.355 68.656V69.656H153.141L153.327 68.8925L152.355 68.656ZM157.749 46.5V45.5H156.963L156.777 46.2635L157.749 46.5ZM175.961 46.5L176.959 46.4401L176.903 45.5H175.961V46.5ZM178.571 90V91H179.633L179.569 89.9401L178.571 90ZM164.013 90L163.014 90.0384L163.051 91H164.013V90ZM163.201 68.888L164.2 68.8496L164.163 67.888H163.201V68.888ZM162.737 68.888V67.888H161.958L161.767 68.643L162.737 68.888ZM157.401 90V91H158.18L158.37 90.245L157.401 90ZM146.787 90L145.818 90.2475L146.01 91H146.787V90ZM141.393 68.888L142.362 68.6405L142.17 67.888H141.393V68.888ZM139.988 68.8496L139.176 89.9616L141.174 90.0384L141.986 68.9264L139.988 68.8496ZM140.175 89H125.617V91H140.175V89ZM126.615 90.0612L129.283 46.5612L127.287 46.4388L124.619 89.9388L126.615 90.0612ZM128.285 47.5H146.439V45.5H128.285V47.5ZM145.467 46.7365L150.861 68.8925L152.805 68.4195L147.411 46.2635L145.467 46.7365ZM151.833 69.656H152.355V67.656H151.833V69.656ZM153.327 68.8925L158.721 46.7365L156.777 46.2635L151.383 68.4195L153.327 68.8925ZM157.749 47.5H175.961V45.5H157.749V47.5ZM174.963 46.5599L177.573 90.0599L179.569 89.9401L176.959 46.4401L174.963 46.5599ZM178.571 89H164.013V91H178.571V89ZM165.012 89.9616L164.2 68.8496L162.202 68.9264L163.014 90.0384L165.012 89.9616ZM163.201 67.888H162.737V69.888H163.201V67.888ZM161.767 68.643L156.431 89.755L158.37 90.245L163.706 69.133L161.767 68.643ZM157.401 89H146.787V91H157.401V89ZM147.756 89.7525L142.362 68.6405L140.424 69.1355L145.818 90.2475L147.756 89.7525ZM141.393 67.888H140.987V69.888H141.393V67.888ZM197.691 90V91H198.691V90H197.691ZM183.771 90H182.771V91H183.771V90ZM183.771 46.5V45.5H182.771V46.5H183.771ZM197.691 46.5H198.691V45.5H197.691V46.5ZM197.691 89H183.771V91H197.691V89ZM184.771 90V46.5H182.771V90H184.771ZM183.771 47.5H197.691V45.5H183.771V47.5ZM196.691 46.5V90H198.691V46.5H196.691ZM233.555 77.53L234.551 77.4412L234.437 76.1523L233.218 76.5885L233.555 77.53ZM234.599 89.246L234.973 90.1736L235.661 89.8965L235.595 89.1572L234.599 89.246ZM213.313 89.71L212.989 90.656L213.001 90.66L213.313 89.71ZM206.875 85.534L207.636 84.8845L207.636 84.8845L206.875 85.534ZM203.511 78.458L202.534 78.6693L202.537 78.6819L203.511 78.458ZM203.453 58.39L202.476 58.1787L202.474 58.1887L203.453 58.39ZM206.701 51.256L207.476 51.8884L207.482 51.8807L206.701 51.256ZM212.965 46.906L212.625 45.9658L212.62 45.9674L212.965 46.906ZM226.015 45.63L225.909 46.6243L225.928 46.6263L225.947 46.6276L226.015 45.63ZM229.263 45.978L229.117 46.9672L229.122 46.9679L229.263 45.978ZM232.279 46.558L232.037 47.5281L232.06 47.5339L232.083 47.5386L232.279 46.558ZM234.599 47.254L235.581 47.446L235.731 46.6785L235.022 46.3478L234.599 47.254ZM232.511 57.926L232.304 58.9042L233.298 59.1154L233.493 58.118L232.511 57.926ZM217.547 78.632H216.547V79.438L217.335 79.6092L217.547 78.632ZM220.215 79.096L220.086 80.0876L220.109 80.0906L220.132 80.0925L220.215 79.096ZM232.559 77.6188L233.603 89.3348L235.595 89.1572L234.551 77.4412L232.559 77.6188ZM234.226 88.3184C231.402 89.4553 227.864 90.044 223.579 90.044V92.044C228.033 92.044 231.842 91.434 234.973 90.1736L234.226 88.3184ZM223.579 90.044C219.505 90.044 216.197 89.6049 213.626 88.76L213.001 90.66C215.843 91.5938 219.38 92.044 223.579 92.044V90.044ZM213.638 88.7641C211.071 87.884 209.086 86.5826 207.636 84.8845L206.115 86.1835C207.835 88.1974 210.143 89.68 212.989 90.6559L213.638 88.7641ZM207.636 84.8845C206.174 83.1735 205.115 80.97 204.486 78.2341L202.537 78.6819C203.223 81.6687 204.406 84.1825 206.115 86.1835L207.636 84.8845ZM204.489 78.2467C203.889 75.4734 203.583 72.1643 203.583 68.308H201.583C201.583 72.2624 201.896 75.7199 202.534 78.6693L204.489 78.2467ZM203.583 68.308C203.583 64.5665 203.87 61.3308 204.433 58.5913L202.474 58.1887C201.877 61.0945 201.583 64.4709 201.583 68.308H203.583ZM204.431 58.6013C205.023 55.8642 206.047 53.6388 207.476 51.8884L205.927 50.6236C204.262 52.6625 203.122 55.1931 202.476 58.1787L204.431 58.6013ZM207.482 51.8807C208.901 50.1078 210.829 48.7568 213.31 47.8446L212.62 45.9674C209.843 46.9886 207.596 48.5375 205.921 50.6313L207.482 51.8807ZM213.306 47.8462C215.829 46.9322 219.068 46.456 223.057 46.456V44.456C218.927 44.456 215.438 44.9465 212.625 45.9658L213.306 47.8462ZM223.057 46.456C223.904 46.456 224.854 46.5113 225.909 46.6243L226.122 44.6357C225.011 44.5167 223.989 44.456 223.057 44.456V46.456ZM225.947 46.6276C227.044 46.7033 228.1 46.8166 229.117 46.9672L229.41 44.9888C228.339 44.8301 227.23 44.7114 226.084 44.6324L225.947 46.6276ZM229.122 46.9679C230.175 47.1184 231.147 47.3056 232.037 47.5281L232.522 45.5879C231.556 45.3464 230.517 45.1469 229.405 44.988L229.122 46.9679ZM232.083 47.5386C233.009 47.7237 233.697 47.9362 234.177 48.1602L235.022 46.3478C234.342 46.0304 233.483 45.779 232.476 45.5774L232.083 47.5386ZM233.618 47.062L231.53 57.734L233.493 58.118L235.581 47.446L233.618 47.062ZM232.719 56.9478C229.577 56.28 226.74 55.94 224.217 55.94V57.94C226.566 57.94 229.26 58.2573 232.304 58.9042L232.719 56.9478ZM224.217 55.94C221.704 55.94 219.756 56.1626 218.565 56.7345L219.43 58.5375C220.172 58.1814 221.704 57.94 224.217 57.94V55.94ZM218.565 56.7345C217.143 57.4168 216.547 58.7799 216.547 60.42H218.547C218.547 59.2761 218.918 58.7832 219.43 58.5375L218.565 56.7345ZM216.547 60.42V78.632H218.547V60.42H216.547ZM217.335 79.6092C218.251 79.8084 219.168 79.9679 220.086 80.0876L220.345 78.1044C219.484 77.9921 218.622 77.8423 217.76 77.6548L217.335 79.6092ZM220.132 80.0925C221.089 80.1723 222.064 80.212 223.057 80.212V78.212C222.117 78.212 221.198 78.1744 220.298 78.0995L220.132 80.0925ZM223.057 80.212C227.021 80.212 230.636 79.6373 233.892 78.4715L233.218 76.5885C230.21 77.6654 226.827 78.212 223.057 78.212V80.212ZM285.721 77.53L286.717 77.4412L286.603 76.1523L285.384 76.5885L285.721 77.53ZM286.765 89.246L287.139 90.1736L287.827 89.8965L287.761 89.1572L286.765 89.246ZM265.479 89.71L265.155 90.656L265.167 90.66L265.479 89.71ZM259.041 85.534L259.802 84.8845L259.802 84.8845L259.041 85.534ZM255.677 78.458L254.7 78.6693L254.703 78.6819L255.677 78.458ZM255.619 58.39L254.642 58.1787L254.64 58.1887L255.619 58.39ZM258.867 51.256L259.642 51.8884L259.648 51.8807L258.867 51.256ZM265.131 46.906L264.791 45.9658L264.786 45.9674L265.131 46.906ZM278.181 45.63L278.075 46.6243L278.094 46.6263L278.113 46.6276L278.181 45.63ZM281.429 45.978L281.283 46.9672L281.288 46.9679L281.429 45.978ZM284.445 46.558L284.203 47.5281L284.226 47.5339L284.249 47.5386L284.445 46.558ZM286.765 47.254L287.747 47.446L287.897 46.6785L287.188 46.3478L286.765 47.254ZM284.677 57.926L284.47 58.9042L285.464 59.1154L285.659 58.118L284.677 57.926ZM269.713 78.632H268.713V79.438L269.501 79.6092L269.713 78.632ZM272.381 79.096L272.252 80.0876L272.275 80.0906L272.298 80.0925L272.381 79.096ZM284.725 77.6188L285.769 89.3348L287.761 89.1572L286.717 77.4412L284.725 77.6188ZM286.392 88.3184C283.568 89.4553 280.03 90.044 275.745 90.044V92.044C280.199 92.044 284.008 91.434 287.139 90.1736L286.392 88.3184ZM275.745 90.044C271.671 90.044 268.363 89.6049 265.792 88.76L265.167 90.66C268.009 91.5938 271.546 92.044 275.745 92.044V90.044ZM265.804 88.7641C263.237 87.884 261.252 86.5826 259.802 84.8845L258.281 86.1835C260.001 88.1974 262.309 89.68 265.155 90.6559L265.804 88.7641ZM259.802 84.8845C258.34 83.1735 257.281 80.97 256.652 78.2341L254.703 78.6819C255.389 81.6687 256.572 84.1825 258.281 86.1835L259.802 84.8845ZM256.655 78.2467C256.055 75.4734 255.749 72.1643 255.749 68.308H253.749C253.749 72.2624 254.062 75.7199 254.7 78.6693L256.655 78.2467ZM255.749 68.308C255.749 64.5665 256.036 61.3308 256.599 58.5913L254.64 58.1887C254.043 61.0945 253.749 64.4709 253.749 68.308H255.749ZM256.597 58.6013C257.189 55.8642 258.213 53.6388 259.642 51.8884L258.093 50.6236C256.428 52.6625 255.288 55.1931 254.642 58.1787L256.597 58.6013ZM259.648 51.8807C261.067 50.1078 262.995 48.7568 265.476 47.8446L264.786 45.9674C262.009 46.9886 259.762 48.5375 258.087 50.6313L259.648 51.8807ZM265.472 47.8462C267.995 46.9322 271.234 46.456 275.223 46.456V44.456C271.093 44.456 267.604 44.9465 264.791 45.9658L265.472 47.8462ZM275.223 46.456C276.07 46.456 277.02 46.5113 278.075 46.6243L278.288 44.6357C277.177 44.5167 276.155 44.456 275.223 44.456V46.456ZM278.113 46.6276C279.21 46.7033 280.266 46.8166 281.283 46.9672L281.576 44.9888C280.505 44.8301 279.396 44.7114 278.25 44.6324L278.113 46.6276ZM281.288 46.9679C282.341 47.1184 283.313 47.3056 284.203 47.5281L284.688 45.5879C283.722 45.3464 282.683 45.1469 281.571 44.988L281.288 46.9679ZM284.249 47.5386C285.175 47.7237 285.863 47.9362 286.343 48.1602L287.188 46.3478C286.508 46.0304 285.649 45.779 284.642 45.5774L284.249 47.5386ZM285.784 47.062L283.696 57.734L285.659 58.118L287.747 47.446L285.784 47.062ZM284.885 56.9478C281.743 56.28 278.906 55.94 276.383 55.94V57.94C278.732 57.94 281.426 58.2573 284.47 58.9042L284.885 56.9478ZM276.383 55.94C273.87 55.94 271.922 56.1626 270.731 56.7345L271.596 58.5375C272.338 58.1814 273.87 57.94 276.383 57.94V55.94ZM270.731 56.7345C269.309 57.4168 268.713 58.7799 268.713 60.42H270.713C270.713 59.2761 271.084 58.7832 271.596 58.5375L270.731 56.7345ZM268.713 60.42V78.632H270.713V60.42H268.713ZM269.501 79.6092C270.417 79.8084 271.334 79.9679 272.252 80.0876L272.511 78.1044C271.65 77.9921 270.788 77.8423 269.926 77.6548L269.501 79.6092ZM272.298 80.0925C273.255 80.1723 274.23 80.212 275.223 80.212V78.212C274.283 78.212 273.364 78.1744 272.464 78.0995L272.298 80.0925ZM275.223 80.212C279.187 80.212 282.802 79.6373 286.058 78.4715L285.384 76.5885C282.376 77.6654 278.994 78.212 275.223 78.212V80.212ZM303.563 83.098V82.098H302.764L302.588 82.8767L303.563 83.098ZM301.997 90V91H302.795L302.972 90.2213L301.997 90ZM287.323 90L286.355 89.7496L286.031 91H287.323V90ZM298.575 46.5V45.5H297.801L297.607 46.2496L298.575 46.5ZM320.093 46.5L321.061 46.2496L320.867 45.5H320.093V46.5ZM331.345 90V91H332.636L332.313 89.7496L331.345 90ZM316.671 90L315.697 90.229L315.879 91H316.671V90ZM315.047 83.098L316.02 82.869L315.839 82.098H315.047V83.098ZM309.711 59.84L310.686 59.6172L310.508 58.84H309.711V59.84ZM308.957 59.84V58.84H308.163L307.983 59.6128L308.957 59.84ZM306.115 72.02L305.141 71.7928L304.855 73.02H306.115V72.02ZM312.495 72.02V73.02H313.749L313.47 71.7972L312.495 72.02ZM302.588 82.8767L301.022 89.7787L302.972 90.2213L304.538 83.3193L302.588 82.8767ZM301.997 89H287.323V91H301.997V89ZM288.291 90.2504L299.543 46.7504L297.607 46.2496L286.355 89.7496L288.291 90.2504ZM298.575 47.5H320.093V45.5H298.575V47.5ZM319.125 46.7504L330.377 90.2504L332.313 89.7496L321.061 46.2496L319.125 46.7504ZM331.345 89H316.671V91H331.345V89ZM317.644 89.771L316.02 82.869L314.073 83.327L315.697 90.229L317.644 89.771ZM315.047 82.098H303.563V84.098H315.047V82.098ZM309.711 58.84H308.957V60.84H309.711V58.84ZM307.983 59.6128L305.141 71.7928L307.089 72.2472L309.931 60.0672L307.983 59.6128ZM306.115 73.02H312.495V71.02H306.115V73.02ZM313.47 71.7972L310.686 59.6172L308.736 60.0628L311.52 72.2428L313.47 71.7972ZM361.879 78.864H362.879V77.864H361.879V78.864ZM361.879 90V91H362.879V90H361.879ZM334.039 90H333.039V91H334.039V90ZM334.039 46.5V45.5H333.039V46.5H334.039ZM347.959 46.5H348.959V45.5H347.959V46.5ZM347.959 78.864H346.959V79.864H347.959V78.864ZM360.879 78.864V90H362.879V78.864H360.879ZM361.879 89H334.039V91H361.879V89ZM335.039 90V46.5H333.039V90H335.039ZM334.039 47.5H347.959V45.5H334.039V47.5ZM346.959 46.5V78.864H348.959V46.5H346.959ZM347.959 79.864H361.879V77.864H347.959V79.864ZM393.541 63.494H394.541V62.494H393.541V63.494ZM393.541 73.586V74.586H394.541V73.586H393.541ZM379.621 73.586V72.586H378.621V73.586H379.621ZM379.621 78.864H378.621V79.864H379.621V78.864ZM396.673 78.864H397.673V77.864H396.673V78.864ZM396.673 90V91H397.673V90H396.673ZM365.701 90H364.701V91H365.701V90ZM365.701 46.5V45.5H364.701V46.5H365.701ZM396.325 46.5L397.313 46.6544L397.493 45.5H396.325V46.5ZM394.585 57.636V58.636H395.441L395.573 57.7904L394.585 57.636ZM379.621 57.636V56.636H378.621V57.636H379.621ZM379.621 63.494H378.621V64.494H379.621V63.494ZM392.541 63.494V73.586H394.541V63.494H392.541ZM393.541 72.586H379.621V74.586H393.541V72.586ZM378.621 73.586V78.864H380.621V73.586H378.621ZM379.621 79.864H396.673V77.864H379.621V79.864ZM395.673 78.864V90H397.673V78.864H395.673ZM396.673 89H365.701V91H396.673V89ZM366.701 90V46.5H364.701V90H366.701ZM365.701 47.5H396.325V45.5H365.701V47.5ZM395.337 46.3456L393.597 57.4816L395.573 57.7904L397.313 46.6544L395.337 46.3456ZM394.585 56.636H379.621V58.636H394.585V56.636ZM378.621 57.636V63.494H380.621V57.636H378.621ZM379.621 64.494H393.541V62.494H379.621V64.494ZM441.202 90V91H442.202V90H441.202ZM428.094 90L427.27 90.5668L427.568 91H428.094V90ZM417.48 74.572L418.304 74.0052L418.299 73.9979L418.293 73.9908L417.48 74.572ZM417.016 73.354L416.038 73.5635L416.038 73.5635L417.016 73.354ZM416.784 71.208L417.783 71.1646L417.741 70.208H416.784V71.208ZM416.494 71.208V70.208H415.494V71.208H416.494ZM416.494 90V91H417.494V90H416.494ZM402.574 90H401.574V91H402.574V90ZM402.574 46.5V45.5H401.574V46.5H402.574ZM415.682 46.5L416.506 45.9332L416.208 45.5H415.682V46.5ZM426.296 61.928L425.472 62.4948L425.477 62.5021L425.482 62.5092L426.296 61.928ZM426.992 65.292L425.993 65.3354L426.034 66.292H426.992V65.292ZM427.282 65.292V66.292H428.282V65.292H427.282ZM427.282 46.5V45.5H426.282V46.5H427.282ZM441.202 46.5H442.202V45.5H441.202V46.5ZM441.202 89H428.094V91H441.202V89ZM428.918 89.4332L418.304 74.0052L416.656 75.1388L427.27 90.5668L428.918 89.4332ZM418.293 73.9908C418.216 73.8816 418.097 73.6293 417.994 73.1445L416.038 73.5635C416.166 74.1613 416.357 74.7211 416.666 75.1532L418.293 73.9908ZM417.994 73.1445C417.894 72.6804 417.82 72.0273 417.783 71.1646L415.785 71.2514C415.825 72.1674 415.905 72.9449 416.038 73.5635L417.994 73.1445ZM416.784 70.208H416.494V72.208H416.784V70.208ZM415.494 71.208V90H417.494V71.208H415.494ZM416.494 89H402.574V91H416.494V89ZM403.574 90V46.5H401.574V90H403.574ZM402.574 47.5H415.682V45.5H402.574V47.5ZM414.858 47.0668L425.472 62.4948L427.12 61.3612L416.506 45.9332L414.858 47.0668ZM425.482 62.5092C425.56 62.6184 425.678 62.8706 425.782 63.3555L427.738 62.9365C427.609 62.3387 427.418 61.7789 427.109 61.3468L425.482 62.5092ZM425.782 63.3555C425.881 63.8196 425.955 64.4727 425.993 65.3354L427.991 65.2486C427.951 64.3326 427.87 63.5551 427.738 62.9365L425.782 63.3555ZM426.992 66.292H427.282V64.292H426.992V66.292ZM428.282 65.292V46.5H426.282V65.292H428.282ZM427.282 47.5H441.202V45.5H427.282V47.5ZM440.202 46.5V90H442.202V46.5H440.202ZM448.169 90H447.169V91H448.169V90ZM448.169 46.5V45.5H447.169V46.5H448.169ZM477.459 47.718L477.164 48.6736L477.177 48.6774L477.459 47.718ZM487.145 58.216L486.173 58.4489L486.176 58.4617L487.145 58.216ZM487.145 78.226L486.175 77.9835L486.173 77.9931L487.145 78.226ZM483.781 84.954L483.042 84.2805L483.042 84.2805L483.781 84.954ZM477.459 88.782L477.164 87.8265L477.164 87.8265L477.459 88.782ZM462.089 57.636V56.636H461.089V57.636H462.089ZM462.089 78.864H461.089V79.864H462.089V78.864ZM472.007 78.226L472.471 79.1118L472.479 79.1079L472.486 79.1039L472.007 78.226ZM472.007 58.332L471.511 59.2002L471.535 59.214L471.56 59.2264L472.007 58.332ZM467.657 89H448.169V91H467.657V89ZM449.169 90V46.5H447.169V90H449.169ZM448.169 47.5H467.657V45.5H448.169V47.5ZM467.657 47.5C471.501 47.5 474.661 47.9005 477.164 48.6735L477.755 46.7625C474.999 45.9115 471.625 45.5 467.657 45.5V47.5ZM477.177 48.6774C479.66 49.4077 481.599 50.5777 483.042 52.1615L484.521 50.8145C482.793 48.9183 480.517 47.575 477.742 46.7586L477.177 48.6774ZM483.042 52.1615C484.493 53.754 485.547 55.8351 486.173 58.4489L488.118 57.9831C487.429 55.1062 486.24 52.702 484.521 50.8145L483.042 52.1615ZM486.176 58.4617C486.846 61.1029 487.189 64.3407 487.189 68.192H489.189C489.189 64.2326 488.837 60.8197 488.115 57.9703L486.176 58.4617ZM487.189 68.192C487.189 72.0428 486.846 75.3014 486.175 77.9835L488.116 78.4685C488.837 75.5826 489.189 72.1519 489.189 68.192H487.189ZM486.173 77.9931C485.547 80.6069 484.493 82.688 483.042 84.2805L484.521 85.6275C486.24 83.74 487.429 81.3358 488.118 78.4589L486.173 77.9931ZM483.042 84.2805C481.596 85.8677 479.652 87.0582 477.164 87.8265L477.755 89.7375C480.525 88.8818 482.796 87.5203 484.521 85.6275L483.042 84.2805ZM477.164 87.8265C474.661 88.5995 471.501 89 467.657 89V91C471.625 91 474.999 90.5885 477.755 89.7375L477.164 87.8265ZM467.889 56.636H462.089V58.636H467.889V56.636ZM461.089 57.636V78.864H463.089V57.636H461.089ZM462.089 79.864H467.889V77.864H462.089V79.864ZM467.889 79.864C469.843 79.864 471.429 79.6579 472.471 79.1118L471.543 77.3402C470.962 77.6447 469.803 77.864 467.889 77.864V79.864ZM472.486 79.1039C473.828 78.372 474.283 76.857 474.283 75.152H472.283C472.283 76.6176 471.888 77.152 471.529 77.3481L472.486 79.1039ZM474.283 75.152V61.348H472.283V75.152H474.283ZM474.283 61.348C474.283 59.653 473.832 58.1261 472.455 57.4376L471.56 59.2264C471.885 59.3886 472.283 59.8723 472.283 61.348H474.283ZM472.504 57.4638C471.449 56.8614 469.848 56.636 467.889 56.636V58.636C469.798 58.636 470.941 58.8746 471.511 59.2002L472.504 57.4638ZM505.033 83.098V82.098H504.235L504.058 82.8767L505.033 83.098ZM503.467 90V91H504.266L504.443 90.2213L503.467 90ZM488.793 90L487.825 89.7496L487.502 91H488.793V90ZM500.045 46.5V45.5H499.271L499.077 46.2496L500.045 46.5ZM521.563 46.5L522.532 46.2496L522.338 45.5H521.563V46.5ZM532.815 90V91H534.107L533.784 89.7496L532.815 90ZM518.141 90L517.168 90.229L517.349 91H518.141V90ZM516.517 83.098L517.491 82.869L517.309 82.098H516.517V83.098ZM511.181 59.84L512.156 59.6172L511.979 58.84H511.181V59.84ZM510.427 59.84V58.84H509.634L509.454 59.6128L510.427 59.84ZM507.585 72.02L506.612 71.7928L506.325 73.02H507.585V72.02ZM513.965 72.02V73.02H515.22L514.94 71.7972L513.965 72.02ZM504.058 82.8767L502.492 89.7787L504.443 90.2213L506.009 83.3193L504.058 82.8767ZM503.467 89H488.793V91H503.467V89ZM489.762 90.2504L501.014 46.7504L499.077 46.2496L487.825 89.7496L489.762 90.2504ZM500.045 47.5H521.563V45.5H500.045V47.5ZM520.595 46.7504L531.847 90.2504L533.784 89.7496L522.532 46.2496L520.595 46.7504ZM532.815 89H518.141V91H532.815V89ZM519.115 89.771L517.491 82.869L515.544 83.327L517.168 90.229L519.115 89.771ZM516.517 82.098H505.033V84.098H516.517V82.098ZM511.181 58.84H510.427V60.84H511.181V58.84ZM509.454 59.6128L506.612 71.7928L508.559 72.2472L511.401 60.0672L509.454 59.6128ZM507.585 73.02H513.965V71.02H507.585V73.02ZM514.94 71.7972L512.156 59.6172L510.207 60.0628L512.991 72.2428L514.94 71.7972ZM565.901 75.5L565.448 74.6088L564.549 75.0663L565.014 75.9614L565.901 75.5ZM573.441 90V91H575.088L574.329 89.5386L573.441 90ZM558.129 90L557.214 90.4023L557.476 91H558.129V90ZM552.445 77.066L553.361 76.6637L553.098 76.066H552.445V77.066ZM549.429 77.066V76.066H548.429V77.066H549.429ZM549.429 90V91H550.429V90H549.429ZM535.509 90H534.509V91H535.509V90ZM535.509 46.5V45.5H534.509V46.5H535.509ZM549.429 57.636V56.636H548.429V57.636H549.429ZM549.429 66.336H548.429V67.336H549.429V66.336ZM556.273 65.814L555.863 64.9021L555.854 64.9061L555.845 64.9103L556.273 65.814ZM556.273 58.158L555.845 59.0617L555.854 59.0659L555.863 59.0699L556.273 58.158ZM565.014 75.9614L572.554 90.4614L574.329 89.5386L566.789 75.0386L565.014 75.9614ZM573.441 89H558.129V91H573.441V89ZM559.045 89.5977L553.361 76.6637L551.53 77.4683L557.214 90.4023L559.045 89.5977ZM552.445 76.066H549.429V78.066H552.445V76.066ZM548.429 77.066V90H550.429V77.066H548.429ZM549.429 89H535.509V91H549.429V89ZM536.509 90V46.5H534.509V90H536.509ZM535.509 47.5H557.433V45.5H535.509V47.5ZM557.433 47.5C562.262 47.5 565.701 48.7293 567.942 51.0138C570.187 53.3018 571.397 56.8187 571.397 61.754H573.397C573.397 56.52 572.114 52.4098 569.37 49.6132C566.623 46.813 562.58 45.5 557.433 45.5V47.5ZM571.397 61.754C571.397 68.5222 569.305 72.6455 565.448 74.6088L566.355 76.3912C571.158 73.9465 573.397 68.9058 573.397 61.754H571.397ZM552.619 56.636H549.429V58.636H552.619V56.636ZM548.429 57.636V66.336H550.429V57.636H548.429ZM549.429 67.336H552.619V65.336H549.429V67.336ZM552.619 67.336C554.341 67.336 555.752 67.1673 556.701 66.7177L555.845 64.9103C555.325 65.1567 554.3 65.336 552.619 65.336V67.336ZM556.684 66.7259C557.973 66.1456 558.433 64.8589 558.433 63.436H556.433C556.433 64.4878 556.12 64.7864 555.863 64.9021L556.684 66.7259ZM558.433 63.436V60.536H556.433V63.436H558.433ZM558.433 60.536C558.433 59.1131 557.973 57.8264 556.684 57.2461L555.863 59.0699C556.12 59.1856 556.433 59.4842 556.433 60.536H558.433ZM556.701 57.2543C555.752 56.8047 554.341 56.636 552.619 56.636V58.636C554.3 58.636 555.325 58.8153 555.845 59.0617L556.701 57.2543Z" fill="#CEB7FF"/>
</g>
<g filter="url(#filter1_d_102_21)">
<path d="M4.5 4.5H543.5V19.5H4.5V4.5Z" stroke="#CEB7FF" shape-rendering="crispEdges"/>
</g>
<g filter="url(#filter2_d_102_21)">
<path d="M4.5 112.5H543.5V127.5H4.5V112.5Z" stroke="#CEB7FF" shape-rendering="crispEdges"/>
</g>
<defs>
<filter id="filter0_d_102_21" x="1.49356" y="40.4561" width="576.948" height="55.5879" filterUnits="userSpaceOnUse" color-interpolation-filters="sRGB">
<feFlood flood-opacity="0" result="BackgroundImageFix"/>
<feColorMatrix in="SourceAlpha" type="matrix" values="0 0 0 0 0 0 0 0 0 0 0 0 0 0 0 0 0 0 127 0" result="hardAlpha"/>
<feOffset/>
<feGaussianBlur stdDeviation="2.5"/>
<feComposite in2="hardAlpha" operator="out"/>
<feColorMatrix type="matrix" values="0 0 0 0 0.701961 0 0 0 0 0.466667 0 0 0 0 1 0 0 0 1 0"/>
<feBlend mode="normal" in2="BackgroundImageFix" result="effect1_dropShadow_102_21"/>
<feBlend mode="normal" in="SourceGraphic" in2="effect1_dropShadow_102_21" result="shape"/>
</filter>
<filter id="filter1_d_102_21" x="0" y="0" width="548" height="24" filterUnits="userSpaceOnUse" color-interpolation-filters="sRGB">
<feFlood flood-opacity="0" result="BackgroundImageFix"/>
<feColorMatrix in="SourceAlpha" type="matrix" values="0 0 0 0 0 0 0 0 0 0 0 0 0 0 0 0 0 0 127 0" result="hardAlpha"/>
<feOffset/>
<feGaussianBlur stdDeviation="2"/>
<feComposite in2="hardAlpha" operator="out"/>
<feColorMatrix type="matrix" values="0 0 0 0 0.807843 0 0 0 0 0.717647 0 0 0 0 1 0 0 0 1 0"/>
<feBlend mode="normal" in2="BackgroundImageFix" result="effect1_dropShadow_102_21"/>
<feBlend mode="normal" in="SourceGraphic" in2="effect1_dropShadow_102_21" result="shape"/>
</filter>
<filter id="filter2_d_102_21" x="0" y="108" width="548" height="24" filterUnits="userSpaceOnUse" color-interpolation-filters="sRGB">
<feFlood flood-opacity="0" result="BackgroundImageFix"/>
<feColorMatrix in="SourceAlpha" type="matrix" values="0 0 0 0 0 0 0 0 0 0 0 0 0 0 0 0 0 0 127 0" result="hardAlpha"/>
<feOffset/>
<feGaussianBlur stdDeviation="2"/>
<feComposite in2="hardAlpha" operator="out"/>
<feColorMatrix type="matrix" values="0 0 0 0 0.807843 0 0 0 0 0.717647 0 0 0 0 1 0 0 0 1 0"/>
<feBlend mode="normal" in2="BackgroundImageFix" result="effect1_dropShadow_102_21"/>
<feBlend mode="normal" in="SourceGraphic" in2="effect1_dropShadow_102_21" result="shape"/>
</filter>
</defs>
</svg>
