<svg width="102" height="123" viewBox="0 0 102 123" fill="none" xmlns="http://www.w3.org/2000/svg">
<path d="M56.6008 103.109C56.2041 103.116 55.7762 103.143 55.3226 103.188C50.4664 103.667 42.933 106.158 42.933 106.158L34.3651 118.616C34.1318 118.953 33.7931 119.203 33.4022 119.327C33.0113 119.451 32.5904 119.442 32.2054 119.3C25.5822 116.849 19.7703 113.737 14.9159 109.836C14.613 109.593 14.3948 109.26 14.2926 108.886C14.1904 108.511 14.2094 108.114 14.3468 107.751C14.4531 107.473 14.5774 107.162 14.7197 106.825C15.5171 104.974 16.9085 102.441 18.9144 101.244C22.2756 99.2399 26.7841 101.949 26.7841 101.949C26.7841 101.949 32.8061 93.1125 34.7825 90.91C36.7589 88.7076 43.4055 85.9982 43.4055 85.9982L55.2825 94.3942C55.2825 94.3942 61.2697 103.034 56.6008 103.109Z" fill="#F8F8F8"/>
<path d="M98.351 91.4442C98.3367 92.9126 97.8273 94.3333 96.9053 95.4763C94.7417 98.1649 90.041 102.47 82.5032 101.806C80.7772 101.654 79.2592 100.459 77.9264 98.5598C70.8676 88.5145 68.9499 58.7225 68.9499 58.7225L78.7193 50.7038C78.7193 50.7038 88.263 51.0401 91.7657 54.1756C93.2946 55.5446 94.8219 60.0849 96.0212 66.1272C96.6175 69.1314 97.135 72.5085 97.5281 76.0526C97.8419 78.8734 98.0769 81.797 98.2148 84.7218C98.3237 86.9785 98.3678 89.2352 98.351 91.4442Z" fill="#F8F8F8"/>
<path d="M84.0498 102.689C83.5244 102.689 82.9849 102.665 82.4313 102.617C77.5279 102.185 73.6352 94.5947 70.8606 80.0586C68.8415 69.4805 68.1438 58.8807 68.1372 58.7749C68.1287 58.6673 68.1417 58.5591 68.1754 58.4565C68.2091 58.3539 68.2629 58.2591 68.3336 58.1775C68.4042 58.0959 68.4905 58.0292 68.5872 57.9812C68.6839 57.9332 68.7892 57.9049 68.8969 57.898C69.0047 57.8911 69.1127 57.9057 69.2148 57.9409C69.3168 57.9761 69.4109 58.0312 69.4914 58.1031C69.572 58.175 69.6375 58.2621 69.684 58.3595C69.7306 58.457 69.7573 58.5626 69.7627 58.6705C69.7693 58.7754 70.4617 69.2856 72.4627 79.7659C75.0103 93.105 78.6012 100.644 82.5746 100.994C89.7558 101.625 94.2379 97.4888 96.2706 94.9663C97.0765 93.9653 97.5222 92.7222 97.536 91.4372C97.6758 74.8669 94.1806 57.4324 91.2209 54.7826C87.9809 51.8811 78.7841 51.521 78.6915 51.5179C78.4756 51.5103 78.2716 51.4172 78.1243 51.2592C77.977 51.1011 77.8985 50.8911 77.9061 50.6752C77.9137 50.4592 78.0067 50.2552 78.1648 50.1079C78.3228 49.9606 78.5329 49.8821 78.7488 49.8897C79.1508 49.9038 88.6288 50.2749 92.3074 53.5692C95.9687 56.8475 99.3013 75.2574 99.1651 91.4508C99.1478 93.1037 98.5751 94.7027 97.5391 95.9906C95.4588 98.5699 91.0419 102.688 84.0498 102.689Z" fill="#371A45"/>
<path d="M98.2135 84.7218C95.1617 86.6916 89.8603 88.1081 87.8116 86.5629L88.069 75.7022L88.2013 70.2474C88.2013 70.2474 92.0323 67.4327 96.0212 66.1272C97.8644 65.5242 98.8923 68.2256 99.493 71.5926C99.5001 71.6331 99.5067 71.6785 99.5159 71.7248C100.193 75.6193 100.313 80.3447 100.462 81.8763C100.549 82.7838 99.6204 83.8117 98.2135 84.7218Z" fill="#F8F8F8"/>
<path d="M90.346 88.0336C89.156 88.0336 88.0915 87.7956 87.3193 87.213C87.1504 87.0816 87.0399 86.8891 87.0118 86.6769C86.9837 86.4648 87.0402 86.2501 87.1691 86.0793C87.298 85.9085 87.4889 85.7953 87.7006 85.7641C87.9123 85.7329 88.1278 85.7863 88.3005 85.9127C89.7021 86.9705 93.8209 86.2777 97.1156 84.43C98.9227 83.4163 99.6962 82.4369 99.649 81.9552C99.6076 81.5312 99.5697 80.8974 99.5221 80.0917C99.3304 76.8671 98.8213 68.3019 96.8727 66.9756C96.6819 66.8461 96.5082 66.8245 96.2724 66.9016C92.4594 68.1498 88.717 70.8763 88.6795 70.9037C88.5934 70.9688 88.4952 71.0163 88.3906 71.0432C88.2861 71.07 88.1772 71.0759 88.0703 71.0603C87.9635 71.0447 87.8608 71.0081 87.7682 70.9525C87.6757 70.8968 87.5951 70.8234 87.5312 70.7363C87.4673 70.6493 87.4214 70.5504 87.396 70.4454C87.3707 70.3405 87.3665 70.2315 87.3836 70.1249C87.4008 70.0183 87.439 69.9162 87.4959 69.8244C87.5529 69.7327 87.6276 69.6532 87.7156 69.5906C87.8764 69.4725 91.7 66.6843 95.766 65.3532C96.4804 65.1196 97.1804 65.2148 97.7891 65.6291C100.198 67.2683 100.786 73.9043 101.148 79.9951C101.195 80.7819 101.231 81.4033 101.27 81.7965C101.4 83.1241 100.208 84.564 97.9125 85.8515C95.9101 86.9741 92.8548 88.0336 90.346 88.0336Z" fill="#371A45"/>
<g opacity="0.25">
<path d="M98.2135 84.7218C98.3219 86.9785 98.3691 89.2352 98.351 91.4442C98.3367 92.9127 97.8273 94.3333 96.9053 95.4763C94.7416 98.1649 90.041 102.47 82.5032 101.806C80.7772 101.654 79.2592 100.459 77.9264 98.5598C78.0506 94.1593 78.6651 93.8367 79.153 89.5604C79.6792 84.9254 80.5828 81.9142 81.1862 81.2367L88.0686 75.7022L88.3987 75.4377C88.3987 75.4377 88.6425 78.0175 92.18 77.8954C93.9959 77.8319 96.045 77.1725 97.5268 76.0521C98.9315 74.9882 99.824 73.5085 99.5146 71.7239C100.192 75.6184 100.312 80.3438 100.461 81.8754C100.549 82.7838 99.6204 83.8117 98.2135 84.7218Z" fill="#371A45"/>
</g>
<path d="M98.6172 69.2191C97.3602 69.6034 96.0881 70.0389 94.8708 70.5365C94.036 70.9037 93.069 71.269 92.4303 71.8786C92.3999 71.9081 92.392 71.9293 92.3686 71.9549C92.3686 71.9707 92.3572 71.9654 92.3523 71.9817C92.3123 72.1818 92.2855 72.3842 92.2721 72.5878C92.1976 73.8973 92.2373 75.2552 92.2721 76.596C92.3132 77.9412 92.3704 79.287 92.4435 80.6333C92.2405 79.3008 92.052 77.9655 91.878 76.6273C91.7128 75.2843 91.5395 73.9546 91.4814 72.5724C91.4814 72.352 91.4743 72.0977 91.5065 71.872C91.5197 71.6878 91.6162 71.4885 91.7216 71.3431C92.4501 70.4519 93.4225 70.0049 94.3661 69.4659C95.5866 68.8224 96.8189 68.2609 98.0932 67.7298C99.125 67.345 99.6697 68.8696 98.619 69.2213L98.6172 69.2191Z" fill="#371A45"/>
<path d="M32.8489 120.229C32.5339 120.229 32.2213 120.173 31.926 120.063C25.066 117.527 19.1722 114.299 14.4081 110.471C13.9704 110.121 13.6551 109.641 13.5075 109.1C13.3599 108.559 13.3878 107.986 13.587 107.462C14.3155 105.539 15.923 102.085 18.4992 100.546C21.4492 98.7859 25.0435 100.17 26.524 100.891C27.9279 98.8441 32.4694 92.272 34.1787 90.3675C36.2564 88.0522 42.8201 85.3578 43.0982 85.2441C43.2983 85.1623 43.5226 85.1633 43.7219 85.2468C43.9212 85.3304 44.0791 85.4897 44.1609 85.6897C44.2427 85.8897 44.2418 86.114 44.1582 86.3133C44.0746 86.5126 43.9153 86.6705 43.7153 86.7524C41.9153 87.4871 36.9105 89.7645 35.3929 91.4552C33.4748 93.5925 27.5202 102.321 27.4593 102.409C27.3423 102.581 27.1639 102.701 26.9608 102.746C26.7577 102.79 26.5453 102.755 26.3671 102.648C26.327 102.624 22.2293 100.218 19.3344 101.943C17.1818 103.227 15.7643 106.312 15.1111 108.037C15.0343 108.239 15.0237 108.461 15.0808 108.67C15.1379 108.879 15.2598 109.064 15.4289 109.199C20.0568 112.917 25.7968 116.058 32.4914 118.534C32.7062 118.614 32.9414 118.619 33.1597 118.55C33.3781 118.481 33.5671 118.341 33.6969 118.152L42.2652 105.695C42.3661 105.549 42.512 105.439 42.6809 105.384C43.0529 105.261 51.8512 102.369 56.5894 102.293C57.2946 102.282 57.4268 102.031 57.4673 101.949C58.0654 100.785 56.1191 97.0282 54.6152 94.8557C54.5494 94.768 54.5019 94.6679 54.4757 94.5614C54.4495 94.455 54.445 94.3443 54.4626 94.2361C54.4802 94.1278 54.5194 94.0243 54.578 93.9316C54.6365 93.8389 54.7132 93.759 54.8034 93.6966C54.8936 93.6343 54.9955 93.5908 55.1029 93.5687C55.2103 93.5467 55.3211 93.5466 55.4285 93.5684C55.536 93.5902 55.6379 93.6335 55.7283 93.6956C55.8186 93.7578 55.8955 93.8375 55.9542 93.9301C56.67 94.9632 60.1767 100.241 58.9161 102.695C58.6349 103.243 58.0073 103.901 56.6154 103.923C52.5604 103.989 44.9472 106.368 43.4509 106.848L35.039 119.077C34.7949 119.432 34.4679 119.723 34.0863 119.924C33.7047 120.124 33.28 120.229 32.8489 120.229Z" fill="#371A45"/>
<g opacity="0.25">
<path d="M56.9217 99.3818C56.9217 99.89 56.5827 100.173 56.1874 101.189C56.0225 101.612 55.7109 102.341 55.3244 103.188C50.4681 103.667 42.9347 106.158 42.9347 106.158L34.3669 118.616C34.1335 118.953 33.7948 119.203 33.404 119.327C33.0131 119.451 32.5921 119.442 32.2072 119.3C25.5839 116.849 19.7721 113.737 14.9176 109.836C14.6148 109.593 14.3966 109.26 14.2943 108.886C14.1921 108.511 14.2111 108.114 14.3486 107.751C14.4548 107.473 14.5791 107.162 14.7215 106.825L16.9125 108.115C24.5248 112.258 30.0677 112.547 32.7515 107.512C32.7515 107.512 37.9467 100.51 42.0955 97.6183C46.2444 94.727 45.6846 90.1189 45.6846 90.1189L55.6801 98.1375C56.0181 98.4218 56.9217 98.8736 56.9217 99.3818Z" fill="#371A45"/>
</g>
<path d="M43.0304 106.61C42.9762 106.61 42.9222 106.604 42.8695 106.591C34.5992 104.581 29.5957 98.1093 29.3868 97.8347C29.3329 97.764 29.2934 97.6832 29.2707 97.5972C29.248 97.5112 29.2424 97.4215 29.2543 97.3333C29.2663 97.2452 29.2954 97.1602 29.3402 97.0833C29.385 97.0064 29.4445 96.9391 29.5152 96.8851C29.586 96.8312 29.6668 96.7918 29.7528 96.7691C29.8388 96.7463 29.9285 96.7408 30.0167 96.7527C30.1048 96.7646 30.1898 96.7938 30.2667 96.8386C30.3436 96.8834 30.4109 96.9428 30.4649 97.0136C30.5195 97.0846 35.404 103.382 43.1895 105.274C43.3506 105.313 43.4919 105.41 43.5866 105.546C43.6812 105.682 43.7227 105.848 43.7031 106.013C43.6834 106.178 43.6041 106.329 43.4802 106.439C43.3562 106.549 43.1962 106.61 43.0304 106.61Z" fill="#371A45"/>
<path d="M26.5721 89.1206C26.5721 89.1206 32.9754 87.8062 38.0498 84.0783L25.5791 85.0281" fill="#F8F8F8"/>
<g opacity="0.25">
<path d="M26.5721 89.1206C26.5721 89.1206 32.9754 87.8062 38.0498 84.0783L25.5791 85.0281" fill="#371A45"/>
</g>
<path d="M26.5712 89.9351C26.3696 89.9348 26.1753 89.8597 26.0258 89.7244C25.8763 89.5891 25.7824 89.4031 25.7621 89.2025C25.7418 89.0019 25.7966 88.8009 25.916 88.6384C26.0353 88.4759 26.2107 88.3635 26.4081 88.3228C26.4703 88.31 32.7035 86.9952 37.5676 83.422C37.7419 83.2988 37.9576 83.2489 38.1683 83.2831C38.379 83.3173 38.5678 83.4329 38.6942 83.6049C38.8206 83.7769 38.8744 83.9916 38.8441 84.2029C38.8137 84.4142 38.7017 84.6051 38.532 84.7346C33.3752 88.5251 27.0045 89.8632 26.7356 89.9183C26.6815 89.9295 26.6264 89.9351 26.5712 89.9351Z" fill="#371A45"/>
<path d="M79.2275 107.814L70.3841 119.371C68.1804 122.25 64.1316 123.016 61.0665 121.078C58.3471 119.359 56.0494 116.149 54.6355 112.765C53.5741 110.233 53.0091 107.602 53.1268 105.418C53.1744 104.646 53.4337 103.902 53.8761 103.267L54.7845 101.941C54.7845 101.941 46.831 99.5171 45.1187 87.1094V83.8703C45.1187 83.8703 40.9782 83.5948 40.6754 83.0549C40.3726 82.5149 36.5442 69.3394 36.5442 69.3394C36.5442 69.3394 41.7306 60.9025 49.1846 57.6294C52.6992 56.0868 57.6079 55.4948 61.8114 55.2982C66.5236 55.0779 70.3524 55.3591 70.3524 55.3591L76.9796 55.0091C76.9796 55.0091 82.6156 56.6152 85.6264 61.9594C88.6372 67.3036 89.5434 76.7393 86.8327 81.5484C90.3548 93.529 88.8434 102.829 79.2275 107.814Z" fill="#F8F8F8"/>
<path d="M64.7464 122.949C63.2903 122.953 61.8631 122.543 60.6315 121.766C55.3865 118.446 52.0394 110.462 52.3136 105.373C52.3698 104.452 52.6783 103.564 53.2052 102.807L53.5468 102.308C51.2496 101.191 45.7291 97.4821 44.3125 87.22C44.3072 87.1832 44.3046 87.1461 44.3046 87.1089V84.627C40.444 84.3084 40.1355 83.757 39.9658 83.4524C39.6643 82.9125 37.2023 74.5209 35.7614 69.5686C35.7296 69.4595 35.7211 69.345 35.7363 69.2324C35.7514 69.1199 35.79 69.0117 35.8496 68.915C36.0669 68.5624 41.2576 60.2237 48.8576 56.8858C56.41 53.5687 69.8429 54.5084 70.4106 54.5498C70.6244 54.5677 70.8226 54.6691 70.962 54.8322C71.1014 54.9953 71.1709 55.2068 71.1553 55.4208C71.1396 55.6348 71.0402 55.834 70.8786 55.9751C70.717 56.1162 70.5062 56.1879 70.292 56.1745C70.1567 56.1648 56.6929 55.2233 49.5121 58.3782C43.1613 61.1674 38.4214 67.9656 37.4288 69.4712C38.7877 74.1379 40.8848 81.2394 41.341 82.5286C41.9073 82.7336 43.6955 82.9628 45.1729 83.0615C45.3791 83.0752 45.5723 83.1668 45.7135 83.3177C45.8547 83.4687 45.9332 83.6676 45.9332 83.8742V87.0556C47.5719 98.7634 54.9475 101.144 55.022 101.166C55.1444 101.203 55.2562 101.269 55.3485 101.357C55.4408 101.446 55.5109 101.555 55.5532 101.676C55.5956 101.796 55.6089 101.925 55.5921 102.052C55.5753 102.179 55.5289 102.3 55.4566 102.405L54.5487 103.73C54.191 104.241 53.9803 104.839 53.9395 105.461C53.6896 110.089 56.871 117.458 61.5016 120.389C64.1743 122.081 67.7912 121.416 69.7358 118.876L78.5809 107.321C78.6538 107.226 78.7466 107.148 78.8528 107.093C87.4035 102.661 89.7563 94.381 86.0513 81.7789C86.0205 81.6744 86.0111 81.5649 86.0234 81.4567C86.0357 81.3485 86.0696 81.2439 86.1231 81.149C88.5345 76.8715 87.9492 67.7412 84.9181 62.3614C82.1158 57.387 76.8082 55.8082 76.7561 55.7941C76.5484 55.7348 76.3728 55.5954 76.2678 55.4065C76.1629 55.2177 76.1373 54.9949 76.1966 54.7872C76.2559 54.5795 76.3954 54.4038 76.5842 54.2989C76.773 54.1939 76.9958 54.1683 77.2035 54.2276C77.4468 54.2968 83.1978 55.9907 86.3373 61.5627C89.2758 66.7782 90.4399 76.3514 87.7076 81.6427C89.5244 87.9548 89.8638 93.1464 88.746 97.5099C87.526 102.27 84.5051 105.951 79.7648 108.456L71.0303 119.868C69.4947 121.871 67.1296 122.949 64.7464 122.949Z" fill="#371A45"/>
<path d="M51.1456 71.7239H68.3258C69.0654 71.7239 69.7747 72.0177 70.2977 72.5407C70.8207 73.0637 71.1145 73.773 71.1145 74.5126V84.9144C71.1145 85.6421 70.8301 86.3409 70.322 86.8618C69.814 87.3827 69.1224 87.6845 68.395 87.7026L51.2148 88.1289C50.8428 88.138 50.4728 88.0727 50.1265 87.9367C49.7802 87.8007 49.4646 87.5968 49.1983 87.337C48.932 87.0772 48.7204 86.7667 48.5759 86.4238C48.4314 86.081 48.3569 85.7127 48.3569 85.3406V74.5126C48.3569 73.773 48.6507 73.0637 49.1737 72.5407C49.6967 72.0177 50.406 71.7239 51.1456 71.7239Z" fill="#F8F8F8"/>
<path d="M51.1425 88.9451C50.1874 88.9442 49.2717 88.5641 48.5966 87.8884C47.9216 87.2127 47.5424 86.2966 47.5424 85.3415V74.5126C47.5436 73.5573 47.9236 72.6415 48.599 71.966C49.2745 71.2905 50.1903 70.9106 51.1456 70.9094H68.3258C69.2811 70.9106 70.1969 71.2905 70.8724 71.966C71.5478 72.6415 71.9278 73.5573 71.929 74.5126V84.9144C71.9343 85.8561 71.5686 86.7621 70.911 87.4362C70.2534 88.1104 69.3569 88.4985 68.4153 88.5167L51.2351 88.9429C51.2042 88.9444 51.1733 88.9451 51.1425 88.9451ZM51.1456 72.5384C50.6222 72.539 50.1204 72.7472 49.7503 73.1173C49.3802 73.4874 49.172 73.9892 49.1714 74.5126V85.3415C49.1713 85.6049 49.224 85.8657 49.3262 86.1085C49.4285 86.3512 49.5783 86.5711 49.7668 86.755C49.9554 86.939 50.1788 87.0834 50.424 87.1797C50.6692 87.2759 50.9312 87.3222 51.1945 87.3157L68.3747 86.8894C68.8907 86.8795 69.3821 86.6668 69.7425 86.2973C70.1028 85.9279 70.3033 85.4314 70.3004 84.9153V74.5134C70.2997 73.99 70.0914 73.4882 69.7213 73.1181C69.3511 72.748 68.8492 72.5399 68.3258 72.5393L51.1456 72.5384Z" fill="#371A45"/>
<path d="M46.195 71.9121H63.3752C64.1149 71.9122 64.8242 72.2061 65.3472 72.7292C65.8701 73.2522 66.1639 73.9616 66.1639 74.7012V85.1031C66.164 85.8307 65.8797 86.5297 65.3716 87.0506C64.8635 87.5715 64.1719 87.8732 63.4444 87.8913L46.2642 88.3175C45.8923 88.3267 45.5222 88.2613 45.1759 88.1253C44.8296 87.9893 44.514 87.7854 44.2477 87.5256C43.9814 87.2658 43.7698 86.9553 43.6253 86.6125C43.4808 86.2696 43.4063 85.9013 43.4063 85.5293V74.7012C43.4063 74.335 43.4784 73.9723 43.6185 73.6339C43.7586 73.2955 43.964 72.988 44.223 72.729C44.4819 72.47 44.7894 72.2646 45.1277 72.1244C45.4661 71.9842 45.8288 71.9121 46.195 71.9121Z" fill="#F8F8F8"/>
<path d="M58.0328 88.8164C57.8266 88.8164 57.6285 88.7357 57.4809 88.5916C57.3333 88.4474 57.2479 88.2513 57.243 88.0451C57.2086 86.6483 57.1672 84.4596 57.2073 83.3317C55.9688 83.0231 52.2536 82.5317 48.9153 82.1857C48.7271 82.1663 48.5521 82.08 48.4222 81.9425C48.2922 81.805 48.2159 81.6254 48.2071 81.4364L47.7553 71.9491C47.7479 71.844 47.7615 71.7385 47.7955 71.6388C47.8294 71.5391 47.8829 71.4471 47.9529 71.3684C48.0229 71.2896 48.1079 71.2256 48.2029 71.1802C48.298 71.1348 48.4011 71.1088 48.5063 71.1037C48.6116 71.0987 48.7167 71.1148 48.8157 71.151C48.9146 71.1871 49.0053 71.2427 49.0825 71.3145C49.1596 71.3862 49.2217 71.4726 49.2649 71.5687C49.3082 71.6647 49.3319 71.7685 49.3345 71.8738L49.7541 80.6836C58.1016 81.57 58.4507 82.0552 58.6622 82.3488C58.7322 82.4452 58.781 82.5553 58.8054 82.6719C58.8298 82.7885 58.8292 82.909 58.8037 83.0253C58.7495 83.3705 58.7702 85.833 58.8236 88.0059C58.8286 88.2155 58.7503 88.4185 58.6057 88.5703C58.4612 88.7221 58.2622 88.8104 58.0527 88.8155L58.0328 88.8164ZM57.2602 82.6846C57.2562 82.7018 57.2531 82.719 57.2505 82.7362C57.2536 82.7168 57.2567 82.6996 57.2602 82.6829V82.6846Z" fill="#371A45"/>
<path d="M46.1924 89.1333C45.2372 89.1325 44.3213 88.7525 43.6462 88.0768C42.9711 87.401 42.5918 86.4849 42.5918 85.5297V74.7008C42.593 73.7455 42.973 72.8297 43.6485 72.1542C44.3239 71.4787 45.2397 71.0988 46.195 71.0976H63.3752C64.3305 71.0988 65.2463 71.4787 65.9218 72.1542C66.5973 72.8297 66.9773 73.7455 66.9784 74.7008V85.1026C66.9837 86.0443 66.618 86.9503 65.9604 87.6244C65.3028 88.2986 64.4063 88.6867 63.4647 88.7049L46.2845 89.1311L46.1924 89.1333ZM46.195 72.7266C45.6716 72.7272 45.1697 72.9354 44.7996 73.3055C44.4294 73.6755 44.2211 74.1773 44.2204 74.7008V85.5297C44.2205 85.7931 44.2732 86.0539 44.3755 86.2966C44.4778 86.5393 44.6277 86.7592 44.8162 86.9431C45.0048 87.1271 45.2282 87.2714 45.4734 87.3677C45.7186 87.464 45.9806 87.5103 46.2439 87.5038L63.4242 87.0776C63.9401 87.0677 64.4314 86.855 64.7917 86.4855C65.1521 86.116 65.3524 85.6195 65.3494 85.1035V74.7016C65.3488 74.1782 65.1406 73.6765 64.7705 73.3064C64.4004 72.9363 63.8986 72.7281 63.3752 72.7275L46.195 72.7266Z" fill="#371A45"/>
<path d="M65.6249 81.9186L65.5618 83.1113C65.5417 83.483 65.3834 83.8337 65.118 84.0947C64.8526 84.3556 64.4991 84.508 64.1272 84.5217L42.2683 85.301L12.054 86.3808C11.8579 86.3878 11.6622 86.3559 11.4784 86.287C11.2946 86.2182 11.1262 86.1137 10.9828 85.9796C10.8395 85.8454 10.7241 85.6843 10.6432 85.5055C10.5623 85.3266 10.5175 85.1335 10.5114 84.9373L10.473 83.6975C10.4657 83.4669 10.5122 83.2378 10.609 83.0283C10.7058 82.8189 10.8502 82.635 11.0306 82.4911H11.0332C11.2818 82.2877 11.5906 82.1718 11.9117 82.1615L42.0448 81.1155H42.1057L64.0844 80.3522C64.2909 80.345 64.4966 80.3808 64.6884 80.4573C64.8803 80.5338 65.0542 80.6494 65.199 80.7967C65.3439 80.944 65.4565 81.1198 65.5298 81.3129C65.6031 81.506 65.6355 81.7123 65.6249 81.9186Z" fill="#BCC4CC"/>
<g opacity="0.61">
<path d="M65.6249 81.9186L65.5808 82.7454C65.4967 82.4152 65.3023 82.1235 65.0297 81.919C64.7572 81.7144 64.4228 81.6091 64.0822 81.6206L42.1273 82.384L42.096 81.1146L64.0857 80.3513C64.2922 80.3443 64.4978 80.3802 64.6896 80.4569C64.8813 80.5336 65.0551 80.6493 65.1998 80.7966C65.3445 80.944 65.457 81.1198 65.5302 81.313C65.6034 81.5061 65.6356 81.7123 65.6249 81.9186Z" fill="#CEB7FF"/>
</g>
<path d="M42.3137 85.1895L42.2639 85.185L11.0332 82.4925H11.0306L9.84496 79.8973L0.828412 60.173C0.712977 59.9219 0.666973 59.6444 0.695189 59.3694C0.723406 59.0945 0.824811 58.8321 0.988847 58.6097L1.68921 57.6563C1.82568 57.4721 2.0013 57.3205 2.20342 57.2123C2.40554 57.1042 2.62914 57.0422 2.85809 57.0309L29.0337 55.646C29.9024 55.5995 30.7635 55.8282 31.4947 56.2994C32.2259 56.7707 32.7898 57.4605 33.1063 58.2707L33.1605 58.4065L42.0448 81.1191L42.1982 83.4524L42.3137 85.1895Z" fill="#BCC4CC"/>
<g opacity="0.61">
<path d="M42.0695 81.4928L33.5581 59.7353C33.2415 58.9251 32.6776 58.2354 31.9464 57.7641C31.2152 57.2929 30.3541 57.0643 29.4855 57.1106L3.30987 58.4968C3.08091 58.5086 2.85741 58.571 2.65551 58.6797C2.4536 58.7883 2.27832 58.9403 2.14231 59.1249L1.44194 60.0778C1.2729 60.3069 1.17054 60.5783 1.1462 60.8619L0.828412 60.173C0.712977 59.9219 0.666973 59.6444 0.695189 59.3694C0.723406 59.0945 0.824811 58.8321 0.988847 58.6096L1.68921 57.6563C1.82568 57.4721 2.00129 57.3205 2.20342 57.2123C2.40554 57.1042 2.62914 57.0422 2.85809 57.0309L29.0337 55.646C29.9024 55.5995 30.7635 55.8282 31.4947 56.2994C32.2259 56.7707 32.7898 57.4605 33.1063 58.2707L42.0448 81.1191L42.0695 81.4928Z" fill="#CEB7FF"/>
</g>
<path d="M11.9994 87.0728C11.4335 87.0721 10.8902 86.8513 10.4841 86.4573C10.078 86.0632 9.84109 85.5267 9.82336 84.9611L9.78457 83.72C9.76719 83.1435 9.97856 82.5836 10.3725 82.1625C10.7665 81.7413 11.3111 81.4932 11.8874 81.4721L64.0606 79.6602C64.3626 79.6497 64.6634 79.7022 64.944 79.8142C65.2246 79.9262 65.4788 80.0954 65.6906 80.3109C65.9023 80.5264 66.0669 80.7836 66.174 81.0661C66.2811 81.3487 66.3282 81.6504 66.3124 81.9521L66.2503 83.1448C66.2244 83.6897 65.994 84.2049 65.605 84.5875C65.2161 84.9701 64.6972 85.1919 64.1518 85.2088L12.0792 87.0688C12.0527 87.0724 12.0258 87.0728 11.9994 87.0728ZM11.9355 82.8517C11.7238 82.8595 11.5238 82.9507 11.3791 83.1053C11.2344 83.2599 11.1566 83.4655 11.1628 83.6772L11.2012 84.9184C11.2045 85.0238 11.2286 85.1276 11.2721 85.2237C11.3156 85.3198 11.3777 85.4064 11.4548 85.4784C11.5319 85.5505 11.6224 85.6066 11.7212 85.6435C11.8201 85.6805 11.9252 85.6975 12.0307 85.6937L64.1029 83.8337C64.3034 83.8275 64.4942 83.7459 64.6372 83.6052C64.7801 83.4645 64.8648 83.2751 64.8743 83.0747L64.9368 81.882C64.943 81.7711 64.9259 81.6601 64.8865 81.5562C64.8471 81.4524 64.7863 81.3579 64.7081 81.2791C64.6309 81.199 64.5376 81.1363 64.4343 81.095C64.331 81.0538 64.2202 81.0349 64.1091 81.0397L11.9355 82.8517Z" fill="#371A45"/>
<path d="M42.3137 85.8779C42.1389 85.8777 41.9706 85.8111 41.843 85.6916C41.7155 85.572 41.6381 85.4084 41.6266 85.234L41.3647 81.2672L32.465 58.518C32.2012 57.8427 31.7312 57.2679 31.122 56.875C30.5127 56.4821 29.7951 56.2913 29.0712 56.3296L2.89599 57.714C2.76878 57.7206 2.64463 57.7554 2.53255 57.8159C2.42047 57.8764 2.3233 57.9612 2.24808 58.064L1.54728 59.0165C1.45666 59.1403 1.40071 59.286 1.38521 59.4386C1.36972 59.5913 1.39523 59.7453 1.45913 59.8848L11.66 82.2051C11.6976 82.2874 11.7187 82.3763 11.7219 82.4667C11.7252 82.5572 11.7106 82.6474 11.679 82.7322C11.6474 82.817 11.5994 82.8947 11.5378 82.961C11.4761 83.0273 11.402 83.0807 11.3197 83.1183C11.2374 83.156 11.1485 83.177 11.0581 83.1803C10.9676 83.1835 10.8774 83.1689 10.7926 83.1374C10.7078 83.1058 10.6301 83.0578 10.5638 82.9961C10.4976 82.9345 10.4441 82.8604 10.4065 82.7781L0.202533 60.4591C0.0367387 60.0961 -0.0291056 59.6955 0.0118081 59.2986C0.0527218 58.9017 0.19891 58.523 0.435253 58.2015L1.13605 57.2486C1.33194 56.9815 1.58481 56.7613 1.87633 56.604C2.16785 56.4468 2.49071 56.3564 2.8215 56.3393L28.9967 54.9545C30.0102 54.9002 31.0151 55.167 31.8683 55.7169C32.7214 56.2668 33.3794 57.0718 33.7485 58.0173L42.687 80.8656C42.712 80.9315 42.7268 81.0007 42.7311 81.071L43 85.1432C43.006 85.2335 42.9942 85.3241 42.9652 85.4098C42.9361 85.4956 42.8905 85.5747 42.8309 85.6428C42.7712 85.7109 42.6987 85.7666 42.6175 85.8066C42.5364 85.8466 42.4481 85.8703 42.3578 85.8762C42.3446 85.8775 42.3291 85.8779 42.3137 85.8779Z" fill="#371A45"/>
<g opacity="0.25">
<path d="M42.2683 85.3023L12.054 86.3821C11.8579 86.3891 11.6622 86.3572 11.4784 86.2883C11.2946 86.2195 11.1262 86.115 10.9828 85.9809C10.8395 85.8468 10.7241 85.6856 10.6432 85.5068C10.5623 85.3279 10.5175 85.1349 10.5114 84.9387L10.473 83.6988C10.4657 83.4682 10.5122 83.2391 10.609 83.0297C10.7058 82.8202 10.8502 82.6363 11.0306 82.4925L9.84496 79.8973C23.861 79.5447 32.6761 74.4531 31.7197 61.4693V57.6294L33.1605 58.4043L42.0448 81.1169H42.1057C42.1396 81.9481 42.1713 82.7362 42.1982 83.4529C42.2233 84.099 42.2458 84.6839 42.2639 85.1877C42.2661 85.2256 42.2661 85.2639 42.2683 85.3023Z" fill="#371A45"/>
</g>
<path d="M15.1891 87.2971C15.1891 87.2971 16.507 82.2902 21.8155 83.154C27.1239 84.0179 28.366 89.2907 24.6389 91.2106C20.9119 93.1306 9.05292 92.8295 10.5585 83.4176C10.5585 83.4194 11.0099 86.1675 15.1891 87.2971Z" fill="#F8F8F8"/>
<g opacity="0.25">
<path d="M24.6381 91.2115C22.0632 92.5377 15.6074 92.804 12.359 89.7389C15.5056 90.5812 19.1335 90.1704 20.9097 89.2541C23.422 87.96 23.6768 85.1432 21.9486 83.18C27.1416 84.1122 28.3338 89.3074 24.6381 91.2115Z" fill="#371A45"/>
</g>
<path d="M19.7589 92.9595C17.2602 92.9595 14.5386 92.3936 12.5618 90.9616C10.9125 89.7667 9.08642 87.466 9.7546 83.2924C9.78507 83.1015 9.88252 82.9276 10.0295 82.8019C10.1765 82.6763 10.3634 82.607 10.5568 82.6066C10.75 82.6061 10.9371 82.6742 11.0846 82.7989C11.2322 82.9235 11.3307 83.0966 11.3625 83.2871C11.377 83.3634 11.7724 85.2445 14.6796 86.2843C15.5241 84.2921 17.7649 81.6691 21.9464 82.351C24.9585 82.8424 27.1557 84.7443 27.544 87.1962C27.8525 89.1554 26.8828 90.9713 25.0123 91.9352C23.8033 92.5589 21.86 92.9595 19.7589 92.9595ZM11.3404 86.1776C11.5912 87.6141 12.3185 88.7741 13.5173 89.6424C16.6132 91.885 22.0372 91.6368 24.2661 90.4882C25.5103 89.8474 26.1344 88.712 25.9348 87.4514C25.725 86.1265 24.486 84.4168 21.6841 83.9597C17.1584 83.2206 16.023 87.3293 15.9768 87.5043C15.9494 87.6082 15.9018 87.7056 15.8367 87.791C15.7716 87.8764 15.6902 87.9481 15.5972 88.002C15.5043 88.0558 15.4016 88.0907 15.2951 88.1047C15.1886 88.1187 15.0804 88.1115 14.9767 88.0835C13.2736 87.6229 12.1197 86.9062 11.3404 86.1776Z" fill="#371A45"/>
<path d="M76.0338 75.3663C75.7354 77.8919 74.6423 80.3425 73.0723 81.5466L65.6271 79.0506C65.6271 79.0506 63.8676 81.0834 59.4358 80.6316C55.004 80.1798 52.9699 75.6912 52.9699 75.6912C52.9699 75.6912 51.079 79.617 48.7911 78.036C48.1674 77.6045 47.8655 77.0734 47.7676 76.518C47.6389 75.7952 47.8492 75.0291 48.1361 74.3856C48.4833 73.6221 48.9714 72.9308 49.5747 72.348L53.817 68.1714C57.3929 63.4663 62.4007 66.8544 65.8633 68.8489H74.3342C75.8597 70.3602 76.3273 72.8981 76.0338 75.3663Z" fill="#F8F8F8"/>
<path d="M73.0723 82.3624C72.9843 82.3618 72.8969 82.3469 72.8136 82.3184L65.8179 79.9735C65.0012 80.6223 62.9693 81.8106 59.352 81.4421C56.027 81.1032 53.9523 78.772 52.9487 77.2788C52.4031 78.021 51.5868 78.8655 50.5686 79.1357C49.8039 79.3384 49.0295 79.1886 48.3283 78.7042C46.8442 77.6781 46.5123 76.0257 47.393 74.0515C47.7818 73.1953 48.3281 72.4197 49.0035 71.7653L53.2052 67.6302C56.9891 62.7135 62.1693 65.7446 65.6011 67.7523L66.0832 68.0335H74.3333C74.5479 68.0334 74.7539 68.1182 74.9063 68.2693C76.3485 69.6964 77.0779 72.0629 76.9082 74.7616C76.7125 77.8689 75.4013 80.7859 73.5682 82.1923C73.4262 82.3021 73.2518 82.3619 73.0723 82.3624ZM65.6271 78.2378C65.7151 78.2384 65.8025 78.2533 65.8858 78.2819L72.8938 80.6312C74.1861 79.4138 75.1289 77.0853 75.2814 74.6629C75.4136 72.586 74.9394 70.7882 73.9781 69.666H65.8629C65.7202 69.6661 65.58 69.6285 65.4565 69.5572C65.2361 69.4302 65.0091 69.2975 64.7768 69.1605C60.5848 66.7077 57.1632 65.1139 54.4632 68.6655C54.4396 68.6967 54.4138 68.7262 54.386 68.7537L50.1433 72.9289C49.6132 73.4408 49.1839 74.0477 48.8779 74.718C48.0629 76.5445 48.9268 77.1421 49.2521 77.3669C49.6585 77.6481 49.9573 77.6137 50.1481 77.5644C51.0883 77.3176 51.9923 75.8375 52.2347 75.3386C52.3021 75.1993 52.4079 75.0821 52.5395 75.0008C52.6711 74.9194 52.8232 74.8772 52.978 74.8792C53.1327 74.8811 53.2837 74.9271 53.4132 75.0117C53.5428 75.0964 53.6455 75.2162 53.7095 75.3571C53.7275 75.3963 55.6166 79.4266 59.516 79.8241C63.4154 80.2217 64.9955 78.5371 65.0104 78.5204C65.0869 78.4317 65.1815 78.3605 65.2879 78.3118C65.3943 78.263 65.51 78.2378 65.6271 78.2378Z" fill="#371A45"/>
<path d="M52.255 75.2998L55.2838 71.485L53.6821 76.0848C53.6465 76.1872 53.591 76.2816 53.5189 76.3626C53.4467 76.4437 53.3593 76.5097 53.2617 76.5569C53.164 76.6041 53.058 76.6317 52.9497 76.6379C52.8414 76.6442 52.7329 76.629 52.6305 76.5934C52.0989 76.4197 51.9024 75.7291 52.255 75.2998Z" fill="#371A45"/>
<path d="M64.8835 78.7192L66.8039 76.7371L66.3702 79.3851L64.8835 78.7192Z" fill="#371A45"/>
<g opacity="0.25">
<path d="M76.0338 75.3663C75.7354 77.8918 74.6423 80.3424 73.0723 81.5466L65.6271 79.0506C65.6271 79.0506 63.8676 81.0834 59.4358 80.6316C55.004 80.1798 52.9699 75.6912 52.9699 75.6912C52.9699 75.6912 51.079 79.617 48.7911 78.036C48.1674 77.6045 47.8655 77.0734 47.7676 76.518L48.0184 76.2672C48.0184 76.2672 49.7127 77.3964 51.5581 74.8736C53.3652 72.4022 55.7145 70.3285 55.8092 70.2456C55.7506 70.3902 53.914 74.9802 57.6163 77.1307C61.3817 79.3146 65.9378 73.3287 65.9378 73.3287C65.9378 73.3287 68.6484 75.7004 75.1994 75.3619C75.4774 75.3462 75.756 75.3477 76.0338 75.3663Z" fill="#371A45"/>
</g>
<path d="M54.2895 101.296C56.6162 99.6207 60.3279 97.9366 63.1222 99.3862C64.4123 100.162 65.5275 101.215 66.5002 102.345C67.4484 103.446 68.2701 104.649 68.9499 105.932C67.2548 104.13 65.4239 102.489 63.2734 101.293C62.4651 100.852 61.6197 100.511 60.6871 100.493C58.753 100.502 56.8415 101.491 55.2803 102.588C54.4054 103.234 53.4344 101.978 54.2895 101.296Z" fill="#371A45"/>
<path d="M66.2877 122.773C66.1032 122.773 65.9245 122.708 65.7825 122.59C65.6405 122.472 65.5443 122.309 65.5104 122.127C65.4764 121.946 65.5071 121.758 65.5969 121.597C65.6867 121.436 65.8301 121.311 66.0021 121.245C66.2097 121.164 66.5046 120.991 66.6633 120.418C67.4734 117.487 63.7543 109.722 60.9471 106.117C58.0311 102.373 55.6845 102.738 55.5862 102.755C55.485 102.777 55.3805 102.778 55.2788 102.759C55.1771 102.74 55.0801 102.701 54.9935 102.644C54.9069 102.588 54.8324 102.514 54.7742 102.429C54.716 102.343 54.6753 102.247 54.6544 102.146C54.6122 101.939 54.6534 101.725 54.7691 101.549C54.8847 101.373 55.0653 101.25 55.2715 101.207C55.4072 101.177 58.6212 100.554 62.1971 105.146C64.8579 108.562 69.2611 116.964 68.1892 120.84C67.9353 121.759 67.3773 122.408 66.5751 122.719C66.4836 122.755 66.3861 122.773 66.2877 122.773Z" fill="#371A45"/>
<path d="M61.2561 99.1306C61.2399 99.1461 61.2251 99.163 61.212 99.1813C61.208 99.1866 61.1953 99.2077 61.1992 99.2007C61.2261 99.1566 61.2913 99.0442 61.3187 98.9992C62.5003 96.9991 63.9138 95.1466 65.4953 93.4457C67.677 91.0528 70.768 89.333 74.012 89.017C74.8117 88.9646 75.6147 89.007 76.4044 89.143C75.6137 89.2039 74.8433 89.3193 74.1024 89.5296C71.8986 90.1634 69.976 91.4689 68.3399 93.0415C67.7947 93.5621 67.2354 94.0672 66.6928 94.5992C65.3476 95.9488 64.1964 97.4936 63.1668 99.0975C63.0742 99.2469 62.8045 99.6806 62.7176 99.8309L62.6431 99.957L62.6035 100.024C62.0027 101.089 60.4984 100.097 61.253 99.1319L61.2561 99.1306Z" fill="#371A45"/>
<path d="M75.5639 113.279C75.4036 113.279 75.2485 113.222 75.1262 113.118C75.0039 113.014 74.9224 112.87 74.8962 112.712C73.5589 104.656 68.525 98.1019 63.6741 98.1019C63.4973 98.0973 63.3294 98.024 63.2059 97.8974C63.0825 97.7708 63.0135 97.601 63.0135 97.4242C63.0135 97.2474 63.0825 97.0776 63.2059 96.951C63.3294 96.8244 63.4973 96.751 63.6741 96.7465C69.2514 96.7465 74.7679 103.662 76.233 112.49C76.2624 112.667 76.2202 112.849 76.1156 112.995C76.0111 113.141 75.8527 113.24 75.6754 113.27C75.6386 113.276 75.6013 113.279 75.5639 113.279Z" fill="#371A45"/>
<path d="M74.1958 68.0471L78.7202 68.0969L74.4713 69.6524C73.2226 70.0186 72.896 68.1185 74.1958 68.0471Z" fill="#371A45"/>
<path d="M81.6697 84.2581C77.5076 84.2581 73.0432 82.4189 72.7576 82.2994C72.5614 82.214 72.4067 82.0547 72.327 81.8561C72.2473 81.6575 72.2489 81.4355 72.3315 81.2381C72.4141 81.0407 72.5711 80.8838 72.7686 80.8012C72.966 80.7186 73.188 80.7171 73.3866 80.7969C76.0752 81.9212 83.6214 84.1537 86.2046 81.0291C86.3432 80.8658 86.5405 80.7636 86.7539 80.7447C86.9672 80.7258 87.1795 80.7917 87.3446 80.9282C87.5097 81.0646 87.6144 81.2606 87.6361 81.4737C87.6578 81.6868 87.5946 81.8998 87.4604 82.0667C86.0962 83.7169 83.9268 84.2581 81.6697 84.2581Z" fill="#371A45"/>
<path d="M71.8184 68.7889L71.6231 65.1227L73.3861 68.3433C73.4919 68.5378 73.5163 68.7662 73.4541 68.9786C73.3919 69.191 73.2481 69.3702 73.0542 69.4769C72.5324 69.7793 71.8382 69.3861 71.8201 68.7889H71.8184Z" fill="#371A45"/>
<path d="M43.8528 72.0166C43.9868 70.8236 44.1962 69.6403 44.4796 68.4738C44.7612 67.3256 45.12 66.1854 45.6255 65.1214C45.2597 66.8359 45.2412 68.5677 45.3302 70.2994C45.3633 70.8688 45.41 71.4546 45.4801 71.9967C45.5749 73.2049 43.7867 73.2309 43.8493 72.0166H43.8528Z" fill="#371A45"/>
<g opacity="0.25">
<path d="M86.8332 81.5484C90.3548 93.529 88.8434 102.829 79.2275 107.814L70.3841 119.371C68.1804 122.25 64.1316 123.016 61.0666 121.078C58.3471 119.359 56.0494 116.149 54.6355 112.765C54.8999 112.978 55.1664 113.21 55.435 113.461C64.6199 122.045 63.6732 109.621 63.6732 109.621C72.4918 117.24 67.9221 104.704 67.8498 104.5L71.114 107.062C71.114 107.062 71.8862 105.029 78.7193 99.0429C85.5523 93.0565 81.5432 85.9418 81.5432 85.9418C76.6865 86.9018 71.114 83.344 71.114 83.4502C71.114 83.5564 66.691 82.8922 66.5218 83.0051C66.3525 83.1179 66.4835 79.3393 66.4835 79.3393L73.4743 81.7066L76.0338 75.3663C77.8814 75.3394 81.9518 75.3222 81.9518 75.3222C86.5938 65.6089 77.9876 60.2894 77.9876 60.2894C67.4884 64.9089 54.6064 61.5433 54.1273 61.4076L61.8119 55.2952C66.524 55.0748 70.3528 55.356 70.3528 55.356L76.9801 55.006C76.9801 55.006 82.616 56.6121 85.6268 61.9563C88.6376 67.3005 89.5438 76.7393 86.8332 81.5484Z" fill="#371A45"/>
</g>
<g opacity="0.25">
<path d="M94.7396 54.205L94.6716 54.1779C94.6942 54.1659 94.7396 54.205 94.7396 54.205Z" fill="#371A45"/>
</g>
<path d="M59.4446 61.3657C76.1332 61.3657 89.6619 47.8369 89.6619 31.1483C89.6619 14.4597 76.1332 0.930967 59.4446 0.930967C42.756 0.930967 29.2272 14.4597 29.2272 31.1483C29.2272 47.8369 42.756 61.3657 59.4446 61.3657Z" fill="#F8F8F8"/>
<g opacity="0.25">
<path d="M87.6926 41.8781C81.7654 57.4809 64.3145 65.3237 48.7139 59.3968C43.9105 57.5807 39.6523 54.5643 36.3454 50.6355C38.4624 52.1474 40.7658 53.3796 43.1983 54.3017C58.8011 60.2281 76.2497 52.3857 82.1766 36.7852C86.2121 26.1607 83.862 14.6786 77.0255 6.56207C87.9284 14.3471 92.6736 28.7669 87.6926 41.8781Z" fill="#371A45"/>
</g>
<path d="M31.3887 42.7323C33.0794 46.6237 35.913 50.8052 40.5811 54.7649C53.9536 63.6722 71.9665 60.2303 79.584 41.7133L78.3808 26.3679C77.7399 24.0024 76.43 21.7589 74.6344 19.7261C63.6159 7.26948 34.3312 2.7297 29.5304 26.8554C29.5304 26.8554 27.6229 34.0675 31.3887 42.7323Z" fill="#371A45"/>
<g opacity="0.7">
<path d="M31.3887 42.7323C33.0794 46.6237 35.9131 50.8052 40.5811 54.7649C53.9536 63.6722 71.9665 60.2303 79.5841 41.7133L78.3808 26.3679C77.7399 24.0024 76.43 21.7589 74.6344 19.7261C78.6748 40.7 52.9135 62.0304 31.5764 42.8253L31.3887 42.7323Z" fill="#111A28"/>
</g>
<path d="M58.2052 62.044C57.6219 62.044 57.027 62.0243 56.4206 61.985C56.3193 61.9804 56.2199 61.9556 56.1283 61.9121C56.0367 61.8687 55.9546 61.8074 55.887 61.7318C55.8194 61.6563 55.7675 61.568 55.7344 61.4722C55.7013 61.3763 55.6876 61.2748 55.6942 61.1736C55.7008 61.0724 55.7275 60.9736 55.7728 60.8829C55.818 60.7921 55.881 60.7113 55.9578 60.6452C56.0347 60.5791 56.124 60.5289 56.2205 60.4977C56.3169 60.4665 56.4187 60.4549 56.5197 60.4635C64.1713 60.9637 70.7249 58.1821 76.0011 52.1975C79.6083 48.1077 81.3585 43.8324 81.6649 43.0395L81.0222 24.1222C78.0617 17.4069 72.07 12.005 64.1364 8.90028C56.0146 5.72066 47.2079 5.56596 40.5784 8.48553C40.3942 8.56228 40.1872 8.56373 40.0019 8.48958C39.8166 8.41543 39.6678 8.27158 39.5874 8.08892C39.5069 7.90626 39.5013 7.69935 39.5718 7.5126C39.6422 7.32585 39.783 7.17416 39.964 7.09009C46.9566 4.01009 56.2011 4.15598 64.6905 7.48016C73.0569 10.7554 79.3738 16.4976 82.4785 23.648C82.5168 23.7357 82.538 23.83 82.5411 23.9257L83.1938 43.1426C83.1972 43.2385 83.1822 43.334 83.1498 43.4243C83.0775 43.627 81.3339 48.4432 77.1802 53.1689C73.5532 57.2953 67.3826 62.0431 58.2052 62.044Z" fill="#371A45"/>
<path d="M55.5769 60.2012C50.2958 60.2012 44.9344 58.5581 40.1672 55.3824C40.0066 55.2712 39.8961 55.1014 39.8595 54.9095C39.8229 54.7176 39.863 54.519 39.9713 54.3564C40.0797 54.1939 40.2475 54.0803 40.4387 54.0403C40.6299 54.0002 40.8291 54.0368 40.9936 54.1421C47.5944 58.5391 55.3817 59.8385 62.3589 57.7079C69.567 55.5041 75.4101 49.7861 78.8273 41.5916L77.6425 26.4957C76.4525 22.1851 72.706 17.945 67.3575 14.8597C62.0181 11.7771 55.621 10.1225 49.8074 10.3173C43.7065 10.5231 33.0543 12.9618 30.2599 27.0021C30.2213 27.196 30.1073 27.3666 29.9429 27.4764C29.7786 27.5862 29.5773 27.6263 29.3835 27.5877C29.1896 27.5491 29.019 27.4351 28.9092 27.2707C28.7994 27.1064 28.7593 26.9051 28.7979 26.7112C30.9858 15.7214 38.6268 9.20308 49.7572 8.82756C62.7776 8.39077 76.4842 16.4967 79.0992 26.174C79.1112 26.2185 79.119 26.2641 79.1226 26.3102L80.3272 41.6538C80.3362 41.7704 80.3178 41.8875 80.2734 41.9958C76.6927 50.6985 70.4851 56.7849 62.7939 59.1341C60.4544 59.8455 58.0222 60.2051 55.5769 60.2012Z" fill="#371A45"/>
<path d="M59.4574 62.2975C55.6741 62.2937 51.9232 61.6004 48.3886 60.2515C32.3425 54.1549 24.2453 36.139 30.3414 20.0928C33.2945 12.3188 39.0984 6.16055 46.6834 2.75174C54.2683 -0.657072 62.7269 -0.90654 70.5005 2.04653C86.548 8.14307 94.6438 26.1581 88.5477 42.2056C85.5946 49.9792 79.7908 56.1375 72.2058 59.5463C68.1991 61.3557 63.8537 62.2934 59.4574 62.2975ZM59.4327 1.83012C55.2945 1.83432 51.2044 2.71739 47.4331 4.42088C40.2928 7.62915 34.8314 13.4255 32.0507 20.7425C26.3129 35.8468 33.9332 52.8031 49.0374 58.5409C56.354 61.3203 64.3154 61.0841 71.4543 57.8758C78.5932 54.6675 84.056 48.8711 86.8367 41.5546L87.6918 41.8794L86.8367 41.5546C92.5745 26.4503 84.9542 9.49354 69.8499 3.75578C66.5233 2.4864 62.9932 1.83385 59.4327 1.83012Z" fill="#371A45"/>
<path d="M90.6453 33.4412C90.7167 38.8598 88.0254 43.2259 83.81 43.2806C79.5946 43.3353 76.1206 38.9881 76.0492 33.5694C75.9778 28.1508 79.3372 23.7128 83.5522 23.6577C87.7671 23.6026 90.5743 28.0225 90.6453 33.4412Z" fill="#F8F8F8"/>
<g opacity="0.25">
<path d="M83.8091 43.2793C79.5951 43.3339 76.1201 38.9872 76.0518 33.569C76.0293 31.85 76.3502 30.2302 76.9369 28.8189C77.6355 33.3944 80.8019 36.8323 84.5509 36.7843C87.3396 36.7464 89.4614 34.826 90.558 31.9606C90.6113 32.4455 90.6413 32.9382 90.6461 33.4398C90.7153 38.8598 88.0263 43.2246 83.8091 43.2793Z" fill="#371A45"/>
</g>
<path d="M83.7293 44.196C81.4374 44.196 79.2852 43.0809 77.661 41.049C76.0686 39.0564 75.1716 36.4044 75.1342 33.5813C75.0566 27.6668 78.8273 22.8048 83.5403 22.7427C85.8388 22.7189 87.9302 23.8596 89.4023 25.9734C90.7555 27.9149 91.5215 30.563 91.5594 33.4293C91.6405 39.6073 88.3859 44.1352 83.8215 44.1952L83.7293 44.196ZM83.6311 24.5718H83.5645C79.8622 24.6207 76.8994 28.651 76.9642 33.5566C76.9959 35.9751 77.7509 38.2286 79.0904 39.9062C80.3761 41.5149 82.0479 42.3885 83.7981 42.3651C87.303 42.3211 89.7977 38.5711 89.7303 33.4531C89.6976 30.9487 89.0484 28.6638 87.902 27.018C87.1214 25.8994 85.7489 24.5718 83.6311 24.5718Z" fill="#371A45"/>
<path d="M86.3585 42.6415C82.6698 42.6415 79.625 38.5222 79.5567 33.4165C79.5254 30.9764 80.1667 28.6647 81.3638 26.9065C82.6164 25.0641 84.327 24.0367 86.1808 24.0129C86.5577 24.0087 86.9338 24.048 87.3017 24.1302C87.3338 24.1373 87.3655 24.1464 87.3964 24.1575C87.5807 24.2238 87.7323 24.3584 87.82 24.5335C87.9077 24.7085 87.9247 24.9106 87.8675 25.0978C87.8103 25.2851 87.6832 25.4431 87.5127 25.5393C87.3421 25.6354 87.1411 25.6622 86.9513 25.6142C86.7042 25.5609 86.452 25.5353 86.1993 25.538C84.859 25.5547 83.5892 26.3454 82.6248 27.7638C81.6036 29.2659 81.0557 31.2665 81.0822 33.3962C81.1395 37.668 83.5015 41.1165 86.3571 41.1165H86.4052C86.7869 41.1129 87.165 41.0433 87.5229 40.9107C87.6172 40.8737 87.7178 40.8558 87.819 40.8581C87.9202 40.8604 88.0199 40.8828 88.1123 40.924C88.2048 40.9653 88.2881 41.0245 88.3574 41.0983C88.4267 41.172 88.4806 41.2589 88.516 41.3537C88.5514 41.4485 88.5676 41.5494 88.5636 41.6506C88.5596 41.7517 88.5355 41.851 88.4927 41.9428C88.4499 42.0345 88.3892 42.1168 88.3143 42.1848C88.2394 42.2529 88.1517 42.3053 88.0563 42.3391C87.5341 42.5329 86.9824 42.635 86.4255 42.6411L86.3585 42.6415Z" fill="#371A45"/>
<g opacity="0.5">
<path d="M51.7922 15.0396C42.8325 20.6244 37.6254 28.3645 36.7007 38.5632C36.6266 39.3808 35.4692 39.4927 35.2418 38.7042C31.5094 25.7685 33.3434 14.586 51.3563 13.6605C52.1285 13.6195 52.448 14.6301 51.7922 15.0396Z" fill="#CEB7FF"/>
</g>
<g opacity="0.5">
<path d="M69.2241 33.9352L69.0641 33.9485C68.358 34.0059 67.6559 33.7985 67.0944 33.3667C66.5329 32.9349 66.1521 32.3096 66.0264 31.6125C65.997 31.4473 65.9661 31.2873 65.9338 31.1325C65.62 29.5947 66.595 28.0912 68.1336 27.7748L68.2544 27.7501C68.949 27.6079 69.6716 27.7295 70.2815 28.0911C70.8913 28.4527 71.3446 29.0285 71.553 29.7062C71.6171 29.9119 71.6775 30.1176 71.7342 30.3232C71.8477 30.7279 71.8703 31.1527 71.8005 31.5672C71.7306 31.9816 71.57 32.3755 71.3302 32.7207C71.0903 33.0658 70.7771 33.3537 70.413 33.5636C70.049 33.7736 69.6429 33.9005 69.2241 33.9352Z" fill="#CEB7FF"/>
</g>
<g opacity="0.5">
<path d="M63.3858 51.2327C63.0579 51.0368 62.7727 50.7768 62.5474 50.4683C62.322 50.1597 62.1611 49.809 62.0742 49.437C61.9874 49.0649 61.9763 48.6792 62.0417 48.3028C62.1071 47.9264 62.2477 47.567 62.4549 47.2461C63.8173 45.1499 64.7827 42.8212 65.3031 40.376C65.6346 38.8232 67.1415 37.8196 68.6938 38.1528L69.0936 38.2383C70.6601 38.5742 71.6531 40.1384 71.267 41.6934C70.3048 45.5655 68.4968 48.601 67.16 50.4557C66.7426 51.0344 66.1232 51.4354 65.4243 51.5793C64.7254 51.7232 63.9979 51.5995 63.3858 51.2327Z" fill="#CEB7FF"/>
</g>
<g opacity="0.25">
<path d="M48.3569 96.4226C48.3569 96.4226 58.3709 99.2315 66.1635 93.4338L62.555 98.8172L61.2693 99.667C58.5534 99.8186 56.35 100.436 54.9727 101.805C52.2153 100.795 49.9339 99.1085 48.3569 96.4226Z" fill="#371A45"/>
</g>
<g opacity="0.25">
<path d="M45.1592 66.8443C45.1592 66.8443 41.7773 69.8635 40.0024 75.8979L42.3128 80.8969L43.1225 80.3499C43.1225 80.3499 43.4989 74.111 43.405 73.9982C43.3111 73.8854 44.4108 72.7275 44.6656 71.0614C44.9203 69.3954 44.9018 68.3693 44.9018 68.3693" fill="#371A45"/>
</g>
<path d="M27.432 101.455L28.7984 104.577L26.1388 102.445C26.0526 102.377 25.9807 102.292 25.9273 102.195C25.874 102.099 25.8402 101.993 25.8279 101.883C25.8156 101.774 25.8251 101.663 25.8558 101.557C25.8864 101.451 25.9377 101.352 26.0066 101.266C26.3804 100.775 27.1966 100.889 27.4294 101.455H27.432Z" fill="#371A45"/>
<path d="M82.4648 58.7088C82.3121 58.7087 82.1624 58.6655 82.033 58.5844C81.9036 58.5033 81.7996 58.3873 81.7329 58.2499C81.6662 58.1125 81.6395 57.9591 81.6558 57.8072C81.6722 57.6553 81.7309 57.5111 81.8253 57.391C85.689 52.4809 91.6365 53.3325 91.8882 53.3708C92.0985 53.4069 92.2863 53.5242 92.4111 53.6973C92.5359 53.8704 92.5878 54.0856 92.5556 54.2966C92.5233 54.5076 92.4096 54.6975 92.2388 54.8254C92.068 54.9534 91.8538 55.0092 91.6423 54.9809C91.4258 54.9487 86.3695 54.2501 83.1053 58.3981C83.0291 58.4951 82.9318 58.5735 82.8209 58.6273C82.7099 58.6811 82.5882 58.709 82.4648 58.7088Z" fill="#371A45"/>
<g opacity="0.25">
<path d="M82.787 51.0882C82.787 51.0882 78.1547 53.221 84.6488 60.292C82.3154 57.9031 79.8943 56.0427 77.3172 55.1193L80.9032 50.8638" fill="#371A45"/>
</g>
<path d="M24.4913 65.3114C24.5929 65.5326 24.6803 65.76 24.7531 65.9923C23.8055 66.7654 21.9323 67.8505 19.6901 68.8757C17.448 69.9009 15.4033 70.6092 14.1983 70.8208C14.0703 70.6138 13.9555 70.3988 13.8545 70.1773L13.84 70.146C13.7956 70.047 13.754 69.9474 13.7152 69.8472C13.6255 69.6157 13.5507 69.3786 13.4913 69.1376C13.4913 69.1279 13.4865 69.1182 13.4843 69.1085C13.1691 67.7946 13.3184 66.4122 13.9068 65.196C14.4953 63.9798 15.4866 63.0048 16.7124 62.4365C17.9382 61.8683 19.3229 61.7419 20.6313 62.0789C21.9397 62.4158 23.0912 63.1952 23.8901 64.2848C23.9077 64.3086 23.9249 64.3324 23.9417 64.3567C24.0852 64.5592 24.2156 64.7708 24.3322 64.99C24.3763 65.0725 24.4203 65.1562 24.4587 65.2413C24.4697 65.2646 24.4807 65.2875 24.4913 65.3114Z" fill="#CEB7FF"/>
<path d="M25.0004 68.2494C24.9232 69.136 24.6449 69.9933 24.1864 70.7561C23.728 71.5188 23.1015 72.167 22.3548 72.6511C21.6081 73.1353 20.7608 73.4427 19.8773 73.5499C18.9939 73.6572 18.0976 73.5615 17.2567 73.2701C16.7171 73.0829 16.2077 72.818 15.7445 72.4838C17.1774 72.1171 18.8329 71.5278 20.5452 70.7445C22.2575 69.9613 23.7856 69.0939 25.0004 68.2494Z" fill="#CEB7FF"/>
<path d="M24.7531 65.9919C23.8055 66.7654 21.9323 67.851 19.6906 68.8757C17.4489 69.9005 15.4029 70.6092 14.1979 70.8208C14.0702 70.6136 13.9554 70.3987 13.8541 70.1773L13.84 70.146C13.7959 70.0468 13.7518 69.9472 13.7152 69.8472C13.6256 69.6156 13.5508 69.3786 13.4913 69.1376C13.4887 69.1279 13.4865 69.1182 13.4843 69.1085C13.208 67.9538 13.2893 66.7424 13.7176 65.635C14.1458 64.5276 14.9007 63.5767 15.882 62.9083C15.2204 63.938 14.8968 65.1485 14.9564 66.3709C14.9746 66.7309 15.0262 67.0885 15.1107 67.4389C15.1107 67.4486 15.1155 67.4583 15.1177 67.468C15.1199 67.4777 15.1252 67.4966 15.1309 67.5151C15.4289 68.5201 16.511 68.9405 17.5551 68.8458C19.5447 68.6655 23.8535 66.3366 24.7703 65.7988C24.8346 65.9535 24.7037 65.8354 24.7531 65.9919Z" fill="#CEB7FF"/>
<path d="M20.5452 70.7445C22.2575 69.9613 23.7856 69.0939 25.0004 68.2494C24.9796 68.4875 24.9442 68.724 24.8941 68.9577C23.9597 69.6427 22.4656 70.4902 20.7246 71.2867C19.0572 72.0496 17.5022 72.6089 16.3814 72.884C16.1606 72.7645 15.9479 72.6308 15.7445 72.4838C17.1774 72.1171 18.8329 71.5278 20.5452 70.7445Z" fill="#CEB7FF"/>
<path d="M24.4587 65.2413C24.4697 65.2646 24.4807 65.2853 24.4913 65.3113C24.5929 65.5326 24.6803 65.76 24.7531 65.9923C23.8055 66.7654 21.9323 67.8505 19.6901 68.8757C17.448 69.9009 15.4033 70.6092 14.1983 70.8208C14.0703 70.6137 13.9554 70.3988 13.8545 70.1773L13.84 70.146C14.9833 70.0138 17.0667 69.3284 19.3494 68.2838C21.7247 67.1978 23.6644 66.0223 24.4587 65.2413Z" fill="#CEB7FF"/>
<path d="M13.3208 68.2375L13.3393 67.8435C14.1366 67.8814 16.2187 67.2101 18.4027 66.2127C21.008 65.0227 22.689 63.8815 23.0033 63.372L23.3387 63.5792C22.9231 64.2531 21.0053 65.4555 18.5666 66.5715C16.2959 67.609 14.1877 68.2785 13.3208 68.2375Z" fill="#CEB7FF"/>
<path d="M13.6042 66.2466L13.5447 65.857C14.4403 65.7199 15.9926 65.1796 17.5952 64.4466C19.2745 63.6783 20.7246 62.833 21.3857 62.2402L21.6502 62.5328C20.9644 63.1499 19.4737 64.0217 17.7605 64.8054C16.1257 65.552 14.5359 66.1047 13.6042 66.2466Z" fill="#CEB7FF"/>
<path d="M13.4843 69.3055V68.9114C14.3993 68.9114 16.5506 68.2089 18.8377 67.1625C21.2372 66.065 23.2488 64.834 23.7301 64.1693L24.0496 64.4003C23.5243 65.1262 21.4959 66.3802 19.0021 67.5213C16.6313 68.6056 14.4654 69.3059 13.4843 69.3055Z" fill="#CEB7FF"/>
<path d="M17.2642 73.3684L17.2567 73.2705L17.2126 73.1824L17.2307 73.1727H17.2514C18.0421 73.1123 19.5482 72.6182 21.086 71.9139C22.6348 71.2056 23.9558 70.4153 24.5345 69.8467L24.6724 69.9878C24.0787 70.5691 22.7358 71.3757 21.1684 72.0928C19.5843 72.8165 18.0889 73.3053 17.2642 73.3684Z" fill="#CEB7FF"/>
<path d="M25.0004 68.2494C24.9107 69.2802 24.5492 70.2687 23.9529 71.1143C23.3565 71.9598 22.5466 72.632 21.6057 73.0624C20.6648 73.4929 19.6266 73.6661 18.597 73.5644C17.5673 73.4628 16.583 73.0899 15.7445 72.4838C17.1774 72.1171 18.8329 71.5278 20.5452 70.7445C22.2575 69.9613 23.7856 69.0939 25.0004 68.2494Z" fill="#CEB7FF"/>
<path d="M27.8534 64.6846C28.2099 65.4634 27.0516 66.8236 25.0004 68.2494C23.7856 69.0939 22.2575 69.9613 20.5452 70.7445C18.8329 71.5278 17.1774 72.1171 15.7445 72.4838C13.3243 73.1039 11.5379 73.0902 11.1813 72.3114C10.8578 71.6036 11.783 70.4162 13.4913 69.138C13.5507 69.3791 13.6255 69.6161 13.7152 69.8476C13.2432 70.2372 13.01 70.5458 13.0929 70.7243C13.1758 70.9028 13.5746 70.9305 14.1983 70.8212C15.4033 70.6097 17.4502 69.9009 19.6901 68.8762C21.9301 67.8514 23.8055 66.7658 24.7531 65.9927C25.2437 65.5921 25.4856 65.2752 25.4023 65.0932C25.319 64.9111 24.9356 64.8882 24.3322 64.9905C24.2156 64.7712 24.0852 64.5597 23.9417 64.3571C26.0273 63.9009 27.5299 63.9767 27.8534 64.6846Z" fill="#CEB7FF"/>
<path d="M13.6791 69.7524C13.691 69.7841 13.7029 69.8159 13.7152 69.8476C13.2432 70.2368 13.01 70.5449 13.0929 70.7238C13.1757 70.9028 13.5751 70.9301 14.1983 70.8208C14.9974 70.6806 16.1676 70.3214 17.519 69.796C17.4971 69.9056 17.4971 70.0184 17.519 70.1279C16.9971 70.3241 16.4916 70.4968 16.012 70.6445C13.9268 71.2854 12.8386 71.2765 12.7116 70.9971C12.6371 70.8336 12.8536 70.4215 13.6791 69.7524Z" fill="#CEB7FF"/>
<path d="M13.5222 69.4686L13.572 69.5307C13.2176 69.7994 12.8836 70.0941 12.5728 70.4122C12.7584 70.142 13.0744 69.8282 13.5222 69.4686Z" fill="#CEB7FF"/>
<path d="M13.624 69.5931L13.5738 69.5304C13.5809 69.5242 13.5893 69.5184 13.5977 69.5122L13.624 69.5931Z" fill="#CEB7FF"/>
<path d="M12.5746 70.414C12.382 70.697 12.3326 70.9336 12.4221 71.1298C12.5115 71.3259 12.7147 71.4268 12.999 71.4718C13.7404 71.5895 15.0164 71.2845 16.1059 70.9495C16.5991 70.7983 17.1196 70.6194 17.6556 70.418C17.7587 70.5502 17.9121 70.6498 18.1105 70.7265C17.3171 71.0293 16.5484 71.2854 15.8278 71.4868C13.2591 72.2052 12.1431 72.0122 11.9672 71.6291C11.8698 71.4149 12.0104 71.0068 12.5746 70.414Z" fill="#CEB7FF"/>
<path d="M20.4421 70.7926C18.7672 71.5525 17.1501 72.1246 15.7462 72.4838C13.3265 73.1039 11.5397 73.0903 11.1835 72.311C10.86 71.6058 11.7852 70.4158 13.4935 69.1376C13.5112 69.2084 13.5301 69.279 13.5504 69.3496L13.453 69.2222C12.4613 69.9812 11.3484 71.0377 11.6798 71.7601C11.8077 72.0395 12.1105 72.1907 12.5111 72.2541C13.4543 72.4027 14.9353 72.0673 15.9159 71.7931C16.8466 71.5285 17.7627 71.2153 18.6605 70.8547C19.133 70.9147 19.7369 70.8926 20.4421 70.7926Z" fill="#CEB7FF"/>
<path d="M17.6556 70.4179C17.1192 70.6194 16.5978 70.7983 16.1059 70.9495C15.0163 71.2845 13.7404 71.5895 12.999 71.4718C12.7147 71.4277 12.5093 71.3202 12.4221 71.1298C12.3348 70.9394 12.3819 70.6969 12.5746 70.414C12.8853 70.0958 13.2193 69.8012 13.5738 69.5325L13.6236 69.5946C13.6416 69.648 13.6601 69.7008 13.6791 69.7542C12.8536 70.4232 12.6371 70.8353 12.7121 70.9984C12.8399 71.2783 13.9272 71.2871 16.0125 70.6458C16.492 70.4982 16.9975 70.3254 17.5194 70.1293C17.5296 70.1798 17.5456 70.2291 17.567 70.276C17.5907 70.3267 17.6204 70.3744 17.6556 70.4179Z" fill="#CEB7FF"/>
<path d="M13.5738 69.5307C13.2193 69.7994 12.8854 70.094 12.5746 70.4122C12.7584 70.1403 13.0744 69.8264 13.5239 69.4668L13.5738 69.5307Z" fill="#CEB7FF"/>
<path d="M13.6236 69.5924L13.7232 69.7167C13.7082 69.7282 13.6936 69.7401 13.6791 69.752C13.6601 69.6991 13.6416 69.6462 13.6236 69.5924Z" fill="#CEB7FF"/>
<path d="M23.6036 67.5209C22.5581 68.1754 21.2971 68.8462 19.9568 69.4602C19.1775 69.8168 18.4009 70.1407 17.6556 70.4197C17.6205 70.3757 17.5909 70.3276 17.5674 70.2765C17.546 70.2295 17.53 70.1803 17.5198 70.1297C18.2652 69.8516 19.0435 69.5276 19.8246 69.1706C21.1526 68.5628 22.4008 67.899 23.4339 67.2511C25.2824 66.0924 25.9863 65.2637 25.8581 64.9847C25.7814 64.8177 25.3137 64.7119 24.2273 64.9133L24.1832 64.6775L24.1687 64.5995C24.7372 64.4937 25.1824 64.4598 25.509 64.4986C25.8462 64.5391 26.0569 64.6568 26.1463 64.8512C26.4641 65.5397 24.9378 66.6834 23.6036 67.5209Z" fill="#CEB7FF"/>
<path d="M18.6583 70.8547C17.7605 71.2153 16.8444 71.5285 15.9137 71.7931C14.9326 72.0673 13.4521 72.4027 12.5089 72.2541C12.1082 72.1907 11.8037 72.0395 11.6776 71.7601C11.3462 71.0377 12.4591 69.9812 13.4508 69.2222L13.5482 69.3496C13.5641 69.4042 13.5799 69.4589 13.5976 69.5126C13.5892 69.5188 13.5808 69.5245 13.5738 69.5307L13.524 69.4686C13.0744 69.8282 12.7584 70.142 12.5746 70.414C12.0104 71.0068 11.8694 71.4149 11.9672 71.6278C12.1435 72.0108 13.2591 72.2039 15.8278 71.4855C16.5484 71.284 17.3175 71.028 18.1105 70.7252C18.2874 70.7897 18.4713 70.8332 18.6583 70.8547Z" fill="#CEB7FF"/>
<path d="M13.5222 69.4686L13.572 69.5307C13.2176 69.7994 12.8836 70.0941 12.5728 70.4122C12.7584 70.142 13.0744 69.8282 13.5222 69.4686Z" fill="#CEB7FF"/>
<path d="M13.5482 69.3496L13.6447 69.4756L13.5976 69.5126C13.5799 69.4602 13.5663 69.4042 13.5482 69.3496Z" fill="#CEB7FF"/>
<path d="M24.3648 67.9259C23.2025 68.6972 21.789 69.4686 20.2768 70.1623C19.7338 70.4109 19.1916 70.6423 18.6566 70.8547C18.4695 70.8332 18.2856 70.7897 18.1087 70.7251C18.7756 70.4713 19.4596 70.1848 20.1446 69.8718C21.6431 69.1873 23.0394 68.4222 24.1889 67.6601C26.4121 66.1858 26.9957 65.2153 26.8207 64.8318C26.7233 64.6194 26.324 64.4589 25.5094 64.4968C25.0637 64.5236 24.6205 64.5834 24.1836 64.6758L24.0955 64.6938L24.0307 64.3813C25.2529 64.127 26.7801 63.9763 27.1107 64.6987C27.5422 65.6379 25.5769 67.1242 24.3648 67.9259Z" fill="#CEB7FF"/>
<path d="M27.8534 64.6846C28.2099 65.4634 27.0516 66.8236 25.0004 68.2494C23.7856 69.0939 22.2575 69.9613 20.5452 70.7445C18.8329 71.5278 17.1774 72.1171 15.7445 72.4838C13.3243 73.1039 11.5379 73.0902 11.1813 72.3114C10.8578 71.6036 11.783 70.4162 13.4913 69.138C13.5507 69.3791 13.6255 69.6161 13.7152 69.8476C13.2432 70.2372 13.01 70.5458 13.0929 70.7243C13.1758 70.9028 13.5746 70.9305 14.1983 70.8212C15.4033 70.6097 17.4502 69.9009 19.6901 68.8762C21.9301 67.8514 23.8055 66.7658 24.7531 65.9927C25.2437 65.5921 25.4856 65.2752 25.4023 65.0932C25.319 64.9111 24.9356 64.8882 24.3322 64.9905C24.2156 64.7712 24.0852 64.5597 23.9417 64.3571C26.0273 63.9009 27.5299 63.9767 27.8534 64.6846Z" fill="#CEB7FF"/>
<g opacity="0.41">
<path d="M24.7549 66.0121C24.6447 66.1003 24.5217 66.1964 24.3873 66.2942C24.3317 66.1403 24.2696 65.9878 24.2008 65.8367C24.1898 65.8134 24.1788 65.7926 24.1682 65.7671C24.1283 65.6816 24.0861 65.5978 24.0417 65.5159C23.9252 65.2965 23.7948 65.0848 23.6512 64.882C23.6345 64.8582 23.6168 64.8344 23.5996 64.8106C23.039 64.0468 22.3013 63.4306 21.4499 63.0149C20.5986 62.5991 19.6589 62.3964 18.7119 62.4241C17.7648 62.4517 16.8387 62.709 16.013 63.1737C15.1873 63.6384 14.4868 64.2966 13.9718 65.0918C14.3856 64.2867 14.9807 63.5885 15.7101 63.0522C16.4395 62.5159 17.2834 62.1562 18.1754 62.0014C19.0674 61.8465 19.9832 61.9007 20.8506 62.1598C21.7181 62.4188 22.5137 62.8755 23.1747 63.4941C23.4394 63.7411 23.6801 64.0124 23.8936 64.3047C23.9117 64.3285 23.9284 64.3527 23.9456 64.3769C24.0891 64.5794 24.2195 64.7908 24.3361 65.0099C24.3802 65.0923 24.4243 65.1765 24.4622 65.2611C24.4737 65.2845 24.4847 65.3078 24.4948 65.3316C24.5955 65.5528 24.6824 65.7801 24.7549 66.0121Z" fill="#CEB7FF"/>
</g>
<path d="M24.4913 65.3113C24.5929 65.5326 24.6803 65.76 24.7531 65.9923C23.8055 66.7654 21.9323 67.8505 19.6901 68.8757C17.448 69.9009 15.4033 70.6092 14.1983 70.8208C14.0703 70.6137 13.9554 70.3988 13.8545 70.1773C13.8043 70.068 13.7578 69.9579 13.7152 69.8472C13.1767 68.457 13.1894 66.9137 13.7508 65.5326C14.3121 64.1515 15.3798 63.037 16.7354 62.4168C18.0911 61.7966 19.6325 61.7175 21.0445 62.1958C22.4565 62.6741 23.6325 63.6736 24.3322 64.99C24.3883 65.0949 24.4413 65.202 24.4913 65.3113Z" fill="#CEB7FF"/>
<path d="M24.017 65.5432C24.1089 65.7437 24.1881 65.9498 24.2542 66.1603C23.3965 66.8597 21.7009 67.8413 19.6738 68.7687C17.6468 69.696 15.7952 70.3373 14.7052 70.5286C14.5897 70.341 14.4857 70.1466 14.394 69.9464L14.3812 69.9177C14.3407 69.8295 14.3031 69.7395 14.2684 69.6475C14.1873 69.4381 14.1196 69.2237 14.0656 69.0058C14.0656 68.997 14.0612 68.9881 14.0595 68.9793C13.7741 67.7907 13.909 66.54 14.4413 65.4396C14.9737 64.3392 15.8705 63.457 16.9796 62.9429C18.0886 62.4288 19.3414 62.3146 20.5252 62.6195C21.7089 62.9245 22.7506 63.6299 23.4731 64.6158C23.489 64.6374 23.5044 64.6599 23.5199 64.6811C23.6496 64.8643 23.7674 65.0557 23.8725 65.2541C23.9121 65.3285 23.9505 65.4044 23.9866 65.481C23.9976 65.5009 24.0073 65.522 24.017 65.5432Z" fill="#FFB200"/>
<path d="M24.4776 68.2014C24.4321 68.7189 24.3109 69.2269 24.118 69.7092C23.6131 70.9727 22.6408 71.993 21.4031 72.558C20.1654 73.1231 18.7576 73.1895 17.4722 72.7434C17.1988 72.6487 16.9334 72.5319 16.6789 72.3943C16.4791 72.286 16.2866 72.165 16.1024 72.032C17.3986 71.7001 18.8963 71.1672 20.4456 70.4585C21.9948 69.7498 23.3788 68.9652 24.4776 68.2014Z" fill="#FF9100"/>
<path d="M24.2542 66.1589C23.3969 66.8588 21.7009 67.8408 19.6738 68.7678C17.6468 69.6947 15.7952 70.3364 14.7052 70.5277C14.5897 70.3401 14.4857 70.1457 14.394 69.9455C14.3896 69.9358 14.3856 69.9265 14.3812 69.9172C14.3407 69.8291 14.3032 69.7374 14.2684 69.6466C14.1873 69.4372 14.1196 69.2229 14.0656 69.0049C14.0656 68.9961 14.0612 68.9872 14.0595 68.9784C13.8097 67.9338 13.8833 66.838 14.2707 65.8362C14.6581 64.8345 15.3408 63.9741 16.2284 63.3694C15.6295 64.3007 15.3367 65.3959 15.391 66.5018C15.4072 66.8275 15.4539 67.151 15.5303 67.468L15.5369 67.4944C15.5395 67.5059 15.5435 67.52 15.5483 67.5385C15.8181 68.4478 16.797 68.8281 17.7415 68.7426C19.5416 68.5795 23.4396 66.4723 24.2687 65.9861C24.3278 66.1241 24.2092 66.0174 24.2542 66.1589Z" fill="#FF9100"/>
<path d="M20.4473 70.4585C21.9962 69.7498 23.3788 68.9652 24.4776 68.2014C24.4589 68.4168 24.4268 68.6308 24.3815 68.8422C23.5362 69.4619 22.1844 70.2284 20.6095 70.9491C19.1008 71.6388 17.6944 72.1466 16.6806 72.3943C16.4809 72.286 16.2883 72.165 16.1041 72.032C17.4008 71.7001 18.8994 71.1672 20.4473 70.4585Z" fill="#D66B09"/>
<path d="M23.9875 65.4797C23.9976 65.5009 24.0073 65.5238 24.017 65.5432C24.1089 65.7437 24.1881 65.9498 24.2542 66.1602C23.3964 66.8597 21.7009 67.8413 19.6738 68.7686C17.6468 69.696 15.7952 70.3373 14.7052 70.5286C14.5897 70.341 14.4857 70.1466 14.394 69.9463L14.3812 69.9177C15.4152 69.7991 17.3003 69.1781 19.3666 68.2331C21.5144 67.2498 23.2691 66.1858 23.9875 65.4797Z" fill="#D66B09"/>
<path d="M13.9114 68.1904L13.9281 67.8342C14.6496 67.8686 16.533 67.2612 18.5089 66.3573C20.8661 65.2787 22.3875 64.2482 22.671 63.7872L22.9746 63.9745C22.5987 64.5845 20.8634 65.6723 18.6552 66.6817C16.6031 67.6213 14.6959 68.2261 13.9114 68.1904Z" fill="#D66B09"/>
<path d="M14.1679 66.3894L14.1137 66.0368C14.9242 65.913 16.3285 65.4242 17.7786 64.7608C19.2979 64.0658 20.6113 63.3006 21.2068 62.7642L21.4457 63.0287C20.8251 63.588 19.4768 64.3756 17.9267 65.0844C16.4488 65.7609 15.0084 66.2607 14.1679 66.3894Z" fill="#D66B09"/>
<path d="M14.0595 69.1569V68.799C14.8872 68.799 16.8331 68.1639 18.9025 67.2172C21.0732 66.2241 22.8931 65.1108 23.3286 64.5092L23.6177 64.7185C23.1421 65.3748 21.3073 66.5093 19.051 67.5394C16.9063 68.5236 14.9471 69.1574 14.0595 69.1569Z" fill="#D66B09"/>
<path d="M17.4789 72.8324L17.4722 72.7443L17.4304 72.6654L17.4467 72.6566H17.4652C18.1805 72.6023 19.5429 72.155 20.9361 71.5176C22.3369 70.8768 23.5322 70.1605 24.0558 69.6479L24.1806 69.7753C23.6433 70.3012 22.4286 71.031 21.0106 71.6798C19.5782 72.333 18.2251 72.7756 17.4789 72.8324Z" fill="#D66B09"/>
<path d="M19.2079 73.2547C18.0472 73.2553 16.9157 72.8902 15.9741 72.2114L15.5915 71.935L16.0486 71.8178C17.3788 71.4775 18.8694 70.9363 20.3548 70.2575C21.8401 69.5788 23.2232 68.803 24.3511 68.0198L24.7386 67.7505L24.6976 68.2208C24.5785 69.5946 23.9486 70.8739 22.9322 71.8059C21.9159 72.7379 20.5869 73.2548 19.2079 73.2547ZM16.6383 72.1171C17.3413 72.5295 18.1333 72.7664 18.9473 72.8077C19.7613 72.8491 20.5733 72.6936 21.3144 72.3545C22.0555 72.0154 22.704 71.5027 23.2049 70.8598C23.7059 70.2168 24.0444 69.4627 24.192 68.6611C23.1258 69.3632 21.8732 70.049 20.539 70.6595C19.2049 71.2699 17.8667 71.7698 16.6388 72.1171H16.6383Z" fill="#371A45"/>
<path d="M27.0587 64.9759C27.3813 65.6811 26.3336 66.9113 24.4776 68.2014C23.3788 68.9652 21.9962 69.7498 20.4473 70.4585C18.8985 71.1672 17.4004 71.7001 16.1041 72.032C13.9145 72.5931 12.2986 72.5807 11.976 71.876C11.6833 71.236 12.5203 70.1628 14.0656 69.0049C14.1196 69.2229 14.1873 69.4372 14.2684 69.6466C13.8413 69.9992 13.6315 70.2782 13.7051 70.44C13.7787 70.6017 14.141 70.6264 14.7052 70.5281C15.7952 70.3369 17.6472 69.6956 19.6738 68.7682C21.7004 67.8409 23.3964 66.8593 24.2542 66.1598C24.6976 65.7975 24.9153 65.5106 24.8417 65.3457C24.7681 65.1809 24.419 65.1606 23.872 65.2532C23.7669 65.0548 23.6491 64.8634 23.5194 64.6802C25.4067 64.2672 26.766 64.336 27.0587 64.9759Z" fill="#FFD766"/>
<path d="M14.2358 69.5611C14.2463 69.5898 14.2574 69.6184 14.2684 69.6493C13.8413 70.0019 13.6311 70.2804 13.7051 70.4426C13.7791 70.6048 14.1414 70.6291 14.7052 70.5308C15.428 70.4039 16.4867 70.0786 17.7094 69.6052C17.6897 69.7044 17.6897 69.8066 17.7094 69.9058C17.2373 70.0821 16.7798 70.2394 16.3461 70.373C14.4597 70.9526 13.4759 70.946 13.3604 70.6917C13.293 70.5392 13.4887 70.1654 14.2358 69.5611Z" fill="#FFAA39"/>
<path d="M14.0952 69.3042L14.1392 69.3606C13.8187 69.6042 13.5167 69.8713 13.2357 70.1597C13.4026 69.9137 13.6891 69.6286 14.0952 69.3042Z" fill="#FF9100"/>
<path d="M14.1859 69.4167L14.1415 69.3603C14.1481 69.3545 14.1557 69.3492 14.1632 69.3438L14.1859 69.4167Z" fill="#FF9100"/>
<path d="M13.2366 70.1597C13.0603 70.4153 13.0162 70.63 13.0982 70.8071C13.1802 70.9843 13.3626 71.076 13.6205 71.1157C14.2913 71.2219 15.4456 70.946 16.4312 70.6432C16.8772 70.5061 17.3475 70.3444 17.8332 70.1623C17.9427 70.2904 18.0848 70.3863 18.2444 70.44C17.5273 70.7141 16.8314 70.946 16.1795 71.128C13.8554 71.7781 12.8461 71.6036 12.687 71.2567C12.5988 71.065 12.7262 70.6943 13.2366 70.1597Z" fill="#FFAA39"/>
<path d="M20.3539 70.5017C18.839 71.1893 17.3762 71.7072 16.1059 72.032C13.9167 72.5931 12.3004 72.5807 11.9778 71.8755C11.6856 71.236 12.5225 70.1628 14.0678 69.0044C14.0837 69.0688 14.1013 69.1327 14.1194 69.1966L14.0313 69.0811C13.1343 69.7678 12.1272 70.7238 12.4269 71.3775C12.5428 71.6305 12.8165 71.7667 13.1793 71.8244C14.0321 71.9588 15.3716 71.6552 16.2597 71.407C17.1016 71.1676 17.9303 70.8842 18.7425 70.5581C19.1696 70.6132 19.7166 70.5925 20.3539 70.5017Z" fill="#FFAA39"/>
<path d="M17.8332 70.1654C17.3484 70.3474 16.8772 70.5092 16.4312 70.6463C15.4456 70.9491 14.2913 71.225 13.6205 71.1188C13.3631 71.0782 13.1775 70.9817 13.0982 70.8102C13.0188 70.6388 13.062 70.4184 13.2366 70.1627C13.5176 69.8744 13.8196 69.6073 14.1401 69.3637L14.1842 69.4196C14.2001 69.4681 14.2173 69.5162 14.2344 69.5642C13.4852 70.1694 13.2917 70.5422 13.3595 70.6899C13.475 70.9429 14.4588 70.9508 16.3452 70.3712C16.7789 70.239 17.2364 70.0812 17.7085 69.904C17.7179 69.9497 17.7327 69.9941 17.7526 70.0363C17.7739 70.0825 17.801 70.1259 17.8332 70.1654Z" fill="#FFCF6E"/>
<path d="M14.1392 69.3606C13.8187 69.6042 13.5167 69.8713 13.2357 70.1597C13.4017 69.9137 13.6879 69.6286 14.0943 69.3042L14.1392 69.3606Z" fill="#FFEC90"/>
<path d="M14.1855 69.4161L14.2737 69.5285C14.2605 69.5391 14.2468 69.5497 14.234 69.5607C14.2186 69.5131 14.2014 69.465 14.1855 69.4161Z" fill="#FFEC90"/>
<path d="M23.214 67.5411C22.1526 68.1953 21.0507 68.7812 19.9149 69.2953C19.2097 69.6175 18.5071 69.9124 17.8332 70.1632C17.8009 70.1227 17.7739 70.0783 17.753 70.031C17.7331 69.9888 17.7183 69.9444 17.7089 69.8987C18.3833 69.6471 19.0876 69.354 19.7941 69.0304C20.9952 68.4808 22.1249 67.8805 23.0593 67.2943C24.7315 66.2462 25.3684 65.4965 25.2529 65.2439C25.1837 65.0932 24.7606 64.9971 23.779 65.1796L23.7394 64.9662L23.7261 64.8953C24.2409 64.7996 24.6438 64.7692 24.9391 64.8045C25.2441 64.8411 25.4345 64.9473 25.5156 65.1236C25.8017 65.7499 24.4216 66.7839 23.214 67.5411Z" fill="#FFEC90"/>
<path d="M18.7403 70.5581C17.9281 70.8842 17.0994 71.1676 16.2575 71.407C15.3694 71.6551 14.0299 71.9588 13.1771 71.8244C12.8143 71.7667 12.5406 71.6305 12.4247 71.3775C12.125 70.7238 13.1299 69.7678 14.0291 69.0811L14.1172 69.1966C14.1313 69.246 14.1459 69.2953 14.1613 69.3443C14.1538 69.3496 14.1463 69.3548 14.1397 69.3606L14.0956 69.3042C13.6886 69.6294 13.4025 69.9146 13.237 70.1597C12.7266 70.6956 12.5992 71.065 12.6874 71.2576C12.8465 71.6045 13.8558 71.779 16.18 71.1289C16.8318 70.9469 17.5278 70.715 18.2449 70.4409C18.4048 70.4995 18.5711 70.5388 18.7403 70.5581Z" fill="#FFCF6E"/>
<path d="M14.0952 69.3042L14.1392 69.3606C13.8187 69.6042 13.5167 69.8713 13.2357 70.1597C13.4026 69.9137 13.6891 69.6286 14.0952 69.3042Z" fill="#FFAA39"/>
<path d="M14.1172 69.1957L14.2054 69.3099L14.1613 69.3434C14.1459 69.2953 14.1313 69.246 14.1172 69.1957Z" fill="#FFEC90"/>
<path d="M23.9046 67.9087C22.853 68.6064 21.5739 69.3059 20.2058 69.9318C19.7148 70.1566 19.2242 70.3659 18.7403 70.5581C18.5709 70.5389 18.4045 70.4995 18.2444 70.4409C18.8478 70.2112 19.4667 69.9521 20.0864 69.6691C21.4404 69.0494 22.7053 68.3578 23.7446 67.6681C25.7563 66.3343 26.2838 65.4563 26.1247 65.1117C26.0366 64.9195 25.6752 64.7741 24.9386 64.8089C24.5352 64.8326 24.1342 64.8867 23.7389 64.9706L23.6591 64.9869L23.6005 64.7044C24.7064 64.4743 26.0881 64.3377 26.387 64.9914C26.777 65.8385 24.999 67.1828 23.9046 67.9087Z" fill="#FFEC90"/>
<path d="M13.4781 72.6548C12.6847 72.6548 12.0122 72.4829 11.7768 71.9681C11.3255 70.9808 12.9351 69.577 13.9365 68.8277L14.2036 68.6276L14.2834 68.952C14.335 69.1616 14.4 69.3677 14.4777 69.5691L14.535 69.718L14.4121 69.8194C14.0462 70.1213 13.9493 70.2826 13.9237 70.3435C13.9881 70.3646 14.1807 70.3977 14.6704 70.3122C15.7753 70.1182 17.6587 69.45 19.5848 68.569C21.5109 67.6879 23.2479 66.6997 24.1175 65.9901C24.5023 65.6759 24.6024 65.5088 24.6292 65.4462C24.5662 65.4255 24.3802 65.3933 23.9135 65.4727L23.7561 65.4996L23.6812 65.3589C23.5801 65.1687 23.467 64.9852 23.3427 64.8093L23.1501 64.5369L23.4758 64.466C24.6962 64.1993 26.8114 63.8996 27.2628 64.8865C27.7621 65.9773 25.8131 67.5469 24.6068 68.3852C23.4581 69.1838 22.0504 69.9719 20.5425 70.6617C19.0347 71.3515 17.5172 71.9015 16.1619 72.2484C15.4073 72.4388 14.3653 72.6548 13.4781 72.6548ZM13.9427 69.3786C12.3938 70.5916 12.0086 71.4119 12.1796 71.7843C12.3736 72.2074 13.5019 72.4706 16.0517 71.8178C17.3819 71.4775 18.8725 70.9363 20.3579 70.2575C21.8432 69.5787 23.2263 68.803 24.3542 68.0198C26.5139 66.5186 27.0543 65.4916 26.8603 65.0667C26.6902 64.6947 25.818 64.4497 23.8874 64.8283C23.9245 64.8882 23.9602 64.9482 23.995 65.0094C24.6046 64.9244 24.9303 65.0011 25.0453 65.2523C25.1714 65.5278 24.9713 65.8596 24.3965 66.3291C23.4859 67.0722 21.7559 68.0581 19.7686 68.9674C17.7812 69.8767 15.9031 70.5409 14.744 70.7441C14.0132 70.8719 13.6306 70.8063 13.5046 70.5308C13.39 70.2796 13.5451 69.9825 14.0079 69.577C13.9841 69.5122 13.9629 69.4456 13.9409 69.3786H13.9427Z" fill="#371A45"/>
<g opacity="0.41">
<path d="M24.2555 66.177C24.1559 66.2584 24.0451 66.3435 23.9232 66.4322C23.8729 66.2935 23.8166 66.1557 23.7543 66.0188C23.7446 65.9976 23.7345 65.9747 23.7248 65.9557C23.6887 65.8782 23.6503 65.8024 23.6107 65.7283C23.5053 65.5301 23.3875 65.3387 23.2581 65.1553L23.2113 65.0905C22.7041 64.3996 22.0367 63.8421 21.2664 63.466C20.4962 63.09 19.6461 62.9066 18.7894 62.9317C17.9326 62.9567 17.0947 63.1895 16.3477 63.6099C15.6008 64.0303 14.9671 64.6259 14.5011 65.3453C14.9126 64.5424 15.5227 63.8581 16.2733 63.3575C17.0239 62.8569 17.8901 62.5566 18.7895 62.4852C19.6889 62.4138 20.5916 62.5737 21.4118 62.9497C22.232 63.3256 22.9423 63.9051 23.4753 64.633C23.4916 64.6546 23.5071 64.6771 23.5225 64.6983C23.6522 64.8815 23.7699 65.0729 23.8751 65.2712C23.9151 65.3459 23.9531 65.4215 23.9893 65.4982C23.9994 65.5194 24.0095 65.5423 24.0188 65.5617C24.1104 65.7617 24.1895 65.9672 24.2555 66.177Z" fill="#CEB7FF"/>
</g>
<path d="M14.5959 70.771L14.517 70.6436C14.3967 70.4484 14.2885 70.246 14.193 70.0376C14.146 69.9344 14.1019 69.8306 14.0608 69.726C13.5777 68.4726 13.5688 67.086 14.0358 65.8266C14.5029 64.5672 15.4137 63.5216 16.5972 62.8863C17.7806 62.251 19.1554 62.0696 20.4631 62.3763C21.7709 62.683 22.9216 63.4567 23.6993 64.5519C23.8343 64.743 23.9572 64.9423 24.0673 65.1487C24.1197 65.2474 24.17 65.3484 24.2171 65.4515C24.3124 65.6601 24.3948 65.8742 24.464 66.0928L24.508 66.2356L24.3917 66.3304C23.4811 67.0735 21.7511 68.0595 19.7637 68.9687C17.7764 69.878 15.8983 70.5422 14.7391 70.7454L14.5959 70.771ZM19.2035 62.6725C18.38 62.6711 17.5685 62.8706 16.8395 63.2537C16.1105 63.6368 15.486 64.192 15.0201 64.8711C14.5542 65.5502 14.261 66.3327 14.166 67.1508C14.0709 67.9688 14.1769 68.7977 14.4747 69.5655C14.5117 69.6619 14.5519 69.7575 14.5954 69.8525C14.662 69.9983 14.736 70.1416 14.8158 70.2804C15.9367 70.0561 17.7398 69.4082 19.5817 68.5654C21.4236 67.7227 23.0928 66.7821 23.9959 66.0809C23.943 65.9297 23.8831 65.7799 23.8161 65.634C23.7729 65.5391 23.727 65.4464 23.6785 65.3559C23.5772 65.1658 23.464 64.9822 23.3396 64.8062C22.8709 64.1459 22.2507 63.6076 21.5311 63.2363C20.8114 62.8651 20.0133 62.6718 19.2035 62.6725Z" fill="#371A45"/>
</svg>
