<svg width="633" height="132" viewBox="0 0 633 132" fill="none" xmlns="http://www.w3.org/2000/svg">
<g filter="url(#filter0_d_21_3757)">
<path d="M37.4656 77.53L38.4616 77.4412L38.3468 76.1523L37.1285 76.5885L37.4656 77.53ZM38.5096 89.246L38.883 90.1736L39.5715 89.8965L39.5056 89.1572L38.5096 89.246ZM17.2236 89.71L16.8992 90.656L16.9114 90.66L17.2236 89.71ZM10.7856 85.534L11.5459 84.8845L11.5459 84.8845L10.7856 85.534ZM7.42156 78.458L6.44407 78.6693L6.44695 78.6819L7.42156 78.458ZM7.36356 58.39L6.3861 58.1787L6.38403 58.1887L7.36356 58.39ZM10.6116 51.256L11.3863 51.8884L11.3924 51.8807L10.6116 51.256ZM16.8756 46.906L16.5349 45.9658L16.5305 45.9674L16.8756 46.906ZM29.9256 45.63L29.819 46.6243L29.8379 46.6263L29.8568 46.6276L29.9256 45.63ZM33.1736 45.978L33.027 46.9672L33.0321 46.9679L33.1736 45.978ZM36.1896 46.558L35.947 47.5281L35.9701 47.5339L35.9934 47.5386L36.1896 46.558ZM38.5096 47.254L39.491 47.446L39.6411 46.6785L38.9324 46.3478L38.5096 47.254ZM36.4216 57.926L36.2137 58.9042L37.2078 59.1154L37.403 58.118L36.4216 57.926ZM21.4576 78.632H20.4576V79.438L21.2451 79.6092L21.4576 78.632ZM24.1256 79.096L23.9962 80.0876L24.0193 80.0906L24.0425 80.0925L24.1256 79.096ZM36.4695 77.6188L37.5135 89.3348L39.5056 89.1572L38.4616 77.4412L36.4695 77.6188ZM38.1361 88.3184C35.312 89.4553 31.7743 90.044 27.4896 90.044V92.044C31.9435 92.044 35.7525 91.434 38.883 90.1736L38.1361 88.3184ZM27.4896 90.044C23.4148 90.044 20.1073 89.6049 17.5357 88.76L16.9114 90.66C19.7532 91.5938 23.2897 92.044 27.4896 92.044V90.044ZM17.5479 88.7641C14.981 87.884 12.9964 86.5826 11.5459 84.8845L10.0252 86.1835C11.7454 88.1974 14.0528 89.68 16.8992 90.6559L17.5479 88.7641ZM11.5459 84.8845C10.0845 83.1735 9.02469 80.97 8.39618 78.2341L6.44695 78.6819C7.1331 81.6687 8.31599 84.1825 10.0252 86.1835L11.5459 84.8845ZM8.39898 78.2467C7.79935 75.4734 7.49356 72.1643 7.49356 68.308H5.49356C5.49356 72.2624 5.80644 75.7199 6.44415 78.6693L8.39898 78.2467ZM7.49356 68.308C7.49356 64.5665 7.78018 61.3308 8.3431 58.5913L6.38403 58.1887C5.78694 61.0945 5.49356 64.4709 5.49356 68.308H7.49356ZM8.34098 58.6013C8.93278 55.8642 9.95729 53.6388 11.3862 51.8884L9.8369 50.6236C8.17251 52.6625 7.03168 55.1931 6.38615 58.1787L8.34098 58.6013ZM11.3924 51.8807C12.8108 50.1078 14.7394 48.7568 17.2206 47.8446L16.5305 45.9674C13.753 46.9886 11.5057 48.5375 9.83069 50.6313L11.3924 51.8807ZM17.2162 47.8462C19.7389 46.9322 22.9779 46.456 26.9676 46.456V44.456C22.8372 44.456 19.3482 44.9465 16.5349 45.9658L17.2162 47.8462ZM26.9676 46.456C27.8145 46.456 28.7642 46.5113 29.819 46.6243L30.0321 44.6357C28.9216 44.5167 27.8993 44.456 26.9676 44.456V46.456ZM29.8568 46.6276C30.9537 46.7033 32.0104 46.8166 33.027 46.9672L33.3201 44.9888C32.2487 44.8301 31.14 44.7114 29.9944 44.6324L29.8568 46.6276ZM33.0321 46.9679C34.0855 47.1184 35.0567 47.3056 35.947 47.5281L36.4321 45.5879C35.4664 45.3464 34.427 45.1469 33.315 44.988L33.0321 46.9679ZM35.9934 47.5386C36.9191 47.7237 37.6068 47.9362 38.0867 48.1602L38.9324 46.3478C38.2523 46.0304 37.3934 45.779 36.3857 45.5774L35.9934 47.5386ZM37.5282 47.062L35.4402 57.734L37.403 58.118L39.491 47.446L37.5282 47.062ZM36.6294 56.9478C33.4868 56.28 30.6505 55.94 28.1276 55.94V57.94C30.4766 57.94 33.1697 58.2573 36.2137 58.9042L36.6294 56.9478ZM28.1276 55.94C25.614 55.94 23.6663 56.1626 22.4748 56.7345L23.3403 58.5375C24.0821 58.1814 25.6145 57.94 28.1276 57.94V55.94ZM22.4748 56.7345C21.0534 57.4168 20.4576 58.7799 20.4576 60.42H22.4576C22.4576 59.2761 22.8284 58.7832 23.3403 58.5375L22.4748 56.7345ZM20.4576 60.42V78.632H22.4576V60.42H20.4576ZM21.2451 79.6092C22.1615 79.8084 23.0786 79.9679 23.9962 80.0876L24.2549 78.1044C23.3939 77.9921 22.5322 77.8423 21.67 77.6548L21.2451 79.6092ZM24.0425 80.0925C24.9992 80.1723 25.9742 80.212 26.9676 80.212V78.212C26.0276 78.212 25.108 78.1744 24.2086 78.0995L24.0425 80.0925ZM26.9676 80.212C30.9308 80.212 34.5465 79.6373 37.8026 78.4715L37.1285 76.5885C34.1206 77.6654 30.7376 78.212 26.9676 78.212V80.212ZM42.2569 58.042L41.2845 57.8086L41.2823 57.8181L42.2569 58.042ZM45.6789 50.908L44.9263 50.2494L44.9185 50.2585L45.6789 50.908ZM52.0589 46.79L51.7385 45.8427L51.7385 45.8427L52.0589 46.79ZM71.5469 46.79L71.2222 47.7358L71.2265 47.7373L71.5469 46.79ZM77.8689 50.908L77.1085 51.5575L77.1163 51.5665L77.8689 50.908ZM81.2909 58.042L80.3156 58.2631L80.3174 58.2707L80.3192 58.2784L81.2909 58.042ZM81.4069 78.284L82.3837 78.4981L82.3843 78.4953L81.4069 78.284ZM78.1009 85.36L77.3339 84.7182L77.3262 84.7276L78.1009 85.36ZM71.7789 89.652L72.1117 90.595L72.1196 90.5922L71.7789 89.652ZM51.7689 89.652L51.4238 90.5906L51.4321 90.5936L51.4404 90.5965L51.7689 89.652ZM45.4469 85.36L44.6722 85.9924L44.68 86.0017L45.4469 85.36ZM42.1989 78.284L41.2215 78.4953L41.2221 78.4981L42.1989 78.284ZM56.2349 79.154H55.2349V80.154H56.2349V79.154ZM66.1529 78.516L66.6169 79.4018L66.6244 79.3979L66.6318 79.3939L66.1529 78.516ZM67.4289 57.346H68.4289V56.346H67.4289V57.346ZM57.5109 58.042L57.9581 58.9364L57.9741 58.9284L57.9898 58.9199L57.5109 58.042ZM42.2709 68.308C42.2709 64.3759 42.5958 61.0331 43.2315 58.2659L41.2823 57.8181C40.6033 60.7736 40.2709 64.2747 40.2709 68.308H42.2709ZM43.2293 58.2754C43.8965 55.4953 44.9768 53.2697 46.4393 51.5575L44.9185 50.2585C43.2104 52.2583 42.0093 54.7887 41.2845 57.8086L43.2293 58.2754ZM46.4315 51.5665C47.9254 49.8592 49.8956 48.5774 52.3793 47.7373L51.7385 45.8427C48.9636 46.7813 46.6804 48.2448 44.9263 50.2495L46.4315 51.5665ZM52.3793 47.7373C54.8737 46.8936 58.0057 46.456 61.8029 46.456V44.456C57.8668 44.456 54.5028 44.9077 51.7385 45.8427L52.3793 47.7373ZM61.8029 46.456C65.6408 46.456 68.7702 46.8941 71.2222 47.7358L71.8716 45.8442C69.1423 44.9073 65.7757 44.456 61.8029 44.456V46.456ZM71.2265 47.7373C73.7089 48.5769 75.6557 49.8566 77.1085 51.5575L78.6293 50.2585C76.9115 48.2474 74.6436 46.7817 71.8673 45.8427L71.2265 47.7373ZM77.1163 51.5665C78.6105 53.2742 79.6875 55.492 80.3156 58.2631L82.2662 57.8209C81.5796 54.792 80.3753 52.2538 78.6215 50.2495L77.1163 51.5665ZM80.3192 58.2784C80.9911 61.0406 81.3349 64.379 81.3349 68.308H83.3349C83.3349 64.2716 82.9827 60.766 82.2626 57.8056L80.3192 58.2784ZM81.3349 68.308C81.3349 72.0459 81.0295 75.2976 80.4295 78.0727L82.3843 78.4953C83.0216 75.5477 83.3349 72.1488 83.3349 68.308H81.3349ZM80.4301 78.0699C79.8401 80.7619 78.7997 82.9666 77.334 84.7183L78.8678 86.0017C80.5728 83.9641 81.7364 81.4514 82.3837 78.4981L80.4301 78.0699ZM77.3262 84.7276C75.911 86.4613 73.964 87.7967 71.4383 88.7118L72.1196 90.5922C74.9298 89.574 77.1974 88.0481 78.8756 85.9924L77.3262 84.7276ZM71.4461 88.709C68.9596 89.5866 65.7566 90.044 61.8029 90.044V92.044C65.8919 92.044 69.3395 91.5734 72.1117 90.595L71.4461 88.709ZM61.8029 90.044C57.85 90.044 54.6254 89.5868 52.0974 88.7075L51.4404 90.5965C54.2484 91.5732 57.7131 92.044 61.8029 92.044V90.044ZM52.114 88.7134C49.6264 87.7989 47.6726 86.4616 46.2138 84.7183L44.68 86.0017C46.3919 88.0477 48.6527 89.5718 51.4238 90.5906L52.114 88.7134ZM46.2216 84.7276C44.7907 82.9748 43.7668 80.7669 43.1757 78.0699L41.2221 78.4981C41.8683 81.4464 43.0098 83.9559 44.6722 85.9924L46.2216 84.7276ZM43.1763 78.0727C42.5763 75.2976 42.2709 72.0459 42.2709 68.308H40.2709C40.2709 72.1488 40.5842 75.5477 41.2215 78.4953L43.1763 78.0727ZM55.2349 61.058V79.154H57.2349V61.058H55.2349ZM56.2349 80.154H62.0349V78.154H56.2349V80.154ZM62.0349 80.154C63.9884 80.154 65.5743 79.9479 66.6169 79.4018L65.6889 77.6302C65.1075 77.9347 63.9481 78.154 62.0349 78.154V80.154ZM66.6318 79.3939C67.9735 78.662 68.4289 77.147 68.4289 75.442H66.4289C66.4289 76.9076 66.0336 77.442 65.6741 77.6381L66.6318 79.3939ZM68.4289 75.442V57.346H66.4289V75.442H68.4289ZM67.4289 56.346H61.5709V58.346H67.4289V56.346ZM61.5709 56.346C59.6746 56.346 58.1109 56.5756 57.0321 57.1641L57.9898 58.9199C58.6122 58.5804 59.7552 58.346 61.5709 58.346V56.346ZM57.0637 57.1476C55.6867 57.8361 55.2349 59.363 55.2349 61.058H57.2349C57.2349 59.5823 57.6337 59.0986 57.9581 58.9364L57.0637 57.1476ZM85.4588 89.246L84.4732 89.0768L84.3122 90.0141L85.2403 90.2218L85.4588 89.246ZM87.4308 77.762L87.6691 76.7908L86.6268 76.535L86.4452 77.5928L87.4308 77.762ZM103.555 79.27L103.584 80.2696L103.598 80.2692L103.612 80.2684L103.555 79.27ZM107.151 78.922L107.297 79.9112L108.151 79.7848V78.922H107.151ZM107.151 75.442H108.151V74.5219L107.234 74.4455L107.151 75.442ZM100.887 74.92L100.791 75.9155L100.804 75.9165L100.887 74.92ZM93.8108 73.528L93.483 74.4728L93.483 74.4728L93.8108 73.528ZM89.2288 70.86L88.5098 71.555L88.5215 71.5672L88.5337 71.579L89.2288 70.86ZM86.7928 66.742L85.8312 67.0167L85.8352 67.0305L85.8395 67.0442L86.7928 66.742ZM87.0248 53.634L87.9789 53.9333L87.9805 53.9281L87.0248 53.634ZM89.9828 48.82L90.6458 49.5686L90.6517 49.5634L90.6575 49.558L89.9828 48.82ZM95.2028 46.21L94.9766 45.2359L94.9727 45.2368L95.2028 46.21ZM119.795 47.196L120.783 47.3504L120.926 46.4324L120.021 46.222L119.795 47.196ZM118.055 58.332L117.896 59.3193L118.888 59.4787L119.043 58.4864L118.055 58.332ZM101.061 57.636L100.934 56.644L100.061 56.7555V57.636H101.061ZM101.061 61.058H100.061V61.9693L100.968 62.0537L101.061 61.058ZM106.049 61.522L106.15 60.5271L106.141 60.5263L106.049 61.522ZM113.705 63.088L113.367 64.0293L113.375 64.0322L113.383 64.0349L113.705 63.088ZM118.635 65.872L117.951 66.6015L117.956 66.6068L117.962 66.6119L118.635 65.872ZM121.303 69.99L120.35 70.2922L120.353 70.3027L120.356 70.3131L121.303 69.99ZM120.955 82.866L120.021 82.507L120.021 82.507L120.955 82.866ZM118.171 87.448L118.862 88.1706L118.865 88.1678L118.171 87.448ZM114.865 89.478L115.198 90.421L115.21 90.4167L115.222 90.4121L114.865 89.478ZM110.689 90.522L110.845 91.5098L110.845 91.5098L110.689 90.522ZM106.223 90.928L106.197 89.9283L106.184 89.9287L106.17 89.9294L106.223 90.928ZM93.5208 90.58L93.6312 89.5861L93.6312 89.5861L93.5208 90.58ZM86.4443 89.4152L88.4163 77.9312L86.4452 77.5928L84.4732 89.0768L86.4443 89.4152ZM87.1924 78.7332C91.5037 79.7914 95.4328 80.328 98.9728 80.328V78.328C95.6301 78.328 91.8645 77.8206 87.6691 76.7908L87.1924 78.7332ZM98.9728 80.328C100.72 80.328 102.257 80.3086 103.584 80.2696L103.525 78.2704C102.223 78.3087 100.706 78.328 98.9728 78.328V80.328ZM103.612 80.2684C104.987 80.1898 106.217 80.0713 107.297 79.9112L107.004 77.9328C105.997 78.082 104.829 78.1956 103.498 78.2716L103.612 80.2684ZM108.151 78.922V75.442H106.151V78.922H108.151ZM107.234 74.4455L100.97 73.9235L100.804 75.9165L107.068 76.4385L107.234 74.4455ZM100.982 73.9246C98.2089 73.6586 95.9342 73.2062 94.1385 72.5832L93.483 74.4728C95.4766 75.1644 97.9192 75.64 100.791 75.9154L100.982 73.9246ZM94.1385 72.5832C92.3487 71.9623 90.957 71.1398 89.9238 70.141L88.5337 71.579C89.8205 72.8228 91.4834 73.779 93.483 74.4728L94.1385 72.5832ZM89.9477 70.165C88.9371 69.1195 88.2034 67.8825 87.746 66.4398L85.8395 67.0442C86.3874 68.7721 87.2777 70.2805 88.5098 71.555L89.9477 70.165ZM87.7543 66.4673C87.3218 64.9536 87.0968 63.1552 87.0968 61.058H85.0968C85.0968 63.2915 85.3357 65.2824 85.8312 67.0167L87.7543 66.4673ZM87.0968 61.058C87.0968 58.1415 87.4008 55.7761 87.9789 53.9333L86.0706 53.3347C85.4114 55.4359 85.0968 58.0198 85.0968 61.058H87.0968ZM87.9805 53.9281C88.5542 52.0638 89.4511 50.6267 90.6458 49.5686L89.3197 48.0714C87.8077 49.4106 86.7327 51.1829 86.069 53.3399L87.9805 53.9281ZM90.6575 49.558C91.863 48.4559 93.4402 47.6542 95.4328 47.1832L94.9727 45.2368C92.712 45.7712 90.8092 46.7094 89.308 48.082L90.6575 49.558ZM95.4289 47.1841C97.4976 46.7039 100.046 46.456 103.091 46.456V44.456C99.9485 44.456 97.2386 44.7108 94.9766 45.2359L95.4289 47.1841ZM103.091 46.456C109.177 46.456 114.668 47.0303 119.568 48.17L120.021 46.222C114.946 45.0417 109.3 44.456 103.091 44.456V46.456ZM118.807 47.0416L117.067 58.1776L119.043 58.4864L120.783 47.3504L118.807 47.0416ZM118.213 57.3447C113.861 56.6452 110.341 56.288 107.673 56.288V58.288C110.186 58.288 113.587 58.6268 117.896 59.3193L118.213 57.3447ZM107.673 56.288C105.056 56.288 102.807 56.405 100.934 56.644L101.187 58.6279C102.95 58.403 105.109 58.288 107.673 58.288V56.288ZM100.061 57.636V61.058H102.061V57.636H100.061ZM100.968 62.0537L105.956 62.5177L106.141 60.5263L101.153 60.0623L100.968 62.0537ZM105.948 62.5169C108.952 62.8211 111.418 63.3307 113.367 64.0293L114.042 62.1467C111.892 61.376 109.255 60.8415 106.15 60.5271L105.948 62.5169ZM113.383 64.0349C115.334 64.6973 116.842 65.5619 117.951 66.6015L119.319 65.1425C117.953 63.8621 116.175 62.8707 114.026 62.1411L113.383 64.0349ZM117.962 66.6119C119.113 67.6579 119.902 68.8814 120.35 70.2922L122.256 69.6878C121.698 67.928 120.709 66.4061 119.307 65.1321L117.962 66.6119ZM120.356 70.3131C120.855 71.7742 121.115 73.4789 121.115 75.442H123.115C123.115 73.3064 122.833 71.3765 122.249 69.6669L120.356 70.3131ZM121.115 75.442C121.115 78.2997 120.738 80.6443 120.021 82.507L121.888 83.225C122.718 81.0664 123.115 78.4617 123.115 75.442H121.115ZM120.021 82.507C119.279 84.436 118.419 85.8195 117.477 86.7282L118.865 88.1678C120.088 86.9885 121.083 85.3173 121.888 83.225L120.021 82.507ZM117.48 86.7254C116.699 87.4717 115.716 88.082 114.508 88.5439L115.222 90.4121C116.643 89.8686 117.864 89.1256 118.862 88.1706L117.48 86.7254ZM114.532 88.535C113.278 88.9774 111.946 89.3111 110.533 89.5342L110.845 91.5098C112.37 91.2689 113.822 90.9066 115.198 90.421L114.532 88.535ZM110.533 89.5342C109.107 89.7593 107.662 89.8908 106.197 89.9283L106.248 91.9277C107.799 91.8879 109.332 91.7487 110.845 91.5098L110.533 89.5342ZM106.17 89.9294C104.715 90.006 103.398 90.044 102.221 90.044V92.044C103.44 92.044 104.792 92.0047 106.275 91.9266L106.17 89.9294ZM102.221 90.044C99.2389 90.044 96.3758 89.8911 93.6312 89.5861L93.4103 91.5739C96.2337 91.8876 99.1706 92.044 102.221 92.044V90.044ZM93.6312 89.5861C90.8815 89.2806 88.2303 88.8418 85.6772 88.2702L85.2403 90.2218C87.8685 90.8102 90.592 91.2607 93.4103 91.5739L93.6312 89.5861ZM140.987 68.888V67.888H140.025L139.988 68.8496L140.987 68.888ZM140.175 90V91H141.137L141.174 90.0384L140.175 90ZM125.617 90L124.619 89.9388L124.554 91H125.617V90ZM128.285 46.5V45.5H127.344L127.287 46.4388L128.285 46.5ZM146.439 46.5L147.411 46.2635L147.225 45.5H146.439V46.5ZM151.833 68.656L150.861 68.8925L151.047 69.656H151.833V68.656ZM152.355 68.656V69.656H153.141L153.327 68.8925L152.355 68.656ZM157.749 46.5V45.5H156.963L156.777 46.2635L157.749 46.5ZM175.961 46.5L176.959 46.4401L176.903 45.5H175.961V46.5ZM178.571 90V91H179.633L179.569 89.9401L178.571 90ZM164.013 90L163.014 90.0384L163.051 91H164.013V90ZM163.201 68.888L164.2 68.8496L164.163 67.888H163.201V68.888ZM162.737 68.888V67.888H161.958L161.767 68.643L162.737 68.888ZM157.401 90V91H158.18L158.37 90.245L157.401 90ZM146.787 90L145.818 90.2475L146.01 91H146.787V90ZM141.393 68.888L142.362 68.6405L142.17 67.888H141.393V68.888ZM139.988 68.8496L139.176 89.9616L141.174 90.0384L141.986 68.9264L139.988 68.8496ZM140.175 89H125.617V91H140.175V89ZM126.615 90.0612L129.283 46.5612L127.287 46.4388L124.619 89.9388L126.615 90.0612ZM128.285 47.5H146.439V45.5H128.285V47.5ZM145.467 46.7365L150.861 68.8925L152.805 68.4195L147.411 46.2635L145.467 46.7365ZM151.833 69.656H152.355V67.656H151.833V69.656ZM153.327 68.8925L158.721 46.7365L156.777 46.2635L151.383 68.4195L153.327 68.8925ZM157.749 47.5H175.961V45.5H157.749V47.5ZM174.963 46.5599L177.573 90.0599L179.569 89.9401L176.959 46.4401L174.963 46.5599ZM178.571 89H164.013V91H178.571V89ZM165.012 89.9616L164.2 68.8496L162.202 68.9264L163.014 90.0384L165.012 89.9616ZM163.201 67.888H162.737V69.888H163.201V67.888ZM161.767 68.643L156.431 89.755L158.37 90.245L163.706 69.133L161.767 68.643ZM157.401 89H146.787V91H157.401V89ZM147.756 89.7525L142.362 68.6405L140.424 69.1355L145.818 90.2475L147.756 89.7525ZM141.393 67.888H140.987V69.888H141.393V67.888ZM197.691 90V91H198.691V90H197.691ZM183.771 90H182.771V91H183.771V90ZM183.771 46.5V45.5H182.771V46.5H183.771ZM197.691 46.5H198.691V45.5H197.691V46.5ZM197.691 89H183.771V91H197.691V89ZM184.771 90V46.5H182.771V90H184.771ZM183.771 47.5H197.691V45.5H183.771V47.5ZM196.691 46.5V90H198.691V46.5H196.691ZM233.555 77.53L234.551 77.4412L234.437 76.1523L233.218 76.5885L233.555 77.53ZM234.599 89.246L234.973 90.1736L235.661 89.8965L235.595 89.1572L234.599 89.246ZM213.313 89.71L212.989 90.656L213.001 90.66L213.313 89.71ZM206.875 85.534L207.636 84.8845L207.636 84.8845L206.875 85.534ZM203.511 78.458L202.534 78.6693L202.537 78.6819L203.511 78.458ZM203.453 58.39L202.476 58.1787L202.474 58.1887L203.453 58.39ZM206.701 51.256L207.476 51.8884L207.482 51.8807L206.701 51.256ZM212.965 46.906L212.625 45.9658L212.62 45.9674L212.965 46.906ZM226.015 45.63L225.909 46.6243L225.928 46.6263L225.947 46.6276L226.015 45.63ZM229.263 45.978L229.117 46.9672L229.122 46.9679L229.263 45.978ZM232.279 46.558L232.037 47.5281L232.06 47.5339L232.083 47.5386L232.279 46.558ZM234.599 47.254L235.581 47.446L235.731 46.6785L235.022 46.3478L234.599 47.254ZM232.511 57.926L232.304 58.9042L233.298 59.1154L233.493 58.118L232.511 57.926ZM217.547 78.632H216.547V79.438L217.335 79.6092L217.547 78.632ZM220.215 79.096L220.086 80.0876L220.109 80.0906L220.132 80.0925L220.215 79.096ZM232.559 77.6188L233.603 89.3348L235.595 89.1572L234.551 77.4412L232.559 77.6188ZM234.226 88.3184C231.402 89.4553 227.864 90.044 223.579 90.044V92.044C228.033 92.044 231.842 91.434 234.973 90.1736L234.226 88.3184ZM223.579 90.044C219.505 90.044 216.197 89.6049 213.626 88.76L213.001 90.66C215.843 91.5938 219.38 92.044 223.579 92.044V90.044ZM213.638 88.7641C211.071 87.884 209.086 86.5826 207.636 84.8845L206.115 86.1835C207.835 88.1974 210.143 89.68 212.989 90.6559L213.638 88.7641ZM207.636 84.8845C206.174 83.1735 205.115 80.97 204.486 78.2341L202.537 78.6819C203.223 81.6687 204.406 84.1825 206.115 86.1835L207.636 84.8845ZM204.489 78.2467C203.889 75.4734 203.583 72.1643 203.583 68.308H201.583C201.583 72.2624 201.896 75.7199 202.534 78.6693L204.489 78.2467ZM203.583 68.308C203.583 64.5665 203.87 61.3308 204.433 58.5913L202.474 58.1887C201.877 61.0945 201.583 64.4709 201.583 68.308H203.583ZM204.431 58.6013C205.023 55.8642 206.047 53.6388 207.476 51.8884L205.927 50.6236C204.262 52.6625 203.122 55.1931 202.476 58.1787L204.431 58.6013ZM207.482 51.8807C208.901 50.1078 210.829 48.7568 213.31 47.8446L212.62 45.9674C209.843 46.9886 207.596 48.5375 205.921 50.6313L207.482 51.8807ZM213.306 47.8462C215.829 46.9322 219.068 46.456 223.057 46.456V44.456C218.927 44.456 215.438 44.9465 212.625 45.9658L213.306 47.8462ZM223.057 46.456C223.904 46.456 224.854 46.5113 225.909 46.6243L226.122 44.6357C225.011 44.5167 223.989 44.456 223.057 44.456V46.456ZM225.947 46.6276C227.044 46.7033 228.1 46.8166 229.117 46.9672L229.41 44.9888C228.339 44.8301 227.23 44.7114 226.084 44.6324L225.947 46.6276ZM229.122 46.9679C230.175 47.1184 231.147 47.3056 232.037 47.5281L232.522 45.5879C231.556 45.3464 230.517 45.1469 229.405 44.988L229.122 46.9679ZM232.083 47.5386C233.009 47.7237 233.697 47.9362 234.177 48.1602L235.022 46.3478C234.342 46.0304 233.483 45.779 232.476 45.5774L232.083 47.5386ZM233.618 47.062L231.53 57.734L233.493 58.118L235.581 47.446L233.618 47.062ZM232.719 56.9478C229.577 56.28 226.74 55.94 224.217 55.94V57.94C226.566 57.94 229.26 58.2573 232.304 58.9042L232.719 56.9478ZM224.217 55.94C221.704 55.94 219.756 56.1626 218.565 56.7345L219.43 58.5375C220.172 58.1814 221.704 57.94 224.217 57.94V55.94ZM218.565 56.7345C217.143 57.4168 216.547 58.7799 216.547 60.42H218.547C218.547 59.2761 218.918 58.7832 219.43 58.5375L218.565 56.7345ZM216.547 60.42V78.632H218.547V60.42H216.547ZM217.335 79.6092C218.251 79.8084 219.168 79.9679 220.086 80.0876L220.345 78.1044C219.484 77.9921 218.622 77.8423 217.76 77.6548L217.335 79.6092ZM220.132 80.0925C221.089 80.1723 222.064 80.212 223.057 80.212V78.212C222.117 78.212 221.198 78.1744 220.298 78.0995L220.132 80.0925ZM223.057 80.212C227.021 80.212 230.636 79.6373 233.892 78.4715L233.218 76.5885C230.21 77.6654 226.827 78.212 223.057 78.212V80.212ZM285.721 77.53L286.717 77.4412L286.603 76.1523L285.384 76.5885L285.721 77.53ZM286.765 89.246L287.139 90.1736L287.827 89.8965L287.761 89.1572L286.765 89.246ZM265.479 89.71L265.155 90.656L265.167 90.66L265.479 89.71ZM259.041 85.534L259.802 84.8845L259.802 84.8845L259.041 85.534ZM255.677 78.458L254.7 78.6693L254.703 78.6819L255.677 78.458ZM255.619 58.39L254.642 58.1787L254.64 58.1887L255.619 58.39ZM258.867 51.256L259.642 51.8884L259.648 51.8807L258.867 51.256ZM265.131 46.906L264.791 45.9658L264.786 45.9674L265.131 46.906ZM278.181 45.63L278.075 46.6243L278.094 46.6263L278.113 46.6276L278.181 45.63ZM281.429 45.978L281.283 46.9672L281.288 46.9679L281.429 45.978ZM284.445 46.558L284.203 47.5281L284.226 47.5339L284.249 47.5386L284.445 46.558ZM286.765 47.254L287.747 47.446L287.897 46.6785L287.188 46.3478L286.765 47.254ZM284.677 57.926L284.47 58.9042L285.464 59.1154L285.659 58.118L284.677 57.926ZM269.713 78.632H268.713V79.438L269.501 79.6092L269.713 78.632ZM272.381 79.096L272.252 80.0876L272.275 80.0906L272.298 80.0925L272.381 79.096ZM284.725 77.6188L285.769 89.3348L287.761 89.1572L286.717 77.4412L284.725 77.6188ZM286.392 88.3184C283.568 89.4553 280.03 90.044 275.745 90.044V92.044C280.199 92.044 284.008 91.434 287.139 90.1736L286.392 88.3184ZM275.745 90.044C271.671 90.044 268.363 89.6049 265.792 88.76L265.167 90.66C268.009 91.5938 271.546 92.044 275.745 92.044V90.044ZM265.804 88.7641C263.237 87.884 261.252 86.5826 259.802 84.8845L258.281 86.1835C260.001 88.1974 262.309 89.68 265.155 90.6559L265.804 88.7641ZM259.802 84.8845C258.34 83.1735 257.281 80.97 256.652 78.2341L254.703 78.6819C255.389 81.6687 256.572 84.1825 258.281 86.1835L259.802 84.8845ZM256.655 78.2467C256.055 75.4734 255.749 72.1643 255.749 68.308H253.749C253.749 72.2624 254.062 75.7199 254.7 78.6693L256.655 78.2467ZM255.749 68.308C255.749 64.5665 256.036 61.3308 256.599 58.5913L254.64 58.1887C254.043 61.0945 253.749 64.4709 253.749 68.308H255.749ZM256.597 58.6013C257.189 55.8642 258.213 53.6388 259.642 51.8884L258.093 50.6236C256.428 52.6625 255.288 55.1931 254.642 58.1787L256.597 58.6013ZM259.648 51.8807C261.067 50.1078 262.995 48.7568 265.476 47.8446L264.786 45.9674C262.009 46.9886 259.762 48.5375 258.087 50.6313L259.648 51.8807ZM265.472 47.8462C267.995 46.9322 271.234 46.456 275.223 46.456V44.456C271.093 44.456 267.604 44.9465 264.791 45.9658L265.472 47.8462ZM275.223 46.456C276.07 46.456 277.02 46.5113 278.075 46.6243L278.288 44.6357C277.177 44.5167 276.155 44.456 275.223 44.456V46.456ZM278.113 46.6276C279.21 46.7033 280.266 46.8166 281.283 46.9672L281.576 44.9888C280.505 44.8301 279.396 44.7114 278.25 44.6324L278.113 46.6276ZM281.288 46.9679C282.341 47.1184 283.313 47.3056 284.203 47.5281L284.688 45.5879C283.722 45.3464 282.683 45.1469 281.571 44.988L281.288 46.9679ZM284.249 47.5386C285.175 47.7237 285.863 47.9362 286.343 48.1602L287.188 46.3478C286.508 46.0304 285.649 45.779 284.642 45.5774L284.249 47.5386ZM285.784 47.062L283.696 57.734L285.659 58.118L287.747 47.446L285.784 47.062ZM284.885 56.9478C281.743 56.28 278.906 55.94 276.383 55.94V57.94C278.732 57.94 281.426 58.2573 284.47 58.9042L284.885 56.9478ZM276.383 55.94C273.87 55.94 271.922 56.1626 270.731 56.7345L271.596 58.5375C272.338 58.1814 273.87 57.94 276.383 57.94V55.94ZM270.731 56.7345C269.309 57.4168 268.713 58.7799 268.713 60.42H270.713C270.713 59.2761 271.084 58.7832 271.596 58.5375L270.731 56.7345ZM268.713 60.42V78.632H270.713V60.42H268.713ZM269.501 79.6092C270.417 79.8084 271.334 79.9679 272.252 80.0876L272.511 78.1044C271.65 77.9921 270.788 77.8423 269.926 77.6548L269.501 79.6092ZM272.298 80.0925C273.255 80.1723 274.23 80.212 275.223 80.212V78.212C274.283 78.212 273.364 78.1744 272.464 78.0995L272.298 80.0925ZM275.223 80.212C279.187 80.212 282.802 79.6373 286.058 78.4715L285.384 76.5885C282.376 77.6654 278.994 78.212 275.223 78.212V80.212ZM319.455 78.864H320.455V77.864H319.455V78.864ZM319.455 90V91H320.455V90H319.455ZM291.615 90H290.615V91H291.615V90ZM291.615 46.5V45.5H290.615V46.5H291.615ZM305.535 46.5H306.535V45.5H305.535V46.5ZM305.535 78.864H304.535V79.864H305.535V78.864ZM318.455 78.864V90H320.455V78.864H318.455ZM319.455 89H291.615V91H319.455V89ZM292.615 90V46.5H290.615V90H292.615ZM291.615 47.5H305.535V45.5H291.615V47.5ZM304.535 46.5V78.864H306.535V46.5H304.535ZM305.535 79.864H319.455V77.864H305.535V79.864ZM335.225 83.098V82.098H334.426L334.25 82.8767L335.225 83.098ZM333.659 90V91H334.457L334.634 90.2213L333.659 90ZM318.985 90L318.017 89.7496L317.693 91H318.985V90ZM330.237 46.5V45.5H329.463L329.269 46.2496L330.237 46.5ZM351.755 46.5L352.723 46.2496L352.529 45.5H351.755V46.5ZM363.007 90V91H364.298L363.975 89.7496L363.007 90ZM348.333 90L347.359 90.229L347.541 91H348.333V90ZM346.709 83.098L347.682 82.869L347.501 82.098H346.709V83.098ZM341.373 59.84L342.348 59.6172L342.17 58.84H341.373V59.84ZM340.619 59.84V58.84H339.825L339.645 59.6128L340.619 59.84ZM337.777 72.02L336.803 71.7928L336.517 73.02H337.777V72.02ZM344.157 72.02V73.02H345.411L345.132 71.7972L344.157 72.02ZM334.25 82.8767L332.684 89.7787L334.634 90.2213L336.2 83.3193L334.25 82.8767ZM333.659 89H318.985V91H333.659V89ZM319.953 90.2504L331.205 46.7504L329.269 46.2496L318.017 89.7496L319.953 90.2504ZM330.237 47.5H351.755V45.5H330.237V47.5ZM350.787 46.7504L362.039 90.2504L363.975 89.7496L352.723 46.2496L350.787 46.7504ZM363.007 89H348.333V91H363.007V89ZM349.306 89.771L347.682 82.869L345.735 83.327L347.359 90.229L349.306 89.771ZM346.709 82.098H335.225V84.098H346.709V82.098ZM341.373 58.84H340.619V60.84H341.373V58.84ZM339.645 59.6128L336.803 71.7928L338.751 72.2472L341.593 60.0672L339.645 59.6128ZM337.777 73.02H344.157V71.02H337.777V73.02ZM345.132 71.7972L342.348 59.6172L340.398 60.0628L343.182 72.2428L345.132 71.7972ZM363.961 89.246L362.975 89.0768L362.814 90.0141L363.742 90.2218L363.961 89.246ZM365.933 77.762L366.171 76.7908L365.129 76.535L364.947 77.5928L365.933 77.762ZM382.057 79.27L382.086 80.2696L382.1 80.2692L382.114 80.2684L382.057 79.27ZM385.653 78.922L385.799 79.9112L386.653 79.7848V78.922H385.653ZM385.653 75.442H386.653V74.5219L385.736 74.4455L385.653 75.442ZM379.389 74.92L379.293 75.9155L379.306 75.9165L379.389 74.92ZM372.313 73.528L371.985 74.4728L371.985 74.4728L372.313 73.528ZM367.731 70.86L367.012 71.555L367.023 71.5672L367.036 71.579L367.731 70.86ZM365.295 66.742L364.333 67.0167L364.337 67.0305L364.341 67.0442L365.295 66.742ZM365.527 53.634L366.481 53.9333L366.482 53.9281L365.527 53.634ZM368.485 48.82L369.148 49.5686L369.154 49.5634L369.159 49.558L368.485 48.82ZM373.705 46.21L373.479 45.2359L373.475 45.2368L373.705 46.21ZM398.297 47.196L399.285 47.3504L399.428 46.4324L398.523 46.222L398.297 47.196ZM396.557 58.332L396.398 59.3193L397.39 59.4787L397.545 58.4864L396.557 58.332ZM379.563 57.636L379.436 56.644L378.563 56.7555V57.636H379.563ZM379.563 61.058H378.563V61.9693L379.47 62.0537L379.563 61.058ZM384.551 61.522L384.651 60.5271L384.643 60.5263L384.551 61.522ZM392.207 63.088L391.869 64.0293L391.877 64.0322L391.885 64.0349L392.207 63.088ZM397.137 65.872L396.453 66.6015L396.458 66.6068L396.464 66.6119L397.137 65.872ZM399.805 69.99L398.851 70.2922L398.855 70.3027L398.858 70.3131L399.805 69.99ZM399.457 82.866L398.523 82.507L398.523 82.507L399.457 82.866ZM396.673 87.448L397.364 88.1706L397.367 88.1678L396.673 87.448ZM393.367 89.478L393.7 90.421L393.712 90.4167L393.724 90.4121L393.367 89.478ZM389.191 90.522L389.347 91.5098L389.347 91.5098L389.191 90.522ZM384.725 90.928L384.699 89.9283L384.686 89.9287L384.672 89.9294L384.725 90.928ZM372.023 90.58L372.133 89.5861L372.133 89.5861L372.023 90.58ZM364.946 89.4152L366.918 77.9312L364.947 77.5928L362.975 89.0768L364.946 89.4152ZM365.694 78.7332C370.006 79.7914 373.935 80.328 377.475 80.328V78.328C374.132 78.328 370.366 77.8206 366.171 76.7908L365.694 78.7332ZM377.475 80.328C379.222 80.328 380.759 80.3086 382.086 80.2696L382.027 78.2704C380.725 78.3087 379.208 78.328 377.475 78.328V80.328ZM382.114 80.2684C383.489 80.1898 384.719 80.0713 385.799 79.9112L385.506 77.9328C384.499 78.082 383.331 78.1956 382 78.2716L382.114 80.2684ZM386.653 78.922V75.442H384.653V78.922H386.653ZM385.736 74.4455L379.472 73.9235L379.306 75.9165L385.57 76.4385L385.736 74.4455ZM379.484 73.9246C376.711 73.6586 374.436 73.2062 372.64 72.5832L371.985 74.4728C373.979 75.1644 376.421 75.64 379.293 75.9154L379.484 73.9246ZM372.64 72.5832C370.851 71.9623 369.459 71.1398 368.426 70.141L367.036 71.579C368.322 72.8228 369.985 73.779 371.985 74.4728L372.64 72.5832ZM368.45 70.165C367.439 69.1195 366.705 67.8825 366.248 66.4398L364.341 67.0442C364.889 68.7721 365.78 70.2805 367.012 71.555L368.45 70.165ZM366.256 66.4673C365.824 64.9536 365.599 63.1552 365.599 61.058H363.599C363.599 63.2915 363.838 65.2824 364.333 67.0167L366.256 66.4673ZM365.599 61.058C365.599 58.1415 365.903 55.7761 366.481 53.9333L364.573 53.3347C363.913 55.4359 363.599 58.0198 363.599 61.058H365.599ZM366.482 53.9281C367.056 52.0638 367.953 50.6267 369.148 49.5686L367.822 48.0714C366.31 49.4106 365.235 51.1829 364.571 53.3399L366.482 53.9281ZM369.159 49.558C370.365 48.4559 371.942 47.6542 373.935 47.1832L373.475 45.2368C371.214 45.7712 369.311 46.7094 367.81 48.082L369.159 49.558ZM373.931 47.1841C376 46.7039 378.548 46.456 381.593 46.456V44.456C378.45 44.456 375.741 44.7108 373.479 45.2359L373.931 47.1841ZM381.593 46.456C387.679 46.456 393.17 47.0303 398.07 48.17L398.523 46.222C393.448 45.0417 387.802 44.456 381.593 44.456V46.456ZM397.309 47.0416L395.569 58.1776L397.545 58.4864L399.285 47.3504L397.309 47.0416ZM396.715 57.3447C392.363 56.6452 388.842 56.288 386.175 56.288V58.288C388.688 58.288 392.089 58.6268 396.398 59.3193L396.715 57.3447ZM386.175 56.288C383.558 56.288 381.309 56.405 379.436 56.644L379.689 58.6279C381.451 58.403 383.611 58.288 386.175 58.288V56.288ZM378.563 57.636V61.058H380.563V57.636H378.563ZM379.47 62.0537L384.458 62.5177L384.643 60.5263L379.655 60.0623L379.47 62.0537ZM384.45 62.5169C387.454 62.8211 389.92 63.3307 391.869 64.0293L392.544 62.1467C390.394 61.376 387.757 60.8415 384.651 60.5271L384.45 62.5169ZM391.885 64.0349C393.835 64.6973 395.344 65.5619 396.453 66.6015L397.821 65.1425C396.455 63.8621 394.677 62.8707 392.528 62.1411L391.885 64.0349ZM396.464 66.6119C397.615 67.6579 398.404 68.8814 398.851 70.2922L400.758 69.6878C400.2 67.928 399.211 66.4061 397.809 65.1321L396.464 66.6119ZM398.858 70.3131C399.357 71.7742 399.617 73.4789 399.617 75.442H401.617C401.617 73.3064 401.335 71.3765 400.751 69.6669L398.858 70.3131ZM399.617 75.442C399.617 78.2997 399.24 80.6443 398.523 82.507L400.39 83.225C401.22 81.0664 401.617 78.4617 401.617 75.442H399.617ZM398.523 82.507C397.781 84.436 396.921 85.8195 395.979 86.7282L397.367 88.1678C398.59 86.9885 399.585 85.3173 400.39 83.225L398.523 82.507ZM395.981 86.7254C395.201 87.4717 394.218 88.082 393.01 88.5439L393.724 90.4121C395.145 89.8686 396.366 89.1256 397.364 88.1706L395.981 86.7254ZM393.034 88.535C391.78 88.9774 390.448 89.3111 389.035 89.5342L389.347 91.5098C390.872 91.2689 392.324 90.9066 393.7 90.421L393.034 88.535ZM389.035 89.5342C387.609 89.7593 386.164 89.8908 384.699 89.9283L384.75 91.9277C386.301 91.8879 387.834 91.7487 389.347 91.5098L389.035 89.5342ZM384.672 89.9294C383.217 90.006 381.9 90.044 380.723 90.044V92.044C381.942 92.044 383.294 92.0047 384.777 91.9266L384.672 89.9294ZM380.723 90.044C377.741 90.044 374.878 89.8911 372.133 89.5861L371.912 91.5739C374.736 91.8876 377.673 92.044 380.723 92.044V90.044ZM372.133 89.5861C369.383 89.2806 366.732 88.8418 364.179 88.2702L363.742 90.2218C366.37 90.8102 369.094 91.2607 371.912 91.5739L372.133 89.5861ZM404.119 89.246L403.133 89.0768L402.972 90.0141L403.9 90.2218L404.119 89.246ZM406.091 77.762L406.329 76.7908L405.287 76.535L405.105 77.5928L406.091 77.762ZM422.215 79.27L422.244 80.2696L422.258 80.2692L422.272 80.2684L422.215 79.27ZM425.811 78.922L425.957 79.9112L426.811 79.7848V78.922H425.811ZM425.811 75.442H426.811V74.5219L425.894 74.4455L425.811 75.442ZM419.547 74.92L419.451 75.9155L419.464 75.9165L419.547 74.92ZM412.471 73.528L412.143 74.4728L412.143 74.4728L412.471 73.528ZM407.889 70.86L407.17 71.555L407.182 71.5672L407.194 71.579L407.889 70.86ZM405.453 66.742L404.491 67.0167L404.495 67.0305L404.5 67.0442L405.453 66.742ZM405.685 53.634L406.639 53.9333L406.641 53.9281L405.685 53.634ZM408.643 48.82L409.306 49.5686L409.312 49.5634L409.318 49.558L408.643 48.82ZM413.863 46.21L413.637 45.2359L413.633 45.2368L413.863 46.21ZM438.455 47.196L439.443 47.3504L439.586 46.4324L438.681 46.222L438.455 47.196ZM436.715 58.332L436.556 59.3193L437.548 59.4787L437.703 58.4864L436.715 58.332ZM419.721 57.636L419.594 56.644L418.721 56.7555V57.636H419.721ZM419.721 61.058H418.721V61.9693L419.628 62.0537L419.721 61.058ZM424.709 61.522L424.81 60.5271L424.802 60.5263L424.709 61.522ZM432.365 63.088L432.027 64.0293L432.035 64.0322L432.043 64.0349L432.365 63.088ZM437.295 65.872L436.611 66.6015L436.617 66.6068L436.622 66.6119L437.295 65.872ZM439.963 69.99L439.01 70.2922L439.013 70.3027L439.017 70.3131L439.963 69.99ZM439.615 82.866L438.682 82.507L438.682 82.507L439.615 82.866ZM436.831 87.448L437.522 88.1706L437.525 88.1678L436.831 87.448ZM433.525 89.478L433.858 90.421L433.87 90.4167L433.882 90.4121L433.525 89.478ZM429.349 90.522L429.505 91.5098L429.505 91.5098L429.349 90.522ZM424.883 90.928L424.857 89.9283L424.844 89.9287L424.83 89.9294L424.883 90.928ZM412.181 90.58L412.291 89.5861L412.291 89.5861L412.181 90.58ZM405.104 89.4152L407.076 77.9312L405.105 77.5928L403.133 89.0768L405.104 89.4152ZM405.853 78.7332C410.164 79.7914 414.093 80.328 417.633 80.328V78.328C414.29 78.328 410.525 77.8206 406.329 76.7908L405.853 78.7332ZM417.633 80.328C419.38 80.328 420.917 80.3086 422.244 80.2696L422.186 78.2704C420.883 78.3087 419.366 78.328 417.633 78.328V80.328ZM422.272 80.2684C423.647 80.1898 424.877 80.0713 425.957 79.9112L425.664 77.9328C424.657 78.082 423.489 78.1956 422.158 78.2716L422.272 80.2684ZM426.811 78.922V75.442H424.811V78.922H426.811ZM425.894 74.4455L419.63 73.9235L419.464 75.9165L425.728 76.4385L425.894 74.4455ZM419.642 73.9246C416.869 73.6586 414.594 73.2062 412.799 72.5832L412.143 74.4728C414.137 75.1644 416.579 75.64 419.451 75.9154L419.642 73.9246ZM412.799 72.5832C411.009 71.9623 409.617 71.1398 408.584 70.141L407.194 71.579C408.481 72.8228 410.144 73.779 412.143 74.4728L412.799 72.5832ZM408.608 70.165C407.597 69.1195 406.864 67.8825 406.406 66.4398L404.5 67.0442C405.048 68.7721 405.938 70.2805 407.17 71.555L408.608 70.165ZM406.414 66.4673C405.982 64.9536 405.757 63.1552 405.757 61.058H403.757C403.757 63.2915 403.996 65.2824 404.491 67.0167L406.414 66.4673ZM405.757 61.058C405.757 58.1415 406.061 55.7761 406.639 53.9333L404.731 53.3347C404.072 55.4359 403.757 58.0198 403.757 61.058H405.757ZM406.641 53.9281C407.214 52.0638 408.111 50.6267 409.306 49.5686L407.98 48.0714C406.468 49.4106 405.393 51.1829 404.729 53.3399L406.641 53.9281ZM409.318 49.558C410.523 48.4559 412.1 47.6542 414.093 47.1832L413.633 45.2368C411.372 45.7712 409.469 46.7094 407.968 48.082L409.318 49.558ZM414.089 47.1841C416.158 46.7039 418.706 46.456 421.751 46.456V44.456C418.609 44.456 415.899 44.7108 413.637 45.2359L414.089 47.1841ZM421.751 46.456C427.837 46.456 433.328 47.0303 438.228 48.17L438.681 46.222C433.606 45.0417 427.96 44.456 421.751 44.456V46.456ZM437.467 47.0416L435.727 58.1776L437.703 58.4864L439.443 47.3504L437.467 47.0416ZM436.874 57.3447C432.521 56.6452 429.001 56.288 426.333 56.288V58.288C428.846 58.288 432.247 58.6268 436.556 59.3193L436.874 57.3447ZM426.333 56.288C423.716 56.288 421.467 56.405 419.594 56.644L419.848 58.6279C421.61 58.403 423.769 58.288 426.333 58.288V56.288ZM418.721 57.636V61.058H420.721V57.636H418.721ZM419.628 62.0537L424.616 62.5177L424.802 60.5263L419.814 60.0623L419.628 62.0537ZM424.608 62.5169C427.612 62.8211 430.079 63.3307 432.027 64.0293L432.702 62.1467C430.553 61.376 427.915 60.8415 424.81 60.5271L424.608 62.5169ZM432.043 64.0349C433.994 64.6973 435.502 65.5619 436.611 66.6015L437.979 65.1425C436.613 63.8621 434.835 62.8707 432.686 62.1411L432.043 64.0349ZM436.622 66.6119C437.773 67.6579 438.562 68.8814 439.01 70.2922L440.916 69.6878C440.358 67.928 439.369 66.4061 437.968 65.1321L436.622 66.6119ZM439.017 70.3131C439.515 71.7742 439.775 73.4789 439.775 75.442H441.775C441.775 73.3064 441.493 71.3765 440.909 69.6669L439.017 70.3131ZM439.775 75.442C439.775 78.2997 439.398 80.6443 438.682 82.507L440.548 83.225C441.378 81.0664 441.775 78.4617 441.775 75.442H439.775ZM438.682 82.507C437.94 84.436 437.079 85.8195 436.137 86.7282L437.525 88.1678C438.748 86.9885 439.744 85.3173 440.548 83.225L438.682 82.507ZM436.14 86.7254C435.359 87.4717 434.376 88.082 433.168 88.5439L433.882 90.4121C435.303 89.8686 436.524 89.1256 437.522 88.1706L436.14 86.7254ZM433.192 88.535C431.939 88.9774 430.606 89.3111 429.193 89.5342L429.505 91.5098C431.03 91.2689 432.482 90.9066 433.858 90.421L433.192 88.535ZM429.193 89.5342C427.767 89.7593 426.322 89.8908 424.857 89.9283L424.909 91.9277C426.46 91.8879 427.992 91.7487 429.505 91.5098L429.193 89.5342ZM424.83 89.9294C423.375 90.006 422.059 90.044 420.881 90.044V92.044C422.101 92.044 423.452 92.0047 424.935 91.9266L424.83 89.9294ZM420.881 90.044C417.899 90.044 415.036 89.8911 412.291 89.5861L412.07 91.5739C414.894 91.8876 417.831 92.044 420.881 92.044V90.044ZM412.291 89.5861C409.542 89.2806 406.89 88.8418 404.337 88.2702L403.9 90.2218C406.529 90.8102 409.252 91.2607 412.07 91.5739L412.291 89.5861ZM476.409 75.5L475.956 74.6088L475.056 75.0663L475.522 75.9614L476.409 75.5ZM483.949 90V91H485.596L484.836 89.5386L483.949 90ZM468.637 90L467.722 90.4023L467.984 91H468.637V90ZM462.953 77.066L463.869 76.6637L463.606 76.066H462.953V77.066ZM459.937 77.066V76.066H458.937V77.066H459.937ZM459.937 90V91H460.937V90H459.937ZM446.017 90H445.017V91H446.017V90ZM446.017 46.5V45.5H445.017V46.5H446.017ZM459.937 57.636V56.636H458.937V57.636H459.937ZM459.937 66.336H458.937V67.336H459.937V66.336ZM466.781 65.814L466.371 64.9021L466.362 64.9061L466.353 64.9103L466.781 65.814ZM466.781 58.158L466.353 59.0617L466.362 59.0659L466.371 59.0699L466.781 58.158ZM475.522 75.9614L483.062 90.4614L484.836 89.5386L477.296 75.0386L475.522 75.9614ZM483.949 89H468.637V91H483.949V89ZM469.553 89.5977L463.869 76.6637L462.038 77.4683L467.722 90.4023L469.553 89.5977ZM462.953 76.066H459.937V78.066H462.953V76.066ZM458.937 77.066V90H460.937V77.066H458.937ZM459.937 89H446.017V91H459.937V89ZM447.017 90V46.5H445.017V90H447.017ZM446.017 47.5H467.941V45.5H446.017V47.5ZM467.941 47.5C472.77 47.5 476.209 48.7293 478.45 51.0138C480.695 53.3018 481.905 56.8187 481.905 61.754H483.905C483.905 56.52 482.621 52.4098 479.878 49.6132C477.131 46.813 473.088 45.5 467.941 45.5V47.5ZM481.905 61.754C481.905 68.5222 479.813 72.6455 475.956 74.6088L476.863 76.3912C481.666 73.9465 483.905 68.9058 483.905 61.754H481.905ZM463.127 56.636H459.937V58.636H463.127V56.636ZM458.937 57.636V66.336H460.937V57.636H458.937ZM459.937 67.336H463.127V65.336H459.937V67.336ZM463.127 67.336C464.849 67.336 466.26 67.1673 467.209 66.7177L466.353 64.9103C465.833 65.1567 464.808 65.336 463.127 65.336V67.336ZM467.191 66.7259C468.481 66.1456 468.941 64.8589 468.941 63.436H466.941C466.941 64.4878 466.628 64.7864 466.371 64.9021L467.191 66.7259ZM468.941 63.436V60.536H466.941V63.436H468.941ZM468.941 60.536C468.941 59.1131 468.481 57.8264 467.191 57.2461L466.371 59.0699C466.628 59.1856 466.941 59.4842 466.941 60.536H468.941ZM467.209 57.2543C466.26 56.8047 464.849 56.636 463.127 56.636V58.636C464.808 58.636 465.833 58.8153 466.353 59.0617L467.209 57.2543ZM487.735 58.042L486.763 57.8086L486.761 57.8181L487.735 58.042ZM491.157 50.908L490.405 50.2494L490.397 50.2585L491.157 50.908ZM497.537 46.79L497.217 45.8427L497.217 45.8427L497.537 46.79ZM517.025 46.79L516.701 47.7358L516.705 47.7373L517.025 46.79ZM523.347 50.908L522.587 51.5575L522.595 51.5665L523.347 50.908ZM526.769 58.042L525.794 58.2631L525.796 58.2707L525.798 58.2784L526.769 58.042ZM526.885 78.284L527.862 78.4981L527.863 78.4953L526.885 78.284ZM523.579 85.36L522.812 84.7182L522.805 84.7276L523.579 85.36ZM517.257 89.652L517.59 90.595L517.598 90.5922L517.257 89.652ZM497.247 89.652L496.902 90.5906L496.911 90.5936L496.919 90.5965L497.247 89.652ZM490.925 85.36L490.151 85.9924L490.158 86.0017L490.925 85.36ZM487.677 78.284L486.7 78.4953L486.701 78.4981L487.677 78.284ZM501.713 79.154H500.713V80.154H501.713V79.154ZM511.631 78.516L512.095 79.4018L512.103 79.3979L512.11 79.3939L511.631 78.516ZM512.907 57.346H513.907V56.346H512.907V57.346ZM502.989 58.042L503.437 58.9364L503.453 58.9284L503.468 58.9199L502.989 58.042ZM487.749 68.308C487.749 64.3759 488.074 61.0331 488.71 58.2659L486.761 57.8181C486.082 60.7736 485.749 64.2747 485.749 68.308H487.749ZM488.708 58.2754C489.375 55.4953 490.455 53.2697 491.918 51.5575L490.397 50.2585C488.689 52.2583 487.488 54.7887 486.763 57.8086L488.708 58.2754ZM491.91 51.5665C493.404 49.8592 495.374 48.5774 497.858 47.7373L497.217 45.8427C494.442 46.7813 492.159 48.2448 490.405 50.2495L491.91 51.5665ZM497.858 47.7373C500.352 46.8936 503.484 46.456 507.281 46.456V44.456C503.345 44.456 499.981 44.9077 497.217 45.8427L497.858 47.7373ZM507.281 46.456C511.119 46.456 514.249 46.8941 516.701 47.7358L517.35 45.8442C514.621 44.9073 511.254 44.456 507.281 44.456V46.456ZM516.705 47.7373C519.187 48.5769 521.134 49.8566 522.587 51.5575L524.108 50.2585C522.39 48.2474 520.122 46.7817 517.346 45.8427L516.705 47.7373ZM522.595 51.5665C524.089 53.2742 525.166 55.492 525.794 58.2631L527.745 57.8209C527.058 54.792 525.854 52.2538 524.1 50.2495L522.595 51.5665ZM525.798 58.2784C526.47 61.0406 526.813 64.379 526.813 68.308H528.813C528.813 64.2716 528.461 60.766 527.741 57.8056L525.798 58.2784ZM526.813 68.308C526.813 72.0459 526.508 75.2976 525.908 78.0727L527.863 78.4953C528.5 75.5477 528.813 72.1488 528.813 68.308H526.813ZM525.909 78.0699C525.319 80.7619 524.278 82.9666 522.812 84.7183L524.346 86.0017C526.051 83.9641 527.215 81.4514 527.862 78.4981L525.909 78.0699ZM522.805 84.7276C521.39 86.4613 519.443 87.7967 516.917 88.7118L517.598 90.5922C520.408 89.574 522.676 88.0481 524.354 85.9924L522.805 84.7276ZM516.925 88.709C514.438 89.5866 511.235 90.044 507.281 90.044V92.044C511.37 92.044 514.818 91.5734 517.59 90.595L516.925 88.709ZM507.281 90.044C503.329 90.044 500.104 89.5868 497.576 88.7075L496.919 90.5965C499.727 91.5732 503.192 92.044 507.281 92.044V90.044ZM497.592 88.7134C495.105 87.7989 493.151 86.4616 491.692 84.7183L490.158 86.0017C491.87 88.0477 494.131 89.5718 496.902 90.5906L497.592 88.7134ZM491.7 84.7276C490.269 82.9748 489.245 80.7669 488.654 78.0699L486.701 78.4981C487.347 81.4464 488.488 83.9559 490.151 85.9924L491.7 84.7276ZM488.655 78.0727C488.055 75.2976 487.749 72.0459 487.749 68.308H485.749C485.749 72.1488 486.063 75.5477 486.7 78.4953L488.655 78.0727ZM500.713 61.058V79.154H502.713V61.058H500.713ZM501.713 80.154H507.513V78.154H501.713V80.154ZM507.513 80.154C509.467 80.154 511.053 79.9479 512.095 79.4018L511.167 77.6302C510.586 77.9347 509.427 78.154 507.513 78.154V80.154ZM512.11 79.3939C513.452 78.662 513.907 77.147 513.907 75.442H511.907C511.907 76.9076 511.512 77.442 511.153 77.6381L512.11 79.3939ZM513.907 75.442V57.346H511.907V75.442H513.907ZM512.907 56.346H507.049V58.346H512.907V56.346ZM507.049 56.346C505.153 56.346 503.589 56.5756 502.511 57.1641L503.468 58.9199C504.091 58.5804 505.234 58.346 507.049 58.346V56.346ZM502.542 57.1476C501.165 57.8361 500.713 59.363 500.713 61.058H502.713C502.713 59.5823 503.112 59.0986 503.437 58.9364L502.542 57.1476ZM531.575 58.042L530.603 57.8086L530.601 57.8181L531.575 58.042ZM534.997 50.908L534.245 50.2494L534.237 50.2585L534.997 50.908ZM541.377 46.79L541.057 45.8427L541.057 45.8427L541.377 46.79ZM560.865 46.79L560.541 47.7358L560.545 47.7373L560.865 46.79ZM567.187 50.908L566.427 51.5575L566.435 51.5665L567.187 50.908ZM570.609 58.042L569.634 58.2631L569.636 58.2707L569.638 58.2784L570.609 58.042ZM570.725 78.284L571.702 78.4981L571.703 78.4953L570.725 78.284ZM567.419 85.36L566.652 84.7182L566.645 84.7276L567.419 85.36ZM561.097 89.652L561.43 90.595L561.438 90.5922L561.097 89.652ZM541.087 89.652L540.742 90.5906L540.75 90.5936L540.759 90.5965L541.087 89.652ZM534.765 85.36L533.991 85.9924L533.998 86.0017L534.765 85.36ZM531.517 78.284L530.54 78.4953L530.54 78.4981L531.517 78.284ZM545.553 79.154H544.553V80.154H545.553V79.154ZM555.471 78.516L555.935 79.4018L555.943 79.3979L555.95 79.3939L555.471 78.516ZM556.747 57.346H557.747V56.346H556.747V57.346ZM546.829 58.042L547.276 58.9364L547.292 58.9284L547.308 58.9199L546.829 58.042ZM531.589 68.308C531.589 64.3759 531.914 61.0331 532.55 58.2659L530.601 57.8181C529.922 60.7736 529.589 64.2747 529.589 68.308H531.589ZM532.548 58.2754C533.215 55.4953 534.295 53.2697 535.758 51.5575L534.237 50.2585C532.529 52.2583 531.328 54.7887 530.603 57.8086L532.548 58.2754ZM535.75 51.5665C537.244 49.8592 539.214 48.5774 541.698 47.7373L541.057 45.8427C538.282 46.7813 535.999 48.2448 534.245 50.2495L535.75 51.5665ZM541.698 47.7373C544.192 46.8936 547.324 46.456 551.121 46.456V44.456C547.185 44.456 543.821 44.9077 541.057 45.8427L541.698 47.7373ZM551.121 46.456C554.959 46.456 558.089 46.8941 560.541 47.7358L561.19 45.8442C558.461 44.9073 555.094 44.456 551.121 44.456V46.456ZM560.545 47.7373C563.027 48.5769 564.974 49.8566 566.427 51.5575L567.948 50.2585C566.23 48.2474 563.962 46.7817 561.186 45.8427L560.545 47.7373ZM566.435 51.5665C567.929 53.2742 569.006 55.492 569.634 58.2631L571.585 57.8209C570.898 54.792 569.694 52.2538 567.94 50.2495L566.435 51.5665ZM569.638 58.2784C570.31 61.0406 570.653 64.379 570.653 68.308H572.653C572.653 64.2716 572.301 60.766 571.581 57.8056L569.638 58.2784ZM570.653 68.308C570.653 72.0459 570.348 75.2976 569.748 78.0727L571.703 78.4953C572.34 75.5477 572.653 72.1488 572.653 68.308H570.653ZM569.748 78.0699C569.158 80.7619 568.118 82.9666 566.652 84.7183L568.186 86.0017C569.891 83.9641 571.055 81.4514 571.702 78.4981L569.748 78.0699ZM566.645 84.7276C565.229 86.4613 563.282 87.7967 560.757 88.7118L561.438 90.5922C564.248 89.574 566.516 88.0481 568.194 85.9924L566.645 84.7276ZM560.764 88.709C558.278 89.5866 555.075 90.044 551.121 90.044V92.044C555.21 92.044 558.658 91.5734 561.43 90.595L560.764 88.709ZM551.121 90.044C547.168 90.044 543.944 89.5868 541.416 88.7075L540.759 90.5965C543.567 91.5732 547.031 92.044 551.121 92.044V90.044ZM541.432 88.7134C538.945 87.7989 536.991 86.4616 535.532 84.7183L533.998 86.0017C535.71 88.0477 537.971 89.5718 540.742 90.5906L541.432 88.7134ZM535.54 84.7276C534.109 82.9748 533.085 80.7669 532.494 78.0699L530.54 78.4981C531.187 81.4464 532.328 83.9559 533.991 85.9924L535.54 84.7276ZM532.495 78.0727C531.895 75.2976 531.589 72.0459 531.589 68.308H529.589C529.589 72.1488 529.903 75.5477 530.54 78.4953L532.495 78.0727ZM544.553 61.058V79.154H546.553V61.058H544.553ZM545.553 80.154H551.353V78.154H545.553V80.154ZM551.353 80.154C553.307 80.154 554.893 79.9479 555.935 79.4018L555.007 77.6302C554.426 77.9347 553.266 78.154 551.353 78.154V80.154ZM555.95 79.3939C557.292 78.662 557.747 77.147 557.747 75.442H555.747C555.747 76.9076 555.352 77.442 554.992 77.6381L555.95 79.3939ZM557.747 75.442V57.346H555.747V75.442H557.747ZM556.747 56.346H550.889V58.346H556.747V56.346ZM550.889 56.346C548.993 56.346 547.429 56.5756 546.35 57.1641L547.308 58.9199C547.931 58.5804 549.074 58.346 550.889 58.346V56.346ZM546.382 57.1476C545.005 57.8361 544.553 59.363 544.553 61.058H546.553C546.553 59.5823 546.952 59.0986 547.276 58.9364L546.382 57.1476ZM590.147 68.888V67.888H589.185L589.148 68.8496L590.147 68.888ZM589.335 90V91H590.297L590.334 90.0384L589.335 90ZM574.777 90L573.779 89.9388L573.714 91H574.777V90ZM577.445 46.5V45.5H576.505L576.447 46.4388L577.445 46.5ZM595.599 46.5L596.571 46.2635L596.385 45.5H595.599V46.5ZM600.993 68.656L600.021 68.8925L600.207 69.656H600.993V68.656ZM601.515 68.656V69.656H602.301L602.487 68.8925L601.515 68.656ZM606.909 46.5V45.5H606.123L605.937 46.2635L606.909 46.5ZM625.121 46.5L626.119 46.4401L626.063 45.5H625.121V46.5ZM627.731 90V91H628.793L628.729 89.9401L627.731 90ZM613.173 90L612.174 90.0384L612.211 91H613.173V90ZM612.361 68.888L613.36 68.8496L613.323 67.888H612.361V68.888ZM611.897 68.888V67.888H611.118L610.928 68.643L611.897 68.888ZM606.561 90V91H607.34L607.531 90.245L606.561 90ZM595.947 90L594.978 90.2475L595.17 91H595.947V90ZM590.553 68.888L591.522 68.6405L591.33 67.888H590.553V68.888ZM589.148 68.8496L588.336 89.9616L590.334 90.0384L591.146 68.9264L589.148 68.8496ZM589.335 89H574.777V91H589.335V89ZM575.775 90.0612L578.443 46.5612L576.447 46.4388L573.779 89.9388L575.775 90.0612ZM577.445 47.5H595.599V45.5H577.445V47.5ZM594.627 46.7365L600.021 68.8925L601.965 68.4195L596.571 46.2635L594.627 46.7365ZM600.993 69.656H601.515V67.656H600.993V69.656ZM602.487 68.8925L607.881 46.7365L605.937 46.2635L600.543 68.4195L602.487 68.8925ZM606.909 47.5H625.121V45.5H606.909V47.5ZM624.123 46.5599L626.733 90.0599L628.729 89.9401L626.119 46.4401L624.123 46.5599ZM627.731 89H613.173V91H627.731V89ZM614.172 89.9616L613.36 68.8496L611.362 68.9264L612.174 90.0384L614.172 89.9616ZM612.361 67.888H611.897V69.888H612.361V67.888ZM610.928 68.643L605.592 89.755L607.531 90.245L612.867 69.133L610.928 68.643ZM606.561 89H595.947V91H606.561V89ZM596.916 89.7525L591.522 68.6405L589.584 69.1355L594.978 90.2475L596.916 89.7525ZM590.553 67.888H590.147V69.888H590.553V67.888Z" fill="#CEB7FF"/>
</g>
<g filter="url(#filter1_d_21_3757)">
<path d="M4.5 4.5H543.5V19.5H4.5V4.5Z" stroke="#CEB7FF" shape-rendering="crispEdges"/>
</g>
<g filter="url(#filter2_d_21_3757)">
<path d="M4.5 112.5H543.5V127.5H4.5V112.5Z" stroke="#CEB7FF" shape-rendering="crispEdges"/>
</g>
<defs>
<filter id="filter0_d_21_3757" x="1.49356" y="40.4561" width="631.237" height="55.5879" filterUnits="userSpaceOnUse" color-interpolation-filters="sRGB">
<feFlood flood-opacity="0" result="BackgroundImageFix"/>
<feColorMatrix in="SourceAlpha" type="matrix" values="0 0 0 0 0 0 0 0 0 0 0 0 0 0 0 0 0 0 127 0" result="hardAlpha"/>
<feOffset/>
<feGaussianBlur stdDeviation="2.5"/>
<feComposite in2="hardAlpha" operator="out"/>
<feColorMatrix type="matrix" values="0 0 0 0 0.701961 0 0 0 0 0.466667 0 0 0 0 1 0 0 0 1 0"/>
<feBlend mode="normal" in2="BackgroundImageFix" result="effect1_dropShadow_21_3757"/>
<feBlend mode="normal" in="SourceGraphic" in2="effect1_dropShadow_21_3757" result="shape"/>
</filter>
<filter id="filter1_d_21_3757" x="0" y="0" width="548" height="24" filterUnits="userSpaceOnUse" color-interpolation-filters="sRGB">
<feFlood flood-opacity="0" result="BackgroundImageFix"/>
<feColorMatrix in="SourceAlpha" type="matrix" values="0 0 0 0 0 0 0 0 0 0 0 0 0 0 0 0 0 0 127 0" result="hardAlpha"/>
<feOffset/>
<feGaussianBlur stdDeviation="2"/>
<feComposite in2="hardAlpha" operator="out"/>
<feColorMatrix type="matrix" values="0 0 0 0 0.807843 0 0 0 0 0.717647 0 0 0 0 1 0 0 0 1 0"/>
<feBlend mode="normal" in2="BackgroundImageFix" result="effect1_dropShadow_21_3757"/>
<feBlend mode="normal" in="SourceGraphic" in2="effect1_dropShadow_21_3757" result="shape"/>
</filter>
<filter id="filter2_d_21_3757" x="0" y="108" width="548" height="24" filterUnits="userSpaceOnUse" color-interpolation-filters="sRGB">
<feFlood flood-opacity="0" result="BackgroundImageFix"/>
<feColorMatrix in="SourceAlpha" type="matrix" values="0 0 0 0 0 0 0 0 0 0 0 0 0 0 0 0 0 0 127 0" result="hardAlpha"/>
<feOffset/>
<feGaussianBlur stdDeviation="2"/>
<feComposite in2="hardAlpha" operator="out"/>
<feColorMatrix type="matrix" values="0 0 0 0 0.807843 0 0 0 0 0.717647 0 0 0 0 1 0 0 0 1 0"/>
<feBlend mode="normal" in2="BackgroundImageFix" result="effect1_dropShadow_21_3757"/>
<feBlend mode="normal" in="SourceGraphic" in2="effect1_dropShadow_21_3757" result="shape"/>
</filter>
</defs>
</svg>
