<svg width="333" height="84" viewBox="0 0 333 84" fill="none" xmlns="http://www.w3.org/2000/svg">
<g filter="url(#filter0_d_9_6558)">
<path d="M63 5V41H72.1982V11.4158H121V5H63Z" stroke="white" stroke-width="2"/>
<path d="M63 5V41H72.1982V11.4158H121V5H63Z" stroke="white" stroke-width="2"/>
<path d="M93.9004 55.7184H92.9004V56.7184H93.9004V55.7184ZM93.9004 26.4684V25.4684H92.9004V26.4684H93.9004ZM113.595 27.2874L113.3 28.243L113.313 28.2468L113.595 27.2874ZM120.108 34.3464L119.136 34.5793L119.139 34.5922L120.108 34.3464ZM120.108 47.8014L119.138 47.5589L119.136 47.5686L120.108 47.8014ZM117.846 52.3254L117.107 51.6519L117.107 51.6519L117.846 52.3254ZM113.595 54.8994L113.3 53.944L113.3 53.944L113.595 54.8994ZM103.26 33.9564V32.9564H102.26V33.9564H103.26ZM103.26 48.2304H102.26V49.2304H103.26V48.2304ZM109.929 47.8014L110.393 48.6873L110.401 48.6834L110.408 48.6793L109.929 47.8014ZM109.929 34.4244L109.433 35.2927L109.457 35.3064L109.482 35.3189L109.929 34.4244ZM107.004 54.7184H93.9004V56.7184H107.004V54.7184ZM94.9004 55.7184V26.4684H92.9004V55.7184H94.9004ZM93.9004 27.4684H107.004V25.4684H93.9004V27.4684ZM107.004 27.4684C109.569 27.4684 111.659 27.7359 113.3 28.2429L113.89 26.332C111.996 25.7469 109.692 25.4684 107.004 25.4684V27.4684ZM113.313 28.2468C114.935 28.7237 116.184 29.4822 117.107 30.4959L118.586 29.1489C117.377 27.8227 115.792 26.8911 113.878 26.3281L113.313 28.2468ZM117.107 30.4959C118.039 31.5184 118.725 32.8649 119.136 34.5793L121.081 34.1136C120.607 32.136 119.786 30.4664 118.586 29.1489L117.107 30.4959ZM119.139 34.5922C119.581 36.334 119.81 38.4825 119.81 41.0544H121.81C121.81 38.3744 121.572 36.0508 121.078 34.1007L119.139 34.5922ZM119.81 41.0544C119.81 43.6259 119.581 45.7889 119.138 47.5589L121.079 48.044C121.572 46.07 121.81 43.735 121.81 41.0544H119.81ZM119.136 47.5686C118.725 49.283 118.039 50.6294 117.107 51.6519L118.586 52.9989C119.786 51.6814 120.607 50.0119 121.081 48.0343L119.136 47.5686ZM117.107 51.6519C116.18 52.6691 114.927 53.4416 113.3 53.944L113.89 55.8549C115.8 55.2652 117.38 54.3217 118.586 52.9989L117.107 51.6519ZM113.3 53.944C111.659 54.4509 109.569 54.7184 107.004 54.7184V56.7184C109.692 56.7184 111.996 56.4399 113.89 55.8549L113.3 53.944ZM107.16 32.9564H103.26V34.9564H107.16V32.9564ZM102.26 33.9564V48.2304H104.26V33.9564H102.26ZM103.26 49.2304H107.16V47.2304H103.26V49.2304ZM107.16 49.2304C108.481 49.2304 109.617 49.094 110.393 48.6873L109.465 46.9156C109.15 47.0808 108.44 47.2304 107.16 47.2304V49.2304ZM110.408 48.6793C111.471 48.0994 111.787 46.9201 111.787 45.7344H109.787C109.787 46.6807 109.531 46.8794 109.451 46.9235L110.408 48.6793ZM111.787 45.7344V36.4524H109.787V45.7344H111.787ZM111.787 36.4524C111.787 35.2768 111.475 34.0791 110.377 33.53L109.482 35.3189C109.528 35.3417 109.787 35.496 109.787 36.4524H111.787ZM110.426 33.5562C109.637 33.1058 108.485 32.9564 107.16 32.9564V34.9564C108.435 34.9564 109.129 35.1191 109.433 35.2927L110.426 33.5562ZM142.823 37.8954H143.823V36.8954H142.823V37.8954ZM142.823 44.6814V45.6814H143.823V44.6814H142.823ZM133.463 44.6814V43.6814H132.463V44.6814H133.463ZM133.463 48.2304H132.463V49.2304H133.463V48.2304ZM144.929 48.2304H145.929V47.2304H144.929V48.2304ZM144.929 55.7184V56.7184H145.929V55.7184H144.929ZM124.103 55.7184H123.103V56.7184H124.103V55.7184ZM124.103 26.4684V25.4684H123.103V26.4684H124.103ZM144.695 26.4684L145.683 26.6228L145.863 25.4684H144.695V26.4684ZM143.525 33.9564V34.9564H144.38L144.513 34.1108L143.525 33.9564ZM133.463 33.9564V32.9564H132.463V33.9564H133.463ZM133.463 37.8954H132.463V38.8954H133.463V37.8954ZM141.823 37.8954V44.6814H143.823V37.8954H141.823ZM142.823 43.6814H133.463V45.6814H142.823V43.6814ZM132.463 44.6814V48.2304H134.463V44.6814H132.463ZM133.463 49.2304H144.929V47.2304H133.463V49.2304ZM143.929 48.2304V55.7184H145.929V48.2304H143.929ZM144.929 54.7184H124.103V56.7184H144.929V54.7184ZM125.103 55.7184V26.4684H123.103V55.7184H125.103ZM124.103 27.4684H144.695V25.4684H124.103V27.4684ZM143.707 26.3141L142.537 33.8021L144.513 34.1108L145.683 26.6228L143.707 26.3141ZM143.525 32.9564H133.463V34.9564H143.525V32.9564ZM132.463 33.9564V37.8954H134.463V33.9564H132.463ZM133.463 38.8954H142.823V36.8954H133.463V38.8954ZM167.617 48.2304H168.617V47.2304H167.617V48.2304ZM167.617 55.7184V56.7184H168.617V55.7184H167.617ZM148.897 55.7184H147.897V56.7184H148.897V55.7184ZM148.897 26.4684V25.4684H147.897V26.4684H148.897ZM158.257 26.4684H159.257V25.4684H158.257V26.4684ZM158.257 48.2304H157.257V49.2304H158.257V48.2304ZM166.617 48.2304V55.7184H168.617V48.2304H166.617ZM167.617 54.7184H148.897V56.7184H167.617V54.7184ZM149.897 55.7184V26.4684H147.897V55.7184H149.897ZM148.897 27.4684H158.257V25.4684H148.897V27.4684ZM157.257 26.4684V48.2304H159.257V26.4684H157.257ZM158.257 49.2304H167.617V47.2304H158.257V49.2304ZM188.907 37.8954H189.907V36.8954H188.907V37.8954ZM188.907 44.6814V45.6814H189.907V44.6814H188.907ZM179.547 44.6814V43.6814H178.547V44.6814H179.547ZM179.547 48.2304H178.547V49.2304H179.547V48.2304ZM191.013 48.2304H192.013V47.2304H191.013V48.2304ZM191.013 55.7184V56.7184H192.013V55.7184H191.013ZM170.187 55.7184H169.187V56.7184H170.187V55.7184ZM170.187 26.4684V25.4684H169.187V26.4684H170.187ZM190.779 26.4684L191.767 26.6228L191.947 25.4684H190.779V26.4684ZM189.609 33.9564V34.9564H190.464L190.597 34.1108L189.609 33.9564ZM179.547 33.9564V32.9564H178.547V33.9564H179.547ZM179.547 37.8954H178.547V38.8954H179.547V37.8954ZM187.907 37.8954V44.6814H189.907V37.8954H187.907ZM188.907 43.6814H179.547V45.6814H188.907V43.6814ZM178.547 44.6814V48.2304H180.547V44.6814H178.547ZM179.547 49.2304H191.013V47.2304H179.547V49.2304ZM190.013 48.2304V55.7184H192.013V48.2304H190.013ZM191.013 54.7184H170.187V56.7184H191.013V54.7184ZM171.187 55.7184V26.4684H169.187V55.7184H171.187ZM170.187 27.4684H190.779V25.4684H170.187V27.4684ZM189.791 26.3141L188.621 33.8021L190.597 34.1108L191.767 26.6228L189.791 26.3141ZM189.609 32.9564H179.547V34.9564H189.609V32.9564ZM178.547 33.9564V37.8954H180.547V33.9564H178.547ZM179.547 38.8954H188.907V36.8954H179.547V38.8954ZM215.807 26.4684H216.807V25.4684H215.807V26.4684ZM215.807 33.9564V34.9564H216.807V33.9564H215.807ZM209.021 33.9564V32.9564H208.021V33.9564H209.021ZM209.021 55.7184V56.7184H210.021V55.7184H209.021ZM199.661 55.7184H198.661V56.7184H199.661V55.7184ZM199.661 33.9564H200.661V32.9564H199.661V33.9564ZM192.875 33.9564H191.875V34.9564H192.875V33.9564ZM192.875 26.4684V25.4684H191.875V26.4684H192.875ZM214.807 26.4684V33.9564H216.807V26.4684H214.807ZM215.807 32.9564H209.021V34.9564H215.807V32.9564ZM208.021 33.9564V55.7184H210.021V33.9564H208.021ZM209.021 54.7184H199.661V56.7184H209.021V54.7184ZM200.661 55.7184V33.9564H198.661V55.7184H200.661ZM199.661 32.9564H192.875V34.9564H199.661V32.9564ZM193.875 33.9564V26.4684H191.875V33.9564H193.875ZM192.875 27.4684H215.807V25.4684H192.875V27.4684ZM237.085 37.8954H238.085V36.8954H237.085V37.8954ZM237.085 44.6814V45.6814H238.085V44.6814H237.085ZM227.725 44.6814V43.6814H226.725V44.6814H227.725ZM227.725 48.2304H226.725V49.2304H227.725V48.2304ZM239.191 48.2304H240.191V47.2304H239.191V48.2304ZM239.191 55.7184V56.7184H240.191V55.7184H239.191ZM218.365 55.7184H217.365V56.7184H218.365V55.7184ZM218.365 26.4684V25.4684H217.365V26.4684H218.365ZM238.957 26.4684L239.945 26.6228L240.126 25.4684H238.957V26.4684ZM237.787 33.9564V34.9564H238.643L238.775 34.1108L237.787 33.9564ZM227.725 33.9564V32.9564H226.725V33.9564H227.725ZM227.725 37.8954H226.725V38.8954H227.725V37.8954ZM236.085 37.8954V44.6814H238.085V37.8954H236.085ZM237.085 43.6814H227.725V45.6814H237.085V43.6814ZM226.725 44.6814V48.2304H228.725V44.6814H226.725ZM227.725 49.2304H239.191V47.2304H227.725V49.2304ZM238.191 48.2304V55.7184H240.191V48.2304H238.191ZM239.191 54.7184H218.365V56.7184H239.191V54.7184ZM219.365 55.7184V26.4684H217.365V55.7184H219.365ZM218.365 27.4684H238.957V25.4684H218.365V27.4684ZM237.969 26.3141L236.799 33.8021L238.775 34.1108L239.945 26.6228L237.969 26.3141ZM237.787 32.9564H227.725V34.9564H237.787V32.9564ZM226.725 33.9564V37.8954H228.725V33.9564H226.725ZM227.725 38.8954H237.085V36.8954H227.725V38.8954Z" fill="white"/>
<path d="M93.9004 55.7184H92.9004V56.7184H93.9004V55.7184ZM93.9004 26.4684V25.4684H92.9004V26.4684H93.9004ZM113.595 27.2874L113.3 28.243L113.313 28.2468L113.595 27.2874ZM120.108 34.3464L119.136 34.5793L119.139 34.5922L120.108 34.3464ZM120.108 47.8014L119.138 47.5589L119.136 47.5686L120.108 47.8014ZM117.846 52.3254L117.107 51.6519L117.107 51.6519L117.846 52.3254ZM113.595 54.8994L113.3 53.944L113.3 53.944L113.595 54.8994ZM103.26 33.9564V32.9564H102.26V33.9564H103.26ZM103.26 48.2304H102.26V49.2304H103.26V48.2304ZM109.929 47.8014L110.393 48.6873L110.401 48.6834L110.408 48.6793L109.929 47.8014ZM109.929 34.4244L109.433 35.2927L109.457 35.3064L109.482 35.3189L109.929 34.4244ZM107.004 54.7184H93.9004V56.7184H107.004V54.7184ZM94.9004 55.7184V26.4684H92.9004V55.7184H94.9004ZM93.9004 27.4684H107.004V25.4684H93.9004V27.4684ZM107.004 27.4684C109.569 27.4684 111.659 27.7359 113.3 28.2429L113.89 26.332C111.996 25.7469 109.692 25.4684 107.004 25.4684V27.4684ZM113.313 28.2468C114.935 28.7237 116.184 29.4822 117.107 30.4959L118.586 29.1489C117.377 27.8227 115.792 26.8911 113.878 26.3281L113.313 28.2468ZM117.107 30.4959C118.039 31.5184 118.725 32.8649 119.136 34.5793L121.081 34.1136C120.607 32.136 119.786 30.4664 118.586 29.1489L117.107 30.4959ZM119.139 34.5922C119.581 36.334 119.81 38.4825 119.81 41.0544H121.81C121.81 38.3744 121.572 36.0508 121.078 34.1007L119.139 34.5922ZM119.81 41.0544C119.81 43.6259 119.581 45.7889 119.138 47.5589L121.079 48.044C121.572 46.07 121.81 43.735 121.81 41.0544H119.81ZM119.136 47.5686C118.725 49.283 118.039 50.6294 117.107 51.6519L118.586 52.9989C119.786 51.6814 120.607 50.0119 121.081 48.0343L119.136 47.5686ZM117.107 51.6519C116.18 52.6691 114.927 53.4416 113.3 53.944L113.89 55.8549C115.8 55.2652 117.38 54.3217 118.586 52.9989L117.107 51.6519ZM113.3 53.944C111.659 54.4509 109.569 54.7184 107.004 54.7184V56.7184C109.692 56.7184 111.996 56.4399 113.89 55.8549L113.3 53.944ZM107.16 32.9564H103.26V34.9564H107.16V32.9564ZM102.26 33.9564V48.2304H104.26V33.9564H102.26ZM103.26 49.2304H107.16V47.2304H103.26V49.2304ZM107.16 49.2304C108.481 49.2304 109.617 49.094 110.393 48.6873L109.465 46.9156C109.15 47.0808 108.44 47.2304 107.16 47.2304V49.2304ZM110.408 48.6793C111.471 48.0994 111.787 46.9201 111.787 45.7344H109.787C109.787 46.6807 109.531 46.8794 109.451 46.9235L110.408 48.6793ZM111.787 45.7344V36.4524H109.787V45.7344H111.787ZM111.787 36.4524C111.787 35.2768 111.475 34.0791 110.377 33.53L109.482 35.3189C109.528 35.3417 109.787 35.496 109.787 36.4524H111.787ZM110.426 33.5562C109.637 33.1058 108.485 32.9564 107.16 32.9564V34.9564C108.435 34.9564 109.129 35.1191 109.433 35.2927L110.426 33.5562ZM142.823 37.8954H143.823V36.8954H142.823V37.8954ZM142.823 44.6814V45.6814H143.823V44.6814H142.823ZM133.463 44.6814V43.6814H132.463V44.6814H133.463ZM133.463 48.2304H132.463V49.2304H133.463V48.2304ZM144.929 48.2304H145.929V47.2304H144.929V48.2304ZM144.929 55.7184V56.7184H145.929V55.7184H144.929ZM124.103 55.7184H123.103V56.7184H124.103V55.7184ZM124.103 26.4684V25.4684H123.103V26.4684H124.103ZM144.695 26.4684L145.683 26.6228L145.863 25.4684H144.695V26.4684ZM143.525 33.9564V34.9564H144.38L144.513 34.1108L143.525 33.9564ZM133.463 33.9564V32.9564H132.463V33.9564H133.463ZM133.463 37.8954H132.463V38.8954H133.463V37.8954ZM141.823 37.8954V44.6814H143.823V37.8954H141.823ZM142.823 43.6814H133.463V45.6814H142.823V43.6814ZM132.463 44.6814V48.2304H134.463V44.6814H132.463ZM133.463 49.2304H144.929V47.2304H133.463V49.2304ZM143.929 48.2304V55.7184H145.929V48.2304H143.929ZM144.929 54.7184H124.103V56.7184H144.929V54.7184ZM125.103 55.7184V26.4684H123.103V55.7184H125.103ZM124.103 27.4684H144.695V25.4684H124.103V27.4684ZM143.707 26.3141L142.537 33.8021L144.513 34.1108L145.683 26.6228L143.707 26.3141ZM143.525 32.9564H133.463V34.9564H143.525V32.9564ZM132.463 33.9564V37.8954H134.463V33.9564H132.463ZM133.463 38.8954H142.823V36.8954H133.463V38.8954ZM167.617 48.2304H168.617V47.2304H167.617V48.2304ZM167.617 55.7184V56.7184H168.617V55.7184H167.617ZM148.897 55.7184H147.897V56.7184H148.897V55.7184ZM148.897 26.4684V25.4684H147.897V26.4684H148.897ZM158.257 26.4684H159.257V25.4684H158.257V26.4684ZM158.257 48.2304H157.257V49.2304H158.257V48.2304ZM166.617 48.2304V55.7184H168.617V48.2304H166.617ZM167.617 54.7184H148.897V56.7184H167.617V54.7184ZM149.897 55.7184V26.4684H147.897V55.7184H149.897ZM148.897 27.4684H158.257V25.4684H148.897V27.4684ZM157.257 26.4684V48.2304H159.257V26.4684H157.257ZM158.257 49.2304H167.617V47.2304H158.257V49.2304ZM188.907 37.8954H189.907V36.8954H188.907V37.8954ZM188.907 44.6814V45.6814H189.907V44.6814H188.907ZM179.547 44.6814V43.6814H178.547V44.6814H179.547ZM179.547 48.2304H178.547V49.2304H179.547V48.2304ZM191.013 48.2304H192.013V47.2304H191.013V48.2304ZM191.013 55.7184V56.7184H192.013V55.7184H191.013ZM170.187 55.7184H169.187V56.7184H170.187V55.7184ZM170.187 26.4684V25.4684H169.187V26.4684H170.187ZM190.779 26.4684L191.767 26.6228L191.947 25.4684H190.779V26.4684ZM189.609 33.9564V34.9564H190.464L190.597 34.1108L189.609 33.9564ZM179.547 33.9564V32.9564H178.547V33.9564H179.547ZM179.547 37.8954H178.547V38.8954H179.547V37.8954ZM187.907 37.8954V44.6814H189.907V37.8954H187.907ZM188.907 43.6814H179.547V45.6814H188.907V43.6814ZM178.547 44.6814V48.2304H180.547V44.6814H178.547ZM179.547 49.2304H191.013V47.2304H179.547V49.2304ZM190.013 48.2304V55.7184H192.013V48.2304H190.013ZM191.013 54.7184H170.187V56.7184H191.013V54.7184ZM171.187 55.7184V26.4684H169.187V55.7184H171.187ZM170.187 27.4684H190.779V25.4684H170.187V27.4684ZM189.791 26.3141L188.621 33.8021L190.597 34.1108L191.767 26.6228L189.791 26.3141ZM189.609 32.9564H179.547V34.9564H189.609V32.9564ZM178.547 33.9564V37.8954H180.547V33.9564H178.547ZM179.547 38.8954H188.907V36.8954H179.547V38.8954ZM215.807 26.4684H216.807V25.4684H215.807V26.4684ZM215.807 33.9564V34.9564H216.807V33.9564H215.807ZM209.021 33.9564V32.9564H208.021V33.9564H209.021ZM209.021 55.7184V56.7184H210.021V55.7184H209.021ZM199.661 55.7184H198.661V56.7184H199.661V55.7184ZM199.661 33.9564H200.661V32.9564H199.661V33.9564ZM192.875 33.9564H191.875V34.9564H192.875V33.9564ZM192.875 26.4684V25.4684H191.875V26.4684H192.875ZM214.807 26.4684V33.9564H216.807V26.4684H214.807ZM215.807 32.9564H209.021V34.9564H215.807V32.9564ZM208.021 33.9564V55.7184H210.021V33.9564H208.021ZM209.021 54.7184H199.661V56.7184H209.021V54.7184ZM200.661 55.7184V33.9564H198.661V55.7184H200.661ZM199.661 32.9564H192.875V34.9564H199.661V32.9564ZM193.875 33.9564V26.4684H191.875V33.9564H193.875ZM192.875 27.4684H215.807V25.4684H192.875V27.4684ZM237.085 37.8954H238.085V36.8954H237.085V37.8954ZM237.085 44.6814V45.6814H238.085V44.6814H237.085ZM227.725 44.6814V43.6814H226.725V44.6814H227.725ZM227.725 48.2304H226.725V49.2304H227.725V48.2304ZM239.191 48.2304H240.191V47.2304H239.191V48.2304ZM239.191 55.7184V56.7184H240.191V55.7184H239.191ZM218.365 55.7184H217.365V56.7184H218.365V55.7184ZM218.365 26.4684V25.4684H217.365V26.4684H218.365ZM238.957 26.4684L239.945 26.6228L240.126 25.4684H238.957V26.4684ZM237.787 33.9564V34.9564H238.643L238.775 34.1108L237.787 33.9564ZM227.725 33.9564V32.9564H226.725V33.9564H227.725ZM227.725 37.8954H226.725V38.8954H227.725V37.8954ZM236.085 37.8954V44.6814H238.085V37.8954H236.085ZM237.085 43.6814H227.725V45.6814H237.085V43.6814ZM226.725 44.6814V48.2304H228.725V44.6814H226.725ZM227.725 49.2304H239.191V47.2304H227.725V49.2304ZM238.191 48.2304V55.7184H240.191V48.2304H238.191ZM239.191 54.7184H218.365V56.7184H239.191V54.7184ZM219.365 55.7184V26.4684H217.365V55.7184H219.365ZM218.365 27.4684H238.957V25.4684H218.365V27.4684ZM237.969 26.3141L236.799 33.8021L238.775 34.1108L239.945 26.6228L237.969 26.3141ZM237.787 32.9564H227.725V34.9564H237.787V32.9564ZM226.725 33.9564V37.8954H228.725V33.9564H226.725ZM227.725 38.8954H237.085V36.8954H227.725V38.8954Z" fill="white"/>
<path d="M273 79V43H263.802V72.5842H215V79H273Z" stroke="white" stroke-width="2"/>
<path d="M273 79V43H263.802V72.5842H215V79H273Z" stroke="white" stroke-width="2"/>
</g>
<defs>
<filter id="filter0_d_9_6558" x="58" y="0" width="220" height="84" filterUnits="userSpaceOnUse" color-interpolation-filters="sRGB">
<feFlood flood-opacity="0" result="BackgroundImageFix"/>
<feColorMatrix in="SourceAlpha" type="matrix" values="0 0 0 0 0 0 0 0 0 0 0 0 0 0 0 0 0 0 127 0" result="hardAlpha"/>
<feOffset/>
<feGaussianBlur stdDeviation="2"/>
<feComposite in2="hardAlpha" operator="out"/>
<feColorMatrix type="matrix" values="0 0 0 0 0.701961 0 0 0 0 0.466667 0 0 0 0 1 0 0 0 1 0"/>
<feBlend mode="normal" in2="BackgroundImageFix" result="effect1_dropShadow_9_6558"/>
<feBlend mode="normal" in="SourceGraphic" in2="effect1_dropShadow_9_6558" result="shape"/>
</filter>
</defs>
</svg>
