<svg width="47" height="45" viewBox="0 0 47 45" fill="none" xmlns="http://www.w3.org/2000/svg">
<path d="M23.0586 0C20.0305 0 17.0321 0.596429 14.2345 1.75523C11.4369 2.91404 8.8949 4.61252 6.75371 6.75371C2.42938 11.078 0 16.9431 0 23.0586C0 33.2505 6.61782 41.8975 15.7721 44.9643C16.925 45.1488 17.294 44.4339 17.294 43.8114V39.9144C10.9067 41.298 9.54626 36.8246 9.54626 36.8246C8.48557 34.1498 6.98676 33.435 6.98676 33.435C4.88843 32.0053 7.14817 32.0515 7.14817 32.0515C9.45403 32.2129 10.6761 34.4265 10.6761 34.4265C12.6822 37.9314 16.0718 36.8938 17.3862 36.3404C17.5937 34.8416 18.1932 33.827 18.8389 33.2505C13.7199 32.674 8.34722 30.691 8.34722 21.9057C8.34722 19.3462 9.22344 17.294 10.7223 15.6568C10.4917 15.0803 9.68462 12.6822 10.9528 9.56932C10.9528 9.56932 12.8898 8.94674 17.294 11.9213C19.1156 11.414 21.0986 11.1604 23.0586 11.1604C25.0186 11.1604 27.0016 11.414 28.8233 11.9213C33.2275 8.94674 35.1644 9.56932 35.1644 9.56932C36.4326 12.6822 35.6255 15.0803 35.395 15.6568C36.8938 17.294 37.77 19.3462 37.77 21.9057C37.77 30.7141 32.3743 32.651 27.2322 33.2275C28.0623 33.9423 28.8233 35.3488 28.8233 37.4933V43.8114C28.8233 44.4339 29.1922 45.1718 30.3682 44.9643C39.5225 41.8744 46.1172 33.2505 46.1172 23.0586C46.1172 20.0305 45.5208 17.0321 44.362 14.2345C43.2032 11.4369 41.5047 8.8949 39.3635 6.75371C37.2223 4.61252 34.6804 2.91404 31.8828 1.75523C29.0852 0.596429 26.0867 0 23.0586 0Z" fill="#CEB7FF"/>
</svg>
