<svg width="45" height="45" viewBox="0 0 45 45" fill="none" xmlns="http://www.w3.org/2000/svg">
<path d="M22.5 15C20.5109 15 18.6032 15.7902 17.1967 17.1967C15.7902 18.6032 15 20.5109 15 22.5C15 24.4891 15.7902 26.3968 17.1967 27.8033C18.6032 29.2098 20.5109 30 22.5 30C24.4891 30 26.3968 29.2098 27.8033 27.8033C29.2098 26.3968 30 24.4891 30 22.5C30 20.5109 29.2098 18.6032 27.8033 17.1967C26.3968 15.7902 24.4891 15 22.5 15Z" fill="#CEB7FF"/>
<path fill-rule="evenodd" clip-rule="evenodd" d="M13.5 0C9.91958 0 6.4858 1.42232 3.95406 3.95406C1.42232 6.4858 0 9.91958 0 13.5V31.5C0 35.0804 1.42232 38.5142 3.95406 41.0459C6.4858 43.5777 9.91958 45 13.5 45H31.5C35.0804 45 38.5142 43.5777 41.0459 41.0459C43.5777 38.5142 45 35.0804 45 31.5V13.5C45 9.91958 43.5777 6.4858 41.0459 3.95406C38.5142 1.42232 35.0804 0 31.5 0H13.5ZM12 22.5C12 19.7152 13.1062 17.0445 15.0754 15.0754C17.0445 13.1062 19.7152 12 22.5 12C25.2848 12 27.9555 13.1062 29.9246 15.0754C31.8938 17.0445 33 19.7152 33 22.5C33 25.2848 31.8938 27.9555 29.9246 29.9246C27.9555 31.8938 25.2848 33 22.5 33C19.7152 33 17.0445 31.8938 15.0754 29.9246C13.1062 27.9555 12 25.2848 12 22.5ZM33 12H36V9H33V12Z" fill="#CEB7FF"/>
</svg>
