<svg width="78" height="126" viewBox="0 0 78 126" fill="none" xmlns="http://www.w3.org/2000/svg">
<path d="M3.67125 5.75H10.1513C12.3379 5.75 13.9779 6.33667 15.0713 7.51C16.1646 8.68333 16.7113 10.4033 16.7113 12.67V15.43C16.7113 17.6967 16.1646 19.4167 15.0713 20.59C13.9779 21.7633 12.3379 22.35 10.1513 22.35H8.07125V33.75H3.67125V5.75ZM10.1513 18.35C10.8713 18.35 11.4046 18.15 11.7513 17.75C12.1246 17.35 12.3112 16.67 12.3112 15.71V12.39C12.3112 11.43 12.1246 10.75 11.7513 10.35C11.4046 9.95 10.8713 9.75 10.1513 9.75H8.07125V18.35H10.1513ZM19.1009 5.75H25.6209C27.8876 5.75 29.5409 6.28333 30.5809 7.35C31.6209 8.39 32.1409 10.0033 32.1409 12.19V13.91C32.1409 16.8167 31.1809 18.6567 29.2609 19.43V19.51C30.3276 19.83 31.0743 20.4833 31.5009 21.47C31.9543 22.4567 32.1809 23.7767 32.1809 25.43V30.35C32.1809 31.15 32.2076 31.8033 32.2609 32.31C32.3143 32.79 32.4476 33.27 32.6609 33.75H28.1809C28.0209 33.2967 27.9143 32.87 27.8609 32.47C27.8076 32.07 27.7809 31.35 27.7809 30.31V25.19C27.7809 23.91 27.5676 23.0167 27.1409 22.51C26.7409 22.0033 26.0343 21.75 25.0209 21.75H23.5009V33.75H19.1009V5.75ZM25.1009 17.75C25.9809 17.75 26.6343 17.5233 27.0609 17.07C27.5143 16.6167 27.7409 15.8567 27.7409 14.79V12.63C27.7409 11.6167 27.5543 10.8833 27.1809 10.43C26.8343 9.97667 26.2743 9.75 25.5009 9.75H23.5009V17.75H25.1009ZM35.2338 5.75H47.2338V9.75H39.6338V17.15H45.6738V21.15H39.6338V29.75H47.2338V33.75H35.2338V5.75ZM55.5631 34.15C53.4298 34.15 51.8165 33.55 50.7231 32.35C49.6298 31.1233 49.0831 29.3767 49.0831 27.11V25.51H53.2431V27.43C53.2431 29.2433 54.0031 30.15 55.5231 30.15C56.2698 30.15 56.8298 29.9367 57.2031 29.51C57.6031 29.0567 57.8031 28.3367 57.8031 27.35C57.8031 26.1767 57.5365 25.15 57.0031 24.27C56.4698 23.3633 55.4831 22.2833 54.0431 21.03C52.2298 19.43 50.9631 17.99 50.2431 16.71C49.5231 15.4033 49.1631 13.9367 49.1631 12.31C49.1631 10.0967 49.7231 8.39 50.8431 7.19C51.9631 5.96333 53.5898 5.35 55.7231 5.35C57.8298 5.35 59.4165 5.96333 60.4831 7.19C61.5765 8.39 62.1231 10.1233 62.1231 12.39V13.55H57.9631V12.11C57.9631 11.15 57.7765 10.4567 57.4031 10.03C57.0298 9.57667 56.4831 9.35 55.7631 9.35C54.2965 9.35 53.5631 10.2433 53.5631 12.03C53.5631 13.0433 53.8298 13.99 54.3631 14.87C54.9231 15.75 55.9231 16.8167 57.3631 18.07C59.2031 19.67 60.4698 21.1233 61.1631 22.43C61.8565 23.7367 62.2031 25.27 62.2031 27.03C62.2031 29.3233 61.6298 31.0833 60.4831 32.31C59.3631 33.5367 57.7231 34.15 55.5631 34.15ZM70.4459 34.15C68.3126 34.15 66.6993 33.55 65.6059 32.35C64.5126 31.1233 63.9659 29.3767 63.9659 27.11V25.51H68.1259V27.43C68.1259 29.2433 68.8859 30.15 70.4059 30.15C71.1526 30.15 71.7126 29.9367 72.0859 29.51C72.4859 29.0567 72.6859 28.3367 72.6859 27.35C72.6859 26.1767 72.4193 25.15 71.8859 24.27C71.3526 23.3633 70.3659 22.2833 68.9259 21.03C67.1126 19.43 65.8459 17.99 65.1259 16.71C64.4059 15.4033 64.0459 13.9367 64.0459 12.31C64.0459 10.0967 64.6059 8.39 65.7259 7.19C66.8459 5.96333 68.4726 5.35 70.6059 5.35C72.7126 5.35 74.2993 5.96333 75.3659 7.19C76.4593 8.39 77.0059 10.1233 77.0059 12.39V13.55H72.8459V12.11C72.8459 11.15 72.6593 10.4567 72.2859 10.03C71.9126 9.57667 71.3659 9.35 70.6459 9.35C69.1793 9.35 68.4459 10.2433 68.4459 12.03C68.4459 13.0433 68.7126 13.99 69.2459 14.87C69.8059 15.75 70.8059 16.8167 72.2459 18.07C74.0859 19.67 75.3526 21.1233 76.0459 22.43C76.7393 23.7367 77.0859 25.27 77.0859 27.03C77.0859 29.3233 76.5126 31.0833 75.3659 32.31C74.2459 33.5367 72.6059 34.15 70.4459 34.15Z" fill="#CEB7FF"/>
<mask id="mask0_21_3858" style="mask-type:luminance" maskUnits="userSpaceOnUse" x="0" y="52" width="73" height="74">
<path d="M64.5 123.25C67.8137 123.25 70.5 120.564 70.5 117.25V60.75C70.5 57.4363 67.8137 54.75 64.5 54.75H42.25C38.9363 54.75 36.25 57.4363 36.25 60.75V76.15C36.25 79.4637 33.5637 82.15 30.25 82.15H8C4.68629 82.15 2 84.8363 2 88.15V117.25C2 120.564 4.68629 123.25 8 123.25H64.5Z" stroke="white" stroke-width="4" stroke-linecap="round" stroke-linejoin="round"/>
<path d="M31.1125 95.85L24.2625 102.7L31.1125 109.55" stroke="white" stroke-width="4" stroke-linecap="round" stroke-linejoin="round"/>
<path d="M53.375 87.2875V102.7H24.2625" stroke="white" stroke-width="4" stroke-linecap="round" stroke-linejoin="round"/>
</mask>
<g mask="url(#mask0_21_3858)">
<path d="M-4.85004 47.9H77.35V130.1H-4.85004V47.9Z" fill="#CEB7FF"/>
</g>
</svg>
