<svg width="1628" height="125" viewBox="0 0 1628 125" fill="none" xmlns="http://www.w3.org/2000/svg">
<path d="M3.67125 5H10.1513C12.3379 5 13.9779 5.58667 15.0713 6.76C16.1646 7.93333 16.7113 9.65333 16.7113 11.92V14.68C16.7113 16.9467 16.1646 18.6667 15.0713 19.84C13.9779 21.0133 12.3379 21.6 10.1513 21.6H8.07125V33H3.67125V5ZM10.1513 17.6C10.8713 17.6 11.4046 17.4 11.7513 17C12.1246 16.6 12.3112 15.92 12.3112 14.96V11.64C12.3112 10.68 12.1246 10 11.7513 9.6C11.4046 9.2 10.8713 9 10.1513 9H8.07125V17.6H10.1513ZM19.1009 5H25.6209C27.8876 5 29.5409 5.53333 30.5809 6.6C31.6209 7.64 32.1409 9.25333 32.1409 11.44V13.16C32.1409 16.0667 31.1809 17.9067 29.2609 18.68V18.76C30.3276 19.08 31.0743 19.7333 31.5009 20.72C31.9543 21.7067 32.1809 23.0267 32.1809 24.68V29.6C32.1809 30.4 32.2076 31.0533 32.2609 31.56C32.3143 32.04 32.4476 32.52 32.6609 33H28.1809C28.0209 32.5467 27.9143 32.12 27.8609 31.72C27.8076 31.32 27.7809 30.6 27.7809 29.56V24.44C27.7809 23.16 27.5676 22.2667 27.1409 21.76C26.7409 21.2533 26.0343 21 25.0209 21H23.5009V33H19.1009V5ZM25.1009 17C25.9809 17 26.6343 16.7733 27.0609 16.32C27.5143 15.8667 27.7409 15.1067 27.7409 14.04V11.88C27.7409 10.8667 27.5543 10.1333 27.1809 9.68C26.8343 9.22667 26.2743 9 25.5009 9H23.5009V17H25.1009ZM35.2338 5H47.2338V9H39.6338V16.4H45.6738V20.4H39.6338V29H47.2338V33H35.2338V5ZM55.5631 33.4C53.4298 33.4 51.8165 32.8 50.7231 31.6C49.6298 30.3733 49.0831 28.6267 49.0831 26.36V24.76H53.2431V26.68C53.2431 28.4933 54.0031 29.4 55.5231 29.4C56.2698 29.4 56.8298 29.1867 57.2031 28.76C57.6031 28.3067 57.8031 27.5867 57.8031 26.6C57.8031 25.4267 57.5365 24.4 57.0031 23.52C56.4698 22.6133 55.4831 21.5333 54.0431 20.28C52.2298 18.68 50.9631 17.24 50.2431 15.96C49.5231 14.6533 49.1631 13.1867 49.1631 11.56C49.1631 9.34667 49.7231 7.64 50.8431 6.44C51.9631 5.21333 53.5898 4.6 55.7231 4.6C57.8298 4.6 59.4165 5.21333 60.4831 6.44C61.5765 7.64 62.1231 9.37333 62.1231 11.64V12.8H57.9631V11.36C57.9631 10.4 57.7765 9.70667 57.4031 9.28C57.0298 8.82667 56.4831 8.6 55.7631 8.6C54.2965 8.6 53.5631 9.49333 53.5631 11.28C53.5631 12.2933 53.8298 13.24 54.3631 14.12C54.9231 15 55.9231 16.0667 57.3631 17.32C59.2031 18.92 60.4698 20.3733 61.1631 21.68C61.8565 22.9867 62.2031 24.52 62.2031 26.28C62.2031 28.5733 61.6298 30.3333 60.4831 31.56C59.3631 32.7867 57.7231 33.4 55.5631 33.4ZM70.4459 33.4C68.3126 33.4 66.6993 32.8 65.6059 31.6C64.5126 30.3733 63.9659 28.6267 63.9659 26.36V24.76H68.1259V26.68C68.1259 28.4933 68.8859 29.4 70.4059 29.4C71.1526 29.4 71.7126 29.1867 72.0859 28.76C72.4859 28.3067 72.6859 27.5867 72.6859 26.6C72.6859 25.4267 72.4193 24.4 71.8859 23.52C71.3526 22.6133 70.3659 21.5333 68.9259 20.28C67.1126 18.68 65.8459 17.24 65.1259 15.96C64.4059 14.6533 64.0459 13.1867 64.0459 11.56C64.0459 9.34667 64.6059 7.64 65.7259 6.44C66.8459 5.21333 68.4726 4.6 70.6059 4.6C72.7126 4.6 74.2993 5.21333 75.3659 6.44C76.4593 7.64 77.0059 9.37333 77.0059 11.64V12.8H72.8459V11.36C72.8459 10.4 72.6593 9.70667 72.2859 9.28C71.9126 8.82667 71.3659 8.6 70.6459 8.6C69.1793 8.6 68.4459 9.49333 68.4459 11.28C68.4459 12.2933 68.7126 13.24 69.2459 14.12C69.8059 15 70.8059 16.0667 72.2459 17.32C74.0859 18.92 75.3526 20.3733 76.0459 21.68C76.7393 22.9867 77.0859 24.52 77.0859 26.28C77.0859 28.5733 76.5126 30.3333 75.3659 31.56C74.2459 32.7867 72.6059 33.4 70.4459 33.4Z" fill="#CEB7FF"/>
<mask id="mask0_21_3805" style="mask-type:luminance" maskUnits="userSpaceOnUse" x="0" y="52" width="73" height="73">
<path d="M64.5 122.5C67.8137 122.5 70.5 119.814 70.5 116.5V60C70.5 56.6863 67.8137 54 64.5 54H42.25C38.9363 54 36.25 56.6863 36.25 60V75.4C36.25 78.7137 33.5637 81.4 30.25 81.4H8C4.68629 81.4 2 84.0863 2 87.4V116.5C2 119.814 4.68629 122.5 8 122.5H64.5Z" stroke="white" stroke-width="4" stroke-linecap="round" stroke-linejoin="round"/>
<path d="M31.1125 95.1001L24.2625 101.95L31.1125 108.8" stroke="white" stroke-width="4" stroke-linecap="round" stroke-linejoin="round"/>
<path d="M53.375 86.5376V101.95H24.2625" stroke="white" stroke-width="4" stroke-linecap="round" stroke-linejoin="round"/>
</mask>
<g mask="url(#mask0_21_3805)">
<path d="M-4.85004 47.1499H77.35V129.35H-4.85004V47.1499Z" fill="#CEB7FF"/>
</g>
<path d="M1512 121.188V89.2051H1546" stroke="#CEB7FF" stroke-width="4" stroke-linecap="round" stroke-linejoin="round"/>
<path d="M1546 89.2051V121.187H1512" stroke="#CEB7FF" stroke-width="4" stroke-linecap="round" stroke-linejoin="round"/>
<path d="M1530.15 98.4902L1526.57 105.196L1530.15 111.902" stroke="#CEB7FF" stroke-width="4" stroke-linecap="round" stroke-linejoin="round"/>
<path d="M1531.05 96.427L1522.1 105.196L1531.05 113.966" stroke="#CEB7FF" stroke-width="4" stroke-linecap="round" stroke-linejoin="round"/>
<path d="M1530.15 98.4902L1529.26 105.712L1530.15 112.934" stroke="#CEB7FF" stroke-width="4" stroke-linecap="round" stroke-linejoin="round"/>
<path d="M1531.05 96.427L1530.15 105.196L1531.05 113.966" stroke="#CEB7FF" stroke-width="4" stroke-linecap="round" stroke-linejoin="round"/>
<path d="M1531.05 96.427V105.196V113.966" stroke="#CEB7FF" stroke-width="4" stroke-linecap="round" stroke-linejoin="round"/>
<path d="M1626 121.188V89.2051H1592" stroke="#CEB7FF" stroke-width="4" stroke-linecap="round" stroke-linejoin="round"/>
<path d="M1592 89.2051V121.187H1626" stroke="#CEB7FF" stroke-width="4" stroke-linecap="round" stroke-linejoin="round"/>
<path d="M1607.85 98.4902L1611.43 105.196L1607.85 111.902" stroke="#CEB7FF" stroke-width="4" stroke-linecap="round" stroke-linejoin="round"/>
<path d="M1606.95 96.427L1615.9 105.196L1606.95 113.966" stroke="#CEB7FF" stroke-width="4" stroke-linecap="round" stroke-linejoin="round"/>
<path d="M1607.85 98.4902L1608.74 105.712L1607.85 112.934" stroke="#CEB7FF" stroke-width="4" stroke-linecap="round" stroke-linejoin="round"/>
<path d="M1606.95 96.427L1607.85 105.196L1606.95 113.966" stroke="#CEB7FF" stroke-width="4" stroke-linecap="round" stroke-linejoin="round"/>
<path d="M1606.95 96.427V105.196V113.966" stroke="#CEB7FF" stroke-width="4" stroke-linecap="round" stroke-linejoin="round"/>
<path d="M1552 121.187H1586V89.2051" stroke="#CEB7FF" stroke-width="4" stroke-linecap="round" stroke-linejoin="round"/>
<path d="M1586 89.2051H1552V121.188" stroke="#CEB7FF" stroke-width="4" stroke-linecap="round" stroke-linejoin="round"/>
<path d="M1576.13 104.113L1569 107.479L1561.87 104.113" stroke="#CEB7FF" stroke-width="4" stroke-linecap="round" stroke-linejoin="round"/>
<path d="M1578.32 103.271L1569 111.688L1559.68 103.271" stroke="#CEB7FF" stroke-width="4" stroke-linecap="round" stroke-linejoin="round"/>
<path d="M1576.13 104.113L1568.45 104.954L1560.77 104.113" stroke="#CEB7FF" stroke-width="4" stroke-linecap="round" stroke-linejoin="round"/>
<path d="M1578.32 103.271L1569 104.113L1559.68 103.271" stroke="#CEB7FF" stroke-width="4" stroke-linecap="round" stroke-linejoin="round"/>
<path d="M1578.32 103.271H1569H1559.68" stroke="#CEB7FF" stroke-width="4" stroke-linecap="round" stroke-linejoin="round"/>
<path d="M1586 50.8262L1552 50.8262V82.8086" stroke="#CEB7FF" stroke-width="4" stroke-linecap="round" stroke-linejoin="round"/>
<path d="M1552 82.8086L1586 82.8086V50.8262" stroke="#CEB7FF" stroke-width="4" stroke-linecap="round" stroke-linejoin="round"/>
<path d="M1561.87 67.901L1569 64.5344L1576.13 67.901" stroke="#CEB7FF" stroke-width="4" stroke-linecap="round" stroke-linejoin="round"/>
<path d="M1559.68 68.7423L1569 60.3259L1578.32 68.7423" stroke="#CEB7FF" stroke-width="4" stroke-linecap="round" stroke-linejoin="round"/>
<path d="M1561.87 67.901L1569.55 67.0593L1577.23 67.901" stroke="#CEB7FF" stroke-width="4" stroke-linecap="round" stroke-linejoin="round"/>
<path d="M1559.68 68.7425L1569 67.9009L1578.32 68.7425" stroke="#CEB7FF" stroke-width="4" stroke-linecap="round" stroke-linejoin="round"/>
<path d="M1559.68 68.7424H1569H1578.32" stroke="#CEB7FF" stroke-width="4" stroke-linecap="round" stroke-linejoin="round"/>
<path d="M1532.67 6.3125H1539.15C1541.34 6.3125 1542.98 6.89917 1544.07 8.0725C1545.16 9.24583 1545.71 10.9658 1545.71 13.2325V15.9925C1545.71 18.2592 1545.16 19.9792 1544.07 21.1525C1542.98 22.3258 1541.34 22.9125 1539.15 22.9125H1537.07V34.3125H1532.67V6.3125ZM1539.15 18.9125C1539.87 18.9125 1540.4 18.7125 1540.75 18.3125C1541.12 17.9125 1541.31 17.2325 1541.31 16.2725V12.9525C1541.31 11.9925 1541.12 11.3125 1540.75 10.9125C1540.4 10.5125 1539.87 10.3125 1539.15 10.3125H1537.07V18.9125H1539.15ZM1548.1 6.3125H1554.62C1556.89 6.3125 1558.54 6.84583 1559.58 7.9125C1560.62 8.9525 1561.14 10.5658 1561.14 12.7525V14.4725C1561.14 17.3792 1560.18 19.2192 1558.26 19.9925V20.0725C1559.33 20.3925 1560.07 21.0458 1560.5 22.0325C1560.95 23.0192 1561.18 24.3392 1561.18 25.9925V30.9125C1561.18 31.7125 1561.21 32.3658 1561.26 32.8725C1561.31 33.3525 1561.45 33.8325 1561.66 34.3125H1557.18C1557.02 33.8592 1556.91 33.4325 1556.86 33.0325C1556.81 32.6325 1556.78 31.9125 1556.78 30.8725V25.7525C1556.78 24.4725 1556.57 23.5792 1556.14 23.0725C1555.74 22.5658 1555.03 22.3125 1554.02 22.3125H1552.5V34.3125H1548.1V6.3125ZM1554.1 18.3125C1554.98 18.3125 1555.63 18.0858 1556.06 17.6325C1556.51 17.1792 1556.74 16.4192 1556.74 15.3525V13.1925C1556.74 12.1792 1556.55 11.4458 1556.18 10.9925C1555.83 10.5392 1555.27 10.3125 1554.5 10.3125H1552.5V18.3125H1554.1ZM1564.23 6.3125H1576.23V10.3125H1568.63V17.7125H1574.67V21.7125H1568.63V30.3125H1576.23V34.3125H1564.23V6.3125ZM1584.56 34.7125C1582.43 34.7125 1580.82 34.1125 1579.72 32.9125C1578.63 31.6858 1578.08 29.9392 1578.08 27.6725V26.0725H1582.24V27.9925C1582.24 29.8058 1583 30.7125 1584.52 30.7125C1585.27 30.7125 1585.83 30.4992 1586.2 30.0725C1586.6 29.6192 1586.8 28.8992 1586.8 27.9125C1586.8 26.7392 1586.54 25.7125 1586 24.8325C1585.47 23.9258 1584.48 22.8458 1583.04 21.5925C1581.23 19.9925 1579.96 18.5525 1579.24 17.2725C1578.52 15.9658 1578.16 14.4992 1578.16 12.8725C1578.16 10.6592 1578.72 8.9525 1579.84 7.7525C1580.96 6.52583 1582.59 5.9125 1584.72 5.9125C1586.83 5.9125 1588.42 6.52583 1589.48 7.7525C1590.58 8.9525 1591.12 10.6858 1591.12 12.9525V14.1125H1586.96V12.6725C1586.96 11.7125 1586.78 11.0192 1586.4 10.5925C1586.03 10.1392 1585.48 9.9125 1584.76 9.9125C1583.3 9.9125 1582.56 10.8058 1582.56 12.5925C1582.56 13.6058 1582.83 14.5525 1583.36 15.4325C1583.92 16.3125 1584.92 17.3792 1586.36 18.6325C1588.2 20.2325 1589.47 21.6858 1590.16 22.9925C1590.86 24.2992 1591.2 25.8325 1591.2 27.5925C1591.2 29.8858 1590.63 31.6458 1589.48 32.8725C1588.36 34.0992 1586.72 34.7125 1584.56 34.7125ZM1599.45 34.7125C1597.31 34.7125 1595.7 34.1125 1594.61 32.9125C1593.51 31.6858 1592.97 29.9392 1592.97 27.6725V26.0725H1597.13V27.9925C1597.13 29.8058 1597.89 30.7125 1599.41 30.7125C1600.15 30.7125 1600.71 30.4992 1601.09 30.0725C1601.49 29.6192 1601.69 28.8992 1601.69 27.9125C1601.69 26.7392 1601.42 25.7125 1600.89 24.8325C1600.35 23.9258 1599.37 22.8458 1597.93 21.5925C1596.11 19.9925 1594.85 18.5525 1594.13 17.2725C1593.41 15.9658 1593.05 14.4992 1593.05 12.8725C1593.05 10.6592 1593.61 8.9525 1594.73 7.7525C1595.85 6.52583 1597.47 5.9125 1599.61 5.9125C1601.71 5.9125 1603.3 6.52583 1604.37 7.7525C1605.46 8.9525 1606.01 10.6858 1606.01 12.9525V14.1125H1601.85V12.6725C1601.85 11.7125 1601.66 11.0192 1601.29 10.5925C1600.91 10.1392 1600.37 9.9125 1599.65 9.9125C1598.18 9.9125 1597.45 10.8058 1597.45 12.5925C1597.45 13.6058 1597.71 14.5525 1598.25 15.4325C1598.81 16.3125 1599.81 17.3792 1601.25 18.6325C1603.09 20.2325 1604.35 21.6858 1605.05 22.9925C1605.74 24.2992 1606.09 25.8325 1606.09 27.5925C1606.09 29.8858 1605.51 31.6458 1604.37 32.8725C1603.25 34.0992 1601.61 34.7125 1599.45 34.7125Z" fill="#CEB7FF"/>
</svg>
