<svg width="285" height="123" viewBox="0 0 285 123" fill="none" xmlns="http://www.w3.org/2000/svg">
<g filter="url(#filter0_d_357_18)">
<path d="M34.65 72.1744V71.1744H33.65V72.1744H34.65ZM34.65 82.6724V83.6724H35.65V82.6724H34.65ZM20.73 82.6724H19.73V83.6724H20.73V82.6724ZM20.73 39.1724V38.1724H19.73V39.1724H20.73ZM56.922 61.8504L55.9467 61.6295L55.9467 61.6295L56.922 61.8504ZM54.544 67.2444L53.7344 66.6574L53.7317 66.6612L54.544 67.2444ZM50.252 70.8404L49.8048 69.9459L49.7969 69.9499L50.252 70.8404ZM34.65 50.3084V49.3084H33.65V50.3084H34.65ZM34.65 61.0384H33.65V62.0384H34.65V61.0384ZM41.494 60.5164L41.0836 59.6044L41.0747 59.6084L41.0659 59.6126L41.494 60.5164ZM41.494 50.8304L41.0659 51.7341L41.0747 51.7383L41.0836 51.7423L41.494 50.8304ZM43.698 71.1744H34.65V73.1744H43.698V71.1744ZM33.65 72.1744V82.6724H35.65V72.1744H33.65ZM34.65 81.6724H20.73V83.6724H34.65V81.6724ZM21.73 82.6724V39.1724H19.73V82.6724H21.73ZM20.73 40.1724H42.654V38.1724H20.73V40.1724ZM42.654 40.1724C47.4689 40.1724 50.9015 41.4614 53.1452 43.8704C55.4015 46.2928 56.618 50.0202 56.618 55.2384H58.618C58.618 49.7458 57.3405 45.4402 54.6088 42.5073C51.8645 39.561 47.8151 38.1724 42.654 38.1724V40.1724ZM56.618 55.2384C56.618 57.5316 56.3924 59.6609 55.9467 61.6295L57.8973 62.0712C58.3796 59.9412 58.618 57.6624 58.618 55.2384H56.618ZM55.9467 61.6295C55.5096 63.5601 54.7687 65.2308 53.7344 66.6574L55.3536 67.8313C56.562 66.1646 57.4064 64.2393 57.8973 62.0712L55.9467 61.6295ZM53.7317 66.6612C52.7503 68.028 51.4489 69.1239 49.8048 69.9459L50.6992 71.7348C52.6124 70.7782 54.1723 69.4767 55.3563 67.8276L53.7317 66.6612ZM49.7969 69.9499C48.2379 70.7468 46.2213 71.1744 43.698 71.1744V73.1744C46.4334 73.1744 48.7861 72.7126 50.7071 71.7308L49.7969 69.9499ZM37.84 49.3084H34.65V51.3084H37.84V49.3084ZM33.65 50.3084V61.0384H35.65V50.3084H33.65ZM34.65 62.0384H37.84V60.0384H34.65V62.0384ZM37.84 62.0384C39.5621 62.0384 40.973 61.8696 41.9221 61.4201L41.0659 59.6126C40.5456 59.8591 39.5206 60.0384 37.84 60.0384V62.0384ZM41.9044 61.4283C43.2048 60.8431 43.654 59.5242 43.654 58.0804H41.654C41.654 59.1886 41.3298 59.4937 41.0836 59.6044L41.9044 61.4283ZM43.654 58.0804V53.2084H41.654V58.0804H43.654ZM43.654 53.2084C43.654 51.7855 43.1939 50.4987 41.9044 49.9184L41.0836 51.7423C41.3407 51.858 41.654 52.1566 41.654 53.2084H43.654ZM41.9221 49.9266C40.973 49.4771 39.5621 49.3084 37.84 49.3084V51.3084C39.5206 51.3084 40.5456 51.4876 41.0659 51.7341L41.9221 49.9266ZM92.1865 68.1724L91.7329 67.2811L90.8338 67.7387L91.2992 68.6337L92.1865 68.1724ZM99.7265 82.6724V83.6724H101.374L100.614 82.211L99.7265 82.6724ZM84.4145 82.6724L83.499 83.0747L83.7616 83.6724H84.4145V82.6724ZM78.7305 69.7384L79.646 69.336L79.3833 68.7384H78.7305V69.7384ZM75.7145 69.7384V68.7384H74.7145V69.7384H75.7145ZM75.7145 82.6724V83.6724H76.7145V82.6724H75.7145ZM61.7945 82.6724H60.7945V83.6724H61.7945V82.6724ZM61.7945 39.1724V38.1724H60.7945V39.1724H61.7945ZM75.7145 50.3084V49.3084H74.7145V50.3084H75.7145ZM75.7145 59.0084H74.7145V60.0084H75.7145V59.0084ZM82.5585 58.4864L82.1481 57.5744L82.1392 57.5784L82.1304 57.5826L82.5585 58.4864ZM82.5585 50.8304L82.1304 51.7341L82.1392 51.7383L82.1481 51.7423L82.5585 50.8304ZM91.2992 68.6337L98.8392 83.1337L100.614 82.211L93.0737 67.711L91.2992 68.6337ZM99.7265 81.6724H84.4145V83.6724H99.7265V81.6724ZM85.33 82.27L79.646 69.336L77.815 70.1407L83.499 83.0747L85.33 82.27ZM78.7305 68.7384H75.7145V70.7384H78.7305V68.7384ZM74.7145 69.7384V82.6724H76.7145V69.7384H74.7145ZM75.7145 81.6724H61.7945V83.6724H75.7145V81.6724ZM62.7945 82.6724V39.1724H60.7945V82.6724H62.7945ZM61.7945 40.1724H83.7185V38.1724H61.7945V40.1724ZM83.7185 40.1724C88.5474 40.1724 91.9865 41.4017 94.2276 43.6861C96.4721 45.9742 97.6825 49.4911 97.6825 54.4264H99.6825C99.6825 49.1923 98.3988 45.0822 95.6553 42.2856C92.9084 39.4854 88.8655 38.1724 83.7185 38.1724V40.1724ZM97.6825 54.4264C97.6825 61.1946 95.5906 65.3178 91.7329 67.2811L92.64 69.0636C97.4436 66.6189 99.6825 61.5781 99.6825 54.4264H97.6825ZM78.9045 49.3084H75.7145V51.3084H78.9045V49.3084ZM74.7145 50.3084V59.0084H76.7145V50.3084H74.7145ZM75.7145 60.0084H78.9045V58.0084H75.7145V60.0084ZM78.9045 60.0084C80.6265 60.0084 82.0375 59.8396 82.9865 59.3901L82.1304 57.5826C81.6101 57.8291 80.5851 58.0084 78.9045 58.0084V60.0084ZM82.9688 59.3983C84.2584 58.818 84.7185 57.5312 84.7185 56.1084H82.7185C82.7185 57.1602 82.4052 57.4587 82.1481 57.5744L82.9688 59.3983ZM84.7185 56.1084V53.2084H82.7185V56.1084H84.7185ZM84.7185 53.2084C84.7185 51.7855 84.2584 50.4987 82.9688 49.9184L82.1481 51.7423C82.4052 51.858 82.7185 52.1566 82.7185 53.2084H84.7185ZM82.9865 49.9266C82.0375 49.4771 80.6265 49.3084 78.9045 49.3084V51.3084C80.5851 51.3084 81.6101 51.4876 82.1304 51.7341L82.9865 49.9266ZM103.513 50.7144L102.54 50.481L102.538 50.4905L103.513 50.7144ZM106.935 43.5804L106.182 42.9218L106.174 42.9309L106.935 43.5804ZM113.315 39.4624L112.994 38.5151L112.994 38.5151L113.315 39.4624ZM132.803 39.4624L132.478 40.4082L132.482 40.4096L132.803 39.4624ZM139.125 43.5804L138.364 44.2299L138.372 44.2389L139.125 43.5804ZM142.547 50.7144L141.572 50.9354L141.573 50.9431L141.575 50.9507L142.547 50.7144ZM142.663 70.9564L143.64 71.1705L143.64 71.1677L142.663 70.9564ZM139.357 78.0324L138.59 77.3906L138.582 77.4L139.357 78.0324ZM133.035 82.3244L133.368 83.2674L133.375 83.2646L133.035 82.3244ZM113.025 82.3244L112.68 83.2629L112.688 83.266L112.696 83.2689L113.025 82.3244ZM106.703 78.0324L105.928 78.6648L105.936 78.6741L106.703 78.0324ZM103.455 70.9564L102.477 71.1677L102.478 71.1705L103.455 70.9564ZM117.491 71.8264H116.491V72.8264H117.491V71.8264ZM127.409 71.1884L127.873 72.0742L127.88 72.0703L127.888 72.0663L127.409 71.1884ZM128.685 50.0184H129.685V49.0184H128.685V50.0184ZM118.767 50.7144L119.214 51.6088L119.23 51.6008L119.246 51.5923L118.767 50.7144ZM103.527 60.9804C103.527 57.0483 103.852 53.7054 104.487 50.9383L102.538 50.4905C101.859 53.446 101.527 56.9471 101.527 60.9804H103.527ZM104.485 50.9477C105.152 48.1677 106.233 45.9421 107.695 44.2298L106.174 42.9309C104.466 44.9306 103.265 47.461 102.54 50.481L104.485 50.9477ZM107.687 44.2389C109.181 42.5316 111.151 41.2497 113.635 40.4096L112.994 38.5151C110.219 39.4537 107.936 40.9172 106.182 42.9219L107.687 44.2389ZM113.635 40.4096C116.13 39.566 119.262 39.1284 123.059 39.1284V37.1284C119.123 37.1284 115.759 37.5801 112.994 38.5151L113.635 40.4096ZM123.059 39.1284C126.897 39.1284 130.026 39.5664 132.478 40.4082L133.127 38.5165C130.398 37.5796 127.032 37.1284 123.059 37.1284V39.1284ZM132.482 40.4096C134.965 41.2493 136.912 42.529 138.364 44.2298L139.885 42.9309C138.167 40.9198 135.899 39.4541 133.123 38.5151L132.482 40.4096ZM138.372 44.2389C139.866 45.9465 140.943 48.1643 141.572 50.9354L143.522 50.4933C142.835 47.4644 141.631 44.9262 139.877 42.9219L138.372 44.2389ZM141.575 50.9507C142.247 53.713 142.591 57.0514 142.591 60.9804H144.591C144.591 56.944 144.239 53.4384 143.518 50.478L141.575 50.9507ZM142.591 60.9804C142.591 64.7182 142.285 67.97 141.685 70.745L143.64 71.1677C144.277 68.2201 144.591 64.8212 144.591 60.9804H142.591ZM141.686 70.7423C141.096 73.4343 140.056 75.6389 138.59 77.3906L140.124 78.6741C141.829 76.6365 142.992 74.1238 143.64 71.1705L141.686 70.7423ZM138.582 77.4C137.167 79.1336 135.22 80.469 132.694 81.3842L133.375 83.2646C136.186 82.2464 138.453 80.7204 140.131 78.6647L138.582 77.4ZM132.702 81.3814C130.215 82.2589 127.012 82.7164 123.059 82.7164V84.7164C127.148 84.7164 130.595 84.2458 133.368 83.2674L132.702 81.3814ZM123.059 82.7164C119.106 82.7164 115.881 82.2592 113.353 81.3799L112.696 83.2689C115.504 84.2456 118.969 84.7164 123.059 84.7164V82.7164ZM113.37 81.3858C110.882 80.4712 108.928 79.134 107.47 77.3906L105.936 78.6741C107.648 80.7201 109.909 82.2442 112.68 83.2629L113.37 81.3858ZM107.477 77.4C106.047 75.6472 105.023 73.4393 104.432 70.7423L102.478 71.1705C103.124 74.1188 104.266 76.6282 105.928 78.6647L107.477 77.4ZM104.432 70.745C103.832 67.97 103.527 64.7182 103.527 60.9804H101.527C101.527 64.8212 101.84 68.2201 102.477 71.1677L104.432 70.745ZM116.491 53.7304V71.8264H118.491V53.7304H116.491ZM117.491 72.8264H123.291V70.8264H117.491V72.8264ZM123.291 72.8264C125.244 72.8264 126.83 72.6203 127.873 72.0742L126.945 70.3025C126.363 70.6071 125.204 70.8264 123.291 70.8264V72.8264ZM127.888 72.0663C129.229 71.3344 129.685 69.8194 129.685 68.1144H127.685C127.685 69.58 127.289 70.1143 126.93 70.3105L127.888 72.0663ZM129.685 68.1144V50.0184H127.685V68.1144H129.685ZM128.685 49.0184H122.827V51.0184H128.685V49.0184ZM122.827 49.0184C120.93 49.0184 119.367 49.248 118.288 49.8365L119.246 51.5923C119.868 51.2527 121.011 51.0184 122.827 51.0184V49.0184ZM118.32 49.8199C116.943 50.5084 116.491 52.0354 116.491 53.7304H118.491C118.491 52.2546 118.89 51.771 119.214 51.6088L118.32 49.8199ZM174.207 56.1664H175.207V55.1664H174.207V56.1664ZM174.207 66.5484V67.5484H175.207V66.5484H174.207ZM162.375 66.5484V65.5484H161.375V66.5484H162.375ZM162.375 82.6724V83.6724H163.375V82.6724H162.375ZM148.455 82.6724H147.455V83.6724H148.455V82.6724ZM148.455 39.1724V38.1724H147.455V39.1724H148.455ZM176.991 39.1724L177.979 39.3267L178.159 38.1724H176.991V39.1724ZM175.251 50.3084V51.3084H176.106L176.239 50.4627L175.251 50.3084ZM162.375 50.3084V49.3084H161.375V50.3084H162.375ZM162.375 56.1664H161.375V57.1664H162.375V56.1664ZM173.207 56.1664V66.5484H175.207V56.1664H173.207ZM174.207 65.5484H162.375V67.5484H174.207V65.5484ZM161.375 66.5484V82.6724H163.375V66.5484H161.375ZM162.375 81.6724H148.455V83.6724H162.375V81.6724ZM149.455 82.6724V39.1724H147.455V82.6724H149.455ZM148.455 40.1724H176.991V38.1724H148.455V40.1724ZM176.003 39.018L174.263 50.154L176.239 50.4627L177.979 39.3267L176.003 39.018ZM175.251 49.3084H162.375V51.3084H175.251V49.3084ZM161.375 50.3084V56.1664H163.375V50.3084H161.375ZM162.375 57.1664H174.207V55.1664H162.375V57.1664ZM195.113 82.6724V83.6724H196.113V82.6724H195.113ZM181.193 82.6724H180.193V83.6724H181.193V82.6724ZM181.193 39.1724V38.1724H180.193V39.1724H181.193ZM195.113 39.1724H196.113V38.1724H195.113V39.1724ZM195.113 81.6724H181.193V83.6724H195.113V81.6724ZM182.193 82.6724V39.1724H180.193V82.6724H182.193ZM181.193 40.1724H195.113V38.1724H181.193V40.1724ZM194.113 39.1724V82.6724H196.113V39.1724H194.113ZM229.933 71.5364H230.933V70.5364H229.933V71.5364ZM229.933 82.6724V83.6724H230.933V82.6724H229.933ZM202.093 82.6724H201.093V83.6724H202.093V82.6724ZM202.093 39.1724V38.1724H201.093V39.1724H202.093ZM216.013 39.1724H217.013V38.1724H216.013V39.1724ZM216.013 71.5364H215.013V72.5364H216.013V71.5364ZM228.933 71.5364V82.6724H230.933V71.5364H228.933ZM229.933 81.6724H202.093V83.6724H229.933V81.6724ZM203.093 82.6724V39.1724H201.093V82.6724H203.093ZM202.093 40.1724H216.013V38.1724H202.093V40.1724ZM215.013 39.1724V71.5364H217.013V39.1724H215.013ZM216.013 72.5364H229.933V70.5364H216.013V72.5364ZM261.595 56.1664H262.595V55.1664H261.595V56.1664ZM261.595 66.2584V67.2584H262.595V66.2584H261.595ZM247.675 66.2584V65.2584H246.675V66.2584H247.675ZM247.675 71.5364H246.675V72.5364H247.675V71.5364ZM264.727 71.5364H265.727V70.5364H264.727V71.5364ZM264.727 82.6724V83.6724H265.727V82.6724H264.727ZM233.755 82.6724H232.755V83.6724H233.755V82.6724ZM233.755 39.1724V38.1724H232.755V39.1724H233.755ZM264.379 39.1724L265.367 39.3267L265.548 38.1724H264.379V39.1724ZM262.639 50.3084V51.3084H263.495L263.627 50.4627L262.639 50.3084ZM247.675 50.3084V49.3084H246.675V50.3084H247.675ZM247.675 56.1664H246.675V57.1664H247.675V56.1664ZM260.595 56.1664V66.2584H262.595V56.1664H260.595ZM261.595 65.2584H247.675V67.2584H261.595V65.2584ZM246.675 66.2584V71.5364H248.675V66.2584H246.675ZM247.675 72.5364H264.727V70.5364H247.675V72.5364ZM263.727 71.5364V82.6724H265.727V71.5364H263.727ZM264.727 81.6724H233.755V83.6724H264.727V81.6724ZM234.755 82.6724V39.1724H232.755V82.6724H234.755ZM233.755 40.1724H264.379V38.1724H233.755V40.1724ZM263.391 39.018L261.651 50.154L263.627 50.4627L265.367 39.3267L263.391 39.018ZM262.639 49.3084H247.675V51.3084H262.639V49.3084ZM246.675 50.3084V56.1664H248.675V50.3084H246.675ZM247.675 57.1664H261.595V55.1664H247.675V57.1664Z" fill="#CEB7FF"/>
</g>
<g filter="url(#filter1_d_357_18)">
<path d="M34.65 72.1744V71.1744H33.65V72.1744H34.65ZM34.65 82.6724V83.6724H35.65V82.6724H34.65ZM20.73 82.6724H19.73V83.6724H20.73V82.6724ZM20.73 39.1724V38.1724H19.73V39.1724H20.73ZM56.922 61.8504L55.9467 61.6295L55.9467 61.6295L56.922 61.8504ZM54.544 67.2444L53.7344 66.6574L53.7317 66.6612L54.544 67.2444ZM50.252 70.8404L49.8048 69.9459L49.7969 69.9499L50.252 70.8404ZM34.65 50.3084V49.3084H33.65V50.3084H34.65ZM34.65 61.0384H33.65V62.0384H34.65V61.0384ZM41.494 60.5164L41.0836 59.6044L41.0747 59.6084L41.0659 59.6126L41.494 60.5164ZM41.494 50.8304L41.0659 51.7341L41.0747 51.7383L41.0836 51.7423L41.494 50.8304ZM43.698 71.1744H34.65V73.1744H43.698V71.1744ZM33.65 72.1744V82.6724H35.65V72.1744H33.65ZM34.65 81.6724H20.73V83.6724H34.65V81.6724ZM21.73 82.6724V39.1724H19.73V82.6724H21.73ZM20.73 40.1724H42.654V38.1724H20.73V40.1724ZM42.654 40.1724C47.4689 40.1724 50.9015 41.4614 53.1452 43.8704C55.4015 46.2928 56.618 50.0202 56.618 55.2384H58.618C58.618 49.7458 57.3405 45.4402 54.6088 42.5073C51.8645 39.561 47.8151 38.1724 42.654 38.1724V40.1724ZM56.618 55.2384C56.618 57.5316 56.3924 59.6609 55.9467 61.6295L57.8973 62.0712C58.3796 59.9412 58.618 57.6624 58.618 55.2384H56.618ZM55.9467 61.6295C55.5096 63.5601 54.7687 65.2308 53.7344 66.6574L55.3536 67.8313C56.562 66.1646 57.4064 64.2393 57.8973 62.0712L55.9467 61.6295ZM53.7317 66.6612C52.7503 68.028 51.4489 69.1239 49.8048 69.9459L50.6992 71.7348C52.6124 70.7782 54.1723 69.4767 55.3563 67.8276L53.7317 66.6612ZM49.7969 69.9499C48.2379 70.7468 46.2213 71.1744 43.698 71.1744V73.1744C46.4334 73.1744 48.7861 72.7126 50.7071 71.7308L49.7969 69.9499ZM37.84 49.3084H34.65V51.3084H37.84V49.3084ZM33.65 50.3084V61.0384H35.65V50.3084H33.65ZM34.65 62.0384H37.84V60.0384H34.65V62.0384ZM37.84 62.0384C39.5621 62.0384 40.973 61.8696 41.9221 61.4201L41.0659 59.6126C40.5456 59.8591 39.5206 60.0384 37.84 60.0384V62.0384ZM41.9044 61.4283C43.2048 60.8431 43.654 59.5242 43.654 58.0804H41.654C41.654 59.1886 41.3298 59.4937 41.0836 59.6044L41.9044 61.4283ZM43.654 58.0804V53.2084H41.654V58.0804H43.654ZM43.654 53.2084C43.654 51.7855 43.1939 50.4987 41.9044 49.9184L41.0836 51.7423C41.3407 51.858 41.654 52.1566 41.654 53.2084H43.654ZM41.9221 49.9266C40.973 49.4771 39.5621 49.3084 37.84 49.3084V51.3084C39.5206 51.3084 40.5456 51.4876 41.0659 51.7341L41.9221 49.9266ZM92.1865 68.1724L91.7329 67.2811L90.8338 67.7387L91.2992 68.6337L92.1865 68.1724ZM99.7265 82.6724V83.6724H101.374L100.614 82.211L99.7265 82.6724ZM84.4145 82.6724L83.499 83.0747L83.7616 83.6724H84.4145V82.6724ZM78.7305 69.7384L79.646 69.336L79.3833 68.7384H78.7305V69.7384ZM75.7145 69.7384V68.7384H74.7145V69.7384H75.7145ZM75.7145 82.6724V83.6724H76.7145V82.6724H75.7145ZM61.7945 82.6724H60.7945V83.6724H61.7945V82.6724ZM61.7945 39.1724V38.1724H60.7945V39.1724H61.7945ZM75.7145 50.3084V49.3084H74.7145V50.3084H75.7145ZM75.7145 59.0084H74.7145V60.0084H75.7145V59.0084ZM82.5585 58.4864L82.1481 57.5744L82.1392 57.5784L82.1304 57.5826L82.5585 58.4864ZM82.5585 50.8304L82.1304 51.7341L82.1392 51.7383L82.1481 51.7423L82.5585 50.8304ZM91.2992 68.6337L98.8392 83.1337L100.614 82.211L93.0737 67.711L91.2992 68.6337ZM99.7265 81.6724H84.4145V83.6724H99.7265V81.6724ZM85.33 82.27L79.646 69.336L77.815 70.1407L83.499 83.0747L85.33 82.27ZM78.7305 68.7384H75.7145V70.7384H78.7305V68.7384ZM74.7145 69.7384V82.6724H76.7145V69.7384H74.7145ZM75.7145 81.6724H61.7945V83.6724H75.7145V81.6724ZM62.7945 82.6724V39.1724H60.7945V82.6724H62.7945ZM61.7945 40.1724H83.7185V38.1724H61.7945V40.1724ZM83.7185 40.1724C88.5474 40.1724 91.9865 41.4017 94.2276 43.6861C96.4721 45.9742 97.6825 49.4911 97.6825 54.4264H99.6825C99.6825 49.1923 98.3988 45.0822 95.6553 42.2856C92.9084 39.4854 88.8655 38.1724 83.7185 38.1724V40.1724ZM97.6825 54.4264C97.6825 61.1946 95.5906 65.3178 91.7329 67.2811L92.64 69.0636C97.4436 66.6189 99.6825 61.5781 99.6825 54.4264H97.6825ZM78.9045 49.3084H75.7145V51.3084H78.9045V49.3084ZM74.7145 50.3084V59.0084H76.7145V50.3084H74.7145ZM75.7145 60.0084H78.9045V58.0084H75.7145V60.0084ZM78.9045 60.0084C80.6265 60.0084 82.0375 59.8396 82.9865 59.3901L82.1304 57.5826C81.6101 57.8291 80.5851 58.0084 78.9045 58.0084V60.0084ZM82.9688 59.3983C84.2584 58.818 84.7185 57.5312 84.7185 56.1084H82.7185C82.7185 57.1602 82.4052 57.4587 82.1481 57.5744L82.9688 59.3983ZM84.7185 56.1084V53.2084H82.7185V56.1084H84.7185ZM84.7185 53.2084C84.7185 51.7855 84.2584 50.4987 82.9688 49.9184L82.1481 51.7423C82.4052 51.858 82.7185 52.1566 82.7185 53.2084H84.7185ZM82.9865 49.9266C82.0375 49.4771 80.6265 49.3084 78.9045 49.3084V51.3084C80.5851 51.3084 81.6101 51.4876 82.1304 51.7341L82.9865 49.9266ZM103.513 50.7144L102.54 50.481L102.538 50.4905L103.513 50.7144ZM106.935 43.5804L106.182 42.9218L106.174 42.9309L106.935 43.5804ZM113.315 39.4624L112.994 38.5151L112.994 38.5151L113.315 39.4624ZM132.803 39.4624L132.478 40.4082L132.482 40.4096L132.803 39.4624ZM139.125 43.5804L138.364 44.2299L138.372 44.2389L139.125 43.5804ZM142.547 50.7144L141.572 50.9354L141.573 50.9431L141.575 50.9507L142.547 50.7144ZM142.663 70.9564L143.64 71.1705L143.64 71.1677L142.663 70.9564ZM139.357 78.0324L138.59 77.3906L138.582 77.4L139.357 78.0324ZM133.035 82.3244L133.368 83.2674L133.375 83.2646L133.035 82.3244ZM113.025 82.3244L112.68 83.2629L112.688 83.266L112.696 83.2689L113.025 82.3244ZM106.703 78.0324L105.928 78.6648L105.936 78.6741L106.703 78.0324ZM103.455 70.9564L102.477 71.1677L102.478 71.1705L103.455 70.9564ZM117.491 71.8264H116.491V72.8264H117.491V71.8264ZM127.409 71.1884L127.873 72.0742L127.88 72.0703L127.888 72.0663L127.409 71.1884ZM128.685 50.0184H129.685V49.0184H128.685V50.0184ZM118.767 50.7144L119.214 51.6088L119.23 51.6008L119.246 51.5923L118.767 50.7144ZM103.527 60.9804C103.527 57.0483 103.852 53.7054 104.487 50.9383L102.538 50.4905C101.859 53.446 101.527 56.9471 101.527 60.9804H103.527ZM104.485 50.9477C105.152 48.1677 106.233 45.9421 107.695 44.2298L106.174 42.9309C104.466 44.9306 103.265 47.461 102.54 50.481L104.485 50.9477ZM107.687 44.2389C109.181 42.5316 111.151 41.2497 113.635 40.4096L112.994 38.5151C110.219 39.4537 107.936 40.9172 106.182 42.9219L107.687 44.2389ZM113.635 40.4096C116.13 39.566 119.262 39.1284 123.059 39.1284V37.1284C119.123 37.1284 115.759 37.5801 112.994 38.5151L113.635 40.4096ZM123.059 39.1284C126.897 39.1284 130.026 39.5664 132.478 40.4082L133.127 38.5165C130.398 37.5796 127.032 37.1284 123.059 37.1284V39.1284ZM132.482 40.4096C134.965 41.2493 136.912 42.529 138.364 44.2298L139.885 42.9309C138.167 40.9198 135.899 39.4541 133.123 38.5151L132.482 40.4096ZM138.372 44.2389C139.866 45.9465 140.943 48.1643 141.572 50.9354L143.522 50.4933C142.835 47.4644 141.631 44.9262 139.877 42.9219L138.372 44.2389ZM141.575 50.9507C142.247 53.713 142.591 57.0514 142.591 60.9804H144.591C144.591 56.944 144.239 53.4384 143.518 50.478L141.575 50.9507ZM142.591 60.9804C142.591 64.7182 142.285 67.97 141.685 70.745L143.64 71.1677C144.277 68.2201 144.591 64.8212 144.591 60.9804H142.591ZM141.686 70.7423C141.096 73.4343 140.056 75.6389 138.59 77.3906L140.124 78.6741C141.829 76.6365 142.992 74.1238 143.64 71.1705L141.686 70.7423ZM138.582 77.4C137.167 79.1336 135.22 80.469 132.694 81.3842L133.375 83.2646C136.186 82.2464 138.453 80.7204 140.131 78.6647L138.582 77.4ZM132.702 81.3814C130.215 82.2589 127.012 82.7164 123.059 82.7164V84.7164C127.148 84.7164 130.595 84.2458 133.368 83.2674L132.702 81.3814ZM123.059 82.7164C119.106 82.7164 115.881 82.2592 113.353 81.3799L112.696 83.2689C115.504 84.2456 118.969 84.7164 123.059 84.7164V82.7164ZM113.37 81.3858C110.882 80.4712 108.928 79.134 107.47 77.3906L105.936 78.6741C107.648 80.7201 109.909 82.2442 112.68 83.2629L113.37 81.3858ZM107.477 77.4C106.047 75.6472 105.023 73.4393 104.432 70.7423L102.478 71.1705C103.124 74.1188 104.266 76.6282 105.928 78.6647L107.477 77.4ZM104.432 70.745C103.832 67.97 103.527 64.7182 103.527 60.9804H101.527C101.527 64.8212 101.84 68.2201 102.477 71.1677L104.432 70.745ZM116.491 53.7304V71.8264H118.491V53.7304H116.491ZM117.491 72.8264H123.291V70.8264H117.491V72.8264ZM123.291 72.8264C125.244 72.8264 126.83 72.6203 127.873 72.0742L126.945 70.3025C126.363 70.6071 125.204 70.8264 123.291 70.8264V72.8264ZM127.888 72.0663C129.229 71.3344 129.685 69.8194 129.685 68.1144H127.685C127.685 69.58 127.289 70.1143 126.93 70.3105L127.888 72.0663ZM129.685 68.1144V50.0184H127.685V68.1144H129.685ZM128.685 49.0184H122.827V51.0184H128.685V49.0184ZM122.827 49.0184C120.93 49.0184 119.367 49.248 118.288 49.8365L119.246 51.5923C119.868 51.2527 121.011 51.0184 122.827 51.0184V49.0184ZM118.32 49.8199C116.943 50.5084 116.491 52.0354 116.491 53.7304H118.491C118.491 52.2546 118.89 51.771 119.214 51.6088L118.32 49.8199ZM174.207 56.1664H175.207V55.1664H174.207V56.1664ZM174.207 66.5484V67.5484H175.207V66.5484H174.207ZM162.375 66.5484V65.5484H161.375V66.5484H162.375ZM162.375 82.6724V83.6724H163.375V82.6724H162.375ZM148.455 82.6724H147.455V83.6724H148.455V82.6724ZM148.455 39.1724V38.1724H147.455V39.1724H148.455ZM176.991 39.1724L177.979 39.3267L178.159 38.1724H176.991V39.1724ZM175.251 50.3084V51.3084H176.106L176.239 50.4627L175.251 50.3084ZM162.375 50.3084V49.3084H161.375V50.3084H162.375ZM162.375 56.1664H161.375V57.1664H162.375V56.1664ZM173.207 56.1664V66.5484H175.207V56.1664H173.207ZM174.207 65.5484H162.375V67.5484H174.207V65.5484ZM161.375 66.5484V82.6724H163.375V66.5484H161.375ZM162.375 81.6724H148.455V83.6724H162.375V81.6724ZM149.455 82.6724V39.1724H147.455V82.6724H149.455ZM148.455 40.1724H176.991V38.1724H148.455V40.1724ZM176.003 39.018L174.263 50.154L176.239 50.4627L177.979 39.3267L176.003 39.018ZM175.251 49.3084H162.375V51.3084H175.251V49.3084ZM161.375 50.3084V56.1664H163.375V50.3084H161.375ZM162.375 57.1664H174.207V55.1664H162.375V57.1664ZM195.113 82.6724V83.6724H196.113V82.6724H195.113ZM181.193 82.6724H180.193V83.6724H181.193V82.6724ZM181.193 39.1724V38.1724H180.193V39.1724H181.193ZM195.113 39.1724H196.113V38.1724H195.113V39.1724ZM195.113 81.6724H181.193V83.6724H195.113V81.6724ZM182.193 82.6724V39.1724H180.193V82.6724H182.193ZM181.193 40.1724H195.113V38.1724H181.193V40.1724ZM194.113 39.1724V82.6724H196.113V39.1724H194.113ZM229.933 71.5364H230.933V70.5364H229.933V71.5364ZM229.933 82.6724V83.6724H230.933V82.6724H229.933ZM202.093 82.6724H201.093V83.6724H202.093V82.6724ZM202.093 39.1724V38.1724H201.093V39.1724H202.093ZM216.013 39.1724H217.013V38.1724H216.013V39.1724ZM216.013 71.5364H215.013V72.5364H216.013V71.5364ZM228.933 71.5364V82.6724H230.933V71.5364H228.933ZM229.933 81.6724H202.093V83.6724H229.933V81.6724ZM203.093 82.6724V39.1724H201.093V82.6724H203.093ZM202.093 40.1724H216.013V38.1724H202.093V40.1724ZM215.013 39.1724V71.5364H217.013V39.1724H215.013ZM216.013 72.5364H229.933V70.5364H216.013V72.5364ZM261.595 56.1664H262.595V55.1664H261.595V56.1664ZM261.595 66.2584V67.2584H262.595V66.2584H261.595ZM247.675 66.2584V65.2584H246.675V66.2584H247.675ZM247.675 71.5364H246.675V72.5364H247.675V71.5364ZM264.727 71.5364H265.727V70.5364H264.727V71.5364ZM264.727 82.6724V83.6724H265.727V82.6724H264.727ZM233.755 82.6724H232.755V83.6724H233.755V82.6724ZM233.755 39.1724V38.1724H232.755V39.1724H233.755ZM264.379 39.1724L265.367 39.3267L265.548 38.1724H264.379V39.1724ZM262.639 50.3084V51.3084H263.495L263.627 50.4627L262.639 50.3084ZM247.675 50.3084V49.3084H246.675V50.3084H247.675ZM247.675 56.1664H246.675V57.1664H247.675V56.1664ZM260.595 56.1664V66.2584H262.595V56.1664H260.595ZM261.595 65.2584H247.675V67.2584H261.595V65.2584ZM246.675 66.2584V71.5364H248.675V66.2584H246.675ZM247.675 72.5364H264.727V70.5364H247.675V72.5364ZM263.727 71.5364V82.6724H265.727V71.5364H263.727ZM264.727 81.6724H233.755V83.6724H264.727V81.6724ZM234.755 82.6724V39.1724H232.755V82.6724H234.755ZM233.755 40.1724H264.379V38.1724H233.755V40.1724ZM263.391 39.018L261.651 50.154L263.627 50.4627L265.367 39.3267L263.391 39.018ZM262.639 49.3084H247.675V51.3084H262.639V49.3084ZM246.675 50.3084V56.1664H248.675V50.3084H246.675ZM247.675 57.1664H261.595V55.1664H247.675V57.1664Z" fill="#CEB7FF"/>
</g>
<g filter="url(#filter2_d_357_18)">
<path d="M5.25 103.172H279.25V118.172H5.25V103.172Z" stroke="#CEB7FF" shape-rendering="crispEdges"/>
</g>
<g filter="url(#filter3_d_357_18)">
<path d="M5.25 103.172H279.25V118.172H5.25V103.172Z" stroke="#CEB7FF" shape-rendering="crispEdges"/>
</g>
<g filter="url(#filter4_d_357_18)">
<path d="M5.75 4.82812H279.75V19.8281H5.75V4.82812Z" stroke="#CEB7FF" shape-rendering="crispEdges"/>
</g>
<g filter="url(#filter5_d_357_18)">
<path d="M5.75 4.82812H279.75V19.8281H5.75V4.82812Z" stroke="#CEB7FF" shape-rendering="crispEdges"/>
</g>
<defs>
<filter id="filter0_d_357_18" x="15.73" y="33.1284" width="253.997" height="55.588" filterUnits="userSpaceOnUse" color-interpolation-filters="sRGB">
<feFlood flood-opacity="0" result="BackgroundImageFix"/>
<feColorMatrix in="SourceAlpha" type="matrix" values="0 0 0 0 0 0 0 0 0 0 0 0 0 0 0 0 0 0 127 0" result="hardAlpha"/>
<feOffset/>
<feGaussianBlur stdDeviation="2.5"/>
<feComposite in2="hardAlpha" operator="out"/>
<feColorMatrix type="matrix" values="0 0 0 0 0.701961 0 0 0 0 0.466667 0 0 0 0 1 0 0 0 1 0"/>
<feBlend mode="normal" in2="BackgroundImageFix" result="effect1_dropShadow_357_18"/>
<feBlend mode="normal" in="SourceGraphic" in2="effect1_dropShadow_357_18" result="shape"/>
</filter>
<filter id="filter1_d_357_18" x="15.73" y="33.1284" width="253.997" height="55.588" filterUnits="userSpaceOnUse" color-interpolation-filters="sRGB">
<feFlood flood-opacity="0" result="BackgroundImageFix"/>
<feColorMatrix in="SourceAlpha" type="matrix" values="0 0 0 0 0 0 0 0 0 0 0 0 0 0 0 0 0 0 127 0" result="hardAlpha"/>
<feOffset/>
<feGaussianBlur stdDeviation="2.5"/>
<feComposite in2="hardAlpha" operator="out"/>
<feColorMatrix type="matrix" values="0 0 0 0 0.701961 0 0 0 0 0.466667 0 0 0 0 1 0 0 0 1 0"/>
<feBlend mode="normal" in2="BackgroundImageFix" result="effect1_dropShadow_357_18"/>
<feBlend mode="normal" in="SourceGraphic" in2="effect1_dropShadow_357_18" result="shape"/>
</filter>
<filter id="filter2_d_357_18" x="0.75" y="98.6724" width="283" height="24" filterUnits="userSpaceOnUse" color-interpolation-filters="sRGB">
<feFlood flood-opacity="0" result="BackgroundImageFix"/>
<feColorMatrix in="SourceAlpha" type="matrix" values="0 0 0 0 0 0 0 0 0 0 0 0 0 0 0 0 0 0 127 0" result="hardAlpha"/>
<feOffset/>
<feGaussianBlur stdDeviation="2"/>
<feComposite in2="hardAlpha" operator="out"/>
<feColorMatrix type="matrix" values="0 0 0 0 0.807843 0 0 0 0 0.717647 0 0 0 0 1 0 0 0 1 0"/>
<feBlend mode="normal" in2="BackgroundImageFix" result="effect1_dropShadow_357_18"/>
<feBlend mode="normal" in="SourceGraphic" in2="effect1_dropShadow_357_18" result="shape"/>
</filter>
<filter id="filter3_d_357_18" x="0.75" y="98.6724" width="283" height="24" filterUnits="userSpaceOnUse" color-interpolation-filters="sRGB">
<feFlood flood-opacity="0" result="BackgroundImageFix"/>
<feColorMatrix in="SourceAlpha" type="matrix" values="0 0 0 0 0 0 0 0 0 0 0 0 0 0 0 0 0 0 127 0" result="hardAlpha"/>
<feOffset/>
<feGaussianBlur stdDeviation="2"/>
<feComposite in2="hardAlpha" operator="out"/>
<feColorMatrix type="matrix" values="0 0 0 0 0.807843 0 0 0 0 0.717647 0 0 0 0 1 0 0 0 1 0"/>
<feBlend mode="normal" in2="BackgroundImageFix" result="effect1_dropShadow_357_18"/>
<feBlend mode="normal" in="SourceGraphic" in2="effect1_dropShadow_357_18" result="shape"/>
</filter>
<filter id="filter4_d_357_18" x="1.25" y="0.328125" width="283" height="24" filterUnits="userSpaceOnUse" color-interpolation-filters="sRGB">
<feFlood flood-opacity="0" result="BackgroundImageFix"/>
<feColorMatrix in="SourceAlpha" type="matrix" values="0 0 0 0 0 0 0 0 0 0 0 0 0 0 0 0 0 0 127 0" result="hardAlpha"/>
<feOffset/>
<feGaussianBlur stdDeviation="2"/>
<feComposite in2="hardAlpha" operator="out"/>
<feColorMatrix type="matrix" values="0 0 0 0 0.807843 0 0 0 0 0.717647 0 0 0 0 1 0 0 0 1 0"/>
<feBlend mode="normal" in2="BackgroundImageFix" result="effect1_dropShadow_357_18"/>
<feBlend mode="normal" in="SourceGraphic" in2="effect1_dropShadow_357_18" result="shape"/>
</filter>
<filter id="filter5_d_357_18" x="1.25" y="0.328125" width="283" height="24" filterUnits="userSpaceOnUse" color-interpolation-filters="sRGB">
<feFlood flood-opacity="0" result="BackgroundImageFix"/>
<feColorMatrix in="SourceAlpha" type="matrix" values="0 0 0 0 0 0 0 0 0 0 0 0 0 0 0 0 0 0 127 0" result="hardAlpha"/>
<feOffset/>
<feGaussianBlur stdDeviation="2"/>
<feComposite in2="hardAlpha" operator="out"/>
<feColorMatrix type="matrix" values="0 0 0 0 0.807843 0 0 0 0 0.717647 0 0 0 0 1 0 0 0 1 0"/>
<feBlend mode="normal" in2="BackgroundImageFix" result="effect1_dropShadow_357_18"/>
<feBlend mode="normal" in="SourceGraphic" in2="effect1_dropShadow_357_18" result="shape"/>
</filter>
</defs>
</svg>
