<svg width="288" height="123" viewBox="0 0 288 123" fill="none" xmlns="http://www.w3.org/2000/svg">
<g filter="url(#filter0_d_357_18)">
<path d="M35.872 68.5L35.4184 67.6088L34.5194 68.0663L34.9848 68.9614L35.872 68.5ZM43.412 83V84H45.0591L44.2992 82.5386L43.412 83ZM28.1 83L27.1845 83.4023L27.4472 84H28.1V83ZM22.416 70.066L23.3315 69.6637L23.0688 69.066H22.416V70.066ZM19.4 70.066V69.066H18.4V70.066H19.4ZM19.4 83V84H20.4V83H19.4ZM5.48 83H4.48V84H5.48V83ZM5.48 39.5V38.5H4.48V39.5H5.48ZM19.4 50.636V49.636H18.4V50.636H19.4ZM19.4 59.336H18.4V60.336H19.4V59.336ZM26.244 58.814L25.8336 57.9021L25.8247 57.9061L25.8159 57.9103L26.244 58.814ZM26.244 51.158L25.8159 52.0617L25.8247 52.0659L25.8336 52.0699L26.244 51.158ZM34.9848 68.9614L42.5248 83.4614L44.2992 82.5386L36.7592 68.0386L34.9848 68.9614ZM43.412 82H28.1V84H43.412V82ZM29.0155 82.5977L23.3315 69.6637L21.5005 70.4683L27.1845 83.4023L29.0155 82.5977ZM22.416 69.066H19.4V71.066H22.416V69.066ZM18.4 70.066V83H20.4V70.066H18.4ZM19.4 82H5.48V84H19.4V82ZM6.48 83V39.5H4.48V83H6.48ZM5.48 40.5H27.404V38.5H5.48V40.5ZM27.404 40.5C32.2329 40.5 35.6721 41.7293 37.9131 44.0138C40.1577 46.3018 41.368 49.8187 41.368 54.754H43.368C43.368 49.52 42.0843 45.4098 39.3409 42.6132C36.5939 39.813 32.5511 38.5 27.404 38.5V40.5ZM41.368 54.754C41.368 61.5222 39.2762 65.6455 35.4184 67.6088L36.3256 69.3912C41.1291 66.9465 43.368 61.9058 43.368 54.754H41.368ZM22.59 49.636H19.4V51.636H22.59V49.636ZM18.4 50.636V59.336H20.4V50.636H18.4ZM19.4 60.336H22.59V58.336H19.4V60.336ZM22.59 60.336C24.3121 60.336 25.723 60.1673 26.6721 59.7177L25.8159 57.9103C25.2956 58.1567 24.2706 58.336 22.59 58.336V60.336ZM26.6544 59.7259C27.9439 59.1456 28.404 57.8589 28.404 56.436H26.404C26.404 57.4878 26.0907 57.7864 25.8336 57.9021L26.6544 59.7259ZM28.404 56.436V53.536H26.404V56.436H28.404ZM28.404 53.536C28.404 52.1131 27.9439 50.8264 26.6544 50.2461L25.8336 52.0699C26.0907 52.1856 26.404 52.4842 26.404 53.536H28.404ZM26.6721 50.2543C25.723 49.8047 24.3121 49.636 22.59 49.636V51.636C24.2706 51.636 25.2956 51.8153 25.8159 52.0617L26.6721 50.2543ZM76.1403 56.494H77.1403V55.494H76.1403V56.494ZM76.1403 66.586V67.586H77.1403V66.586H76.1403ZM62.2203 66.586V65.586H61.2203V66.586H62.2203ZM62.2203 71.864H61.2203V72.864H62.2203V71.864ZM79.2723 71.864H80.2723V70.864H79.2723V71.864ZM79.2723 83V84H80.2723V83H79.2723ZM48.3003 83H47.3003V84H48.3003V83ZM48.3003 39.5V38.5H47.3003V39.5H48.3003ZM78.9243 39.5L79.9123 39.6544L80.0927 38.5H78.9243V39.5ZM77.1843 50.636V51.636H78.0402L78.1723 50.7904L77.1843 50.636ZM62.2203 50.636V49.636H61.2203V50.636H62.2203ZM62.2203 56.494H61.2203V57.494H62.2203V56.494ZM75.1403 56.494V66.586H77.1403V56.494H75.1403ZM76.1403 65.586H62.2203V67.586H76.1403V65.586ZM61.2203 66.586V71.864H63.2203V66.586H61.2203ZM62.2203 72.864H79.2723V70.864H62.2203V72.864ZM78.2723 71.864V83H80.2723V71.864H78.2723ZM79.2723 82H48.3003V84H79.2723V82ZM49.3003 83V39.5H47.3003V83H49.3003ZM48.3003 40.5H78.9243V38.5H48.3003V40.5ZM77.9363 39.3456L76.1963 50.4816L78.1723 50.7904L79.9123 39.6544L77.9363 39.3456ZM77.1843 49.636H62.2203V51.636H77.1843V49.636ZM61.2203 50.636V56.494H63.2203V50.636H61.2203ZM62.2203 57.494H76.1403V55.494H62.2203V57.494ZM99.0934 72.502V71.502H98.0934V72.502H99.0934ZM99.0934 83V84H100.093V83H99.0934ZM85.1734 83H84.1734V84H85.1734V83ZM85.1734 39.5V38.5H84.1734V39.5H85.1734ZM121.365 62.178L120.39 61.9572L120.39 61.9572L121.365 62.178ZM118.987 67.572L118.178 66.985L118.175 66.9888L118.987 67.572ZM114.695 71.168L114.248 70.2735L114.24 70.2776L114.695 71.168ZM99.0934 50.636V49.636H98.0934V50.636H99.0934ZM99.0934 61.366H98.0934V62.366H99.0934V61.366ZM105.937 60.844L105.527 59.9321L105.518 59.9361L105.509 59.9403L105.937 60.844ZM105.937 51.158L105.509 52.0617L105.518 52.0659L105.527 52.0699L105.937 51.158ZM108.141 71.502H99.0934V73.502H108.141V71.502ZM98.0934 72.502V83H100.093V72.502H98.0934ZM99.0934 82H85.1734V84H99.0934V82ZM86.1734 83V39.5H84.1734V83H86.1734ZM85.1734 40.5H107.097V38.5H85.1734V40.5ZM107.097 40.5C111.912 40.5 115.345 41.789 117.589 44.1981C119.845 46.6205 121.061 50.3478 121.061 55.566H123.061C123.061 50.0735 121.784 45.7678 119.052 42.8349C116.308 39.8886 112.258 38.5 107.097 38.5V40.5ZM121.061 55.566C121.061 57.8593 120.836 59.9885 120.39 61.9572L122.341 62.3988C122.823 60.2688 123.061 57.9901 123.061 55.566H121.061ZM120.39 61.9572C119.953 63.8878 119.212 65.5584 118.178 66.985L119.797 68.159C121.005 66.4922 121.85 64.5669 122.341 62.3988L120.39 61.9572ZM118.175 66.9888C117.194 68.3556 115.892 69.4515 114.248 70.2736L115.143 72.0624C117.056 71.1058 118.616 69.8044 119.8 68.1552L118.175 66.9888ZM114.24 70.2776C112.681 71.0744 110.665 71.502 108.141 71.502V73.502C110.877 73.502 113.229 73.0403 115.15 72.0584L114.24 70.2776ZM102.283 49.636H99.0934V51.636H102.283V49.636ZM98.0934 50.636V61.366H100.093V50.636H98.0934ZM99.0934 62.366H102.283V60.366H99.0934V62.366ZM102.283 62.366C104.005 62.366 105.416 62.1973 106.365 61.7477L105.509 59.9403C104.989 60.1867 103.964 60.366 102.283 60.366V62.366ZM106.348 61.7559C107.648 61.1707 108.097 59.8518 108.097 58.408H106.097C106.097 59.5162 105.773 59.8213 105.527 59.9321L106.348 61.7559ZM108.097 58.408V53.536H106.097V58.408H108.097ZM108.097 53.536C108.097 52.1131 107.637 50.8264 106.348 50.2461L105.527 52.0699C105.784 52.1856 106.097 52.4842 106.097 53.536H108.097ZM106.365 50.2543C105.416 49.8047 104.005 49.636 102.283 49.636V51.636C103.964 51.636 104.989 51.8153 105.509 52.0617L106.365 50.2543ZM125.136 51.042L124.163 50.8086L124.161 50.8181L125.136 51.042ZM128.558 43.908L127.805 43.2494L127.797 43.2585L128.558 43.908ZM134.938 39.79L134.617 38.8427L134.617 38.8427L134.938 39.79ZM154.426 39.79L154.101 40.7358L154.105 40.7373L154.426 39.79ZM160.748 43.908L159.987 44.5575L159.995 44.5665L160.748 43.908ZM164.17 51.042L163.195 51.2631L163.196 51.2707L163.198 51.2784L164.17 51.042ZM164.286 71.284L165.263 71.4981L165.263 71.4953L164.286 71.284ZM160.98 78.36L160.213 77.7182L160.205 77.7276L160.98 78.36ZM154.658 82.652L154.991 83.595L154.998 83.5922L154.658 82.652ZM134.648 82.652L134.303 83.5906L134.311 83.5936L134.319 83.5965L134.648 82.652ZM128.326 78.36L127.551 78.9924L127.559 79.0017L128.326 78.36ZM125.078 71.284L124.1 71.4953L124.101 71.4981L125.078 71.284ZM139.114 72.154H138.114V73.154H139.114V72.154ZM149.032 71.516L149.496 72.4018L149.503 72.3979L149.511 72.3939L149.032 71.516ZM150.308 50.346H151.308V49.346H150.308V50.346ZM140.39 51.042L140.837 51.9364L140.853 51.9284L140.869 51.9199L140.39 51.042ZM125.15 61.308C125.15 57.3759 125.475 54.0331 126.11 51.2659L124.161 50.8181C123.482 53.7736 123.15 57.2747 123.15 61.308H125.15ZM126.108 51.2754C126.775 48.4953 127.856 46.2697 129.318 44.5575L127.797 43.2585C126.089 45.2583 124.888 47.7887 124.163 50.8086L126.108 51.2754ZM129.31 44.5665C130.804 42.8592 132.774 41.5774 135.258 40.7373L134.617 38.8427C131.842 39.7813 129.559 41.2448 127.805 43.2495L129.31 44.5665ZM135.258 40.7373C137.753 39.8936 140.885 39.456 144.682 39.456V37.456C140.746 37.456 137.382 37.9077 134.617 38.8427L135.258 40.7373ZM144.682 39.456C148.52 39.456 151.649 39.8941 154.101 40.7358L154.75 38.8442C152.021 37.9073 148.655 37.456 144.682 37.456V39.456ZM154.105 40.7373C156.588 41.5769 158.535 42.8566 159.987 44.5575L161.508 43.2585C159.79 41.2474 157.522 39.7817 154.746 38.8427L154.105 40.7373ZM159.995 44.5665C161.489 46.2742 162.566 48.492 163.195 51.2631L165.145 50.8209C164.459 47.792 163.254 45.2538 161.5 43.2495L159.995 44.5665ZM163.198 51.2784C163.87 54.0406 164.214 57.379 164.214 61.308H166.214C166.214 57.2716 165.862 53.766 165.141 50.8056L163.198 51.2784ZM164.214 61.308C164.214 65.0459 163.908 68.2976 163.308 71.0727L165.263 71.4953C165.901 68.5477 166.214 65.1488 166.214 61.308H164.214ZM163.309 71.0699C162.719 73.7619 161.679 75.9666 160.213 77.7183L161.747 79.0017C163.452 76.9641 164.615 74.4514 165.263 71.4981L163.309 71.0699ZM160.205 77.7276C158.79 79.4613 156.843 80.7967 154.317 81.7118L154.998 83.5922C157.809 82.574 160.076 81.0481 161.754 78.9924L160.205 77.7276ZM154.325 81.709C151.839 82.5866 148.636 83.044 144.682 83.044V85.044C148.771 85.044 152.218 84.5734 154.991 83.595L154.325 81.709ZM144.682 83.044C140.729 83.044 137.504 82.5868 134.976 81.7075L134.319 83.5965C137.127 84.5732 140.592 85.044 144.682 85.044V83.044ZM134.993 81.7134C132.505 80.7989 130.551 79.4616 129.093 77.7183L127.559 79.0017C129.271 81.0477 131.532 82.5718 134.303 83.5906L134.993 81.7134ZM129.1 77.7276C127.67 75.9748 126.646 73.7669 126.055 71.0699L124.101 71.4981C124.747 74.4464 125.889 76.9559 127.551 78.9924L129.1 77.7276ZM126.055 71.0727C125.455 68.2976 125.15 65.0459 125.15 61.308H123.15C123.15 65.1488 123.463 68.5477 124.1 71.4953L126.055 71.0727ZM138.114 54.058V72.154H140.114V54.058H138.114ZM139.114 73.154H144.914V71.154H139.114V73.154ZM144.914 73.154C146.867 73.154 148.453 72.9479 149.496 72.4018L148.568 70.6302C147.986 70.9347 146.827 71.154 144.914 71.154V73.154ZM149.511 72.3939C150.852 71.662 151.308 70.147 151.308 68.442H149.308C149.308 69.9076 148.913 70.442 148.553 70.6381L149.511 72.3939ZM151.308 68.442V50.346H149.308V68.442H151.308ZM150.308 49.346H144.45V51.346H150.308V49.346ZM144.45 49.346C142.554 49.346 140.99 49.5756 139.911 50.1641L140.869 51.9199C141.491 51.5804 142.634 51.346 144.45 51.346V49.346ZM139.943 50.1476C138.566 50.8361 138.114 52.363 138.114 54.058H140.114C140.114 52.5823 140.513 52.0986 140.837 51.9364L139.943 50.1476ZM200.47 68.5L200.016 67.6088L199.117 68.0663L199.582 68.9614L200.47 68.5ZM208.01 83V84H209.657L208.897 82.5386L208.01 83ZM192.698 83L191.782 83.4023L192.045 84H192.698V83ZM187.014 70.066L187.929 69.6637L187.666 69.066H187.014V70.066ZM183.998 70.066V69.066H182.998V70.066H183.998ZM183.998 83V84H184.998V83H183.998ZM170.078 83H169.078V84H170.078V83ZM170.078 39.5V38.5H169.078V39.5H170.078ZM183.998 50.636V49.636H182.998V50.636H183.998ZM183.998 59.336H182.998V60.336H183.998V59.336ZM190.842 58.814L190.431 57.9021L190.422 57.9061L190.414 57.9103L190.842 58.814ZM190.842 51.158L190.414 52.0617L190.422 52.0659L190.431 52.0699L190.842 51.158ZM199.582 68.9614L207.122 83.4614L208.897 82.5386L201.357 68.0386L199.582 68.9614ZM208.01 82H192.698V84H208.01V82ZM193.613 82.5977L187.929 69.6637L186.098 70.4683L191.782 83.4023L193.613 82.5977ZM187.014 69.066H183.998V71.066H187.014V69.066ZM182.998 70.066V83H184.998V70.066H182.998ZM183.998 82H170.078V84H183.998V82ZM171.078 83V39.5H169.078V83H171.078ZM170.078 40.5H192.002V38.5H170.078V40.5ZM192.002 40.5C196.831 40.5 200.27 41.7293 202.511 44.0138C204.755 46.3018 205.966 49.8187 205.966 54.754H207.966C207.966 49.52 206.682 45.4098 203.939 42.6132C201.192 39.813 197.149 38.5 192.002 38.5V40.5ZM205.966 54.754C205.966 61.5222 203.874 65.6455 200.016 67.6088L200.923 69.3912C205.727 66.9465 207.966 61.9058 207.966 54.754H205.966ZM187.188 49.636H183.998V51.636H187.188V49.636ZM182.998 50.636V59.336H184.998V50.636H182.998ZM183.998 60.336H187.188V58.336H183.998V60.336ZM187.188 60.336C188.91 60.336 190.321 60.1673 191.27 59.7177L190.414 57.9103C189.893 58.1567 188.868 58.336 187.188 58.336V60.336ZM191.252 59.7259C192.542 59.1456 193.002 57.8589 193.002 56.436H191.002C191.002 57.4878 190.688 57.7864 190.431 57.9021L191.252 59.7259ZM193.002 56.436V53.536H191.002V56.436H193.002ZM193.002 53.536C193.002 52.1131 192.542 50.8264 191.252 50.2461L190.431 52.0699C190.688 52.1856 191.002 52.4842 191.002 53.536H193.002ZM191.27 50.2543C190.321 49.8047 188.91 49.636 187.188 49.636V51.636C188.868 51.636 189.893 51.8153 190.414 52.0617L191.27 50.2543ZM243.87 39.5H244.87V38.5H243.87V39.5ZM243.87 50.636V51.636H244.87V50.636H243.87ZM233.778 50.636V49.636H232.778V50.636H233.778ZM233.778 83V84H234.778V83H233.778ZM219.858 83H218.858V84H219.858V83ZM219.858 50.636H220.858V49.636H219.858V50.636ZM209.766 50.636H208.766V51.636H209.766V50.636ZM209.766 39.5V38.5H208.766V39.5H209.766ZM242.87 39.5V50.636H244.87V39.5H242.87ZM243.87 49.636H233.778V51.636H243.87V49.636ZM232.778 50.636V83H234.778V50.636H232.778ZM233.778 82H219.858V84H233.778V82ZM220.858 83V50.636H218.858V83H220.858ZM219.858 49.636H209.766V51.636H219.858V49.636ZM210.766 50.636V39.5H208.766V50.636H210.766ZM209.766 40.5H243.87V38.5H209.766V40.5ZM245.935 82.246L244.95 82.0768L244.789 83.0141L245.717 83.2218L245.935 82.246ZM247.907 70.762L248.146 69.7908L247.103 69.535L246.922 70.5928L247.907 70.762ZM264.031 72.27L264.061 73.2696L264.075 73.2692L264.088 73.2684L264.031 72.27ZM267.627 71.922L267.774 72.9112L268.627 72.7848V71.922H267.627ZM267.627 68.442H268.627V67.5219L267.71 67.4455L267.627 68.442ZM261.363 67.92L261.268 68.9155L261.28 68.9165L261.363 67.92ZM254.287 66.528L253.96 67.4728L253.96 67.4728L254.287 66.528ZM249.705 63.86L248.986 64.555L248.998 64.5672L249.01 64.579L249.705 63.86ZM247.269 59.742L246.308 60.0167L246.312 60.0305L246.316 60.0442L247.269 59.742ZM247.501 46.634L248.455 46.9333L248.457 46.9281L247.501 46.634ZM250.459 41.82L251.122 42.5686L251.128 42.5634L251.134 42.558L250.459 41.82ZM255.679 39.21L255.453 38.2359L255.449 38.2368L255.679 39.21ZM280.271 40.196L281.259 40.3504L281.403 39.4324L280.498 39.222L280.271 40.196ZM278.531 51.332L278.373 52.3193L279.364 52.4787L279.519 51.4864L278.531 51.332ZM261.537 50.636L261.411 49.644L260.537 49.7555V50.636H261.537ZM261.537 54.058H260.537V54.9693L261.445 55.0537L261.537 54.058ZM266.525 54.522L266.626 53.5271L266.618 53.5263L266.525 54.522ZM274.181 56.088L273.844 57.0293L273.852 57.0322L273.86 57.0349L274.181 56.088ZM279.111 58.872L278.427 59.6015L278.433 59.6068L278.439 59.6119L279.111 58.872ZM281.779 62.99L280.826 63.2922L280.829 63.3027L280.833 63.3131L281.779 62.99ZM281.431 75.866L280.498 75.507L280.498 75.507L281.431 75.866ZM278.647 80.448L279.339 81.1706L279.341 81.1678L278.647 80.448ZM275.341 82.478L275.674 83.421L275.686 83.4167L275.698 83.4121L275.341 82.478ZM271.165 83.522L271.321 84.5098L271.321 84.5098L271.165 83.522ZM266.699 83.928L266.674 82.9283L266.66 82.9287L266.647 82.9294L266.699 83.928ZM253.997 83.58L254.108 82.5861L254.108 82.5861L253.997 83.58ZM246.921 82.4152L248.893 70.9312L246.922 70.5928L244.95 82.0768L246.921 82.4152ZM247.669 71.7332C251.98 72.7914 255.909 73.328 259.449 73.328V71.328C256.107 71.328 252.341 70.8206 248.146 69.7908L247.669 71.7332ZM259.449 73.328C261.196 73.328 262.734 73.3086 264.061 73.2696L264.002 71.2704C262.7 71.3087 261.182 71.328 259.449 71.328V73.328ZM264.088 73.2684C265.464 73.1898 266.693 73.0713 267.774 72.9112L267.481 70.9328C266.473 71.082 265.306 71.1956 263.974 71.2716L264.088 73.2684ZM268.627 71.922V68.442H266.627V71.922H268.627ZM267.71 67.4455L261.446 66.9235L261.28 68.9165L267.544 69.4385L267.71 67.4455ZM261.459 66.9246C258.685 66.6586 256.411 66.2062 254.615 65.5832L253.96 67.4728C255.953 68.1644 258.396 68.64 261.268 68.9154L261.459 66.9246ZM254.615 65.5832C252.825 64.9623 251.434 64.1398 250.4 63.141L249.01 64.579C250.297 65.8228 251.96 66.779 253.96 67.4728L254.615 65.5832ZM250.424 63.165C249.414 62.1195 248.68 60.8825 248.223 59.4398L246.316 60.0442C246.864 61.7721 247.754 63.2805 248.986 64.555L250.424 63.165ZM248.231 59.4673C247.798 57.9536 247.573 56.1552 247.573 54.058H245.573C245.573 56.2915 245.812 58.2824 246.308 60.0167L248.231 59.4673ZM247.573 54.058C247.573 51.1415 247.877 48.7761 248.455 46.9333L246.547 46.3347C245.888 48.4359 245.573 51.0198 245.573 54.058H247.573ZM248.457 46.9281C249.031 45.0638 249.928 43.6267 251.122 42.5686L249.796 41.0714C248.284 42.4106 247.209 44.1829 246.546 46.3399L248.457 46.9281ZM251.134 42.558C252.34 41.4559 253.917 40.6542 255.909 40.1832L255.449 38.2368C253.189 38.7712 251.286 39.7094 249.785 41.082L251.134 42.558ZM255.905 40.1841C257.974 39.7039 260.523 39.456 263.567 39.456V37.456C260.425 37.456 257.715 37.7108 255.453 38.2359L255.905 40.1841ZM263.567 39.456C269.654 39.456 275.144 40.0303 280.045 41.17L280.498 39.222C275.423 38.0417 269.777 37.456 263.567 37.456V39.456ZM279.283 40.0416L277.543 51.1776L279.519 51.4864L281.259 40.3504L279.283 40.0416ZM278.69 50.3447C274.337 49.6452 270.817 49.288 268.149 49.288V51.288C270.663 51.288 274.064 51.6268 278.373 52.3193L278.69 50.3447ZM268.149 49.288C265.532 49.288 263.283 49.405 261.411 49.644L261.664 51.6279C263.426 51.403 265.585 51.288 268.149 51.288V49.288ZM260.537 50.636V54.058H262.537V50.636H260.537ZM261.445 55.0537L266.433 55.5177L266.618 53.5263L261.63 53.0623L261.445 55.0537ZM266.425 55.5169C269.429 55.8211 271.895 56.3307 273.844 57.0293L274.519 55.1467C272.369 54.376 269.731 53.8415 266.626 53.5271L266.425 55.5169ZM273.86 57.0349C275.81 57.6973 277.318 58.5619 278.427 59.6015L279.795 58.1425C278.429 56.8621 276.651 55.8707 274.503 55.1411L273.86 57.0349ZM278.439 59.6119C279.589 60.6579 280.379 61.8814 280.826 63.2922L282.733 62.6878C282.175 60.928 281.185 59.4061 279.784 58.1321L278.439 59.6119ZM280.833 63.3131C281.332 64.7742 281.591 66.4789 281.591 68.442H283.591C283.591 66.3064 283.309 64.3765 282.726 62.6669L280.833 63.3131ZM281.591 68.442C281.591 71.2997 281.214 73.6443 280.498 75.507L282.365 76.225C283.195 74.0664 283.591 71.4617 283.591 68.442H281.591ZM280.498 75.507C279.756 77.436 278.895 78.8195 277.953 79.7282L279.341 81.1678C280.565 79.9885 281.56 78.3173 282.365 76.225L280.498 75.507ZM277.956 79.7254C277.176 80.4717 276.192 81.082 274.984 81.5439L275.698 83.4121C277.12 82.8686 278.34 82.1256 279.339 81.1706L277.956 79.7254ZM275.008 81.535C273.755 81.9774 272.422 82.3111 271.009 82.5342L271.321 84.5098C272.847 84.2689 274.298 83.9066 275.674 83.421L275.008 81.535ZM271.009 82.5342C269.584 82.7593 268.139 82.8908 266.674 82.9283L266.725 84.9277C268.276 84.8879 269.808 84.7487 271.321 84.5098L271.009 82.5342ZM266.647 82.9294C265.191 83.006 263.875 83.044 262.697 83.044V85.044C263.917 85.044 265.269 85.0047 266.752 84.9266L266.647 82.9294ZM262.697 83.044C259.715 83.044 256.852 82.8911 254.108 82.5861L253.887 84.5739C256.71 84.8876 259.647 85.044 262.697 85.044V83.044ZM254.108 82.5861C251.358 82.2806 248.707 81.8418 246.154 81.2702L245.717 83.2218C248.345 83.8102 251.069 84.2607 253.887 84.5739L254.108 82.5861Z" fill="#CEB7FF"/>
</g>
<g filter="url(#filter1_d_357_18)">
<path d="M35.872 68.5L35.4184 67.6088L34.5194 68.0663L34.9848 68.9614L35.872 68.5ZM43.412 83V84H45.0591L44.2992 82.5386L43.412 83ZM28.1 83L27.1845 83.4023L27.4472 84H28.1V83ZM22.416 70.066L23.3315 69.6637L23.0688 69.066H22.416V70.066ZM19.4 70.066V69.066H18.4V70.066H19.4ZM19.4 83V84H20.4V83H19.4ZM5.48 83H4.48V84H5.48V83ZM5.48 39.5V38.5H4.48V39.5H5.48ZM19.4 50.636V49.636H18.4V50.636H19.4ZM19.4 59.336H18.4V60.336H19.4V59.336ZM26.244 58.814L25.8336 57.9021L25.8247 57.9061L25.8159 57.9103L26.244 58.814ZM26.244 51.158L25.8159 52.0617L25.8247 52.0659L25.8336 52.0699L26.244 51.158ZM34.9848 68.9614L42.5248 83.4614L44.2992 82.5386L36.7592 68.0386L34.9848 68.9614ZM43.412 82H28.1V84H43.412V82ZM29.0155 82.5977L23.3315 69.6637L21.5005 70.4683L27.1845 83.4023L29.0155 82.5977ZM22.416 69.066H19.4V71.066H22.416V69.066ZM18.4 70.066V83H20.4V70.066H18.4ZM19.4 82H5.48V84H19.4V82ZM6.48 83V39.5H4.48V83H6.48ZM5.48 40.5H27.404V38.5H5.48V40.5ZM27.404 40.5C32.2329 40.5 35.6721 41.7293 37.9131 44.0138C40.1577 46.3018 41.368 49.8187 41.368 54.754H43.368C43.368 49.52 42.0843 45.4098 39.3409 42.6132C36.5939 39.813 32.5511 38.5 27.404 38.5V40.5ZM41.368 54.754C41.368 61.5222 39.2762 65.6455 35.4184 67.6088L36.3256 69.3912C41.1291 66.9465 43.368 61.9058 43.368 54.754H41.368ZM22.59 49.636H19.4V51.636H22.59V49.636ZM18.4 50.636V59.336H20.4V50.636H18.4ZM19.4 60.336H22.59V58.336H19.4V60.336ZM22.59 60.336C24.3121 60.336 25.723 60.1673 26.6721 59.7177L25.8159 57.9103C25.2956 58.1567 24.2706 58.336 22.59 58.336V60.336ZM26.6544 59.7259C27.9439 59.1456 28.404 57.8589 28.404 56.436H26.404C26.404 57.4878 26.0907 57.7864 25.8336 57.9021L26.6544 59.7259ZM28.404 56.436V53.536H26.404V56.436H28.404ZM28.404 53.536C28.404 52.1131 27.9439 50.8264 26.6544 50.2461L25.8336 52.0699C26.0907 52.1856 26.404 52.4842 26.404 53.536H28.404ZM26.6721 50.2543C25.723 49.8047 24.3121 49.636 22.59 49.636V51.636C24.2706 51.636 25.2956 51.8153 25.8159 52.0617L26.6721 50.2543ZM76.1403 56.494H77.1403V55.494H76.1403V56.494ZM76.1403 66.586V67.586H77.1403V66.586H76.1403ZM62.2203 66.586V65.586H61.2203V66.586H62.2203ZM62.2203 71.864H61.2203V72.864H62.2203V71.864ZM79.2723 71.864H80.2723V70.864H79.2723V71.864ZM79.2723 83V84H80.2723V83H79.2723ZM48.3003 83H47.3003V84H48.3003V83ZM48.3003 39.5V38.5H47.3003V39.5H48.3003ZM78.9243 39.5L79.9123 39.6544L80.0927 38.5H78.9243V39.5ZM77.1843 50.636V51.636H78.0402L78.1723 50.7904L77.1843 50.636ZM62.2203 50.636V49.636H61.2203V50.636H62.2203ZM62.2203 56.494H61.2203V57.494H62.2203V56.494ZM75.1403 56.494V66.586H77.1403V56.494H75.1403ZM76.1403 65.586H62.2203V67.586H76.1403V65.586ZM61.2203 66.586V71.864H63.2203V66.586H61.2203ZM62.2203 72.864H79.2723V70.864H62.2203V72.864ZM78.2723 71.864V83H80.2723V71.864H78.2723ZM79.2723 82H48.3003V84H79.2723V82ZM49.3003 83V39.5H47.3003V83H49.3003ZM48.3003 40.5H78.9243V38.5H48.3003V40.5ZM77.9363 39.3456L76.1963 50.4816L78.1723 50.7904L79.9123 39.6544L77.9363 39.3456ZM77.1843 49.636H62.2203V51.636H77.1843V49.636ZM61.2203 50.636V56.494H63.2203V50.636H61.2203ZM62.2203 57.494H76.1403V55.494H62.2203V57.494ZM99.0934 72.502V71.502H98.0934V72.502H99.0934ZM99.0934 83V84H100.093V83H99.0934ZM85.1734 83H84.1734V84H85.1734V83ZM85.1734 39.5V38.5H84.1734V39.5H85.1734ZM121.365 62.178L120.39 61.9572L120.39 61.9572L121.365 62.178ZM118.987 67.572L118.178 66.985L118.175 66.9888L118.987 67.572ZM114.695 71.168L114.248 70.2735L114.24 70.2776L114.695 71.168ZM99.0934 50.636V49.636H98.0934V50.636H99.0934ZM99.0934 61.366H98.0934V62.366H99.0934V61.366ZM105.937 60.844L105.527 59.9321L105.518 59.9361L105.509 59.9403L105.937 60.844ZM105.937 51.158L105.509 52.0617L105.518 52.0659L105.527 52.0699L105.937 51.158ZM108.141 71.502H99.0934V73.502H108.141V71.502ZM98.0934 72.502V83H100.093V72.502H98.0934ZM99.0934 82H85.1734V84H99.0934V82ZM86.1734 83V39.5H84.1734V83H86.1734ZM85.1734 40.5H107.097V38.5H85.1734V40.5ZM107.097 40.5C111.912 40.5 115.345 41.789 117.589 44.1981C119.845 46.6205 121.061 50.3478 121.061 55.566H123.061C123.061 50.0735 121.784 45.7678 119.052 42.8349C116.308 39.8886 112.258 38.5 107.097 38.5V40.5ZM121.061 55.566C121.061 57.8593 120.836 59.9885 120.39 61.9572L122.341 62.3988C122.823 60.2688 123.061 57.9901 123.061 55.566H121.061ZM120.39 61.9572C119.953 63.8878 119.212 65.5584 118.178 66.985L119.797 68.159C121.005 66.4922 121.85 64.5669 122.341 62.3988L120.39 61.9572ZM118.175 66.9888C117.194 68.3556 115.892 69.4515 114.248 70.2736L115.143 72.0624C117.056 71.1058 118.616 69.8044 119.8 68.1552L118.175 66.9888ZM114.24 70.2776C112.681 71.0744 110.665 71.502 108.141 71.502V73.502C110.877 73.502 113.229 73.0403 115.15 72.0584L114.24 70.2776ZM102.283 49.636H99.0934V51.636H102.283V49.636ZM98.0934 50.636V61.366H100.093V50.636H98.0934ZM99.0934 62.366H102.283V60.366H99.0934V62.366ZM102.283 62.366C104.005 62.366 105.416 62.1973 106.365 61.7477L105.509 59.9403C104.989 60.1867 103.964 60.366 102.283 60.366V62.366ZM106.348 61.7559C107.648 61.1707 108.097 59.8518 108.097 58.408H106.097C106.097 59.5162 105.773 59.8213 105.527 59.9321L106.348 61.7559ZM108.097 58.408V53.536H106.097V58.408H108.097ZM108.097 53.536C108.097 52.1131 107.637 50.8264 106.348 50.2461L105.527 52.0699C105.784 52.1856 106.097 52.4842 106.097 53.536H108.097ZM106.365 50.2543C105.416 49.8047 104.005 49.636 102.283 49.636V51.636C103.964 51.636 104.989 51.8153 105.509 52.0617L106.365 50.2543ZM125.136 51.042L124.163 50.8086L124.161 50.8181L125.136 51.042ZM128.558 43.908L127.805 43.2494L127.797 43.2585L128.558 43.908ZM134.938 39.79L134.617 38.8427L134.617 38.8427L134.938 39.79ZM154.426 39.79L154.101 40.7358L154.105 40.7373L154.426 39.79ZM160.748 43.908L159.987 44.5575L159.995 44.5665L160.748 43.908ZM164.17 51.042L163.195 51.2631L163.196 51.2707L163.198 51.2784L164.17 51.042ZM164.286 71.284L165.263 71.4981L165.263 71.4953L164.286 71.284ZM160.98 78.36L160.213 77.7182L160.205 77.7276L160.98 78.36ZM154.658 82.652L154.991 83.595L154.998 83.5922L154.658 82.652ZM134.648 82.652L134.303 83.5906L134.311 83.5936L134.319 83.5965L134.648 82.652ZM128.326 78.36L127.551 78.9924L127.559 79.0017L128.326 78.36ZM125.078 71.284L124.1 71.4953L124.101 71.4981L125.078 71.284ZM139.114 72.154H138.114V73.154H139.114V72.154ZM149.032 71.516L149.496 72.4018L149.503 72.3979L149.511 72.3939L149.032 71.516ZM150.308 50.346H151.308V49.346H150.308V50.346ZM140.39 51.042L140.837 51.9364L140.853 51.9284L140.869 51.9199L140.39 51.042ZM125.15 61.308C125.15 57.3759 125.475 54.0331 126.11 51.2659L124.161 50.8181C123.482 53.7736 123.15 57.2747 123.15 61.308H125.15ZM126.108 51.2754C126.775 48.4953 127.856 46.2697 129.318 44.5575L127.797 43.2585C126.089 45.2583 124.888 47.7887 124.163 50.8086L126.108 51.2754ZM129.31 44.5665C130.804 42.8592 132.774 41.5774 135.258 40.7373L134.617 38.8427C131.842 39.7813 129.559 41.2448 127.805 43.2495L129.31 44.5665ZM135.258 40.7373C137.753 39.8936 140.885 39.456 144.682 39.456V37.456C140.746 37.456 137.382 37.9077 134.617 38.8427L135.258 40.7373ZM144.682 39.456C148.52 39.456 151.649 39.8941 154.101 40.7358L154.75 38.8442C152.021 37.9073 148.655 37.456 144.682 37.456V39.456ZM154.105 40.7373C156.588 41.5769 158.535 42.8566 159.987 44.5575L161.508 43.2585C159.79 41.2474 157.522 39.7817 154.746 38.8427L154.105 40.7373ZM159.995 44.5665C161.489 46.2742 162.566 48.492 163.195 51.2631L165.145 50.8209C164.459 47.792 163.254 45.2538 161.5 43.2495L159.995 44.5665ZM163.198 51.2784C163.87 54.0406 164.214 57.379 164.214 61.308H166.214C166.214 57.2716 165.862 53.766 165.141 50.8056L163.198 51.2784ZM164.214 61.308C164.214 65.0459 163.908 68.2976 163.308 71.0727L165.263 71.4953C165.901 68.5477 166.214 65.1488 166.214 61.308H164.214ZM163.309 71.0699C162.719 73.7619 161.679 75.9666 160.213 77.7183L161.747 79.0017C163.452 76.9641 164.615 74.4514 165.263 71.4981L163.309 71.0699ZM160.205 77.7276C158.79 79.4613 156.843 80.7967 154.317 81.7118L154.998 83.5922C157.809 82.574 160.076 81.0481 161.754 78.9924L160.205 77.7276ZM154.325 81.709C151.839 82.5866 148.636 83.044 144.682 83.044V85.044C148.771 85.044 152.218 84.5734 154.991 83.595L154.325 81.709ZM144.682 83.044C140.729 83.044 137.504 82.5868 134.976 81.7075L134.319 83.5965C137.127 84.5732 140.592 85.044 144.682 85.044V83.044ZM134.993 81.7134C132.505 80.7989 130.551 79.4616 129.093 77.7183L127.559 79.0017C129.271 81.0477 131.532 82.5718 134.303 83.5906L134.993 81.7134ZM129.1 77.7276C127.67 75.9748 126.646 73.7669 126.055 71.0699L124.101 71.4981C124.747 74.4464 125.889 76.9559 127.551 78.9924L129.1 77.7276ZM126.055 71.0727C125.455 68.2976 125.15 65.0459 125.15 61.308H123.15C123.15 65.1488 123.463 68.5477 124.1 71.4953L126.055 71.0727ZM138.114 54.058V72.154H140.114V54.058H138.114ZM139.114 73.154H144.914V71.154H139.114V73.154ZM144.914 73.154C146.867 73.154 148.453 72.9479 149.496 72.4018L148.568 70.6302C147.986 70.9347 146.827 71.154 144.914 71.154V73.154ZM149.511 72.3939C150.852 71.662 151.308 70.147 151.308 68.442H149.308C149.308 69.9076 148.913 70.442 148.553 70.6381L149.511 72.3939ZM151.308 68.442V50.346H149.308V68.442H151.308ZM150.308 49.346H144.45V51.346H150.308V49.346ZM144.45 49.346C142.554 49.346 140.99 49.5756 139.911 50.1641L140.869 51.9199C141.491 51.5804 142.634 51.346 144.45 51.346V49.346ZM139.943 50.1476C138.566 50.8361 138.114 52.363 138.114 54.058H140.114C140.114 52.5823 140.513 52.0986 140.837 51.9364L139.943 50.1476ZM200.47 68.5L200.016 67.6088L199.117 68.0663L199.582 68.9614L200.47 68.5ZM208.01 83V84H209.657L208.897 82.5386L208.01 83ZM192.698 83L191.782 83.4023L192.045 84H192.698V83ZM187.014 70.066L187.929 69.6637L187.666 69.066H187.014V70.066ZM183.998 70.066V69.066H182.998V70.066H183.998ZM183.998 83V84H184.998V83H183.998ZM170.078 83H169.078V84H170.078V83ZM170.078 39.5V38.5H169.078V39.5H170.078ZM183.998 50.636V49.636H182.998V50.636H183.998ZM183.998 59.336H182.998V60.336H183.998V59.336ZM190.842 58.814L190.431 57.9021L190.422 57.9061L190.414 57.9103L190.842 58.814ZM190.842 51.158L190.414 52.0617L190.422 52.0659L190.431 52.0699L190.842 51.158ZM199.582 68.9614L207.122 83.4614L208.897 82.5386L201.357 68.0386L199.582 68.9614ZM208.01 82H192.698V84H208.01V82ZM193.613 82.5977L187.929 69.6637L186.098 70.4683L191.782 83.4023L193.613 82.5977ZM187.014 69.066H183.998V71.066H187.014V69.066ZM182.998 70.066V83H184.998V70.066H182.998ZM183.998 82H170.078V84H183.998V82ZM171.078 83V39.5H169.078V83H171.078ZM170.078 40.5H192.002V38.5H170.078V40.5ZM192.002 40.5C196.831 40.5 200.27 41.7293 202.511 44.0138C204.755 46.3018 205.966 49.8187 205.966 54.754H207.966C207.966 49.52 206.682 45.4098 203.939 42.6132C201.192 39.813 197.149 38.5 192.002 38.5V40.5ZM205.966 54.754C205.966 61.5222 203.874 65.6455 200.016 67.6088L200.923 69.3912C205.727 66.9465 207.966 61.9058 207.966 54.754H205.966ZM187.188 49.636H183.998V51.636H187.188V49.636ZM182.998 50.636V59.336H184.998V50.636H182.998ZM183.998 60.336H187.188V58.336H183.998V60.336ZM187.188 60.336C188.91 60.336 190.321 60.1673 191.27 59.7177L190.414 57.9103C189.893 58.1567 188.868 58.336 187.188 58.336V60.336ZM191.252 59.7259C192.542 59.1456 193.002 57.8589 193.002 56.436H191.002C191.002 57.4878 190.688 57.7864 190.431 57.9021L191.252 59.7259ZM193.002 56.436V53.536H191.002V56.436H193.002ZM193.002 53.536C193.002 52.1131 192.542 50.8264 191.252 50.2461L190.431 52.0699C190.688 52.1856 191.002 52.4842 191.002 53.536H193.002ZM191.27 50.2543C190.321 49.8047 188.91 49.636 187.188 49.636V51.636C188.868 51.636 189.893 51.8153 190.414 52.0617L191.27 50.2543ZM243.87 39.5H244.87V38.5H243.87V39.5ZM243.87 50.636V51.636H244.87V50.636H243.87ZM233.778 50.636V49.636H232.778V50.636H233.778ZM233.778 83V84H234.778V83H233.778ZM219.858 83H218.858V84H219.858V83ZM219.858 50.636H220.858V49.636H219.858V50.636ZM209.766 50.636H208.766V51.636H209.766V50.636ZM209.766 39.5V38.5H208.766V39.5H209.766ZM242.87 39.5V50.636H244.87V39.5H242.87ZM243.87 49.636H233.778V51.636H243.87V49.636ZM232.778 50.636V83H234.778V50.636H232.778ZM233.778 82H219.858V84H233.778V82ZM220.858 83V50.636H218.858V83H220.858ZM219.858 49.636H209.766V51.636H219.858V49.636ZM210.766 50.636V39.5H208.766V50.636H210.766ZM209.766 40.5H243.87V38.5H209.766V40.5ZM245.935 82.246L244.95 82.0768L244.789 83.0141L245.717 83.2218L245.935 82.246ZM247.907 70.762L248.146 69.7908L247.103 69.535L246.922 70.5928L247.907 70.762ZM264.031 72.27L264.061 73.2696L264.075 73.2692L264.088 73.2684L264.031 72.27ZM267.627 71.922L267.774 72.9112L268.627 72.7848V71.922H267.627ZM267.627 68.442H268.627V67.5219L267.71 67.4455L267.627 68.442ZM261.363 67.92L261.268 68.9155L261.28 68.9165L261.363 67.92ZM254.287 66.528L253.96 67.4728L253.96 67.4728L254.287 66.528ZM249.705 63.86L248.986 64.555L248.998 64.5672L249.01 64.579L249.705 63.86ZM247.269 59.742L246.308 60.0167L246.312 60.0305L246.316 60.0442L247.269 59.742ZM247.501 46.634L248.455 46.9333L248.457 46.9281L247.501 46.634ZM250.459 41.82L251.122 42.5686L251.128 42.5634L251.134 42.558L250.459 41.82ZM255.679 39.21L255.453 38.2359L255.449 38.2368L255.679 39.21ZM280.271 40.196L281.259 40.3504L281.403 39.4324L280.498 39.222L280.271 40.196ZM278.531 51.332L278.373 52.3193L279.364 52.4787L279.519 51.4864L278.531 51.332ZM261.537 50.636L261.411 49.644L260.537 49.7555V50.636H261.537ZM261.537 54.058H260.537V54.9693L261.445 55.0537L261.537 54.058ZM266.525 54.522L266.626 53.5271L266.618 53.5263L266.525 54.522ZM274.181 56.088L273.844 57.0293L273.852 57.0322L273.86 57.0349L274.181 56.088ZM279.111 58.872L278.427 59.6015L278.433 59.6068L278.439 59.6119L279.111 58.872ZM281.779 62.99L280.826 63.2922L280.829 63.3027L280.833 63.3131L281.779 62.99ZM281.431 75.866L280.498 75.507L280.498 75.507L281.431 75.866ZM278.647 80.448L279.339 81.1706L279.341 81.1678L278.647 80.448ZM275.341 82.478L275.674 83.421L275.686 83.4167L275.698 83.4121L275.341 82.478ZM271.165 83.522L271.321 84.5098L271.321 84.5098L271.165 83.522ZM266.699 83.928L266.674 82.9283L266.66 82.9287L266.647 82.9294L266.699 83.928ZM253.997 83.58L254.108 82.5861L254.108 82.5861L253.997 83.58ZM246.921 82.4152L248.893 70.9312L246.922 70.5928L244.95 82.0768L246.921 82.4152ZM247.669 71.7332C251.98 72.7914 255.909 73.328 259.449 73.328V71.328C256.107 71.328 252.341 70.8206 248.146 69.7908L247.669 71.7332ZM259.449 73.328C261.196 73.328 262.734 73.3086 264.061 73.2696L264.002 71.2704C262.7 71.3087 261.182 71.328 259.449 71.328V73.328ZM264.088 73.2684C265.464 73.1898 266.693 73.0713 267.774 72.9112L267.481 70.9328C266.473 71.082 265.306 71.1956 263.974 71.2716L264.088 73.2684ZM268.627 71.922V68.442H266.627V71.922H268.627ZM267.71 67.4455L261.446 66.9235L261.28 68.9165L267.544 69.4385L267.71 67.4455ZM261.459 66.9246C258.685 66.6586 256.411 66.2062 254.615 65.5832L253.96 67.4728C255.953 68.1644 258.396 68.64 261.268 68.9154L261.459 66.9246ZM254.615 65.5832C252.825 64.9623 251.434 64.1398 250.4 63.141L249.01 64.579C250.297 65.8228 251.96 66.779 253.96 67.4728L254.615 65.5832ZM250.424 63.165C249.414 62.1195 248.68 60.8825 248.223 59.4398L246.316 60.0442C246.864 61.7721 247.754 63.2805 248.986 64.555L250.424 63.165ZM248.231 59.4673C247.798 57.9536 247.573 56.1552 247.573 54.058H245.573C245.573 56.2915 245.812 58.2824 246.308 60.0167L248.231 59.4673ZM247.573 54.058C247.573 51.1415 247.877 48.7761 248.455 46.9333L246.547 46.3347C245.888 48.4359 245.573 51.0198 245.573 54.058H247.573ZM248.457 46.9281C249.031 45.0638 249.928 43.6267 251.122 42.5686L249.796 41.0714C248.284 42.4106 247.209 44.1829 246.546 46.3399L248.457 46.9281ZM251.134 42.558C252.34 41.4559 253.917 40.6542 255.909 40.1832L255.449 38.2368C253.189 38.7712 251.286 39.7094 249.785 41.082L251.134 42.558ZM255.905 40.1841C257.974 39.7039 260.523 39.456 263.567 39.456V37.456C260.425 37.456 257.715 37.7108 255.453 38.2359L255.905 40.1841ZM263.567 39.456C269.654 39.456 275.144 40.0303 280.045 41.17L280.498 39.222C275.423 38.0417 269.777 37.456 263.567 37.456V39.456ZM279.283 40.0416L277.543 51.1776L279.519 51.4864L281.259 40.3504L279.283 40.0416ZM278.69 50.3447C274.337 49.6452 270.817 49.288 268.149 49.288V51.288C270.663 51.288 274.064 51.6268 278.373 52.3193L278.69 50.3447ZM268.149 49.288C265.532 49.288 263.283 49.405 261.411 49.644L261.664 51.6279C263.426 51.403 265.585 51.288 268.149 51.288V49.288ZM260.537 50.636V54.058H262.537V50.636H260.537ZM261.445 55.0537L266.433 55.5177L266.618 53.5263L261.63 53.0623L261.445 55.0537ZM266.425 55.5169C269.429 55.8211 271.895 56.3307 273.844 57.0293L274.519 55.1467C272.369 54.376 269.731 53.8415 266.626 53.5271L266.425 55.5169ZM273.86 57.0349C275.81 57.6973 277.318 58.5619 278.427 59.6015L279.795 58.1425C278.429 56.8621 276.651 55.8707 274.503 55.1411L273.86 57.0349ZM278.439 59.6119C279.589 60.6579 280.379 61.8814 280.826 63.2922L282.733 62.6878C282.175 60.928 281.185 59.4061 279.784 58.1321L278.439 59.6119ZM280.833 63.3131C281.332 64.7742 281.591 66.4789 281.591 68.442H283.591C283.591 66.3064 283.309 64.3765 282.726 62.6669L280.833 63.3131ZM281.591 68.442C281.591 71.2997 281.214 73.6443 280.498 75.507L282.365 76.225C283.195 74.0664 283.591 71.4617 283.591 68.442H281.591ZM280.498 75.507C279.756 77.436 278.895 78.8195 277.953 79.7282L279.341 81.1678C280.565 79.9885 281.56 78.3173 282.365 76.225L280.498 75.507ZM277.956 79.7254C277.176 80.4717 276.192 81.082 274.984 81.5439L275.698 83.4121C277.12 82.8686 278.34 82.1256 279.339 81.1706L277.956 79.7254ZM275.008 81.535C273.755 81.9774 272.422 82.3111 271.009 82.5342L271.321 84.5098C272.847 84.2689 274.298 83.9066 275.674 83.421L275.008 81.535ZM271.009 82.5342C269.584 82.7593 268.139 82.8908 266.674 82.9283L266.725 84.9277C268.276 84.8879 269.808 84.7487 271.321 84.5098L271.009 82.5342ZM266.647 82.9294C265.191 83.006 263.875 83.044 262.697 83.044V85.044C263.917 85.044 265.269 85.0047 266.752 84.9266L266.647 82.9294ZM262.697 83.044C259.715 83.044 256.852 82.8911 254.108 82.5861L253.887 84.5739C256.71 84.8876 259.647 85.044 262.697 85.044V83.044ZM254.108 82.5861C251.358 82.2806 248.707 81.8418 246.154 81.2702L245.717 83.2218C248.345 83.8102 251.069 84.2607 253.887 84.5739L254.108 82.5861Z" fill="#CEB7FF"/>
</g>
<g filter="url(#filter2_d_357_18)">
<path d="M6.25 103.172H280.25V118.172H6.25V103.172Z" stroke="#CEB7FF" shape-rendering="crispEdges"/>
</g>
<g filter="url(#filter3_d_357_18)">
<path d="M6.25 103.172H280.25V118.172H6.25V103.172Z" stroke="#CEB7FF" shape-rendering="crispEdges"/>
</g>
<g filter="url(#filter4_d_357_18)">
<path d="M6.75 4.82812H280.75V19.8281H6.75V4.82812Z" stroke="#CEB7FF" shape-rendering="crispEdges"/>
</g>
<g filter="url(#filter5_d_357_18)">
<path d="M6.75 4.82812H280.75V19.8281H6.75V4.82812Z" stroke="#CEB7FF" shape-rendering="crispEdges"/>
</g>
<defs>
<filter id="filter0_d_357_18" x="0.47998" y="33.456" width="287.111" height="55.588" filterUnits="userSpaceOnUse" color-interpolation-filters="sRGB">
<feFlood flood-opacity="0" result="BackgroundImageFix"/>
<feColorMatrix in="SourceAlpha" type="matrix" values="0 0 0 0 0 0 0 0 0 0 0 0 0 0 0 0 0 0 127 0" result="hardAlpha"/>
<feOffset/>
<feGaussianBlur stdDeviation="2.5"/>
<feComposite in2="hardAlpha" operator="out"/>
<feColorMatrix type="matrix" values="0 0 0 0 0.701961 0 0 0 0 0.466667 0 0 0 0 1 0 0 0 1 0"/>
<feBlend mode="normal" in2="BackgroundImageFix" result="effect1_dropShadow_357_18"/>
<feBlend mode="normal" in="SourceGraphic" in2="effect1_dropShadow_357_18" result="shape"/>
</filter>
<filter id="filter1_d_357_18" x="0.47998" y="33.456" width="287.111" height="55.588" filterUnits="userSpaceOnUse" color-interpolation-filters="sRGB">
<feFlood flood-opacity="0" result="BackgroundImageFix"/>
<feColorMatrix in="SourceAlpha" type="matrix" values="0 0 0 0 0 0 0 0 0 0 0 0 0 0 0 0 0 0 127 0" result="hardAlpha"/>
<feOffset/>
<feGaussianBlur stdDeviation="2.5"/>
<feComposite in2="hardAlpha" operator="out"/>
<feColorMatrix type="matrix" values="0 0 0 0 0.701961 0 0 0 0 0.466667 0 0 0 0 1 0 0 0 1 0"/>
<feBlend mode="normal" in2="BackgroundImageFix" result="effect1_dropShadow_357_18"/>
<feBlend mode="normal" in="SourceGraphic" in2="effect1_dropShadow_357_18" result="shape"/>
</filter>
<filter id="filter2_d_357_18" x="1.75" y="98.6724" width="283" height="24" filterUnits="userSpaceOnUse" color-interpolation-filters="sRGB">
<feFlood flood-opacity="0" result="BackgroundImageFix"/>
<feColorMatrix in="SourceAlpha" type="matrix" values="0 0 0 0 0 0 0 0 0 0 0 0 0 0 0 0 0 0 127 0" result="hardAlpha"/>
<feOffset/>
<feGaussianBlur stdDeviation="2"/>
<feComposite in2="hardAlpha" operator="out"/>
<feColorMatrix type="matrix" values="0 0 0 0 0.807843 0 0 0 0 0.717647 0 0 0 0 1 0 0 0 1 0"/>
<feBlend mode="normal" in2="BackgroundImageFix" result="effect1_dropShadow_357_18"/>
<feBlend mode="normal" in="SourceGraphic" in2="effect1_dropShadow_357_18" result="shape"/>
</filter>
<filter id="filter3_d_357_18" x="1.75" y="98.6724" width="283" height="24" filterUnits="userSpaceOnUse" color-interpolation-filters="sRGB">
<feFlood flood-opacity="0" result="BackgroundImageFix"/>
<feColorMatrix in="SourceAlpha" type="matrix" values="0 0 0 0 0 0 0 0 0 0 0 0 0 0 0 0 0 0 127 0" result="hardAlpha"/>
<feOffset/>
<feGaussianBlur stdDeviation="2"/>
<feComposite in2="hardAlpha" operator="out"/>
<feColorMatrix type="matrix" values="0 0 0 0 0.807843 0 0 0 0 0.717647 0 0 0 0 1 0 0 0 1 0"/>
<feBlend mode="normal" in2="BackgroundImageFix" result="effect1_dropShadow_357_18"/>
<feBlend mode="normal" in="SourceGraphic" in2="effect1_dropShadow_357_18" result="shape"/>
</filter>
<filter id="filter4_d_357_18" x="2.25" y="0.328125" width="283" height="24" filterUnits="userSpaceOnUse" color-interpolation-filters="sRGB">
<feFlood flood-opacity="0" result="BackgroundImageFix"/>
<feColorMatrix in="SourceAlpha" type="matrix" values="0 0 0 0 0 0 0 0 0 0 0 0 0 0 0 0 0 0 127 0" result="hardAlpha"/>
<feOffset/>
<feGaussianBlur stdDeviation="2"/>
<feComposite in2="hardAlpha" operator="out"/>
<feColorMatrix type="matrix" values="0 0 0 0 0.807843 0 0 0 0 0.717647 0 0 0 0 1 0 0 0 1 0"/>
<feBlend mode="normal" in2="BackgroundImageFix" result="effect1_dropShadow_357_18"/>
<feBlend mode="normal" in="SourceGraphic" in2="effect1_dropShadow_357_18" result="shape"/>
</filter>
<filter id="filter5_d_357_18" x="2.25" y="0.328125" width="283" height="24" filterUnits="userSpaceOnUse" color-interpolation-filters="sRGB">
<feFlood flood-opacity="0" result="BackgroundImageFix"/>
<feColorMatrix in="SourceAlpha" type="matrix" values="0 0 0 0 0 0 0 0 0 0 0 0 0 0 0 0 0 0 127 0" result="hardAlpha"/>
<feOffset/>
<feGaussianBlur stdDeviation="2"/>
<feComposite in2="hardAlpha" operator="out"/>
<feColorMatrix type="matrix" values="0 0 0 0 0.807843 0 0 0 0 0.717647 0 0 0 0 1 0 0 0 1 0"/>
<feBlend mode="normal" in2="BackgroundImageFix" result="effect1_dropShadow_357_18"/>
<feBlend mode="normal" in="SourceGraphic" in2="effect1_dropShadow_357_18" result="shape"/>
</filter>
</defs>
</svg>
