<svg width="421" height="100" viewBox="0 0 421 100" fill="none" xmlns="http://www.w3.org/2000/svg">
<g filter="url(#filter0_d_9_6563)">
<path d="M52.7075 55.7685L53.7035 55.6797L53.5887 54.3908L52.3704 54.827L52.7075 55.7685ZM53.4095 63.6465L53.7829 64.5741L54.4714 64.2969L54.4055 63.5577L53.4095 63.6465ZM39.0965 63.9585L38.7721 64.9045L38.7843 64.9085L39.0965 63.9585ZM34.7675 61.1505L35.5278 60.501L35.5278 60.501L34.7675 61.1505ZM32.5055 56.3925L31.528 56.6038L31.5308 56.6164L32.5055 56.3925ZM32.4665 42.8985L31.489 42.6871L31.4869 42.6972L32.4665 42.8985ZM34.6505 38.1015L35.4252 38.7339L35.4313 38.7262L34.6505 38.1015ZM38.8625 35.1765L38.5218 34.2363L38.5174 34.2379L38.8625 35.1765ZM47.6375 34.3185L47.5309 35.3128L47.5498 35.3148L47.5687 35.3161L47.6375 34.3185ZM49.8215 34.5525L49.6749 35.5417L49.68 35.5424L49.8215 34.5525ZM51.8495 34.9425L51.6069 35.9126L51.63 35.9184L51.6533 35.9231L51.8495 34.9425ZM53.4095 35.4105L54.3908 35.6025L54.541 34.835L53.8323 34.5043L53.4095 35.4105ZM52.0055 42.5865L51.7976 43.5646L52.7917 43.7759L52.9868 42.7785L52.0055 42.5865ZM41.9435 56.5095H40.9435V57.3154L41.731 57.4866L41.9435 56.5095ZM43.7375 56.8215L43.6081 57.8131L43.6312 57.8161L43.6544 57.818L43.7375 56.8215ZM51.7114 55.8572L52.4134 63.7352L54.4055 63.5577L53.7035 55.6797L51.7114 55.8572ZM53.036 62.7188C51.1872 63.4632 48.8528 63.8555 45.9995 63.8555V65.8555C49.0221 65.8555 51.6277 65.4418 53.7829 64.5741L53.036 62.7188ZM45.9995 63.8555C43.28 63.8555 41.0935 63.562 39.4086 63.0084L38.7843 64.9085C40.7394 65.5509 43.1549 65.8555 45.9995 65.8555V63.8555ZM39.4208 63.0125C37.7406 62.4365 36.4589 61.5911 35.5278 60.501L34.0071 61.8C35.208 63.2059 36.8123 64.2325 38.7721 64.9044L39.4208 63.0125ZM35.5278 60.501C34.5857 59.398 33.8932 57.9671 33.4801 56.1686L31.5308 56.6164C32.0017 58.6658 32.8172 60.4069 34.0071 61.8L35.5278 60.501ZM33.4829 56.1811C33.0859 54.3452 32.8815 52.1444 32.8815 49.5675H30.8815C30.8815 52.2425 31.093 54.5918 31.528 56.6038L33.4829 56.1811ZM32.8815 49.5675C32.8815 47.0673 33.0731 44.9146 33.446 43.0997L31.4869 42.6972C31.0798 44.6783 30.8815 46.9717 30.8815 49.5675H32.8815ZM33.4439 43.1098C33.833 41.31 34.5028 39.8636 35.4251 38.7338L33.8758 37.4691C32.7181 38.8873 31.9319 40.6389 31.489 42.6871L33.4439 43.1098ZM35.4313 38.7262C36.343 37.5866 37.5877 36.7106 39.2075 36.1151L38.5174 34.2379C36.6012 34.9424 35.0379 36.0164 33.8696 37.4768L35.4313 38.7262ZM39.2031 36.1167C40.8518 35.5193 42.9888 35.2015 45.6485 35.2015V33.2015C42.8481 33.2015 40.4611 33.5336 38.5218 34.2363L39.2031 36.1167ZM45.6485 35.2015C46.204 35.2015 46.8308 35.2378 47.5309 35.3128L47.744 33.3242C46.9881 33.2432 46.2889 33.2015 45.6485 33.2015V35.2015ZM47.5687 35.3161C48.2983 35.3664 49.0003 35.4417 49.6749 35.5417L49.968 33.5633C49.2386 33.4552 48.4846 33.3745 47.7063 33.3208L47.5687 35.3161ZM49.68 35.5424C50.3787 35.6422 51.0206 35.766 51.6069 35.9126L52.092 33.9723C51.4303 33.8069 50.7202 33.6707 49.9629 33.5625L49.68 35.5424ZM51.6533 35.9231C52.2623 36.0448 52.6967 36.1814 52.9866 36.3167L53.8323 34.5043C53.3422 34.2756 52.7366 34.1001 52.0456 33.9619L51.6533 35.9231ZM52.4281 35.2185L51.0241 42.3945L52.9868 42.7785L54.3908 35.6025L52.4281 35.2185ZM52.2133 41.6083C50.084 41.1558 48.1534 40.9235 46.4285 40.9235V42.9235C47.9795 42.9235 49.7669 43.1331 51.7976 43.5646L52.2133 41.6083ZM46.4285 40.9235C44.7382 40.9235 43.3605 41.07 42.4857 41.4899L43.3512 43.293C43.7764 43.0889 44.7387 42.9235 46.4285 42.9235V40.9235ZM42.4857 41.4899C41.3809 42.0203 40.9435 43.0794 40.9435 44.2635H42.9435C42.9435 43.5756 43.156 43.3867 43.3512 43.293L42.4857 41.4899ZM40.9435 44.2635V56.5095H42.9435V44.2635H40.9435ZM41.731 57.4866C42.3561 57.6225 42.9818 57.7314 43.6081 57.8131L43.8668 55.8299C43.2971 55.7556 42.7268 55.6564 42.1559 55.5323L41.731 57.4866ZM43.6544 57.818C44.3071 57.8724 44.9718 57.8995 45.6485 57.8995V55.8995C45.0251 55.8995 44.4159 55.8745 43.8205 55.8249L43.6544 57.818ZM45.6485 57.8995C48.345 57.8995 50.8144 57.5084 53.0445 56.71L52.3704 54.827C50.3885 55.5365 48.1519 55.8995 45.6485 55.8995V57.8995ZM82.4102 64.1535V65.1535H83.4102V64.1535H82.4102ZM73.0502 64.1535H72.0502V65.1535H73.0502V64.1535ZM73.0502 53.8185H74.0502V52.8185H73.0502V53.8185ZM66.0302 53.8185V52.8185H65.0302V53.8185H66.0302ZM66.0302 64.1535V65.1535H67.0302V64.1535H66.0302ZM56.6702 64.1535H55.6702V65.1535H56.6702V64.1535ZM56.6702 34.9035V33.9035H55.6702V34.9035H56.6702ZM66.0302 34.9035H67.0302V33.9035H66.0302V34.9035ZM66.0302 45.2385H65.0302V46.2385H66.0302V45.2385ZM73.0502 45.2385V46.2385H74.0502V45.2385H73.0502ZM73.0502 34.9035V33.9035H72.0502V34.9035H73.0502ZM82.4102 34.9035H83.4102V33.9035H82.4102V34.9035ZM82.4102 63.1535H73.0502V65.1535H82.4102V63.1535ZM74.0502 64.1535V53.8185H72.0502V64.1535H74.0502ZM73.0502 52.8185H66.0302V54.8185H73.0502V52.8185ZM65.0302 53.8185V64.1535H67.0302V53.8185H65.0302ZM66.0302 63.1535H56.6702V65.1535H66.0302V63.1535ZM57.6702 64.1535V34.9035H55.6702V64.1535H57.6702ZM56.6702 35.9035H66.0302V33.9035H56.6702V35.9035ZM65.0302 34.9035V45.2385H67.0302V34.9035H65.0302ZM66.0302 46.2385H73.0502V44.2385H66.0302V46.2385ZM74.0502 45.2385V34.9035H72.0502V45.2385H74.0502ZM73.0502 35.9035H82.4102V33.9035H73.0502V35.9035ZM81.4102 34.9035V64.1535H83.4102V34.9035H81.4102ZM105.821 46.3305H106.821V45.3305H105.821V46.3305ZM105.821 53.1165V54.1165H106.821V53.1165H105.821ZM96.4609 53.1165V52.1165H95.4609V53.1165H96.4609ZM96.4609 56.6655H95.4609V57.6655H96.4609V56.6655ZM107.927 56.6655H108.927V55.6655H107.927V56.6655ZM107.927 64.1535V65.1535H108.927V64.1535H107.927ZM87.1009 64.1535H86.1009V65.1535H87.1009V64.1535ZM87.1009 34.9035V33.9035H86.1009V34.9035H87.1009ZM107.693 34.9035L108.681 35.0578L108.861 33.9035H107.693V34.9035ZM106.523 42.3915V43.3915H107.379L107.511 42.5458L106.523 42.3915ZM96.4609 42.3915V41.3915H95.4609V42.3915H96.4609ZM96.4609 46.3305H95.4609V47.3305H96.4609V46.3305ZM104.821 46.3305V53.1165H106.821V46.3305H104.821ZM105.821 52.1165H96.4609V54.1165H105.821V52.1165ZM95.4609 53.1165V56.6655H97.4609V53.1165H95.4609ZM96.4609 57.6655H107.927V55.6655H96.4609V57.6655ZM106.927 56.6655V64.1535H108.927V56.6655H106.927ZM107.927 63.1535H87.1009V65.1535H107.927V63.1535ZM88.1009 64.1535V34.9035H86.1009V64.1535H88.1009ZM87.1009 35.9035H107.693V33.9035H87.1009V35.9035ZM106.705 34.7491L105.535 42.2371L107.511 42.5458L108.681 35.0578L106.705 34.7491ZM106.523 41.3915H96.4609V43.3915H106.523V41.3915ZM95.4609 42.3915V46.3305H97.4609V42.3915H95.4609ZM96.4609 47.3305H105.821V45.3305H96.4609V47.3305ZM131.317 55.7685L132.313 55.6797L132.198 54.3908L130.98 54.827L131.317 55.7685ZM132.019 63.6465L132.392 64.5741L133.081 64.2969L133.015 63.5577L132.019 63.6465ZM117.706 63.9585L117.381 64.9045L117.394 64.9085L117.706 63.9585ZM113.377 61.1505L114.137 60.501L114.137 60.501L113.377 61.1505ZM111.115 56.3925L110.137 56.6038L110.14 56.6164L111.115 56.3925ZM111.076 42.8985L110.098 42.6871L110.096 42.6972L111.076 42.8985ZM113.26 38.1015L114.035 38.7339L114.041 38.7262L113.26 38.1015ZM117.472 35.1765L117.131 34.2363L117.127 34.2379L117.472 35.1765ZM126.247 34.3185L126.14 35.3128L126.159 35.3148L126.178 35.3161L126.247 34.3185ZM128.431 34.5525L128.284 35.5417L128.289 35.5424L128.431 34.5525ZM130.459 34.9425L130.216 35.9126L130.239 35.9184L130.263 35.9231L130.459 34.9425ZM132.019 35.4105L133 35.6025L133.15 34.835L132.442 34.5043L132.019 35.4105ZM130.615 42.5865L130.407 43.5646L131.401 43.7759L131.596 42.7785L130.615 42.5865ZM120.553 56.5095H119.553V57.3154L120.34 57.4866L120.553 56.5095ZM122.347 56.8215L122.217 57.8131L122.241 57.8161L122.264 57.818L122.347 56.8215ZM130.321 55.8572L131.023 63.7352L133.015 63.5577L132.313 55.6797L130.321 55.8572ZM131.645 62.7188C129.797 63.4632 127.462 63.8555 124.609 63.8555V65.8555C127.631 65.8555 130.237 65.4418 132.392 64.5741L131.645 62.7188ZM124.609 63.8555C121.889 63.8555 119.703 63.562 118.018 63.0084L117.394 64.9085C119.349 65.5509 121.764 65.8555 124.609 65.8555V63.8555ZM118.03 63.0125C116.35 62.4365 115.068 61.5911 114.137 60.501L112.616 61.8C113.817 63.2059 115.422 64.2325 117.382 64.9044L118.03 63.0125ZM114.137 60.501C113.195 59.398 112.503 57.9671 112.089 56.1686L110.14 56.6164C110.611 58.6658 111.427 60.4069 112.616 61.8L114.137 60.501ZM112.092 56.1811C111.695 54.3452 111.491 52.1444 111.491 49.5675H109.491C109.491 52.2425 109.702 54.5918 110.137 56.6038L112.092 56.1811ZM111.491 49.5675C111.491 47.0673 111.682 44.9146 112.055 43.0997L110.096 42.6972C109.689 44.6783 109.491 46.9717 109.491 49.5675H111.491ZM112.053 43.1098C112.442 41.31 113.112 39.8636 114.034 38.7338L112.485 37.4691C111.327 38.8873 110.541 40.6389 110.098 42.6871L112.053 43.1098ZM114.041 38.7262C114.952 37.5866 116.197 36.7106 117.817 36.1151L117.127 34.2379C115.211 34.9424 113.647 36.0164 112.479 37.4768L114.041 38.7262ZM117.812 36.1167C119.461 35.5193 121.598 35.2015 124.258 35.2015V33.2015C121.457 33.2015 119.07 33.5336 117.131 34.2363L117.812 36.1167ZM124.258 35.2015C124.813 35.2015 125.44 35.2378 126.14 35.3128L126.353 33.3242C125.597 33.2432 124.898 33.2015 124.258 33.2015V35.2015ZM126.178 35.3161C126.908 35.3664 127.61 35.4417 128.284 35.5417L128.577 33.5633C127.848 33.4552 127.094 33.3745 126.316 33.3208L126.178 35.3161ZM128.289 35.5424C128.988 35.6422 129.63 35.766 130.216 35.9126L130.701 33.9723C130.04 33.8069 129.33 33.6707 128.572 33.5625L128.289 35.5424ZM130.263 35.9231C130.872 36.0448 131.306 36.1814 131.596 36.3167L132.442 34.5043C131.952 34.2756 131.346 34.1001 130.655 33.9619L130.263 35.9231ZM131.037 35.2185L129.633 42.3945L131.596 42.7785L133 35.6025L131.037 35.2185ZM130.823 41.6083C128.693 41.1558 126.763 40.9235 125.038 40.9235V42.9235C126.589 42.9235 128.376 43.1331 130.407 43.5646L130.823 41.6083ZM125.038 40.9235C123.348 40.9235 121.97 41.07 121.095 41.4899L121.961 43.293C122.386 43.0889 123.348 42.9235 125.038 42.9235V40.9235ZM121.095 41.4899C119.99 42.0203 119.553 43.0794 119.553 44.2635H121.553C121.553 43.5756 121.765 43.3867 121.961 43.293L121.095 41.4899ZM119.553 44.2635V56.5095H121.553V44.2635H119.553ZM120.34 57.4866C120.965 57.6225 121.591 57.7314 122.217 57.8131L122.476 55.8299C121.906 55.7556 121.336 55.6564 120.765 55.5323L120.34 57.4866ZM122.264 57.818C122.916 57.8724 123.581 57.8995 124.258 57.8995V55.8995C123.635 55.8995 123.025 55.8745 122.43 55.8249L122.264 57.818ZM124.258 57.8995C126.954 57.8995 129.424 57.5084 131.654 56.71L130.98 54.827C128.998 55.5365 126.761 55.8995 124.258 55.8995V57.8995ZM144.835 51.4395L145.833 51.384L145.781 50.4395H144.835V51.4395ZM144.64 51.4395V50.4395H143.64V51.4395H144.64ZM144.64 64.1535V65.1535H145.64V64.1535H144.64ZM135.28 64.1535H134.28V65.1535H135.28V64.1535ZM135.28 34.9035V33.9035H134.28V34.9035H135.28ZM144.64 34.9035H145.64V33.9035H144.64V34.9035ZM144.64 46.8375H143.64V47.8375H144.64V46.8375ZM144.835 46.8375V47.8375H145.781L145.833 46.8929L144.835 46.8375ZM144.991 45.5895L145.968 45.799L145.971 45.7856L144.991 45.5895ZM145.303 44.5755L144.398 44.1488L144.395 44.1552L144.392 44.1617L145.303 44.5755ZM149.866 34.9035V33.9035H149.232L148.961 34.4768L149.866 34.9035ZM160.006 34.9035L160.904 35.3429L161.608 33.9035H160.006V34.9035ZM152.986 49.2555L152.087 48.8161L151.873 49.2545L152.087 49.6932L152.986 49.2555ZM160.24 64.1535V65.1535H161.839L161.139 63.7157L160.24 64.1535ZM150.1 64.1535L149.19 64.5693L149.457 65.1535H150.1V64.1535ZM145.303 53.6625L144.392 54.0763L144.393 54.0783L145.303 53.6625ZM144.991 52.6875L144.013 52.897L144.013 52.897L144.991 52.6875ZM144.835 50.4395H144.64V52.4395H144.835V50.4395ZM143.64 51.4395V64.1535H145.64V51.4395H143.64ZM144.64 63.1535H135.28V65.1535H144.64V63.1535ZM136.28 64.1535V34.9035H134.28V64.1535H136.28ZM135.28 35.9035H144.64V33.9035H135.28V35.9035ZM143.64 34.9035V46.8375H145.64V34.9035H143.64ZM144.64 47.8375H144.835V45.8375H144.64V47.8375ZM145.833 46.8929C145.857 46.4641 145.904 46.1012 145.968 45.799L144.013 45.3799C143.922 45.8057 143.864 46.2748 143.836 46.782L145.833 46.8929ZM145.971 45.7856C146.038 45.4518 146.122 45.1901 146.213 44.9893L144.392 44.1617C144.224 44.5328 144.099 44.9472 144.01 45.3934L145.971 45.7856ZM146.207 45.0021L150.77 35.3301L148.961 34.4768L144.398 44.1488L146.207 45.0021ZM149.866 35.9035H160.006V33.9035H149.866V35.9035ZM159.107 34.4641L152.087 48.8161L153.884 49.6949L160.904 35.3429L159.107 34.4641ZM152.087 49.6932L159.341 64.5912L161.139 63.7157L153.885 48.8177L152.087 49.6932ZM160.24 63.1535H150.1V65.1535H160.24V63.1535ZM151.009 63.7376L146.212 53.2466L144.393 54.0783L149.19 64.5693L151.009 63.7376ZM146.213 53.2487C146.118 53.0388 146.034 52.7841 145.968 52.4779L144.013 52.897C144.103 53.3188 144.228 53.7141 144.392 54.0763L146.213 53.2487ZM145.968 52.4779C145.904 52.1757 145.857 51.8128 145.833 51.384L143.836 51.4949C143.864 52.0021 143.922 52.4712 144.013 52.897L145.968 52.4779ZM183.902 49.9575V48.9575H182.939L182.902 49.919L183.902 49.9575ZM183.356 64.1535V65.1535H184.318L184.355 64.1919L183.356 64.1535ZM173.567 64.1535L172.569 64.0923L172.503 65.1535H173.567V64.1535ZM175.361 34.9035V33.9035H174.42L174.363 34.8423L175.361 34.9035ZM187.568 34.9035L188.539 34.6669L188.353 33.9035H187.568V34.9035ZM191.195 49.8015L190.223 50.038L190.409 50.8015H191.195V49.8015ZM191.546 49.8015V50.8015H192.331L192.517 50.038L191.546 49.8015ZM195.173 34.9035V33.9035H194.387L194.201 34.6669L195.173 34.9035ZM207.419 34.9035L208.417 34.8436L208.36 33.9035H207.419V34.9035ZM209.174 64.1535V65.1535H210.235L210.172 64.0936L209.174 64.1535ZM199.385 64.1535L198.385 64.1919L198.422 65.1535H199.385V64.1535ZM198.839 49.9575L199.838 49.919L199.801 48.9575H198.839V49.9575ZM198.527 49.9575V48.9575H197.748L197.557 49.7124L198.527 49.9575ZM194.939 64.1535V65.1535H195.717L195.908 64.3985L194.939 64.1535ZM187.802 64.1535L186.833 64.401L187.025 65.1535H187.802V64.1535ZM184.175 49.9575L185.144 49.7099L184.951 48.9575H184.175V49.9575ZM182.902 49.919L182.356 64.115L184.355 64.1919L184.901 49.9959L182.902 49.919ZM183.356 63.1535H173.567V65.1535H183.356V63.1535ZM174.565 64.2147L176.359 34.9647L174.363 34.8423L172.569 64.0923L174.565 64.2147ZM175.361 35.9035H187.568V33.9035H175.361V35.9035ZM186.596 35.14L190.223 50.038L192.166 49.5649L188.539 34.6669L186.596 35.14ZM191.195 50.8015H191.546V48.8015H191.195V50.8015ZM192.517 50.038L196.144 35.14L194.201 34.6669L190.574 49.5649L192.517 50.038ZM195.173 35.9035H207.419V33.9035H195.173V35.9035ZM206.42 34.9634L208.175 64.2134L210.172 64.0936L208.417 34.8436L206.42 34.9634ZM209.174 63.1535H199.385V65.1535H209.174V63.1535ZM200.384 64.115L199.838 49.919L197.839 49.9959L198.385 64.1919L200.384 64.115ZM198.839 48.9575H198.527V50.9575H198.839V48.9575ZM197.557 49.7124L193.969 63.9084L195.908 64.3985L199.496 50.2025L197.557 49.7124ZM194.939 63.1535H187.802V65.1535H194.939V63.1535ZM188.771 63.9059L185.144 49.7099L183.206 50.205L186.833 64.401L188.771 63.9059ZM184.175 48.9575H183.902V50.9575H184.175V48.9575ZM210.33 34.9035V33.9035H208.859L209.4 35.2713L210.33 34.9035ZM220.665 34.9035L221.635 34.6609L221.446 33.9035H220.665V34.9035ZM223.239 45.1995L222.269 45.442L222.458 46.1995H223.239V45.1995ZM223.59 45.1995V46.1995H224.368L224.559 45.4455L223.59 45.1995ZM226.203 34.9035V33.9035H225.425L225.234 34.6575L226.203 34.9035ZM236.538 34.9035L237.468 35.2713L238.009 33.9035H236.538V34.9035ZM228.114 56.1975L227.184 55.8296L227.114 56.0069V56.1975H228.114ZM228.114 64.1535V65.1535H229.114V64.1535H228.114ZM218.754 64.1535H217.754V65.1535H218.754V64.1535ZM218.754 56.1975H219.754V56.0069L219.684 55.8296L218.754 56.1975ZM210.33 35.9035H220.665V33.9035H210.33V35.9035ZM219.695 35.146L222.269 45.442L224.209 44.9569L221.635 34.6609L219.695 35.146ZM223.239 46.1995H223.59V44.1995H223.239V46.1995ZM224.559 45.4455L227.172 35.1495L225.234 34.6575L222.621 44.9535L224.559 45.4455ZM226.203 35.9035H236.538V33.9035H226.203V35.9035ZM235.608 34.5356L227.184 55.8296L229.044 56.5653L237.468 35.2713L235.608 34.5356ZM227.114 56.1975V64.1535H229.114V56.1975H227.114ZM228.114 63.1535H218.754V65.1535H228.114V63.1535ZM219.754 64.1535V56.1975H217.754V64.1535H219.754ZM219.684 55.8296L211.26 34.5356L209.4 35.2713L217.824 56.5653L219.684 55.8296ZM249.396 63.6465L248.41 63.4772L248.249 64.4145L249.177 64.6223L249.396 63.6465ZM250.722 55.9245L250.96 54.9533L249.918 54.6975L249.736 55.7552L250.722 55.9245ZM261.564 56.9385L261.593 57.938L261.607 57.9376L261.621 57.9368L261.564 56.9385ZM263.982 56.7045L264.128 57.6937L264.982 57.5672V56.7045H263.982ZM263.982 54.3645H264.982V53.4443L264.065 53.3679L263.982 54.3645ZM259.77 54.0135L259.674 55.009L259.687 55.01L259.77 54.0135ZM255.012 53.0775L254.684 54.0222L254.684 54.0222L255.012 53.0775ZM251.931 51.2835L251.212 51.9785L251.224 51.9907L251.236 52.0025L251.931 51.2835ZM250.293 48.5145L249.331 48.7892L249.335 48.803L249.339 48.8167L250.293 48.5145ZM250.449 39.7005L251.403 39.9998L251.405 39.9946L250.449 39.7005ZM252.438 36.4635L253.101 37.2121L253.107 37.2068L253.112 37.2015L252.438 36.4635ZM255.948 34.7085L255.722 33.7344L255.718 33.7353L255.948 34.7085ZM272.484 35.3715L273.472 35.5258L273.615 34.6079L272.71 34.3975L272.484 35.3715ZM271.314 42.8595L271.155 43.8468L272.147 44.0062L272.302 43.0138L271.314 42.8595ZM259.887 42.3915L259.76 41.3995L258.887 41.511V42.3915H259.887ZM259.887 44.6925H258.887V45.6038L259.794 45.6882L259.887 44.6925ZM263.241 45.0045L263.341 44.0095L263.333 44.0088L263.241 45.0045ZM268.389 46.0575L268.051 46.9988L268.059 47.0016L268.067 47.0044L268.389 46.0575ZM271.704 47.9295L271.02 48.659L271.025 48.6643L271.031 48.6694L271.704 47.9295ZM273.498 50.6985L272.544 51.0007L272.548 51.0112L272.551 51.0216L273.498 50.6985ZM273.264 59.3565L272.33 58.9975L272.33 58.9975L273.264 59.3565ZM271.392 62.4375L272.083 63.1601L272.086 63.1573L271.392 62.4375ZM269.169 63.8025L269.502 64.7455L269.514 64.7412L269.526 64.7365L269.169 63.8025ZM266.361 64.5045L266.517 65.4922L266.517 65.4922L266.361 64.5045ZM263.358 64.7775L263.332 63.7778L263.319 63.7781L263.305 63.7789L263.358 64.7775ZM254.817 64.5435L254.927 63.5496L254.817 64.5435ZM250.381 63.8157L251.707 56.0937L249.736 55.7552L248.41 63.4772L250.381 63.8157ZM250.483 56.8956C253.401 57.6119 256.07 57.9775 258.483 57.9775V55.9775C256.267 55.9775 253.762 55.6411 250.96 54.9533L250.483 56.8956ZM258.483 57.9775C259.66 57.9775 260.697 57.9644 261.593 57.938L261.534 55.9389C260.663 55.9645 259.646 55.9775 258.483 55.9775V57.9775ZM261.621 57.9368C262.553 57.8836 263.39 57.8031 264.128 57.6937L263.835 55.7153C263.17 55.8138 262.395 55.8894 261.507 55.9401L261.621 57.9368ZM264.982 56.7045V54.3645H262.982V56.7045H264.982ZM264.065 53.3679L259.853 53.0169L259.687 55.01L263.899 55.361L264.065 53.3679ZM259.865 53.018C258.017 52.8408 256.515 52.5404 255.34 52.1327L254.684 54.0222C256.057 54.4986 257.727 54.8222 259.674 55.0089L259.865 53.018ZM255.34 52.1327C254.17 51.7271 253.279 51.196 252.626 50.5645L251.236 52.0025C252.142 52.879 253.305 53.5438 254.684 54.0222L255.34 52.1327ZM252.65 50.5885C252.006 49.923 251.539 49.1357 251.246 48.2122L249.339 48.8167C249.723 50.0253 250.347 51.0839 251.212 51.9785L252.65 50.5885ZM251.254 48.2398C250.974 47.2581 250.825 46.0803 250.825 44.6925H248.825C248.825 46.2166 248.988 47.5868 249.331 48.7892L251.254 48.2398ZM250.825 44.6925C250.825 42.7514 251.027 41.1966 251.403 39.9998L249.495 39.4011C249.038 40.8564 248.825 42.6296 248.825 44.6925H250.825ZM251.405 39.9946C251.775 38.7889 252.349 37.8776 253.101 37.2121L251.775 35.7149C250.706 36.6614 249.954 37.908 249.493 39.4064L251.405 39.9946ZM253.112 37.2015C253.875 36.5047 254.882 35.988 256.178 35.6817L255.718 33.7353C254.154 34.105 252.821 34.7582 251.763 35.7254L253.112 37.2015ZM256.174 35.6826C257.533 35.367 259.221 35.2015 261.252 35.2015V33.2015C259.123 33.2015 257.274 33.3739 255.722 33.7344L256.174 35.6826ZM261.252 35.2015C265.324 35.2015 268.991 35.5858 272.257 36.3455L272.71 34.3975C269.269 33.5972 265.447 33.2015 261.252 33.2015V35.2015ZM271.496 35.2171L270.326 42.7051L272.302 43.0138L273.472 35.5258L271.496 35.2171ZM271.472 41.8721C268.539 41.4006 266.152 41.1575 264.333 41.1575V43.1575C265.998 43.1575 268.265 43.3823 271.155 43.8468L271.472 41.8721ZM264.333 41.1575C262.564 41.1575 261.037 41.2365 259.76 41.3995L260.013 43.3834C261.18 43.2345 262.617 43.1575 264.333 43.1575V41.1575ZM258.887 42.3915V44.6925H260.887V42.3915H258.887ZM259.794 45.6882L263.148 46.0002L263.333 44.0088L259.979 43.6968L259.794 45.6882ZM263.14 45.9994C265.143 46.2023 266.774 46.5408 268.051 46.9988L268.726 45.1161C267.248 44.5861 265.446 44.2227 263.341 44.0096L263.14 45.9994ZM268.067 47.0044C269.346 47.4387 270.316 47.9994 271.02 48.659L272.388 47.1999C271.427 46.2995 270.187 45.6122 268.71 45.1106L268.067 47.0044ZM271.031 48.6694C271.764 49.3354 272.262 50.1092 272.544 51.0007L274.451 50.3962C274.058 49.1558 273.36 48.0836 272.376 47.1895L271.031 48.6694ZM272.551 51.0216C272.873 51.9633 273.044 53.0727 273.044 54.3645H275.044C275.044 52.9002 274.851 51.5656 274.444 50.3753L272.551 51.0216ZM273.044 54.3645C273.044 56.2595 272.793 57.7934 272.33 58.9975L274.197 59.7155C274.774 58.2155 275.044 56.4215 275.044 54.3645H273.044ZM272.33 58.9975C271.842 60.2678 271.285 61.151 270.698 61.7176L272.086 63.1573C272.954 62.3199 273.646 61.1491 274.197 59.7155L272.33 58.9975ZM270.701 61.7148C270.212 62.1825 269.589 62.5712 268.812 62.8684L269.526 64.7365C270.516 64.3578 271.376 63.8364 272.083 63.1601L270.701 61.7148ZM268.836 62.8595C268.013 63.1499 267.137 63.3696 266.205 63.5167L266.517 65.4922C267.561 65.3274 268.556 65.079 269.502 64.7455L268.836 62.8595ZM266.205 63.5167C265.261 63.6658 264.303 63.7529 263.332 63.7778L263.383 65.7771C264.44 65.75 265.485 65.6551 266.517 65.4922L266.205 63.5167ZM263.305 63.7789C262.331 63.8301 261.452 63.8555 260.667 63.8555V65.8555C261.494 65.8555 262.409 65.8288 263.41 65.7761L263.305 63.7789ZM260.667 63.8555C258.673 63.8555 256.76 63.7532 254.927 63.5496L254.706 65.5374C256.618 65.7497 258.605 65.8555 260.667 65.8555V63.8555ZM254.927 63.5496C253.089 63.3454 251.319 63.0522 249.614 62.6706L249.177 64.6223C250.957 65.0207 252.8 65.3255 254.706 65.5374L254.927 63.5496ZM287.124 51.4395L288.122 51.384L288.07 50.4395H287.124V51.4395ZM286.929 51.4395V50.4395H285.929V51.4395H286.929ZM286.929 64.1535V65.1535H287.929V64.1535H286.929ZM277.569 64.1535H276.569V65.1535H277.569V64.1535ZM277.569 34.9035V33.9035H276.569V34.9035H277.569ZM286.929 34.9035H287.929V33.9035H286.929V34.9035ZM286.929 46.8375H285.929V47.8375H286.929V46.8375ZM287.124 46.8375V47.8375H288.07L288.122 46.8929L287.124 46.8375ZM287.28 45.5895L288.258 45.799L288.26 45.7856L287.28 45.5895ZM287.592 44.5755L286.687 44.1488L286.684 44.1552L286.681 44.1617L287.592 44.5755ZM292.155 34.9035V33.9035H291.521L291.25 34.4768L292.155 34.9035ZM302.295 34.9035L303.193 35.3429L303.897 33.9035H302.295V34.9035ZM295.275 49.2555L294.376 48.8161L294.162 49.2545L294.376 49.6932L295.275 49.2555ZM302.529 64.1535V65.1535H304.128L303.428 63.7157L302.529 64.1535ZM292.389 64.1535L291.479 64.5693L291.746 65.1535H292.389V64.1535ZM287.592 53.6625L286.681 54.0763L286.682 54.0783L287.592 53.6625ZM287.28 52.6875L286.302 52.897L286.302 52.897L287.28 52.6875ZM287.124 50.4395H286.929V52.4395H287.124V50.4395ZM285.929 51.4395V64.1535H287.929V51.4395H285.929ZM286.929 63.1535H277.569V65.1535H286.929V63.1535ZM278.569 64.1535V34.9035H276.569V64.1535H278.569ZM277.569 35.9035H286.929V33.9035H277.569V35.9035ZM285.929 34.9035V46.8375H287.929V34.9035H285.929ZM286.929 47.8375H287.124V45.8375H286.929V47.8375ZM288.122 46.8929C288.146 46.4641 288.193 46.1012 288.257 45.799L286.302 45.3799C286.211 45.8057 286.153 46.2748 286.125 46.782L288.122 46.8929ZM288.26 45.7856C288.327 45.4518 288.411 45.1901 288.502 44.9893L286.681 44.1617C286.513 44.5328 286.388 44.9472 286.299 45.3934L288.26 45.7856ZM288.496 45.0021L293.059 35.3301L291.25 34.4768L286.687 44.1488L288.496 45.0021ZM292.155 35.9035H302.295V33.9035H292.155V35.9035ZM301.396 34.4641L294.376 48.8161L296.173 49.6949L303.193 35.3429L301.396 34.4641ZM294.376 49.6932L301.63 64.5912L303.428 63.7157L296.174 48.8177L294.376 49.6932ZM302.529 63.1535H292.389V65.1535H302.529V63.1535ZM293.298 63.7376L288.501 53.2466L286.682 54.0783L291.479 64.5693L293.298 63.7376ZM288.502 53.2487C288.407 53.0388 288.323 52.7841 288.257 52.4779L286.302 52.897C286.392 53.3188 286.517 53.7141 286.681 54.0763L288.502 53.2487ZM288.257 52.4779C288.193 52.1757 288.146 51.8128 288.122 51.384L286.125 51.4949C286.153 52.0021 286.211 52.4712 286.302 52.897L288.257 52.4779ZM314.693 64.1535V65.1535H315.693V64.1535H314.693ZM305.333 64.1535H304.333V65.1535H305.333V64.1535ZM305.333 34.9035V33.9035H304.333V34.9035H305.333ZM314.693 34.9035H315.693V33.9035H314.693V34.9035ZM314.693 63.1535H305.333V65.1535H314.693V63.1535ZM306.333 64.1535V34.9035H304.333V64.1535H306.333ZM305.333 35.9035H314.693V33.9035H305.333V35.9035ZM313.693 34.9035V64.1535H315.693V34.9035H313.693ZM338.107 56.6655H339.107V55.6655H338.107V56.6655ZM338.107 64.1535V65.1535H339.107V64.1535H338.107ZM319.387 64.1535H318.387V65.1535H319.387V64.1535ZM319.387 34.9035V33.9035H318.387V34.9035H319.387ZM328.747 34.9035H329.747V33.9035H328.747V34.9035ZM328.747 56.6655H327.747V57.6655H328.747V56.6655ZM337.107 56.6655V64.1535H339.107V56.6655H337.107ZM338.107 63.1535H319.387V65.1535H338.107V63.1535ZM320.387 64.1535V34.9035H318.387V64.1535H320.387ZM319.387 35.9035H328.747V33.9035H319.387V35.9035ZM327.747 34.9035V56.6655H329.747V34.9035H327.747ZM328.747 57.6655H338.107V55.6655H328.747V57.6655ZM359.397 56.6655H360.397V55.6655H359.397V56.6655ZM359.397 64.1535V65.1535H360.397V64.1535H359.397ZM340.677 64.1535H339.677V65.1535H340.677V64.1535ZM340.677 34.9035V33.9035H339.677V34.9035H340.677ZM350.037 34.9035H351.037V33.9035H350.037V34.9035ZM350.037 56.6655H349.037V57.6655H350.037V56.6655ZM358.397 56.6655V64.1535H360.397V56.6655H358.397ZM359.397 63.1535H340.677V65.1535H359.397V63.1535ZM341.677 64.1535V34.9035H339.677V64.1535H341.677ZM340.677 35.9035H350.037V33.9035H340.677V35.9035ZM349.037 34.9035V56.6655H351.037V34.9035H349.037ZM350.037 57.6655H359.397V55.6655H350.037V57.6655ZM360.797 63.6465L359.812 63.4772L359.651 64.4145L360.579 64.6223L360.797 63.6465ZM362.123 55.9245L362.361 54.9533L361.319 54.6975L361.138 55.7552L362.123 55.9245ZM372.965 56.9385L372.995 57.938L373.008 57.9376L373.022 57.9368L372.965 56.9385ZM375.383 56.7045L375.53 57.6937L376.383 57.5672V56.7045H375.383ZM375.383 54.3645H376.383V53.4443L375.466 53.3679L375.383 54.3645ZM371.171 54.0135L371.076 55.009L371.088 55.01L371.171 54.0135ZM366.413 53.0775L366.085 54.0222L366.085 54.0222L366.413 53.0775ZM363.332 51.2835L362.613 51.9785L362.625 51.9907L362.637 52.0025L363.332 51.2835ZM361.694 48.5145L360.733 48.7892L360.737 48.803L360.741 48.8167L361.694 48.5145ZM361.85 39.7005L362.804 39.9998L362.806 39.9946L361.85 39.7005ZM363.839 36.4635L364.502 37.2121L364.508 37.2068L364.514 37.2015L363.839 36.4635ZM367.349 34.7085L367.123 33.7344L367.119 33.7353L367.349 34.7085ZM383.885 35.3715L384.873 35.5258L385.017 34.6079L384.112 34.3975L383.885 35.3715ZM382.715 42.8595L382.556 43.8468L383.548 44.0062L383.703 43.0138L382.715 42.8595ZM371.288 42.3915L371.161 41.3995L370.288 41.511V42.3915H371.288ZM371.288 44.6925H370.288V45.6038L371.195 45.6882L371.288 44.6925ZM374.642 45.0045L374.743 44.0095L374.735 44.0088L374.642 45.0045ZM379.79 46.0575L379.453 46.9988L379.461 47.0016L379.469 47.0044L379.79 46.0575ZM383.105 47.9295L382.421 48.659L382.427 48.6643L382.432 48.6694L383.105 47.9295ZM384.899 50.6985L383.946 51.0007L383.949 51.0112L383.953 51.0216L384.899 50.6985ZM384.665 59.3565L383.732 58.9975L383.732 58.9975L384.665 59.3565ZM382.793 62.4375L383.484 63.1601L383.487 63.1573L382.793 62.4375ZM380.57 63.8025L380.903 64.7455L380.915 64.7412L380.927 64.7365L380.57 63.8025ZM377.762 64.5045L377.918 65.4922L377.918 65.4922L377.762 64.5045ZM374.759 64.7775L374.733 63.7778L374.72 63.7781L374.707 63.7789L374.759 64.7775ZM366.218 64.5435L366.329 63.5496L366.218 64.5435ZM361.783 63.8157L363.109 56.0937L361.138 55.7552L359.812 63.4772L361.783 63.8157ZM361.885 56.8956C364.803 57.6119 367.471 57.9775 369.884 57.9775V55.9775C367.669 55.9775 365.164 55.6411 362.361 54.9533L361.885 56.8956ZM369.884 57.9775C371.061 57.9775 372.098 57.9644 372.995 57.938L372.936 55.9389C372.064 55.9645 371.047 55.9775 369.884 55.9775V57.9775ZM373.022 57.9368C373.954 57.8836 374.791 57.8031 375.53 57.6937L375.237 55.7153C374.571 55.8138 373.796 55.8894 372.908 55.9401L373.022 57.9368ZM376.383 56.7045V54.3645H374.383V56.7045H376.383ZM375.466 53.3679L371.254 53.0169L371.088 55.01L375.3 55.361L375.466 53.3679ZM371.267 53.018C369.418 52.8408 367.916 52.5404 366.741 52.1327L366.085 54.0222C367.458 54.4986 369.128 54.8222 371.076 55.0089L371.267 53.018ZM366.741 52.1327C365.572 51.7271 364.68 51.196 364.027 50.5645L362.637 52.0025C363.544 52.879 364.706 53.5438 366.085 54.0222L366.741 52.1327ZM364.051 50.5885C363.408 49.923 362.94 49.1357 362.647 48.2122L360.741 48.8167C361.124 50.0253 361.748 51.0839 362.613 51.9785L364.051 50.5885ZM362.656 48.2398C362.375 47.2581 362.226 46.0803 362.226 44.6925H360.226C360.226 46.2166 360.389 47.5868 360.733 48.7892L362.656 48.2398ZM362.226 44.6925C362.226 42.7514 362.429 41.1966 362.804 39.9998L360.896 39.4011C360.439 40.8564 360.226 42.6296 360.226 44.6925H362.226ZM362.806 39.9946C363.177 38.7889 363.751 37.8776 364.502 37.2121L363.176 35.7149C362.107 36.6614 361.355 37.908 360.894 39.4064L362.806 39.9946ZM364.514 37.2015C365.276 36.5047 366.283 35.988 367.579 35.6817L367.119 33.7353C365.555 34.105 364.222 34.7582 363.164 35.7254L364.514 37.2015ZM367.575 35.6826C368.935 35.367 370.622 35.2015 372.653 35.2015V33.2015C370.524 33.2015 368.676 33.3739 367.123 33.7344L367.575 35.6826ZM372.653 35.2015C376.726 35.2015 380.392 35.5858 383.659 36.3455L384.112 34.3975C380.67 33.5972 376.849 33.2015 372.653 33.2015V35.2015ZM382.897 35.2171L381.727 42.7051L383.703 43.0138L384.873 35.5258L382.897 35.2171ZM382.874 41.8721C379.94 41.4006 377.553 41.1575 375.734 41.1575V43.1575C377.399 43.1575 379.666 43.3823 382.556 43.8468L382.874 41.8721ZM375.734 41.1575C373.966 41.1575 372.439 41.2365 371.161 41.3995L371.415 43.3834C372.582 43.2345 374.019 43.1575 375.734 43.1575V41.1575ZM370.288 42.3915V44.6925H372.288V42.3915H370.288ZM371.195 45.6882L374.549 46.0002L374.735 44.0088L371.381 43.6968L371.195 45.6882ZM374.541 45.9994C376.545 46.2023 378.175 46.5408 379.453 46.9988L380.128 45.1161C378.649 44.5861 376.847 44.2227 374.743 44.0096L374.541 45.9994ZM379.469 47.0044C380.748 47.4387 381.718 47.9994 382.421 48.659L383.789 47.1999C382.829 46.2995 381.589 45.6122 380.112 45.1106L379.469 47.0044ZM382.432 48.6694C383.165 49.3354 383.663 50.1092 383.946 51.0007L385.852 50.3962C385.459 49.1558 384.761 48.0836 383.778 47.1895L382.432 48.6694ZM383.953 51.0216C384.274 51.9633 384.445 53.0727 384.445 54.3645H386.445C386.445 52.9002 386.252 51.5656 385.845 50.3753L383.953 51.0216ZM384.445 54.3645C384.445 56.2595 384.195 57.7934 383.732 58.9975L385.598 59.7155C386.175 58.2155 386.445 56.4215 386.445 54.3645H384.445ZM383.732 58.9975C383.243 60.2678 382.687 61.151 382.099 61.7176L383.487 63.1573C384.356 62.3199 385.047 61.1491 385.598 59.7155L383.732 58.9975ZM382.102 61.7148C381.613 62.1825 380.99 62.5712 380.213 62.8684L380.927 64.7365C381.918 64.3578 382.777 63.8364 383.484 63.1601L382.102 61.7148ZM380.237 62.8595C379.414 63.1499 378.538 63.3696 377.606 63.5167L377.918 65.4922C378.962 65.3274 379.958 65.079 380.903 64.7455L380.237 62.8595ZM377.606 63.5167C376.662 63.6658 375.704 63.7529 374.733 63.7778L374.785 65.7771C375.842 65.75 376.886 65.6551 377.918 65.4922L377.606 63.5167ZM374.707 63.7789C373.732 63.8301 372.853 63.8555 372.068 63.8555V65.8555C372.895 65.8555 373.81 65.8288 374.812 65.7761L374.707 63.7789ZM372.068 63.8555C370.074 63.8555 368.161 63.7532 366.329 63.5496L366.108 65.5374C368.019 65.7497 370.006 65.8555 372.068 65.8555V63.8555ZM366.329 63.5496C364.491 63.3454 362.72 63.0522 361.016 62.6706L360.579 64.6223C362.358 65.0207 364.201 65.3255 366.108 65.5374L366.329 63.5496Z" fill="white"/>
<path d="M52.7075 55.7685L53.7035 55.6797L53.5887 54.3908L52.3704 54.827L52.7075 55.7685ZM53.4095 63.6465L53.7829 64.5741L54.4714 64.2969L54.4055 63.5577L53.4095 63.6465ZM39.0965 63.9585L38.7721 64.9045L38.7843 64.9085L39.0965 63.9585ZM34.7675 61.1505L35.5278 60.501L35.5278 60.501L34.7675 61.1505ZM32.5055 56.3925L31.528 56.6038L31.5308 56.6164L32.5055 56.3925ZM32.4665 42.8985L31.489 42.6871L31.4869 42.6972L32.4665 42.8985ZM34.6505 38.1015L35.4252 38.7339L35.4313 38.7262L34.6505 38.1015ZM38.8625 35.1765L38.5218 34.2363L38.5174 34.2379L38.8625 35.1765ZM47.6375 34.3185L47.5309 35.3128L47.5498 35.3148L47.5687 35.3161L47.6375 34.3185ZM49.8215 34.5525L49.6749 35.5417L49.68 35.5424L49.8215 34.5525ZM51.8495 34.9425L51.6069 35.9126L51.63 35.9184L51.6533 35.9231L51.8495 34.9425ZM53.4095 35.4105L54.3908 35.6025L54.541 34.835L53.8323 34.5043L53.4095 35.4105ZM52.0055 42.5865L51.7976 43.5646L52.7917 43.7759L52.9868 42.7785L52.0055 42.5865ZM41.9435 56.5095H40.9435V57.3154L41.731 57.4866L41.9435 56.5095ZM43.7375 56.8215L43.6081 57.8131L43.6312 57.8161L43.6544 57.818L43.7375 56.8215ZM51.7114 55.8572L52.4134 63.7352L54.4055 63.5577L53.7035 55.6797L51.7114 55.8572ZM53.036 62.7188C51.1872 63.4632 48.8528 63.8555 45.9995 63.8555V65.8555C49.0221 65.8555 51.6277 65.4418 53.7829 64.5741L53.036 62.7188ZM45.9995 63.8555C43.28 63.8555 41.0935 63.562 39.4086 63.0084L38.7843 64.9085C40.7394 65.5509 43.1549 65.8555 45.9995 65.8555V63.8555ZM39.4208 63.0125C37.7406 62.4365 36.4589 61.5911 35.5278 60.501L34.0071 61.8C35.208 63.2059 36.8123 64.2325 38.7721 64.9044L39.4208 63.0125ZM35.5278 60.501C34.5857 59.398 33.8932 57.9671 33.4801 56.1686L31.5308 56.6164C32.0017 58.6658 32.8172 60.4069 34.0071 61.8L35.5278 60.501ZM33.4829 56.1811C33.0859 54.3452 32.8815 52.1444 32.8815 49.5675H30.8815C30.8815 52.2425 31.093 54.5918 31.528 56.6038L33.4829 56.1811ZM32.8815 49.5675C32.8815 47.0673 33.0731 44.9146 33.446 43.0997L31.4869 42.6972C31.0798 44.6783 30.8815 46.9717 30.8815 49.5675H32.8815ZM33.4439 43.1098C33.833 41.31 34.5028 39.8636 35.4251 38.7338L33.8758 37.4691C32.7181 38.8873 31.9319 40.6389 31.489 42.6871L33.4439 43.1098ZM35.4313 38.7262C36.343 37.5866 37.5877 36.7106 39.2075 36.1151L38.5174 34.2379C36.6012 34.9424 35.0379 36.0164 33.8696 37.4768L35.4313 38.7262ZM39.2031 36.1167C40.8518 35.5193 42.9888 35.2015 45.6485 35.2015V33.2015C42.8481 33.2015 40.4611 33.5336 38.5218 34.2363L39.2031 36.1167ZM45.6485 35.2015C46.204 35.2015 46.8308 35.2378 47.5309 35.3128L47.744 33.3242C46.9881 33.2432 46.2889 33.2015 45.6485 33.2015V35.2015ZM47.5687 35.3161C48.2983 35.3664 49.0003 35.4417 49.6749 35.5417L49.968 33.5633C49.2386 33.4552 48.4846 33.3745 47.7063 33.3208L47.5687 35.3161ZM49.68 35.5424C50.3787 35.6422 51.0206 35.766 51.6069 35.9126L52.092 33.9723C51.4303 33.8069 50.7202 33.6707 49.9629 33.5625L49.68 35.5424ZM51.6533 35.9231C52.2623 36.0448 52.6967 36.1814 52.9866 36.3167L53.8323 34.5043C53.3422 34.2756 52.7366 34.1001 52.0456 33.9619L51.6533 35.9231ZM52.4281 35.2185L51.0241 42.3945L52.9868 42.7785L54.3908 35.6025L52.4281 35.2185ZM52.2133 41.6083C50.084 41.1558 48.1534 40.9235 46.4285 40.9235V42.9235C47.9795 42.9235 49.7669 43.1331 51.7976 43.5646L52.2133 41.6083ZM46.4285 40.9235C44.7382 40.9235 43.3605 41.07 42.4857 41.4899L43.3512 43.293C43.7764 43.0889 44.7387 42.9235 46.4285 42.9235V40.9235ZM42.4857 41.4899C41.3809 42.0203 40.9435 43.0794 40.9435 44.2635H42.9435C42.9435 43.5756 43.156 43.3867 43.3512 43.293L42.4857 41.4899ZM40.9435 44.2635V56.5095H42.9435V44.2635H40.9435ZM41.731 57.4866C42.3561 57.6225 42.9818 57.7314 43.6081 57.8131L43.8668 55.8299C43.2971 55.7556 42.7268 55.6564 42.1559 55.5323L41.731 57.4866ZM43.6544 57.818C44.3071 57.8724 44.9718 57.8995 45.6485 57.8995V55.8995C45.0251 55.8995 44.4159 55.8745 43.8205 55.8249L43.6544 57.818ZM45.6485 57.8995C48.345 57.8995 50.8144 57.5084 53.0445 56.71L52.3704 54.827C50.3885 55.5365 48.1519 55.8995 45.6485 55.8995V57.8995ZM82.4102 64.1535V65.1535H83.4102V64.1535H82.4102ZM73.0502 64.1535H72.0502V65.1535H73.0502V64.1535ZM73.0502 53.8185H74.0502V52.8185H73.0502V53.8185ZM66.0302 53.8185V52.8185H65.0302V53.8185H66.0302ZM66.0302 64.1535V65.1535H67.0302V64.1535H66.0302ZM56.6702 64.1535H55.6702V65.1535H56.6702V64.1535ZM56.6702 34.9035V33.9035H55.6702V34.9035H56.6702ZM66.0302 34.9035H67.0302V33.9035H66.0302V34.9035ZM66.0302 45.2385H65.0302V46.2385H66.0302V45.2385ZM73.0502 45.2385V46.2385H74.0502V45.2385H73.0502ZM73.0502 34.9035V33.9035H72.0502V34.9035H73.0502ZM82.4102 34.9035H83.4102V33.9035H82.4102V34.9035ZM82.4102 63.1535H73.0502V65.1535H82.4102V63.1535ZM74.0502 64.1535V53.8185H72.0502V64.1535H74.0502ZM73.0502 52.8185H66.0302V54.8185H73.0502V52.8185ZM65.0302 53.8185V64.1535H67.0302V53.8185H65.0302ZM66.0302 63.1535H56.6702V65.1535H66.0302V63.1535ZM57.6702 64.1535V34.9035H55.6702V64.1535H57.6702ZM56.6702 35.9035H66.0302V33.9035H56.6702V35.9035ZM65.0302 34.9035V45.2385H67.0302V34.9035H65.0302ZM66.0302 46.2385H73.0502V44.2385H66.0302V46.2385ZM74.0502 45.2385V34.9035H72.0502V45.2385H74.0502ZM73.0502 35.9035H82.4102V33.9035H73.0502V35.9035ZM81.4102 34.9035V64.1535H83.4102V34.9035H81.4102ZM105.821 46.3305H106.821V45.3305H105.821V46.3305ZM105.821 53.1165V54.1165H106.821V53.1165H105.821ZM96.4609 53.1165V52.1165H95.4609V53.1165H96.4609ZM96.4609 56.6655H95.4609V57.6655H96.4609V56.6655ZM107.927 56.6655H108.927V55.6655H107.927V56.6655ZM107.927 64.1535V65.1535H108.927V64.1535H107.927ZM87.1009 64.1535H86.1009V65.1535H87.1009V64.1535ZM87.1009 34.9035V33.9035H86.1009V34.9035H87.1009ZM107.693 34.9035L108.681 35.0578L108.861 33.9035H107.693V34.9035ZM106.523 42.3915V43.3915H107.379L107.511 42.5458L106.523 42.3915ZM96.4609 42.3915V41.3915H95.4609V42.3915H96.4609ZM96.4609 46.3305H95.4609V47.3305H96.4609V46.3305ZM104.821 46.3305V53.1165H106.821V46.3305H104.821ZM105.821 52.1165H96.4609V54.1165H105.821V52.1165ZM95.4609 53.1165V56.6655H97.4609V53.1165H95.4609ZM96.4609 57.6655H107.927V55.6655H96.4609V57.6655ZM106.927 56.6655V64.1535H108.927V56.6655H106.927ZM107.927 63.1535H87.1009V65.1535H107.927V63.1535ZM88.1009 64.1535V34.9035H86.1009V64.1535H88.1009ZM87.1009 35.9035H107.693V33.9035H87.1009V35.9035ZM106.705 34.7491L105.535 42.2371L107.511 42.5458L108.681 35.0578L106.705 34.7491ZM106.523 41.3915H96.4609V43.3915H106.523V41.3915ZM95.4609 42.3915V46.3305H97.4609V42.3915H95.4609ZM96.4609 47.3305H105.821V45.3305H96.4609V47.3305ZM131.317 55.7685L132.313 55.6797L132.198 54.3908L130.98 54.827L131.317 55.7685ZM132.019 63.6465L132.392 64.5741L133.081 64.2969L133.015 63.5577L132.019 63.6465ZM117.706 63.9585L117.381 64.9045L117.394 64.9085L117.706 63.9585ZM113.377 61.1505L114.137 60.501L114.137 60.501L113.377 61.1505ZM111.115 56.3925L110.137 56.6038L110.14 56.6164L111.115 56.3925ZM111.076 42.8985L110.098 42.6871L110.096 42.6972L111.076 42.8985ZM113.26 38.1015L114.035 38.7339L114.041 38.7262L113.26 38.1015ZM117.472 35.1765L117.131 34.2363L117.127 34.2379L117.472 35.1765ZM126.247 34.3185L126.14 35.3128L126.159 35.3148L126.178 35.3161L126.247 34.3185ZM128.431 34.5525L128.284 35.5417L128.289 35.5424L128.431 34.5525ZM130.459 34.9425L130.216 35.9126L130.239 35.9184L130.263 35.9231L130.459 34.9425ZM132.019 35.4105L133 35.6025L133.15 34.835L132.442 34.5043L132.019 35.4105ZM130.615 42.5865L130.407 43.5646L131.401 43.7759L131.596 42.7785L130.615 42.5865ZM120.553 56.5095H119.553V57.3154L120.34 57.4866L120.553 56.5095ZM122.347 56.8215L122.217 57.8131L122.241 57.8161L122.264 57.818L122.347 56.8215ZM130.321 55.8572L131.023 63.7352L133.015 63.5577L132.313 55.6797L130.321 55.8572ZM131.645 62.7188C129.797 63.4632 127.462 63.8555 124.609 63.8555V65.8555C127.631 65.8555 130.237 65.4418 132.392 64.5741L131.645 62.7188ZM124.609 63.8555C121.889 63.8555 119.703 63.562 118.018 63.0084L117.394 64.9085C119.349 65.5509 121.764 65.8555 124.609 65.8555V63.8555ZM118.03 63.0125C116.35 62.4365 115.068 61.5911 114.137 60.501L112.616 61.8C113.817 63.2059 115.422 64.2325 117.382 64.9044L118.03 63.0125ZM114.137 60.501C113.195 59.398 112.503 57.9671 112.089 56.1686L110.14 56.6164C110.611 58.6658 111.427 60.4069 112.616 61.8L114.137 60.501ZM112.092 56.1811C111.695 54.3452 111.491 52.1444 111.491 49.5675H109.491C109.491 52.2425 109.702 54.5918 110.137 56.6038L112.092 56.1811ZM111.491 49.5675C111.491 47.0673 111.682 44.9146 112.055 43.0997L110.096 42.6972C109.689 44.6783 109.491 46.9717 109.491 49.5675H111.491ZM112.053 43.1098C112.442 41.31 113.112 39.8636 114.034 38.7338L112.485 37.4691C111.327 38.8873 110.541 40.6389 110.098 42.6871L112.053 43.1098ZM114.041 38.7262C114.952 37.5866 116.197 36.7106 117.817 36.1151L117.127 34.2379C115.211 34.9424 113.647 36.0164 112.479 37.4768L114.041 38.7262ZM117.812 36.1167C119.461 35.5193 121.598 35.2015 124.258 35.2015V33.2015C121.457 33.2015 119.07 33.5336 117.131 34.2363L117.812 36.1167ZM124.258 35.2015C124.813 35.2015 125.44 35.2378 126.14 35.3128L126.353 33.3242C125.597 33.2432 124.898 33.2015 124.258 33.2015V35.2015ZM126.178 35.3161C126.908 35.3664 127.61 35.4417 128.284 35.5417L128.577 33.5633C127.848 33.4552 127.094 33.3745 126.316 33.3208L126.178 35.3161ZM128.289 35.5424C128.988 35.6422 129.63 35.766 130.216 35.9126L130.701 33.9723C130.04 33.8069 129.33 33.6707 128.572 33.5625L128.289 35.5424ZM130.263 35.9231C130.872 36.0448 131.306 36.1814 131.596 36.3167L132.442 34.5043C131.952 34.2756 131.346 34.1001 130.655 33.9619L130.263 35.9231ZM131.037 35.2185L129.633 42.3945L131.596 42.7785L133 35.6025L131.037 35.2185ZM130.823 41.6083C128.693 41.1558 126.763 40.9235 125.038 40.9235V42.9235C126.589 42.9235 128.376 43.1331 130.407 43.5646L130.823 41.6083ZM125.038 40.9235C123.348 40.9235 121.97 41.07 121.095 41.4899L121.961 43.293C122.386 43.0889 123.348 42.9235 125.038 42.9235V40.9235ZM121.095 41.4899C119.99 42.0203 119.553 43.0794 119.553 44.2635H121.553C121.553 43.5756 121.765 43.3867 121.961 43.293L121.095 41.4899ZM119.553 44.2635V56.5095H121.553V44.2635H119.553ZM120.34 57.4866C120.965 57.6225 121.591 57.7314 122.217 57.8131L122.476 55.8299C121.906 55.7556 121.336 55.6564 120.765 55.5323L120.34 57.4866ZM122.264 57.818C122.916 57.8724 123.581 57.8995 124.258 57.8995V55.8995C123.635 55.8995 123.025 55.8745 122.43 55.8249L122.264 57.818ZM124.258 57.8995C126.954 57.8995 129.424 57.5084 131.654 56.71L130.98 54.827C128.998 55.5365 126.761 55.8995 124.258 55.8995V57.8995ZM144.835 51.4395L145.833 51.384L145.781 50.4395H144.835V51.4395ZM144.64 51.4395V50.4395H143.64V51.4395H144.64ZM144.64 64.1535V65.1535H145.64V64.1535H144.64ZM135.28 64.1535H134.28V65.1535H135.28V64.1535ZM135.28 34.9035V33.9035H134.28V34.9035H135.28ZM144.64 34.9035H145.64V33.9035H144.64V34.9035ZM144.64 46.8375H143.64V47.8375H144.64V46.8375ZM144.835 46.8375V47.8375H145.781L145.833 46.8929L144.835 46.8375ZM144.991 45.5895L145.968 45.799L145.971 45.7856L144.991 45.5895ZM145.303 44.5755L144.398 44.1488L144.395 44.1552L144.392 44.1617L145.303 44.5755ZM149.866 34.9035V33.9035H149.232L148.961 34.4768L149.866 34.9035ZM160.006 34.9035L160.904 35.3429L161.608 33.9035H160.006V34.9035ZM152.986 49.2555L152.087 48.8161L151.873 49.2545L152.087 49.6932L152.986 49.2555ZM160.24 64.1535V65.1535H161.839L161.139 63.7157L160.24 64.1535ZM150.1 64.1535L149.19 64.5693L149.457 65.1535H150.1V64.1535ZM145.303 53.6625L144.392 54.0763L144.393 54.0783L145.303 53.6625ZM144.991 52.6875L144.013 52.897L144.013 52.897L144.991 52.6875ZM144.835 50.4395H144.64V52.4395H144.835V50.4395ZM143.64 51.4395V64.1535H145.64V51.4395H143.64ZM144.64 63.1535H135.28V65.1535H144.64V63.1535ZM136.28 64.1535V34.9035H134.28V64.1535H136.28ZM135.28 35.9035H144.64V33.9035H135.28V35.9035ZM143.64 34.9035V46.8375H145.64V34.9035H143.64ZM144.64 47.8375H144.835V45.8375H144.64V47.8375ZM145.833 46.8929C145.857 46.4641 145.904 46.1012 145.968 45.799L144.013 45.3799C143.922 45.8057 143.864 46.2748 143.836 46.782L145.833 46.8929ZM145.971 45.7856C146.038 45.4518 146.122 45.1901 146.213 44.9893L144.392 44.1617C144.224 44.5328 144.099 44.9472 144.01 45.3934L145.971 45.7856ZM146.207 45.0021L150.77 35.3301L148.961 34.4768L144.398 44.1488L146.207 45.0021ZM149.866 35.9035H160.006V33.9035H149.866V35.9035ZM159.107 34.4641L152.087 48.8161L153.884 49.6949L160.904 35.3429L159.107 34.4641ZM152.087 49.6932L159.341 64.5912L161.139 63.7157L153.885 48.8177L152.087 49.6932ZM160.24 63.1535H150.1V65.1535H160.24V63.1535ZM151.009 63.7376L146.212 53.2466L144.393 54.0783L149.19 64.5693L151.009 63.7376ZM146.213 53.2487C146.118 53.0388 146.034 52.7841 145.968 52.4779L144.013 52.897C144.103 53.3188 144.228 53.7141 144.392 54.0763L146.213 53.2487ZM145.968 52.4779C145.904 52.1757 145.857 51.8128 145.833 51.384L143.836 51.4949C143.864 52.0021 143.922 52.4712 144.013 52.897L145.968 52.4779ZM183.902 49.9575V48.9575H182.939L182.902 49.919L183.902 49.9575ZM183.356 64.1535V65.1535H184.318L184.355 64.1919L183.356 64.1535ZM173.567 64.1535L172.569 64.0923L172.503 65.1535H173.567V64.1535ZM175.361 34.9035V33.9035H174.42L174.363 34.8423L175.361 34.9035ZM187.568 34.9035L188.539 34.6669L188.353 33.9035H187.568V34.9035ZM191.195 49.8015L190.223 50.038L190.409 50.8015H191.195V49.8015ZM191.546 49.8015V50.8015H192.331L192.517 50.038L191.546 49.8015ZM195.173 34.9035V33.9035H194.387L194.201 34.6669L195.173 34.9035ZM207.419 34.9035L208.417 34.8436L208.36 33.9035H207.419V34.9035ZM209.174 64.1535V65.1535H210.235L210.172 64.0936L209.174 64.1535ZM199.385 64.1535L198.385 64.1919L198.422 65.1535H199.385V64.1535ZM198.839 49.9575L199.838 49.919L199.801 48.9575H198.839V49.9575ZM198.527 49.9575V48.9575H197.748L197.557 49.7124L198.527 49.9575ZM194.939 64.1535V65.1535H195.717L195.908 64.3985L194.939 64.1535ZM187.802 64.1535L186.833 64.401L187.025 65.1535H187.802V64.1535ZM184.175 49.9575L185.144 49.7099L184.951 48.9575H184.175V49.9575ZM182.902 49.919L182.356 64.115L184.355 64.1919L184.901 49.9959L182.902 49.919ZM183.356 63.1535H173.567V65.1535H183.356V63.1535ZM174.565 64.2147L176.359 34.9647L174.363 34.8423L172.569 64.0923L174.565 64.2147ZM175.361 35.9035H187.568V33.9035H175.361V35.9035ZM186.596 35.14L190.223 50.038L192.166 49.5649L188.539 34.6669L186.596 35.14ZM191.195 50.8015H191.546V48.8015H191.195V50.8015ZM192.517 50.038L196.144 35.14L194.201 34.6669L190.574 49.5649L192.517 50.038ZM195.173 35.9035H207.419V33.9035H195.173V35.9035ZM206.42 34.9634L208.175 64.2134L210.172 64.0936L208.417 34.8436L206.42 34.9634ZM209.174 63.1535H199.385V65.1535H209.174V63.1535ZM200.384 64.115L199.838 49.919L197.839 49.9959L198.385 64.1919L200.384 64.115ZM198.839 48.9575H198.527V50.9575H198.839V48.9575ZM197.557 49.7124L193.969 63.9084L195.908 64.3985L199.496 50.2025L197.557 49.7124ZM194.939 63.1535H187.802V65.1535H194.939V63.1535ZM188.771 63.9059L185.144 49.7099L183.206 50.205L186.833 64.401L188.771 63.9059ZM184.175 48.9575H183.902V50.9575H184.175V48.9575ZM210.33 34.9035V33.9035H208.859L209.4 35.2713L210.33 34.9035ZM220.665 34.9035L221.635 34.6609L221.446 33.9035H220.665V34.9035ZM223.239 45.1995L222.269 45.442L222.458 46.1995H223.239V45.1995ZM223.59 45.1995V46.1995H224.368L224.559 45.4455L223.59 45.1995ZM226.203 34.9035V33.9035H225.425L225.234 34.6575L226.203 34.9035ZM236.538 34.9035L237.468 35.2713L238.009 33.9035H236.538V34.9035ZM228.114 56.1975L227.184 55.8296L227.114 56.0069V56.1975H228.114ZM228.114 64.1535V65.1535H229.114V64.1535H228.114ZM218.754 64.1535H217.754V65.1535H218.754V64.1535ZM218.754 56.1975H219.754V56.0069L219.684 55.8296L218.754 56.1975ZM210.33 35.9035H220.665V33.9035H210.33V35.9035ZM219.695 35.146L222.269 45.442L224.209 44.9569L221.635 34.6609L219.695 35.146ZM223.239 46.1995H223.59V44.1995H223.239V46.1995ZM224.559 45.4455L227.172 35.1495L225.234 34.6575L222.621 44.9535L224.559 45.4455ZM226.203 35.9035H236.538V33.9035H226.203V35.9035ZM235.608 34.5356L227.184 55.8296L229.044 56.5653L237.468 35.2713L235.608 34.5356ZM227.114 56.1975V64.1535H229.114V56.1975H227.114ZM228.114 63.1535H218.754V65.1535H228.114V63.1535ZM219.754 64.1535V56.1975H217.754V64.1535H219.754ZM219.684 55.8296L211.26 34.5356L209.4 35.2713L217.824 56.5653L219.684 55.8296ZM249.396 63.6465L248.41 63.4772L248.249 64.4145L249.177 64.6223L249.396 63.6465ZM250.722 55.9245L250.96 54.9533L249.918 54.6975L249.736 55.7552L250.722 55.9245ZM261.564 56.9385L261.593 57.938L261.607 57.9376L261.621 57.9368L261.564 56.9385ZM263.982 56.7045L264.128 57.6937L264.982 57.5672V56.7045H263.982ZM263.982 54.3645H264.982V53.4443L264.065 53.3679L263.982 54.3645ZM259.77 54.0135L259.674 55.009L259.687 55.01L259.77 54.0135ZM255.012 53.0775L254.684 54.0222L254.684 54.0222L255.012 53.0775ZM251.931 51.2835L251.212 51.9785L251.224 51.9907L251.236 52.0025L251.931 51.2835ZM250.293 48.5145L249.331 48.7892L249.335 48.803L249.339 48.8167L250.293 48.5145ZM250.449 39.7005L251.403 39.9998L251.405 39.9946L250.449 39.7005ZM252.438 36.4635L253.101 37.2121L253.107 37.2068L253.112 37.2015L252.438 36.4635ZM255.948 34.7085L255.722 33.7344L255.718 33.7353L255.948 34.7085ZM272.484 35.3715L273.472 35.5258L273.615 34.6079L272.71 34.3975L272.484 35.3715ZM271.314 42.8595L271.155 43.8468L272.147 44.0062L272.302 43.0138L271.314 42.8595ZM259.887 42.3915L259.76 41.3995L258.887 41.511V42.3915H259.887ZM259.887 44.6925H258.887V45.6038L259.794 45.6882L259.887 44.6925ZM263.241 45.0045L263.341 44.0095L263.333 44.0088L263.241 45.0045ZM268.389 46.0575L268.051 46.9988L268.059 47.0016L268.067 47.0044L268.389 46.0575ZM271.704 47.9295L271.02 48.659L271.025 48.6643L271.031 48.6694L271.704 47.9295ZM273.498 50.6985L272.544 51.0007L272.548 51.0112L272.551 51.0216L273.498 50.6985ZM273.264 59.3565L272.33 58.9975L272.33 58.9975L273.264 59.3565ZM271.392 62.4375L272.083 63.1601L272.086 63.1573L271.392 62.4375ZM269.169 63.8025L269.502 64.7455L269.514 64.7412L269.526 64.7365L269.169 63.8025ZM266.361 64.5045L266.517 65.4922L266.517 65.4922L266.361 64.5045ZM263.358 64.7775L263.332 63.7778L263.319 63.7781L263.305 63.7789L263.358 64.7775ZM254.817 64.5435L254.927 63.5496L254.817 64.5435ZM250.381 63.8157L251.707 56.0937L249.736 55.7552L248.41 63.4772L250.381 63.8157ZM250.483 56.8956C253.401 57.6119 256.07 57.9775 258.483 57.9775V55.9775C256.267 55.9775 253.762 55.6411 250.96 54.9533L250.483 56.8956ZM258.483 57.9775C259.66 57.9775 260.697 57.9644 261.593 57.938L261.534 55.9389C260.663 55.9645 259.646 55.9775 258.483 55.9775V57.9775ZM261.621 57.9368C262.553 57.8836 263.39 57.8031 264.128 57.6937L263.835 55.7153C263.17 55.8138 262.395 55.8894 261.507 55.9401L261.621 57.9368ZM264.982 56.7045V54.3645H262.982V56.7045H264.982ZM264.065 53.3679L259.853 53.0169L259.687 55.01L263.899 55.361L264.065 53.3679ZM259.865 53.018C258.017 52.8408 256.515 52.5404 255.34 52.1327L254.684 54.0222C256.057 54.4986 257.727 54.8222 259.674 55.0089L259.865 53.018ZM255.34 52.1327C254.17 51.7271 253.279 51.196 252.626 50.5645L251.236 52.0025C252.142 52.879 253.305 53.5438 254.684 54.0222L255.34 52.1327ZM252.65 50.5885C252.006 49.923 251.539 49.1357 251.246 48.2122L249.339 48.8167C249.723 50.0253 250.347 51.0839 251.212 51.9785L252.65 50.5885ZM251.254 48.2398C250.974 47.2581 250.825 46.0803 250.825 44.6925H248.825C248.825 46.2166 248.988 47.5868 249.331 48.7892L251.254 48.2398ZM250.825 44.6925C250.825 42.7514 251.027 41.1966 251.403 39.9998L249.495 39.4011C249.038 40.8564 248.825 42.6296 248.825 44.6925H250.825ZM251.405 39.9946C251.775 38.7889 252.349 37.8776 253.101 37.2121L251.775 35.7149C250.706 36.6614 249.954 37.908 249.493 39.4064L251.405 39.9946ZM253.112 37.2015C253.875 36.5047 254.882 35.988 256.178 35.6817L255.718 33.7353C254.154 34.105 252.821 34.7582 251.763 35.7254L253.112 37.2015ZM256.174 35.6826C257.533 35.367 259.221 35.2015 261.252 35.2015V33.2015C259.123 33.2015 257.274 33.3739 255.722 33.7344L256.174 35.6826ZM261.252 35.2015C265.324 35.2015 268.991 35.5858 272.257 36.3455L272.71 34.3975C269.269 33.5972 265.447 33.2015 261.252 33.2015V35.2015ZM271.496 35.2171L270.326 42.7051L272.302 43.0138L273.472 35.5258L271.496 35.2171ZM271.472 41.8721C268.539 41.4006 266.152 41.1575 264.333 41.1575V43.1575C265.998 43.1575 268.265 43.3823 271.155 43.8468L271.472 41.8721ZM264.333 41.1575C262.564 41.1575 261.037 41.2365 259.76 41.3995L260.013 43.3834C261.18 43.2345 262.617 43.1575 264.333 43.1575V41.1575ZM258.887 42.3915V44.6925H260.887V42.3915H258.887ZM259.794 45.6882L263.148 46.0002L263.333 44.0088L259.979 43.6968L259.794 45.6882ZM263.14 45.9994C265.143 46.2023 266.774 46.5408 268.051 46.9988L268.726 45.1161C267.248 44.5861 265.446 44.2227 263.341 44.0096L263.14 45.9994ZM268.067 47.0044C269.346 47.4387 270.316 47.9994 271.02 48.659L272.388 47.1999C271.427 46.2995 270.187 45.6122 268.71 45.1106L268.067 47.0044ZM271.031 48.6694C271.764 49.3354 272.262 50.1092 272.544 51.0007L274.451 50.3962C274.058 49.1558 273.36 48.0836 272.376 47.1895L271.031 48.6694ZM272.551 51.0216C272.873 51.9633 273.044 53.0727 273.044 54.3645H275.044C275.044 52.9002 274.851 51.5656 274.444 50.3753L272.551 51.0216ZM273.044 54.3645C273.044 56.2595 272.793 57.7934 272.33 58.9975L274.197 59.7155C274.774 58.2155 275.044 56.4215 275.044 54.3645H273.044ZM272.33 58.9975C271.842 60.2678 271.285 61.151 270.698 61.7176L272.086 63.1573C272.954 62.3199 273.646 61.1491 274.197 59.7155L272.33 58.9975ZM270.701 61.7148C270.212 62.1825 269.589 62.5712 268.812 62.8684L269.526 64.7365C270.516 64.3578 271.376 63.8364 272.083 63.1601L270.701 61.7148ZM268.836 62.8595C268.013 63.1499 267.137 63.3696 266.205 63.5167L266.517 65.4922C267.561 65.3274 268.556 65.079 269.502 64.7455L268.836 62.8595ZM266.205 63.5167C265.261 63.6658 264.303 63.7529 263.332 63.7778L263.383 65.7771C264.44 65.75 265.485 65.6551 266.517 65.4922L266.205 63.5167ZM263.305 63.7789C262.331 63.8301 261.452 63.8555 260.667 63.8555V65.8555C261.494 65.8555 262.409 65.8288 263.41 65.7761L263.305 63.7789ZM260.667 63.8555C258.673 63.8555 256.76 63.7532 254.927 63.5496L254.706 65.5374C256.618 65.7497 258.605 65.8555 260.667 65.8555V63.8555ZM254.927 63.5496C253.089 63.3454 251.319 63.0522 249.614 62.6706L249.177 64.6223C250.957 65.0207 252.8 65.3255 254.706 65.5374L254.927 63.5496ZM287.124 51.4395L288.122 51.384L288.07 50.4395H287.124V51.4395ZM286.929 51.4395V50.4395H285.929V51.4395H286.929ZM286.929 64.1535V65.1535H287.929V64.1535H286.929ZM277.569 64.1535H276.569V65.1535H277.569V64.1535ZM277.569 34.9035V33.9035H276.569V34.9035H277.569ZM286.929 34.9035H287.929V33.9035H286.929V34.9035ZM286.929 46.8375H285.929V47.8375H286.929V46.8375ZM287.124 46.8375V47.8375H288.07L288.122 46.8929L287.124 46.8375ZM287.28 45.5895L288.258 45.799L288.26 45.7856L287.28 45.5895ZM287.592 44.5755L286.687 44.1488L286.684 44.1552L286.681 44.1617L287.592 44.5755ZM292.155 34.9035V33.9035H291.521L291.25 34.4768L292.155 34.9035ZM302.295 34.9035L303.193 35.3429L303.897 33.9035H302.295V34.9035ZM295.275 49.2555L294.376 48.8161L294.162 49.2545L294.376 49.6932L295.275 49.2555ZM302.529 64.1535V65.1535H304.128L303.428 63.7157L302.529 64.1535ZM292.389 64.1535L291.479 64.5693L291.746 65.1535H292.389V64.1535ZM287.592 53.6625L286.681 54.0763L286.682 54.0783L287.592 53.6625ZM287.28 52.6875L286.302 52.897L286.302 52.897L287.28 52.6875ZM287.124 50.4395H286.929V52.4395H287.124V50.4395ZM285.929 51.4395V64.1535H287.929V51.4395H285.929ZM286.929 63.1535H277.569V65.1535H286.929V63.1535ZM278.569 64.1535V34.9035H276.569V64.1535H278.569ZM277.569 35.9035H286.929V33.9035H277.569V35.9035ZM285.929 34.9035V46.8375H287.929V34.9035H285.929ZM286.929 47.8375H287.124V45.8375H286.929V47.8375ZM288.122 46.8929C288.146 46.4641 288.193 46.1012 288.257 45.799L286.302 45.3799C286.211 45.8057 286.153 46.2748 286.125 46.782L288.122 46.8929ZM288.26 45.7856C288.327 45.4518 288.411 45.1901 288.502 44.9893L286.681 44.1617C286.513 44.5328 286.388 44.9472 286.299 45.3934L288.26 45.7856ZM288.496 45.0021L293.059 35.3301L291.25 34.4768L286.687 44.1488L288.496 45.0021ZM292.155 35.9035H302.295V33.9035H292.155V35.9035ZM301.396 34.4641L294.376 48.8161L296.173 49.6949L303.193 35.3429L301.396 34.4641ZM294.376 49.6932L301.63 64.5912L303.428 63.7157L296.174 48.8177L294.376 49.6932ZM302.529 63.1535H292.389V65.1535H302.529V63.1535ZM293.298 63.7376L288.501 53.2466L286.682 54.0783L291.479 64.5693L293.298 63.7376ZM288.502 53.2487C288.407 53.0388 288.323 52.7841 288.257 52.4779L286.302 52.897C286.392 53.3188 286.517 53.7141 286.681 54.0763L288.502 53.2487ZM288.257 52.4779C288.193 52.1757 288.146 51.8128 288.122 51.384L286.125 51.4949C286.153 52.0021 286.211 52.4712 286.302 52.897L288.257 52.4779ZM314.693 64.1535V65.1535H315.693V64.1535H314.693ZM305.333 64.1535H304.333V65.1535H305.333V64.1535ZM305.333 34.9035V33.9035H304.333V34.9035H305.333ZM314.693 34.9035H315.693V33.9035H314.693V34.9035ZM314.693 63.1535H305.333V65.1535H314.693V63.1535ZM306.333 64.1535V34.9035H304.333V64.1535H306.333ZM305.333 35.9035H314.693V33.9035H305.333V35.9035ZM313.693 34.9035V64.1535H315.693V34.9035H313.693ZM338.107 56.6655H339.107V55.6655H338.107V56.6655ZM338.107 64.1535V65.1535H339.107V64.1535H338.107ZM319.387 64.1535H318.387V65.1535H319.387V64.1535ZM319.387 34.9035V33.9035H318.387V34.9035H319.387ZM328.747 34.9035H329.747V33.9035H328.747V34.9035ZM328.747 56.6655H327.747V57.6655H328.747V56.6655ZM337.107 56.6655V64.1535H339.107V56.6655H337.107ZM338.107 63.1535H319.387V65.1535H338.107V63.1535ZM320.387 64.1535V34.9035H318.387V64.1535H320.387ZM319.387 35.9035H328.747V33.9035H319.387V35.9035ZM327.747 34.9035V56.6655H329.747V34.9035H327.747ZM328.747 57.6655H338.107V55.6655H328.747V57.6655ZM359.397 56.6655H360.397V55.6655H359.397V56.6655ZM359.397 64.1535V65.1535H360.397V64.1535H359.397ZM340.677 64.1535H339.677V65.1535H340.677V64.1535ZM340.677 34.9035V33.9035H339.677V34.9035H340.677ZM350.037 34.9035H351.037V33.9035H350.037V34.9035ZM350.037 56.6655H349.037V57.6655H350.037V56.6655ZM358.397 56.6655V64.1535H360.397V56.6655H358.397ZM359.397 63.1535H340.677V65.1535H359.397V63.1535ZM341.677 64.1535V34.9035H339.677V64.1535H341.677ZM340.677 35.9035H350.037V33.9035H340.677V35.9035ZM349.037 34.9035V56.6655H351.037V34.9035H349.037ZM350.037 57.6655H359.397V55.6655H350.037V57.6655ZM360.797 63.6465L359.812 63.4772L359.651 64.4145L360.579 64.6223L360.797 63.6465ZM362.123 55.9245L362.361 54.9533L361.319 54.6975L361.138 55.7552L362.123 55.9245ZM372.965 56.9385L372.995 57.938L373.008 57.9376L373.022 57.9368L372.965 56.9385ZM375.383 56.7045L375.53 57.6937L376.383 57.5672V56.7045H375.383ZM375.383 54.3645H376.383V53.4443L375.466 53.3679L375.383 54.3645ZM371.171 54.0135L371.076 55.009L371.088 55.01L371.171 54.0135ZM366.413 53.0775L366.085 54.0222L366.085 54.0222L366.413 53.0775ZM363.332 51.2835L362.613 51.9785L362.625 51.9907L362.637 52.0025L363.332 51.2835ZM361.694 48.5145L360.733 48.7892L360.737 48.803L360.741 48.8167L361.694 48.5145ZM361.85 39.7005L362.804 39.9998L362.806 39.9946L361.85 39.7005ZM363.839 36.4635L364.502 37.2121L364.508 37.2068L364.514 37.2015L363.839 36.4635ZM367.349 34.7085L367.123 33.7344L367.119 33.7353L367.349 34.7085ZM383.885 35.3715L384.873 35.5258L385.017 34.6079L384.112 34.3975L383.885 35.3715ZM382.715 42.8595L382.556 43.8468L383.548 44.0062L383.703 43.0138L382.715 42.8595ZM371.288 42.3915L371.161 41.3995L370.288 41.511V42.3915H371.288ZM371.288 44.6925H370.288V45.6038L371.195 45.6882L371.288 44.6925ZM374.642 45.0045L374.743 44.0095L374.735 44.0088L374.642 45.0045ZM379.79 46.0575L379.453 46.9988L379.461 47.0016L379.469 47.0044L379.79 46.0575ZM383.105 47.9295L382.421 48.659L382.427 48.6643L382.432 48.6694L383.105 47.9295ZM384.899 50.6985L383.946 51.0007L383.949 51.0112L383.953 51.0216L384.899 50.6985ZM384.665 59.3565L383.732 58.9975L383.732 58.9975L384.665 59.3565ZM382.793 62.4375L383.484 63.1601L383.487 63.1573L382.793 62.4375ZM380.57 63.8025L380.903 64.7455L380.915 64.7412L380.927 64.7365L380.57 63.8025ZM377.762 64.5045L377.918 65.4922L377.918 65.4922L377.762 64.5045ZM374.759 64.7775L374.733 63.7778L374.72 63.7781L374.707 63.7789L374.759 64.7775ZM366.218 64.5435L366.329 63.5496L366.218 64.5435ZM361.783 63.8157L363.109 56.0937L361.138 55.7552L359.812 63.4772L361.783 63.8157ZM361.885 56.8956C364.803 57.6119 367.471 57.9775 369.884 57.9775V55.9775C367.669 55.9775 365.164 55.6411 362.361 54.9533L361.885 56.8956ZM369.884 57.9775C371.061 57.9775 372.098 57.9644 372.995 57.938L372.936 55.9389C372.064 55.9645 371.047 55.9775 369.884 55.9775V57.9775ZM373.022 57.9368C373.954 57.8836 374.791 57.8031 375.53 57.6937L375.237 55.7153C374.571 55.8138 373.796 55.8894 372.908 55.9401L373.022 57.9368ZM376.383 56.7045V54.3645H374.383V56.7045H376.383ZM375.466 53.3679L371.254 53.0169L371.088 55.01L375.3 55.361L375.466 53.3679ZM371.267 53.018C369.418 52.8408 367.916 52.5404 366.741 52.1327L366.085 54.0222C367.458 54.4986 369.128 54.8222 371.076 55.0089L371.267 53.018ZM366.741 52.1327C365.572 51.7271 364.68 51.196 364.027 50.5645L362.637 52.0025C363.544 52.879 364.706 53.5438 366.085 54.0222L366.741 52.1327ZM364.051 50.5885C363.408 49.923 362.94 49.1357 362.647 48.2122L360.741 48.8167C361.124 50.0253 361.748 51.0839 362.613 51.9785L364.051 50.5885ZM362.656 48.2398C362.375 47.2581 362.226 46.0803 362.226 44.6925H360.226C360.226 46.2166 360.389 47.5868 360.733 48.7892L362.656 48.2398ZM362.226 44.6925C362.226 42.7514 362.429 41.1966 362.804 39.9998L360.896 39.4011C360.439 40.8564 360.226 42.6296 360.226 44.6925H362.226ZM362.806 39.9946C363.177 38.7889 363.751 37.8776 364.502 37.2121L363.176 35.7149C362.107 36.6614 361.355 37.908 360.894 39.4064L362.806 39.9946ZM364.514 37.2015C365.276 36.5047 366.283 35.988 367.579 35.6817L367.119 33.7353C365.555 34.105 364.222 34.7582 363.164 35.7254L364.514 37.2015ZM367.575 35.6826C368.935 35.367 370.622 35.2015 372.653 35.2015V33.2015C370.524 33.2015 368.676 33.3739 367.123 33.7344L367.575 35.6826ZM372.653 35.2015C376.726 35.2015 380.392 35.5858 383.659 36.3455L384.112 34.3975C380.67 33.5972 376.849 33.2015 372.653 33.2015V35.2015ZM382.897 35.2171L381.727 42.7051L383.703 43.0138L384.873 35.5258L382.897 35.2171ZM382.874 41.8721C379.94 41.4006 377.553 41.1575 375.734 41.1575V43.1575C377.399 43.1575 379.666 43.3823 382.556 43.8468L382.874 41.8721ZM375.734 41.1575C373.966 41.1575 372.439 41.2365 371.161 41.3995L371.415 43.3834C372.582 43.2345 374.019 43.1575 375.734 43.1575V41.1575ZM370.288 42.3915V44.6925H372.288V42.3915H370.288ZM371.195 45.6882L374.549 46.0002L374.735 44.0088L371.381 43.6968L371.195 45.6882ZM374.541 45.9994C376.545 46.2023 378.175 46.5408 379.453 46.9988L380.128 45.1161C378.649 44.5861 376.847 44.2227 374.743 44.0096L374.541 45.9994ZM379.469 47.0044C380.748 47.4387 381.718 47.9994 382.421 48.659L383.789 47.1999C382.829 46.2995 381.589 45.6122 380.112 45.1106L379.469 47.0044ZM382.432 48.6694C383.165 49.3354 383.663 50.1092 383.946 51.0007L385.852 50.3962C385.459 49.1558 384.761 48.0836 383.778 47.1895L382.432 48.6694ZM383.953 51.0216C384.274 51.9633 384.445 53.0727 384.445 54.3645H386.445C386.445 52.9002 386.252 51.5656 385.845 50.3753L383.953 51.0216ZM384.445 54.3645C384.445 56.2595 384.195 57.7934 383.732 58.9975L385.598 59.7155C386.175 58.2155 386.445 56.4215 386.445 54.3645H384.445ZM383.732 58.9975C383.243 60.2678 382.687 61.151 382.099 61.7176L383.487 63.1573C384.356 62.3199 385.047 61.1491 385.598 59.7155L383.732 58.9975ZM382.102 61.7148C381.613 62.1825 380.99 62.5712 380.213 62.8684L380.927 64.7365C381.918 64.3578 382.777 63.8364 383.484 63.1601L382.102 61.7148ZM380.237 62.8595C379.414 63.1499 378.538 63.3696 377.606 63.5167L377.918 65.4922C378.962 65.3274 379.958 65.079 380.903 64.7455L380.237 62.8595ZM377.606 63.5167C376.662 63.6658 375.704 63.7529 374.733 63.7778L374.785 65.7771C375.842 65.75 376.886 65.6551 377.918 65.4922L377.606 63.5167ZM374.707 63.7789C373.732 63.8301 372.853 63.8555 372.068 63.8555V65.8555C372.895 65.8555 373.81 65.8288 374.812 65.7761L374.707 63.7789ZM372.068 63.8555C370.074 63.8555 368.161 63.7532 366.329 63.5496L366.108 65.5374C368.019 65.7497 370.006 65.8555 372.068 65.8555V63.8555ZM366.329 63.5496C364.491 63.3454 362.72 63.0522 361.016 62.6706L360.579 64.6223C362.358 65.0207 364.201 65.3255 366.108 65.5374L366.329 63.5496Z" fill="white"/>
<path d="M5 5V36.3385H21.2643V10.5851H107.556V5H5Z" stroke="white" stroke-width="2"/>
<path d="M5 5V36.3385H21.2643V10.5851H107.556V5H5Z" stroke="white" stroke-width="2"/>
<path d="M415.556 94.3385V63H399.291V88.7534H313V94.3385H415.556Z" stroke="white" stroke-width="2"/>
<path d="M415.556 94.3385V63H399.291V88.7534H313V94.3385H415.556Z" stroke="white" stroke-width="2"/>
</g>
<defs>
<filter id="filter0_d_9_6563" x="0" y="0" width="420.556" height="99.3385" filterUnits="userSpaceOnUse" color-interpolation-filters="sRGB">
<feFlood flood-opacity="0" result="BackgroundImageFix"/>
<feColorMatrix in="SourceAlpha" type="matrix" values="0 0 0 0 0 0 0 0 0 0 0 0 0 0 0 0 0 0 127 0" result="hardAlpha"/>
<feOffset/>
<feGaussianBlur stdDeviation="2"/>
<feComposite in2="hardAlpha" operator="out"/>
<feColorMatrix type="matrix" values="0 0 0 0 0.701961 0 0 0 0 0.466667 0 0 0 0 1 0 0 0 1 0"/>
<feBlend mode="normal" in2="BackgroundImageFix" result="effect1_dropShadow_9_6563"/>
<feBlend mode="normal" in="SourceGraphic" in2="effect1_dropShadow_9_6563" result="shape"/>
</filter>
</defs>
</svg>
